/* XPM */
static char *result[] = {
/* columns rows colors chars-per-pixel */
"50 50 47 1 ",
"  c #181817",
". c #1C1C1B",
"X c #1F1D1C",
"o c #1F1E1C",
"O c #1A1A19",
"+ c #191918",
"@ c #1D1D1B",
"# c #201E1C",
"$ c #231F1D",
"% c #1E1C1B",
"& c #1B1B1A",
"* c #1E1D1C",
"= c #1D1C1B",
"- c #1B1A19",
"; c #1B1B19",
": c #24201E",
"> c #1C1B1A",
", c #1D1C1A",
"< c #191817",
"1 c #201D1B",
"2 c #1B1A18",
"3 c #211F1D",
"4 c #1F1C1A",
"5 c #221E1C",
"6 c #171716",
"7 c #28221F",
"8 c #23201E",
"9 c #221F1D",
"0 c #1C1C1A",
"q c #1E1B19",
"w c #211E1B",
"e c #27211F",
"r c #1D1B1A",
"t c #241F1C",
"y c #26211E",
"u c #1D1A18",
"i c #1E1D1B",
"p c #231F1C",
"a c #1B1917",
"s c #211E1C",
"d c #1A1918",
"f c #141413",
"g c #1F1C1B",
"h c #25211E",
"j c #23201D",
"k c #151514",
"l c #211D1B",
/* pixels */
" .XoO+.X@#.#$%&.*#& O..=- .XoO+.X@#.#$%&.*#& O..=-",
";@:+.O%$#%.:X&+OX$%>@.=,<;@:+.O%$#%.:X&+OX$%>@.=,<",
"=#1+X2,$%&...@.,3$45*++o@=#1+X2,$%&...@.,3$45*++o@",
"....##.+6.7..:.+...++.:6+....##.+6.7..:.+...++.:6+",
"..683.X9@..,0*..3q%3..3#>..683.X9@..,0*..3q%3..3#>",
" .1#0139@ :3X@.O33&..:X@> .1#0139@ :3X@.O33&..:X@>",
"O@#:.%>X@w#>@..%e9.O1r*..O@#:.%>X@w#>@..%e9.O1r*..",
"&@%*.*..Xe:O &*wt#.&Xy&%>&@%*.*..Xe:O &*wt#.&Xy&%>",
">#uo.. .@w#&.&o3:X&>$3O4i>#uo.. .@w#&.&o3:X&>$3O4i",
"$%%...OX:58&.&.:.* ##*.&.$%%...OX:58&.&.:.* ##*.&.",
".++.&&.pr7.a#...........:.++.&&.pr7.a#...........:",
"X#&#&,$O ..@#$.OO%..-#@w%X#&#&,$O ..@#$.OO%..-#@w%",
" . #@X@&O..&%#. 3q*@w#*1% . #@X@&O..&%#. 3q*@w#*1%",
"OX,+...O ..s.d.%3>@Xe.@X@OX,+...O ..s.d.%3>@Xe.@X@",
"&+6 ..+:..3++:f:.:..:7:..&+6 ..+:..3++:f:.:..:7:..",
"#oo6325.@$.@@o:e3@&Oi:OO@#oo6325.@$.@@o:e3@&Oi:OO@",
"&=+.X3:@#@.@99:2X@.ig6s.@&=+.X3:@#@.@99:2X@.ig6s.@",
"OX,+$$e9@ .O,>#O*@ @.+h@.OX,+$$e9@ .O,>#O*@ @.+h@.",
"..X8,:q.XX+:#=.O..#:X:%%#..X8,:q.XX+:#=.O..#:X:%%#",
"@X37 3:@..#.*@# @=ss9#t1i@X37 3:@..#.*@# @=ss9#t1i",
">23#.*@@@@#...a3@9s9jah..>23#.*@@@@#...a3@9s9jah..",
".&k7..6.&&.l+...66:##7..o.&k7..6.&&.l+...66:##7..o",
".&&#$$X%q3o@>&.=odX@>.,&=.&&#$$X%q3o@>&.=odX@>.,&=",
"@=&#d@.###.@>&:+3*%,*.X@=@=&#d@.###.@>&:+3*%,*.X@=",
"=*@:O..&;=6&&3#O@oO =..3X=*@:O..&;=6&&3#O@oO =..3X",
" .XoO+.X@#.#$%&.*#& O..=- .XoO+.X@#.#$%&.*#& O..=-",
";@:+.O%$#%.:X&+OX$%>@.=,<;@:+.O%$#%.:X&+OX$%>@.=,<",
"=#1+X2,$%&...@.,3$45*++o@=#1+X2,$%&...@.,3$45*++o@",
"....##.+6.7..:.+...++.:6+....##.+6.7..:.+...++.:6+",
"..683.X9@..,0*..3q%3..3#>..683.X9@..,0*..3q%3..3#>",
" .1#0139@ :3X@.O33&..:X@> .1#0139@ :3X@.O33&..:X@>",
"O@#:.%>X@w#>@..%e9.O1r*..O@#:.%>X@w#>@..%e9.O1r*..",
"&@%*.*..Xe:O &*wt#.&Xy&%>&@%*.*..Xe:O &*wt#.&Xy&%>",
">#uo.. .@w#&.&o3:X&>$3O4i>#uo.. .@w#&.&o3:X&>$3O4i",
"$%%...OX:58&.&.:.* ##*.&.$%%...OX:58&.&.:.* ##*.&.",
".++.&&.pr7.a#...........:.++.&&.pr7.a#...........:",
"X#&#&,$O ..@#$.OO%..-#@w%X#&#&,$O ..@#$.OO%..-#@w%",
" . #@X@&O..&%#. 3q*@w#*1% . #@X@&O..&%#. 3q*@w#*1%",
"OX,+...O ..s.d.%3>@Xe.@X@OX,+...O ..s.d.%3>@Xe.@X@",
"&+6 ..+:..3++:f:.:..:7:..&+6 ..+:..3++:f:.:..:7:..",
"#oo6325.@$.@@o:e3@&Oi:OO@#oo6325.@$.@@o:e3@&Oi:OO@",
"&=+.X3:@#@.@99:2X@.ig6s.@&=+.X3:@#@.@99:2X@.ig6s.@",
"OX,+$$e9@ .O,>#O*@ @.+h@.OX,+$$e9@ .O,>#O*@ @.+h@.",
"..X8,:q.XX+:#=.O..#:X:%%#..X8,:q.XX+:#=.O..#:X:%%#",
"@X37 3:@..#.*@# @=ss9#t1i@X37 3:@..#.*@# @=ss9#t1i",
">23#.*@@@@#...a3@9s9jah..>23#.*@@@@#...a3@9s9jah..",
".&k7..6.&&.l+...66:##7..o.&k7..6.&&.l+...66:##7..o",
".&&#$$X%q3o@>&.=odX@>.,&=.&&#$$X%q3o@>&.=odX@>.,&=",
"@=&#d@.###.@>&:+3*%,*.X@=@=&#d@.###.@>&:+3*%,*.X@=",
"=*@:O..&;=6&&3#O@oO =..3X=*@:O..&;=6&&3#O@oO =..3X"
};
