/* XPM */
static char *result[] = {
/* columns rows colors chars-per-pixel */
"50 50 90 1 ",
"  c #262B44",
". c #2E3552",
"X c #364060",
"o c #3A4467",
"O c #394364",
"+ c #333B59",
"@ c #292F4A",
"# c #262A43",
"$ c #262B43",
"% c #2E3652",
"& c #374060",
"* c #3B4567",
"= c #3A4365",
"- c #333B5A",
"; c #292F49",
": c #282E48",
"> c #272C45",
", c #2D344F",
"< c #343C5B",
"1 c #374061",
"2 c #363F5F",
"3 c #313856",
"4 c #292E49",
"5 c #2F3754",
"6 c #2A304B",
"7 c #2C324E",
"8 c #2D3451",
"9 c #2D3450",
"0 c #2B314C",
"q c #272C46",
"w c #262B45",
"e c #353E5E",
"r c #282D46",
"t c #384263",
"y c #303856",
"u c #2A314C",
"i c #313956",
"p c #323A59",
"a c #2B324D",
"s c #282D47",
"d c #2A304A",
"f c #2F3652",
"g c #2C334E",
"h c #313957",
"j c #272D46",
"k c #262C45",
"l c #303755",
"z c #394264",
"x c #3A4466",
"c c #2D334F",
"v c #303754",
"b c #313855",
"n c #394365",
"m c #323B59",
"M c #2B314D",
"N c #323A58",
"B c #2F3653",
"V c #303855",
"C c #384162",
"Z c #353D5D",
"A c #363F5E",
"S c #313958",
"D c #2C334F",
"F c #2E3551",
"G c #333C5A",
"H c #384163",
"J c #282E47",
"K c #2A2F4A",
"L c #343D5C",
"P c #292F48",
"I c #323957",
"U c #353E5D",
"Y c #282D48",
"T c #2C324D",
"R c #363F60",
"E c #3A4465",
"W c #2B324E",
"Q c #3B4568",
"! c #343C5C",
"~ c #292E48",
"^ c #3A4567",
"/ c #272D47",
"( c #333C5B",
") c #2E3451",
"_ c #2C3350",
"` c #2D3350",
"' c #363E5F",
"] c #252A43",
"[ c #2F3654",
"{ c white",
/* pixels */
"                .XoO+@#                           ",
"                .XoO+@#                           ",
"#$              %&*=-@#                           ",
";:>             ,<1234$                           ",
"+56             ;7890q     ww                     ",
"Oe.;r           w>q>>     q4@r                    ",
"oteyu>                    @5iu>                   ",
"X2epa>                    6i+a>       ws@d@:>     ",
"..f9;w                    :g9;w       qahp38:     ",
"        >j>                          k;lzxtpdk    ",
"       scv0q                        jabenxtmdk    ",
"     >jMN&.s                        :B2Oxn&h;w    ",
"     sgh&Ol:$                       4VCox2hgs     ",
"    w;vZ1&.s                        :BACCSMj>     ",
"     scvil0q                        jav33Ds       ",
"      >jjj>                          >jjj>        ",
"                @,fFaj                  $         ",
"                ,G2Zv:$                >ssj>      ",
"                f2H<.J                >K9F90j     ",
"                FZ<D:k                s9LALvPw    ",
"                av.:k                 j7I+IF:     ",
"                j:Jk          $$      ws;@;:>     ",
"                 $          qda70:      $#$       ",
"qqq>w     k>q>k            $:5LUNg                ",
"aaa0Y    w;0T0;w           #;+OoR.                ",
"ZZUpa>   qF-U-Fq           #;+OoR.                ",
"OOn29>   jV1E1Vj           $:5LUNg           suWaa",
"**Q18q   jitQtij            qda70:    $     >MNZLL",
"&&1!g>   qBU1UBq              $$    ks~s    q81*^^",
"888g:w   >dc8cd>     wkkkkkkw       /DvD>   q9Rx==",
"qqq>w     >>q>>     r;6dddd6;r      sFN.q   >7(&RR",
"                   >uy-mmmm-yu>     >d76>   w4DF))",
"                   >_eOttttOe_>      >j>     >jsss",
"                   q81*oooo*18q                   ",
"                   >`'OzzzzO'`>                   ",
"                   k;F555555F;k                   ",
"     >j:~:q         >s::::::s>             >J:~s> ",
"     sD5yv0q           $$#]]#             >d.lV94 ",
"    w;vLAL9s            >/s:s>            jcL1Cmu ",
"     scvil0q           >~9BlF;k           s)R=^La ",
"      >jjj>            qM<Cn'`>           s82nxLM ",
"       $$$             qaUnQ18q           q05Sp.; ",
"      >jss>            >0<COe_> wqssj>    wj;@d~> ",
"     j09F9K>           >;[N-yu> j08)cd>           ",
"    w;Ve&e8s    w>q>>   >~@6;r  ;52RL.J           ",
"    kdptxt[:    ;7890q    kkw   @Sn=1l:           ",
"    k6-O*Ol:    ,<1234$         dpx^CV~           ",
"    w4B-Z(c/    %&*=-@#         ~.LLm9s           ",
"     q@0a0:k    .XoO+@#         >;Mau4>           ",
"                .XoO+@#                           "
};
