/* XPM */
static char *result[] = {
/* columns rows colors chars-per-pixel */
"50 50 125 2 ",
"   c #3A261F",
".  c #372622",
"X  c #3A2524",
"o  c #3C2B25",
"O  c #392729",
"+  c #3B2C2B",
"@  c #3F3232",
"#  c #45220C",
"$  c #442515",
"%  c #492613",
"&  c #452916",
"*  c #4A2916",
"=  c #44261A",
"-  c #49261C",
";  c #452A1C",
":  c #4B2C1C",
">  c #512F1E",
",  c #4E321E",
"<  c #53321D",
"1  c #5B341E",
"2  c #54381E",
"3  c #60391F",
"4  c #442C22",
"5  c #4A2E22",
"6  c #442628",
"7  c #442C28",
"8  c #532D23",
"9  c #463024",
"0  c #4D3224",
"q  c #42322D",
"w  c #4D352A",
"e  c #4E382B",
"r  c #533524",
"t  c #593624",
"y  c #543925",
"u  c #5B3A25",
"i  c #52362A",
"p  c #593529",
"a  c #543A2B",
"s  c #5B3D2B",
"d  c #443532",
"f  c #4F3733",
"g  c #473935",
"h  c #4B3A33",
"j  c #443938",
"k  c #4D3D3A",
"l  c #533532",
"z  c #533D33",
"x  c #5B3E32",
"c  c #523E3A",
"v  c #613B25",
"b  c #623E2B",
"n  c #693F29",
"m  c #623E33",
"M  c #5D412E",
"N  c #574035",
"B  c #5D4233",
"V  c #54433C",
"C  c #5C453B",
"Z  c #5E483A",
"A  c #63422D",
"S  c #6B452D",
"D  c #70462C",
"F  c #634433",
"G  c #694533",
"H  c #654935",
"J  c #6B4A36",
"K  c #634639",
"L  c #684139",
"P  c #65493B",
"I  c #6B4C3B",
"U  c #724C35",
"Y  c #724E3B",
"T  c #6E513B",
"R  c #755137",
"E  c #74523D",
"W  c #7B543D",
"Q  c #7E593E",
"!  c #554542",
"~  c #5F4242",
"^  c #564842",
"/  c #5B4944",
"(  c #5C4E4A",
")  c #634643",
"_  c #664E43",
"`  c #6C4E41",
"'  c #624E4B",
"]  c #6D4D49",
"[  c #724D43",
"{  c #764F49",
"}  c #665047",
"|  c #6D5142",
" . c #6C544B",
".. c #6D584C",
"X. c #745443",
"o. c #7A5642",
"O. c #765846",
"+. c #7C5A45",
"@. c #73554A",
"#. c #79554B",
"$. c #75594A",
"%. c #7D5C4A",
"&. c #675651",
"*. c #6B5551",
"=. c #6A5B54",
"-. c #745655",
";. c #725853",
":. c #7E6052",
">. c #81563E",
",. c #81593F",
"<. c #815740",
"1. c #825C44",
"2. c #885D43",
"3. c #825E4A",
"4. c #895F48",
"5. c #805F50",
"6. c #856145",
"7. c #896247",
"8. c #85624C",
"9. c #89634B",
"0. c #856352",
"q. c #896552",
"w. c #80605E",
"e. c #886159",
"r. c #816763",
/* pixels */
"+ q z } $...! V c 7 O O + q d 7 d j k / ' _ @.$.} k d @ z c k 9 X   h _ ' h X X 7 k k g o . o g N V ",
"d w x 3.8.%.K C C i ; 4 5 i i i f e B ` X.+.0.0.$.x w a N B B i = - A  .#.x 4 = w Z K x 0 ; 9 N C V ",
"k 0 b o.%.$.K K K y * * i i i i a y F W W <.+.8.@.x y y C N B i $ * m %.#.m : 5 w K K s 0 , , M B V ",
"V B s u t s I | I F s b F I I K B M J +.1.W b p s x F p a e a 5 - : m %.0.J 0 0 x X.E E E E I a 9 7 ",
"! P s * = 5 | O.X.J A G Y X.@.I B H T %.9.+.* $ 5 N K F e w w ; $ - J e.0.I p p x +.E +.8.8.%.i ; 7 ",
"! C s : 5 5 T X.X.J G G Y o.X.L B Z T %.6.+.: ; 0 B B K e y i 0 : : L 5.0.I t t b X.W +.1.8.+.t ; 4 ",
"k z i 0 w w P H J E o.W Y J Y s i 0 M J R J 2 0 w h z a M M B F K P m x x A s s J 1.6.>.S S S F K ) ",
"j w r i w i B F A o.q.3.W m F r &   y M A A y i e w e y M A F I X.@.x $ $ i F S Y 2.7.1.1 1 u Y @...",
"g e 0 y i i x F F +.q.3.W F F i ; ; 0 M A A y , e w i i b A H I @.O.x 5 $ i F A R 8.7.1.1 1 u I #.-.",
"V a M G I I i y i b I J b y p i 0 ; M T Q R A B N w 5 i U R E J M x a a i a p s G 1.1.Q U D U G P m ",
"V F U 1.8.%., , ; 8 i y 5 = ; 5 w a H +.6.6.W E ` w = : Q 6.%.A ; 5 p x B x y t b W W Q 6.7.+.M i f ",
"C F D 2.7.+.;   ; 5 y r 5 = 5 w w 0 H 6.7.6.W E I 0 = : Q 7.+.A ; ; l K K a i i x +.E W 9.9.+.M r e ",
"N s n S D G a e w y i i y a a z z x B J G U D I P 0 5 8 Q 1.Q G p i i s z x F K m L F A Q Q T H B N ",
"j g 0 ; ; 4 B H K a w a P $.@._ C C a ; * : F K B i e i R o.E Y P F r 6 6 x @.*.K = * ; M M F T X. .",
"j w 0 & = ; B F B s y y K O.| I F C i ; * : b F x y 0 i [ X.X.I K L r = $ x $.@.K & = : M A A T %.@.",
"k s u A A A M M s u u u J +.+.E I I F y r u Y Y Y G A F I ` ` F p s i i i s P H M 0 < y T T R T Y ` ",
"C A D ,.7.1.y r r A A S W 8.6.,.R O.I F A G 4.9.3.o.Y X.H Z B a ; ; e B H M y y t M M J O.6.+.H A K ",
"^ A U 7.7.1.u y 1 M F F E 8.8.+.o.X._ K F G 3.9.4.o.W X.K C N e = ; y M F y r r u F M T +.8.%.T A C ",
"k p v R R E s a a a a M H X.E J F Z C B x F Y X.Y J F K B z B a p p F Y R G n F M s M S E +.X.M s z ",
"d 4 > v u s N B B a ; : i s s i 5 7 w i i a a p a r 5 5 i i x K ` Y #.3.3.o.Y ` K y 2 M F H F i 4 4 ",
"+ o ; < r y B Z B w   ; 0 w w ; ; 4 4 a w a i i w ; 4 ; i p p K O.X.%.4.4.1.W #.` i 0 y F K B 0 4 7 ",
"@ 4 : < 0 a B H P y ; & 0 a y 0 ; ; : a y y y s y 4   4 w i a K O.T %.3.q.o.o.X.L t y M M M M w - 7 ",
"( _ I H F H +.6.+.S 2 < F T | N i < F o.3.o.E Y H a w e B F s i , , M H J s t t J o.%.E u y M H ` } ",
"&...E H M K 1.7.7.S 1 t F X.X.F r 1 S 1.3.3.W o.T s y a B Z M 0 & & 2 B F s 2 2 A 9.8.+.2 , y J @. .",
"=.@.[ H x K +.7.6.H y r H ` ` F t t J 1.%.%.` O.I b 3 v s B N a ; : y B M M M 2 S 6.8.$.a w a P  .} ",
"/ P s > 5 5 W Q Q J A M a 0 i F Y J Y Y I P 0 , t Y <.<.s a a a a M M y y H %.+.W I P K 5 ; 9 i a z ",
"! K p * 5 0 I E E T B B r $ $ A +.X.Y F K x ; = r 1.7.1.M 0 a B B Z s y , P 8.%.o.A F s 5 ; : 8 t w ",
"! K s > = : T O.$.P K B 0 : : s o.E R F K x ; = r o.8.8.y w a a H B y i y P 0.q.o.F F s : : > > t i ",
"d 5 t X.$.$.p s a w : 0 : w < J 3.3.Y s i y x m K X.o.E 0 ; 0 B } X.I B b u r r s X.Y $.X.+.o.Y Y T ",
"7 ; 8 3.q.3.a a y 4 ; ; : p t Y 3.3.Y t p r K H H E X.E , ; , B | O.I F H r $ $ t X.X.+.3.q.3.o.W E ",
"O ; t <.8.3.t y y 5 ; , 0 y < Y 9.3.E s t y F K H I X.E ; ; ; B | X.I F F y : ; p X.X.W 3.8.3.W E X.",
"j a b o.1.+.E I I K s B A I Y E R E I J F F x s s B B M a i a x F F K Y Y s 5 5 a I J Y 1.3.o.Y I I ",
"! C G W W W 7.9.8.#.X.X.%.q.8.R A A G X.O.E r r r : ; = B K F s y r L X.X.F p a s F b G E E Y F F x ",
"! ) G W W Q 4.4.9.+.W X.%.8.8.R S F J X.X.X.y i 0 ; = 5 B B B a r r K X.+.m r 0 a B F J X.+.O.J K Z ",
"j i n W >.>.W W W G A A T Q O.R U J J F s A F J F i ; 0 I T | K s p F H G J G P F a r b J J K x a h ",
"O = 1 1.6.6.F B B 0 $ ; y M M T X.X.b : % < 8.9.1.s y t 6.7.8.E K F s r > Y q.q.[ $ $ : B B x 5 5 o ",
"O 4 t 1.7.6.H H B a ; ; y Z A T X.o.A 2 # < 6.8.+.t < y >.7.6.T H K a y < J 4.q.Y % % : B C x 5 ; o ",
"d w v Q +.+.M a a y r r y M s F I I G A u A R Q E H M B W W X.H s a B J G U W o.U b b s H I H 0 5 4 ",
"! ) L o.E T a w a M B K M r r M A A U 8.9.1.S A F X.O.O.A A F y & ; K 0.9.W n b Y 8.9.3.+.X.Y s y e ",
"! m H E X.O.a i i s A M u < r s H F T +.8.3.S J G X. .| H M F y $ ; F 8.3.W D G Y 8.8.3.o.o.Y p i w ",
"! C L G H K a a y H T I F s A s M s J %.%.+.u u s T | | B s s i 0 i P 3.3.U n v J 3.1.o.W R Y H B N ",
"^ K b : $ & B F H X.8.8.8.E O.B y 0 M E X.R , # : s B B ; = ; i K K L X.o.G 8 r b o.Q R S n F Y O. .",
"^ K v * * : B F A o.9.8.+.X.$.H w 0 K X.X.I * % : M K M : = ; y F K ` +.X.L r r x X.X.Y S S G Y O. .",
"V K v 1 8 - B F J o.6.6.1.E O.C e w B P T I 1 : < s F F : ; 0 y x F ` [ X.F i i x O.E U D A P J @. .",
"h i v W 5.5.#.X.Y U D S S A H a 4 4 9 w a F X.3.1.o.X.E F M s s y r m m K p 4 4 e H F Y o.5.o.s ; 7 ",
"g i b 3.4.5.[ +.o.G S S A A H 0 4 ; 9 e i a 8.8.8.o.W X.K F K s i r x F B i 5 o w K b I 3.q.o.r $ o ",
"f i A +.+.+.o.X.E J A A A A F r : : 0 < < t %.3.%.o.E T F B M s y s a M F y , , i M F J O.3.$.r ; 5 ",
"V N s y r < F H F y : : > r y F I T p , : r H H F s s a 5 : i m I I F p t F +.X.G > * i X.+.o.s 8 w ",
"! / z 4 o w N Z Z e ; , 9 N , V ....B , o ; N Z V N 9 N   & 6 m #.#.L p 8 [ 5.e.{ 6 - 8 @.@.{ p p l ",
"! ( V @ o + ^ V V g + o o d V ( =.=.V + o @ V Z V V N g 4 o w C -.-.) l l { w.r.-.6 6 7  .-.*.c l k "
};
