/* XPM */
static char *result[] = {
/* columns rows colors chars-per-pixel */
"50 50 233 2 ",
"   c #382C0E",
".  c #3C2B17",
"X  c #393513",
"o  c #2F3108",
"O  c #3B2B27",
"+  c #452715",
"@  c #462816",
"#  c #4A2916",
"$  c #43271A",
"%  c #452A1C",
"&  c #4B2D1C",
"*  c #522E1B",
"=  c #43321A",
"-  c #4D311E",
";  c #453A1B",
":  c #53311E",
">  c #5B361F",
",  c #442C22",
"<  c #4B2E22",
"1  c #4D3224",
"2  c #4D352A",
"3  c #473827",
"4  c #533524",
"5  c #593623",
"6  c #563926",
"7  c #5B3926",
"8  c #523629",
"9  c #553A2B",
"0  c #5B3D2C",
"q  c #4D3731",
"w  c #4E3A34",
"e  c #493736",
"r  c #543C33",
"t  c #5B3E31",
"y  c #613C26",
"u  c #623E2A",
"i  c #653E35",
"p  c #3C481C",
"a  c #395636",
"s  c #35542E",
"d  c #3E692A",
"f  c #3E6B34",
"g  c #40401F",
"h  c #574A1F",
"j  c #494424",
"k  c #544526",
"l  c #5E422D",
"z  c #594928",
"x  c #475526",
"c  c #5D4234",
"v  c #53433D",
"b  c #5D453A",
"n  c #594737",
"m  c #425D3C",
"M  c #4D5536",
"N  c #515A36",
"B  c #5C5736",
"V  c #64422E",
"C  c #6B442D",
"Z  c #62482D",
"A  c #634027",
"S  c #634433",
"D  c #694633",
"F  c #664835",
"G  c #6B4935",
"H  c #624639",
"J  c #65493A",
"K  c #6B4C3B",
"L  c #6A433D",
"P  c #734D37",
"I  c #724E3B",
"U  c #784F36",
"Y  c #6D523C",
"T  c #695C3D",
"R  c #675136",
"E  c #74523D",
"W  c #7B533E",
"Q  c #79573C",
"!  c #436C27",
"~  c #44652A",
"^  c #446A2D",
"/  c #496C2E",
"(  c #446427",
")  c #46722C",
"_  c #446634",
"`  c #446932",
"'  c #4C6C33",
"]  c #43623E",
"[  c #496C3D",
"{  c #486736",
"}  c #526435",
"|  c #59693A",
" . c #4B7334",
".. c #4E7B36",
"X. c #4D743C",
"o. c #4B7838",
"O. c #547B35",
"+. c #597A36",
"@. c #52753C",
"#. c #5D733B",
"$. c #547B3C",
"%. c #5B7B3B",
"&. c #527534",
"*. c #57622E",
"=. c #66653A",
"-. c #756A3A",
";. c #68773A",
":. c #737639",
">. c #544542",
",. c #5C4641",
"<. c #5C4943",
"1. c #574C44",
"2. c #445843",
"3. c #644D42",
"4. c #6B4E41",
"5. c #6D5244",
"6. c #6C544A",
"7. c #6B5944",
"8. c #745443",
"9. c #7A5542",
"0. c #755847",
"q. c #7C5A44",
"w. c #72564A",
"e. c #745949",
"r. c #7D5C4A",
"t. c #6E5348",
"y. c #4B6545",
"u. c #4C6C43",
"i. c #4A6847",
"p. c #536B47",
"a. c #4E7C42",
"s. c #537544",
"d. c #557C42",
"f. c #5C784A",
"g. c #5A764C",
"h. c #5B7654",
"j. c #6B6242",
"k. c #6B6948",
"l. c #776743",
"z. c #637C4C",
"x. c #667844",
"c. c #757947",
"v. c #7E6153",
"b. c #7B6B51",
"n. c #647D54",
"m. c #7B7D57",
"M. c #825C46",
"N. c #885E46",
"B. c #825D49",
"V. c #845B45",
"C. c #866347",
"Z. c #896246",
"A. c #84614C",
"S. c #89624C",
"D. c #846B4C",
"F. c #836451",
"G. c #876755",
"H. c #867B57",
"J. c #54813C",
"K. c #5B833C",
"L. c #598639",
"P. c #56802F",
"I. c #62863C",
"U. c #628B3C",
"Y. c #70863C",
"T. c #5C8443",
"R. c #5C8A43",
"E. c #5C8448",
"W. c #5E8949",
"Q. c #628444",
"!. c #638A44",
"~. c #6C8B44",
"^. c #61854B",
"/. c #6E824C",
"(. c #658A4C",
"). c #6C8D4A",
"_. c #6A8747",
"`. c #748546",
"'. c #6C924B",
"]. c #6A9245",
"[. c #73964C",
"{. c #739A4D",
"}. c #789D4F",
"|. c #638554",
" X c #678954",
".X c #758651",
"XX c #6D9453",
"oX c #6D9458",
"OX c #719653",
"+X c #759A53",
"@X c #799D53",
"#X c #76965A",
"$X c #759B5B",
"%X c #7C9C5B",
"&X c #7A935A",
"*X c #7DA35C",
"=X c #7DA456",
"-X c #7B9865",
";X c #758F63",
":X c #7FA763",
">X c #838459",
",X c #91805E",
"<X c #83945C",
"1X c #829C5A",
"2X c #8A9555",
"3X c #86AB5E",
"4X c #82A459",
"5X c #8B8C62",
"6X c #889765",
"7X c #929765",
"8X c #989A70",
"9X c #87AC63",
"0X c #98A66C",
"qX c #8EB26C",
"wX c #94B66C",
"eX c #98AB71",
"rX c #9ABC7B",
"tX c #97B872",
"yX c #86A071",
"uX c #A9A574",
"iX c #A3B977",
"pX c #9DC37B",
"aX c #A3C37C",
"sX c #ABC47D",
"dX c #A2C87F",
"fX c #B0C07E",
"gX c #B6BE88",
"hX c #9EC382",
"jX c #ACC482",
"kX c #A5CB84",
"lX c #AAC986",
"zX c #B2C283",
"xX c #AAD182",
/* pixels */
"2.m s.6X6X-Xp.i.i.] s a a y.] ] ] ] p.n.z./.-XyX;Xu.y.] [ u.i.2.a a 2.n.h.y.a a m i.i.y.a s a y.p.i.",
"h.#.~.aXlXkXXX(.(.@.` ` X.d.d.$.O.@.(.#X%X1XjXlXrX(.s.d.!.(.^.s.{ _ ^.-X-Xz.{ { s.|. XE. .d ) R. X X",
"f.%.].tXkXpX).!.R...^ ^  .$.$.J.$.+.Q.+X}.4XpXaXtXQ.$.J.R.!.W.@.~ ~ T.+X=XW.~ ^ o.W.W.K.! ! ) K.W.|.",
"h.Q.K.!.^.^.oXXXXXR.$.%.R.(.(.R.T.K.+XqXwXqX~.Q.(.T.T.E.d.d.d.X.f ^ XXtXtXOX@.X.E.oXXX*X:X9X-XK.X.[ ",
"|.(.K.! _ u.(.$X$X).W.(.oX$X%X'.!.!.*XpXkXrX/ ~  .E.W.T.$.d.s.u._ ` oXkXkX*X$.$.|.$X+X9XrXkXrXd.` [ ",
"n.!.L.) _ [ OX+X+X).Q.!.OX+X@X'.U.I.=XpXlXrX' / ` R.R.R.J.+.X.o.` ! {.kXxX4X+.+.R.OX{.3XpXdXrX$.^ _ ",
"|.E.J.) o.o.].].[.@X4X=X}.].].K.+.P.].=X9X*X . . .K.J.J.K.L.T.T.$.$.'.{.}.].L.L.'.qX9X3X3X}.*XL.Q.x.",
"h.h.$...J.J.L.U.I.wXlXsX3XI.!.X.~ d  .R.R.R.O.%.$.$.a.T.R.R.R.'.*X$Xx.( ( &.].L.=XsXfXsX+.O.J.OX&X6X",
"h.g.#.+.O.J.L.U.U.qXjXaX=XK.).$.` d ..R.R.I.+.+.%.s.d.a.Q.Y.!.'.$X#X^.{ ~ $.R.R.@XsXiXiX%.$.J.OX-X5X",
"y.p.| #.J.L.{.}.1X1X6X6X'.K.$.J.R.R.!.!.)._.#.#.#.#.X.@.c.c.Y.~.[.[.^.@.@.$.J.J..X0XuX7X/.Q.W.W._. X",
"M x *.Y._.).wXsXzXx.p x x ^ ! $XhXkXwX%X%X.X=.=.*.} { { -.D.:.:.Y.~.XX$X-XE.f { } =.=.c.<X&XXXX.^ _ ",
">.n B c./.[.fXfXgXk.X p x ~ ~ %XlXjXeX<X7X>X7.7.7.B } } C.Z.-.:.Y.I.).#X-XE.{ N B =.Y l.,X<X#X .f f ",
"v n B =.k.z.0XuXuX0.j j M #.' &XeXeX<X.Xm.b.w.8.5.B N N M.Z.-.c.2X[.`./.n.k.p.B B R Y Y H.m.c.$.o.o.",
"e 2 - %   X k h z k ; 3 k.6X6X=.x j ; X . < t L i r 3 j I E -.7XiXsX`.o   l 5.7.n = + & A z B /.-X-X",
"e q 4 & . = z z l 9 1 3 k.7X5Xl.z z k # . & i L S 9 1 3 8.8.-.2XgXgXc.X = l e.w.b + # : A z B >X6X;X",
"w r 5 y 4 1 k c S 0 6 0 0.H.,Xl.F F l 4 - 4 K G D i t 0 K 8.=.H.8X8Xk.= < 0 K J S - : : R C P b.m..X",
"v S D M.B.M.t 1 8 i S Z Q b.D.q.5.8.K S l Z -.C.V.W 8.8.D S k j X g j n S 0 0 4 0 i V S B.A.9.R z B ",
"1.n G V.B.r.0 2 1 t S S T A.A.M.9.8.4.S l Z C.Z.C.9.Q 8.D G V ;   = 9 S S 0 5 4 t S V D C.S.C.F Z n ",
">.n S 8.r.e.0 9 8 t t 0 K r.r.W K 4.J S V V q.q.Q E K G V S l 6 : : l G G V 7 t c l 0 D 9.A.q.S l c ",
"e < 5 0 i S l c t 8 1 1 9 S V y : 8 8 8 0 6 C S u 6 5 4 6 7 0 S F D Y q.r.E K K S 9 7 7 G I D 6 1 < ",
"O , % 4 4 4 c S i : $ , 1 4 4 & # % < 2 9 1 1 4 1 % % % 4 - 6 F r.8.r.A.A.r.8.8.J 4 4 : Z F l & % . ",
"O . # 4 4 8 C V S 5 & % 1 2 4 < @ % , 4 8 9 1 9 2 O . , 8 4 6 F 8.E r.F.D.r.8.Y F 4 5 7 l C 0 - $ % ",
"<.J G V t S 9.q.q.i : 1 c 4.4.t 1 1 l 5.0.E R 4.H 9 3 2 0 l l 0 4 4 l K K V l l F 0.E 0.7 6 l F K 3.",
"6.w.E S c H B.S.B.D 4 8 H w.6.c 8 5 D C.v.v.8.0.K 0 8 9 c S c 4 @ @ 5 V S u 6 : Z G.A.0.9 4 9 K w.6.",
"6.6.E S F H M.S.B.D 6 9 H 6.5.b 6 > C M.B.B.I E K V 5 5 S c l 1 % # 4 l V 7 > 5 D A.A.0.9 4 9 K 7.6.",
"<.K Z : 1 2 8.M.B.G t t t 9 9 c F P C U P P 7 7 u G E E l 9 0 0 9 9 6 l 0 F E E E K Y J - % 1 0 t n ",
",.S l # . < K Q 8.G H H 8 $ $ S 0.9.K S S 0 # @ : q.S.r.9 1 8 c H F 0 4 - K A.A.q.A S l % % % 1 4 2 ",
"b c 0 & , < E 9.8.K S c 2 < % i 8.8.Y S S c < % - q.A.C.9 1 2 9 c c 0 4 6 K r.S.Q D F 0 % % % 4 4 2 ",
"2 < 5 D 8.4.i S t 9 2 2 < < < G r.r.E 0 0 9 9 9 i 0.q.9.1 1 1 c 4.I L 0 0 0 t S S K E G P G G K K J ",
"O $ 5 V.B.B.9 2 2 1 , , 1 6 4 I A.G.E 6 4 4 b c F 5.9.5.2 , , c w.8.I i S 6 $ $ 9 8.Q Q S.Z.N.W E 5.",
"O % 5 V.N.B.6 4 4 & @ # * 5 5 U S.B.I u 4 9 b S J 4.8.5.< , < S w.8.I i H t < $ 8 8.8.U Z.Z.N.9.9.8.",
"e 1 7 V.N.V.D D C 0 0 6 V D C U W Q I S S c t t c S S S 8 1 8 i G G J G K t < , r 4.I I V.V.V.E I 5.",
"v b C Q 9.9.N.N.N.V.E E V.B.N.U C C K I 5.J t 2 2 < $ & i S l 0 5 9 D 8.w.b 8 2 0 H S D 9.9.I G S b ",
"v c D E U V.N.N.V.V.E 9.B.B.S.W C S G w.8.8.9 8 8 < $ & 0 V V 7 5 4 S w.0.b 8 2 r c S D 8.9.E J H b ",
"w 0 u V.V.E M.M.V.8.G G 8.v.r.I G K S G J G t t t < < < D G G V 0 6 i K Y F c c c t 0 S K 8.4.c t r ",
"O % : V.N.B.S S i < $ , 8 H S K 8.8.S & # 4 r.G.e.0 2 0 M.A.q.I D V 0 4 1 F v.G.K # # & S S c < % O ",
"O % : V.N.B.S c H 2 % , 9 3.S 4.8.8.S * # : A.G.0.0 1 9 M.S.A.E S S 7 6 : G A.A.I # # $ S S c < % , ",
"O 1 7 V.N.B.i i c 2 < < 8 t t L I I D 7 y y Q V.9.D 0 u 8.q.9.G 0 0 0 S A P Q V.P 7 7 0 S G H 2 , , ",
">.c D W 9.I 5 8 9 r c c t 5 5 u C D E q.N.W C C G I 5.5.D S S 6 # & S B.S.U C C P B.B.r.8.8.4.t 8 q ",
">.b S E 8.8.t 8 4 c S 0 0 : 5 y V D I S.V.N.C A D I 9.8.D S S 4 # & Z A.A.E C C I B.A.A.8.8.4.9 8 2 ",
">.3.D K 4.J 9 6 9 S G G C 0 0 t i u I B.B.9.A y V I I 5.t t 0 8 & < S A.B.I u i I B.A.B.I 8.I t t q ",
",.S 0 & , , c S V E A.r.q.E 8.S 8 8 S 8.8.I & + * t D i < & < 9 S S K 8.9.D 5 4 u 8.Q E D S S I w.6.",
",.J y # @ % V V C 9.G.S.q.8.8.S 8 8 b 4.w.Y @ + & u D S < $ $ 9 J S K 8.8.D 5 5 i 8.9.I D C D 8.8.6.",
"r t 7 : # % i i G 8.V.S.q.E E c 8 q t 6.8.3.1 # * 0 S i & $ & 8 c c J 5.8.S 4 9 0 8.E E C u D I 9.0.",
"r t u I 8.8.8.P I P G I G D G 8 & , 2 t 0 S Y E 8.W I I u 0 t 0 4 0 c H 4.9 , % 4 G D I 9.B.9.7 : 1 ",
"w 6 u B.F.B.9.9.9.G u S V c S 4 $ % < 4 1 0 B.S.B.9.E 9.S S S 0 4 9 t c S 9 , % 1 S 0 I B.B.q.5 # % ",
"q < u q.B.v.8.9.9.L S H F b c 8 & < & : 4 u C.C.N.W W 9.S S b t 9 9 t H H 9 % , 2 S i G B.B.r.: # % ",
"v t 0 u 6 t D G G 7 < 1 9 9 l c J J 0 4 : : D P C i u u 1 2 8 b 4.J S 9 9 H 5.6.H 1 1 8 0.r.9.9 1 3 ",
">.H r < , , t H H 2 % , 3 2 2 b e.w.t 1 $ < c S c 9 8 8 , $ , t w.6.S 8 1 K v.v.3.% $ @ 5.5.5.9 2 e ",
">.<.t 1 , 3 H H b 2 , , q q q H w.6.,.q , , n b b w q q , , , b w.8.H 8 4 K G.G.3., % 2 w.w.6.r q e "
};
