/* XPM */
static char *cb11641565158[] = {
/* columns rows colors chars-per-pixel */
"50 50 111 2 ",
"   c None",
".  c #010102",
"X  c #01060C",
"o  c #000710",
"O  c #000A15",
"+  c #010D1C",
"@  c #0F151C",
"#  c #000F21",
"$  c #001024",
"%  c #01142C",
"&  c #001632",
"*  c #011937",
"=  c #001A3A",
"-  c #1A2532",
";  c #1D2938",
":  c #001F45",
">  c #002047",
",  c #01224B",
"<  c #022653",
"1  c #002857",
"2  c #00275A",
"3  c #00295B",
"4  c #0D315B",
"5  c #223244",
"6  c #293C52",
"7  c #002E65",
"8  c #002F69",
"9  c #063164",
"0  c #00316C",
"q  c #003575",
"w  c #053876",
"e  c #0C3D77",
"r  c #00377A",
"t  c #00387C",
"y  c #0D3F7C",
"u  c #2E425B",
"i  c #30455F",
"p  c #0D407D",
"a  c #2E4B6F",
"s  c #355173",
"d  c #003B83",
"f  c #054087",
"g  c #084083",
"h  c #05438D",
"j  c #09458E",
"k  c #184D8D",
"l  c #024697",
"z  c #084793",
"x  c #0D4891",
"c  c #03499D",
"v  c #094D9E",
"b  c #044DA5",
"n  c #094EA0",
"m  c #054FA9",
"M  c #0551AB",
"N  c #1E59A0",
"B  c #0653B0",
"V  c #0757B8",
"C  c #0759BC",
"Z  c #215CA4",
"A  c #2B66AE",
"S  c #2E68AF",
"D  c #3766A0",
"F  c #3670B6",
"G  c #3D74B7",
"H  c #3B75BB",
"J  c #48688F",
"K  c #4B6C95",
"L  c #4D6F99",
"P  c #5479A7",
"I  c #557AA8",
"U  c #497BB9",
"Y  c #0A5DC2",
"T  c #0963CF",
"R  c #0A65D3",
"E  c #0D68D7",
"W  c #0B6BDC",
"Q  c #0C6EE3",
"!  c #0D72ED",
"~  c #0E77F4",
"^  c #0F7DFE",
"/  c #107FFF",
"(  c #5785BF",
")  c #5E87B9",
"_  c #6089BB",
"`  c #1081FF",
"'  c #4983CA",
"]  c #5786C0",
"[  c #5987C0",
"{  c #5788C5",
"}  c #5A8CC9",
"|  c #5F90CC",
" . c #538CD3",
".. c #5790D6",
"X. c #5E93D4",
"o. c #5791D9",
"O. c #5D97DD",
"+. c #6293CF",
"@. c #6395D2",
"#. c #639DE4",
"$. c #66A0E7",
"%. c #6DA6ED",
"&. c #73A6E5",
"*. c #76AAE9",
"=. c #73ADF4",
"-. c #79AFF1",
";. c #7DB3F7",
":. c #7DB6FC",
">. c #82BBFF",
",. c #87C0FF",
"<. c #88C3FF",
/* pixels */
"                                                                                                    ",
"                                                                                                    ",
"                                                                                                    ",
"                                                                                                    ",
"                                                                                                    ",
"                                                                                                    ",
"                                                                                                    ",
"                                                                                                    ",
"                                                                                                    ",
"                                              O s @                                                 ",
"                                              $ [ ;                                                 ",
"                                            o * @.) .                                               ",
"                                          O = * @.&.u                                               ",
"                                          # 8 * +.<.K                                               ",
"                                        . 8 8 * | =.;.6                                             ",
"                                        % r 8 * ] Z $.L                                             ",
"                                        3 d 0 * { j F :.;                                           ",
"                                      * d d 0 * { j z @.) X                                         ",
"                                      , T l 0 * { x t  .*.5                                         ",
"                                    $ c Q l 7 * { x d S :.I                                         ",
"                                  X 3 C ` R 0 * { x d f %.*.i                                       ",
"                                  $ d C / ! 0 * { j d ' >.>.J                                       ",
"                                . 0 W R ^ ! 0 * { j t  .>.>.:.5                                     ",
"                                * d ~ / ^ ! 0 * { x N %.>.:.>.I                                     ",
"                                < d V ^ / ~ 0 * { j G <.>.>.>.-.;                                   ",
"                              % t t l Q Q Y 3 * } Z A #.#.%.>.>._ .                                 ",
"                              , Y V M d d 3 2 3 @.G 7 7 7 k U ' D +                                 ",
"                              9 ` ~ M d d d d d  .y * * * < 2 q 8 O                                 ",
"                              3 ~ M b B t d d t  .y * * * , r < < .                                 ",
"                                d m R d d d d 2 { y * * * * 7 3 X                                   ",
"                                % t M d d t c w { y : 7 : * : :                                     ",
"                                . 3 d d d z ! z [ y 2 d : * * o                                     ",
"                                  + r d d b ^ z ( p 3 d , * #                                       ",
"                                  o r d d ! ^ j ( p 1 d r = +                                       ",
"                                    > d V ~ ` j ] y 3 d r & X                                       ",
"                                    $ w E ^ ` z ( y 3 d r $                                         ",
"                                      < ! ^ ^ j ] y 1 d q X                                         ",
"                                      < E ^ ^ z ] y 3 d >                                           ",
"                                        n ^ ^ j ] p 3 t O                                           ",
"                                        % W / j ( j t =                                             ",
"                                          v / z [ x 0 $                                             ",
"                                          % ~ z [ x >                                               ",
"                                            g z [ e +                                               ",
"                                            < y { 4                                                 ",
"                                              * a                                                   ",
"                                                                                                    ",
"                                                                                                    ",
"                                                                                                    ",
"                                                                                                    ",
"                                                                                                    "
};
