/* XPM */
static char *cb21641565159[] = {
/* columns rows colors chars-per-pixel */
"50 50 112 2 ",
"   c None",
".  c #000204",
"X  c #00050C",
"o  c #06090C",
"O  c #080B0F",
"+  c #000710",
"@  c #000A17",
"#  c #000C1B",
"$  c #0D141C",
"%  c #11181F",
"&  c #021326",
"*  c #00132A",
"=  c #0A1A2E",
"-  c #141D27",
";  c #001733",
":  c #011936",
">  c #001A3A",
",  c #1B2635",
"<  c #011E42",
"1  c #002046",
"2  c #00224B",
"3  c #0B2648",
"4  c #012654",
"5  c #012A5B",
"6  c #002E64",
"7  c #002F68",
"8  c #063163",
"9  c #00316C",
"0  c #003574",
"q  c #0D3C74",
"w  c #003678",
"e  c #023A7E",
"r  c #2C4058",
"t  c #30455F",
"y  c #0D407E",
"u  c #314762",
"i  c #395372",
"p  c #32537C",
"a  c #003C83",
"s  c #013E88",
"d  c #06448E",
"f  c #08458E",
"g  c #024492",
"h  c #074896",
"j  c #034799",
"k  c #04499B",
"l  c #104B92",
"z  c #1B569D",
"x  c #204B80",
"c  c #30598B",
"v  c #3B689F",
"b  c #044DA4",
"n  c #054FA8",
"m  c #0551AD",
"M  c #1A5AA8",
"N  c #0553B0",
"B  c #0B59B7",
"V  c #0759BC",
"C  c #0A5CBF",
"Z  c #205BA3",
"A  c #3A6EAD",
"S  c #2464B2",
"D  c #2D69B1",
"F  c #3771B8",
"G  c #3D77BE",
"H  c #415E82",
"J  c #487CBC",
"K  c #075CC2",
"L  c #095DC1",
"P  c #0D61C7",
"I  c #0962CD",
"U  c #1062C6",
"Y  c #1E6AC4",
"T  c #156ACF",
"R  c #0A66D4",
"E  c #0A69DB",
"W  c #176DD4",
"Q  c #3071C0",
"!  c #3A78C2",
"~  c #0C6DE3",
"^  c #0D73ED",
"/  c #0E76F4",
"(  c #0F7DFF",
")  c #107FFF",
"_  c #457FC5",
"`  c #5D87BA",
"'  c #5E88BB",
"]  c #0F80FF",
"[  c #4C86CC",
"{  c #5786C1",
"}  c #5987C0",
"|  c #5788C4",
" . c #5A8BC7",
".. c #578CCD",
"X. c #4483D0",
"o. c #538CD2",
"O. c #5791D7",
"+. c #5E92D1",
"@. c #5792D9",
"#. c #628EC3",
"$. c #6596D1",
"%. c #6C9BD6",
"&. c #6A9DDB",
"*. c #639DE4",
"=. c #67A2EA",
"-. c #6BA6EF",
";. c #73ACF3",
":. c #7BB1F5",
">. c #76B5FF",
",. c #7BB4FA",
"<. c #7BBBFF",
"1. c #83BCFF",
/* pixels */
"                                                                                                    ",
"                                                                                                    ",
"                                                                                                    ",
"                                                                                                    ",
"                                                                                                    ",
"                                                                                                    ",
"                                                                                                    ",
"                                                                                                    ",
"                                                                                                    ",
"                                                                                                    ",
"                                              X $                                                   ",
"                                              # A $                                                 ",
"                                            + * U p                                                 ",
"                                            @ > W  .O                                               ",
"                                          @ 5 : T >.H                                               ",
"                                          > 6 : T <.` ,                                             ",
"                                        X 0 7 : P X.1.r                                             ",
"                                        < a 7 : K M :.%.-                                           ",
"                                      @ 6 a 6 > Y d G 1.u                                           ",
"                                      > s a 7 : | f F 1.%.+                                         ",
"                                    # 9 a a 7 : { M =.,.:.H                                         ",
"                                    ; a a g 7 > { D ..l ;.' -                                       ",
"                                  X w a s R 9 : ! D _ z ;.1.i                                       ",
"                                  1 a a s E 9 > K S _ o.1.1.#.,                                     ",
"                                X 9 ~ V s E 9 ; [ -._ o.1.1.1.r                                     ",
"                                < s ~ ) L ~ 9 ; $.=.G 1.*.*.*.&.%                                   ",
"                              # a V I ~ ^ ^ w 5 +.v p J q 6 6 c =                                   ",
"                              4 / ) ^ h R ^ a a o.3 ; 6 6 < 2 ; > >                                 ",
"                              8 ) ) L B / b a a @.q > 7 a 6 6 0 6 ;                                 ",
"                              8 ) R s R ) g a a @.e > 7 w 4 6 6 6 .                                 ",
"                              < L b K ~ R s a 9 ..q : 6 e 6 0 < ;                                   ",
"                                5 j R V n e a 5 #.s > < w 6 6 7 X                                   ",
"                                X 9 m K a s V d { y > > w 9 > #                                     ",
"                                  1 b L e g ( f ` a : > 0 w > X                                     ",
"                                  X k L e I ( f } y : > 9 5 *                                       ",
"                                  X 0 d g / ( f } y > > 9 > @                                       ",
"                                    * s R ( ] g } q > > 9 * .                                       ",
"                                    # 5 E ( ] f Q a > > 7 #                                         ",
"                                      5 / ( ] f L e > > 5 .                                         ",
"                                      @ B ( ( f L e : : @                                           ",
"                                        q / ] f L a 4 < o                                           ",
"                                        X E ( f C g a <                                             ",
"                                          5 ) f C g 4                                               ",
"                                          & W g L s >                                               ",
"                                            8 h L 0 .                                               ",
"                                            : 5 L >                                                 ",
"                                              + &                                                   ",
"                                                                                                    ",
"                                                                                                    ",
"                                                                                                    "
};
