/* XPM */
static char *cb31641565159[] = {
/* columns rows colors chars-per-pixel */
"50 50 120 2 ",
"   c None",
".  c #010305",
"X  c #00060C",
"o  c #000711",
"O  c #000914",
"+  c #090D13",
"@  c #010D1C",
"#  c #0E141C",
"$  c #11171E",
"%  c #000F21",
"&  c #011126",
"*  c #00132B",
"=  c #171F28",
"-  c #001936",
";  c #001A39",
":  c #15202E",
">  c #0F2035",
",  c #182330",
"<  c #1E2B3B",
"1  c #24303F",
"2  c #001E42",
"3  c #042247",
"4  c #0A2546",
"5  c #01224C",
"6  c #012756",
"7  c #002857",
"8  c #012A5B",
"9  c #002E65",
"0  c #002F68",
"q  c #053063",
"w  c #00316C",
"e  c #0C386C",
"r  c #173A65",
"t  c #003473",
"y  c #043877",
"u  c #013778",
"i  c #013A7E",
"p  c #0A3D7B",
"a  c #304662",
"s  c #3C5777",
"d  c #3B597E",
"f  c #013B83",
"g  c #013E8A",
"h  c #064086",
"j  c #0D4486",
"k  c #05438D",
"l  c #08458F",
"z  c #044592",
"x  c #084792",
"c  c #0D4993",
"v  c #034698",
"b  c #03499D",
"n  c #114C93",
"m  c #19549B",
"M  c #376296",
"N  c #044DA4",
"B  c #0652AD",
"V  c #0655B5",
"C  c #0857B7",
"Z  c #0D58B4",
"A  c #0657B8",
"S  c #0759BD",
"D  c #215CA3",
"F  c #2660A7",
"G  c #2A65AC",
"H  c #2E68AF",
"J  c #46668E",
"K  c #48688F",
"L  c #4473AD",
"P  c #4274B1",
"I  c #4A7AB5",
"U  c #4078BD",
"Y  c #547FB5",
"T  c #075BC0",
"R  c #0A5EC2",
"E  c #0A62CC",
"W  c #1262C2",
"Q  c #1266CC",
"!  c #0A66D4",
"~  c #0A68D9",
"^  c #166BD1",
"/  c #236CC4",
"(  c #2773CE",
")  c #3575C2",
"_  c #2B76D1",
"`  c #0C6DE2",
"'  c #0D72EC",
"]  c #1778ED",
"[  c #0E77F5",
"{  c #0F7DFF",
"}  c #107EFF",
"|  c #427DC4",
" . c #5784BD",
".. c #5B87BD",
"X. c #0F80FF",
"o. c #1F86FF",
"O. c #4781C7",
"+. c #4781C8",
"@. c #4C86CD",
"#. c #5686C1",
"$. c #5488C7",
"%. c #5B8DCA",
"&. c #538DD4",
"*. c #5B91D4",
"=. c #5A93DA",
"-. c #638EC3",
";. c #6293CF",
":. c #6394D1",
">. c #6898D2",
",. c #70A1DD",
"<. c #5B9AE6",
"1. c #5396E8",
"2. c #639DE3",
"3. c #68A1E7",
"4. c #6EA7EC",
"5. c #6FA9F1",
"6. c #76B0F7",
"7. c #7DB6FC",
"8. c #83BDFF",
"9. c #87C0FF",
/* pixels */
"                                                                                                    ",
"                                                                                                    ",
"                                                                                                    ",
"                                                                                                    ",
"                                                                                                    ",
"                                                                                                    ",
"                                                                                                    ",
"                                              X :                                                   ",
"                                              & Y #                                                 ",
"                                            X * %.J                                                 ",
"                                            % ; *.( @                                               ",
"                                          @ 8 - %.] h                                               ",
"                                          5 9 - ..Z / 1                                             ",
"                                        X t w - / B o.r                                             ",
"                                        5 f 0 ; R k W 1.:                                           ",
"                                      % 9 f w ; R g D 4.s                                           ",
"                                      ; V g 0 - Q ) i &.,.+                                         ",
"                                    % u ~ v 0 - ^ <.f @.7.K                                         ",
"                                    ; S } B 0 - _ <.f h 5.-.,                                       ",
"                                  X t S } ' w - :.2.f G 6.8.s                                       ",
"                                  8 V S } ' w ; ;.7.H &.8.8.>.<                                     ",
"                                o t [ [ } ' 0 - ;.9.&.=.8.@.| a                                     ",
"                                9 C } { } ' 0 ; ;.6.3.2.O.g f $.$                                   ",
"                              4 ! } } { { ' 0 ; :.2.m n i f F U d                                   ",
"                              p { { } } [ u 2 ; %.D f f f i c n  ..                                 ",
"                              f { } [ R z ; ; 5 P p t w y D D G ...                                 ",
"                              g { ~ C x x f 0 f N 8 - - 4 L | I M .                                 ",
"                              3 Z N ! } } C f 0 E i ; - ; 2 w 2 *                                   ",
"                                5 z ' { ' g f 7 T i ; - ; - 6 9 X                                   ",
"                                . 9 N { B f f 8 R i - ; - ; ; O                                     ",
"                                  2 E ` z i b y R f - ; ; ; & X                                     ",
"                                  @ ' S f T C x T i - ; 9 ; @                                       ",
"                                  o t g v E A x S i ; ; w ; O                                       ",
"                                    & f ! z B z W i ; ; w *                                         ",
"                                    O 8 ! N ` z R i ; ; 9 O                                         ",
"                                      q N v { k W f ; ; 8 X                                         ",
"                                      X 8 V { l  .p 2 w @                                           ",
"                                        ; ` } l #.j w 8 o                                           ",
"                                        X E } l ..c f *                                             ",
"                                          4 } x #.c 5                                               ",
"                                          & W x  .j -                                               ",
"                                            8 x #.e .                                               ",
"                                              6 I >                                                 ",
"                                                +                                                   ",
"                                                                                                    ",
"                                                                                                    ",
"                                                                                                    ",
"                                                                                                    ",
"                                                                                                    ",
"                                                                                                    "
};
