/* XPM */
static char *cb41641565159[] = {
/* columns rows colors chars-per-pixel */
"50 50 125 2 ",
"   c None",
".  c #010102",
"X  c #00050C",
"o  c #000710",
"O  c #000913",
"+  c #000C1B",
"@  c #000F21",
"#  c #011125",
"$  c #0A1624",
"%  c #00132A",
"&  c #131A24",
"*  c #161F2B",
"=  c #001632",
"-  c #011936",
";  c #001A39",
":  c #1F2D3D",
">  c #202E3F",
",  c #001F44",
"<  c #01224A",
"1  c #002552",
"2  c #002857",
"3  c #002758",
"4  c #022A5B",
"5  c #26374C",
"6  c #273950",
"7  c #002E65",
"8  c #002F68",
"9  c #063063",
"0  c #00316C",
"q  c #003474",
"w  c #00377A",
"e  c #013A7E",
"r  c #0A3C79",
"t  c #0D407E",
"y  c #3D597A",
"u  c #405C7F",
"i  c #003C83",
"p  c #013F89",
"a  c #05438D",
"s  c #08458F",
"d  c #0D488F",
"f  c #034594",
"g  c #084691",
"h  c #03499E",
"j  c #084A9A",
"k  c #134E94",
"l  c #1C569D",
"z  c #37649A",
"x  c #044BA1",
"c  c #0A4FA1",
"v  c #054FA9",
"b  c #0551AD",
"n  c #0A52A8",
"m  c #1253A0",
"M  c #1E59A0",
"N  c #0656B6",
"B  c #0759BD",
"V  c #0A5CBE",
"C  c #205AA1",
"Z  c #2A65AC",
"A  c #2665B0",
"S  c #2F6AB1",
"D  c #2A6CBB",
"F  c #356FB6",
"G  c #3670B7",
"H  c #3772B8",
"J  c #3973B9",
"K  c #436185",
"L  c #47668C",
"P  c #4D6F99",
"I  c #50749F",
"U  c #4772A7",
"Y  c #4973A7",
"T  c #537CAE",
"R  c #4778B4",
"E  c #487AB7",
"W  c #477CBC",
"Q  c #075BC1",
"!  c #095EC4",
"~  c #085FC8",
"^  c #0A60C7",
"/  c #0961CA",
"(  c #1564C4",
")  c #1864C0",
"_  c #1468CE",
"`  c #0B69DB",
"'  c #166CD2",
"]  c #2069C2",
"[  c #3473C0",
"{  c #3877C5",
"}  c #3E78C0",
"|  c #0C6EE4",
" . c #0D70E5",
".. c #0D71E8",
"X. c #0E76F4",
"o. c #0F7DFE",
"O. c #447DC4",
"+. c #497FC2",
"@. c #4781C7",
"#. c #4F85C8",
"$. c #5686C1",
"%. c #5789C7",
"&. c #5989C4",
"*. c #518CD3",
"=. c #5D92D3",
"-. c #5791D8",
";. c #5E98DE",
":. c #6393CD",
">. c #6395D3",
",. c #6C9BD5",
"<. c #659ADB",
"1. c #70A2DF",
"2. c #5F9AE0",
"3. c #639DE3",
"4. c #66A0E7",
"5. c #6CA6ED",
"6. c #71A3E0",
"7. c #76ABEC",
"8. c #76B0F7",
"9. c #7AB1F5",
"0. c #74B3FF",
"q. c #7CB5FC",
"w. c #7BBBFF",
"e. c #83BCFF",
"r. c #86C0FF",
/* pixels */
"                                                                                                    ",
"                                                                                                    ",
"                                                                                                    ",
"                                                                                                    ",
"                                                                                                    ",
"                                                                                                    ",
"                                                                                                    ",
"                                                                                                    ",
"                                              o 6                                                   ",
"                                              # D $                                                 ",
"                                            o = _ U                                                 ",
"                                            % ; ' >.5                                               ",
"                                          + 7 = _ w.L                                               ",
"                                          3 0 - _ 0.6.5                                             ",
"                                        + q 0 - ^ D e.y                                             ",
"                                        1 p 7 - Q l 3.9.*                                           ",
"                                      % q i 7 - { a F e.P                                           ",
"                                      < p i 7 ; &.d W e.6.&                                         ",
"                                    @ e e i 8 - $.Z 5.;.e.Y                                         ",
"                                    < i p b 0 - $.S @.i 5.,.5                                       ",
"                                  O w i p ` 0 ; ) A O.F 9.e.u                                       ",
"                                  4 f p p ` 0 - ( [ O.*.e.e.7.>                                     ",
"                                # e o.` p ` 8 ; >.8.O.<.e.e.e.K                                     ",
"                                < p ~ o.| | 8 ; >.3.H e.@.J J <.&                                   ",
"                              % q p v o.o.| 7 - >.4.k l i e F 8.T                                   ",
"                              = p ! o.X.h < ; - :.e.*.l C } e.e.:.X                                 ",
"                              < B B ~ Q N 7 3 3 =.%.U W +.R E +.z .                                 ",
"                              9 o.B f | o.f i p -.r = 7 q < q 3 4 .                                 ",
"                                j v ~ ~ B i i 4 &.r = 7 i 7 7 1 +                                   ",
"                                ; p ! Q h e a 0 &.a ; ; w 8 1 3 X                                   ",
"                                . 7 v ! e p ` s $.r ; ; w 0 - o                                     ",
"                                  % x ~ e h o.d &.t ; ; q w ;                                       ",
"                                  o f N i  .o.g $.t - ; 0 < +                                       ",
"                                  o 2 i v X.o.g $.t - ; 0 = o                                       ",
"                                    # e ` o.o.g $.t ; ; 0 #                                         ",
"                                      1 ` o.o.g ) e ; ; 0 o                                         ",
"                                      9 ..o.o.s ^ e - ; <                                           ",
"                                        n o.o.g V e ; - X                                           ",
"                                        < ..o.d V a 0 <                                             ",
"                                        . V o.s V f w %                                             ",
"                                          - o.g V f <                                               ",
"                                            j s Q e %                                               ",
"                                            4 s ^ 7                                                 ",
"                                              < g #                                                 ",
"                                                .                                                   ",
"                                                                                                    ",
"                                                                                                    ",
"                                                                                                    ",
"                                                                                                    ",
"                                                                                                    "
};
