/* XPM */
static char *cg11641565159[] = {
/* columns rows colors chars-per-pixel */
"50 50 232 2 ",
"   c None",
".  c black",
"X  c #000100",
"o  c #010201",
"O  c #010403",
"+  c #020503",
"@  c #010705",
"#  c #020604",
"$  c #020705",
"%  c #030705",
"&  c #020805",
"*  c #030806",
"=  c #030B07",
"-  c #030B08",
";  c #040B08",
":  c #040C08",
">  c #040D09",
",  c #050D09",
"<  c #050E0A",
"1  c #050F0B",
"2  c #05100B",
"3  c #05110B",
"4  c #05120C",
"5  c #06120C",
"6  c #06120D",
"7  c #06160F",
"8  c #07160F",
"9  c #07170F",
"0  c #071710",
"q  c #081711",
"w  c #061810",
"e  c #071911",
"r  c #051B11",
"t  c #081A11",
"y  c #0A1913",
"u  c #081A12",
"i  c #091B13",
"p  c #0A1A13",
"a  c #0A1B13",
"s  c #081D13",
"d  c #0A1A14",
"f  c #0A1B14",
"g  c #0A1C14",
"h  c #0A1C15",
"j  c #0A1E15",
"k  c #0B1D16",
"l  c #0B1E16",
"z  c #0A2217",
"x  c #0A2317",
"c  c #0B2118",
"v  c #0A2318",
"b  c #0A261A",
"n  c #0B261A",
"m  c #0C2419",
"M  c #0C251A",
"N  c #0D271B",
"B  c #0C281B",
"V  c #0C291C",
"C  c #0D291D",
"Z  c #0E291D",
"A  c #0C2B1D",
"S  c #0E2A1D",
"D  c #0E2B1E",
"F  c #092F1E",
"G  c #0C2C1D",
"H  c #0D2C1D",
"J  c #0D2C1E",
"K  c #0C2D1E",
"L  c #0E2D1E",
"P  c #0E2C1F",
"I  c #0E2D1F",
"U  c #0A311F",
"Y  c #0F2E20",
"T  c #0E2F20",
"R  c #0F2F21",
"E  c #0F3122",
"W  c #0D3322",
"Q  c #0F3222",
"!  c #0F3322",
"~  c #0B3623",
"^  c #0F3725",
"/  c #0E3A26",
"(  c #103323",
")  c #103424",
"_  c #103524",
"`  c #103625",
"'  c #113625",
"]  c #103826",
"[  c #113B28",
"{  c #123B28",
"}  c #123C29",
"|  c #123D29",
" . c #123D2A",
".. c #123E2A",
"X. c #133E2A",
"o. c #123F2B",
"O. c #133F2B",
"+. c #0D4029",
"@. c #0D412A",
"#. c #13402B",
"$. c #13402C",
"%. c #13412C",
"&. c #13422D",
"*. c #13432D",
"=. c #13452E",
"-. c #12462F",
";. c #13462F",
":. c #14442E",
">. c #0F4E32",
",. c #134830",
"<. c #144830",
"1. c #144931",
"2. c #154931",
"3. c #144A31",
"4. c #144A32",
"5. c #154C33",
"6. c #154D34",
"7. c #164D34",
"8. c #154F35",
"9. c #164E34",
"0. c #164F35",
"q. c #165036",
"w. c #165136",
"e. c #175137",
"r. c #165237",
"t. c #165337",
"y. c #165338",
"u. c #115738",
"i. c #165438",
"p. c #175539",
"a. c #17563A",
"s. c #18563A",
"d. c #125B3A",
"f. c #17583B",
"g. c #175B3C",
"h. c #19583B",
"j. c #19593C",
"k. c #195A3D",
"l. c #1A5D3E",
"z. c #14613E",
"x. c #1B6141",
"c. c #1B6242",
"v. c #1B6342",
"b. c #1B6343",
"n. c #1B6443",
"m. c #1C6544",
"M. c #156943",
"N. c #1A6B46",
"B. c #1D6947",
"V. c #1A6E48",
"C. c #1E6F4A",
"Z. c #1B7049",
"A. c #1E704B",
"S. c #1F724D",
"D. c #1F734D",
"F. c #1F754F",
"G. c #1F764F",
"H. c #1D7E52",
"J. c #207851",
"K. c #217A52",
"L. c #207B52",
"P. c #217D54",
"I. c #227F55",
"U. c #1D8154",
"Y. c #1C8254",
"T. c #1B8857",
"R. c #1F8C5B",
"E. c #1C8E5A",
"W. c #1D925D",
"Q. c #228156",
"!. c #228157",
"~. c #238257",
"^. c #238258",
"/. c #23865A",
"(. c #24885B",
"). c #24895C",
"_. c #258D5E",
"`. c #258D5F",
"'. c #258E5F",
"]. c #268E5F",
"[. c #20925F",
"{. c #1F9F65",
"}. c #268E60",
"|. c #268F60",
" X c #269061",
".X c #269162",
"XX c #229E66",
"oX c #20A066",
"OX c #23A56A",
"+X c #24A86C",
"@X c #24AD6F",
"#X c #24AE6F",
"$X c #24AE70",
"%X c #24AF70",
"&X c #23B070",
"*X c #23B271",
"=X c #24B071",
"-X c #24B171",
";X c #23B473",
":X c #25B574",
">X c #26B474",
",X c #26B876",
"<X c #26B977",
"1X c #27BB78",
"2X c #26BC78",
"3X c #27BF7A",
"4X c #27C17C",
"5X c #27C27C",
"6X c #28C37D",
"7X c #29C880",
"8X c #2ACD83",
"9X c #2ACF85",
"0X c #2BDA8B",
"qX c #2CD88A",
"wX c #2CDA8B",
"eX c #2CDE8E",
"rX c #2CDF8E",
"tX c #2DE291",
"yX c #2DE692",
"uX c #2EEC96",
"iX c #2FEE98",
"pX c #2FEF99",
"aX c #2FF199",
"sX c #30F39B",
"dX c #30F59C",
"fX c #30F69D",
"gX c #31F89E",
"hX c #31F99F",
"jX c #31FA9F",
"kX c #32FBA0",
"lX c #32FDA1",
"zX c #33FFA4",
/* pixels */
"                                                                                                    ",
"                                                                                                    ",
"                                                                                                    ",
"                                                                                                    ",
"                                                                                                    ",
"                                                                                                    ",
"                                                                                                    ",
"                                                                                                    ",
"                                                                                                    ",
"                                              : M.r                                                 ",
"                                              5 =X~                                                 ",
"                                            * i 5X&X.                                               ",
"                                          = j f 5X0Xu.                                              ",
"                                          3 ( s 3XzXE.                                              ",
"                                        . ( ) i 1XtXuX>.                                            ",
"                                        9 } ) f %XV.9XW.                                            ",
"                                        H :.) f =X7.E.sXF                                           ",
"                                      i *.:.) f &Xe.e.6X=X#                                         ",
"                                      M C.7.( f &Xi.} :XrX@.                                        ",
"                                    3 e.P.7.( f =Xi.*.U.iXoX                                        ",
"                                  # D m.}.A.) j &Xe.*.2.qXrXd.                                      ",
"                                  5 *.c.}.~.) f =Xe.} OXsXkXT.                                      ",
"                                . / J.S._.~.^ f ;Xi.} :XgXsXiX@.                                    ",
"                                i *.(._._.~.) f =Xe.N.qXdXsXsX{.                                    ",
"                                D :.x._.}.^.) f =X5.[.jXdXgXsXyXF                                   ",
"                              0 } } 7.K.K.B.R f ;XZ.H.8X6XwXgXgX;XO                                 ",
"                              b n.c.k.&.&.R Y H 4X[.( ( ( l.oX+XU.1                                 ",
"                              ^ .X(.h.&.&.&.&.:.1X:.i i i Z Z ] W :                                 ",
"                              W /.k.s.l.O.&.&.o.1X2.f f i M } D D .                                 ",
"                                =.h.S.=.O.&.#.H %X2.f f p d ( H *                                   ",
"                                9 %.h.%.*.o.y.o.%X1.m R k f m c                                     ",
"                                . H %.%.o.<.~.7.%X1.Y &.l f i #                                     ",
"                                  : } *.%.h.].7.@X2.Z &.N f :                                       ",
"                                  & } =.*.~.[.5.$X2.L &.{ f :                                       ",
"                                    b *.c.).}.e.$X2.Z &.} i &                                       ",
"                                    : ] F._.}.7.$X2.L &.} 5                                         ",
"                                      D I.].[.5.$X2.D *.] +                                         ",
"                                      H F.].].e.$X2.D *.c                                           ",
"                                        h._._.5.$X1.H } =                                           ",
"                                        0 K..Xe.@Xe.*.s                                             ",
"                                          s._.7.$Xi.^ 5                                             ",
"                                          r ).5.@Xi.z                                               ",
"                                            2.e.$X=.-                                               ",
"                                            H =.:X/                                                 ",
"                                              r z.                                                  ",
"                                                                                                    ",
"                                                                                                    ",
"                                                                                                    ",
"                                                                                                    ",
"                                                                                                    "
};
