/* XPM */
static char *cg21641565159[] = {
/* columns rows colors chars-per-pixel */
"50 50 250 2 ",
"   c None",
".  c black",
"X  c #000101",
"o  c #010202",
"O  c #010402",
"+  c #010403",
"@  c #010503",
"#  c #010504",
"$  c #020504",
"%  c #020604",
"&  c #020705",
"*  c #030705",
"=  c #020805",
"-  c #020C07",
";  c #040B08",
":  c #030C08",
">  c #030D09",
",  c #030E09",
"<  c #040C08",
"1  c #040C09",
"2  c #040D09",
"3  c #040E09",
"4  c #050E0A",
"5  c #040F0A",
"6  c #050F0A",
"7  c #05140D",
"8  c #04150D",
"9  c #06140E",
"0  c #06150E",
"q  c #07140F",
"w  c #07150F",
"e  c #091711",
"r  c #061C12",
"t  c #061F14",
"y  c #081911",
"u  c #081A11",
"i  c #091812",
"p  c #091A13",
"a  c #091B13",
"s  c #0A1A13",
"d  c #0A1B13",
"f  c #0A1B14",
"g  c #081D14",
"h  c #091D14",
"j  c #0A1C14",
"k  c #0A1C15",
"l  c #0A1D15",
"z  c #091E14",
"x  c #081F15",
"c  c #091F15",
"v  c #0A1F15",
"b  c #092116",
"n  c #0B2017",
"m  c #0A2117",
"M  c #0A2217",
"N  c #072618",
"B  c #092318",
"V  c #0C2219",
"C  c #0B2519",
"Z  c #0C241A",
"A  c #0C261B",
"S  c #0D261B",
"D  c #0C2A1D",
"F  c #0D2A1D",
"G  c #0C2B1D",
"H  c #0D2D1F",
"J  c #0E2C1F",
"K  c #0E2D1F",
"L  c #0D2E1F",
"P  c #0A301F",
"I  c #0E2E20",
"U  c #0F2E20",
"Y  c #0E2F20",
"T  c #0F2F20",
"R  c #0A3321",
"E  c #0D3021",
"W  c #0F3021",
"Q  c #0E3121",
"!  c #0E3122",
"~  c #0F3122",
"^  c #0F3222",
"/  c #0F3323",
"(  c #0E3423",
")  c #0F3423",
"_  c #0E3624",
"`  c #0F3725",
"'  c #103323",
"]  c #103424",
"[  c #103524",
"{  c #103525",
"}  c #103624",
"|  c #103625",
" . c #113625",
".. c #103725",
"X. c #113726",
"o. c #103826",
"O. c #113826",
"+. c #113A27",
"@. c #113B28",
"#. c #123B28",
"$. c #123C29",
"%. c #123E2A",
"&. c #123F2A",
"*. c #13402B",
"=. c #13402C",
"-. c #13412C",
";. c #13422C",
":. c #13422D",
">. c #13432D",
",. c #14432D",
"<. c #14432E",
"1. c #12442E",
"2. c #13442E",
"3. c #13452E",
"4. c #13452F",
"5. c #14442E",
"6. c #14452E",
"7. c #14452F",
"8. c #14462F",
"9. c #154831",
"0. c #144A31",
"q. c #154932",
"w. c #144A32",
"e. c #154A32",
"r. c #144B32",
"t. c #154B33",
"y. c #164C33",
"u. c #164D34",
"i. c #154E34",
"p. c #164E34",
"a. c #164E35",
"s. c #164F35",
"d. c #175037",
"f. c #175137",
"g. c #115436",
"h. c #185439",
"j. c #185539",
"k. c #18563A",
"l. c #125A3A",
"z. c #17583A",
"x. c #125D3C",
"c. c #165C3D",
"v. c #19583B",
"b. c #195B3D",
"n. c #1A5C3E",
"m. c #1B6242",
"M. c #1B6343",
"N. c #1B6443",
"B. c #1B6444",
"V. c #196744",
"C. c #1C6544",
"Z. c #1C6645",
"A. c #1C6745",
"S. c #1C6746",
"D. c #166B45",
"F. c #166D46",
"G. c #1B6B47",
"H. c #1C6846",
"J. c #1D6947",
"K. c #1B6F49",
"L. c #1D6D49",
"P. c #1D6F4A",
"I. c #1E6E4A",
"U. c #1E6F4A",
"Y. c #197049",
"T. c #1E704B",
"R. c #1E714C",
"E. c #1F714C",
"W. c #1F724D",
"Q. c #1F734E",
"!. c #1F744E",
"~. c #1F754E",
"^. c #187A4E",
"/. c #1D794F",
"(. c #197D4F",
"). c #1F7A51",
"_. c #1F7D53",
"`. c #1D7F53",
"'. c #20764F",
"]. c #207750",
"[. c #207851",
"{. c #217A52",
"}. c #217B53",
"|. c #217D54",
" X c #207E54",
".X c #1E8355",
"XX c #1D8556",
"oX c #1E8A5A",
"OX c #1F8D5C",
"+X c #228056",
"@X c #228157",
"#X c #238257",
"$X c #238459",
"%X c #23855A",
"&X c #24855A",
"*X c #208B5B",
"=X c #24885B",
"-X c #258C5E",
";X c #258D5E",
":X c #258D5F",
">X c #258E5F",
",X c #268E60",
"<X c #268F60",
"1X c #269060",
"2X c #269061",
"3X c #219560",
"4X c #219561",
"5X c #229E66",
"6X c #22A067",
"7X c #23A168",
"8X c #23A268",
"9X c #24A56B",
"0X c #24AB6E",
"qX c #24AE70",
"wX c #24AF70",
"eX c #23B171",
"rX c #23B272",
"tX c #24B071",
"yX c #24B171",
"uX c #25B172",
"iX c #25B272",
"pX c #24B474",
"aX c #25B574",
"sX c #26B675",
"dX c #26B775",
"fX c #25BA77",
"gX c #27BA77",
"hX c #27BB78",
"jX c #27BD7A",
"kX c #27C47D",
"lX c #29C981",
"zX c #29CA81",
"xX c #28CC82",
"cX c #29CD83",
"vX c #2ACF84",
"bX c #2BD286",
"nX c #2BD287",
"mX c #2CD88A",
"MX c #2DDF8F",
"NX c #2DE290",
"BX c #2EE995",
"VX c #2FEB96",
"CX c #2FEE98",
"ZX c #30F39B",
"AX c #31F49C",
"SX c #30F69D",
"DX c #31F69D",
"FX c #31F89E",
"GX c #31F99F",
"HX c #31FA9F",
/* pixels */
"                                                                                                    ",
"                                                                                                    ",
"                                                                                                    ",
"                                                                                                    ",
"                                                                                                    ",
"                                                                                                    ",
"                                                                                                    ",
"                                                                                                    ",
"                                                                                                    ",
"                                                                                                    ",
"                                              & r                                                   ",
"                                              1 oX8                                                 ",
"                                            & 8 T.D.                                                ",
"                                            1 f  XpX,                                               ",
"                                          , K p ).VX^.                                              ",
"                                          c ' p ).AXeXP                                             ",
"                                        @ O.] p T.9XHXl.                                            ",
"                                        A -.] p C.G.VXxXN                                           ",
"                                      1 ' -.} p _.e.3XZXx.                                          ",
"                                      c -.-.] f eXi.OXHXxX-                                         ",
"                                    7 ) *.*.] f 0XK.bXCXVX(.                                        ",
"                                    p -.*.e.} d eX.XeXz.MXeXr                                       ",
"                                  * #.-.8.~.} d 3X`.8XC.NXHXF.                                      ",
"                                  M *.-.8.'.O.p C.).6XuXHXAXfXR                                     ",
"                                * O.{.m.8.].} f 0XmX6XpXHXAXHXg.                                    ",
"                                n 8.}.-XZ.].} f kXbX3XSXnXzXzXvXt                                   ",
"                              1 3.M.I. X@X@X$.U jXXXc.5X>.^ ^ Y.c                                   ",
"                              D &X1X@Xa.]. X-.>.fXK e K ^ V A p c f                                 ",
"                              ` 1X,XI.n.=Xh.>.>.fX8.p ] >.^ U #.' e                                 ",
"                              ` 1XE.t.E.:Xe.$.8.gXe.p ] #.D ] ' ' X                                 ",
"                              B I.k.B.{.E.8.>.} pXe.p ] >.U } A p                                   ",
"                                K a.I.B.b.$.-.K uXe.f V $.] U / &                                   ",
"                                & ^ n.C.>.>.N.i.0Xe.c f $.] f 1                                     ",
"                                  n k.J.$.i.:Xa.wXe.f f $.$.f *                                     ",
"                                  & f.Z.*.I.,Xa.wXe.f f X.J 8                                       ",
"                                  & $.e.e.@X1Xa.wXe.f c } f 1                                       ",
"                                    8 *.'.:X:Xi.wXe.f f X.e X                                       ",
"                                    1 ^ '.:X1Xi.oX4.f c ] 1                                         ",
"                                      ) #X:X,Xa.Z.-.f f U X                                         ",
"                                      1 N.:X:Xa.S.&.f f 1                                           ",
"                                        3.%X1Xa.J.-.D M =                                           ",
"                                        & E.,Xa.Z.e.-.c                                             ",
"                                          ^ :Xa.J.t.D                                               ",
"                                          8 E.a.J.8.c                                               ",
"                                            ` a.J.O.X                                               ",
"                                            c ^ Z.n                                                 ",
"                                              = 8                                                   ",
"                                                                                                    ",
"                                                                                                    ",
"                                                                                                    "
};
