/* XPM */
static char *cg31641565159[] = {
/* columns rows colors chars-per-pixel */
"50 50 62 1 ",
"  c None",
". c #020504",
"X c #030906",
"o c #040D09",
"O c #05120C",
"+ c #081711",
"@ c #061D12",
"# c #0A1B14",
"$ c #0A2217",
"% c #0B251A",
"& c #0C2B1D",
"* c #0F2E20",
"= c #0F3323",
"- c #0B3924",
"; c #103524",
": c #113927",
"> c #123D2A",
", c #0C4029",
"< c #13412C",
"1 c #144730",
"2 c #154C33",
"3 c #175137",
"4 c #175639",
"5 c #18563A",
"6 c #155B3C",
"7 c #195C3E",
"8 c #1A5F40",
"9 c #1B6343",
"0 c #1C6947",
"q c #1D6E49",
"w c #177349",
"e c #1E724D",
"r c #1D7D51",
"t c #20754F",
"y c #217B53",
"u c #1D8456",
"i c #1B8957",
"p c #228156",
"a c #24865A",
"s c #248C5E",
"d c #21935F",
"f c #268F60",
"g c #259161",
"h c #229C65",
"j c #23A56A",
"k c #24AC6E",
"l c #24AF71",
"z c #25B473",
"x c #26BA77",
"c c #27BE79",
"v c #28BF7B",
"b c #27C27C",
"n c #29C57F",
"m c #2ACB82",
"M c #2AD387",
"N c #2CDB8C",
"B c #2EE693",
"V c #2FED97",
"C c #2FF099",
"Z c #30F49B",
"A c #31FA9F",
"S c #32FCA1",
/* pixels */
"                                                  ",
"                                                  ",
"                                                  ",
"                                                  ",
"                                                  ",
"                                                  ",
"                                                  ",
"                       .&                         ",
"                       Oj@                        ",
"                      .+zi                        ",
"                      o#cio                       ",
"                     o*#zs1                       ",
"                     %;#z9i,                      ",
"                    X:;#r7h1                      ",
"                    %<;#01qc&                     ",
"                   O;<;#0<qNw                     ",
"                   #91;#ts>zMO                    ",
"                  O>t1;#yb>kZi                    ",
"                  #9s7;#db<1Nx&                   ",
"                 .:9sp;#bm<rBAw                   ",
"                 &99fp:#bVuzSCm-                  ",
"                X>aafp;#cSzbAkh6                  ",
"                =9assp:#cBMmj1<z$                 ",
"               &egssfy;#bm96><wdw                 ",
"               <ffffa>%#ze<<<>55j.                ",
"               1ffaq2##%d<;;>qquz.                ",
"               1fq8222;>6*##&djhr.                ",
"               %95tff8<;q<####*$O                 ",
"                %2yfp2>*0>####&;.                 ",
"                .;5f8>>*q<#####.                  ",
"                 %qy2>3>0>####O.                  ",
"                 Oy9>0930<##*#o                   ",
"                 X><3q920<##;#o                   ",
"                  O<e2720>##:O                    ",
"                  o&t5y20>##;o                    ",
"                   =52s2t<#$&.                    ",
"                   .*9d2k1$;o                     ",
"                    #yf2l2;&X                     ",
"                    .tg3l5>+                      ",
"                     %s2k5%                       ",
"                     Oq2l2#                       ",
"                      =3l>.                       ",
"                       &h&                        ",
"                        O                         ",
"                                                  ",
"                                                  ",
"                                                  ",
"                                                  ",
"                                                  ",
"                                                  "
};
