/* XPM */
static char *cg41641565159[] = {
/* columns rows colors chars-per-pixel */
"50 50 65 1 ",
"  c None",
". c #010403",
"X c #030906",
"o c #040E09",
"O c #06130D",
"+ c #091510",
"@ c #071911",
"# c #0A1B14",
"$ c #072316",
"% c #0A2217",
"& c #0C251A",
"* c #0D2A1D",
"= c #0F2F21",
"- c #0E3222",
"; c #0C3C26",
": c #103525",
"> c #113926",
", c #123D29",
"< c #0E482E",
"1 c #13422D",
"2 c #0F4B30",
"3 c #144730",
"4 c #154C33",
"5 c #175237",
"6 c #175438",
"7 c #175A3C",
"8 c #19593C",
"9 c #1B6444",
"0 c #1C6946",
"q c #1D6C49",
"w c #17744A",
"e c #1F754E",
"r c #18794D",
"t c #1D7C51",
"y c #20764F",
"u c #207750",
"i c #217B53",
"p c #1D8456",
"a c #1F8C5B",
"s c #1E935E",
"d c #24865A",
"f c #248C5E",
"g c #20905D",
"h c #1E9560",
"j c #1E9861",
"k c #268F60",
"l c #249160",
"z c #229C65",
"x c #23A268",
"c c #24AD6F",
"v c #24AE70",
"b c #25B273",
"n c #27BC79",
"m c #27C27C",
"M c #29C57F",
"N c #29CB82",
"B c #2AD688",
"V c #2CD98B",
"C c #2CE18F",
"Z c #2EE693",
"A c #2FEA95",
"S c #2FEE98",
"D c #30F59C",
"F c #31F99F",
"G c #32FCA1",
/* pixels */
"                                                  ",
"                                                  ",
"                                                  ",
"                                                  ",
"                                                  ",
"                                                  ",
"                                                  ",
"                                                  ",
"                       X2                         ",
"                       op@                        ",
"                      X#uh                        ",
"                      O#iM;                       ",
"                     o-#tDp                       ",
"                     *:#eAB<                      ",
"                    O>-#qpGw                      ",
"                    *1-#99NA&                     ",
"                   O>1:#l3aDs                     ",
"                   &11:#b6zGB$                    ",
"                  O,11:#ceVMSj                    ",
"                  &118:#bpx1VN<                   ",
"                 X,11u>#irxaSGr                   ",
"                 *431u:#efxbFDC;                  ",
"                O1de4u>#nZzNFFFt                  ",
"                &3qkui:#MMsDzasN$                 ",
"               +,38ffu:#mN701>aZx                 ",
"               #,0dd6*##mGbqqjFGmX                ",
"               &09009:**nchzxzzxt.                ",
"               :f94if311n1+-:&:**.                ",
"                68qq911=b4+:1::&X                 ",
"                #300513>v3##>:**X                 ",
"                .=80,3u5v3##,:#X                  ",
"                 +50,5k4v4##,,#                   ",
"                 X49,ik5v4##:&o                   ",
"                 X*18dk4v3##:+X                   ",
"                  O,yfl4v4##:O                    ",
"                   *ukl4y3##:X                    ",
"                   -dkk49,##&                     ",
"                    8kk401##X                     ",
"                    *ik403:&                      ",
"                    X9l404,+                      ",
"                     #f4q3&                       ",
"                      75q1O                       ",
"                      -3q:                        ",
"                       %4O                        ",
"                        .                         ",
"                                                  ",
"                                                  ",
"                                                  ",
"                                                  ",
"                                                  "
};
