/* XPM */
static char *ck11641565159[] = {
/* columns rows colors chars-per-pixel */
"50 50 256 2 ",
"   c None",
".  c black",
"X  c #010001",
"o  c #030003",
"O  c #040303",
"+  c #080407",
"@  c #0A0008",
"#  c #0C0009",
"$  c #0C000A",
"%  c #0D000A",
"&  c #0E000B",
"*  c #0F000D",
"=  c #11000E",
"-  c #140011",
";  c #160012",
":  c #170012",
">  c #160112",
",  c #190015",
"<  c #1A0015",
"1  c #1C0017",
"2  c #1C0217",
"3  c #1F0019",
"4  c #1F001A",
"5  c #1C0F1A",
"6  c #21001B",
"7  c #21011B",
"8  c #23001D",
"9  c #280222",
"0  c #2B0024",
"q  c #2D0025",
"w  c #2E0025",
"e  c #2C0225",
"r  c #2F0127",
"t  c #320029",
"y  c #33002A",
"u  c #34002A",
"i  c #34002B",
"p  c #35002B",
"a  c #34012B",
"s  c #35012B",
"d  c #35012C",
"f  c #36002C",
"g  c #36012C",
"h  c #37002D",
"j  c #38002D",
"k  c #31192D",
"l  c #331A2F",
"z  c #3A0030",
"x  c #3B0030",
"c  c #3C0031",
"v  c #381D33",
"b  c #410035",
"n  c #420036",
"m  c #430037",
"M  c #440038",
"N  c #47003A",
"B  c #47023B",
"V  c #48003B",
"C  c #49003C",
"Z  c #4C003E",
"A  c #43223D",
"S  c #44223E",
"D  c #4E0040",
"F  c #500041",
"G  c #510042",
"H  c #510243",
"J  c #500442",
"K  c #510443",
"L  c #540045",
"P  c #550046",
"I  c #550146",
"U  c #560046",
"Y  c #560047",
"T  c #570048",
"R  c #580048",
"E  c #5A004A",
"W  c #5C004B",
"Q  c #5F004E",
"!  c #5E014E",
"~  c #5C054C",
"^  c #590D4B",
"/  c #620050",
"(  c #620051",
")  c #630051",
"_  c #630052",
"`  c #640052",
"'  c #650053",
"]  c #660054",
"[  c #650554",
"{  c #680056",
"}  c #690056",
"|  c #6B0158",
" . c #6B0059",
".. c #6E005A",
"X. c #72005E",
"o. c #73005F",
"O. c #74005F",
"+. c #52294B",
"@. c #5B2E53",
"#. c #5F3056",
"$. c #740060",
"%. c #760061",
"&. c #760161",
"*. c #770062",
"=. c #740461",
"-. c #790063",
";. c #780163",
":. c #7A0064",
">. c #7B0065",
",. c #7B0066",
"<. c #7C0066",
"1. c #7C0067",
"2. c #7D0067",
"3. c #760B63",
"4. c #730C61",
"5. c #780D65",
"6. c #790D66",
"7. c #7A0D67",
"8. c #7E0068",
"9. c #7F0068",
"0. c #7F0069",
"q. c #7F0169",
"w. c #7E0569",
"e. c #7F0569",
"r. c #6E2E63",
"t. c #723567",
"y. c #800069",
"u. c #80006A",
"i. c #81006A",
"p. c #80016A",
"a. c #82006B",
"s. c #82056C",
"d. c #83076D",
"f. c #860770",
"g. c #8A0172",
"h. c #8E0776",
"j. c #870871",
"k. c #870A71",
"l. c #890B73",
"z. c #890D73",
"x. c #8A0C74",
"c. c #8B0D75",
"v. c #8D0D76",
"b. c #8E0D77",
"n. c #920278",
"m. c #930279",
"M. c #93027A",
"N. c #900778",
"B. c #93077A",
"V. c #99037E",
"C. c #891875",
"Z. c #9E0883",
"A. c #9C1E86",
"S. c #A10485",
"D. c #A00885",
"F. c #A50488",
"G. c #A60489",
"H. c #A7048A",
"J. c #A9048C",
"K. c #AD058F",
"L. c #B50696",
"P. c #B60696",
"I. c #B70698",
"U. c #B80699",
"Y. c #BA069A",
"T. c #BC069C",
"R. c #9F2088",
"E. c #9E378B",
"W. c #A0218A",
"Q. c #AA2B94",
"!. c #AC2E95",
"~. c #B4369D",
"^. c #B43D9F",
"/. c #B83BA2",
"(. c #C108A0",
"). c #CC08AA",
"_. c #CE08AB",
"`. c #D209AF",
"'. c #D309AF",
"]. c #D709B2",
"[. c #D70BB3",
"{. c #DD09B7",
"}. c #DF0BBA",
"|. c #E00ABA",
" X c #E50ABF",
".X c #8F4882",
"XX c #954B87",
"oX c #994D8B",
"OX c #A75498",
"+X c #A85599",
"@X c #B849A4",
"#X c #BE57AB",
"$X c #BF57AC",
"%X c #BF57AD",
"&X c #B85DA8",
"*X c #B95EA9",
"=X c #BF59AD",
"-X c #BC60AB",
";X c #C157AE",
":X c #C356AF",
">X c #C648B0",
",X c #CA49B3",
"<X c #C457B0",
"1X c #C75AB3",
"2X c #C959B4",
"3X c #CC5FB8",
"4X c #D153BA",
"5X c #D457BD",
"6X c #D556BE",
"7X c #D35EBE",
"8X c #CE62BB",
"9X c #D163BD",
"0X c #D163BE",
"qX c #E80AC1",
"wX c #EB0BC3",
"eX c #EC0BC4",
"rX c #EE0BC6",
"tX c #EF0BC6",
"yX c #F40CCB",
"uX c #F70CCE",
"iX c #F80CCE",
"pX c #F90DCF",
"aX c #FA0CD0",
"sX c #FF0DD5",
"dX c #FF0DD6",
"fX c #FF0DD7",
"gX c #FF0DD8",
"hX c #FF0DD9",
"jX c #FF0ED8",
"kX c #FF0DDA",
"lX c #FF0EDC",
"zX c #D757C0",
"xX c #DC5DC5",
"cX c #E161CA",
"vX c #E564CD",
"bX c #E666CF",
"nX c #EC6CD5",
"mX c #ED6ED6",
"MX c #E573D0",
"NX c #E975D4",
"BX c #E877D4",
"VX c #F473DD",
"CX c #F179DB",
"ZX c #F77DE1",
"AX c #FD7BE5",
"SX c #FB7EE4",
"DX c #FB7FE5",
"FX c #FF80E8",
"GX c #FF81E9",
"HX c #FF82EA",
"JX c #FF84EC",
"KX c #FF84ED",
"LX c #FF85ED",
"PX c #FF87EF",
"IX c #FF84F0",
"UX c #FF88F5",
/* pixels */
"                                                                                                    ",
"                                                                                                    ",
"                                                                                                    ",
"                                                                                                    ",
"                                                                                                    ",
"                                                                                                    ",
"                                                                                                    ",
"                                                                                                    ",
"                                                                                                    ",
"                                              - t.5                                                 ",
"                                              6 =Xv                                                 ",
"                                            = d 0X&X.                                               ",
"                                          - z d 0XMX@.                                              ",
"                                          6 _ y 8XUXXX                                              ",
"                                        . _ ` s 3XVXZX+.                                            ",
"                                        q $.` s :XR.bXoX                                            ",
"                                        I p.` s :Xl.~.DXl                                           ",
"                                      y p.p.` s :Xl.k.xX&X+                                         ",
"                                      C ).m._ s <Xv.-.6XBXS                                         ",
"                                    6 V. Xn._ d <Xv.<.!.AX+X                                        ",
"                                  $ I T.sX_.] d <Xc.q.s.nXBX#.                                      ",
"                                  8 p.U.jXrX] s <Xc.:.>XFXIXXX                                      ",
"                                . } }.`.jXeX} s <Xc.:.4XKXFXZXA                                     ",
"                                y q.uXsXsXeX} s <Xl.A.mXFXDXDXOX                                    ",
"                                G a.L.sXjXtX} s <Xf./.KXFXHXFXCXl                                   ",
"                              q $.$.m.|.|.(.R s 1XR.Q.bXcXmXKXKX-XO                                 ",
"                              C T.U.J.q.<.! I I zX@XW ! _ C.@X,XE.1                                 ",
"                              [ lXiXH.p.<.<.q.p.zX4.y y d L T ..` -                                 ",
"                              ~ yXJ.S.K.<.<.q.-.6X7.d s y C o.G G .                                 ",
"                                e.F.'.p.<.<.<.I :X7.s s d d ! R $                                   ",
"                                q $.H.<.<.<.V.=.:X7.V W c s V n                                     ",
"                                . R <.q.<.g.eXN.#X5.I <.n s y $                                     ",
"                                  < $.<.q.F.gXh.%X5.I <.Z j 1                                       ",
"                                  * $.q.q.wXjXh.%X5.I p.o.c <                                       ",
"                                    M :.L.aXjXh.#X3.I q.O.w $                                       ",
"                                    4 o.].jXjXh.:X7.I q.$.8                                         ",
"                                      G qXjXjXh.#X4.I p. .@                                         ",
"                                      J [.jXjXh.;X7.I q.M                                           ",
"                                        S.jXjXh.#X7.I $.-                                           ",
"                                        9 }.jXh.#Xz.<.d                                             ",
"                                          Z.sXh.;Xv.} 8                                             ",
"                                          q aXh.#Xv.M                                               ",
"                                            d.B.=X4.-                                               ",
"                                            K e.2X^                                                 ",
"                                              q r.                                                  ",
"                                                                                                    ",
"                                                                                                    ",
"                                                                                                    ",
"                                                                                                    ",
"                                                                                                    "
};
