/* XPM */
static char *ck21641565160[] = {
/* columns rows colors chars-per-pixel */
"50 50 116 2 ",
"   c None",
".  c #040003",
"X  c #090007",
"o  c #0C010A",
"O  c #0F080D",
"+  c #160013",
"@  c #1A0015",
"#  c #190916",
"$  c #1D0018",
"%  c #1E0F1B",
"&  c #1E111C",
"*  c #26011F",
"=  c #270220",
"-  c #290021",
";  c #2D0A26",
":  c #300027",
">  c #35002B",
",  c #39002E",
"<  c #271424",
"1  c #331A2E",
"2  c #3C0031",
"3  c #361B31",
"4  c #420136",
"5  c #47003A",
"6  c #4A003D",
"7  c #460B3B",
"8  c #540145",
"9  c #5B014B",
"0  c #60024F",
"q  c #640152",
"w  c #690056",
"e  c #6C0059",
"r  c #6F0C5E",
"t  c #72005E",
"y  c #710D5F",
"u  c #582C50",
"i  c #5F3056",
"p  c #623159",
"a  c #770062",
"s  c #7B0166",
"d  c #7A0D67",
"f  c #7E0068",
"g  c #7D206D",
"h  c #7C326F",
"j  c #723968",
"k  c #82016B",
"l  c #8D0475",
"z  c #870971",
"x  c #900277",
"c  c #94047A",
"v  c #98047E",
"b  c #8E1077",
"n  c #893079",
"m  c #824176",
"M  c #9F0383",
"N  c #991B82",
"B  c #A10485",
"V  c #A50488",
"C  c #AB058E",
"Z  c #A41A8C",
"A  c #B70697",
"S  c #BB069B",
"D  c #B70998",
"F  c #BF089E",
"G  c #9F2089",
"H  c #9D3B8C",
"J  c #AE2496",
"K  c #AE2B97",
"L  c #AE2F98",
"P  c #AC3A98",
"I  c #B5379E",
"U  c #BF30A6",
"Y  c #BB3DA5",
"T  c #C106A0",
"R  c #C50BA4",
"E  c #CC08A9",
"W  c #D209AE",
"Q  c #C31DA6",
"!  c #CF14AE",
"~  c #D509B1",
"^  c #DB09B5",
"/  c #D316B2",
"(  c #E20ABC",
")  c #C139A9",
"_  c #BA48A5",
"`  c #BF57AC",
"'  c #BC5CAB",
"]  c #C345AC",
"[  c #C157AE",
"{  c #CE44B6",
"}  c #CB4CB5",
"|  c #C457B0",
" . c #CC57B7",
".. c #C759B3",
"X. c #CF51B9",
"o. c #D256BC",
"O. c #D15EBC",
"+. c #C362B2",
"@. c #D165BD",
"#. c #EC0BC4",
"$. c #F40CCB",
"%. c #FF0DD5",
"&. c #FF0DD9",
"*. c #D757C0",
"=. c #D66CC3",
"-. c #DA6AC6",
";. c #E363CC",
":. c #E967D1",
">. c #EE6BD6",
",. c #F273DB",
"<. c #F57BDF",
"1. c #FA7BE3",
"2. c #FF76E8",
"3. c #FF7BF0",
"4. c #FE81E7",
"5. c #FF83EC",
/* pixels */
"                                                                                                    ",
"                                                                                                    ",
"                                                                                                    ",
"                                                                                                    ",
"                                                                                                    ",
"                                                                                                    ",
"                                                                                                    ",
"                                                                                                    ",
"                                                                                                    ",
"                                                                                                    ",
"                                              X &                                                   ",
"                                              $ P #                                                 ",
"                                            o - R h                                                 ",
"                                            @ > / ..O                                               ",
"                                          + 8 > ! 2.m                                               ",
"                                          2 q > ! 3.' 1                                             ",
"                                        X e q > R { 5.i                                             ",
"                                        5 s q > T Z <.=.<                                           ",
"                                      + 9 k q > Q l Y 4.p                                           ",
"                                      2 k k q > | z I 5.=.O                                         ",
"                                    $ w f f q > [ G :.1.<.m                                         ",
"                                    : k s l q > [ L X.b ,.' %                                       ",
"                                  o t s k ^ w > ) K ] N ,.5.j                                       ",
"                                  4 s s k ^ w > T J ] X.5.5.+.3                                     ",
"                                o e ( A k ^ w > } >.] o.5.5.5.u                                     ",
"                                4 k ( %.F ^ w : @.:.Y 5.:.;.;.-.&                                   ",
"                              # k A E ( #.#.t 8 O.H g _ y 9 9 n ;                                   ",
"                              8 $.&.#.c W #.k k o.7 - q 0 5 6 : , >                                 ",
"                              w &.%.E C $.B s k o.y > q k 9 9 t q :                                 ",
"                              q &.~ l ~ %.x s k *.d > q t 8 q q 9 X                                 ",
"                              4 R B A ^ W k s w  .d > q s 9 e 6 :                                   ",
"                                8 v E S V a k 9 [ d > 5 a q 8 q o                                   ",
"                                o q C T f f S z [ d > > t w , @                                     ",
"                                  4 M T a x %.l [ d > 2 t a > o                                     ",
"                                  o v F s E %.l [ d > , e 8 *                                       ",
"                                  o t l l $.&.l ` d > , w > +                                       ",
"                                    - s W %.&.l ` d > , w - .                                       ",
"                                    # 9 ~ &.&.l U d > , q $                                         ",
"                                      9 $.%.&.b F s > , 9 X                                         ",
"                                      @ D &.&.l T s : > +                                           ",
"                                        d $.&.l F k 8 2 o                                           ",
"                                        X ~ &.l F l f 2                                             ",
"                                          9 %.l F l 8                                               ",
"                                          = ! c F k ,                                               ",
"                                            q v T e .                                               ",
"                                            > 9 F 2                                                 ",
"                                              o *                                                   ",
"                                                                                                    ",
"                                                                                                    ",
"                                                                                                    "
};
