/* XPM */
static char *ck31641565160[] = {
/* columns rows colors chars-per-pixel */
"50 50 121 2 ",
"   c None",
".  c #050104",
"X  c #0C000A",
"o  c #11000E",
"O  c #160012",
"+  c #190014",
"@  c #130911",
"#  c #1D0118",
"$  c #1C0E19",
"%  c #1E111C",
"&  c #23011D",
"*  c #270020",
"=  c #2A0022",
"-  c #35002C",
";  c #39002E",
":  c #340F2D",
">  c #281725",
",  c #2E1529",
"<  c #30182C",
"1  c #3C0031",
"2  c #3B1E36",
"3  c #3F243A",
"4  c #410136",
"5  c #46023A",
"6  c #4A013D",
"7  c #440A39",
"8  c #540046",
"9  c #570148",
"0  c #5C014C",
"q  c #60004F",
"w  c #640052",
"e  c #680056",
"r  c #6D0059",
"t  c #690C58",
"y  c #72015D",
"u  c #651657",
"i  c #623059",
"p  c #740460",
"a  c #7B0165",
"s  c #750862",
"d  c #790C66",
"f  c #7E0068",
"g  c #773C6D",
"h  c #7E3B72",
"j  c #83036D",
"k  c #820D6D",
"l  c #8D0475",
"z  c #8C0D75",
"x  c #8F0D78",
"c  c #900777",
"v  c #920479",
"b  c #99037E",
"n  c #8D1077",
"m  c #91127A",
"M  c #9E0382",
"N  c #971980",
"B  c #A20486",
"V  c #AA058D",
"C  c #AD0E91",
"Z  c #B40695",
"A  c #B60997",
"S  c #B70698",
"D  c #BC069C",
"F  c #BF089F",
"G  c #9F2188",
"H  c #953784",
"J  c #A3248C",
"K  c #A72990",
"L  c #AC2C95",
"P  c #BF12A0",
"I  c #BF35A7",
"U  c #C507A4",
"Y  c #C20AA1",
"T  c #CC09AA",
"R  c #D208AE",
"E  c #CB10AA",
"W  c #D114AF",
"Q  c #D50AB1",
"!  c #E10ABB",
"~  c #C120A5",
"^  c #C624A9",
"/  c #CE26B0",
"(  c #D12AB3",
")  c #8E4681",
"_  c #8F4883",
"`  c #AE439A",
"'  c #BB40A5",
"]  c #B34AA0",
"[  c #B454A3",
"{  c #B956A7",
"}  c #BF56AC",
"|  c #BD5BAB",
" . c #C445AE",
".. c #C157AE",
"X. c #CB4CB4",
"o. c #C654B1",
"O. c #C95BB5",
"+. c #D253BB",
"@. c #D35BBE",
"#. c #C363B2",
"$. c #CF62BB",
"%. c #D164BD",
"&. c #D268BF",
"*. c #EC0BC4",
"=. c #F50CCB",
"-. c #EC15C6",
";. c #FF0DD5",
":. c #FF0DD9",
">. c #FF1DD9",
",. c #D85AC2",
"<. c #E853CD",
"1. c #E55BCC",
"2. c #DD70C9",
"3. c #E263CB",
"4. c #E668CF",
"5. c #EC6ED5",
"6. c #F06FD9",
"7. c #F676DF",
"8. c #FC7DE5",
"9. c #FF83EC",
"0. c #FF87F0",
/* pixels */
"                                                                                                    ",
"                                                                                                    ",
"                                                                                                    ",
"                                                                                                    ",
"                                                                                                    ",
"                                                                                                    ",
"                                                                                                    ",
"                                              X ,                                                   ",
"                                              # [ $                                                 ",
"                                            o = O.)                                                 ",
"                                            # - @./ #                                               ",
"                                          + 0 - O.-.j                                               ",
"                                          5 w - | C ^ 3                                             ",
"                                        X r w - ~ V >.u                                             ",
"                                        6 j w - Y l Y <.>                                           ",
"                                      & q j w - U j J 5.g                                           ",
"                                      1 Z l q - E ^ a +.2.@                                         ",
"                                    # y R v q - W 3.a X.8._                                         ",
"                                    ; S ;.V w - ( 1.a k 7.#.<                                       ",
"                                  X r D :.*.e - &.3.a K 7.9.g                                       ",
"                                  9 Z D :.*.e - $.8.L +.9.8.,.3                                     ",
"                                X y =.=.:.*.w - $.0.+.,.9.X.' i                                     ",
"                                w A =.;.;.*.e - $.8.4.4. .d a o.%                                   ",
"                              7 Q :.:.;.;.*.e - %.,.N m a a K ' h                                   ",
"                              a :.;.;.:.=.s 1 - O.J a a a a x m { .                                 ",
"                              j :.;.=.T l - ; 5 ` s e e s G N L | .                                 ",
"                              j :.R S c l j w j B 0 ; - 7 ` X.] H .                                 ",
"                              5 A B R :.:.Z a w T a - - - ; w 6 &                                   ",
"                                6 l *.;.*.l a 9 Y a - - ; - 9 0 X                                   ",
"                                . q B ;.V a a 9 Y a - - - - ; O                                     ",
"                                  4 T ! v a b p Y a - - - ; & X                                     ",
"                                  & ! D a D Z v D a - ; 0 1 +                                       ",
"                                  o y j v U Z v F a - ; e ; +                                       ",
"                                    & a R v V v F a ; ; e &                                         ",
"                                    o 8 R M Q v F a - ; w +                                         ",
"                                      t V v :.v P a - 1 9 .                                         ",
"                                      X 9 Z ;.l } d 1 e #                                           ",
"                                        1 ! :.l ..d e 8 o                                           ",
"                                        X E :.l } l a =                                             ",
"                                          5 :.v | x 8                                               ",
"                                          & Y x ..d ;                                               ",
"                                            0 x ..t .                                               ",
"                                              8 ] :                                                 ",
"                                                @                                                   ",
"                                                                                                    ",
"                                                                                                    ",
"                                                                                                    ",
"                                                                                                    ",
"                                                                                                    ",
"                                                                                                    "
};
