/* XPM */
static char *ck41641565160[] = {
/* columns rows colors chars-per-pixel */
"50 50 127 2 ",
"   c None",
".  c #020102",
"X  c #080006",
"o  c #0C010A",
"O  c #11000E",
"+  c #160012",
"@  c #1A0016",
"#  c #1E0019",
"$  c #23001D",
"%  c #260020",
"&  c #2C0025",
"*  c #240A20",
"=  c #300026",
"-  c #35002B",
";  c #39002E",
":  c #241321",
">  c #2B1627",
",  c #3D0133",
"<  c #3D1F38",
"1  c #3F2039",
"2  c #430037",
"3  c #47013A",
"4  c #4A013D",
"5  c #4F0141",
"6  c #540045",
"7  c #5B024B",
"8  c #61004F",
"9  c #640052",
"0  c #690056",
"q  c #6C0059",
"w  c #72005E",
"e  c #4C2645",
"r  c #4F2748",
"t  c #750061",
"y  c #7B0065",
"u  c #760A62",
"i  c #7A0D67",
"p  c #7F0068",
"a  c #7A3D6F",
"s  c #7F4073",
"d  c #83016C",
"f  c #870470",
"g  c #8E0576",
"h  c #8B0D75",
"j  c #900377",
"k  c #920479",
"l  c #99047F",
"z  c #90137A",
"x  c #854379",
"c  c #9D0482",
"v  c #9C1284",
"b  c #9B1D85",
"n  c #A20886",
"m  c #A50489",
"M  c #A9048C",
"N  c #A8098C",
"B  c #B30594",
"V  c #BB069B",
"C  c #BD089E",
"Z  c #9D2087",
"A  c #983787",
"S  c #AD2695",
"D  c #AC2D95",
"F  c #B52B9D",
"G  c #B4369E",
"H  c #BF17A1",
"J  c #BC28A2",
"K  c #BD34A5",
"L  c #B739A0",
"P  c #BD3EA6",
"I  c #C0089F",
"U  c #C307A2",
"Y  c #C509A3",
"T  c #C808A6",
"R  c #C314A4",
"E  c #C11FA4",
"W  c #CE12AC",
"Q  c #D709B2",
"!  c #DB09B5",
"~  c #DF0AB9",
"^  c #D215B0",
"/  c #E40BBE",
"(  c #C437AB",
")  c #8C4780",
"_  c #994D8B",
"`  c #9F5091",
"'  c #A64795",
"]  c #A74996",
"[  c #B2479F",
"{  c #AE539D",
"}  c #BA47A6",
"|  c #B548A1",
" . c #BF41A9",
".. c #BF57AC",
"X. c #C346AC",
"o. c #C049AB",
"O. c #C156AE",
"+. c #C64FB1",
"@. c #C657B2",
"#. c #C359B0",
"$. c #CF50B8",
"%. c #D455BD",
"&. c #D25DBD",
"*. c #CD63BA",
"=. c #D164BD",
"-. c #E80CC1",
";. c #F40CCB",
":. c #F90CCF",
">. c #FE0DD4",
",. c #FF0DD9",
"<. c #DD5EC6",
"1. c #DF5FC8",
"2. c #D761C2",
"3. c #DA65C5",
"4. c #D56CC2",
"5. c #DF70CB",
"6. c #E364CC",
"7. c #E071CC",
"8. c #EC6CD5",
"9. c #EC76D7",
"0. c #F676DF",
"q. c #F57ADF",
"w. c #FF73E7",
"e. c #FB7CE4",
"r. c #FF7BF0",
"t. c #FF83EC",
"y. c #FF86F1",
/* pixels */
"                                                                                                    ",
"                                                                                                    ",
"                                                                                                    ",
"                                                                                                    ",
"                                                                                                    ",
"                                                                                                    ",
"                                                                                                    ",
"                                                                                                    ",
"                                              o r                                                   ",
"                                              # J *                                                 ",
"                                            O - W ]                                                 ",
"                                            % - ^ 2.<                                               ",
"                                          @ 9 - W r.)                                               ",
"                                          6 9 - W w.7.e                                             ",
"                                        @ w 9 - Y F t.a                                             ",
"                                        5 p 9 - Y v 6.q.>                                           ",
"                                      & q p 9 - ( d G t._                                           ",
"                                      2 d p 9 - #.h  .t.5.:                                         ",
"                                    $ y p y 9 - O.D 8.<.e.`                                         ",
"                                    4 y p M 0 - #.D X.p 8.4.e                                       ",
"                                  + t y d ! 0 - E S X.G e.y.a                                       ",
"                                  6 k f d ! 0 - R K X.$.t.t.9.1                                     ",
"                                $ y :.Q g Q 0 - &.0. .6.t.t.t.x                                     ",
"                                4 f U >.! / 0 - *.<.L t.X.L L 3.:                                   ",
"                              % w d m >.>.~ 9 - =.6.z b y y G q.{                                   ",
"                              = d U :.;.c 4 ; - =.y.%.b b P t.t.*.o                                 ",
"                              4 V V Y C B 8 6 6 &.@.' } o.| | } A X                                 ",
"                              9 >.V j / >.j p p %.u = 9 q 5 q 6 6 .                                 ",
"                                l m Y T V y p 7 @.i - 7 p 7 9 6 @                                   ",
"                                ; d U C c y f 0 O.i - ; t 0 4 6 o                                   ",
"                                . 7 m I t d ! g O.i - , w 0 - o                                     ",
"                                  $ c U y l ,.g ..i - ; w t ;                                       ",
"                                  o k B p / ,.g ..i - , 0 2 #                                       ",
"                                  o 6 p n ;.,.g ..i - - 9 - O                                       ",
"                                    # y Q >.,.g ..i - , 0 $                                         ",
"                                      6 / >.,.g H y - ; 9 O                                         ",
"                                      7 -.,.,.g C y - - 4                                           ",
"                                        N ,.,.g C y - - o                                           ",
"                                        4 -.,.g C f q 3                                             ",
"                                        . C >.g C g t &                                             ",
"                                          - >.j C g 4                                               ",
"                                            n z I y %                                               ",
"                                            7 g T 9                                                 ",
"                                              , k $                                                 ",
"                                                .                                                   ",
"                                                                                                    ",
"                                                                                                    ",
"                                                                                                    ",
"                                                                                                    ",
"                                                                                                    "
};
