/* XPM */
static char *cp11641565160[] = {
/* columns rows colors chars-per-pixel */
"50 50 128 2 ",
"   c None",
".  c #010102",
"X  c #070408",
"o  c #09000E",
"O  c #0C0012",
"+  c #12001B",
"@  c #18101C",
"#  c #160020",
"$  c #190125",
"%  c #1D012A",
"&  c #20072C",
"*  c #250037",
"=  c #270039",
"-  c #2A003E",
";  c #2B1C32",
":  c #302038",
">  c #2C0142",
",  c #33024B",
"<  c #370051",
"1  c #390054",
"2  c #3B0D50",
"3  c #3D005A",
"4  c #3A2644",
"5  c #40035E",
"6  c #430E5C",
"7  c #462D52",
"8  c #4E335B",
"9  c #51355F",
"0  c #430063",
"q  c #470069",
"w  c #49006B",
"e  c #4B0F68",
"r  c #491064",
"t  c #4D0072",
"y  c #500175",
"u  c #55007D",
"i  c #5E3373",
"p  c #623B74",
"a  c #570180",
"s  c #590083",
"d  c #5D0D84",
"f  c #5D008B",
"g  c #5F1483",
"h  c #61008F",
"j  c #620D8A",
"k  c #630092",
"l  c #660E90",
"z  c #680E92",
"x  c #670099",
"c  c #6A009C",
"v  c #6B1295",
"b  c #6E139A",
"n  c #73199F",
"m  c #6E01A1",
"M  c #7204A6",
"N  c #750CA6",
"B  c #7707AD",
"V  c #7806AD",
"C  c #770EA9",
"Z  c #790EAB",
"A  c #7419A0",
"S  c #7B08B2",
"D  c #7A4F8F",
"F  c #7F5295",
"G  c #830CBC",
"H  c #863DAA",
"J  c #8622B5",
"K  c #8925B8",
"L  c #9232BF",
"P  c #835599",
"I  c #8E5CA7",
"U  c #905DA8",
"Y  c #9D66B8",
"T  c #9E68B9",
"R  c #A069BB",
"E  c #870EC1",
"W  c #8C11C7",
"Q  c #8E12C9",
"!  c #9012CC",
"~  c #9019C8",
"^  c #9B17DA",
"/  c #9D19DD",
"(  c #912FC0",
")  c #993BC6",
"_  c #9C21D7",
"`  c #A222DF",
"'  c #A41DE5",
"]  c #A91FEB",
"[  c #AC1FF0",
"{  c #AE21F1",
"}  c #B123F4",
"|  c #B525FA",
" . c #BA27FF",
".. c #BC28FF",
"X. c #C029FF",
"o. c #9A43C3",
"O. c #9D40C9",
"+. c #9D50C1",
"@. c #A45FC5",
"#. c #A65FC8",
"$. c #A94FD4",
"%. c #AC50D8",
"&. c #B45DDE",
"*. c #A462C3",
"=. c #A760C9",
"-. c #AA64CC",
";. c #AC61D0",
":. c #AE69D0",
">. c #B26DD3",
",. c #B560DD",
"<. c #B468D9",
"1. c #B75FE1",
"2. c #BB67E4",
"3. c #C26DEB",
"4. c #C37FE4",
"5. c #C470ED",
"6. c #CA77F1",
"7. c #CA79F1",
"8. c #D07FF7",
"9. c #C783E7",
"0. c #C781E8",
"q. c #CE85F1",
"w. c #D389F6",
"e. c #D887FF",
"r. c #D78CFB",
"t. c #DB8EFF",
"y. c #DE91FF",
"u. c #E294FF",
/* pixels */
"                                                                                                    ",
"                                                                                                    ",
"                                                                                                    ",
"                                                                                                    ",
"                                                                                                    ",
"                                                                                                    ",
"                                                                                                    ",
"                                                                                                    ",
"                                                                                                    ",
"                                              + p @                                                 ",
"                                              % *.:                                                 ",
"                                            O > >.Y .                                               ",
"                                          + , > >.0.8                                               ",
"                                          $ u - :.u.F                                               ",
"                                        . u u > :.q.w.7                                             ",
"                                        * k u > #.K 5.P                                             ",
"                                        q m u > -.N ) r.;                                           ",
"                                      > x m u > =.N N 2.T X                                         ",
"                                      5 ^ B u > =.C x ,.9.4                                         ",
"                                    % S ] B u > =.N x L e.U                                         ",
"                                  o w ! ../ u > =.N c c 6.0.9                                       ",
"                                  % c Q ..} a > =.C x $.t.u.D                                       ",
"                                . u ' / ..{ u > =.C x &.y.e.r.4                                     ",
"                                - x | ....{ a > =.N J 7.y.t.t.I                                     ",
"                                0 m W ....{ a > =.N ) u.y.t.t.q.;                                   ",
"                              * x x B ' ' ~ t > -.K ( 5.3.6.y.y.R .                                 ",
"                              2 Q Q G c c t q q <.o.t t u A +.%.H $                                 ",
"                              r ..| G m c c c m 1.j > > > q w f u +                                 ",
"                              6 } E S W x c c x ,.l > > > 3 k 0 0 .                                 ",
"                                g G / m c c c w =.l > > > > u w O                                   ",
"                                * k G c c c S d #.l 3 t , > 3 <                                     ",
"                                . t c c c M { v @.l w c < > - o                                     ",
"                                  # k c c G ..v =.l w x 3 > $                                       ",
"                                  O k x c { ..v @.j w m h , #                                       ",
"                                    1 c Q | ..v #.l w c k * O                                       ",
"                                    % h ' ....v #.l w c k %                                         ",
"                                      5 ] ....v #.j w c f o                                         ",
"                                      2 _ ....v #.l w x 1                                           ",
"                                        A ....v #.j w k +                                           ",
"                                        % ` ..v @.N x ,                                             ",
"                                          n ..v @.Z s %                                             ",
"                                          & | v @.Z 1                                               ",
"                                            g b @.j +                                               ",
"                                            2 j -.e                                                 ",
"                                              = i                                                   ",
"                                                                                                    ",
"                                                                                                    ",
"                                                                                                    ",
"                                                                                                    ",
"                                                                                                    "
};
