/* XPM */
static char *cp21641565160[] = {
/* columns rows colors chars-per-pixel */
"50 50 130 2 ",
"   c None",
".  c #020003",
"X  c #07010A",
"o  c #09010D",
"O  c #0D090F",
"+  c #0C0011",
"@  c #110417",
"#  c #14001D",
"$  c #140B19",
"%  c #1A121E",
"&  c #170022",
"*  c #1A0325",
"=  c #221627",
"-  c #220032",
";  c #260A34",
":  c #29003D",
">  c #2D1D35",
",  c #2D0043",
"<  c #2E0A40",
"1  c #300346",
"2  c #33004B",
"3  c #380053",
"4  c #3C0B54",
"5  c #3D005A",
"6  c #400E58",
"7  c #4B3158",
"8  c #51345F",
"9  c #450165",
"0  c #470E63",
"q  c #490F64",
"w  c #49026C",
"e  c #491064",
"r  c #4D0072",
"t  c #510077",
"y  c #54007C",
"u  c #58047F",
"i  c #5A137C",
"p  c #543662",
"a  c #623F72",
"s  c #663A7C",
"d  c #570081",
"f  c #590183",
"g  c #5E0D85",
"h  c #5F018C",
"j  c #600E87",
"k  c #61008E",
"l  c #630292",
"z  c #660C91",
"x  c #680E92",
"c  c #670098",
"v  c #6A009C",
"b  c #6A1195",
"n  c #6E129A",
"m  c #6A238D",
"M  c #753594",
"N  c #6E02A1",
"B  c #7304A6",
"V  c #730AA4",
"C  c #7505AA",
"Z  c #7907AE",
"A  c #780BAC",
"S  c #7812A9",
"D  c #7E0BB6",
"F  c #6D4780",
"G  c #704883",
"H  c #830CBB",
"J  c #841DB4",
"K  c #881FBB",
"L  c #8724B7",
"P  c #8641A7",
"I  c #8D44AF",
"U  c #9F67BA",
"Y  c #A068BA",
"T  c #870EC0",
"R  c #8E17C7",
"E  c #8E19C5",
"W  c #8E13C9",
"Q  c #901EC7",
"!  c #9213CE",
"~  c #931ECC",
"^  c #9415D0",
"/  c #9917D7",
"(  c #9C19DB",
")  c #A01ADF",
"_  c #912AC2",
"`  c #9221C8",
"'  c #962DC9",
"]  c #9432C2",
"[  c #9A3DC7",
"{  c #9A23D3",
"}  c #9E29D6",
"|  c #A31BE3",
" . c #A71EE9",
".. c #A91FEB",
"X. c #AC21EF",
"o. c #AE21F1",
"O. c #B124F5",
"+. c #B424F9",
"@. c #B927FF",
"#. c #BD28FF",
"$. c #9E4FC4",
"%. c #9E44CA",
"&. c #A042CD",
"*. c #A45FC6",
"=. c #A65FC8",
"-. c #A858CF",
";. c #A64CD1",
":. c #AD4DDB",
">. c #B25BDB",
",. c #A662C7",
"<. c #A76CC3",
"1. c #A760C9",
"2. c #AE60D4",
"3. c #B36CD5",
"4. c #B660DF",
"5. c #B777D6",
"6. c #BB75DC",
"7. c #B860E2",
"8. c #C16CEA",
"9. c #C571ED",
"0. c #C772F0",
"q. c #CB77F3",
"w. c #CF7EF6",
"e. c #D187F5",
"r. c #D485FA",
"t. c #D884FF",
"y. c #D789FD",
"u. c #DC8FFF",
"i. c #DE91FF",
"p. c #E08AFF",
/* pixels */
"                                                                                                    ",
"                                                                                                    ",
"                                                                                                    ",
"                                                                                                    ",
"                                                                                                    ",
"                                                                                                    ",
"                                                                                                    ",
"                                                                                                    ",
"                                                                                                    ",
"                                                                                                    ",
"                                              X %                                                   ",
"                                              * I $                                                 ",
"                                            + - ` s                                                 ",
"                                            # , } ,.O                                               ",
"                                          # w , { y.F                                               ",
"                                          2 t , { p.U >                                             ",
"                                        X h y : ~ :.i.8                                             ",
"                                        5 v y , R K r.5.=                                           ",
"                                      # t v y : ' B &.u.p                                           ",
"                                      2 B v y , 1.V [ i.5.O                                         ",
"                                    * d v v y , *.L 9.y.e.G                                         ",
"                                    : v v C y : *.] >.S w.Y %                                       ",
"                                  + h v N | y , %._ ;.J w.i.a                                       ",
"                                  3 c v B | d , Q _ ;.>.i.u.<.>                                     ",
"                                o f  .W v | d , -.q.;.>.i.u.i.7                                     ",
"                                3 v  .@.!  .y : 3.0.%.i.9.8.8.6.%                                   ",
"                              * z ! / X.o.O.k w 3.P m $.g r t M ;                                   ",
"                              4 O.#.X.Z ) X.N N >.4 : t t 5 5 , , ,                                 ",
"                              e #.#./ T +.D v v 4.j , y v t r k t :                                 ",
"                              e #.) B ) @.C v v 7.z , y l 9 y y t X                                 ",
"                              < Q H W  .( N c d 2.z , y c r f 5 :                                   ",
"                                9 Z / W H c N w ,.b , 3 c d w y o                                   ",
"                                o y T ^ v v ! b ,.x , , k d , &                                     ",
"                                  3 D ^ c C @.b *.z , 1 k l , o                                     ",
"                                  o Z ^ v / @.b *.x , , f w -                                       ",
"                                  + h B C +.#.b *.x , 1 d , #                                       ",
"                                    - v ( @.#.b ,.x , , f - .                                       ",
"                                    # r | @.#.b [ z , 2 y &                                         ",
"                                      q +.@.#.b R l , , r X                                         ",
"                                      @ J #.#.b R l , : #                                           ",
"                                        i O.#.b E c 9 2 +                                           ",
"                                        o { #.b E C N 2                                             ",
"                                          6 #.b E C 9                                               ",
"                                          * { n E N 1                                               ",
"                                            e n Q f .                                               ",
"                                            ; w E 1                                                 ",
"                                              + *                                                   ",
"                                                                                                    ",
"                                                                                                    ",
"                                                                                                    "
};
