/* XPM */
static char *cp31641565160[] = {
/* columns rows colors chars-per-pixel */
"50 50 137 2 ",
"   c None",
".  c #040304",
"X  c #060008",
"o  c #09010C",
"O  c #0D0013",
"+  c #0F0A12",
"@  c #110915",
"#  c #13011C",
"$  c #19121C",
"%  c #190125",
"&  c #1D002C",
"*  c #27172F",
"=  c #231928",
"-  c #210032",
";  c #260138",
":  c #291A30",
">  c #2C1139",
",  c #35243D",
"<  c #2D0043",
"1  c #2F0048",
"2  c #300246",
"3  c #340B47",
"4  c #33004B",
"5  c #350A49",
"6  c #360050",
"7  c #3B0057",
"8  c #390B50",
"9  c #3D0159",
"0  c #41005F",
"q  c #440F5D",
"w  c #440463",
"e  c #490E65",
"r  c #470069",
"t  c #49026B",
"y  c #4F1F65",
"u  c #4D0072",
"i  c #510077",
"p  c #54007C",
"a  c #5A0D7E",
"s  c #543463",
"d  c #664277",
"f  c #570180",
"g  c #5A0184",
"h  c #5C0D82",
"j  c #5E018A",
"k  c #62038E",
"l  c #640E8D",
"z  c #601385",
"x  c #640492",
"c  c #670D91",
"v  c #67009A",
"b  c #6A009C",
"n  c #6D0D9B",
"m  c #6B1296",
"M  c #6D1399",
"N  c #7F3C9F",
"B  c #6E02A1",
"V  c #7205A5",
"C  c #7405A9",
"Z  c #7807AD",
"A  c #770EA8",
"S  c #7A0EAD",
"D  c #7A13AA",
"F  c #7D09B4",
"G  c #6C4180",
"H  c #7A4F8F",
"J  c #801CAF",
"K  c #800CB7",
"L  c #840DBC",
"P  c #851BB7",
"I  c #8724B6",
"U  c #8A25B9",
"Y  c #8D2BBB",
"T  c #934BB5",
"R  c #9648BB",
"E  c #9952BB",
"W  c #9C5EBA",
"Q  c #A265BF",
"!  c #8A0EC4",
"~  c #8B12C5",
"^  c #8E1AC5",
"/  c #8E11CA",
"(  c #9113CD",
")  c #911BCA",
"_  c #9716D5",
"`  c #961CD2",
"'  c #9819D5",
"]  c #9D19DC",
"[  c #9022C6",
"{  c #912EC0",
"}  c #9722CF",
"|  c #962EC8",
" . c #9233C0",
".. c #9835C7",
"X. c #9D38CD",
"o. c #9921D3",
"O. c #9C28D3",
"+. c #A03DCF",
"@. c #A23BD3",
"#. c #A21CE3",
"$. c #A71DE9",
"%. c #A621E6",
"&. c #AA23EA",
"*. c #AE21F1",
"=. c #B225F5",
"-. c #B12AF2",
";. c #B525FA",
":. c #BA27FF",
">. c #BC28FF",
",. c #C035FF",
"<. c #9F46C9",
"1. c #A35EC5",
"2. c #A65FC8",
"3. c #A95DCE",
"4. c #A549D1",
"5. c #A94ED4",
"6. c #AD54D7",
"7. c #B35BDD",
"8. c #A660C7",
"9. c #A76DC3",
"0. c #AB64CE",
"q. c #AB68CC",
"w. c #B266D6",
"e. c #B16DD2",
"r. c #B373D2",
"t. c #BD7CDC",
"y. c #BB63E4",
"u. c #C166EC",
"i. c #C16DEA",
"p. c #C572EC",
"a. c #C979EF",
"s. c #CD7AF5",
"d. c #D484FA",
"f. c #D78CFC",
"g. c #DB8DFF",
"h. c #DE92FF",
"j. c #E194FF",
/* pixels */
"                                                                                                    ",
"                                                                                                    ",
"                                                                                                    ",
"                                                                                                    ",
"                                                                                                    ",
"                                                                                                    ",
"                                                                                                    ",
"                                              o *                                                   ",
"                                              % W $                                                 ",
"                                            O ; q.H                                                 ",
"                                            % 1 w.X.#                                               ",
"                                          # u ; 0.*.z                                               ",
"                                          7 p < 8.^ ..,                                             ",
"                                        O j p < | L ,.y                                             ",
"                                        9 B p < ) V } y.=                                           ",
"                                      % p B p < ) B I s.d                                           ",
"                                      4 ! C p < } +.v 7.t.@                                         ",
"                                    % k #.Z p < O.u.b 6.f.H                                         ",
"                                    1 / ;.L p < @.u.b V s.9.:                                       ",
"                                  O j / >.=.p < e.i.b Y d.j.d                                       ",
"                                  r ! ( >.*.f < e.f. .7.h.h.r.,                                     ",
"                                O j =.;.:.*.f 2 e.j.7.w.h.6.4.s                                     ",
"                                e / ;.:.:.*.f ; e.s.p.i.5.n v 3.$                                   ",
"                              3 o.>.:.:.:.*.p 1 e.i.P D v v U <.G                                   ",
"                              z >.:.:.>.=.a 4 < 0.U b b b v D D W .                                 ",
"                              l >.:.=.) n 1 1 9 R c g g k U I { 9..                                 ",
"                              l >.] ~ m n l p b K t < < 8 T 5.E I .                                 ",
"                              5 P K #.>.:.~ B p ' x < < < 1 f 9 &                                   ",
"                                0 V &.:.*.V B r ^ x < < < < r u o                                   ",
"                                X p L >.L b b r ^ x < < < < 1 #                                     ",
"                                  4 ' $.C b F h ) x < < < 1 - o                                     ",
"                                  # &./ b ( ! m ^ x < 1 u 4 #                                       ",
"                                  O g B Z ' ~ m ^ x 1 1 g 1 #                                       ",
"                                    - b ] C ! m ^ x < < f -                                         ",
"                                    # t ] F %.m ^ x < 2 p #                                         ",
"                                      e L Z >.m [ x < 4 t o                                         ",
"                                      o t L :.m 1.c 4 f %                                           ",
"                                        5 %.>.m 2.n g t O                                           ",
"                                        o } >.m 1.A b -                                             ",
"                                          3 :.m 1.S 0                                               ",
"                                          % [ m 1.m <                                               ",
"                                            q M 2.a .                                               ",
"                                              w E >                                                 ",
"                                                @                                                   ",
"                                                                                                    ",
"                                                                                                    ",
"                                                                                                    ",
"                                                                                                    ",
"                                                                                                    ",
"                                                                                                    "
};
