/* XPM */
static char *cp41641565160[] = {
/* columns rows colors chars-per-pixel */
"50 50 133 2 ",
"   c None",
".  c #020103",
"X  c #050108",
"o  c #09010D",
"O  c #0D0013",
"+  c #13001C",
"@  c #160021",
"#  c #1A0226",
"$  c #1D0D24",
"%  c #1C002A",
"&  c #1F1424",
"*  c #20002F",
"=  c #25182B",
"-  c #230033",
";  c #260835",
":  c #27003A",
">  c #29003E",
",  c #35233E",
"<  c #2D0043",
"1  c #300047",
"2  c #33034A",
"3  c #350B4A",
"4  c #390054",
"5  c #3F0E57",
"6  c #3D005A",
"7  c #41025F",
"8  c #450E5F",
"9  c #412A4C",
"0  c #442A51",
"q  c #420063",
"w  c #480F63",
"e  c #470069",
"r  c #49006B",
"t  c #4E0074",
"y  c #510376",
"u  c #54017C",
"i  c #6A457D",
"p  c #570180",
"a  c #590083",
"s  c #5E008B",
"d  c #61008E",
"f  c #640B8E",
"g  c #640292",
"h  c #680E92",
"j  c #670099",
"k  c #6A009C",
"l  c #6B1295",
"z  c #6E139A",
"x  c #71159D",
"c  c #6E01A1",
"v  c #7003A4",
"b  c #760EA7",
"n  c #7605AB",
"m  c #7509A8",
"M  c #7519A1",
"N  c #7B15AB",
"B  c #7A1AA8",
"V  c #7C0AB2",
"C  c #724A85",
"Z  c #784E8C",
"A  c #830CBC",
"S  c #8216B5",
"D  c #821FB1",
"F  c #871CBA",
"G  c #823DA3",
"H  c #8622B5",
"J  c #902EBE",
"K  c #835599",
"L  c #88589F",
"P  c #8D4FAC",
"I  c #8C52A7",
"U  c #994FBD",
"Y  c #945BB0",
"T  c #8B10C5",
"R  c #8D19C5",
"E  c #8F13C9",
"W  c #9112CC",
"Q  c #921ACB",
"!  c #9515D2",
"~  c #9817D5",
"^  c #9226C6",
"/  c #942DC4",
"(  c #9424C9",
")  c #9435C1",
"_  c #9A3CC6",
"`  c #9732C8",
"'  c #9D3DCA",
"]  c #9925D1",
"[  c #9D28D5",
"{  c #A31CE3",
"}  c #A71CE9",
"|  c #A81FEA",
" . c #A623E5",
".. c #A823E8",
"X. c #B123F5",
"o. c #B625FB",
"O. c #B927FF",
"+. c #BD28FF",
"@. c #9F4EC6",
"#. c #9E44C9",
"$. c #A246CE",
"%. c #A44BCE",
"&. c #A45FC6",
"*. c #A450CC",
"=. c #A55EC8",
"-. c #A64CD1",
";. c #A84ED3",
":. c #A957D0",
">. c #B25ADC",
",. c #A762C9",
"<. c #A960CC",
"1. c #AC70C9",
"2. c #B26DD4",
"3. c #B466D9",
"4. c #BB6FDF",
"5. c #B677D5",
"6. c #BF7BDF",
"7. c #B760E0",
"8. c #BE69E6",
"9. c #C16DE9",
"0. c #C07CE0",
"q. c #C470EC",
"w. c #C876EF",
"e. c #CA77F2",
"r. c #CA82EC",
"t. c #D186F5",
"y. c #D282F9",
"u. c #D882FF",
"i. c #D688FB",
"p. c #DB8DFF",
"a. c #DE91FF",
"s. c #E08AFF",
"d. c #E193FF",
/* pixels */
"                                                                                                    ",
"                                                                                                    ",
"                                                                                                    ",
"                                                                                                    ",
"                                                                                                    ",
"                                                                                                    ",
"                                                                                                    ",
"                                                                                                    ",
"                                              O 0                                                   ",
"                                              # ) $                                                 ",
"                                            O > ] I                                                 ",
"                                            - < [ 2.,                                               ",
"                                          + u < ] s.Z                                               ",
"                                          r u < ] u.6.9                                             ",
"                                        @ d u < Q ` d.i                                             ",
"                                        q c u < R S 9.t.=                                           ",
"                                      : s k u < $.v _ p.K                                           ",
"                                      4 c k u < ,.b $.d.6.&                                         ",
"                                    # j k k u < &.J e.8.p.L                                         ",
"                                    6 k k T u < &.) ;.k e.5.9                                       ",
"                                  + g k c { p < / / -._ i.d.i                                       ",
"                                  r n c c { u < ( ' -.>.a.p.r.,                                     ",
"                                % g o.{ n { p < 2.y.$.8.a.a.a.C                                     ",
"                                6 v ~ O.{ | p < 2.9.#.p.%._ #.8.&                                   ",
"                              : g c A o.o. .y < 2.9.N D k j _ t.Y                                   ",
"                              > k ! o.X.V 6 < < 2.d.>.H H $.p.d.1.o                                 ",
"                              3 E E ~ ! T u e r 3.:.P @.%.U U %.G .                                 ",
"                              w O.E n ..o.n k k 3.f < u s 7 s e r .                                 ",
"                                x A ~ ~ E k k t <.h < u k u u q +                                   ",
"                                1 k ~ W V k n y &.h < 1 d u q e O                                   ",
"                                . t A ~ j c { l &.h < 1 g p < O                                     ",
"                                  % V ! j V +.l &.h < < s g <                                       ",
"                                  O m T k | +.l ,.h < 1 a 4 #                                       ",
"                                  O q k A o.+.l &.h < < p > O                                       ",
"                                    % k { O.+.l &.l < 1 p *                                         ",
"                                      7 { +.+.l ^ g < 1 u O                                         ",
"                                      8 ..O.+.l R g < < 6                                           ",
"                                        B +.+.l R g < < o                                           ",
"                                        3  .+.l R k a 4                                             ",
"                                        X F +.l R m j :                                             ",
"                                          ; O.l R n 6                                               ",
"                                            M z R g *                                               ",
"                                            5 l Q y                                                 ",
"                                              2 x #                                                 ",
"                                                .                                                   ",
"                                                                                                    ",
"                                                                                                    ",
"                                                                                                    ",
"                                                                                                    ",
"                                                                                                    "
};
