/* XPM */
static char *cr11641565160[] = {
/* columns rows colors chars-per-pixel */
"50 50 254 2 ",
"   c None",
".  c black",
"X  c #020000",
"o  c gray1",
"O  c #050000",
"+  c #0D0000",
"@  c #0F0000",
"#  c #080404",
"$  c #100000",
"%  c #120000",
"&  c #140000",
"*  c #160000",
"=  c #1A0000",
"-  c #1D0000",
";  c #1C0101",
":  c #1E0000",
">  c #1C1010",
",  c #210000",
"<  c #220000",
"1  c #250000",
"2  c #240202",
"3  c #280000",
"4  c #2B0000",
"5  c #2A0101",
"6  c #2B0101",
"7  c #2D0000",
"8  c #2E0000",
"9  c #280606",
"0  c #2C0707",
"q  c #380000",
"w  c #390000",
"e  c #3B0000",
"r  c #3C0000",
"t  c #3C0101",
"y  c #311B1B",
"u  c #331C1C",
"i  c #382020",
"p  c #410000",
"a  c #420000",
"s  c #430000",
"d  c #430101",
"f  c #440000",
"g  c #450000",
"h  c #440101",
"j  c #450101",
"k  c #460000",
"l  c #470000",
"z  c #480000",
"x  c #4C0000",
"c  c #4E0000",
"v  c #4F0707",
"b  c #540000",
"n  c #550000",
"m  c #570000",
"M  c #580000",
"N  c #5C0000",
"B  c #5D0000",
"V  c #5F0000",
"C  c #5F0606",
"Z  c #500D0D",
"A  c #5C0E0E",
"S  c #610000",
"D  c #630000",
"F  c #650000",
"G  c #670000",
"H  c #690000",
"J  c #6D0000",
"K  c #6E0000",
"L  c #6F0000",
"P  c #6E0101",
"I  c #6B0F0F",
"U  c #700000",
"Y  c #710000",
"T  c #720000",
"R  c #730101",
"E  c #750000",
"W  c #770000",
"Q  c #7B0000",
"!  c #7A0101",
"~  c #7F0000",
"^  c #641010",
"/  c #432525",
"(  c #452626",
")  c #522D2D",
"_  c #5B3333",
"`  c #5F3535",
"'  c #733333",
"]  c #753B3B",
"[  c #800000",
"{  c #810000",
"}  c #820000",
"|  c #830000",
" . c #830101",
".. c #850101",
"X. c #860101",
"o. c #830404",
"O. c #880000",
"+. c #8B0000",
"@. c #840B0B",
"#. c #8A0E0E",
"$. c #8E0E0E",
"%. c #900000",
"&. c #940000",
"*. c #950000",
"=. c #960000",
"-. c #970000",
";. c #950202",
":. c #990000",
">. c #9B0101",
",. c #9D0000",
"<. c #9E0000",
"1. c #9F0000",
"2. c #9F0303",
"3. c #9D0404",
"4. c #930C0C",
"5. c #940E0E",
"6. c #960E0E",
"7. c #970E0E",
"8. c #861010",
"9. c #831515",
"0. c #961313",
"q. c #981313",
"w. c #9B1414",
"e. c #9E1919",
"r. c #A00000",
"t. c #A10000",
"y. c #A20000",
"u. c #A30000",
"i. c #A00303",
"p. c #A40000",
"a. c #A50000",
"s. c #A40101",
"d. c #A50101",
"f. c #A60000",
"g. c #A60101",
"h. c #A70101",
"j. c #A50505",
"k. c #A80000",
"l. c #A90000",
"z. c #AB0404",
"x. c #A90808",
"c. c #AA0909",
"v. c #A90B0B",
"b. c #AB0C0C",
"n. c #AA0E0E",
"m. c #AC0D0D",
"M. c #AD0E0E",
"N. c #AF0E0E",
"B. c #B20606",
"V. c #B30606",
"C. c #B20707",
"Z. c #B70808",
"A. c #B60909",
"S. c #B10E0E",
"D. c #BC0B0B",
"F. c #BF0D0D",
"G. c #A01919",
"H. c #A41A1A",
"J. c #B82121",
"K. c #BB2323",
"L. c #BC2525",
"P. c #AC3D3D",
"I. c #C10B0B",
"U. c #C00D0D",
"Y. c #C10D0D",
"T. c #C20D0D",
"R. c #C40F0F",
"E. c #CA1111",
"W. c #CC1212",
"Q. c #CD1212",
"!. c #CF1212",
"~. c #CF1313",
"^. c #CA1A1A",
"/. c #DD1717",
"(. c #DD1818",
"). c #DF1A1A",
"_. c #E01B1B",
"`. c #E21C1C",
"'. c #E71D1D",
"]. c #E91E1E",
"[. c #E91F1F",
"{. c #C42F2F",
"}. c #D72222",
"|. c #DF2323",
" X c #C33232",
".X c #C93B3B",
"XX c #ED2020",
"oX c #F12020",
"OX c #F22121",
"+X c #F12222",
"@X c #F32222",
"#X c #F42222",
"$X c #F52222",
"%X c #F42626",
"&X c #FA2525",
"*X c #F82727",
"=X c #FA2626",
"-X c #FB2626",
";X c #FF2828",
":X c #FF2929",
">X c #FF2A2A",
",X c #8F4F4F",
"<X c #955252",
"1X c #995555",
"2X c #A75C5C",
"3X c #A85D5D",
"4X c #B86666",
"5X c #B96868",
"6X c #BB6969",
"7X c #C64343",
"8X c #CD4040",
"9X c #D64F4F",
"0X c #C35050",
"qX c #C55F5F",
"wX c #C65F5F",
"eX c #C75F5F",
"rX c #C85F5F",
"tX c #C95F5F",
"yX c #DB5050",
"uX c #DE5B5B",
"iX c #E15E5E",
"pX c #E35F5F",
"aX c #C36262",
"sX c #CA6060",
"dX c #CB6060",
"fX c #CD6464",
"gX c #D16161",
"hX c #DF6060",
"jX c #D06969",
"kX c #D26C6C",
"lX c #D46D6D",
"zX c #D56D6D",
"xX c #DA6868",
"cX c #E66767",
"vX c #EA6B6B",
"bX c #ED6E6E",
"nX c #EE7070",
"mX c #E47F7F",
"MX c #F27777",
"NX c #F27979",
"BX c #F87F7F",
"VX c #E78383",
"CX c #E88181",
"ZX c #F18585",
"AX c #FF8787",
"SX c #F68989",
"DX c #FB8B8B",
"FX c #FB8C8C",
"GX c #FF8D8D",
"HX c #FF8F8F",
"JX c #FF9191",
"KX c #FF9292",
"LX c #FF9595",
"PX c #FF9696",
/* pixels */
"                                                                                                    ",
"                                                                                                    ",
"                                                                                                    ",
"                                                                                                    ",
"                                                                                                    ",
"                                                                                                    ",
"                                                                                                    ",
"                                                                                                    ",
"                                                                                                    ",
"                                              ; ] >                                                 ",
"                                              3 aXi                                                 ",
"                                            * h zX4X.                                               ",
"                                          = x h zXmX_                                               ",
"                                          3 ~ d kXPX<X                                              ",
"                                        O ~ } d jXBXSX)                                             ",
"                                        q -.} h rXK.nX1X                                            ",
"                                        J l.} h sXc..XDXu                                           ",
"                                      d 2.g.} h sXm.c.cX5X#                                         ",
"                                      S /.C.} h sXm.i.iXCX(                                         ",
"                                    7 A.XXC.} h sXm.i. XDX3X                                        ",
"                                  @ T W.:X).} h tXm.i.j.MXCX`                                       ",
"                                  3 i.W.:X#XX.h dXb.i.9XGXJX,X                                      ",
"                                . o.].).:XoXX.h dXm.2.uXJXGXDX(                                     ",
"                                d 3.&X;X:XoXX.h dXm.J.NXGXGXGX2X                                    ",
"                                F l.E.;X:X#XX.h dXc..XPXJXGXGXZXu                                   ",
"                              q 2.2.C.].XX^.E h dXL.{.bXvXNXJXJX6X.                                 ",
"                              v W.W.T.i.2.E J J xX7XQ Q } H.0XyXP.1                                 ",
"                              ^ :X&XI.i.g.i.g.g.cX4.d d h J T %.X.;                                 ",
"                              A %XT.Z.R.i.i.g.:.iX7.h h h S -.H F .                                 ",
"                                #.F.`.g.i.g.i.T sX7.h h h h ~ T %                                   ",
"                                q -.T.i.i.i.Z.@.rX7.N E x d N b                                     ",
"                                . E g.i.i.z.#X0.wX7.T g.b h d @                                     ",
"                                  , -.i.g.F.:X0.wX5.J i.S z 1                                       ",
"                                  * -.i.g.oX:X0.rX7.J g.-.x ,                                       ",
"                                    N i.E.&X:X0.wX5.T g.-.q %                                       ",
"                                    1 -._.:X:X0.wX7.J g.-.7                                         ",
"                                      C oX:X:X0.wX7.T g.O.@                                         ",
"                                      Z }.:X:X0.wX5.J g.N                                           ",
"                                        e.:X:X0.wX7.J :.=                                           ",
"                                        9 |.:X0.qXn.i.h                                             ",
"                                          e.:X0.wXS.O.7                                             ",
"                                          0 &X0.wXS.b                                               ",
"                                            9.w.wX$.,                                               ",
"                                            Z #.gXI                                                 ",
"                                              t '                                                   ",
"                                                                                                    ",
"                                                                                                    ",
"                                                                                                    ",
"                                                                                                    ",
"                                                                                                    "
};
