/* XPM */
static char *cr21641565161[] = {
/* columns rows colors chars-per-pixel */
"50 50 104 2 ",
"   c None",
".  c #030000",
"X  c #0C0101",
"o  c #0F0909",
"O  c #130101",
"+  c #1E0000",
"@  c #190B0B",
"#  c #1E1212",
"$  c #240202",
"%  c #340000",
"&  c #3E0000",
"*  c #340A0A",
"=  c #271616",
"-  c #351D1D",
";  c #440000",
":  c #4A0000",
">  c #400A0A",
",  c #550000",
"<  c #5A0000",
"1  c #560B0B",
"2  c #580E0E",
"3  c #620202",
"4  c #6C0202",
"5  c #650C0C",
"6  c #730000",
"7  c #7D0000",
"8  c #631010",
"9  c #7C1313",
"0  c #5C3333",
"q  c #623636",
"w  c #723F3F",
"e  c #7C3A3A",
"r  c #830000",
"t  c #8B0101",
"y  c #8A0E0E",
"u  c #950101",
"i  c #9E0101",
"p  c #970D0D",
"a  c #961212",
"s  c #9C1313",
"d  c #A40101",
"f  c #AC0404",
"g  c #AA0A0A",
"h  c #B20606",
"j  c #B00B0B",
"k  c #BC0B0B",
"l  c #AE1212",
"z  c #B71E1E",
"x  c #BF1F1F",
"c  c #902323",
"v  c #963535",
"b  c #BB2424",
"n  c #C40E0E",
"m  c #CC1313",
"M  c #C61A1A",
"N  c #CA1B1B",
"B  c #D21414",
"V  c #DC1919",
"C  c #E41C1C",
"Z  c #EA1F1F",
"A  c #C92222",
"S  c #C62A2A",
"D  c #CA2D2D",
"F  c #D22424",
"G  c #D72929",
"H  c #C63232",
"J  c #C73C3C",
"K  c #CA3D3D",
"L  c #EC2020",
"P  c #F22323",
"I  c #F92424",
"U  c #FF2929",
"Y  c #804747",
"T  c #834848",
"R  c #A94141",
"E  c #B04545",
"W  c #BA6767",
"Q  c #BA6868",
"!  c #CC4444",
"~  c #C74F4F",
"^  c #D04242",
"/  c #D44C4C",
"(  c #DD4D4D",
")  c #C75F5F",
"_  c #C95F5F",
"`  c #D05858",
"'  c #DD5B5B",
"]  c #C76363",
"[  c #C96060",
"{  c #C36C6C",
"}  c #D56060",
"|  c #D66C6C",
" . c #D67777",
".. c #DC7575",
"X. c #E36060",
"o. c #EC6C6C",
"O. c #EE7171",
"+. c #F37575",
"@. c #F67F7F",
"#. c #F87C7C",
"$. c #F58787",
"%. c #FD8585",
"&. c #FE8D8D",
"*. c #FF9191",
/* pixels */
"                                                                                                    ",
"                                                                                                    ",
"                                                                                                    ",
"                                                                                                    ",
"                                                                                                    ",
"                                                                                                    ",
"                                                                                                    ",
"                                                                                                    ",
"                                                                                                    ",
"                                                                                                    ",
"                                              X #                                                   ",
"                                              $ R @                                                 ",
"                                            O % A e                                                 ",
"                                            + : G ] o                                               ",
"                                          + 6 ; G %.T                                               ",
"                                          : 7 ; F &.Q -                                             ",
"                                        X t r ; N ( *.0                                             ",
"                                        < d r ; m b %. .=                                           ",
"                                      + 7 d r ; D f ! &.q                                           ",
"                                      : d d r ; [ g K *. .o                                         ",
"                                    $ r d d r ; ) b o.&.$.T                                         ",
"                                    & d d f r ; ) H ' l #.Q #                                       ",
"                                  O u d d C r ; ! H / z #.*.w                                       ",
"                                  , i d f C r ; m S / ' *.*.{ -                                     ",
"                                X t Z m d Z r ; _ +./ ' *.&.*.0                                     ",
"                                , d Z U m Z r & | +.! &.+.o.o...=                                   ",
"                              $ p m V L P P u 4 | R c ~ y 7 6 v *                                   ",
"                              2 I U P h C L d d ' 1 ; 7 7 < 3 ; : ;                                 ",
"                              8 U U V n I k d d X.y ; r d 7 6 u r &                                 ",
"                              8 U C f V U f d d X.p ; r u 4 r 7 7 .                                 ",
"                              > N k m Z V f d t } p ; r i 6 t 3 ;                                   ",
"                                3 h V m k i d 4 [ p ; , i r 6 7 X                                   ",
"                                O r n B d d m a ) p ; : u r : $                                     ",
"                                  , k B d g U a ) p ; : u u : X                                     ",
"                                  X g B d V U a [ p ; : t 6 %                                       ",
"                                  O u f f P U a [ p ; : r : +                                       ",
"                                    % d V U U a [ p ; : t % .                                       ",
"                                    $ 6 L U U a J p ; : r $                                         ",
"                                      5 I U U a M u ; : 6 X                                         ",
"                                      O z U U a M u ; ; O                                           ",
"                                        9 I U a M i 4 , O                                           ",
"                                        X F U a M f d :                                             ",
"                                          2 U a M f 4                                               ",
"                                          $ F s N d :                                               ",
"                                            8 l N r .                                               ",
"                                            * 4 M >                                                 ",
"                                              O $                                                   ",
"                                                                                                    ",
"                                                                                                    ",
"                                                                                                    "
};
