/* XPM */
static char *cr31641565161[] = {
/* columns rows colors chars-per-pixel */
"50 50 113 2 ",
"   c None",
".  c #040303",
"X  c #0B0101",
"o  c #140000",
"O  c #1C0101",
"+  c #140A0A",
"@  c #1C1212",
"#  c #250101",
"$  c #2C0000",
"%  c #330000",
"&  c #3A0101",
"*  c #2F1717",
"=  c #281919",
"-  c #3A1111",
";  c #301A1A",
":  c #3D2424",
">  c #450000",
",  c #4A0000",
"<  c #470B0B",
"1  c #490A0A",
"2  c #510101",
"3  c #5C0101",
"4  c #520B0B",
"5  c #5D0F0F",
"6  c #620202",
"7  c #6D0101",
"8  c #660E0E",
"9  c #6C0808",
"0  c #730000",
"q  c #7E0000",
"w  c #651F1F",
"e  c #633434",
"r  c #774242",
"t  c #830000",
"y  c #8B0101",
"u  c #820C0C",
"i  c #960404",
"p  c #980404",
"a  c #930C0C",
"s  c #9F0E0E",
"d  c #841212",
"f  c #8C1010",
"g  c #961313",
"h  c #981313",
"j  c #A30101",
"k  c #AD0404",
"l  c #A10D0D",
"z  c #AE0E0E",
"x  c #B20707",
"c  c #B50B0B",
"v  c #BC0B0B",
"b  c #AD1111",
"n  c #B11414",
"m  c #B61C1C",
"M  c #BB2424",
"N  c #BD2929",
"B  c #A13C3C",
"V  c #C30E0E",
"C  c #C90F0F",
"Z  c #C51616",
"A  c #CC1111",
"S  c #C61B1B",
"D  c #CA1B1B",
"F  c #D21515",
"G  c #D41B1B",
"H  c #DD1919",
"J  c #E11B1B",
"K  c #EA1E1E",
"L  c #C72222",
"P  c #CE2020",
"I  c #C32E2E",
"U  c #C92F2F",
"Y  c #D22222",
"T  c #D42828",
"R  c #C63535",
"E  c #CD3939",
"W  c #D33C3C",
"Q  c #E62222",
"!  c #EA2424",
"~  c #F32222",
"^  c #FA2626",
"/  c #F32B2B",
"(  c #FF2929",
")  c #FF3636",
"_  c #804141",
"`  c #8F4F4F",
"'  c #B74B4B",
"]  c #BD4848",
"[  c #BD5252",
"{  c #BB5E5E",
"}  c #BF6565",
"|  c #CC4646",
" . c #D64C4C",
".. c #C65E5E",
"X. c #CC5E5E",
"o. c #DA5454",
"O. c #DE5B5B",
"+. c #E05C5C",
"@. c #CD6262",
"#. c #C36D6D",
"$. c #CC6868",
"%. c #D76666",
"&. c #D36D6D",
"*. c #D27373",
"=. c #DC7C7C",
"-. c #E56363",
";. c #ED6666",
":. c #EB6D6D",
">. c #ED7272",
",. c #F37A7A",
"<. c #FA8484",
"1. c #FE8D8D",
"2. c #FF9393",
/* pixels */
"                                                                                                    ",
"                                                                                                    ",
"                                                                                                    ",
"                                                                                                    ",
"                                                                                                    ",
"                                                                                                    ",
"                                                                                                    ",
"                                              X *                                                   ",
"                                              # { @                                                 ",
"                                            o & $.`                                                 ",
"                                            # > %.E O                                               ",
"                                          O 0 > @./ d                                               ",
"                                          3 q > ..Z E :                                             ",
"                                        o y t > U Z ) w                                             ",
"                                        6 j t > D k G -.=                                           ",
"                                      $ t j t > Z k M ,.r                                           ",
"                                      , A k t > P W j +.=.+                                         ",
"                                    # i J x q > T ;.p o.1.`                                         ",
"                                    , A ( V t > W ;.j k ,.#.;                                       ",
"                                  o i A ( ~ t > *.:.j N <.2.r                                       ",
"                                  7 A A ( ~ t > &.<.R O.2.1.*.:                                     ",
"                                o y ~ ^ ( ~ t > &.2.O.-.2.o.| e                                     ",
"                                9 A ( ( ( ~ t > &.<.>.:. .k j X.@                                   ",
"                              < Y ( ( ( ( ~ t > &.:.m n p j I | _                                   ",
"                              d ( ( ( ( ^ u 2 > @.M j j j p z n { .                                 ",
"                              f ( ( ^ D s , , 3 ] a y y i M M U #..                                 ",
"                              a ( H Z g g a t j v 0 > > 4 '  .' B .                                 ",
"                              1 m v J ( ( C j t G p > > > , t 6 %                                   ",
"                                3 k ~ ( ~ k j 7 D i > > , > 7 q X                                   ",
"                                X q v ( V j j 7 D i , > > > , O                                     ",
"                                  4 G K k p v u D i , > > , % X                                     ",
"                                  O ! A j F A h Z i > , 0 , O                                       ",
"                                  o y k x G C h D i > , t , O                                       ",
"                                    $ j H k V h D i > , y %                                         ",
"                                    O 7 J c K g D i > , q O                                         ",
"                                      8 V x ( g L i > 2 0 X                                         ",
"                                      X 7 Z ( g ..a , y #                                           ",
"                                        , Q ( g ..l y 0 o                                           ",
"                                        X P ( g ..b j %                                             ",
"                                          < ( g ..c 6                                               ",
"                                          # S g @.h >                                               ",
"                                            5 h @.q .                                               ",
"                                              8 [ -                                                 ",
"                                                +                                                   ",
"                                                                                                    ",
"                                                                                                    ",
"                                                                                                    ",
"                                                                                                    ",
"                                                                                                    ",
"                                                                                                    "
};
