/* XPM */
static char *cr41641565161[] = {
/* columns rows colors chars-per-pixel */
"50 50 110 2 ",
"   c None",
".  c #030101",
"X  c #0B0101",
"o  c #120000",
"O  c #1B0000",
"+  c #240000",
"@  c #2B0101",
"#  c #240D0D",
"$  c #340000",
"%  c #3B0000",
"&  c #350808",
"*  c #241414",
"=  c #2B1818",
"-  c #3E2323",
";  c #440000",
":  c #4A0101",
">  c #4A0C0C",
",  c #570000",
"<  c #5C0000",
"1  c #570E0E",
"2  c #5F0E0E",
"3  c #640101",
"4  c #6D0000",
"5  c #730101",
"6  c #7C0202",
"7  c #621010",
"8  c #4C2A2A",
"9  c #512A2A",
"0  c #7D4545",
"q  c #840000",
"w  c #8C0000",
"e  c #950202",
"r  c #9D0000",
"t  c #970E0E",
"y  c #961212",
"u  c #9B1414",
"i  c #A30101",
"p  c #AA0303",
"a  c #AD0C0C",
"s  c #B10606",
"d  c #B60A0A",
"f  c #BF0C0C",
"g  c #A11A1A",
"h  c #A81A1A",
"j  c #B01515",
"k  c #B91616",
"l  c #B61F1F",
"z  c #BA1D1D",
"x  c #B92222",
"c  c #A53D3D",
"v  c #C20C0C",
"b  c #C71111",
"n  c #CD1212",
"m  c #C61A1A",
"M  c #CA1A1A",
"N  c #D31515",
"B  c #D81717",
"V  c #E51C1C",
"C  c #EB1E1E",
"Z  c #C72727",
"A  c #CA2525",
"S  c #C42D2D",
"D  c #C92E2E",
"F  c #D12626",
"G  c #D52929",
"H  c #C33636",
"J  c #CB3232",
"K  c #CA3D3D",
"L  c #D13C3C",
"P  c #E52424",
"I  c #EA2222",
"U  c #F62424",
"Y  c #FB2626",
"T  c #FF2929",
"R  c #854A4A",
"E  c #8C4E4E",
"W  c #995555",
"Q  c #9F5858",
"!  c #AD4F4F",
"~  c #BD4F4F",
"^  c #A75353",
"/  c #B05B5B",
"(  c #CA4444",
")  c #C04F4F",
"_  c #C84E4E",
"`  c #D14646",
"'  c #D34C4C",
"]  c #CE5050",
"[  c #C75F5F",
"{  c #C95E5E",
"}  c #D25757",
"|  c #DC5959",
" . c #E05A5A",
".. c #CC6161",
"X. c #DA6666",
"o. c #D46D6D",
"O. c #C97070",
"+. c #D57777",
"@. c #DF7B7B",
"#. c #E26060",
"$. c #E46C6C",
"%. c #EA6C6C",
"&. c #EE7070",
"*. c #E07C7C",
"=. c #F27777",
"-. c #EC8282",
";. c #F38787",
":. c #FB8383",
">. c #FE8C8C",
",. c #FF9292",
/* pixels */
"                                                                                                    ",
"                                                                                                    ",
"                                                                                                    ",
"                                                                                                    ",
"                                                                                                    ",
"                                                                                                    ",
"                                                                                                    ",
"                                                                                                    ",
"                                              O 9                                                   ",
"                                              @ H #                                                 ",
"                                            O % A ^                                                 ",
"                                            $ ; G o.8                                               ",
"                                          + 6 ; F >.E                                               ",
"                                          4 6 ; F :.@.8                                             ",
"                                        + e q ; M J ,.0                                             ",
"                                        4 i q ; M k %.;.=                                           ",
"                                      $ w i q ; ( p K >.W                                           ",
"                                      , p i q ; ..a ` ,.@.*                                         ",
"                                    @ r r i q ; ..x =.%.>.^                                         ",
"                                    3 i i b q ; ..H } i =.+.8                                       ",
"                                  O e i p V q ; D D ' K >.,.0                                       ",
"                                  5 s i i V q ; A L ' | ,.>.-.-                                     ",
"                                @ e Y V s V q ; o.:.` %.,.,.,.R                                     ",
"                                3 p N T V C q : o.$.K >.' K ` o.*                                   ",
"                              $ e i f T T P q ; o.%.j l i i K :./                                   ",
"                              ; i N Y U d < ; ; o.,.| x x ` >.,.O.X                                 ",
"                              > N n N N b 6 5 4 X.} ! _ ' ~ ~ ] c X                                 ",
"                              7 T n s I T s i i #.t % q e 3 w 4 4 X                                 ",
"                                u v B B n i i 5 ..t ; 6 i 6 6 4 O                                   ",
"                                : i N N d r p 6 { t ; : e q 3 4 o                                   ",
"                                . 6 f N i p V y [ t : : e w ; o                                     ",
"                                  $ d N r d T y ..t ; ; e e ;                                       ",
"                                  o a b i C T y ..t ; ; w , +                                       ",
"                                  o 4 i f U T y [ t ; : q % O                                       ",
"                                    @ r V T T y [ u ; : w $                                         ",
"                                      3 C T T y Z e ; : 6 O                                         ",
"                                      2 I T T y m e : : ,                                           ",
"                                        h T T y M e ; ; X                                           ",
"                                        > P T y m i w <                                             ",
"                                        X z T y m p e %                                             ",
"                                          & T y m s <                                               ",
"                                            g u M e $                                               ",
"                                            1 u M 6                                                 ",
"                                              : u #                                                 ",
"                                                .                                                   ",
"                                                                                                    ",
"                                                                                                    ",
"                                                                                                    ",
"                                                                                                    ",
"                                                                                                    "
};
