/* XPM */
static char *result[] = {
/* columns rows colors chars-per-pixel */
"50 50 197 2 ",
"   c #3F362F",
".  c #363B38",
"X  c #3B3D39",
"o  c #383736",
"O  c #592F1B",
"+  c #502C16",
"@  c #47321F",
"#  c #5B321B",
"$  c #61331E",
"%  c #66381E",
"&  c #6A3C1F",
"*  c #412F20",
"=  c #4B3622",
"-  c #4A3628",
";  c #533B26",
":  c #523628",
">  c #553D29",
",  c #5A3C2B",
"<  c #573726",
"1  c #443B33",
"2  c #4D3E34",
"3  c #523F31",
"4  c #653520",
"5  c #6A3722",
"6  c #6C3A23",
"7  c #663C27",
"8  c #733C25",
"9  c #793F26",
"0  c #773C28",
"q  c #7A3E29",
"w  c #3D413F",
"e  c #58412A",
"r  c #45413B",
"t  c #59483B",
"y  c #6C4021",
"u  c #64462C",
"i  c #664829",
"p  c #694A2B",
"a  c #734322",
"s  c #7A4226",
"d  c #7A4C24",
"f  c #754429",
"g  c #7E412A",
"h  c #7E4A2A",
"j  c #7F5227",
"k  c #694836",
"l  c #765231",
"z  c #6F5039",
"x  c #3E4340",
"c  c #434643",
"v  c #444945",
"b  c #464B48",
"n  c #4A4D4A",
"m  c #4E4841",
"M  c #534D44",
"N  c #4D514D",
"B  c #51544E",
"V  c #595349",
"C  c #4F5450",
"Z  c #525651",
"A  c #585756",
"S  c #555955",
"D  c #585C55",
"F  c #5A5E59",
"G  c #64584B",
"H  c #745B46",
"J  c #5D625C",
"K  c #62655E",
"L  c #65685F",
"P  c #636661",
"I  c #656A63",
"U  c #6A6E66",
"Y  c #6B6D68",
"T  c #6C7067",
"R  c #6E726A",
"E  c #72756C",
"W  c #75796E",
"Q  c #797B6E",
"!  c #767A71",
"~  c #7A7E73",
"^  c #7D7D7C",
"/  c #737571",
"(  c #83432C",
")  c #89462E",
"_  c #844B2C",
"`  c #8C4B2E",
"'  c #804D26",
"]  c #855129",
"[  c #8B542C",
"{  c #875729",
"}  c #93522F",
"|  c #935C2D",
" . c #8A4831",
".. c #934C32",
"X. c #994E37",
"o. c #8F5630",
"O. c #945633",
"+. c #9B5333",
"@. c #955A31",
"#. c #9B5B34",
"$. c #9E5E39",
"%. c #9D5039",
"&. c #A15635",
"*. c #A45B36",
"=. c #A5563B",
"-. c #A45D39",
";. c #AB5D39",
":. c #B05E3E",
">. c #9D6132",
",. c #9F6933",
"<. c #A36334",
"1. c #AA6537",
"2. c #A66B35",
"3. c #A96A35",
"4. c #A66239",
"5. c #AC633C",
"6. c #AC6D38",
"7. c #B2653C",
"8. c #B46B3D",
"9. c #B96C3E",
"0. c #B8673F",
"q. c #AF7338",
"w. c #B2743B",
"e. c #BB723F",
"r. c #BB7C3F",
"t. c #B3783C",
"y. c #885B44",
"u. c #915F49",
"i. c #AE5B41",
"p. c #B05D40",
"a. c #8E6347",
"s. c #906147",
"d. c #B96343",
"f. c #B66D40",
"g. c #BC6D41",
"h. c #B56644",
"j. c #BC7342",
"k. c #BE7A40",
"l. c #A67753",
"z. c #A37C63",
"x. c #C26D45",
"c. c #C06F49",
"v. c #C37544",
"b. c #C47A44",
"n. c #CA7D46",
"m. c #C97549",
"M. c #C77B48",
"N. c #CD7E48",
"B. c #C67747",
"V. c #D27E4D",
"C. c #D87F52",
"Z. c #7D8176",
"A. c #7D8279",
"S. c #BF803E",
"D. c #C0813E",
"F. c #B6805E",
"G. c #808277",
"H. c #82857B",
"J. c #85897E",
"K. c #AD8A71",
"L. c #C38543",
"P. c #CC8147",
"I. c #C48943",
"U. c #CB8B46",
"Y. c #CE8149",
"T. c #CD8C49",
"R. c #D2844B",
"E. c #D6894D",
"W. c #DA8C4E",
"Q. c #D8874F",
"!. c #CE9147",
"~. c #CF9049",
"^. c #DC924E",
"/. c #D98551",
"(. c #DC8B52",
"). c #D68450",
"_. c #DE9351",
"`. c #E0974F",
"'. c #E28E55",
"]. c #E38E58",
"[. c #E29354",
"{. c #E49B53",
"}. c #E69358",
"|. c #E99C59",
" X c #E79858",
".X c #EBA15A",
"XX c #E8A155",
"oX c #828580",
"OX c #858A81",
"+X c #898E84",
"@X c #8C9188",
"#X c #989797",
"$X c #BBA597",
"%X c #AAAAAA",
"&X c #B9B9B9",
"*X c #D1BBAD",
"=X c None",
/* pixels */
"=X=X=X=X=X=X=X=X=X=X=X=X=X=X=X=X=XJ J N J R ~ W E Z.~ ~ ! E B P U J =X=X=X=X=X=X=X=X=X=X=X=X=X=X=X=X",
"=X=X=X=X=X=X=XS K I =X=X=X=Xx ! A.oXA.J N ! E Y I ~ ! ! ~ Y N ^ A.A.A.! N =X=X=XE E S =X=X=X=X=X=X=X",
"=X=X=X=X=X=XF OXA.W S =XS A.+XE R U T K c R Z.! ~ ~ ! ! Z.U I A.E T T ! oXS b E J.+X@XJ =X=X=X=X=X=X",
"=X=X=X=X=XE A.! ! Z.I I E OXW Z.A.A.W R b Z.A.A.H.A.~ ~ E I / A.W W T U ! S I @XJ.H.H.! J =X=X=X=X=X",
"=X=X=X=XI Z.E ! ! W W W S J A.A.Z.E E Y n P I R / R E T U D ! ~ ! ! E Z.K J G.OXJ.J.J.Z.Z.J =X=X=X=X",
"=X=X=X=XF ! R ! W ! A.W E S / ! A.W 1 3 , k y.y.z a.a.y.z k t 2 ! ! / W Z J.H.J.H.H.J.J.Z.D =X=X=X=X",
"=X=X=X=X=XS T Z.! W E ! Z.E b V e p _ O.-.$.-.4.h f.h.i.i.4.-.O.f e V n W J.H.G.H.Z.Z.W D =X=X=X=X=X",
"=X=X=X=X=XN N R ! ! E Z.! K * 7 @.$.+.$.-.-.5.p._ B.g.f.f.f.5.p.p.O.8 - E H.~ ~ H.J.R Z D =X=X=X=X=X",
"=X=X=X=Xb A.Z.S T ! U T M =  ._ h.6.4.p.f.j.j.j.o.E.V.M.B.j.j.j.f.$.4.@.> B P R E J S J.E v =X=X=X=X",
"=X=X=Xx Z.Z.Z.I N T J b , h $.] f.f.f.j.B.B.B.n.>._.(.).Y.V.M.M.n.s.5.f.O.< m S N I A.Z.Z.T . =X=X=X",
"=X=X=XU Z.Z.E ! I r r y @.>.5.o.k.M.k.M.M.Y.N.Y.>.|.(./.).Y.).Y.).f.j.j.f.$.f 1 J H.Z.J.J.Z.L =X=X=X",
"=X=XN A.W W A.A.E r 7 #.4.2.j.@.Y.Y.P.P.).Q.R.T.2..X_.(.W.).R.).(.j.j.P.j.g.p.p t W Z.J.Z.Z.E N =X=X",
"=X=XS N U E W Z.M f >.h.f.t.M.>./.Q.T.).E.W.W.E.6..X_._.W.).T.R.W.k.P.E.M.M.j.8.[ G E Z.E U N C =X=X",
"=XF G.Z.I U T G # #.4.f.b.b.Y.2.E.E.Y.W.W.W.W.(.6..X(.E.W.Y.E.Y.E.k.P.^.Y.M.b.e.f.p M J J L Z.U v =X",
"=XW E W ~ Z.I , [ 4.f.B.n.P.P.2._.E.R._.W.E.Q.Q.3..X(.R.).T.).T.E.b.r.W.R.P.M.j.f.@.e K W Z.W E J =X",
"c E Q E E R T a >.6.j.Y.Y.R.P.q._.Q.(._.E.R.E.R.2..X^.R.R.Y.Y.R.E.b.S._.T.P.P.v.j.f._ U E E E W E r ",
"w E E T E E K O.q.e.b.N.R.D.Y.q._.R.^._.E.R.E.R.3..XW.R.T.Y.R.R.E.F.D.D.^.D.D.n.v.w.*.K E E T W E X ",
"n L I P L S > 6.9.v.N.Y.W.W.Q.q._.E.W.W.R.R.R.Y.2..X(.E.R.N.R.Q.^.b.D.^.Q.Q.Y.n.v.e.v.e S K K L L n ",
"H.+XOXOXJ.S e v.n.Y.R.E.W.W.W.q. X_.W.W.T.Y.R.R.<.{.(.W.R.E.W.(.^.b.L.[.Q.E.E.Y.P.b.j.e Z A.A.R ~ A.",
"! I T E / C i n.R.N.V.Q.W.(.^.w. XE.R.E.E.E.R.E.w. X(.^.E.W.^.W._.b.U.].E.E.Y.W.R.P.j.p N / Z.! OXA.",
"~ E U U E B p Y.Y.Y.Y.W.Q.W.Q.q. XQ.E.R.R.R.R.R.w.{.W.W.E.^.W.W.W.b.!.[.E.E.R.E.R.T.P.l S Z.Z.Z.J.G.",
"Z.J.J.Q R B i P.N.R.R.W.E.Q.E.q. XE.R.R.R.R.R.R.3.`.W.W._.W.R.Q.E.v.~.}.Y.E.P.R.R.).E.l J ! ! W A.Z.",
"~ ~ Z.G.E N y Y.n.R.Y.^.Q.E.D.q. XQ.Y.R.T.R.Y.E.6.`.W.W.[.W.Q.R.E.r.!.].R.E.Y.Q.Y.Q._.l J A.! Z.Z.^ ",
"! W ! ! W B i Y.n.Y.N.Q.R.W.(.e. XQ.T.R.Y.Q.Y.R.2.XXW.R.^.(.E.R.R.v.!.'.N.T.Y.R.Y.R._.l F oX! ! ~ ~ ",
"P I I R E n p n.n.n.N.Q.R.R./.w.`.Q.Y.Y.D.V.Y.R.2.XXW.R.W.W./.R.E.e.~.'.Y.Y.Y.R.Y.R.XXl F A./ Y U R ",
"Z Z Z Z Z v p N.Y.N.Y.Q.R.R.D.q.}.R.n.Y.V.R.Y.R.| {./.R.Q.E.R.R.R.e.E._.P.Y.P.R.Y.R.{.e c C S Z Z Z ",
"n I ~ A.T n u M.R.R.R.Q.Y.R.R.3.`.E.n.Y.Y.R.Y.R.#.{.W.Y.R.R.R.R.R.e.U.W.n.n.P.Y.Y.R.{.p n T A.A.I v ",
"S OX@XOXZ.B u Y.Y.N.N.Q.Y.V.N.1.[.R.N.Y.N.Y.V.V.>.{./.N.N.R.Y.N.R.8.D.W.M.n.n.N.N.n._.p F OX! E I N ",
"B ~ +XH.Q C e T.Y.R.Y.W.V.Y.R.q.^.D.R.V.Y.R.D.R.&.`./.N.Y.Y.Y.N.Y.e.U.W.b.n.B.n.N.n.^.u J H.! ! R N ",
"n E ~ G.z.C u Y.n.R.Y.D.D.Y.R.w.^.V.Y.R.N.R.R.R.3.`.V.n.R.N.N.N.P.e.U.R.v.9.9.g.e.v.W.l F A.~ R E B ",
"N U Q G.~ N u T.n.Y.C.W./.V.D.e.'.V.N.Y.Y.Y.Y.R.3.`.V.n.R.D.N.N.Y.v.I./.e.K.$X*X*XF.U.l S ! Y I U N ",
"N R Q Q T N u n.n.Y.Y.D.C.D.Y.3.^.Y.n.Y.Y.V.R.N.<.`.C.N.V.Y.n.n.R.k.D.P.#.G I #XY a.U.l Z W I J K n ",
"N U U I K n i N.n.N.P.Y.N.Y.N.>.^.N.V.Y.Y.R.V.Y.} `.Q.n.n.R.Y.R.R.e.D.D.O.1 o &Xm z b.p C R R K L n ",
"c N Z B c w i R.P.N.N.P.n.Y.Y.,.^.Q.R.Y.Y.Y.Q.R.1.`.W.Y.Y.R.Y.R.R.e.D.^.y.%X^ @X%X#Xl.< c C C C Z v ",
"oXH.oXA.~ Z i N.N.N.N.N.P.P.R.2.`.Q.R.n.Y.Y.R.R.7.XXW.N.Y.R.R.R.E.e.D.^.H / o c r %Xz., C ^ A.A.Z.W ",
"! ~ Z.Z.E N i N.P.N.b.n.b.P.Y.2.'.R.R.Y.Y.Y.R.R.} `.W.N.n.R.Y.n.Q.v.D.Q.t P Z A w ^ H , F ! Y T R E ",
"~ Z.~ Q Q n i n.n.Y.n.n.n.n.N.| '.V.V.R.R.Y.V.Y.' `.W.n.n.n.Y.Y.Y.9.D.V., z.I c n oXz e D R P I Z.J.",
"J.A.Q E T B i n.N.n.v.v.v.v.M.{ W.V.n.N.n.n.Y.Y.} /.Y.n.n.n.n.n.n.1.S.n.i . A Y F - 7 > J oXE W Q G.",
"Z.~ ~ E E N p B.B.v.x.v.g.9.9.' W.V.v.n.N.n.n.n.[ ^.V.v.v.n.v.v.b.<.q.n.' a y y f } k.= J J.H.Z.G.G.",
"G.G.Q R U n p x.v.v.g.9.7.9.8.{ Q.m.x.v.n.x.v.v.' ^.V.9.v.v.e.v.v.&.q.v.1.v.b.v.9.v.^.= D A.H.Q ~ J.",
"E Y P P P b u x.x.x.7.7.7.7.;.' V.x.g.x.b.9.v.v.' W.b.7.1.9.0.0.9.| 6.g.<.8.9.7.#.*.b.= n T / E R R ",
"n c n N N c 7 x.9.7.;.7.;.:.*.{ V.x.:.9.v.7.9.9.s R.e.1.<.7.7.7.7.} 1.0.} >.&.+.} @.n.@ r v b n N N ",
"B ! +XH.^ B , %.&.&.&.&.&.&.+.d m.:.;.:.0.7.7.7.a Y.9.*.+.;.;.*.;.` <.:.) +.+._ ) } e.@ Z J.@X@X! N ",
"N U E ~ ~ Z , &.+.+.&.+.&.&.} d m.:.*.;.;.;.;.;.9 N.1.*.+.*.&.&.*.` >.;.( ` ' s _ ( 6.@ J A.T E T N ",
"N E ~ E Q B , ......X.....} ` a d.=.X.&.&.=.=.=.& v.*.+...+.+.+.+.' } &.9 ( ( 8 9 ' 1.e J A.! ! R N ",
"B ~ ! R E B : ` ) ) ) ` ) ) ( & :.%.......&.+.X.9 0.&.` )  .` ` ` 9 ( +.& 9 9 ( 9 s +.@ S Z.! E W N ",
"Z ~ ! E W B : ( ( s ( ( s 9 9 % =...( ) ....) ..5 :.X.( 0 q ( ( ( 6 s  .8 8 9 8 8 8 `   Z E ! W Z.S ",
"N W R U P n : g 8 9 8 q 9 8 8 # X.) ( ( ( ..( ) % :...( 0 0 g g 9 8 6 ) 6 6 8 9 8 & _ = C T Z.A.A.S ",
"n I K J J b : 0 8 8 5 q 8 4 9 # X.( q q g ) q ( 5 =. .0 8 0 0 0 8 4 4 ( % % 5 0 % 5 q = n Y R / / C ",
"w x c x x X : 4 4 4 < % $ O $ + 0 5 4 4 4 8 4 4 O g 0 4 $ $ $ 4 $ O O 5 O $ O $ $ O $ + . c c c b c "
};
