/* XPM */
static char *result[] = {
/* columns rows colors chars-per-pixel */
"50 50 200 2 ",
"   c #010101",
".  c #0A0A0A",
"X  c #120B07",
"o  c #0F100F",
"O  c #1C110B",
"+  c #141615",
"@  c #1C1D1C",
"#  c #29160B",
"$  c #2C190C",
"%  c #26170D",
"&  c #341D0F",
"*  c #2C1C13",
"=  c #221D19",
"-  c #341D11",
";  c #3A1F12",
":  c #36200F",
">  c #3F250F",
",  c #2B241E",
"<  c #352113",
"1  c #3C2312",
"2  c #35281D",
"3  c #242423",
"4  c #2A2A29",
"5  c #252826",
"6  c #362D25",
"7  c #2E302F",
"8  c #34312E",
"9  c #3D3229",
"0  c #353433",
"q  c #3B3D3A",
"w  c #363B38",
"e  c #432414",
"r  c #492617",
"t  c #452913",
"y  c #4B2C16",
"u  c #452718",
"i  c #492618",
"p  c #4D2D19",
"a  c #47291B",
"s  c #532C1B",
"d  c #582E1D",
"f  c #523216",
"g  c #543219",
"h  c #5B351B",
"j  c #5E391B",
"k  c #623C1C",
"l  c #693E1E",
"z  c #412E20",
"x  c #433425",
"c  c #4C3723",
"v  c #4F3924",
"b  c #41342A",
"n  c #543C26",
"m  c #593A26",
"M  c #483E35",
"N  c #523F34",
"B  c #643320",
"V  c #6A3623",
"C  c #663C21",
"Z  c #6B3C23",
"A  c #643F28",
"S  c #733B26",
"D  c #773D28",
"F  c #7C3F2A",
"G  c #3D413E",
"H  c #69411E",
"J  c #49423C",
"K  c #5E4533",
"L  c #544031",
"P  c #6C4123",
"I  c #6C442C",
"U  c #744425",
"Y  c #794426",
"T  c #7C432A",
"R  c #7C4929",
"E  c #774826",
"W  c #664A38",
"Q  c #7F5327",
"!  c #3E4340",
"~  c #424643",
"^  c #444945",
"/  c #464B48",
"(  c #4A4D4A",
")  c #4C4A44",
"_  c #544D46",
"`  c #4D514D",
"'  c #50544F",
"]  c #5A544A",
"[  c #4F5450",
"{  c #525652",
"}  c #555955",
"|  c #585C55",
" . c #5A5E59",
".. c #61574D",
"X. c #5D625C",
"o. c #62655E",
"O. c #65685F",
"+. c #636661",
"@. c #656A63",
"#. c #6A6E66",
"$. c #6B6F68",
"%. c #6C7067",
"&. c #6E726A",
"*. c #72756C",
"=. c #75796E",
"-. c #797B6E",
";. c #767A71",
":. c #7A7E73",
">. c #727770",
",. c #844C24",
"<. c #82432B",
"1. c #844C2B",
"2. c #8B4A2E",
"3. c #89462E",
"4. c #835227",
"5. c #86532A",
"6. c #8C542D",
"7. c #8B592C",
"8. c #92562C",
"9. c #955C2C",
"0. c #995C2E",
"q. c #8E4831",
"w. c #924C31",
"e. c #9B4C3B",
"r. c #8E5430",
"t. c #955332",
"y. c #9B5333",
"u. c #9C5C35",
"i. c #985834",
"p. c #A04F3D",
"a. c #A35A36",
"s. c #A3553A",
"d. c #A45F3A",
"f. c #AB5D3A",
"g. c #A15635",
"h. c #9C6233",
"j. c #9F6932",
"k. c #A36237",
"l. c #A46B35",
"z. c #A56438",
"x. c #AD633A",
"c. c #AC6B3B",
"v. c #A36839",
"b. c #B2653D",
"n. c #B36C3E",
"m. c #BA6B3E",
"M. c #AE7237",
"N. c #AD743C",
"B. c #AF793F",
"V. c #B2733C",
"C. c #BC723F",
"Z. c #B7793E",
"A. c #AA5642",
"S. c #B55D45",
"D. c #B66B41",
"F. c #BC6D42",
"G. c #BD6C48",
"H. c #AF7540",
"J. c #B57341",
"K. c #BA7542",
"L. c #B17A41",
"P. c #BD7A43",
"I. c #C36B48",
"U. c #C47444",
"Y. c #C37B44",
"T. c #CA7D47",
"R. c #C57D49",
"E. c #CD7E48",
"W. c #C8744A",
"Q. c #D67D51",
"!. c #D27750",
"~. c #7D8176",
"^. c #7D8279",
"/. c #808277",
"(. c #82857B",
"). c #85897E",
"_. c #CB8246",
"`. c #CE8149",
"'. c #C78043",
"]. c #D2844B",
"[. c #D6894C",
"{. c #DA8C4E",
"}. c #D4864B",
"|. c #DC914E",
" X c #DF994F",
".X c #DB8453",
"XX c #DD8C53",
"oX c #D58250",
"OX c #DE9351",
"+X c #E28D56",
"@X c #E38C58",
"#X c #E29254",
"$X c #E39C52",
"%X c #E59058",
"&X c #E9A257",
"*X c #828780",
"=X c #858A81",
"-X c #898E84",
";X c #8C9188",
":X c None",
/* pixels */
":X:X:X:X:X:X:X:X:X:X:X:X:X:X:X:X:XX.X.` X.&.:.;.*.:.:.;.;.&.' +.$.X.:X:X:X:X:X:X:X:X:X:X:X:X:X:X:X:X",
":X:X:X:X:X:X:X} @.O.:X:X:X:X! >.^.*X~.X.` ;.*.#.#.:.:.>.:.$.{ :.^.^.^.>.` :X:X:X*.*.} :X:X:X:X:X:X:X",
":X:X:X:X:X:X .=X^.=.| :X} ~.-X>.&.@.%.o.~ &.~.;.:.:.>.:.:.@.@.*X*.$.%.;.(.} / *.).).;X .:X:X:X:X:X:X",
":X:X:X:X:X*.^.;.;.~.+.@.*.=X>.~.^.~.~.&./ ^./.^.^./.^.:.>.@.>.:.;.;.&.%.;.} @.;X-X).^.~.X.:X:X:X:X:X",
":X:X:X:X+.~.*.;.;.=.;.>.} X.^.^.~.&.*.#.` X.#.&.>.&.>.&.#.| ;.:.;.;.*.-.X.X./.).).).).~.-.X.:X:X:X:X",
":X:X:X:XX.;.&.;.=.;.~.;.*.} &.=.~.~.M L c K W W W K K K 9 b 0 9 *.*.*.:.} ).).=X/.(.).).^.} :X:X:X:X",
":X:X:X:X:X} %.~.=.*.*.;.^.*./ | L I u.D.5.z.r.R Z j C C 1 h p ; $ , ) ` *.)././.(.~.~.-.} :X:X:X:X:X",
":X:X:X:X:X` ` &.~.;.*.^.;.X.b E 7.v.D.P.7.W.z.t.1.Z P Z t k p e < : $ @ >./.:.^.).(.*.' | :X:X:X:X:X",
":X:X:X:X( ^.^.} &.=.#.&._ z i.D.D.D.L._.N.W.J.v.h.r.R I y C g y 1 < <   o ( +.&.>.X.{ =X*.^ :X:X:X:X",
":X:X:XG ~.^.~.@.( &.X.) I P D.D.J.K.R.[.Z.R.K.c.c.u.r.U y H h p y > :     o q } ` #.~.~./.#.w :X:X:X",
":X:X:X#.~.-.*.;.+.~ J P c.5.K.U.R.T.].OXP.'.J.H.c.v.v.5.f l h h p y 1         5 X././.=X).:.o.:X:X:X",
":X:X` ^.=.-.^.~.;.J P h.J.r.E.`.}.`.].OXP.'.K.D.J.J.J.v.h m h h p y 1           q =.~.)./.:.=.` :X:X",
":X:X} ` #.=.=.~._ R x.K.E.h.XX}.[.|..XOXL.`.P.J.V.J.D.N.h j h h g p t             ^ *.~.*.&.` ' :X:X",
":XX./.:.@.#.&...m u.m.R.[.u.OX[.|.|.[.|.B.`.Y.J.J.J.J.L.H j h h g p 1               G X.X.@.:.#./ :X",
":X=.*.-.:.:.#.n 8.d.U.`.OXh.|.[.XXOX[.OXN.oXR.P.J.J.J.J.k H j h g p &               + X.-.-.=.*.X.:X",
"~ *.=.*.*.&.#.U k.d.W.]. Xl.|.[.{.XX`.|.c.oXR.P.P.P.J.B.k H j h f p 1                 %.&.*.*.=.*.J ",
"q *.=.&.&.&.o.4.b.b.].`.$XZ.+X}.{.[.].|.M.XX_.R.L.P.J.L.m H j j g p t                 o.*.&.&.=.=.q ",
"( O.O.o.O.| x 8.m.b.E.[.&XV.+X[.{.[.[.|.M.XX_.P.K.P.J.L.H l k j f p t                 @  .+.o.O.O.( ",
"(.-X=X=X).} c 6.D.n.].{.&XM.+X[.[.[.`.OXM.OX[.'.K.P.J.L.H H j k f p 1                 + { :.^.*.:.^.",
";.#.#.=.=.' n 6.D.U.[.|.&XV.+X[.[.`.[.{.N.|.[.`.P.R.J.L.H H k j f p &                 + ` ;.:.:.).^.",
":.*.#.#.*.' n 8.G.`.[.XX&XM.$X[.[.`.[.OXM.|.].oXP.R.J.L.H H H k g p :                 + } :.:.^.).(.",
"~.).(.-.&.' n 9.U.[.oX[.&XM.+X].[.`.`.{.M.|.].`.K.P.D.J.j H H k g y :                 +  .;.*.:.^.:.",
"*XH././.*.` n 8.R.[.[.[.$XZ.+X].`.`.`.OXl.+X].`.K.Y.V.H.h P k H f y &                 + X.^.;.:.:.:.",
">.>.>.;.:.' n 9.`.[.[.oX$XM.+X].`.`.`.OXj.XX`.'.K.P.c.B.j U P k s a 1                 +  .*X:.;.:.:.",
"+.@.@.>.>.[ M 7.E.[.}.}.$XV.+XE._.E._.|.l.+X_.Y.J.K.D.N.P P K W ..N e                 +  .^.>.#.&.&.",
"[ [ [ [ [ ! M h.E.[.}.}.$XM.{.E.T.E.E.{.j..XE.Y.J.K.c.N.j P _ ( ) z ;                 + ~ { { { { { ",
"/ @.^.*X#.( c 9.E.}.E.}.$Xl.{.E.T.T.].|.l.Q.T.Y.V.K.c.N.j h , 3 { 8 <                 + / $.:.*X@./ ",
"} *X;X*X:.{ c 9.T.}.E.].#Xk.{.].`._.`.{.M.Q.T.Y.n.K.c.M.y m J q { +.9                 +  .=X;.*.#.( ",
"[ H.-X(.-.' n 9.T.E.].}. XM.[.`.`.`.`.{.M.Q.T.Y.V.Z.M.B.f K  .8 5 0 9                 + X.*X;.>.*.( ",
"[ &.:././.' n 9.`.].].E.$XM.}.E.`.`.].[.l..XE.Y.K.P.n.B.f x 0 5 4 4 6                 +  .:.:.*.*.' ",
"[ @.-./.-.' n 9.E.E.}.E.$XM.Q.E.T.].E.[.h.+XE.Y.K.K.n.B.s 6 M 0 4 q *                 + } :.#.#.#.( ",
"! >.-.-.&.( c 9.}.E.E.E.OXl.[.`.T.E.[.{.M.+XE.Y.K.K.n.N.h 6 / [ / , $                 + } >.@. .+.( ",
"[ >.$.+.+.( n 9.`.T.E.E. Xj.].`.E._.}.{.M.{._.U.Z.K.n.M.t t % = % < <                 + ` &.&.o.+.( ",
"! [ [ [ ! ! n 9.T.T.E.`.$Xj.{.].]._.}.[.8.{.T.Y.n.Z.c.N.t y t e e a -                 + ~ [ [ { { ^ ",
"*X*X*X*X:.{ n 9.`.E.E.].$Xl.+X].E.}.E.[.6.{.T.C.n.J.x.c.e y r e e 1 $                 + [ :.^.^.^.*.",
"^.>.>.^.=.` c 9.`._.E.`.|.l..XE.E.].}.Q.8.].T.C.c.c.k.v.e i e e 1 e $                 +  .;.#.%.&.-.",
";.^.~.-.-.` n 9.E.T.T.E.|.9..X_.E.E.E.Q.9.}.C.m.z.c.u.u.t p r r u e $                 +  .&.+.#.-.).",
"*X^.;.%.%.` c 9.T.T.Y.U.|.5..XT.T.E.T.E.7.E.m.z.u.a.t.6.t s r r e u &                 + X.*X*.*.:./.",
"^.~.~.&.&.` c 9.T.T.F.K.[.Q Q.U.U.T.U.T.5.U.x.a.y.y.2.6.1 s r r e e #                 +  .=X/.^./.~.",
"^.^.;.&.%.` n 9.T.T.m.n._.5.!.U.U.U.U.U.5.C.x.y.2.8.3.6.> p r e e ; #                 +  .^./.:.~.(.",
"*.%.+.+.o./ n 0.W.T.b.f.`.4.W.m.m.m.m.m.5.m.g.w.3.2.<.<.1 i e e ; ; #                 + ( #.;.*.%.&.",
"( ~ ( [ ` J c 8.F.U.f.a.'.4.I.b.m.b.b.m.5.b.y.2.<.<.D D ; r e e ; & $ . .   .   . . . @ G ~ / ( ` ` ",
"` ;.-X(.^.' c 8.I.m.g.g.U.R I.f.f.f.f.f.,.f.3.<.S D S V $ e e 1 ; $ #   .   . . . . . @ [ (.;X;X;.` ",
"` %.*.:.:.' c 8.I.f.g.g.C.Y I.g.d.y.s.d.Y A.<.D l S V h $ e ; 1 $ # O .   . .     .   @ X.(.&.&.%.` ",
"` *.;.=.-.' c 8.f.g.y.w.x.H b.w.w.w.q.e.Y p.F S l V B d $ ; # # X .   . .   . . . . . 3 X.^.;.;.*.` ",
"' :.;.&.=.' c ,.a.y.q.3.a.l A.3.q.q.3.e.Y e.D B s s e # O X :X:X:X:X:X:X:X:X:X:X:X:X:X5 | :.>.>.=.' ",
"{ :.;.&.*.' p ,.y.w.<.F y.k p.<.T <.D <.V s r X :X:X:X:X:X:X:X:X:X:X:X:X:X:X:X:X:X:X:X4 } ;.:.>.^.{ ",
"` =.&.%.O.( c ,.2.3.F S q.h p.V B d - - # :X:X:X:X:X:X:X:X:X:X:X:X:X:X:X:X:X:X:X:X:X:X7 ` &.;.~.^.{ ",
"` +.+.X.X./ 6 U T S V p a 1 * . o + :X:X:X:X:X:X:X:X:X:X:X:X:X:X:X:X:X:X:X:X:X:X:X:X:Xq ( %.&.>.>.[ ",
"G G ~ ! ! q + t a < - O :X:X:X:X:X:X:X:X:X:X:X:X:X:X:X:X:X:X:X:X:X:X:X:X:X:X:X:X:X:X:X:Xw ! ~ ~ ( ~ "
};
