/* XPM */
static char *result[] = {
/* columns rows colors chars-per-pixel */
"50 50 159 2 ",
"   c #010101",
".  c #0A0502",
"X  c #0E0803",
"o  c #090909",
"O  c #120A04",
"+  c #1A0E06",
"@  c #130E0C",
"#  c #190F0A",
"$  c #0F100F",
"%  c #1C1007",
"&  c #17120F",
"*  c #1B130B",
"=  c #141514",
"-  c #1C1511",
";  c #1D1916",
":  c #1B1C1B",
">  c #220A0A",
",  c #2B0A0A",
"<  c #24130A",
"1  c #29160B",
"2  c #2C190D",
"3  c #331D0E",
"4  c #211612",
"5  c #201A14",
"6  c #2D1F15",
"7  c #221F1C",
"8  c #281F19",
"9  c #341F11",
"0  c #3A1F11",
"q  c #1E201E",
"w  c #38210F",
"e  c #23221F",
"r  c #2D251D",
"t  c #362013",
"y  c #3B2212",
"u  c #35261D",
"i  c #242323",
"p  c #262927",
"a  c #2B2B2A",
"s  c #362D25",
"d  c #2E302F",
"f  c #353937",
"g  c #363B38",
"h  c #3A3D39",
"j  c #432514",
"k  c #482715",
"l  c #452914",
"z  c #4B2B16",
"x  c #4F2A1A",
"c  c #512E17",
"v  c #522F19",
"b  c #592E1C",
"n  c #543119",
"m  c #5B341D",
"M  c #5D391C",
"N  c #63331F",
"B  c #633B1E",
"V  c #433323",
"C  c #4B3622",
"Z  c #4F3924",
"A  c #45372E",
"S  c #483328",
"D  c #543C26",
"F  c #663421",
"G  c #6A3623",
"H  c #653A20",
"J  c #6B3923",
"K  c #733C24",
"L  c #3D413E",
"P  c #4A4138",
"I  c #504439",
"U  c #6B4223",
"Y  c #664029",
"T  c #744225",
"R  c #794326",
"E  c #714824",
"W  c #7D4D26",
"Q  c #774628",
"!  c #7D4329",
"~  c #7E4C2A",
"^  c #704E34",
"/  c #3E4340",
"(  c #424643",
")  c #454945",
"_  c #464B48",
"`  c #494E4A",
"'  c #524D45",
"]  c #4D514D",
"[  c #50544F",
"{  c #5B5549",
"}  c #4F5450",
"|  c #525651",
" . c #555955",
".. c #585C55",
"X. c #5A5E59",
"o. c #5D625C",
"O. c #6E6454",
"+. c #62655E",
"@. c #65685F",
"#. c #636761",
"$. c #656A63",
"%. c #6A6E66",
"&. c #6B6F68",
"*. c #6C7067",
"=. c #6E726A",
"-. c #72756C",
";. c #75796E",
":. c #797B6E",
">. c #727770",
",. c #767A71",
"<. c #7A7E73",
"1. c #804F27",
"2. c #82452A",
"3. c #844D2B",
"4. c #8B4C2C",
"5. c #904F2E",
"6. c #805027",
"7. c #895126",
"8. c #835129",
"9. c #8B532D",
"0. c #93552E",
"q. c #8E4C30",
"w. c #8E5430",
"e. c #975630",
"r. c #9C5534",
"t. c #945A32",
"y. c #9C5C32",
"u. c #A25F35",
"i. c #9F6534",
"p. c #A46336",
"a. c #AA6937",
"s. c #A66339",
"d. c #AC653A",
"f. c #AE6A3A",
"g. c #B0673B",
"h. c #B36C3C",
"j. c #B86F3E",
"k. c #AE7139",
"l. c #B6733C",
"z. c #B9713F",
"x. c #BB7C3E",
"c. c #BC7440",
"v. c #BE7942",
"b. c #C17642",
"n. c #C07A43",
"m. c #7D8176",
"M. c #7D8279",
"N. c #BE8141",
"B. c #808277",
"V. c #82857B",
"C. c #85897E",
"Z. c #C38342",
"A. c #C88645",
"S. c #828780",
"D. c #858A81",
"F. c #898E84",
"G. c #8D9287",
"H. c #8C9189",
"J. c None",
/* pixels */
"J.J.J.J.J.J.J.J.J.J.J.J.J.J.J.J.J.o.o.] o.*.m.,.=.m.m.,.,.=.] o.&.o.J.J.J.J.J.J.J.J.J.J.J.J.J.J.J.J.",
"J.J.J.J.J.J.J. .o.@.J.J.J.J./ m.M.M.m.o.] :.-.%.$.m.,.m.<.*.| M.M.M.M.>.] J.J.J.;.-. .J.J.J.J.J.J.J.",
"J.J.J.J.J.J.X.D.M.>...J.o.m.F.>.=.%.=.o./ -.m.;.m.,.,.,.m.$.$.S.-.*.*.>.C.X._ -.C.F.G...J.J.J.J.J.J.",
"J.J.J.J.J.-.M.,.,.m.$.$.*.D.m.>.M.m.m.=._ m.M.m.M.M.m.,.;.#.>.M.,.;.=.*.>.| $.G.F.C.B.<.o.J.J.J.J.J.",
"J.J.J.J.#.m.-.,.,.>.,.-...o.S.M.m.=.=.%.] o.%.-.-.-.-.=.$...,.<.,.;.-.<.o.o.M.C.C.C.C.m.<.o.J.J.J.J.",
"J.J.J.J.o.,.=.,.;.,.m.,.>.| =.,.M.>.A s r r e q q q q : q : p d >.;.;.;. .C.C.D.B.B.V.D.m...J.J.J.J.",
"J.J.J.J.J. .*.m.,.;.-.,.M.=._ { s y w w 6 1 X .                   = ) ` -.C.B.B.B.m.<.>...J.J.J.J.J.",
"J.J.J.J.J.] ] =.,.,.>.m.,.+.S x z l y w 3 1 X .                       : ;.B.<.m.C.C.-. ...J.J.J.J.J.",
"J.J.J.J.` M.M. .*.>.%.*.} D Q Q n c y w 3 1 . .                         o ] #.=.,.o. .C.-.) J.J.J.J.",
"J.J.J.L m.M.m.$.] *.+.' J 3.w.~ M n y w 3 1 . .                           o h X.] $.m.m.B.%.g J.J.J.",
"J.J.J.%.m.:.;.,.+.( P Y t.u.y.8.M n j y 3 1 . . .                             p o.B.M.D.C.<.+.J.J.J.",
"J.J.] M.;.:.m.m.,.I U i.i.s.p.9.B m l j 3 2 O .                                 h ;.m.C.B.<.;.] J.J.",
"J.J...] %.-.;.<.{ 8.s.v.s.f.s.9.H m z y 3 1 O .                                   ) -.m.;.%.] | J.J.",
"J.o.B.<.%.$.*.O.~ s.c.N.f.c.s.3.B M l y 3 1 O .                                     L o.o.$.<.%.) J.",
"J.;.-.:.<.<.%.^ k.c.d.N.f.z.p.3.B m l y 3 1 O .                                     = o.<.:.;.-.o.J.",
"( -.;.-.-.=.%.E v.c.c.Z.h.c.d.W m n l y 2 < O .                                       *.*.-.-.;.-.P ",
"L ;.;.-.-.-.@.W v.b.z.Z.f.z.d.W n n j w 3 < O .                                       +.-.-.=.-.M./ ",
"_ @.@.o.@.o.V 6.n.f.u.N.p.j.d.9.B n l y 3 6 O O                                       : ..#.+.@.$./ ",
"M.F.D.D.M.o.s 6.c.d.d.x.p.z.f.9.J D z y s a ; # .                                     = | <.M.-.M.M.",
";.*.%.-.>.] Y 8.c.d.f.N.g.z.g.4.B M z y 8 a e 4 X                                     = ] ,.<.<.S.S.",
"m.=.*.*.-.] D 8.v.d.f.N.f.z.a.7.B M j t ; p p 4 .                                     = | <.<.M.S.M.",
"m.V.V.;.-.[ D 8.v.c.c.Z.f.j.u.1.B m j 6 i : = - .                                     = X.<.>.<.M.M.",
"m.m.B.B.-.] D 8.c.c.c.v.g.j.u.W m n y t e = = * .                                     = o.M.,.<.m.m.",
";.;.;.,.,.} D 8.v.c.c.Z.a.h.r.1.n z y r e : = O .                                     = X.S.<.,.>.m.",
"+.$.$.=.-.] D 8.x.b.j.Z.p.g.0.W n z t 5 i i * # .                                     = o.M.>.&.&.&.",
"| | | | | ) D W b.b.z.x.u.g.u.1.c k t * : = < % .                                     = / | | | | } ",
"_ $.<.M.%.` D W l.n.h.l.u.h.f.2.c j t % # < 1 %                                       = ` &.M.M.$./ ",
" .D.H.D.m.| Z W l.b.z.x.u.g.g.W c j t 2 2 9 < + .                                     = o.D.,.-.$.] ",
"[ <.F.V.:. .C 1.z.b.z.l.u.h.d.W z k y 9 y 2 < +                                       = o.M.>.>.=.} ",
"[ *.<.B.<.[ D 1.z.b.l.l.y.h.d.W c k y 0 3 < + O .                                     = o.m.m.=.>.| ",
"` *.:.B.:.[ C W z.b.j.Z.a.j.f.9.n k j y 3 1 O .                                       =  .m.=.$.%.] ",
"] -.:.:.*.] D 6.z.b.z.x.g.z.g.8.m v j 0 2 < O .                                       = | >.$.o.+._ ",
"` %.%.#.#.` D 3.c.c.h.l.p.h.p.W c z j w 3 < X .                                       = ] =.=.+.$./ ",
"( [ [ | ( / C W c.c.h.N.p.g.e.R c z j 0 3 < X .                                       = ( } } | } / ",
"S.S.D.M.<.| C W c.j.z.n.u.p.0.W c k j 0 3 < X .                                       = } <.M.M.M.>.",
",.<.<.<.-.] D 1.c.c.h.x.y.u.9.R c k j j 0 < .                                         = X.,.%.*.&.>.",
"<.<.<.:.:.` D 1.z.b.f.l.0.0.4.B x k y 0 3 < .                                         = X.>.o.%.M.S.",
"C.B.:.-.-.[ C 1.z.g.d.l.5.5.2.R k j 0 0 2 <                                           = o.S.-.-.S.S.",
"B.<.<.-.&.[ Z 1.l.y.d.k.2.4.K U j y 3 3 <                                             = X.D.B.M.B.s.",
"B.B.<.*.%.` D 1.h.0.r.i.R 2.K B j 0 0 2                                               = X.B.B.<.<.V.",
"=.*.$.+.o._ Z W a.7.e.y.K K N N k y @                                                 = ` %.>.>.%.-.",
"] / ] ] ] ( Z W p.7.4.4.N K N m j <         .     o o o o o . o o o . o . o . o o . o : / ( ) ` } ] ",
"] ,.G.B.M.[ C W p.2.R 7.F J N b X     o o o o o o o o o o o o o o o o   o o o o o o   : | V.H.H.,.] ",
"] *.=.m.m.| C 8.a.2.K R N J m +   o o o o o o o o o . o o o o o o   o   o     o o o o : o.V.=.=.=.] ",
"] ;.:.>.;.| C E y.! J K b x o o o o o o o o o o o o o o . o o .   . o   . o o . o o o q o.M.>.,.-.` ",
"[ :.,.=.-.| C W t.K G ! 0 @ o o o o o o o   o . o . o   J.J.J.J.J.J.J.J.J.J.J.J.J.J.J.i X.<.>.>.-.| ",
"} <.,.=.;.} S Q t.K q.0 o o o o o o o o   o J.J.J.J.J.J.J.J.J.J.J.J.J.J.J.J.J.J.J.J.J.a  .;.,.,.M. .",
"] ;.=.*.#.] C ~ t.G 9 o o o o o o o o . J.J.J.J.J.J.J.J.J.J.J.J.J.J.J.J.J.J.J.J.J.J.J.d ] -.,.M.M.| ",
"] #.#.o.o._ s M U ; o o $ o o $ $ & J.J.J.J.J.J.J.J.J.J.J.J.J.J.J.J.J.J.J.J.J.J.J.J.J.h ` %.=.>.>.} ",
"L / ( / / h e - & & , > o $ $ J.J.J.J.J.J.J.J.J.J.J.J.J.J.J.J.J.J.J.J.J.J.J.J.J.J.J.J.g g / / _ ` ( "
};
