/* XPM */
static char *result[] = {
/* columns rows colors chars-per-pixel */
"50 50 55 1 ",
"  c #000000",
". c #0A0A0A",
"X c #0F100F",
"o c #141515",
"O c #171817",
"+ c #1B1C1B",
"@ c #250A0A",
"# c #1E201E",
"$ c #222322",
"% c #262927",
"& c #2B2D2A",
"* c #2E302F",
"= c #313431",
"- c #353937",
"; c #363B38",
": c #3A3D3A",
"> c #3D413E",
", c #3E4340",
"< c #424643",
"1 c #454945",
"2 c #464B48",
"3 c #494E4A",
"4 c #4D514D",
"5 c #50544F",
"6 c #4F5450",
"7 c #525651",
"8 c #555955",
"9 c #585C55",
"0 c #5A5E59",
"q c #5D625C",
"w c #62655E",
"e c #65685F",
"r c #636761",
"t c #656A63",
"y c #6A6E66",
"u c #6B6F68",
"i c #6C7067",
"p c #6E726A",
"a c #72756C",
"s c #75796E",
"d c #797B6E",
"f c #727770",
"g c #767A71",
"h c #7A7E73",
"j c #7D8176",
"k c #7D8279",
"l c #808277",
"z c #82857B",
"x c #85897E",
"c c #828780",
"v c #858A81",
"b c #898E84",
"n c #8D9287",
"m c #8C9189",
"M c None",
/* pixels */
"MMMMMMMMMMMMMMMMMwq4qphgpjhggp3ruqMMMMMMMMMMMMMMMM",
"MMMMMMM8wtMMMM,gkkjq4gaithhhhu8hkkkf4MMMaf8MMMMMMM",
"MMMMMM0vks8M9jbfpppw<pjdhhgghutcapifz0<axbn9MMMMMM",
"MMMMMakgsjttacjfkjfp2jkjkzhhatfhgapif9tnxxkjqMMMMM",
"MMMMrjaggsgf8qkkjppi4qypapapu0fhggphqqlxxxzjjqMMMM",
"MMMMqgpggsjga8psjj*$o+#######O%*gasd8xxvzzzxj9MMMM",
"MMMMM8ijgspska23o                o24axllljjd9MMMMM",
"MMMMM44pggsjjq+                    +flhjzxa79MMMMM",
"MMMM3kj8pgyp,X                      X2rpgq8xa<MMMM",
"MMM>jkjt3pq>.                        .:04rjjlu;MMM",
"MMMujgagw<*                            %qzjvxjwMMM",
"MM4kddjjg=                              :sjxlhs4MM",
"MM94yasj<                                2pjay45MM",
"M0lhtyi4                                  >wwthy1M",
"MsadghtO                                  XwdhsaqM",
"<adaaai                                    iiaasa<",
":aspaaw                                    waapaa:",
"4erre9+                                    +0rwee3",
"lbvvc8o                                    o7hkahz",
"gyiag4o                                    o4fhhzz",
"gayya5o                                    o8hhkcz",
"kvzda4o                                    o0hshzh",
"hhlla4o                                    oqkghhh",
"ggahh4o                                    o0chfhh",
"rttuf4o                                    o0hfuuu",
"777871o                                    o177778",
"3rhhu3o                                    o2uhct3",
"8vmbh8o                                    o0vgay3",
"5hbzd5O                                    oqcgga3",
"3ahlh7o                                    o0hhaa3",
"3udld5o                                    o8huyu3",
"3addi5o                                    o7gt0r3",
"5uuer3o                                    o4ppqw2",
"<457,,o                                    o<77772",
"ccchh8o                                    o6hkkks",
"ghhka4o                                    o0gyiis",
"hhhdd5o                                    o0prudx",
"vldaa3o                                    oqcaajl",
"lhhiu5o                                    o0ckhll",
"lldau3o                                    o0zlhhl",
"aurrw2o                                    o3ufaua",
"3<364<o               .  .. ....... ... ...+><2344",
"5gbzk5o             ................. .....+7zmmg4",
"4yahh7o         .............. ..  . . . ..+qlapp4",
"4agsd7o     ............... . .. . .. .....#qkggp4",
"5hgpa5o   .......... . .....MMMMMMMMMMMMMMM%8hffs7",
"7hgaa5o.............. MMMMMMMMMMMMMMMMMMMMM&8aggj7",
"4spyr2+..... .......MMMMMMMMMMMMMMMMMMMMMMM*4agkk8",
"2rwqq2$oXX....XXXXMMMMMMMMMMMMMMMMMMMMMMMMM:2ipff6",
"><<<,:#ooXX@.XXMMMMMMMMMMMMMMMMMMMMMMMMMMMM-;,1<2<"
};
