/* XPM */
static char *result[] = {
/* columns rows colors chars-per-pixel */
"50 50 3 1 ",
"  c #2A292D",
". c #2A292E",
"X c None",
/* pixels */
"XXXXXXXXXXXXXXXXXXXXXXXXXXXXXXXXXXXXXXXXXXXXXXXXXX",
"XXXXXXXXXXXXXXXXXXXXXXXXXXXXXXXXXXXXXXXXXXXXXXXXXX",
"XXXXXXXXXXXXXXXXXXXXXXXXXXXXXXXXXXXXXXXXXXXXXXXXXX",
"XXXXXXXXXXXXXXXXXXXXXXXXXXXXXXXXXXXXXXXXXXXXXXXXXX",
"XXXXXXXXXXXXXXXXXXXXXXXXXXXXXXXXXXXXXXXXXXXXXXXXXX",
"XXXXXXXXXXXXXXXXXXXXXXXXXXXXXXXXXXXXXXXXXXXXXXXXXX",
"XXXXXXXXXXXXXXXXXXXXXXXXXXXXXXXXXXXXXXXXXXXXXXXXXX",
"XXXXXXXXXXXXXXXXXXXXXXXXXXXXXXXXXXXXXXXXXXXXXXXXXX",
"XXXXXXXXXXXXXXXXXXXXXXXXXXXXXXXXXXXXXXXXXXXXXXXXXX",
"XXXXXXXXXXXXXXXXXXXXXXXXXXXXXXXXXXXXXXXXXXXXXXXXXX",
"XXXXXXXXXXXXXXXXXXXXXXXXXXXXXXXXXXXXXXXXXXXXXXXXXX",
"XXXXXXXXXXXXXXXXXXXX          XXXXXXXXXXXXXXXXXXXX",
"XXXXXXXXXXXXXXXXXX      .   .   XXXXXXXXXXXXXXXXXX",
"XXXXXXXXXXXXXXXXX      .......   XXXXXXXXXXXXXXXXX",
"XXXXXXXXXXXXXXXX   .............. XXXXXXXXXXXXXXXX",
"XXXXXXXXXXXXXXX   ...............  XXXXXXXXXXXXXXX",
"XXXXXXXXXXXXXX   .................  XXXXXXXXXXXXXX",
"XXXXXXXXXXXXXX  ..................  XXXXXXXXXXXXXX",
"XXXXXXXXXXXXXX  ................... XXXXXXXXXXXXXX",
"XXXXXXXXXXXXX   .................... XXXXXXXXXXXXX",
"XXXXXXXXXXXX  ......................  XXXXXXXXXXXX",
"XXXXXXXXXXXX  ......................  XXXXXXXXXXXX",
"XXXXXXXXXXXX  ......................  XXXXXXXXXXXX",
"XXXXXXXXXXXX  ......................  XXXXXXXXXXXX",
"XXXXXXXXXXXX  ......................  XXXXXXXXXXXX",
"XXXXXXXXXXXX  ......................  XXXXXXXXXXXX",
"XXXXXXXXXXXX   .....................  XXXXXXXXXXXX",
"XXXXXXXXXXXXX   .................... XXXXXXXXXXXXX",
"XXXXXXXXXXXXXX  ................... XXXXXXXXXXXXXX",
"XXXXXXXXXXXXXX  ..................  XXXXXXXXXXXXXX",
"XXXXXXXXXXXXXX   ................   XXXXXXXXXXXXXX",
"XXXXXXXXXXXXXXX    ............    XXXXXXXXXXXXXXX",
"XXXXXXXXXXXXXXXX   ............   XXXXXXXXXXXXXXXX",
"XXXXXXXXXXXXXXXXX     ......     XXXXXXXXXXXXXXXXX",
"XXXXXXXXXXXXXXXXXXXX          XXXXXXXXXXXXXXXXXXXX",
"XXXXXXXXXXXXXXXXXXXX          XXXXXXXXXXXXXXXXXXXX",
"XXXXXXXXXXXXXXXXXXXXXXXXXXXXXXXXXXXXXXXXXXXXXXXXXX",
"XXXXXXXXXXXXXXXXXXXXXXXXXXXXXXXXXXXXXXXXXXXXXXXXXX",
"XXXXXXXXXXXXXXXXXXXXXXXXXXXXXXXXXXXXXXXXXXXXXXXXXX",
"XXXXXXXXXXXXXXXXXXXXXXXXXXXXXXXXXXXXXXXXXXXXXXXXXX",
"XXXXXXXXXXXXXXXXXXXXXXXXXXXXXXXXXXXXXXXXXXXXXXXXXX",
"XXXXXXXXXXXXXXXXXXXXXXXXXXXXXXXXXXXXXXXXXXXXXXXXXX",
"XXXXXXXXXXXXXXXXXXXXXXXXXXXXXXXXXXXXXXXXXXXXXXXXXX",
"XXXXXXXXXXXXXXXXXXXXXXXXXXXXXXXXXXXXXXXXXXXXXXXXXX",
"XXXXXXXXXXXXXXXXXXXXXXXXXXXXXXXXXXXXXXXXXXXXXXXXXX",
"XXXXXXXXXXXXXXXXXXXXXXXXXXXXXXXXXXXXXXXXXXXXXXXXXX",
"XXXXXXXXXXXXXXXXXXXXXXXXXXXXXXXXXXXXXXXXXXXXXXXXXX",
"XXXXXXXXXXXXXXXXXXXXXXXXXXXXXXXXXXXXXXXXXXXXXXXXXX",
"XXXXXXXXXXXXXXXXXXXXXXXXXXXXXXXXXXXXXXXXXXXXXXXXXX",
"XXXXXXXXXXXXXXXXXXXXXXXXXXXXXXXXXXXXXXXXXXXXXXXXXX"
};
