/* XPM */
static char *result[] = {
/* columns rows colors chars-per-pixel */
"50 50 35 1 ",
"  c #29282C",
". c #29282D",
"X c #2A292D",
"o c #2A292E",
"O c #2B2A2E",
"+ c #2B2A2F",
"@ c #2C2B30",
"# c #2D2C31",
"$ c #2E2D31",
"% c #2D2C32",
"& c #2E2D32",
"* c #2E2D33",
"= c #2F2E33",
"- c #2F2E34",
"; c #313035",
": c #313036",
"> c #333237",
", c #343338",
"< c #353439",
"1 c #35343A",
"2 c #37363C",
"3 c #37363D",
"4 c #38373C",
"5 c #38373D",
"6 c #39383E",
"7 c #3A3940",
"8 c #3B3A40",
"9 c #3C3B41",
"0 c #3C3B42",
"q c #3E3D44",
"w c #3F3E45",
"e c #403F46",
"r c #403F47",
"t c #414047",
"y c None",
/* pixels */
"yyyyyyyyyyyyyyyyyyyyyyyyyyyyyyyyyyyyyyyyyyyyyyyyyy",
"yyyyyyyyyyyyyyyyyyyyyyyyyyyyyyyyyyyyyyyyyyyyyyyyyy",
"yyyyyyyyyyyyyyyyyyyyyyyyyyyyyyyyyyyyyyyyyyyyyyyyyy",
"yyyyyyyyyyyyyyyyyyyyyyyyyyyyyyyyyyyyyyyyyyyyyyyyyy",
"yyyyyyyyyyyyyyyyyyyyyyyyyyyyyyyyyyyyyyyyyyyyyyyyyy",
"yyyyyyyyyyyyyyyyyyyyyyyyyyyyyyyyyyyyyyyyyyyyyyyyyy",
"yyyyyyyyyyyyyyyyyyyyyyyyyyyyyyyyyyyyyyyyyyyyyyyyyy",
"yyyyyyyyyyyyyyyyyyyyyyyyyyyyyyyyyyyyyyyyyyyyyyyyyy",
"yyyyyyyyyyyyyyyyyyyyyyyyyyyyyyyyyyyyyyyyyyyyyyyyyy",
"yyyyyyyyyyyyyyyyyyyyyyyyyyyyyyyyyyyyyyyyyyyyyyyyyy",
"yyyyyyyyyyyyyyyyyyyyyyyyyyyyyyyyyyyyyyyyyyyyyyyyyy",
"yyyyyyyyyyyyyyyyyyyyeeeeeeeeeeyyyyyyyyyyyyyyyyyyyy",
"yyyyyyyyyyyyyyyyyyee2<11111113eeyyyyyyyyyyyyyyyyyy",
"yyyyyyyyyyyyyyyyyqqq; XXoooo.;qqqyyyyyyyyyyyyyyyyy",
"yyyyyyyyyyyyyyyye;#%+oooooooo+%#:eyyyyyyyyyyyyyyyy",
"yyyyyyyyyyyyyyy82#Xooooooooooooo#28yyyyyyyyyyyyyyy",
"yyyyyyyyyyyyyyr2Xooooooooooooooooo3eyyyyyyyyyyyyyy",
"yyyyyyyyyyyyyyt5oooooooooooooooooo5tyyyyyyyyyyyyyy",
"yyyyyyyyyyyyyy7,oooooooooooooooooo,7yyyyyyyyyyyyyy",
"yyyyyyyyyyyyyq$Xooooooooooooooooooo&qyyyyyyyyyyyyy",
"yyyyyyyyyyyyeq#oooooooooooooooooooo%qeyyyyyyyyyyyy",
"yyyyyyyyyyyyeq%oooooooooooooooooooo%qeyyyyyyyyyyyy",
"yyyyyyyyyyyyeq%oooooooooooooooooooo%qeyyyyyyyyyyyy",
"yyyyyyyyyyyyeq%oooooooooooooooooooo%qeyyyyyyyyyyyy",
"yyyyyyyyyyyyeq%oooooooooooooooooooo%qeyyyyyyyyyyyy",
"yyyyyyyyyyyyeq%oooooooooooooooooooo%qeyyyyyyyyyyyy",
"yyyyyyyyyyyyeq#Xooooooooooooooooooo%qeyyyyyyyyyyyy",
"yyyyyyyyyyyyyq&Ooooooooooooooooooo+*qyyyyyyyyyyyyy",
"yyyyyyyyyyyyyy01oooooooooooooooooo10yyyyyyyyyyyyyy",
"yyyyyyyyyyyyyyt5oooooooooooooooooo5tyyyyyyyyyyyyyy",
"yyyyyyyyyyyyyyr4oooooooooooooooooo4ryyyyyyyyyyyyyy",
"yyyyyyyyyyyyyyy96$.oooooooooooo.$69yyyyyyyyyyyyyyy",
"yyyyyyyyyyyyyyyye>=-@oooooooo@-=>eyyyyyyyyyyyyyyyy",
"yyyyyyyyyyyyyyyyywww;XooooooX;wwwyyyyyyyyyyyyyyyyy",
"yyyyyyyyyyyyyyyyyyyy6255555526yyyyyyyyyyyyyyyyyyyy",
"yyyyyyyyyyyyyyyyyyyyrrreeeerrryyyyyyyyyyyyyyyyyyyy",
"yyyyyyyyyyyyyyyyyyyyyyyyyyyyyyyyyyyyyyyyyyyyyyyyyy",
"yyyyyyyyyyyyyyyyyyyyyyyyyyyyyyyyyyyyyyyyyyyyyyyyyy",
"yyyyyyyyyyyyyyyyyyyyyyyyyyyyyyyyyyyyyyyyyyyyyyyyyy",
"yyyyyyyyyyyyyyyyyyyyyyyyyyyyyyyyyyyyyyyyyyyyyyyyyy",
"yyyyyyyyyyyyyyyyyyyyyyyyyyyyyyyyyyyyyyyyyyyyyyyyyy",
"yyyyyyyyyyyyyyyyyyyyyyyyyyyyyyyyyyyyyyyyyyyyyyyyyy",
"yyyyyyyyyyyyyyyyyyyyyyyyyyyyyyyyyyyyyyyyyyyyyyyyyy",
"yyyyyyyyyyyyyyyyyyyyyyyyyyyyyyyyyyyyyyyyyyyyyyyyyy",
"yyyyyyyyyyyyyyyyyyyyyyyyyyyyyyyyyyyyyyyyyyyyyyyyyy",
"yyyyyyyyyyyyyyyyyyyyyyyyyyyyyyyyyyyyyyyyyyyyyyyyyy",
"yyyyyyyyyyyyyyyyyyyyyyyyyyyyyyyyyyyyyyyyyyyyyyyyyy",
"yyyyyyyyyyyyyyyyyyyyyyyyyyyyyyyyyyyyyyyyyyyyyyyyyy",
"yyyyyyyyyyyyyyyyyyyyyyyyyyyyyyyyyyyyyyyyyyyyyyyyyy",
"yyyyyyyyyyyyyyyyyyyyyyyyyyyyyyyyyyyyyyyyyyyyyyyyyy"
};
