/* XPM */
static char *result[] = {
/* columns rows colors chars-per-pixel */
"50 50 38 1 ",
"  c #2A292E",
". c #2B2A2F",
"X c #2C2B30",
"o c #2C2C30",
"O c #2D2C31",
"+ c #2D2D32",
"@ c #2E2D32",
"# c #313136",
"$ c #323237",
"% c #333338",
"& c #333438",
"* c #343438",
"= c #343539",
"- c #353539",
"; c #36363A",
": c #37373C",
"> c #37383C",
", c #38383C",
"< c #38393D",
"1 c #39393E",
"2 c #393A3E",
"3 c #3A3B3F",
"4 c #3A3A40",
"5 c #3A3B40",
"6 c #3B3B40",
"7 c #3B3B41",
"8 c #3C3C41",
"9 c #3C3C42",
"0 c #3C3D42",
"q c #3D3D42",
"w c #3D3D43",
"e c #3E3D43",
"r c #3E3E44",
"t c #3F3E44",
"y c #3F3E45",
"u c #3F3F45",
"i c #403F46",
"p c None",
/* pixels */
"pppppppppppppppppppppppppppppppppppppppppppppppppp",
"pppppppppppppppppppppppppppppppppppppppppppppppppp",
"pppppppppppppppppppppppppppppppppppppppppppppppppp",
"pppppppppppppppppppppppppppppppppppppppppppppppppp",
"pppppppppppppppppppppppppppppppppppppppppppppppppp",
"pppppppppppppppppppppppppppppppppppppppppppppppppp",
"pppppppppppppppppppppppppppppppppppppppppppppppppp",
"pppppppppppppppppppppppppppppppppppppppppppppppppp",
"pppppppppppppppppppppppppppppppppppppppppppppppppp",
"pppppppppppppppppppppppppppppppppppppppppppppppppp",
"pppppppppppppppppppppppppppppppppppppppppppppppppp",
"ppppppppppppppppppppiiiiiiiiiipppppppppppppppppppp",
"ppppppppppppppppppiiwqqqqqqqqwiipppppppppppppppppp",
"pppppppppppppppppuuu3>,,,,,,>3uuuppppppppppppppppp",
"ppppppppppppppppi833#XooooooX#338ipppppppppppppppp",
"ppppppppppppppprq;%%O        O%%;qrppppppppppppppp",
"ppppppppppppppiw<@              @<wipppppppppppppp",
"ppppppppppppppiw<@              @2wipppppppppppppp",
"ppppppppppppppr9<@              O=4rpppppppppppppp",
"pppppppppppppu32<@                &5uppppppppppppp",
"ppppppppppppiu32<@                %5uipppppppppppp",
"ppppppppppppiu32<@                %5uipppppppppppp",
"ppppppppppppiu32<@                %5uipppppppppppp",
"ppppppppppppiu32<@                %5uipppppppppppp",
"ppppppppppppiu32<@                %5uipppppppppppp",
"ppppppppppppiu32<@                %5uipppppppppppp",
"ppppppppppppiu32<@                %5uipppppppppppp",
"pppppppppppppu52<@               .*6uppppppppppppp",
"ppppppppppppppy0<@              O;7ypppppppppppppp",
"ppppppppppppppiw<@              @2wipppppppppppppp",
"ppppppppppppppiw1@              @1wipppppppppppppp",
"pppppppppppppppte:=-+        +-=:etppppppppppppppp",
"ppppppppppppppppi866$+@@@@@@+$668ipppppppppppppppp",
"pppppppppppppppppiii6<<<<<<<<6iiippppppppppppppppp",
"ppppppppppppppppppppewwwwwwwwepppppppppppppppppppp",
"ppppppppppppppppppppiiiiiiiiiipppppppppppppppppppp",
"pppppppppppppppppppppppppppppppppppppppppppppppppp",
"pppppppppppppppppppppppppppppppppppppppppppppppppp",
"pppppppppppppppppppppppppppppppppppppppppppppppppp",
"pppppppppppppppppppppppppppppppppppppppppppppppppp",
"pppppppppppppppppppppppppppppppppppppppppppppppppp",
"pppppppppppppppppppppppppppppppppppppppppppppppppp",
"pppppppppppppppppppppppppppppppppppppppppppppppppp",
"pppppppppppppppppppppppppppppppppppppppppppppppppp",
"pppppppppppppppppppppppppppppppppppppppppppppppppp",
"pppppppppppppppppppppppppppppppppppppppppppppppppp",
"pppppppppppppppppppppppppppppppppppppppppppppppppp",
"pppppppppppppppppppppppppppppppppppppppppppppppppp",
"pppppppppppppppppppppppppppppppppppppppppppppppppp",
"pppppppppppppppppppppppppppppppppppppppppppppppppp"
};
