/* XPM */
static char *result[] = {
/* columns rows colors chars-per-pixel */
"50 50 86 1 ",
"  c #F77221",
". c #F77822",
"X c #F9A52A",
"o c #F9BF2E",
"O c #FAC82F",
"+ c #FAC92F",
"@ c #FAD030",
"# c #FAE233",
"$ c #FBE434",
"% c #FBEA35",
"& c #FBF231",
"* c #FBF232",
"= c #FBF233",
"- c #FBF234",
"; c #FBF235",
": c #FBF236",
"> c #FBF336",
", c #FBF237",
"< c #FBF436",
"1 c #FBF238",
"2 c #FBF239",
"3 c #FBF23A",
"4 c #FBF23C",
"5 c #FBF23D",
"6 c #FBF23E",
"7 c #FBF33E",
"8 c #FBF344",
"9 c #FBF346",
"0 c #FBF347",
"q c #FBF34A",
"w c #FBF34B",
"e c #FBF34C",
"r c #FBF44E",
"t c #FBF44F",
"y c #FCF453",
"u c #FCF454",
"i c #FCF45B",
"p c #FCF55D",
"a c #FCF562",
"s c #FCF565",
"d c #FCF566",
"f c #FCF66F",
"g c #FCF670",
"h c #FCF672",
"j c #FCF677",
"k c #FCF679",
"l c #FCF781",
"z c #FDF788",
"x c #FDF88E",
"c c #FDF99D",
"v c #FDF99F",
"b c #FDF9A5",
"n c #FDF9A6",
"m c #FDF9A9",
"M c #FDF9AA",
"N c #FDFAAB",
"B c #FDFAAC",
"V c #FDFAAD",
"C c #FDFAB0",
"Z c #FDFAB2",
"A c #FEFBBA",
"S c #FEFBBE",
"D c #FEFBC7",
"F c #FEFCCC",
"G c #FEFCD0",
"H c #FEFCD1",
"J c #FEFCD7",
"K c #FEFCD8",
"L c #FEFDDB",
"P c #FEFDE3",
"I c #FEFDE5",
"U c #FFFDE7",
"Y c #FFFEEA",
"T c #FFFEEB",
"R c #FFFEEF",
"E c #FFFEF2",
"W c #FFFEF3",
"Q c #FFFEF4",
"! c #FFFEF6",
"~ c #FFFEF7",
"^ c #FFFFF9",
"/ c #FFFFFB",
"( c #FFFFFD",
") c #FFFFFE",
"_ c white",
"` c None",
/* pixels */
"``````````````````````````````````````````````````",
"``````````````````````````````````````````````````",
"``````````````````````````````````````````````````",
"``````````````````````````````````````````````````",
"``````````````````````````````````````````````````",
"```````````::`````````````````````````````````````",
"```````````::::````````````````````````::::::`````",
"```````````:::::```````````````````````::::::`````",
"````````````:::::::`````````````````::::::````````",
"````````````::::::::`````````````:::::::::````````",
"`````````````:::::::`````````````:::::::::````````",
"``````````````:::::::::```````:::::::::::`````````",
"``````````````::::::::::`:::`:::::::::::``````````",
"``````````````:::::::::::::::::::::::::```````````",
"``````````````::::::::::::::::::::::::````````````",
"``````````````::::::::::::::::::::::::````````````",
"````````````````::::::::::::4771::::::::::::::::``",
"````````````````::::::::::-4CHFa-::::::::::::::```",
"```````````````::::::::::;tkI_)g=::::::::::::::```",
"```::::::::::::::::1,::::-x()_^f=::::::::::::`````",
"````:::::::::::::-pAa*:-8ML__Hj0=:::::::::````````",
"`````::::::::::::=sJzy1qhR___Dipu1::::::::````````",
"``````::::::::::::28AG7c~(___/W~D6:::::::`````````",
"`````````::::::::::,SWBK_______Zk3::::::``````````",
"`````````::::::::::,NTY!__QUUUPd&::::::```````````",
"````````````::::::::9teC__Cerrr5::><:::```````````",
"`````````````:::::::;-*b__b*---:::@o%>:```````````",
"```````````````````:::-n_~v-::::::X ``````````````",
"```````````````````:::-mEhw::><```````````````````",
"```````````````````:::;lV8-:>$O```````````````````",
"```````````````````::::,,:::<+.```````````````````",
"```````````````````:::::::::>#````````````````````",
"```````````````````::::::::::`````````````````````",
"```````````````````:::::::::``````````````````````",
"```````````````````::::::::```````````````````````",
"```````````````````:::::::````````````````````````",
"```````````````````:::::``````````````````````````",
"```````````````````::::```````````````````````````",
"```````````````````:::````````````````````````````",
"```````````````````:``````````````````````````````",
"```````````````````:``````````````````````````````",
"``````````````````````````````````````````````````",
"``````````````````````````````````````````````````",
"``````````````````````````````````````````````````",
"``````````````````````````````````````````````````",
"``````````````````````````````````````````````````",
"``````````````````````````````````````````````````",
"``````````````````````````````````````````````````",
"``````````````````````````````````````````````````",
"``````````````````````````````````````````````````"
};
