/* XPM */
static char *result[] = {
/* columns rows colors chars-per-pixel */
"50 50 153 2 ",
"   c #653B3F",
".  c #6B3A3E",
"X  c #74373C",
"o  c #753B3C",
"O  c #65443F",
"+  c #6D423E",
"@  c #634A3F",
"#  c #75433C",
"$  c #744D3C",
"%  c #7C4C3A",
"&  c #7C513B",
"*  c #7E6C3F",
"=  c #3E3E46",
"-  c #403F46",
";  c #4C3D44",
":  c #553C43",
">  c #623A40",
",  c #3C4047",
"<  c #454145",
"1  c #4A4244",
"2  c #4E4F45",
"3  c #524443",
"4  c #594541",
"5  c #5B4841",
"6  c #684C40",
"7  c #84353A",
"8  c #8A3438",
"9  c #863E39",
"0  c #9D3234",
"q  c #9F3C34",
"w  c #B93D2F",
"e  c #AB2D32",
"r  c #A33134",
"t  c #AD3332",
"y  c #AD3A32",
"u  c #B23631",
"i  c #B23B32",
"p  c #814639",
"a  c #834B39",
"s  c #914A37",
"d  c #8D5437",
"f  c #855438",
"g  c #885638",
"h  c #925736",
"j  c #BD422E",
"k  c #B45F2F",
"l  c #BB5D2E",
"z  c #AD4531",
"x  c #A04934",
"c  c #AC4B31",
"v  c #B14232",
"b  c #B64C33",
"n  c #A65D32",
"m  c #A85F32",
"M  c #BE5832",
"N  c #897D3E",
"B  c #B7632F",
"V  c #B9632E",
"C  c #AF6E37",
"Z  c #C2452D",
"A  c #C54C2D",
"S  c #CA4D2C",
"D  c #C7562C",
"F  c #CF552B",
"G  c #DD5E27",
"H  c #D4542A",
"J  c #D45E2B",
"K  c #D95928",
"L  c #CA672B",
"P  c #C06D2F",
"I  c #CF682A",
"U  c #DF6027",
"Y  c #D5622B",
"T  c #DC6429",
"R  c #D56C29",
"E  c #C57033",
"W  c #CA7A34",
"Q  c #E36526",
"!  c #E96725",
"~  c #E46D26",
"^  c #EB6D25",
"/  c #E06628",
"(  c #F16F23",
")  c #E77125",
"_  c #EE7023",
"`  c #E0742A",
"'  c #F57422",
"]  c #F87722",
"[  c #F77A23",
"{  c #F97B23",
"}  c #837B40",
"|  c #BB9436",
" . c #ACA43B",
".. c #B5B03C",
"X. c #CE8634",
"o. c #D08733",
"O. c #D28E34",
"+. c #D39134",
"@. c #D79A34",
"#. c #D89B34",
"$. c #ED8529",
"%. c #E28F2E",
"&. c #E98A2B",
"*. c #F68324",
"=. c #FA8424",
"-. c #F68A26",
";. c #F98A25",
":. c #F89326",
">. c #FA9A27",
",. c #F89C28",
"<. c #E39D30",
"1. c #DBA734",
"2. c #DEAE35",
"3. c #D5B034",
"4. c #D2BE38",
"5. c #F6A52B",
"6. c #F9A229",
"7. c #F9AB2B",
"8. c #EAB62F",
"9. c #F5B12D",
"0. c #FAB32C",
"q. c #F6BF2F",
"w. c #FABB2D",
"e. c #E0AF34",
"r. c #E2B635",
"t. c #E5B834",
"y. c #FAC22E",
"u. c #FAC92F",
"i. c #E7C135",
"p. c #E9C435",
"a. c #EDCD35",
"s. c #F3CD33",
"d. c #F9CD31",
"f. c #EED435",
"g. c #E4D838",
"h. c #F4D234",
"j. c #FAD431",
"k. c #F3DB35",
"l. c #FBDD32",
"z. c #F6E536",
"x. c #FBE333",
"c. c #F7E936",
"v. c #FBED35",
"b. c #FBF236",
"n. c #FCF545",
"m. c #FCF64D",
"M. c #FCF560",
"N. c #FEFCD0",
"B. c #FEFDDD",
"V. c #FFFDE7",
"C. c #FFFEF3",
"Z. c #FFFFFE",
"A. c None",
/* pixels */
"A.A.A.A.A.A.A.A.A.A.A.A.A.A.A.A.A.A.A.A.A.A.A.A.A.A.A.A.A.A.A.A.A.A.A.A.A.A.A.A.A.A.A.A.A.A.A.A.A.A.",
"A.A.A.A.A.A.A.A.A.A.A.A.A.A.A.A.A.A.A.A.A.A.A.A.A.A.A.A.A.A.A.A.A.A.A.A.A.A.A.A.A.A.A.A.A.A.A.A.A.A.",
"A.A.A.A.A.A.A.A.A.A.A.A.A.A.A.A.A.A.A.A.A.A.A.A.A.A.A.A.A.A.A.A.A.A.A.A.A.A.A.A.A.A.A.A.A.A.A.A.A.A.",
"A.A.A.A.A.A.A.A.A.A.A.b.A.A.A.A.A.A.A.A.A.A.A.A.A.A.A.A.A.A.A.A.A.A.A.A.A.A.A.A.A.A.A.A.A.A.A.A.A.A.",
"A.A.A.A.A.A.A.A.A.A.A.b.b.A.A.A.A.A.A.A.A.A.A.A.A.A.A.A.A.A.A.A.A.A.A.A.A.A.A.A.A.A.A.A.A.A.A.A.A.A.",
"A.A.A.A.A.A.A.A.A.b.b.b.b.b.b.b.A.A.A.A.A.A.A.A.A.A.A.A.A.A.A.A.A.A.A.A.A.A.A.A.A.A.b.b.b.b.b.A.A.A.",
"A.A.A.A.A.A.A.A.b.b.b.A.A.A.A.A.A.A.A.A.A.A.A.A.A.A.A.A.A.A.A.A.A.A.A.A.A.A.A.A.A.A.A.A.A.A.A.b.A.A.",
"A.A.A.A.A.A.A.A.b.b.b.A.A.A.A.A.A.A.A.A.A.A.A.A.A.A.A.A.A.A.A.A.A.A.A.A.A.A.A.A.A.A.A.A.A.A.A.b.A.A.",
"A.A.A.A.A.A.A.A.A.A.A.A.A.A.A.A.A.A.A.A.A.A.A.A.A.A.A.A.A.A.A.A.A.A.A.A.A.A.A.A.A.A.A.A.A.A.A.b.A.A.",
"A.A.A.A.A.A.A.A.A.A.A.A.A.A.e W b.b.b.v.E A.A.A.- - < = - A.A.A.A.A.A.A.A.A.A.A.A.A.A.A.A.A.A.A.A.A.",
"A.A.A.A.A.A.A.A.A.A.A.A.A.A.b O.b.b.b.b.X.b A.; - - - - - - A.A.A.A.A.A.A.A.A.A.A.A.A.A.A.A.A.A.A.A.",
"A.A.A.A.A.A.A.A.A.A.A.A.A.v p.c.b.b.b.b.c.i.i . = - - - - - A.A.A.A.A.A.A.A.A.A.A.A.A.A.A.A.A.A.A.A.",
"A.A.A.A.A.A.A.A.A.A.A.A.+.@.c.b.b.y.y.b.b.k.J a = - - = - = A.A.A.A.K ] ] H A.A.A.A.A.A.A.A.A.A.A.A.",
"A.A.A.A.A.A.A.A.A.A.A.A.c.b.b.b.x.:.6.v.v.j.{ h = - - = - - A.A.A.u T *.*.Y v A.A.A.A.A.A.A.A.A.A.A.",
"A.A.A.A.A.A.A.A.A.A.A.e #.b.b.u.-.d.x.b.7.*.] d = = < = = = - 8 Z ! 9.x.l.k.a.-.K t A.A.A.A.A.A.A.A.",
"A.A.A.A.A.A.A.A.A.A.A.7 C e.c.j.5.x.b.b.,.[ 6.| } + # g N * . z Y 5.j.b.b.b.x.;.Q S w A.A.A.A.A.A.A.",
"A.A.A.A.A.A.A.A.A.A.A.= o v k.b.b.v.v.v.6.;.v.b.k.b H =.x.r.i / >.v.b.b.b.v.x.*.] ' j t A.A.A.A.A.A.",
"b.b.b.A.A.A.A.A.A.A.A.- ; 6 g.b.b.7.:.:.y.l.b.b.v.a.a.l.v.z.p.h.l.b.b.b.b.y.:.[ ] ' ^ Q A.A.A.A.A.A.",
"b.b.b.A.A.A.A.A.A.A.A.- = 2 ..4.t.*.( Q <.i.u.x.b.b.b.b.b.b.b.b.v.j.x.v.j.6.] :.-.] ] _ A.A.A.A.A.A.",
"b.b.A.A.A.A.A.A.A.A.A.A.A.A.1 > y Q Q u y j ' w.b.A.A.A.A.A.b.b.j.[ y.z.*.] *.l.y.] ] Q t A.A.A.A.A.",
"b.b.A.A.A.A.A.A.A.A.A.A.A.A.= ;   % $   > p _ w.n.B.Z.Z.A.A.b.b.j.[ ;.>.] ] [ >.;.] ] ' G A.A.A.A.A.",
"b.b.A.A.A.A.A.A.A.A.A.A.A.A.- - = = = = = 5 L t.m.V.Z.Z.A.A.b.x.q.[ ] [ ;.*.] ;.*.' ^ ^ ] A.A.A.A.A.",
"b.b.A.A.A.A.A.A.A.A.A.A.A.- - - = - - - - - ;  .m.V.Z.C.M.b.b.6.[ ] ' ;.z.0.[ l.y.' Z u A.A.A.A.A.A.",
"b.b.b.A.A.A.A.A.A.A.A.A.- - - = = - = - f n n 3.n.N.A.A.n.j.7.;.] ] G J 5.:.{ 7.&.S 9 . A.A.A.A.A.A.",
"b.b.b.A.A.A.A.A.A.A.A.- - - - - - 1 ; : P =.=.y.b.A.A.A.b.d.] ( _ ` A j ( ' ^ / D 0 : , A.A.A.A.A.A.",
"A.b.b.b.b.b.A.A.A.A.A.- - - - - ; 7 0 0 1.v.x.c.b.A.A.b.b.d.] S r 4 k ' ] K t 6 3 ; A.A.A.A.A.A.A.A.",
"A.A.b.b.b.b.A.A.A.A.A.A.- - - = - c Y o.s.b.b.b.b.b.b.v.2.%.' x > - & m n s X ; = = A.A.A.A.A.A.A.A.",
"A.A.A.A.A.A.A.A.A.A.A.A.A.- - < 3 I >.b.b.b.v.b.b.b.b.z.M Z ) $ = = < = - - - - < A.A.A.A.A.A.A.A.A.",
"A.A.A.A.A.A.A.A.A.A.A.A.A.A.= % R _ >.v.b.b.b.b.b.b.b.c.$.l @ 1 = - - - A.A.A.A.A.A.A.A.A.A.A.A.A.A.",
"A.A.A.A.A.A.A.A.A.A.A.A.A.A.= g { :.w.b.b.b.b.b.b.b.x.y.;.V - - - - - - A.A.A.A.A.A.A.A.A.A.A.A.A.A.",
"A.A.A.A.A.A.A.A.A.A.A.A.A.A.- g [ j.v.b.b.b.v.b.v.b.w.] ] V - - - A.A.A.A.A.A.A.A.A.A.A.A.A.A.A.A.A.",
"A.A.A.A.A.A.A.A.A.A.A.A.A.A.< > A $.0.b.b.x.6.>.>.,.` j a @ - - - A.A.A.A.A.A.A.A.A.A.A.A.A.A.A.A.A.",
"A.A.A.A.A.A.A.A.A.A.A.A.A.A.= > t ! -.i.h.y.^ Y R ' H r : = = - - A.A.A.A.A.A.A.A.A.A.A.A.A.A.A.A.A.",
"A.A.A.A.A.A.A.A.A.A.A.A.A.A.A.A.A.] / i / ^ i o < A.A.A.A.A.A.A.A.A.A.A.A.A.A.A.A.A.A.A.A.A.A.A.A.A.",
"A.A.A.A.A.A.A.A.A.A.A.A.A.A.A.A.A.g a > % g A.A.A.A.A.A.A.A.A.A.A.A.A.A.A.A.A.A.A.A.A.A.A.A.A.A.A.A.",
"A.A.A.A.A.A.A.A.A.A.A.A.A.A.A.A.A.= - - = = A.A.A.A.A.A.A.A.A.A.A.A.A.A.A.A.A.A.A.A.A.A.A.A.A.A.A.A.",
"A.A.A.A.A.A.A.A.A.A.A.A.A.A.A.A.A.A.A.A.A.A.A.A.A.A.A.A.A.A.A.A.A.A.A.A.A.A.A.A.A.A.A.A.A.A.A.A.A.A.",
"A.A.A.A.A.A.A.A.A.A.A.A.A.A.A.A.A.A.A.A.A.A.A.A.A.A.A.A.A.A.A.A.A.A.A.A.A.A.A.A.A.A.A.A.A.A.A.A.A.A.",
"A.A.A.A.A.A.A.A.A.A.A.A.A.A.A.A.A.A.A.A.A.A.A.A.A.A.A.A.A.A.A.A.A.A.A.A.A.A.A.A.A.A.A.A.A.A.A.A.A.A.",
"A.A.A.A.A.A.A.A.A.b.b.b.A.A.A.A.A.b.b.b.A.A.A.A.A.A.A.A.A.A.A.A.A.A.A.A.A.A.A.A.A.A.A.A.A.A.A.A.A.A.",
"A.A.A.A.A.A.A.A.A.A.b.b.b.A.A.A.A.b.b.b.A.A.A.A.A.A.A.A.A.A.A.A.A.A.A.A.A.A.A.A.A.A.A.A.A.A.A.A.A.A.",
"A.A.A.A.A.A.A.A.A.A.A.b.b.b.b.b.b.b.b.A.A.A.A.A.A.A.A.A.A.A.A.A.A.A.A.A.A.A.A.A.A.A.A.A.A.A.A.A.A.A.",
"A.A.A.A.A.A.A.A.A.A.A.A.A.A.b.b.b.A.A.A.A.A.A.A.A.A.A.A.A.A.A.A.A.A.A.A.A.A.A.A.A.A.A.A.A.A.A.A.A.A.",
"A.A.A.A.A.A.A.A.A.A.A.A.A.A.b.b.b.A.A.A.A.A.A.A.A.A.A.A.A.A.A.A.A.A.A.A.A.A.A.A.A.A.A.A.A.A.A.A.A.A.",
"A.A.A.A.A.A.A.A.A.A.A.A.A.A.A.A.A.A.A.A.A.A.A.A.A.A.A.A.A.A.A.A.A.A.A.A.A.A.A.A.A.A.A.A.A.A.A.A.A.A.",
"A.A.A.A.A.A.A.A.A.A.A.A.A.A.A.A.A.A.A.A.A.A.A.A.A.A.A.A.A.A.A.A.A.A.A.A.A.A.A.A.A.A.A.A.A.A.A.A.A.A.",
"A.A.A.A.A.A.A.A.A.A.A.A.A.A.A.A.A.A.A.A.A.A.A.A.A.A.A.A.A.A.A.A.A.A.A.A.A.A.A.A.A.A.A.A.A.A.A.A.A.A.",
"A.A.A.A.A.A.A.A.A.A.A.A.A.A.A.A.A.A.A.A.A.A.A.A.A.A.A.A.A.A.A.A.A.A.A.A.A.A.A.A.A.A.A.A.A.A.A.A.A.A.",
"A.A.A.A.A.A.A.A.A.A.A.A.A.A.A.A.A.A.A.A.A.A.A.A.A.A.A.A.A.A.A.A.A.A.A.A.A.A.A.A.A.A.A.A.A.A.A.A.A.A.",
"A.A.A.A.A.A.A.A.A.A.A.A.A.A.A.A.A.A.A.A.A.A.A.A.A.A.A.A.A.A.A.A.A.A.A.A.A.A.A.A.A.A.A.A.A.A.A.A.A.A."
};
