/* XPM */
static char *result[] = {
/* columns rows colors chars-per-pixel */
"50 50 108 2 ",
"   c #62373F",
".  c #63393F",
"X  c #6A3A3E",
"o  c #644A3F",
"O  c #6B4B3D",
"+  c #754B3D",
"@  c #7F4D3A",
"#  c #7C513A",
"$  c #74593D",
"%  c #3E3E46",
"&  c #403F46",
"*  c #4B3E44",
"=  c #434046",
"-  c #4C4344",
";  c #4B4945",
":  c #514443",
">  c #584641",
",  c #5D4840",
"<  c #525045",
"1  c #604940",
"2  c #6C6942",
"3  c #767341",
"4  c #7D7B41",
"5  c #80353A",
"6  c #BA3E2F",
"7  c #AA2E32",
"8  c #AC3232",
"9  c #B13631",
"0  c #B43C31",
"q  c #81483A",
"w  c #8F5737",
"e  c #815339",
"r  c #8F523A",
"t  c #935B36",
"y  c #BD432F",
"u  c #AE5A33",
"i  c #BB5232",
"p  c #BE5C33",
"a  c #C0442E",
"s  c #C5492D",
"d  c #CA4D2C",
"f  c #CE512B",
"g  c #D4552A",
"h  c #D55A2A",
"j  c #DB5D28",
"k  c #C4672C",
"l  c #CC672A",
"z  c #CB682B",
"x  c #DA6D28",
"c  c #D67129",
"v  c #DB792D",
"b  c #C77433",
"n  c #CB7B33",
"m  c #E46426",
"M  c #EA6725",
"N  c #EC6C24",
"B  c #E16628",
"V  c #E36D28",
"C  c #E77125",
"Z  c #EB7225",
"A  c #EC7A27",
"S  c #E97B28",
"D  c #F67522",
"F  c #F87722",
"G  c #F77B23",
"H  c #FA7D23",
"J  c #807B40",
"K  c #92843D",
"L  c #9C843B",
"P  c #928A3F",
"I  c #A78D3B",
"U  c #CF8934",
"Y  c #D18733",
"T  c #F58426",
"R  c #F98324",
"E  c #F38C27",
"W  c #F88B25",
"Q  c #EE982B",
"!  c #F99327",
"~  c #FB9A27",
"^  c #F59C29",
"/  c #F89B28",
"(  c #D1B738",
")  c #F9A329",
"_  c #F9AF2B",
"`  c #F4B52E",
"'  c #F9B52C",
"]  c #F9BC2E",
"[  c #E5B433",
"{  c #E3B935",
"}  c #D3CC39",
"|  c #D7D139",
" . c #F9C32E",
".. c #FAC92F",
"X. c #E9C235",
"o. c #F3CE32",
"O. c #FACB30",
"+. c #EFD636",
"@. c #EDDE37",
"#. c #FBD531",
"$. c #F2DA35",
"%. c #FBDB32",
"&. c #F6E135",
"*. c #FBE233",
"=. c #F7EB36",
"-. c #FAED36",
";. c #FBF236",
":. c None",
/* pixels */
":.:.:.:.:.:.:.:.:.:.:.:.:.:.:.:.:.:.:.:.:.:.:.:.:.:.:.:.:.:.:.:.:.:.:.:.:.:.:.:.:.:.:.:.:.:.:.:.:.:.",
":.:.:.:.:.:.:.:.:.:.:.:.:.:.:.:.:.:.:.:.:.:.:.:.:.:.:.:.:.:.:.:.:.:.:.:.:.:.:.:.:.:.:.:.:.:.:.:.:.:.",
":.:.:.:.:.:.:.:.:.:.:.:.:.:.:.:.:.:.:.:.:.:.:.:.:.:.:.:.:.:.:.:.:.:.:.:.:.:.:.:.:.:.:.:.:.:.:.:.:.:.",
":.:.:.:.:.:.:.:.:.:.:.:.:.:.:.:.:.:.:.:.:.:.:.:.:.:.:.:.:.:.:.:.:.:.:.:.:.:.:.:.:.:.:.:.:.:.:.:.:.:.",
":.:.:.:.:.:.:.:.:.:.:.:.:.:.:.:.:.:.:.:.:.:.:.:.:.:.:.:.:.:.:.:.:.:.:.:.:.:.:.:.:.:.:.:.:.:.:.:.:.:.",
":.:.:.:.:.:.:.:.:.:.:.:.:.:.:.:.:.:.:.:.:.:.:.:.:.:.:.:.:.:.:.:.:.:.:.:.:.:.:.:.:.:.:.:.:.:.:.:.:.:.",
":.:.:.:.:.:.:.:.:.:.:.:.:.:.:.:.:.:.:.:.:.:.:.:.:.:.:.:.:.:.:.:.:.:.:.:.:.:.:.:.:.:.:.:.:.:.:.:.:.:.",
":.:.:.:.:.:.:.:.:.:.:.:.:.:.:.:.:.:.:.:.:.:.:.:.:.:.:.:.:.:.:.:.:.:.:.:.:.:.:.:.:.:.:.:.:.:.:.:.:.:.",
":.:.:.:.:.;./ D D :.:.:.:.:.:.:.:.:.:.:.:.:.:.:.:.:.:.:.:.:.:.:.:.:.:.:.:.:.:.:.:.:.D / ;.:.:.:.:.:.",
":.:.:.:.:.) W :.:.:.:.:.:.:.8 8 9 m D F s :.:.:.& & :.:.:.:.:.:.:.:.:.:.:.:.:.:.:.:.:.:.:.:.:.:.:.:.",
":.:.:.:.:.D :.:.:.:.:.:.:.:.8 0 i S R N d 0 :.* & % & :.:.:.:.:.:.:.:.:.:.:.:.:.:.:.:.:.:.:.:.:.:.:.",
":.:.:.:.:.:.:.:.:.:.:.:.:.7 7 b &.=.[ 0 j m 9 X % = & :.:.:.:.:.:.:.:.:.:.:.:.:.:.:.:.:.:.:.:.:.:.:.",
":.:.:.:.:.:.:.:.:.:.:.:.s h Y { ;...Q h N D h @ % & & :.:.:.:.:.:.:.:.:.:.:.:.:.:.:.:.:.:.:.:.:.:.:.",
":.:.:.:.:.:.:.:.:.:.:.9 h R *.;.*.W D N C C N w % & & :.:.:.:.:.:.:.:.:.:.:.:.:.:.:.:.:.:.:.:.:.:.:.",
":.:.:.:.:.:.:.:.:.:.:.N D R *.O.W F z , , , , > :.:.:.:.:.:.:.:.:.:.:.:.D ' ;.;. .F D m 8 :.:.:.:.:.",
":.:.:.:.:.:.:.:.:.:.:.F D G ' ) F F k = % % % :.:.:.:.:.:.:.:.:.:.:.:.:.) O.;.;. .D F m 8 :.:.:.:.:.",
":.:.:.:.:.:.:.:.:.:.:.D D F F F F F k - = = & :.:.:.:.:.= % & :.:.:.D T &.-.-.-.] F F B 9 :.:.:.:.:.",
":.:.:.:.:.:.:.:.:.:.:.y h F F F F F N l :.:.:.:.:.= & & % % % % % :.y y p v ! ! W D F D m :.:.:.:.:.",
":.:.:.:.:.:.:.:.:.:.:.7 h D F N B E ^ ~ :.:.:.:.:.& & = 2 3 3 $ + :.:.8 7 g D m m F D F F :.:.:.:.:.",
":.:.:.:.:.:.:.:.:.:.:.:.F F F j 9 X.;.-.:.:.:.:.:.= % ; } -.=.Q D :.:.:.:.:.:.8 d F D F F :.:.:.:.:.",
":.:.;.:.:.:.:.:.:.:.:.:.:.:.:.M B o.;.;.:.:.:.:.:.& % ; | ;.;.#.' G :.:.:.:.:.:.j D F M s :.:.:.:.:.",
":.:.;.:.:.:.:.:.:.:.:.:.:.:.:.:.c o.;.;.:.:.:.:.:.% < 2 ( $.;.;.#.G B :.:.:.:.:.:.D F m 8 :.:.:.:.:.",
":.:.:.:.:.:.:.:.:.:.:.:.:.= = = - :.:.:.:.:.:.:.:.:.:.@.p n ;.;.#.G d 8 :.:.:.:.:.F F m 8 :.:.:.:.:.",
":.:.:.:.:.:.:.:.:.:.:.:.:.& & & = :.:.:.:.:.:.:.:.:.:.P + r U $.#.G m h :.:.:.:.:.F F N :.:.:.:.:.:.",
":.:.:.:.:.:.:.:.:.:.:.:.& & & & & :.:.:.:.:.:.:.:.:.% % %   8 [ O.Z D F :.:.:.:.:.F D D :.:.:.:.:.:.",
":.:.:.:.:.:.:.:.& & = & & & & & & :.:.:.:.:.:.:.:.& & & %   8 B Z 0 j F :.:.:.:.:.:.:.:.:.:.:.:.:.:.",
":.:.:.:.:.:.:.:.& & & & & = & & & :.:.:.:.:.:.:.:.% 1 t K I Y A N f M Z :.:.:.:.:.:.:.:.:.:.:.:.:.:.",
":.:.:.:.:.:.:.:.& & & = :.:.:.:.:.9 s D s 8 :.:.:.% w R #.;.-.) G F F x : & = :.:.:.& & & & & :.:.:.",
":.:.:.:.:.:.:.:.:.:.:.:.:.:.% X 9 j N D s 8 :.:.:.& > :.W _ ;.*...F F x - = & :.:.:.= = & & & :.:.:.",
":.:.:.:.:.:.:.:.:.:.:.:.:.:.% X 9 m R / i X :.:.:.= :.:.D / -.#.' F F x : % & :.:.:.& % & & & :.:.:.",
":.:.:.:.:.:.:.:.:.:.:.:.:.:.& X 9 B / -.4 % & & & :.:.:.:.:.:.D F D D x : % & & = :.:.:.:.:.:.:.:.:.",
":.:.:.:.:.:.:.:.:.:.:.:.:.:.& q B ' %.;.4 % % % % % :.:.:.:.:.:.:.:.:.:.:.= & :.:.:.:.:.:.:.:.:.:.:.",
":.:.:.:.:.:.:.:.:.:.:.:.:.:.& # H %.;.;.L O O O O O e :.:.:.:.:.:.:.:.:.:.:.& :.:.:.:.:.:.:.:.:.:.:.",
":.:.:.:.:.:.:.:.:.:.:.:.:.:.& = :.:.:.;.^ Z Z D D Z F D :.:.:.:.:.:.:.:.:.:.:.:.:.:.:.:.:.:.:.:.:.:.",
":.:.:.:.:.:.:.:.:.:.:.:.:.:.:.:.:.:.:.n S D D m d D D F :.:.:.:.:.:.:.:.:.:.:.:.:.:.:.:.:.:.:.:.:.:.",
":.:.:.:.:.:.:.:.:.:.:.:.:.:.:.:.:.:.:.7 j N D g y Z F D :.:.:.:.:.:.:.:.:.:.:.:.:.:.:.:.:.:.:.:.:.:.",
":.:.:.:.:.:.:.:.:.:.:.:.:.:.:.:.:.:.:.:.9 y D F D :.:.:.:.:.:.:.:.:.:.:.:.:.:.:.:.:.:.:.:.:.:.:.:.:.",
":.:.:.:.:.:.:.:.:.:.:.:.:.:.:.:.:.:.:.:.:.0 D D :.:.:.:.:.:.:.:.:.:.:.:.:.:.:.:.:.:.:.:.:.:.:.:.:.:.",
":.:.:.:.:.:.:.:.:.:.:.:.:.:.:.:.:.:.:.:.:.:.:.:.:.:.:.:.:.:.:.:.:.:.:.:.:.:.:.:.:.:.:.:.:.:.:.:.:.:.",
":.:.:.;...F :.:.:.:.:.:.:.:.:.:.:.:.:.:.:.:.:.:.:.:.:.:.:.:.:.:.:.:.:.:.:.:.:.:.:.:.:.:.:.:.:.:.:.:.",
":.:.:.:.O.F :.:.:.:.:.:.:.:.:.:.:.:.:.:.:.:.:.:.:.:.:.:.:.:.:.:.:.:.:.:.:.:.:.:.:.:.:.:.:.:.:.:.:.:.",
":.:.:.:.:.:.:.:.:.:.:.:.:.:.:.:.:.:.:.:.:.:.:.:.:.:.:.:.:.:.:.:.:.:.:.:.:.:.:.:.:.:.:.:.:.:.:.:.:.:.",
":.:.:.:.:.:.:.:.:.:.:.:.:.:.:.:.:.:.:.:.:.:.:.:.:.:.:.:.:.:.:.:.:.:.:.:.:.:.:.:.:.:.:.:.:.:.:.:.:.:.",
":.:.:.:.:.:.:.:.:.:.:.:.:.:.:.:.:.:.:.:.:.:.:.:.:.:.:.:.:.:.:.:.:.:.:.:.:.:.:.:.:.:.:.:.:.:.:.:.:.:.",
":.:.:.:.:.:.:.:.:.:.:.:.:.:.:.:.:.:.:.:.:.:.:.:.:.:.:.:.:.:.:.:.:.:.:.:.:.:.:.:.:.:.:.:.:.:.:.:.:.:.",
":.:.:.:.:.:.:.:.:.:.:.:.:.:.:.:.:.:.:.:.:.:.:.:.:.:.:.:.:.:.:.:.:.:.:.:.:.:.:.:.:.:.:.:.:.:.:.:.:.:.",
":.:.:.:.:.:.:.:.:.:.:.:.:.:.:.:.:.:.:.:.:.:.:.:.:.:.:.:.:.:.:.:.:.:.:.:.:.:.:.:.:.:.:.:.:.:.:.:.:.:.",
":.:.:.:.:.:.:.:.:.:.:.:.:.:.:.:.:.:.:.:.:.:.:.:.:.:.:.:.:.:.:.:.:.:.:.:.:.:.:.:.:.:.:.:.:.:.:.:.:.:.",
":.:.:.:.:.:.:.:.:.:.:.:.:.:.:.:.:.:.:.:.:.:.:.:.:.:.:.:.:.:.:.:.:.:.:.:.:.:.:.:.:.:.:.:.:.:.:.:.:.:.",
":.:.:.:.:.:.:.:.:.:.:.:.:.:.:.:.:.:.:.:.:.:.:.:.:.:.:.:.:.:.:.:.:.:.:.:.:.:.:.:.:.:.:.:.:.:.:.:.:.:."
};
