/* XPM */
static char *result[] = {
/* columns rows colors chars-per-pixel */
"50 50 141 2 ",
"   c #67423F",
".  c #744F3C",
"X  c #754F3C",
"o  c #3D3E47",
"O  c #3E3E46",
"+  c #3F3E46",
"@  c #3E3F46",
"#  c #3F3F46",
"$  c #403F46",
"%  c #413F46",
"&  c #433F46",
"*  c #5A3B41",
"=  c #4D4344",
"-  c #504443",
";  c #514D44",
":  c #514F45",
">  c #5E4840",
",  c #614940",
"<  c #B93E2F",
"1  c #A82832",
"2  c #AA2F32",
"3  c #A73133",
"4  c #AA3132",
"5  c #AB3132",
"6  c #AA3033",
"7  c #AD3131",
"8  c #AC3232",
"9  c #AD3432",
"0  c #AE3432",
"q  c #AE3632",
"w  c #B13631",
"e  c #B53A30",
"r  c #B63B30",
"t  c #B73B30",
"y  c #B73C30",
"u  c #895538",
"i  c #9B5A34",
"p  c #BD5832",
"a  c #BC5933",
"s  c #C2482D",
"d  c #C84A2C",
"f  c #C94C2C",
"g  c #D95828",
"h  c #DA5A28",
"j  c #CF6A2A",
"k  c #D8632A",
"l  c #DA6D28",
"z  c #DA7228",
"x  c #C36A33",
"c  c #CD7B33",
"v  c #E16227",
"b  c #E56225",
"n  c #E56526",
"m  c #E76726",
"M  c #E66D27",
"N  c #E96925",
"B  c #EC6C24",
"V  c #F06C23",
"C  c #E47026",
"Z  c #E97024",
"A  c #ED7324",
"S  c #F07023",
"D  c #F17023",
"F  c #F37223",
"G  c #F47222",
"H  c #F27423",
"J  c #F37523",
"K  c #F57422",
"L  c #F77422",
"P  c #F77522",
"I  c #F77622",
"U  c #F77722",
"Y  c #F87521",
"T  c #F87622",
"R  c #F87722",
"E  c #F97722",
"W  c #F77822",
"Q  c #F77922",
"!  c #F77923",
"~  c #F77F23",
"^  c #F47924",
"/  c #F77F24",
"(  c #F87822",
")  c #D79E35",
"_  c #DD9832",
"`  c #E6822A",
"'  c #E2852C",
"]  c #F78024",
"[  c #F78124",
"{  c #F78324",
"}  c #F78524",
"|  c #F88925",
" . c #F98925",
".. c #F98C25",
"X. c #FA8C25",
"o. c #E8922C",
"O. c #F99026",
"+. c #F99226",
"@. c #F99B28",
"#. c #DDA935",
"$. c #DEAA34",
"%. c #F9A62A",
"&. c #F9A72A",
"*. c #F5AB2C",
"=. c #F9AE2B",
"-. c #FAAF2B",
";. c #F9B32C",
":. c #F9B52C",
">. c #FAB42C",
",. c #F4BD2F",
"<. c #E3A832",
"1. c #E3B935",
"2. c #DEC435",
"3. c #DFDC39",
"4. c #F9C12E",
"5. c #F9C22E",
"6. c #F9C32E",
"7. c #FAC22E",
"8. c #FAC32E",
"9. c #FAC52F",
"0. c #FACA2F",
"q. c #F8D031",
"w. c #FAD030",
"e. c #F9D331",
"r. c #FBD531",
"t. c #FADC32",
"y. c #F6E636",
"u. c #FBE734",
"i. c #FBE934",
"p. c #FBE935",
"a. c #FBEB35",
"s. c #FCE834",
"d. c #FBEF35",
"f. c #F9EE36",
"g. c #FBF236",
"h. c #FBF336",
"j. c #FBF436",
"k. c #FBF536",
"l. c #FBF637",
"z. c #FDF736",
"x. c None",
/* pixels */
"x.x.x.x.x.x.x.x.x.x.x.x.x.x.x.x.x.x.x.x.x.x.x.x.x.x.x.x.x.x.x.x.x.x.x.x.x.x.x.x.x.x.x.x.x.x.x.x.x.x.",
"x.x.x.x.x.x.x.x.x.x.x.x.x.x.x.x.x.x.x.x.x.x.x.x.x.x.x.x.x.x.x.x.x.x.x.x.x.x.x.x.x.x.x.x.x.x.x.x.x.x.",
"x.x.x.x.x.x.x.x.x.x.x.x.x.x.x.x.x.x.x.x.x.x.x.x.x.x.x.x.x.x.x.x.x.x.x.x.x.x.x.x.x.x.x.x.x.x.x.x.x.x.",
"x.x.x.x.x.x.x.x.x.x.x.x.x.x.x.x.x.x.x.x.x.x.x.x.x.x.x.x.x.x.x.x.x.x.x.x.x.x.x.x.x.x.x.x.x.x.x.x.x.x.",
"x.x.x.x.x.x.x.x.x.x.x.x.x.x.x.x.x.x.x.x.x.x.x.x.x.x.x.x.x.x.x.x.x.x.x.x.x.x.x.x.x.x.x.x.x.x.x.x.x.x.",
"x.x.x.x.x.x.x.x.x.x.x.x.x.x.x.x.x.x.x.x.x.x.x.x.x.x.x.x.x.x.x.x.x.x.x.x.x.x.x.x.x.x.x.x.x.x.x.x.x.x.",
"x.x.x.x.x.x.x.x.x.x.x.x.x.x.x.x.x.x.x.x.x.x.x.x.$ $ $ $ x.x.x.x.x.x.x.x.x.x.x.x.x.x.x.x.x.x.x.x.x.x.",
"x.x.x.x.x.x.x.x.x.x.x.x.x.x.x.x.x.x.x.x.x.x.x.$ $ $ $ $ x.x.x.x.x.x.x.x.x.x.x.x.x.x.x.x.x.x.x.x.x.x.",
"x.x.x.x.x.x.x.x.x.x.x.x.x.8 4 f I I I x.x.x.$ $ $ $ $ $ x.x.x.x.x.x.x.x.x.x.x.x.x.x.x.x.x.x.x.x.x.x.",
"x.x.x.x.x.x.x.x.x.x.x.6 d h g ` 7.6.;.Q x.x.$ $ $ $ $ x.x.x.x.x.x.x.x.x.x.x.x.x.x.x.x.x.x.x.x.x.x.x.",
"x.x.x.x.x.x.x.x.x.x.x.r k X. .>.j.l.w.Q x.x.$ $ $ $ x.x.x.x.x.x.x.x.x.x.x.x.x.x.x.x.x.x.x.x.x.x.x.x.",
"x.x.x.x.x.x.x.x.x.x.x.V *.i.u.a.g.x.x.x.x.x.x.x.x.x.x.x.x.x.x.x.x.x.x.x.x.x.x.x.x.x.x.x.x.x.x.x.x.x.",
"x.x.x.x.x.x.x.x.x.x.x.:.0.x.h.h.x.x.x.x.x.x.x.x.x.x.x.x.x.x.x.x.x.x.x.x.x.x.x.x.x.I P x.x.x.x.x.x.x.",
"x.x.x.x.x.x.x.x.x.x.x.p.x.x.x.x.x.+ $ $ x.x.x.x.x.x.x.x.x.x.x.x.x.x.x.x.x.x.x.x.x.I ~ [ x.x.x.x.x.x.",
"x.x.x.x.x.x.x.x.x.x.x.| | x.x.x.x.$ $ $ x.x.x.x.x.x.x.x.x.x.x.x.x.x.x.x.x.x.x.x.x.x.t.9.Q x.x.x.x.x.",
"x.x.x.x.x.x.x.x.x.x.x.L x.x.x.x.x.x.$ $ x.x.x.x.x.x.x.x.x.x.x.x.x.x.x.x.x.x.x.x.x.x.x.5.W x.x.x.x.x.",
"x.x.x.x.x.x.x.x.x.x.x.x.x.x.x.x.x.x.x.x.x.x.x.x.x.x.x.$ $ $ $ $ $ x.x.x.x.x.x.x.x.x.x.x.I x.x.x.x.x.",
"x.x.x.x.x.x.x.x.x.x.x.x.x.x.x.x.x.x.x.x.x.x.x.x.x.x.x.$ # @ o o o x.x.x.x.x.x.x.x.x.x.x.R x.x.x.x.x.",
"x.x.x.x.x.x.x.x.x.x.x.x.x.x.x.x.x.x.x.x.x.x.x.x.x.x.x.& *   . X . x.x.x.x.x.x.x.x.x.x.x.v x.x.x.x.x.",
"x.x.x.x.x.x.x.x.x.x.x.x.x.x.x.x.x.x.x.x.x.x.x.x.x.x.x.x.3 s H J J x.x.x.x.x.x.x.x.x.x.x.0 x.x.x.x.x.",
"x.x.x.x.x.x.x.x.x.x.x.x.x.$ $ $ $ x.x.x.x.x.x.x.x.x.x.x.x.x.x.I I R 8.k.x.x.x.x.x.x.x.x.x.x.x.x.x.x.",
"x.x.x.x.x.x.x.x.x.x.x.x.$ $ $ $ $ x.x.x.x.x.x.x.x.x.x.x.x.x.x.I F N ,.k.x.x.x.x.x.x.x.x.x.x.x.x.x.x.",
"x.x.x.x.x.x.x.x.x.x.x.$ $ $ x.x.x.x.x.x.x.x.x.x.x.$ $ x.x.x.x.x.x.w $.z.x.x.x.x.x.x.x.x.x.x.x.x.x.x.",
"x.x.x.x.x.x.x.x.x.x.x.$ $ x.x.x.x.x.x.x.x.x.x.x.x.$ $ $ x.x.x.x.x.x.o.=.x.x.x.x.x.x.x.x.x.x.x.x.x.x.",
"x.x.x.x.x.x.x.x.x.x.x.$ x.x.x.x.x.x.x.x.x.x.x.x.x.$ $ $ x.x.x.x.x.x.Y L x.x.x.x.x.x.x.x.x.x.x.x.x.x.",
"x.x.x.$ $ $ x.x.x.x.x.x.x.x.x.x.x.x.x.x.x.x.x.x.x.$ $ $ x.x.x.x.x.x.P T x.x.x.x.x.x.$ $ x.x.x.x.x.x.",
"x.x.x.$ $ $ $ x.x.x.x.x.x.x.x.x.x.x.x.x.x.x.x.x.x.x.$ $ x.x.x.x.x.x.+.Z , x.x.x.x.x.$ $ x.x.x.x.x.x.",
"x.x.x.$ $ $ $ $ x.x.x.x.x.x.x.x.x.x.x.x.x.x.x.x.x.x.x.% x.x.x.x.x.y.&.z - O x.x.x.x.$ $ x.x.x.x.x.x.",
"x.x.x.x.x.x.x.x.x.x.x.$ o = l x.x.x.x.x.$ $ x.x.x.x.x.x.A T I R M p <.2.; + $ x.x.x.x.x.x.x.x.x.x.x.",
"x.x.x.x.x.x.x.x.x.x.x.# > u C ..x.x.x.x.$ $ x.x.x.x.x.x.T I I R n 7 #.3.: + $ x.x.x.x.x.x.x.x.x.x.x.",
"x.x.x.x.x.x.x.x.x.x.x.o i T L %.g.x.x.x.$ $ $ x.x.x.x.x.x.x.x.x.x.x.x.x.x.x.x.x.x.x.x.x.x.x.x.x.x.x.",
"x.x.x.x.x.x.x.x.x.x.x.x.j E L &.f.x 1 x.x.x.x.x.x.x.x.x.x.x.x.x.x.x.x.x.x.x.x.x.x.x.x.x.x.x.x.x.x.x.",
"x.x.x.x.x.x.x.x.x.x.x.x.x.m G @.q.c a x.x.x.x.x.x.x.x.x.x.x.x.x.x.x.x.x.x.x.x.x.x.x.x.x.x.x.x.x.x.x.",
"x.x.x.x.x.x.x.x.x.x.x.x.0 e B ( / e.1.q x.x.x.x.x.x.x.I x.x.x.x.x.x.x.x.x.x.x.x.x.x.x.x.x.x.x.x.x.x.",
"x.x.x.x.x.x.x.x.x.x.x.x.x.x.x.%.4.-.' 9 5 5 2 ) s.} P I x.x.x.x.x.x.x.x.x.x.x.x.x.x.x.x.x.x.x.x.x.x.",
"x.x.x.x.x.x.x.x.x.x.x.x.x.x.x.x.d.O.b < y y t _ r.{ P I x.x.x.x.x.x.x.x.x.x.x.x.x.x.x.x.x.x.x.x.x.x.",
"x.x.x.x.x.x.x.x.x.x.x.x.x.x.x.x.x.! K D S S S ^ ] U I x.x.x.x.x.x.x.x.x.x.x.x.x.x.x.x.x.x.x.x.x.x.x.",
"x.x.x.x.x.x.x.x.x.x.x.x.x.x.x.x.x.x.I R R R R I P I x.x.x.x.x.x.x.x.x.x.x.x.x.x.x.x.x.x.x.x.x.x.x.x.",
"x.x.x.x.x.x.x.x.x.x.x.x.x.x.x.x.x.x.x.x.x.x.x.x.x.x.x.x.x.x.x.x.x.x.x.x.x.x.x.x.x.x.x.x.x.x.x.x.x.x.",
"x.x.x.x.x.x.x.x.x.x.x.x.x.x.x.x.x.x.x.x.x.x.x.x.x.x.x.x.x.x.x.x.x.x.x.x.x.x.x.x.x.x.x.x.x.x.x.x.x.x.",
"x.x.x.x.x.x.x.x.x.x.x.x.x.x.x.x.x.x.x.x.x.x.x.x.x.x.x.x.x.x.x.x.x.x.x.x.x.x.x.x.x.x.x.x.x.x.x.x.x.x.",
"x.x.x.x.x.x.x.x.x.x.x.x.x.x.x.x.x.x.x.x.x.x.x.x.x.x.x.x.x.x.x.x.x.x.x.x.x.x.x.x.x.x.x.x.x.x.x.x.x.x.",
"x.x.x.x.x.x.x.x.x.x.x.x.x.x.x.x.x.x.x.x.x.x.x.x.x.x.x.x.x.x.x.x.x.x.x.x.x.x.x.x.x.x.x.x.x.x.x.x.x.x.",
"x.x.x.x.x.x.x.x.x.x.x.x.x.x.x.x.x.x.x.x.x.x.x.x.x.x.x.x.x.x.x.x.x.x.x.x.x.x.x.x.x.x.x.x.x.x.x.x.x.x.",
"x.x.x.x.x.x.x.x.x.x.x.x.x.x.x.x.x.x.x.x.x.x.x.x.x.x.x.x.x.x.x.x.x.x.x.x.x.x.x.x.x.x.x.x.x.x.x.x.x.x.",
"x.x.x.x.x.x.x.x.x.x.x.x.x.x.x.x.x.x.x.x.x.x.x.x.x.x.x.x.x.x.x.x.x.x.x.x.x.x.x.x.x.x.x.x.x.x.x.x.x.x.",
"x.x.x.x.x.x.x.x.x.x.x.x.x.x.x.x.x.x.x.x.x.x.x.x.x.x.x.x.x.x.x.x.x.x.x.x.x.x.x.x.x.x.x.x.x.x.x.x.x.x.",
"x.x.x.x.x.x.x.x.x.x.x.x.x.x.x.x.x.x.x.x.x.x.x.x.x.x.x.x.x.x.x.x.x.x.x.x.x.x.x.x.x.x.x.x.x.x.x.x.x.x.",
"x.x.x.x.x.x.x.x.x.x.x.x.x.x.x.x.x.x.x.x.x.x.x.x.x.x.x.x.x.x.x.x.x.x.x.x.x.x.x.x.x.x.x.x.x.x.x.x.x.x.",
"x.x.x.x.x.x.x.x.x.x.x.x.x.x.x.x.x.x.x.x.x.x.x.x.x.x.x.x.x.x.x.x.x.x.x.x.x.x.x.x.x.x.x.x.x.x.x.x.x.x."
};
