/* XPM */
static char *result[] = {
/* columns rows colors chars-per-pixel */
"50 50 50 1 ",
"  c #643B3F",
". c #653B3F",
"X c #3D3E47",
"o c #3E3F46",
"O c #3F3F46",
"+ c #403F46",
"@ c #563C42",
"# c #9E3135",
"$ c #B83D2F",
"% c #AA3132",
"& c #AB3132",
"* c #AB3232",
"= c #AC3232",
"- c #AC3432",
"; c #AD3432",
": c #B13731",
"> c #B63B30",
", c #9B5A34",
"< c #BE652D",
"1 c #C1452D",
"2 c #C5482D",
"3 c #C5492D",
"4 c #CA4E2B",
"5 c #C84C2C",
"6 c #C94C2C",
"7 c #CD502B",
"8 c #D0532A",
"9 c #D1542A",
"0 c #D2542A",
"q c #D55729",
"w c #D75929",
"e c #DA5B28",
"r c #E26227",
"t c #E26327",
"y c #E36426",
"u c #E46426",
"i c #E66726",
"p c #E96925",
"a c #F17023",
"s c #F17123",
"d c #F27223",
"f c #F37223",
"g c #F47323",
"h c #F57422",
"j c #F67522",
"k c #F77622",
"l c #FA7721",
"z c #F87622",
"x c #F87722",
"c c None",
/* pixels */
"cccccccccccccccccccccccccccccccccccccccccccccccccc",
"cccccccccccccccccccccccccccccccccccccccccccccccccc",
"cccccccccccccccccccccccccccccccccccccccccccccccccc",
"cccccccccccccccccccccccccccccccccccccccccccccccccc",
"cccccccccccccccccccccccccccccccccccccccccccccccccc",
"cccccccccccccccccccccccccccccccccccccccccccccccccc",
"cccccccccccccccccccccc++++cccccccccccccccccccccccc",
"cccccccccccccccccccccc++++cccccccccccccccccccccccc",
"ccccccccccc&9xkkcccccc+ccccccccccccccccccccccccccc",
"cccccccccc>wpg86cccccc+ccccccccccccccccccccccccccc",
"ccccccccc>1fdi>#cccccc+ccccccccccccccccccccccccccc",
"cccccccccsdxq:cc+++ccccccccc++ccccccccc++ccccccccc",
"ccccccccc0002ccc++cccccccccc++ccccccccccccckcccccc",
"ccccccccc&&&cccc+ccccccccccc+++ccccccccccckkkccccc",
"ccckkcccc==cccccccccccccc++++++cccccccccccccxccccc",
"ccckcccccc=cccccccccccccc++++++ccccccccccccceccccc",
"ccccccccccccccccccccccc++++++++ccccccccccccc=ccccc",
"cccccccccccccccccccccccccccccccccccccccccccc=ccccc",
"cccccccccccccccccccccccccccccccccccccccccccc=ccccc",
"cccccccccccccccccccccccccccc**cccccccccccccccccccc",
"ccccccccccc+++cccccccccc+ccc. cccccccccccccccccccc",
"ccccccccccc+++ccccccccc++cccoocccccccccccccccccccc",
"ccccccccccc++cccccccccc+++++++cccccccccccccccccccc",
"ccccccccccccccccccccccc+++++++cccccckccccccccccccc",
"cccccccccccccccccccccccc++++++cccccckkcccccccccccc",
"ccc++ccccccccccccccccccccccccccccccckccccc+++ccccc",
"ccc++cccccccccccccccccccccccccccccckz<cccc+++ccccc",
"ccc++cccccccccccc+++ccccccccccccckkkl,Xccc+++ccccc",
"ccccccccccc+Ooccccc+ccccccccccckkkkccccccccccccccc",
"cccccccccccO@ ccccc+cccccccccccckkcccccccccccccccc",
"cccccccccccc-;cccccccccccccccccccccccccccccccccccc",
"cccccccccccctrcccccccccccccccccccccccccccccccccccc",
"ccccccccccccxxcccccccccccccccccccccccccccccccccccc",
"cccccccccccckkkkccccccccccccccccccccccccckcccccccc",
"cccccccccccc57sy%cccccccccccccccc+cccccccccccccccc",
"ccccccccccccc:uw$cccccccccccccccc+cccccccccccccccc",
"cccccccccccccc:4ahkj3%czkccccccccccccccccccccccccc",
"ccccccccccccccc6xkkj3ccccccccccccccccccccccccccccc",
"cccccccccccccccccccccccccccccccccccccccccccccccccc",
"cccccccccccccccccccccccccccccccccccccccccccccccccc",
"cccccccccccccccccccccccccccccccccccccccccccccccccc",
"cccccccccccccccccccccccccccccccccccccccccccccccccc",
"cccccccccccccccccccccccccccccccccccccccccccccccccc",
"cccccccccccccccccccccccccccccccccccccccccccccccccc",
"cccccccccccccccccccccccccccccccccccccccccccccccccc",
"cccccccccccccccccccccccccccccccccccccccccccccccccc",
"cccccccccccccccccccccccccccccccccccccccccccccccccc",
"cccccccccccccccccccccccccccccccccccccccccccccccccc",
"cccccccccccccccccccccccccccccccccccccccccccccccccc",
"cccccccccccccccccccccccccccccccccccccccccccccccccc"
};
