/* XPM */
static char *result[] = {
/* columns rows colors chars-per-pixel */
"50 50 23 1 ",
"  c #3D3E47",
". c #403F46",
"X c #5C4740",
"o c #B83D2F",
"O c #A92F33",
"+ c #AB3132",
"@ c #AC3232",
"# c #B23731",
"$ c #B33831",
"% c #C5492D",
"& c #C94C2C",
"* c #CE512B",
"= c #D2542A",
"- c #DB5C28",
"; c #ED6D24",
": c #E77125",
"> c #F17023",
", c #F57422",
"< c #F67522",
"1 c #F77622",
"2 c #F87622",
"3 c #F87722",
"4 c None",
/* pixels */
"44444444444444444444444444444444444444444444444444",
"44444444444444444444444444444444444444444444444444",
"44444444444444444444444444444444444444444444444444",
"44444444444444444444444444444444444444444444444444",
"44444444444444444444444444444444444444444444444444",
"44444444444444444444444....44444444444444444444444",
"44444444444444444444444444444444444444444444444444",
"44444444444444444444444444444444444444444444444444",
"44444444444+=3444444444444444444444444444.44444444",
"44444444444-=&4444..444444444444444444444444444444",
"44444444444;*O444...444444444444444444444444444444",
"44444444444$#4444...444444444444444444444444144444",
"444444444444444444.44444444444444444444444444%4444",
"444444444444444444444444444444.44444444444444+@444",
"4444444444444444444444444.444444444444444444444444",
"4444444444444444444444444.444444444444444444444444",
"44444444444444444444444444444444444444444444444444",
"444444444444444444444444444444@4444444444444444444",
"444444444444444444444444444444@4444444444444444444",
"44444444444444444444444.....4444444444444444444444",
"4444444444444..444444444444444.4444444444444444.44",
"4444444444444...44444444444444.4444444444444444.44",
"44444444444444444444444444444444444444444444444.44",
"4444..44444444444444444444444444444444444444444444",
"444...44444444444444444444444444444444444444444444",
"44444.44444441444444..4444444444444444444444444444",
"44444.44444442444444..4444444444444444444444444444",
"44444444444444444444...444444444444444:X 444444444",
"44444444444...444444444444444444444444444444444444",
"44444444444...444444444444444444444444444444444444",
"44444444444444444444444444444444444444444444444444",
"44444444444444444444444444444444444444444444444444",
"44444444444444444444444444444444444444444444444444",
"44444444444444444444444444444444444444444444444444",
"4444444444444444+444444444444444444444444444444444",
"4444444444444444o444444444444444444444444444444444",
"4444444444444444>,1<%+@444444444444444444444444444",
"4444444444444444311<%+@444444444444444444444444444",
"44444444444444444444444444444444444444444444444444",
"44444444444444444444444444444444444444444444444444",
"44444444444444444444444444444444444444444444444444",
"44444444444444444444444444444444444444444444444444",
"44444444444444444444444444444444444444444444444444",
"44444444444444444444444444444444444444444444444444",
"44444444444444444444444444444444444444444444444444",
"44444444444444444444444444444444444444444444444444",
"44444444444444444444444444444444444444444444444444",
"44444444444444444444444444444444444444444444444444",
"44444444444444444444444444444444444444444444444444",
"44444444444444444444444444444444444444444444444444"
};
