/* XPM */
static char *nd11644158195[] = {
/* columns rows colors chars-per-pixel */
"50 50 47 1 ",
"  c None",
". c #BE1717",
"X c #BE1818",
"o c #BF1818",
"O c #C01818",
"+ c #C11919",
"@ c #C21A1A",
"# c #C31A1A",
"$ c #C41A1A",
"% c #C41B1B",
"& c #C51B1B",
"* c #C61B1B",
"= c #C71C1C",
"- c #C81C1C",
"; c #C91D1D",
": c #CA1D1D",
"> c #CB1D1D",
", c #CB1E1E",
"< c #CC1E1E",
"1 c #CD1E1E",
"2 c #CD1F1F",
"3 c #CE1F1F",
"4 c #CF1F1F",
"5 c #CF2020",
"6 c #D02020",
"7 c #D12020",
"8 c #D12121",
"9 c #D22121",
"0 c #D32121",
"q c #D32222",
"w c #D42222",
"e c #D52222",
"r c #D52323",
"t c #D62323",
"y c #D72323",
"u c #D82424",
"i c #D92424",
"p c #DA2525",
"a c #DB2525",
"s c #DC2525",
"d c #DC2626",
"f c #DD2626",
"g c #DE2626",
"h c #DE2727",
"j c #DF2727",
"k c #E02727",
"l c #E02828",
/* pixels */
"                                                  ",
"                                                  ",
"                                                  ",
"                                                  ",
"                                                  ",
"                                                  ",
"                                                  ",
"                                                  ",
"                                                  ",
"                                                  ",
"                                                  ",
"                                                  ",
"                                                  ",
"                                                  ",
"                                                  ",
"                                                  ",
"                                                  ",
"                                                  ",
"                                                  ",
"                    .#  %                         ",
"                 %4%4w6ai4w6                      ",
"                 6siaswwiwkw%6a                   ",
"                 wasaawy4w56a66                   ",
"                ;# %wissa66s6   ;%                ",
"                ww4=6sjjswsa6645a4                ",
"                #5;=ysjjllsw;=  ==                ",
"                  X=yjjjsksa6;                    ",
"                 ==yyajsllssw655=                 ",
"                =sa;#;aisk6aw %5ya#               ",
"                =wa ;a6aaw45a   ;w                ",
"                   %akwa;66 a6                    ",
"                   #6a4w 4w  w4                   ",
"                      6w ;w  44X                  ",
"                     %a6  w4  #4;                 ",
"                      ;% #aa   ;s4X               ",
"                          4a%  #5;#               ",
"                          %4#                     ",
"                                                  ",
"                                                  ",
"                                                  ",
"                                                  ",
"                                                  ",
"                                                  ",
"                                                  ",
"                                                  ",
"                                                  ",
"                                                  ",
"                                                  ",
"                                                  ",
"                                                  "
};
