/* XPM */
static char *nd21644158196[] = {
/* columns rows colors chars-per-pixel */
"50 50 47 1 ",
"  c None",
". c #BD1717",
"X c #BE1717",
"o c #BE1818",
"O c #BF1818",
"+ c #C01818",
"@ c #C01919",
"# c #C11919",
"$ c #C21919",
"% c #C31A1A",
"& c #C41A1A",
"* c #C41B1B",
"= c #C51B1B",
"- c #C61B1B",
"; c #C71C1C",
": c #C81C1C",
"> c #C91C1C",
", c #C91D1D",
"< c #CA1D1D",
"1 c #CB1D1D",
"2 c #CB1E1E",
"3 c #CC1E1E",
"4 c #CD1E1E",
"5 c #CD1F1F",
"6 c #CE1F1F",
"7 c #CF1F1F",
"8 c #D02020",
"9 c #D12020",
"0 c #D12121",
"q c #D22121",
"w c #D32121",
"e c #D32222",
"r c #D42222",
"t c #D52222",
"y c #D62323",
"u c #D72323",
"i c #D82424",
"p c #D92424",
"a c #DA2525",
"s c #DB2525",
"d c #DC2525",
"f c #DC2626",
"g c #DD2626",
"h c #DE2626",
"j c #DE2727",
"k c #DF2727",
"l c #E02727",
/* pixels */
"                                                  ",
"                                                  ",
"                                                  ",
"                          O                       ",
"                          O                       ",
"                          O                       ",
"                         O.                       ",
"                         O%                       ",
"                         %8                       ",
"                         2y O                     ",
"                       O 5p+O                     ",
"               O%      O.5hy                      ",
"               %9   2  -%5ly                      ",
"            OO.2h5  y  98sh9                      ",
"             2;2hs2 y  8shs2          O           ",
"             5yshhy  y ;hls  O      -5            ",
"          %   ;skkh;   2shy    %O  59             ",
"          %y   -9kl9   9ly-   9%  O5              ",
"        O22yy2  O9lk2O 5h9   5;O                  ",
"         %9y592% ;yk9O %y9  55-;-OOO%.%           ",
"          -py;2%  %2s-  ;- -yphhhyyy9852O         ",
"           9s9      2   OOO%phklhhy92-%           ",
"            2              %shlhy2%O.             ",
"       2;O      2;   %999; .2522OO.               ",
"       2-OOOO-29h9;  -5yhy                        ",
"           O;skhh2O    5k9%                       ",
"          OO29yhh829%  9y-   9y9y9                ",
"             %-yksh5O   -                         ",
"           %2yssky--2     -                       ",
"          %9skkys2%9y-   -s5  O s                 ",
"        O%9kkk92k9;ss   .5lyO %-                  ",
"        ;9lky2O8kssy    -phs2O5ss                 ",
"       :phs   %ykky     -shhy. s    8             ",
"       5s9    %shs      -hsss2  2 sy s            ",
"       %;    .2sh9      ;k9syy-    92             ",
"      OO     -52s   O   2h2yy9y%     O            ",
"             2:%5       -s%ys-y5     OO           ",
"               .   O    59%yh2-y9      O          ",
"              %.   O   %92O5p9  ;O                ",
"                       -s2 55%                    ",
"                       -y  ;;O                    ",
"                       29  OO                     ",
"                       %%  O                      ",
"                                                  ",
"                                                  ",
"                                                  ",
"                                                  ",
"                                                  ",
"                                                  ",
"                                                  "
};
