/* XPM */
static char *nd31644158196[] = {
/* columns rows colors chars-per-pixel */
"50 50 50 1 ",
"  c None",
". c #BE1717",
"X c #BE1818",
"o c #BF1818",
"O c #C01818",
"+ c #C01919",
"@ c #C11919",
"# c #C21919",
"$ c #C21A1A",
"% c #C31A1A",
"& c #C41A1A",
"* c #C41B1B",
"= c #C51B1B",
"- c #C61B1B",
"; c #C71C1C",
": c #C81C1C",
"> c #C91C1C",
", c #C91D1D",
"< c #CA1D1D",
"1 c #CB1D1D",
"2 c #CB1E1E",
"3 c #CC1E1E",
"4 c #CD1E1E",
"5 c #CD1F1F",
"6 c #CE1F1F",
"7 c #CF1F1F",
"8 c #CF2020",
"9 c #D02020",
"0 c #D12020",
"q c #D12121",
"w c #D22121",
"e c #D32121",
"r c #D32222",
"t c #D42222",
"y c #D52222",
"u c #D62323",
"i c #D72323",
"p c #D82424",
"a c #D92424",
"s c #DA2424",
"d c #DA2525",
"f c #DB2525",
"g c #DC2525",
"h c #DC2626",
"j c #DD2626",
"k c #DE2626",
"l c #DE2727",
"z c #DF2727",
"x c #E02727",
"c c #E02828",
/* pixels */
"                                                  ",
"                                                  ",
"                                                  ",
"                           o                      ",
"                          ;O                      ",
"                         ;t:                      ",
"                        o8qo                      ",
"              O         :l;o                      ",
"              oO       =alO                       ",
"              O3       3la:                       ",
"              :l3      3lxa =3    aq              ",
"              =ll3     txl3 8   Opa               ",
"            OOOtct     ;tq      3l     8;         ",
"            ;a:3la;            o8     ;3          ",
"       o:q  Oaltlllt                              ",
"      o:aat  :lxxxla                              ",
"      OtqOtt O3tllls                              ",
"       qa= :; oO0lxq                              ",
"        a:       :3=                :::::         ",
"                    :::::qtqOO    =qalatt3        ",
"                  =qattalltqOO   Oplt3=OOOO       ",
"                  O=3=.=3la3O    :ll;             ",
"                       o>lclq:   3xa              ",
"                          llla;  :q3         O    ",
"       OOOO                                  O    ",
"       O:tapp8                    Oooooo          ",
"        O:tlllt           t0:          o          ",
"         O=tlllqO       :lllaqO        o          ",
"         Otxxlxla3     O8llaq3                    ",
"        =tlttllxca   o:talaO    =3       O        ",
"       Ott=O3lllaq   o=:;3aq     tt      O        ",
"       O3O.=alaq         O;a:     =               ",
"       O  ;tq:             qqO   O                ",
"         ;at                q:  :tq               ",
"         8p             OO  OO  =allt             ",
"        ;p            O:qtsq:O   =>lxl            ",
"        O       qls  O3llcxxl:    o;ll3           ",
"        o      t3q   3xlxlxlxq     O0la=          ",
"       Oo     qt     ttlaal3at      =lxs=         ",
"       O     3p     qtOatql=0a:     .qxl3         ",
"       o     tq     t3 38:l:;aq      :l l:        ",
"            oO     3t  =  a  ta      Otl t        ",
"            O      t   O  t   ;       3l          ",
"           oO     =q      ;   o                   ",
"           o     oo       o                       ",
"                                                  ",
"                                                  ",
"                                                  ",
"                                                  ",
"                                                  "
};
