/* XPM */
static char *result[] = {
/* columns rows colors chars-per-pixel */
"50 50 109 2 ",
"   c #8B0307",
".  c #9F0017",
"X  c #9C031A",
"o  c #9B0A1E",
"O  c #AF010A",
"+  c #B10409",
"@  c #B40A09",
"#  c #B61409",
"$  c #B81209",
"%  c #BC1D09",
"&  c #AA0510",
"*  c #A80E15",
"=  c #A81016",
"-  c #A91A16",
";  c #BB200A",
":  c #BD2A0D",
">  c #BC310E",
",  c #A6271D",
"<  c #AA2319",
"1  c #AA2F1C",
"2  c #AF3F1E",
"3  c #8C0127",
"4  c #86002B",
"5  c #89012A",
"6  c #8F0C28",
"7  c #930020",
"8  c #900D28",
"9  c #921027",
"0  c #9E2223",
"q  c #A52E21",
"w  c #C22508",
"e  c #C32D09",
"r  c #CB3507",
"t  c #CD3A07",
"y  c #C1340A",
"u  c #C33A0A",
"i  c #D03F07",
"p  c #C02F18",
"a  c #C23513",
"s  c #AF401D",
"d  c #B9511B",
"f  c #B95221",
"g  c #C6420B",
"h  c #C9430A",
"j  c #C8480B",
"k  c #D14107",
"l  c #CE510A",
"z  c #CE5A0B",
"x  c #DD5A07",
"c  c #D35309",
"v  c #D95A08",
"b  c #C54E16",
"n  c #CA4E14",
"m  c #CD551F",
"M  c #C4581C",
"N  c #CF5C1F",
"B  c #E05D06",
"V  c #DD6106",
"C  c #D1630D",
"Z  c #D9640A",
"A  c #D36B0C",
"S  c #DE6C08",
"D  c #D6720C",
"F  c #DC750B",
"G  c #DA7C0C",
"H  c #C56516",
"J  c #D97213",
"K  c #D37B12",
"L  c #DA7C14",
"P  c #E06307",
"I  c #E06C08",
"U  c #E07509",
"Y  c #E17D0A",
"T  c #D26228",
"R  c #DA7834",
"E  c #DD840C",
"W  c #DE8C0D",
"Q  c #D68010",
"!  c #DD8512",
"~  c #DF9114",
"^  c #E2830A",
"/  c #E18D0C",
"(  c #E1920D",
")  c #E48516",
"_  c #E08F19",
"`  c #E29511",
"'  c #E49915",
"]  c #E39119",
"[  c #E59B1A",
"{  c #E6A01D",
"}  c #DD842F",
"|  c #E39721",
" . c #E7A222",
".. c #E8A425",
"X. c #E9A629",
"o. c #EAAA2D",
"O. c #E8A334",
"+. c #ECAD32",
"@. c #E5A53C",
"#. c #EDB032",
"$. c #EFB53C",
"%. c #EFB740",
"&. c #F1BC44",
"*. c #F2BE4A",
"=. c #F4C14D",
"-. c #F5C552",
";. c #F6C855",
":. c #F7CB5B",
">. c None",
/* pixels */
">.>.>.>.>.>.>.>.>.>.>.>.>.>.>.>.>.>.>.>.>.>.>.>.>.>.>.>.>.>.>.>.>.>.>.>.>.>.>.>.>.>.>.>.>.>.>.>.>.>.",
">.>.>.>.>.>.>.>.>.>.>.>.>.>.>.>.>.>.>.>.>.>.>.>.>.>.>.>.>.>.>.>.>.>.>.>.>.>.>.>.>.>.>.>.>.>.>.>.>.>.",
">.>.>.>.>.>.>.>.>.>.>.>.>.>.>.>.>.>.>.>.>.>.>.>.>.>.>.>.>.>.>.>.>.>.>.>.>.>.>.>.>.>.>.>.>.>.>.>.>.>.",
">.>.>.>.>.>.>.>.>.>.>.>.>.>.>.>.>.>.>.>.>.>.>.>.>.>.>.>.>.>.>.>.>.>.>.>.>.>.>.>.>.>.>.>.>.>.>.>.>.>.",
">.>.>.>.>.>.>.>.>.>.>.>.>.>.>.>.>.>.>.>.>.>.>.>.>.>.>.>.>.>.>.>.>.>.>.>.>.>.>.>.>.>.>.>.>.>.>.>.>.>.",
">.>.>.>.>.>.>.>.>.>.>.>.>.>.>.>.>.>.>.>.>.>.>.>.>.>.>.>.>.>.>.>.>.>.>.>.>.>.>.>.>.>.>.>.>.>.>.>.>.>.",
">.>.>.>.>.>.>.>.>.>.>.>.>.>.>.>.>.>.>.>.>.>.>.>.>.>.>.>.>.>.>.>.>.>.>.>.>.>.>.>.>.>.>.>.>.>.>.>.>.>.",
">.>.>.>.>.>.>.>.>.>.>.>.>.>.>.>.>.>.>.>.>.>.>.>.>.>.>.>.>.>.>.>.>.>.>.>.>.>.>.>.>.>.>.>.>.>.>.>.>.>.",
">.>.>.>.>.>.>.>.>.>.>.>.>.>.>.>.>.>.>.>.>.>.>.>.>.>.>.>.>.>.>.>.>.>.>.>.>.>.>.>.>.>.>.>.>.>.>.>.>.>.",
">.>.>.>.>.>.>.>.>.>.>.>.>.>.>.>.>.>.>.>.>.>.>.>.+ >.>.>.>.>.>.>.>.>.>.>.>.>.>.>.>.>.>.>.>.>.>.>.>.>.",
">.>.>.>.>.>.>.>.>.>.>.>.>.>.>.>.>.>.>.>.>.>.+ + + >.>.>.>.>.>.>.>.>.>.>.>.>.>.>.>.>.>.>.>.>.>.>.>.>.",
">.>.>.>.>.>.>.>.>.>.>.>.>.>.>.>.>.>.>.>.>.>.+ + + >.>.>.>.>.>.>.>.>.>.>.>.>.>.>.>.>.>.>.>.>.>.>.>.>.",
">.>.>.>.>.>.>.>.>.>.>.>.>.>.>.>.>.>.>.>.>.>.>.>.>.>.>.>.>.>.>.>.>.>.>.>.>.>.>.>.>.>.>.>.>.>.>.>.>.>.",
">.>.>.>.>.>.>.>.>.>.>.>.>.>.>.>.>.>.>.>.>.>.>.>.>.>.>.>.>.>.>.>.>.>.>.>.>.>.>.>.>.>.>.>.>.>.>.>.>.>.",
">.>.>.>.>.>.>.>.>.>.>.>.>.>.>.>.>.>.>.>.>.>.>.>.>.>.>.>.>.>.>.>.>.>.>.>.>.>.>.>.>.>.>.>.>.>.>.>.>.>.",
">.>.>.>.>.>.>.>.>.>.>.>.>.>.>.>.>.>.>.>.>.>.>.>.>.>.>.>.>.>.+ + >.>.>.>.>.>.>.>.>.>.>.>.>.>.>.>.>.>.",
">.>.>.>.>.>.>.>.>.>.>.>.>.>.>.>.+ + + + + + + >.>.>.+ + + + + + + + + >.>.>.>.>.>.>.>.>.>.>.>.>.>.>.",
">.>.>.>.>.>.>.>.>.>.>.>.>.>.>.>.+ + + + + + + + + + + + + + + + + + + + >.>.>.>.>.>.>.>.>.>.>.>.>.>.",
">.>.>.>.>.>.>.>.>.>.>.>.>.>.>.>.+ + + + + + + O + O + + + + + + + + + + + + + >.>.>.>.>.>.>.>.>.>.>.",
">.>.>.>.>.>.>.>.>.>.>.>.>.>.>.>.+ + + + O @ : u y u y u y # @ O + + + + + + + + + >.>.>.>.>.>.>.>.>.",
">.>.>.>.>.>.>.>.>.>.>.>.+ + >.+ + + + @ y A E ( X.#.X.' ' ! A n u # O + + + + + + >.>.>.>.>.>.>.>.>.",
">.>.>.>.>.>.>.>.>.>.>.+ + + + + + + O j ( ( ( ` $.:.;.-.-.=.&.-.$.E : + + + + + + + >.>.>.>.>.>.>.>.",
">.>.>.>.>.>.>.>.>.>.>.+ + + + + + + e E ( ( ( ( ` *.:.:.:.:.:.:.:.=.| u + + + + + + >.>.>.>.>.>.>.>.",
">.>.>.>.>.>.>.>.>.>.>.+ + + + + + # G ( ( ( ( ( ( +.:.:.:.:.:.:.:.:.=.] % + + + + + >.>.>.>.>.>.>.>.",
">.>.>.>.>.>.>.>.>.>.>.+ + + + + + y ( ( ( ( ( ( ( ' -.:.:.:.:.:.:.:.:.$.C @ + + + + >.>.>.+ >.>.>.>.",
">.>.>.>.>.>.>.>.>.>.>.+ + + + + + A ( ( ( ( ( ( / (  .-.:.:.:.:.:.:.:.-.` > + + + + >.>.+ >.>.>.>.>.",
">.>.>.>.>.+ >.>.>.>.>.>.+ + + + @ D ( ( ( ( ( ( Y Y ` -.:.:.:.:.:.:.:.=.` z + + + + + @ + >.>.>.>.>.",
">.>.>.>.>.+ + + >.>.>.>.>.+ + + % E ( ( ( ( ( ( / S ` %.-.*.;.:.:.-.+. .` E # + + + +   >.>.>.>.>.>.",
">.>.>.>.>.>.+ + + >.>.>.>.+ + + w ^ ( / / ( ( ( / F / ' ' ` X.%.:.:. .W ( E # + + + + >.>.>.>.>.>.>.",
">.>.>.>.>.>.>.>.>.>.>.>.>.+ + + % I U P P U / ( ^ Y ( Q K E ( ( X.&...( ( E # + + + >.>.>.>.>.>.>.>.",
">.>.>.>.>.>.>.>.>.>.>.>.>.>.+ + @ e x P B B Y / U ( H 9 6 q H K ( ` ` ( ( E # + >.>.>.>.>.>.>.>.>.>.",
">.>.>.>.>.>.>.>.>.>.>.>.>.>.+ + + + t B P P U Y Y ' d 4 5 5 5 8 s W ( ( W j + + >.>.>.>.>.>.>.>.>.>.",
">.>.>.>.>.>.>.>.>.>.>.>.>.>.+ + + + $ k G / ^ U ) &.M 7 5 4 5 3 s ( ( d - + + + >.>.>.>.>.>.>.>.>.>.",
">.>.>.>.>.>.>.>.>.>.>.>.>.>.+ + + + + + h G W ` +.-.L % # = * > W ( G 0 X + + + >.>.>.>.>.>.>.>.>.>.",
">.>.>.>.>.>.>.>.>.>.>.>.>.>.+ + + + + + $ : 1 Q  .*.| ^ S V S ] ` K u X & + + + >.>.>.>.>.>.>.>.>.>.",
">.>.>.>.>.>.>.>.>.>.>.>.>.>.+ + + + + + $ x : < H [ #.X...X.$.@.f 0 g + + + + + + >.>.>.>.>.>.>.>.>.",
">.>.>.>.>.>.>.>.>.>.>.>.>.>.+ + + + + + r Y S & o A ( ..*.;.$.b o , ; + + + + + + >.>.>.>.>.>.>.>.>.",
">.>.>.>.>.>.>.>.>.>.>.>.>.>.>.+ + + + + k ^ l + O j ' ( '  .o.F c C + + + + + + >.>.>.>.>.>.>.>.>.>.",
">.>.>.>.>.>.>.>.>.>.>.>.>.>.>.>.+ + + + k ^ C # O m #. .( ( $.[ G ; + + + + + >.>.>.>.>.>.>.>.>.>.>.",
">.>.>.>.>.>.>.>.>.>.>.>.>.>.>.>.>.>.+ + % x Y F j > T } O...#.' A @ + + + + + + >.>.>.>.>.>.>.>.>.>.",
">.>.>.>.>.>.>.>.>.>.>.>.>.>.>.>.>.>.+ + + $ e v ^ G D y > N R J y + + + + + + >.>.>.>.>.>.>.>.>.>.>.",
">.>.>.>.>.>.>.>.>.>.>.>.>.>.>.>.>.>.>.+ + + + @ r Z ^ ) A j h r + + + + + + + >.>.>.>.>.>.>.>.>.>.>.",
">.>.>.>.>.>.>.>.>.>.>.>.>.>.>.>.>.>.>.+ + + + + + @ w c Z Z c $ + + + + + + >.>.>.>.>.>.>.>.>.>.>.>.",
">.>.>.>.>.>.>.>.>.>.>.>.>.>.>.>.>.>.>.>.+ + + + + + + @ @ + @ + + + + + >.>.>.>.>.>.>.>.>.>.>.>.>.>.",
">.>.>.>.>.>.>.>.>.>.>.>.>.>.>.>.>.>.>.>.>.>.>.+ + + + + + + + + + + >.>.>.>.>.>.>.>.>.>.>.>.>.>.>.>.",
">.>.>.>.>.>.>.>.>.>.>.>.>.>.>.>.>.>.>.>.>.>.>.>.+ + + + + + + + >.>.>.>.>.>.>.>.>.>.>.>.>.>.>.>.>.>.",
">.>.>.>.>.>.>.>.>.>.>.>.>.>.>.>.>.>.>.>.>.>.>.>.+ + + + + >.>.>.>.>.>.>.>.>.>.>.>.>.>.>.>.>.>.>.>.>.",
">.>.>.>.>.>.>.>.>.>.>.>.>.>.>.>.>.>.>.>.>.>.>.>.+ + >.>.>.>.>.>.>.>.>.>.>.>.>.>.>.>.>.>.>.>.>.>.>.>.",
">.>.>.>.>.>.>.>.>.>.>.>.>.>.>.>.>.>.>.>.>.>.>.>.>.>.>.>.>.>.>.>.>.>.>.>.>.>.>.>.>.>.>.>.>.>.>.>.>.>.",
">.>.>.>.>.>.>.>.>.>.>.>.>.>.>.>.>.>.>.>.>.>.>.>.>.>.>.>.>.>.>.>.>.>.>.>.>.>.>.>.>.>.>.>.>.>.>.>.>.>."
};
