/* XPM */
static char *result[] = {
/* columns rows colors chars-per-pixel */
"50 50 226 2 ",
"   c #9F131F",
".  c #AF060B",
"X  c #B00109",
"o  c #B00209",
"O  c #B00309",
"+  c #B10309",
"@  c #B10409",
"#  c #B10509",
"$  c #B20509",
"%  c #B20609",
"&  c #B20709",
"*  c #B0060B",
"=  c #B30809",
"-  c #B30B09",
";  c #B40A09",
":  c #B40B09",
">  c #B50C09",
",  c #B50D09",
"<  c #B40E09",
"1  c #B70F09",
"2  c #B71009",
"3  c #B5120A",
"4  c #B7170A",
"5  c #B81008",
"6  c #B81109",
"7  c #B91309",
"8  c #BA1608",
"9  c #BB1708",
"0  c #BB1808",
"q  c #BD1A08",
"w  c #BD1B08",
"e  c #BB1C09",
"r  c #BD1C08",
"t  c #BC1C09",
"y  c #AC1D17",
"u  c #A5191C",
"i  c #BB2009",
"p  c #BE2009",
"a  c #BE290A",
"s  c #BE2B0A",
"d  c #AF2117",
"f  c #AD2519",
"g  c #A8221D",
"h  c #AA251D",
"j  c #B22616",
"k  c #B52714",
"l  c #B42A16",
"z  c #B22D19",
"x  c #B32E19",
"c  c #B73217",
"v  c #BC3413",
"b  c #B93517",
"n  c #BA3516",
"m  c #BF3A14",
"M  c #86002B",
"N  c #87002B",
"B  c #8A0229",
"V  c #88002A",
"C  c #8C0429",
"Z  c #8F0728",
"A  c #910625",
"S  c #920A26",
"D  c #971024",
"F  c #9B1423",
"G  c #9E1721",
"H  c #A11A20",
"J  c #C02008",
"K  c #C02108",
"L  c #C12208",
"P  c #C12308",
"I  c #C12408",
"U  c #C22408",
"Y  c #C22508",
"T  c #C12608",
"R  c #C22608",
"E  c #C32608",
"W  c #C32708",
"Q  c #C42908",
"!  c #C52A08",
"~  c #C62B08",
"^  c #C12D0B",
"/  c #C62D08",
"(  c #C72F08",
")  c #C82F08",
"_  c #C93107",
"`  c #C93207",
"'  c #CA3307",
"]  c #CA3407",
"[  c #CB3607",
"{  c #CC3707",
"}  c #CE3B07",
"|  c #CE3C07",
" . c #CF3E07",
".. c #C73208",
"X. c #C5350C",
"o. c #C83008",
"O. c #C93108",
"+. c #C93408",
"@. c #C83409",
"#. c #CA3408",
"$. c #CB3708",
"%. c #D03E07",
"&. c #C03C12",
"*. c #C13C13",
"=. c #CD4008",
"-. c #CE4009",
";. c #CB480F",
":. c #CE4A0D",
">. c #D24207",
",. c #D24307",
"<. c #D24407",
"1. c #D34507",
"2. c #D44607",
"3. c #D54807",
"4. c #D64A07",
"5. c #D74B07",
"6. c #D74D07",
"7. c #D74F07",
"8. c #D84F06",
"9. c #D24909",
"0. c #D1490A",
"q. c #D24B0A",
"w. c #D54F08",
"e. c #D14E0C",
"r. c #D65107",
"t. c #D95006",
"y. c #D95206",
"u. c #DB5306",
"i. c #DB5506",
"p. c #DA5407",
"a. c #DB5707",
"s. c #DD5706",
"d. c #DB5B07",
"f. c #DC5807",
"g. c #DD5907",
"h. c #DE5906",
"j. c #DE5A06",
"k. c #DF5B06",
"l. c #DE5B07",
"z. c #DD5C07",
"x. c #DF5C06",
"c. c #D3500B",
"v. c #D45108",
"b. c #D6520A",
"n. c #D35609",
"m. c #D35709",
"M. c #D7540A",
"N. c #D85509",
"B. c #D85609",
"V. c #D95709",
"C. c #DA5708",
"Z. c #D65909",
"A. c #D15D0B",
"S. c #DA5808",
"D. c #DB5908",
"F. c #DA5A09",
"G. c #C54011",
"H. c #C54111",
"J. c #C64410",
"K. c #C74511",
"L. c #C54A11",
"P. c #E15F05",
"I. c #E05D06",
"U. c #E05E06",
"Y. c #E15E06",
"T. c #E05F06",
"R. c #E15F06",
"E. c #DF6007",
"W. c #D6650A",
"Q. c #D8610B",
"!. c #DE6708",
"~. c #DB6909",
"^. c #DF6908",
"/. c #E26005",
"(. c #E06006",
"). c #E16006",
"_. c #E06106",
"`. c #E16206",
"'. c #E16306",
"]. c #E06207",
"[. c #E06407",
"{. c #E06507",
"}. c #E06607",
"|. c #E16607",
" X c #E06707",
".X c #E16707",
"XX c #E16807",
"oX c #E06907",
"OX c #E16907",
"+X c #E06A08",
"@X c #E06E08",
"#X c #E16E08",
"$X c #E07209",
"%X c #E07309",
"&X c #E07409",
"*X c #E17409",
"=X c #E17509",
"-X c #E07609",
";X c #E07709",
":X c #E07809",
">X c #E17909",
",X c #E1790A",
"<X c #E17C0A",
"1X c #E17D0A",
"2X c #E17F0A",
"3X c #E1800A",
"4X c #E1800B",
"5X c #E2800A",
"6X c #E1820B",
"7X c #E1840B",
"8X c #E1860B",
"9X c #E1870C",
"0X c #E2890B",
"qX c #E1880C",
"wX c #E18B0C",
"eX c #E28A0C",
"rX c #E18C0C",
"tX c #E18D0C",
"yX c #E18E0C",
"uX c #E18F0D",
"iX c #E1900D",
"pX c #E1910D",
"aX c #E1920D",
"sX c #E1930D",
"dX c #E1940D",
"fX c None",
/* pixels */
"fXfXfXfXfXfXfXfXfXfXfXfXfXfXfXfXfXfXfXfXfXfXfXfXfXfXfXfXfXfXfXfXfXfXfXfXfXfXfXfXfXfXfXfXfXfXfXfXfXfX",
"fXfXfXfXfXfXfXfXfXfXfXfXfXfXfXfXfXfXfXfXfXfXfXfXfXfXfXfXfXfXfXfXfXfXfXfXfXfXfXfXfXfXfXfXfXfXfXfXfXfX",
"fXfXfXfXfXfXfXfXfXfXfXfXfXfXfXfXfXfXfXfXfXfXfXfXfXfXfXfXfXfXfXfXfXfXfXfXfXfXfXfXfXfXfXfXfXfXfXfXfXfX",
"fXfXfXfXfXfXfXfXfXfXfXfXfXfXfXfXfXfXfXfXfXfXfXfXfXfXfXfXfXfXfXfXfXfXfXfXfXfXfXfXfXfXfXfXfXfXfXfXfXfX",
"fXfXfXfXfXfXfXfXfXfXfXfXfXfXfXfXfXfXfXfXfXfXfXfXfX@ @ fXfXfXfXfXfXfXfXfXfXfXfXfXfXfXfXfXfXfXfXfXfXfX",
"fXfXfXfXfXfXfXfXfXfXfXfXfXfXfXfXfXfXfXfXfXfXfXfXfXfXfXfXfXfXfXfXfXfXfXfXfXfXfXfXfXfXfXfXfXfXfXfXfXfX",
"fXfXfXfXfXfXfXfXfXfXfXfXfXfXfXfXfXfXfXfXfXfXfXfXfXfXfXfXfXfXfXfXfXfXfXfXfXfXfXfXfXfXfXfXfXfXfXfXfXfX",
"fXfXfXfXfXfXfXfXfXfXfXfXfXfXfXfXfXfXfXfXfXfXfXfXfXfXfXfXfXfXfXfXfXfXfXfXfXfXfXfXfXfXfXfXfXfXfXfXfXfX",
"fXfXfXfXfXfXfXfXfXfXfXfXfXfXfXfXfXfXfXfXfXfXfXfXfXfXfXfXfXfXfXfXfXfXfXfXfXfXfXfXfXfXfXfXfXfXfXfXfXfX",
"fXfXfXfXfXfXfXfXfXfXfXfXfXfXfXfXfXfXfXfXfXfXfX@ @ fXfXfXfXfXfXfXfXfXfXfXfXfXfXfXfXfXfXfXfXfXfXfXfXfX",
"fXfXfXfXfXfXfXfXfXfXfXfXfXfXfXfXfXfXfXfXfXfXfXfXfX@ fXfXfXfXfXfXfXfXfXfXfXfXfXfXfXfXfXfXfXfXfXfXfXfX",
"fXfXfXfXfXfXfXfXfXfXfXfXfXfXfXfXfXfXfXfXfXfXfXfXfX@ @ @ @ fXfXfXfXfXfXfXfXfXfXfXfXfXfXfXfXfXfXfXfXfX",
"fXfXfXfXfXfXfXfXfXfXfXfXfXfXfXfXfXfXfXfXfXfXfXfXfX@ @ @ @ @ @ @ fXfXfXfXfXfXfXfXfXfXfXfXfXfXfXfXfXfX",
"fXfXfXfXfXfXfXfXfXfXfXfXfXfXfXfXfXfXfX@ @ @ fXfX@ @ @ @ @ @ @ @ @ fXfXfXfXfXfXfXfXfXfXfXfXfXfXfXfXfX",
"fXfXfXfXfXfXfXfXfXfXfXfXfXfXfXfXfXfX@ @ @ @ @ @ @ @ @ @ @ @ @ @ @ fXfXfXfXfXfXfXfXfXfXfXfXfXfXfXfXfX",
"fXfXfXfXfXfXfXfXfXfXfXfXfXfXfXfXfX@ @ @ @ @ @ @ @ @ @ @ @ @ @ @ @ @ @ fXfXfXfXfXfXfXfXfXfXfXfXfXfXfX",
"fXfXfXfXfXfXfXfXfXfXfXfXfXfXfXfXfX@ @ @ @ @ @ @ @ @ @ @ @ @ @ @ @ @ @ @ fXfXfXfXfXfXfXfXfXfXfXfXfXfX",
"fXfXfXfXfXfXfXfXfXfXfXfXfXfXfXfXfXfX@ @ @ @ @ @ @ @ @ @ @ @ @ @ @ @ @ @ fXfXfXfXfXfXfXfXfXfXfXfXfXfX",
"fXfXfXfXfXfXfXfXfXfXfXfXfXfXfXfX@ @ @ @ @ + o o O % % % O o + @ @ @ @ @ fXfXfX@ @ fXfXfXfXfXfXfXfXfX",
"fXfXfXfXfXfXfXfXfXfXfXfXfXfXfXfX@ @ @ @ @ 1 U Y Q 1.3.2.~ U 6 @ o @ @ @ @ fX@ @ @ @ fXfXfXfXfXfXfXfX",
"fXfXfXfXfXfXfXfXfXfXfXfXfXfXfX@ @ @ + $ ! y.U.U.U.R.|.*XOX[.p.{ E = + @ @ @ @ @ @ @ fXfXfXfXfXfXfXfX",
"fXfXfXfXfXfXfXfXfXfXfXfXfXfX@ @ @ @ = ] x.R.U.T. XoX4XaXyXrX3X.XI.} : @ @ @ @ @ @ @ fXfXfXfXfXfXfXfX",
"fXfXfXfXfXfXfXfX@ @ fXfXfXfX@ @ @ @ W I.U.U.I.%XuXuXiXaXaXaXsX;X].Y.) + @ @ @ @ @ @ fXfXfXfXfX@ fXfX",
"fXfXfXfX@ fXfXfX@ fXfXfXfX@ @ @ O r s.U.U.U.I.<XsXaXaXaXaXaXaXaX7X.Xu.9 + @ @ @ @ @ fXfXfXfXfXfXfXfX",
"fXfXfXfXfXfXfXfX@ @ @ @ @ @ @ @ % >.).U.U.U.I.,XaXaXaXaXaXaXaXaXsXqXXX5., + @ @ @ @ fXfXfXfXfXfXfXfX",
"fXfXfXfXfXfXfXfX@ @ @ @ @ @ @ @ % 4.).R.R.U.I. XyXaXaXaXaXaXaXaXaXsX2XT. .= @ @ @ @ fXfXfXfXfXfXfXfX",
"fXfXfXfXfXfXfXfX@ @ @ @ @ @ @ @ & ,.( | 6.U.U.(.4XsXpXaXaXaXaXaXaXaXiX#Xs.8 + @ @ @ fXfXfXfXfXfXfXfX",
"fXfXfXfXfXfXfXfX@ @ @ @ @ @ @ @ & J @ @ ; [ x.U.-X<X7XaXaXaXaXaXaXaXsX&XY.o.o @ @ @ @ @ fXfXfXfXfXfX",
"fXfXfXfXfXfXfXfXfX@ @ @ @ @ @ @ @ @ @ @ + % / h.`.+XrXsXaXaXaXaXaXaXsX&XR._ o @ @ @ @ @ fXfXfXfXfXfX",
"fXfXfXfXfXfXfXfXfX@ @ @ @ @ @ @ @ @ @ @ @ @ @ I i.R.&XtXuXsXaXaXaXaXsX&XR.O.o @ @ @ @ @ fXfXfXfXfXfX",
"fXfXfXfXfXfXfXfXfX@ @ @ @ @ @ @ @ @ @ @ @ @ @ O w 8.(.}.$X8XuXaXaXsX9X X).` o @ @ @ @ @ fXfXfXfXfXfX",
"fXfXfXfXfXfXfXfXfX@ @ @ @ @ @ @ @ @ @ @ @ @ @ @ X _ ).I.U.}.wXdXsX6X{.U.x.Y O @ @ @ @ @ fXfXfXfXfXfX",
"fXfXfXfXfXfXfXfXfXfX@ @ @ @ @ @ @ + > > O @ @ O w u././.P.OX1X1X:X].I.).<.= @ @ @ @ @ fXfXfXfXfXfXfX",
"fXfXfXfXfXfXfXfXfXfXfX@ @ @ @ @ @ @ = w 2 @ @ $ @.b x z m c.M.U.I.R.R.C.R o @ @ fX@ fXfXfXfXfXfXfXfX",
"fXfXfXfXfXfXfXfXfXfXfXfXfXfX@ @ @ @ O e r.` & 5 0.S M N B Z D e./.;.h   . @ fXfXfXfXfXfXfXfXfXfXfXfX",
"fXfXfXfXfXfXfXfXfXfXfXfXfXfXfX@ @ @ @ # <.j.n.v.f.K.G C B V g S./.n H u * fXfXfXfXfXfXfXfXfXfXfXfXfX",
"fXfXfXfXfXfXfXfXfXfXfXfXfXfXfX@ @ @ @ + ' %.^.0X=X5XQ.:.*.c V.H.G.E.@XZ.: fXfXfXfXfXfXfXfXfXfXfXfXfX",
"fXfXfXfXfXfXfXfXfXfXfXfXfXfX@ @ @ @ @ + $.+.w.eX>X}.'.P.R./.q.A F z.=.4 # @ fXfXfXfXfXfXfXfXfXfXfXfX",
"fXfXfXfXfXfXfXfXfXfXfXfXfXfX@ @ @ @ @ o i m...^ &.l.U.U.U.U.k.G.H.#.% O @ @ @ fXfXfXfXfXfXfXfXfXfXfX",
"fXfXfXfXfXfXfXfXfXfXfXfXfXfX@ @ @ @ @ @ @ s W.-.d f b.R.U.U.R././.P o @ @ @ @ fXfXfXfXfXfXfXfXfXfXfX",
"fXfXfXfXfXfXfXfXfXfXfXfXfXfX@ @ @ @ @ @ @ o a @X_.L.k J.F.N.B.D.d.0 O @ @ @ @ fXfX@ fXfXfXfXfXfXfXfX",
"fXfXfXfXfXfXfXfXfXfXfXfXfXfXfX@ @ @ @ @ @ + < A.~.!.9.X.j l y v T O @ @ @ @ @ @ @ @ fXfXfXfXfXfXfXfX",
"fXfXfXfXfXfXfXfXfXfXfXfXfXfXfXfX@ @ @ @ @ @ + - 3 p t.R.a.g.7.t $ @ @ @ @ @ @ @ @ fXfXfXfXfXfXfXfXfX",
"fXfXfXfXfXfXfXfXfXfXfXfXfXfXfXfXfX@ @ @ @ @ @ + + O 7 L K K q $ @ @ @ @ @ @ @ fXfXfXfXfXfXfXfXfXfXfX",
"fXfXfXfXfXfXfXfXfXfXfXfXfXfXfXfXfXfX@ @ @ @ @ @ fXfXfXfXo o O @ @ @ @ @ @ @ fXfXfXfXfXfXfXfXfXfXfXfX",
"fXfXfXfXfXfXfXfXfXfXfXfXfXfXfXfXfXfXfXfXfXfXfXfXfXfXfXfXfXfXfX@ @ @ @ @ @ fXfXfXfXfXfXfXfXfXfXfXfXfX",
"fXfXfXfXfXfXfXfXfXfXfXfXfXfXfXfXfXfXfXfXfXfXfXfXfXfXfXfXfXfXfX@ @ @ @ fXfXfXfXfXfXfXfXfXfXfXfXfXfXfX",
"fXfXfXfXfXfXfXfXfXfXfXfXfXfXfXfXfXfXfXfXfXfXfXfXfXfXfXfXfXfX@ @ fXfXfXfXfXfXfXfXfXfXfXfXfXfXfXfXfXfX",
"fXfXfXfXfXfXfXfXfXfXfXfXfXfXfXfXfXfXfXfXfXfXfXfXfXfXfXfXfXfXfXfXfXfXfXfXfXfXfXfXfXfXfXfXfXfXfXfXfXfX",
"fXfXfXfXfXfXfXfXfXfXfXfXfXfXfXfXfXfXfXfXfXfXfXfXfXfXfXfXfXfXfXfXfXfXfXfXfXfXfXfXfXfXfXfXfXfXfXfXfXfX"
};
