/* XPM */
static char *result[] = {
/* columns rows colors chars-per-pixel */
"50 50 101 2 ",
"   c #B00109",
".  c #B00209",
"X  c #B00309",
"o  c #B10309",
"O  c #B10409",
"+  c #B10509",
"@  c #B20509",
"#  c #B20609",
"$  c #B20709",
"%  c #B30709",
"&  c #B30809",
"*  c #B30909",
"=  c #B40909",
"-  c #B40A09",
";  c #B40B09",
":  c #B60D09",
">  c #B60E09",
",  c #B60F09",
"<  c #B70F09",
"1  c #B71009",
"2  c #B81109",
"3  c #B91308",
"4  c #B81209",
"5  c #B91408",
"6  c #BA1408",
"7  c #BA1508",
"8  c #BA1608",
"9  c #BB1708",
"0  c #BB1808",
"q  c #BC1908",
"w  c #BC1A08",
"e  c #BD1A08",
"r  c #BD1B08",
"t  c #BD1C08",
"y  c #BF1E08",
"u  c #BF1F08",
"i  c #C02008",
"p  c #C02108",
"a  c #C12208",
"s  c #C12308",
"d  c #C22408",
"f  c #C22508",
"g  c #C32608",
"h  c #C32708",
"j  c #C42808",
"k  c #C42908",
"l  c #C52B08",
"z  c #C62B08",
"x  c #C62C08",
"c  c #C72F08",
"v  c #C82F08",
"b  c #C93107",
"n  c #C93207",
"m  c #CA3307",
"M  c #CA3407",
"N  c #CB3607",
"B  c #CC3707",
"V  c #CD3907",
"C  c #CD3A07",
"Z  c #CE3B07",
"A  c #CF3E07",
"S  c #C83008",
"D  c #D03F07",
"F  c #D24207",
"G  c #D24307",
"H  c #D24407",
"J  c #D34507",
"K  c #D34607",
"L  c #D44607",
"P  c #D44707",
"I  c #D44807",
"U  c #D54807",
"Y  c #D54907",
"T  c #D84F06",
"R  c #D84E07",
"E  c #D84F07",
"W  c #D95006",
"Q  c #D95106",
"!  c #D95206",
"~  c #DA5206",
"^  c #DA5306",
"/  c #DB5406",
"(  c #DB5506",
")  c #DC5606",
"_  c #DC5706",
"`  c #DD5706",
"'  c #DD5806",
"]  c #DD5906",
"[  c #DE5906",
"{  c #DE5A06",
"}  c #DE5B06",
"|  c #DF5B06",
" . c #DF5C06",
".. c #DF5D06",
"X. c #E05D06",
"o. c #E05E06",
"O. c #E05F06",
"+. c #E15F06",
"@. c #E16006",
"#. c #E26106",
"$. c None",
/* pixels */
"$.$.$.$.$.$.$.$.$.$.$.$.$.$.$.$.$.$.$.$.$.$.$.$.$.$.$.$.$.$.$.$.$.$.$.$.$.$.$.$.$.$.$.$.$.$.$.$.$.$.",
"$.$.$.$.$.$.$.$.$.$.$.$.$.$.$.$.$.$.$.$.$.$.$.$.$.$.$.$.$.$.$.$.$.$.$.$.$.$.$.$.$.$.$.$.$.$.$.$.$.$.",
"$.$.$.$.$.$.$.$.$.$.$.$.$.$.$.$.$.$.$.$.$.$.$.$.$.$.$.$.$.$.$.$.$.$.$.$.$.$.$.$.$.$.$.$.$.$.$.$.$.$.",
"$.$.$.$.$.$.$.$.$.$.$.$.$.$.$.$.$.$.$.$.$.$.$.$.$.$.$.$.$.$.$.$.$.$.$.$.$.$.$.$.$.$.$.$.$.$.$.$.$.$.",
"$.$.$.$.$.$.$.$.$.$.$.$.$.$.$.$.$.$.$.$.$.$.$.$.$.$.$.$.$.$.$.$.$.$.$.$.$.$.$.$.$.$.$.$.$.$.$.$.$.$.",
"$.$.$.$.$.$.$.$.$.$.$.$.$.$.$.$.$.$.$.$.$.$.$.$.$.$.$.$.$.$.$.$.$.$.$.$.$.$.$.$.$.$.$.$.$.$.$.$.$.$.",
"$.$.$.$.$.$.$.$.$.$.$.$.$.$.$.$.$.$.$.$.$.$.$.$.$.$.$.$.$.$.$.$.$.$.$.$.$.$.$.$.$.$.$.$.$.$.$.$.$.$.",
"$.$.$.$.$.$.$.$.$.$.$.$.$.$.$.$.$.$.$.$.$.$.$.$.$.$.$.$.$.$.$.$.$.$.$.$.$.$.$.$.$.$.$.$.$.$.$.$.$.$.",
"$.$.$.$.$.$.$.$.$.$.$.$.$.$.$.$.$.$.$.$.$.$.$.$.$.$.$.$.$.$.$.$.$.$.$.$.$.$.$.$.$.$.$.$.$.$.$.$.$.$.",
"$.$.$.$.$.$.$.$.$.$.$.$.$.$.$.$.$.$.$.$.$.$.$.$.$.$.$.$.$.$.$.$.$.$.$.$.$.$.$.$.$.$.$.$.$.$.$.$.$.$.",
"$.$.$.$.$.$.$.$.$.$.$.$.$.$.$.$.$.$.$.$.$.$.$.$.$.$.$.$.$.$.$.$.$.$.$.$.$.$.$.$.$.$.$.$.$.$.$.$.$.$.",
"$.$.$.$.$.$.$.$.$.$.$.$.$.$.$.$.$.$.$.$.$.$.$.$.$.$.$.$.$.$.$.$.$.$.$.$.$.$.$.$.$.$.$.$.$.$.$.$.$.$.",
"$.$.$.$.$.$.$.$.$.$.$.$.$.$.$.$.$.$.$.$.$.$.$.$.$.$.$.$.$.$.$.$.$.$.$.$.$.$.$.$.$.$.$.$.$.$.$.$.$.$.",
"$.$.$.$.$.$.$.$.$.$.$.$.$.$.$.$.$.$.$.$.$.$.$.$.$.$.$.$.$.$.$.$.$.$.$.$.$.$.$.$.$.$.$.$.$.$.$.$.$.$.",
"$.$.$.$.$.$.$.$.$.$.$.$.$.O O O $.$.$.$.$.$.$.$.$.$.$.$.O O O O $.$.$.$.$.$.$.$.$.$.$.$.$.$.$.$.$.$.",
"$.$.$.$.$.$.$.$.$.$.$.O O O O O O O $.$.$.$.$.$.$.$.O O O O O O O O $.$.$.O $.$.$.$.$.$.$.$.$.$.$.$.",
"$.$.$.$.$.$.$.$.$.$.$.$.$.$.O O O O O O O $.$.$.$.O O O O O O O O O O $.$.O O $.$.$.$.$.$.$.$.$.$.$.",
"$.$.$.$.$.$.$.$.$.$.$.$.$.$.$.O O O O O O O O O O O O O O O O O O O O O O O O O O $.$.$.$.$.$.$.$.$.",
"$.$.$.$.$.$.$.$.$.$.$.$.$.$.$.O O O O O O O X . . . . . . o O O O O O O O O O O O O $.$.$.$.$.$.$.$.",
"$.$.$.$.$.$.$.$.$.$.$.$.$.$.$.$.O O O O X $ e g f f f f d 1 % . . o O O O O O O O O $.$.$.$.$.$.$.$.",
"$.$.$.$.$.$.$.$.$.$.$.$.$.$.$.O O O O # s G ] O.O.O.O.O.o.^ J c h : o O O O O O O O O $.$.$.$.$.$.$.",
"$.$.$.$.$.$.$.$.$.$.$.$.$.$.O O O O o v  .+.o.o.o.o.o.o.o.O.+.@.X.W i O O O O O O O O $.$.$.$.$.$.$.",
"$.$.$.$.$.$.$.$.$.$.$.$.$.O O O O O u _ +.o.o.o.o.o.o.o.o.o.o.o.o.+.' k O O O O O O O $.$.$.$.$.$.$.",
"$.$.$.$.$.$.$.$.$.$.$.$.$.O O O O O y Q ] X.O.o.o.o.o.o.o.o.o.o.o.o.+.) 8 X O O O O O $.$.$.$.$.$.$.",
"$.$.$.$.$.$.$.$.$.$.O O O O O O O O o < 5 k T @.o.o.o.o.o.o.o.o.o.o.o.+.A # O O O O O $.$.$.$.$.$.$.",
"$.$.$.$.O O $.$.$.$.O O O O O O O O O o X . r F X.o.o.o.o.o.o.o.o.o.o.o.} i X O O O O $.$.$.$.$.$.$.",
"$.$.$.$.O $.$.$.$.$.O O O O O O O O O O O O . 2 _ o.o.o.o.o.o.o.o.o.o.o.@.Z @ O O O O $.$.$.$.$.$.$.",
"$.$.$.O $.$.$.$.$.$.O O O O O O O O O O O O o 1 ) o.o.o.o.o.o.o.o.o.o.o.O./ , o O O O $.$.$.$.$.$.$.",
"$.$.$.$.$.$.$.$.$.$.$.O O O O O O O O O O O o 1 ) o.o.O.+.+.o.o.o.o.o.o.O.( < o O O O $.$.$.$.$.$.$.",
"$.$.$.$.$.$.$.$.$.$.$.O O O O O O * % . X X X < ) O...! T T } +.o.o.o.o.O.( < o O O $.$.$.$.$.$.$.$.",
"$.$.$.$.$.$.$.$.$.$.$.$.O O O O o : l r w 7 & S  .o.' 9 = ; u D ` o.o.O.o./ < o O $.$.$.$.$.$.$.$.$.",
"$.$.$.$.O $.$.$.$.$.$.O O O O O O o i ~ X._ Y  .o.+.D # o O X O d | @.Y u r % O O $.$.$.$.$.$.$.$.$.",
"$.$.$.$.$.$.$.$.O O O O O O O O O O X q R @.@.o.o.@.V X X X X X & I ) r   X O O O $.$.$.$.$.$.$.$.$.",
"$.$.$.$.$.$.$.$.$.O O O O O O O O O O . q R ^ o.o.o.( t 2 4 4 4 S } x X O O O O O $.$.$.$.$.$.$.$.$.",
"$.$.$.$.$.$.$.$.$.O O O O O O O O O O o : 8 > Z X.o.o.' _ _ ' U f m s 2 % O O O O O $.$.$.$.$.$.$.$.",
"$.$.$.$.$.$.$.$.$.O O O O O O O O O O O @ a & $ n { o.o.o.o.o.z - Z S # O O O O O O O O O $.$.$.$.$.",
"$.$.$.$.$.$.$.$.$.O O O O O O O O O O O @ A m @ O B @.o.o.o.o.T W Q 9 + O O O O O O O O O O $.$.$.$.",
"$.$.$.$.$.$.$.$.$.$.O O O O O O O O O X 6 ' Q = # N ' o.o.o.o.+.#.L # O O O O O O O O O O O $.$.$.$.",
"$.$.$.$.$.$.$.$.$.$.O O O O O O O O O X 0  .[ y O = v @.o.o.+.W k 5 O O O O O O O O O O O O $.$.$.$.",
"$.$.$.$.$.$.$.$.$.$.$.O O O O O O O O X 9 ] @.Q i - 4 x k E +.P o o O O O O O O $.$.$.O O $.$.$.$.$.",
"$.$.$.$.$.$.$.$.$.$.$.$.$.O O O O O O O & y V R H p < 8 X j C b + O O O O O O $.$.$.$.O O $.$.$.$.$.",
"$.$.$.$.$.$.$.$.$.$.$.$.$.$.$.$.$.O O O O X X < M Y Q ( r k ( N + O O O O O O $.$.$.$.O $.$.$.$.$.$.",
"$.$.$.$.$.$.$.$.$.$.$.$.$.$.$.$.$.$.$.O O O O o o > k P K P G 3 O O O O O O $.$.$.$.$.$.$.$.$.$.$.$.",
"$.$.$.$.$.$.$.$.$.$.$.$.$.$.$.$.$.$.$.O O O O O O o X % * * # o O O O O O $.$.$.$.$.$.$.$.$.$.$.$.$.",
"$.$.$.$.$.$.$.$.$.$.$.O O $.$.$.$.$.$.O O O O O O O O O O O O O O O O O O $.$.$.$.$.$.$.$.$.$.$.$.$.",
"$.$.$.$.$.$.$.$.$.$.$.$.O O O $.$.$.$.$.O O O O O O O O O O O O O O O O O $.$.$.$.$.$.$.$.$.$.$.$.$.",
"$.$.$.$.$.$.$.$.$.$.$.$.$.$.$.$.$.$.$.$.O O O O O $.O O O O O O O O $.$.$.$.$.$.$.$.$.$.$.$.$.$.$.$.",
"$.$.$.$.$.$.$.$.$.$.$.$.$.$.$.$.$.$.$.$.$.$.$.$.$.O O O O O O $.$.$.$.$.$.$.$.$.$.$.$.$.$.$.$.$.$.$.",
"$.$.$.$.$.$.$.$.$.$.$.$.$.$.$.$.$.$.$.$.$.$.$.$.$.$.$.$.$.$.$.$.$.$.$.$.$.$.$.$.$.$.$.$.$.$.$.$.$.$.",
"$.$.$.$.$.$.$.$.$.$.$.$.$.$.$.$.$.$.$.$.$.$.$.$.$.$.$.$.$.$.$.$.$.$.$.$.$.$.$.$.$.$.$.$.$.$.$.$.$.$."
};
