/* XPM */
static char *result[] = {
/* columns rows colors chars-per-pixel */
"50 50 103 2 ",
"   c #B00109",
".  c #B00209",
"X  c #B00309",
"o  c #B10309",
"O  c #B10409",
"+  c #B10509",
"@  c #B20509",
"#  c #B20609",
"$  c #B20709",
"%  c #B30709",
"&  c #B30809",
"*  c #B30909",
"=  c #B40909",
"-  c #B40A09",
";  c #B40B09",
":  c #B50B09",
">  c #B50C09",
",  c #B60D09",
"<  c #B60E09",
"1  c #B60F09",
"2  c #B70F09",
"3  c #B81109",
"4  c #B91308",
"5  c #B81209",
"6  c #B91408",
"7  c #BA1408",
"8  c #BA1508",
"9  c #BB1608",
"0  c #BB1708",
"q  c #BB1808",
"w  c #BC1808",
"e  c #BC1908",
"r  c #BC1A08",
"t  c #BD1A08",
"y  c #BD1B08",
"u  c #BE1D08",
"i  c #BF1E08",
"p  c #BF1F08",
"a  c #C12208",
"s  c #C22408",
"d  c #C22508",
"f  c #C32608",
"g  c #C32708",
"h  c #C42808",
"j  c #C42908",
"k  c #C52A08",
"l  c #C62B08",
"z  c #C62C08",
"x  c #C72D08",
"c  c #C82F08",
"v  c #CA3507",
"b  c #CB3507",
"n  c #CC3807",
"m  c #CD3907",
"M  c #CD3A07",
"N  c #CE3B07",
"B  c #CE3C07",
"V  c #CF3D07",
"C  c #CF3E07",
"Z  c #C83008",
"A  c #D03F07",
"S  c #D14007",
"D  c #D14107",
"F  c #D14207",
"G  c #D24307",
"H  c #D24407",
"J  c #D34407",
"K  c #D34507",
"L  c #D34607",
"P  c #D44607",
"I  c #D44707",
"U  c #D44807",
"Y  c #D54807",
"T  c #D54907",
"R  c #D64B07",
"E  c #D64C07",
"W  c #D74C07",
"Q  c #D74D07",
"!  c #D84F06",
"~  c #D84E07",
"^  c #D85006",
"/  c #D95006",
"(  c #D95106",
")  c #DA5206",
"_  c #DB5406",
"`  c #DB5506",
"'  c #DC5606",
"]  c #DD5706",
"[  c #DD5806",
"{  c #DD5906",
"}  c #DE5906",
"|  c #DE5A06",
" . c #DE5B06",
".. c #DF5B06",
"X. c #DF5C06",
"o. c #DF5D06",
"O. c #E05D06",
"+. c #E05E06",
"@. c #E05F06",
"#. c #E15F06",
"$. c #E16006",
"%. c #E26106",
"&. c None",
/* pixels */
"&.&.&.&.&.&.&.&.&.&.&.&.&.&.&.&.&.&.&.&.&.&.&.&.&.&.&.&.&.&.&.&.&.&.&.&.&.&.&.&.&.&.&.&.&.&.&.&.&.&.",
"&.&.&.&.&.&.&.&.&.&.&.&.&.&.&.&.&.&.&.&.&.&.&.&.&.&.&.&.&.&.&.&.&.&.&.&.&.&.&.&.&.&.&.&.&.&.&.&.&.&.",
"&.&.&.&.&.&.&.&.&.&.&.&.&.&.&.&.&.&.&.&.&.&.&.&.&.&.&.&.&.&.&.&.&.&.&.&.&.&.&.&.&.&.&.&.&.&.&.&.&.&.",
"&.&.&.&.&.&.&.&.&.&.&.&.&.&.&.&.&.&.&.&.&.&.&.&.&.&.&.&.&.&.&.&.&.&.&.&.&.&.&.&.&.&.&.&.&.&.&.&.&.&.",
"&.&.&.&.&.&.&.&.&.&.&.&.&.&.&.&.&.&.&.&.&.&.&.&.&.&.&.&.&.&.&.&.&.&.&.&.&.&.&.&.&.&.&.&.&.&.&.&.&.&.",
"&.&.&.&.&.&.&.&.&.&.&.&.&.&.&.&.&.&.&.&.&.&.&.&.&.&.&.&.&.&.&.&.&.&.&.&.&.&.&.&.&.&.&.&.&.&.&.&.&.&.",
"&.&.&.&.&.&.&.&.&.&.&.&.&.&.&.&.&.&.&.&.&.&.&.&.&.&.&.&.&.&.&.&.&.&.&.&.&.&.&.&.&.&.&.&.&.&.&.&.&.&.",
"&.&.&.&.&.&.&.&.&.&.&.&.&.&.&.&.&.&.&.&.&.&.&.&.&.&.&.&.&.&.&.&.&.&.&.&.&.&.&.&.&.&.&.&.&.&.&.&.&.&.",
"&.&.&.&.&.&.&.&.&.&.&.&.&.&.&.&.&.&.&.&.&.&.&.&.&.&.&.&.&.&.&.&.&.&.&.&.&.&.&.&.&.&.&.&.&.&.&.&.&.&.",
"&.&.&.&.&.&.&.&.&.&.&.&.&.&.&.&.&.&.&.&.&.&.&.&.&.&.&.&.&.&.&.&.&.&.&.&.&.&.&.&.&.&.&.&.&.&.&.&.&.&.",
"&.&.&.&.&.&.&.&.&.&.&.&.&.&.&.&.&.&.&.&.&.&.&.&.&.&.&.&.&.&.&.&.&.&.&.&.&.&.&.&.&.&.&.&.&.&.&.&.&.&.",
"&.&.&.&.&.&.&.&.&.&.&.&.&.&.&.&.&.&.&.&.&.&.&.&.&.&.&.&.&.&.&.&.&.&.&.&.&.&.&.&.&.&.&.&.&.&.&.&.&.&.",
"&.&.&.&.&.&.&.&.&.&.&.&.O O O O &.&.&.&.&.&.&.&.&.&.&.&.&.&.&.&.&.&.&.&.&.&.&.&.&.&.&.&.&.&.&.&.&.&.",
"&.&.&.&.&.&.&.&.&.&.&.&.&.&.&.O &.&.&.&.&.&.&.&.&.&.&.&.&.&.&.&.&.&.O O O O &.&.&.&.&.&.&.&.&.&.&.&.",
"&.&.&.&.&.&.&.&.&.&.&.&.&.&.&.&.&.&.&.&.&.O O O O O &.&.&.&.&.O O &.&.&.&.&.&.&.&.&.&.&.&.&.&.&.&.&.",
"&.&.&.&.&.&.&.&.&.&.&.&.&.&.&.&.&.&.&.O O O O O O O O &.&.&.&.O O &.&.&.&.&.&.&.&.&.&.&.&.&.&.&.&.&.",
"&.&.&.&.&.&.&.&.&.&.&.&.&.&.&.&.&.&.O O O O O O O O O O O O O O &.&.&.&.&.&.&.&.&.&.&.&.&.&.&.&.&.&.",
"&.&.&.&.&.&.&.&.&.&.&.&.&.&.&.&.&.O O O O O O O O O O O O O O O O &.&.&.&.&.&.&.&.&.&.&.&.&.&.&.&.&.",
"&.&.&.&.&.&.&.&.&.&.&.&.&.&.&.&.&.O O O O O X . . . . X O O O O O &.&.&.&.&.&.&.&.&.&.&.&.&.&.&.&.&.",
"&.&.&.&.&.&.&.&.&.&.&.&.&.&.&.&.O O O X & ; y g d d f t = O X o O O &.&.&.&.&.&.&.&.&.&.&.&.&.&.&.&.",
"&.&.&.&.&.&.&.&.&.&.&.&.&.&.&.&.O O & f C J Q ' +.@.@.[ ~ v 9 : X O &.&.&.&.&.&.&.&.&.&.&.&.&.&.&.&.",
"&.&.&.&.&.&.&.&.&.&.&.&.&.&.&.&.O o > j w < , 8 ( $.+.+.#.#.[ Q Z ; X O &.&.&.&.&.&.&.&.&.&.&.&.&.&.",
"&.&.&.&.&.&.&.&.&.&.&.&.&.&.&.O O O O . X o o o e K  .@.+.+.+.#.+.T d + O O O O &.&.&.&.&.&.&.&.&.&.",
"&.&.&.&.&.&.&.O &.&.&.&.&.&.O O O O O O O O O O o # j ] +.+.+.+.+.#. .Z % O O O O O &.&.&.&.&.&.&.&.",
"&.&.&.&.&.&.&.&.&.&.&.&.&.O O O O O O O O O O O O O X c #.+.+.+.+.+.+.+.l o O O O O &.&.&.&.&.&.&.&.",
"&.&.&.&.&.&.&.&.&.&.&.&.O O O O O O O O O O O O O O . h #.+.+.+.+.+.+.@.' p X O O O O &.&.&.&.&.&.&.",
"&.&.&.&.&.&.&.&.&.&.&.&.O O O O O O O O O O O O O O . j #.#.$.#.+.+.+.+.$.N @ O O O O &.&.&.&.&.&.&.",
"&.&.&.&.&.&.&.&.&.&.&.&.O O O O O O O O O O O O O o = L | K A P o.+.+.+.@._ 1 o O O O &.&.&.&.&.&.&.",
"&.&.&.&.&.&.&.&.&.&.&.&.O O O O O O O o X X O O o = n } a $ o & b +.+.+.@.` 2 o O O O O O &.&.&.&.&.",
"&.&.&.&.&.&.&.&.&.&.&.&.O O O O O O O < 4 4 - X < D @.| 6 X O X > W @.+.#.' 2 o O O O O O O &.&.&.&.",
"&.&.&.&.&.&.&.&.&.&.&.&.O O O O O O O A | [ U B E @.+.| 8 . O O X C $.V s Z , o O O O O O O O &.&.&.",
"&.&.&.&.&.&.&.&.&.&.&.&.O O O O O O o d +.#.#.$.#.+.+.O.B : X X = T _ 3   O O O O O O O O O O &.&.&.",
"&.&.&.&.&.&.&.&.&.&.&.&.&.O O O O O O & z Q +.+.+.[ +.#.@.H 4 : z +.! * O O O O O O O O O O O O &.&.",
"&.&.&.&.&.&.&.&.&.&.&.&.&.&.O O O O O O . p ..#.G 8 k G @.@.` ) X.O.H & O O O O O O O &.&.&.O O &.&.",
"&.&.&.&.&.&.&.&.&.&.&.&.&.&.&.O O O O O & S #.O.g   . 6 _ @.@.#.Y a : O O O O O O O O O &.&.&.O &.&.",
"&.&.&.&.&.&.&.&.&.O O &.&.&.&.O O O O . q | #.I - O . i | +.#.Q >   O O O O O O O O O O &.&.&.&.&.&.",
"&.&.&.&.&.&.&.&.&.&.&.&.&.&.&.O O O o > G +.{ i X O # x #.+.@.^ j 7 O O O O O O O O &.&.&.&.&.&.&.&.",
"&.&.&.&.&.&.&.&.&.&.&.&.&.&.&.O O O o Z @.#./ - O . f [ @.@.+.#.$.D # O O O O O O &.&.&.&.&.&.&.&.&.",
"&.&.&.&.&.&.&.&.&.&.&.&.&.&.&.&.O O O N @.@.' 9 o . z %.R T } F ~ h X O O O O &.&.&.&.&.&.&.&.&.&.&.",
"&.&.&.&.&.&.&.&.&.&.&.&.&.&.&.O O O O > Y $.` 0 . + v $.K 6 e # 0 < o O O O &.&.&.&.&.&.&.&.&.&.&.&.",
"&.&.&.&.&.&.&.&.&.&.&.&.&.&.&.O O O O X w ~ #.~ y & e ( o.9   O X o O O O &.&.&.&.&.&.&.&.&.&.&.&.&.",
"&.&.&.&.&.&.&.&.&.&.&.&.&.&.&.O O O O O X 5 W $.{ Z X u E s o O O O O O &.&.&.&.&.&.&.&.&.&.&.&.&.&.",
"&.&.&.&.&.&.&.&.&.&.&.&.&.&.&.O O O O O O . p ` $.[ M r < ; O O O O O &.&.&.&.&.&.&.&.&.&.&.&.&.&.&.",
"&.&.&.&.&.&.&.&.&.&.&.&.&.&.&.O O O O O O O o r ~ o.o.[ m : o O O O O &.&.&.&.&.&.&.&.&.&.&.&.&.&.&.",
"&.&.&.&.&.&.&.&.&.&.&.&.&.&.&.&.O O O O O O O X 2 r e t 4 O O O O O O &.&.&.&.&.&.&.&.&.&.&.&.&.&.&.",
"&.&.&.&.&.&.&.&.&.&.&.&.&.&.&.&.&.&.&.&.&.&.&.&.o X X X o O O O O O O O &.&.&.&.&.&.&.&.&.&.&.&.&.&.",
"&.&.&.&.&.&.&.&.&.&.&.&.&.&.&.&.&.&.&.&.&.&.&.&.&.O O O O O &.&.&.&.&.&.&.&.&.&.&.&.&.&.&.&.&.&.&.&.",
"&.&.&.&.&.&.&.&.&.&.&.&.&.&.&.&.&.&.&.&.&.&.&.&.&.&.&.&.&.&.&.&.&.&.&.&.&.&.&.&.&.&.&.&.&.&.&.&.&.&.",
"&.&.&.&.&.&.&.&.&.&.&.&.&.&.&.&.&.&.&.&.&.&.&.&.&.&.&.&.&.&.&.&.&.&.&.&.&.&.&.&.&.&.&.&.&.&.&.&.&.&.",
"&.&.&.&.&.&.&.&.&.&.&.&.&.&.&.&.&.&.&.&.&.&.&.&.&.&.&.&.&.&.&.&.&.&.&.&.&.&.&.&.&.&.&.&.&.&.&.&.&.&."
};
