/* XPM */
static char *result[] = {
/* columns rows colors chars-per-pixel */
"50 50 105 2 ",
"   c #B00109",
".  c #B00209",
"X  c #B00309",
"o  c #B10309",
"O  c #B10409",
"+  c #B10509",
"@  c #B20509",
"#  c #B20609",
"$  c #B20709",
"%  c #B30709",
"&  c #B30809",
"*  c #B30909",
"=  c #B40909",
"-  c #B40A09",
";  c #B40B09",
":  c #B50B09",
">  c #B60D09",
",  c #B60E09",
"<  c #B60F09",
"1  c #B70F09",
"2  c #B71009",
"3  c #B81109",
"4  c #B81209",
"5  c #B91209",
"6  c #B91408",
"7  c #BA1508",
"8  c #BA1608",
"9  c #BB1608",
"0  c #BB1708",
"q  c #BC1908",
"w  c #BC1A08",
"e  c #BD1A08",
"r  c #BD1B08",
"t  c #BD1C08",
"y  c #BF1E08",
"u  c #BF1F08",
"i  c #C02008",
"p  c #C02108",
"a  c #C12308",
"s  c #C22408",
"d  c #C22508",
"f  c #C32608",
"g  c #C32708",
"h  c #C42908",
"j  c #C52A08",
"k  c #C52B08",
"l  c #C62B08",
"z  c #C62C08",
"x  c #C62D08",
"c  c #C72E08",
"v  c #C72F08",
"b  c #C93207",
"n  c #CA3307",
"m  c #CA3407",
"M  c #CB3507",
"N  c #CB3607",
"B  c #CC3807",
"V  c #CD3A07",
"C  c #CE3B07",
"Z  c #CF3E07",
"A  c #C83008",
"S  c #D04007",
"D  c #D14007",
"F  c #D14107",
"G  c #D24307",
"H  c #D24407",
"J  c #D34407",
"K  c #D34507",
"L  c #D34607",
"P  c #D44707",
"I  c #D44807",
"U  c #D54907",
"Y  c #D54A07",
"T  c #D64A07",
"R  c #D64C07",
"E  c #D74D07",
"W  c #D74E07",
"Q  c #D84F06",
"!  c #D84E07",
"~  c #D84F07",
"^  c #D85006",
"/  c #D95006",
"(  c #D95106",
")  c #DA5206",
"_  c #DA5306",
"`  c #DB5406",
"'  c #DB5506",
"]  c #DC5606",
"[  c #DC5706",
"{  c #DD5806",
"}  c #DD5906",
"|  c #DE5906",
" . c #DE5A06",
".. c #DE5B06",
"X. c #DF5B06",
"o. c #DF5C06",
"O. c #DF5D06",
"+. c #E05D06",
"@. c #E05E06",
"#. c #E05F06",
"$. c #E15F06",
"%. c #E16006",
"&. c #E16106",
"*. c #E26106",
"=. c None",
/* pixels */
"=.=.=.=.=.=.=.=.=.=.=.=.=.=.=.=.=.=.=.=.=.=.=.=.=.=.=.=.=.=.=.=.=.=.=.=.=.=.=.=.=.=.=.=.=.=.=.=.=.=.",
"=.=.=.=.=.=.=.=.=.=.=.=.=.=.=.=.=.=.=.=.=.=.=.=.=.=.=.=.=.=.=.=.=.=.=.=.=.=.=.=.=.=.=.=.=.=.=.=.=.=.",
"=.=.=.=.=.=.=.=.=.=.=.=.=.=.=.=.=.=.=.=.=.=.=.=.=.=.=.=.=.=.=.=.=.=.=.=.=.=.=.=.=.=.=.=.=.=.=.=.=.=.",
"=.=.=.=.=.=.=.=.=.=.=.=.=.=.=.=.=.=.=.=.=.=.=.=.=.=.=.=.=.=.=.=.=.=.=.=.=.=.=.=.=.=.=.=.=.=.=.=.=.=.",
"=.=.=.=.=.=.=.=.=.=.=.=.=.=.=.=.=.=.=.=.=.=.=.=.=.=.=.=.=.=.=.=.=.=.=.=.=.=.=.=.=.=.=.=.=.=.=.=.=.=.",
"=.=.=.=.=.=.=.=.=.=.=.=.=.=.=.=.=.=.=.=.=.=.=.=.=.=.=.=.=.=.=.=.=.=.=.=.=.=.=.=.=.=.=.=.=.=.=.=.=.=.",
"=.=.=.=.=.=.=.=.=.=.=.=.=.=.=.=.=.=.=.=.=.=.=.=.=.=.=.=.=.=.=.=.=.=.=.=.=.=.=.=.=.=.=.=.=.=.=.=.=.=.",
"=.=.=.=.=.=.=.=.=.=.=.=.=.=.=.=.=.=.=.=.=.=.=.=.=.=.=.=.=.=.=.=.=.=.=.=.=.=.=.=.=.=.=.=.=.=.=.=.=.=.",
"=.=.=.=.=.=.=.=.=.=.=.=.=.=.=.=.=.=.=.=.=.=.=.=.=.=.=.=.=.=.=.=.=.=.=.=.=.=.=.=.=.=.=.=.=.=.=.=.=.=.",
"=.=.=.=.=.=.=.=.=.=.=.=.=.=.=.=.=.=.=.=.=.=.=.=.=.=.=.=.=.=.=.=.=.=.=.=.=.=.=.=.=.=.=.=.=.=.=.=.=.=.",
"=.=.=.=.=.=.=.=.=.=.=.=.=.=.=.=.=.=.=.=.=.=.=.=.=.=.=.=.=.=.=.=.=.=.=.=.=.=.=.=.=.=.=.=.=.=.=.=.=.=.",
"=.=.=.=.=.=.=.=.=.=.=.=.=.=.=.=.=.=.=.=.=.=.=.=.=.=.=.=.=.=.=.=.=.=.=.=.=.=.=.=.=.=.=.=.=.=.=.=.=.=.",
"=.=.=.=.=.=.=.=.=.=.=.=.=.=.=.=.=.=.=.=.=.=.=.=.=.=.=.=.=.=.=.=.=.=.=.=.=.=.=.=.=.=.=.=.=.=.=.=.=.=.",
"=.=.=.=.=.=.=.=.=.=.=.=.=.=.=.=.=.=.=.=.=.=.=.=.=.=.=.=.=.=.=.=.=.=.=.=.=.=.=.=.=.=.=.=.=.=.=.=.=.=.",
"=.=.=.=.=.=.=.=.=.=.=.=.=.=.=.=.O =.=.=.=.=.=.=.=.=.=.=.=.=.=.=.=.O O O O O O =.=.=.=.=.=.=.=.=.=.=.",
"=.=.=.=.=.=.=.=.=.=.=.=.=.=.O O =.=.=.=.=.=.=.=.=.=.=.=.=.=.=.O O O O O =.=.=.=.=.=.=.=.=.=.=.=.=.=.",
"=.=.=.=.=.=.=.=.=.=.=.=.=.=.O O =.=.=.=.=.=.=.=.=.=.O O O O O O O O O O =.=.=.=.=.=.=.=.=.=.=.=.=.=.",
"=.=.=.=.=.=.=.=.=.=.=.=.=.O O O O =.=.O O O O O O O O O O O O O O O O O =.=.=.=.=.=.=.=.=.=.=.=.=.=.",
"=.=.=.=.=.=.=.=.=.=.=.=.=.O O O O O O O O O X . . . . . . o O O O O O O O O =.=.=.=.=.=.=.=.=.=.=.=.",
"=.=.=.=.=.=.=.=.=.=.=.=.O O O O O O O O X $ e f d d d d s 2 % . . o O O O O O =.=.=.=.=.=.=.=.=.=.=.",
"=.=.=.=.=.=.=.=.=.=.=.=.O O O O O O O # a G } #.#.#.#.#.@._ K v g > o O O O O O =.=.=.=.=.=.=.=.=.=.",
"=.=.=.=.=.=.=.=.=.=.=.=.O O O O O O O A o.$.@.@.@.@.@.@.@.#.$.%.+./ i O O O O O O =.=.=.=.=.=.=.=.=.",
"=.=.=.=.=.=.=.=.=.=.=.=.O O O O O o , E #.@.@.@.@.@.@.@.@.@.@.@.@.$.{ h O O O O O =.=.=.=.=.=.=.=.=.",
"=.=.=.=.=.=.=.=.=.=.=.=.O O O O O O @ 7 L $.@.@.@.@.@.@.@.@.@.@.@.@.$.] 8 X O O O =.=.=.=.=.=.=.=.=.",
"=.=.=.=.=.=.=.=.=.=.=.=.O O O O O O O . t | #.@.@.@.@.@.@.@.@.@.@.@.@.$.Z # O O O =.=.=.=.=.=.=.=.=.",
"=.=.=.=.=.=.=.=.=.=.=.=.O O O O O O O O + g [ $.@.@.@.@.@.@.@.@.@.@.@.@...i X O O O =.=.=.=.=.=.=.=.",
"=.=.=.=.=.=.=.=.=.=.=.=.O O O O O O O O O o u U P #.@.@.@.@.@.@.@.@.@.@.%.C @ O O O O =.=.=.=.=.=.=.",
"=.=.=.=.=.=.=.=.=.=.=.=.=.O O O O O O O O O o , q [ @.@.@.@.@.@.@.@.@.@.#.` < o O O O =.=.=.=.=.=.=.",
"=.=.=.=.=.=.=.=.=.=.=.=.=.O O O O O O O O O O X > ` #.#.$.@.@.@.@.@.@.@.#.' 1 o O O O =.=.=.=.=.=.=.",
"=.=.=.=.=.=.=.=.=.=.=.=.=.O O O O O O X X O O o , ` @.) ^ X.$.$.@.@.@.@.#.' 1 o O O O =.=.=.=.=.=.=.",
"=.=.=.=.=.=.=.=.=.=.=.=.=.=.O O O O O 6 7 O O X d O.G > ; i S ! O.@.@.@.$.] 1 o O O O =.=.=.=.=.=.=.",
"=.=.=.=.=.=.=.=.=.=.=.=.=.O O O O O O D } j & 2 E *.N . O X @ : k o.@.o.{ v # O O O =.=.=.=.=.=.=.=.",
"=.=.=.=.=.=.=.=.=.=.=.=.=.O O O O O X i o.o.E ~ +.%.N   o X X O l +.%.M 5 @ O O O =.=.=.=.=.=.=.=.=.",
"=.=.=.=.=.=.=.=.=.=.=.=.O O O O O O O # z ~  .%.@.$.U 9 3 4 3 a  .$.( 0 . O O O =.=.=.=.=.=.=.=.=.=.",
"=.=.=.=.=.=.=.=.=.=.=.=.O O O O O O O X 3 d p _ %.@.@.} [ [ [ ..) m f . O O O O =.=.=.=.=.=.=.=.=.=.",
"=.=.=.=.=.=.=.=.=.=.=.=.O O O O O O O X w ] j q G o.@.@.@.@.#.] b 7 z O O O O O =.=.=.=.=.=.=.=.=.=.",
"=.=.=.=.=.=.=.=.=.=.=.=.O O O O O O O O B %.( = = K $.@.@.@.#.B & r 7 @ O O O O O =.=.=.=.=.=.=.=.=.",
"=.=.=.=.=.=.=.=.=.=.=.=.O O O O O O O O F *.C # . v %.$.@.@.@. .H F # O O O O O O =.=.=.=.=.=.=.=.=.",
"=.=.=.=.=.=.=.=.=.=.=.=.=.O O O O O O O F *.G ,   c [ R ..@.$.%._ 8 O O O O O O O O =.=.=.=.=.=.=.=.",
"=.=.=.=.=.=.=.=.=.=.=.=.=.=.O O O O O o y ) $.Q v i 7 - j n Y } U @ O O O O O O O O =.=.=.=.=.=.=.=.",
"=.=.=.=.=.=.=.=.=.=.=.=.=.=.=.O O O O O o 3 x W &.! 6 0 % & * l u O O O O O O O O O =.=.=.=.=.=.=.=.",
"=.=.=.=.=.=.=.=.=.=.=.=.=.=.=.=.O O O O O o . 1 n Q _ } V 3 h u o O O O O O O O =.O =.=.=.=.=.=.=.=.",
"=.=.=.=.=.=.=.=.=.=.=.=.=.=.=.=.=.O O O O O O o o , h I T J F 6 O O O O O O O =.=.=.=.=.=.=.=.=.=.=.",
"=.=.=.=.=.=.=.=.=.=.=.=.=.=.=.=.=.O O O O O O O O o X % & * # o O O O O O =.=.=.=.=.=.=.=.=.=.=.=.=.",
"=.=.=.=.=.=.=.=.=.=.=.=.=.=.=.=.=.=.O O O O O O O O O O O O O O O O O O =.=.=.=.=.=.=.=.=.=.=.=.=.=.",
"=.=.=.=.=.=.=.=.=.=.=.=.=.=.=.=.=.=.=.=.O O O O O O O O O O O O O =.=.=.=.=.=.=.=.=.=.=.=.=.=.=.=.=.",
"=.=.=.=.=.=.=.=.=.=.=.=.=.=.=.=.=.=.=.=.=.=.=.=.=.O O O O O O =.=.=.=.=.=.=.=.=.=.=.=.=.=.=.=.=.=.=.",
"=.=.=.=.=.=.=.=.=.=.=.=.=.=.=.=.=.=.=.=.=.=.=.O O O O =.=.=.=.=.=.=.=.=.=.=.=.=.=.=.=.=.=.=.=.=.=.=.",
"=.=.=.=.=.=.=.=.=.=.=.=.=.=.=.=.=.=.=.=.=.=.=.=.=.=.=.=.=.=.=.=.=.=.=.=.=.=.=.=.=.=.=.=.=.=.=.=.=.=.",
"=.=.=.=.=.=.=.=.=.=.=.=.=.=.=.=.=.=.=.=.=.=.=.=.=.=.=.=.=.=.=.=.=.=.=.=.=.=.=.=.=.=.=.=.=.=.=.=.=.=."
};
