/* XPM */
static char *result[] = {
/* columns rows colors chars-per-pixel */
"50 50 101 2 ",
"   c #B00109",
".  c #B00209",
"X  c #B00309",
"o  c #B10309",
"O  c #B10409",
"+  c #B10509",
"@  c #B20509",
"#  c #B20609",
"$  c #B20709",
"%  c #B30709",
"&  c #B30809",
"*  c #B30909",
"=  c #B40909",
"-  c #B40A09",
";  c #B40B09",
":  c #B60D09",
">  c #B60E09",
",  c #B60F09",
"<  c #B70F09",
"1  c #B71009",
"2  c #B81109",
"3  c #B91308",
"4  c #B81209",
"5  c #B91408",
"6  c #BA1408",
"7  c #BA1508",
"8  c #BA1608",
"9  c #BB1708",
"0  c #BB1808",
"q  c #BC1908",
"w  c #BC1A08",
"e  c #BD1A08",
"r  c #BD1B08",
"t  c #BD1C08",
"y  c #BF1E08",
"u  c #BF1F08",
"i  c #C02008",
"p  c #C02108",
"a  c #C12208",
"s  c #C12308",
"d  c #C22408",
"f  c #C22508",
"g  c #C32608",
"h  c #C32708",
"j  c #C42808",
"k  c #C42908",
"l  c #C52B08",
"z  c #C62B08",
"x  c #C62C08",
"c  c #C72F08",
"v  c #C82F08",
"b  c #C93107",
"n  c #C93207",
"m  c #CA3307",
"M  c #CA3407",
"N  c #CB3607",
"B  c #CC3707",
"V  c #CD3907",
"C  c #CD3A07",
"Z  c #CE3B07",
"A  c #CF3E07",
"S  c #C83008",
"D  c #D03F07",
"F  c #D24207",
"G  c #D24307",
"H  c #D24407",
"J  c #D34507",
"K  c #D34607",
"L  c #D44607",
"P  c #D44707",
"I  c #D44807",
"U  c #D54807",
"Y  c #D54907",
"T  c #D84F06",
"R  c #D84E07",
"E  c #D84F07",
"W  c #D95006",
"Q  c #D95106",
"!  c #D95206",
"~  c #DA5206",
"^  c #DA5306",
"/  c #DB5406",
"(  c #DB5506",
")  c #DC5606",
"_  c #DC5706",
"`  c #DD5706",
"'  c #DD5806",
"]  c #DD5906",
"[  c #DE5906",
"{  c #DE5A06",
"}  c #DE5B06",
"|  c #DF5B06",
" . c #DF5C06",
".. c #DF5D06",
"X. c #E05D06",
"o. c #E05E06",
"O. c #E05F06",
"+. c #E15F06",
"@. c #E16006",
"#. c #E26106",
"$. c None",
/* pixels */
"$.$.$.$.$.$.$.$.$.$.$.$.$.$.$.$.$.$.$.$.$.$.$.$.$.$.$.$.$.$.$.$.$.$.$.$.$.$.$.$.$.$.$.$.$.$.$.$.$.$.",
"$.$.$.$.$.$.$.$.$.$.$.$.$.$.$.$.$.$.$.$.$.$.$.$.$.$.$.$.$.$.$.$.$.$.$.$.$.$.$.$.$.$.$.$.$.$.$.$.$.$.",
"$.$.$.$.$.$.$.$.$.$.$.$.$.$.$.$.$.$.$.$.$.$.$.$.$.$.$.$.$.$.$.$.$.$.$.$.$.$.$.$.$.$.$.$.$.$.$.$.$.$.",
"$.$.$.$.$.$.$.$.$.$.$.$.$.$.$.$.$.$.$.$.$.$.$.$.$.$.$.$.$.$.$.$.$.$.$.$.$.$.$.$.$.$.$.$.$.$.$.$.$.$.",
"$.$.$.$.$.$.$.$.$.$.$.$.$.$.$.$.$.$.$.$.$.$.$.$.$.$.$.$.$.$.$.$.$.$.$.$.$.$.$.$.$.$.$.$.$.$.$.$.$.$.",
"$.$.$.$.$.$.$.$.$.$.$.$.$.$.$.$.$.$.$.$.$.$.$.$.$.$.$.$.$.$.$.$.$.$.$.$.$.$.$.$.$.$.$.$.$.$.$.$.$.$.",
"$.$.$.$.$.$.$.$.$.$.$.$.$.$.$.$.$.$.$.$.$.$.$.$.$.$.$.$.$.$.$.$.$.$.$.$.$.$.$.$.$.$.$.$.$.$.$.$.$.$.",
"$.$.$.$.$.$.$.$.$.$.$.$.$.$.$.$.$.$.$.$.$.$.$.$.$.$.$.$.$.$.$.$.$.$.$.$.$.$.$.$.$.$.$.$.$.$.$.$.$.$.",
"$.$.$.$.$.$.$.$.$.$.$.$.$.$.$.$.$.$.$.$.$.$.$.$.$.$.$.$.$.$.$.$.$.$.$.$.$.$.$.$.$.$.$.$.$.$.$.$.$.$.",
"$.$.$.$.$.$.$.$.$.$.$.$.$.$.$.$.$.$.$.$.$.$.$.$.$.$.$.$.$.$.$.$.$.$.$.$.$.$.$.$.$.$.$.$.$.$.$.$.$.$.",
"$.$.$.$.$.$.$.$.$.$.$.$.$.$.$.$.$.$.$.$.$.$.$.$.$.$.$.$.$.$.$.$.$.$.$.$.$.$.$.$.$.$.$.$.$.$.$.$.$.$.",
"$.$.$.$.$.$.$.$.$.$.$.$.$.$.$.$.$.$.$.$.$.$.$.$.$.$.$.$.$.$.$.$.$.$.$.$.$.$.$.$.$.$.$.$.$.$.$.$.$.$.",
"$.$.$.$.$.$.$.$.$.$.$.$.$.$.$.$.$.$.$.$.$.$.$.$.$.$.$.$.$.$.$.$.$.$.$.$.$.$.$.$.$.$.$.$.$.$.$.$.$.$.",
"$.$.$.$.$.$.$.$.$.$.$.$.$.$.$.$.$.$.$.$.$.$.$.$.$.$.$.$.$.$.$.$.$.$.$.$.$.$.$.$.$.$.$.$.$.$.$.$.$.$.",
"$.$.$.$.$.$.$.$.$.$.$.$.$.$.$.$.$.$.O O O O $.$.$.$.$.$.$.$.$.$.$.$.O O O $.$.$.$.$.$.$.$.$.$.$.$.$.",
"$.$.$.$.$.$.$.$.$.$.$.$.O $.$.$.O O O O O O O O $.$.$.$.$.$.$.$.O O O O O O O $.$.$.$.$.$.$.$.$.$.$.",
"$.$.$.$.$.$.$.$.$.$.$.O O $.$.O O O O O O O O O O $.$.$.$.O O O O O O O $.$.$.$.$.$.$.$.$.$.$.$.$.$.",
"$.$.$.$.$.$.$.$.$.O O O O O O O O O O O O O O O O O O O O O O O O O O $.$.$.$.$.$.$.$.$.$.$.$.$.$.$.",
"$.$.$.$.$.$.$.$.O O O O O O O O O O O O o . . . . . . X O O O O O O O $.$.$.$.$.$.$.$.$.$.$.$.$.$.$.",
"$.$.$.$.$.$.$.$.O O O O O O O O o . . % 1 d f f f f g e $ X O O O O $.$.$.$.$.$.$.$.$.$.$.$.$.$.$.$.",
"$.$.$.$.$.$.$.O O O O O O O O o : h c J ^ o.O.O.O.O.O.] G s # O O O O $.$.$.$.$.$.$.$.$.$.$.$.$.$.$.",
"$.$.$.$.$.$.$.O O O O O O O O i W X.@.+.O.o.o.o.o.o.o.o.+. .v o O O O O $.$.$.$.$.$.$.$.$.$.$.$.$.$.",
"$.$.$.$.$.$.$.O O O O O O O k ' +.o.o.o.o.o.o.o.o.o.o.o.o.+._ u O O O O O $.$.$.$.$.$.$.$.$.$.$.$.$.",
"$.$.$.$.$.$.$.O O O O O X 8 ) +.o.o.o.o.o.o.o.o.o.o.o.O.X.] Q y O O O O O $.$.$.$.$.$.$.$.$.$.$.$.$.",
"$.$.$.$.$.$.$.O O O O O # A +.o.o.o.o.o.o.o.o.o.o.o.@.T k 5 < o O O O O O O O O $.$.$.$.$.$.$.$.$.$.",
"$.$.$.$.$.$.$.O O O O X i } o.o.o.o.o.o.o.o.o.o.o.X.F r . X o O O O O O O O O O $.$.$.$.O O $.$.$.$.",
"$.$.$.$.$.$.$.O O O O @ Z @.o.o.o.o.o.o.o.o.o.o.o._ 2 . O O O O O O O O O O O O $.$.$.$.$.O $.$.$.$.",
"$.$.$.$.$.$.$.O O O o , / O.o.o.o.o.o.o.o.o.o.o.o.) 1 o O O O O O O O O O O O O $.$.$.$.$.$.O $.$.$.",
"$.$.$.$.$.$.$.O O O o < ( O.o.o.o.o.o.o.+.+.O.o.o.) 1 o O O O O O O O O O O O $.$.$.$.$.$.$.$.$.$.$.",
"$.$.$.$.$.$.$.$.O O o < ( O.o.o.o.o.+.} T T ! ..O.) < X X X . % * O O O O O O $.$.$.$.$.$.$.$.$.$.$.",
"$.$.$.$.$.$.$.$.$.O o < / o.O.o.o.` D u ; = 9 ' o. .S & 7 w r l : o O O O O $.$.$.$.$.$.$.$.$.$.$.$.",
"$.$.$.$.$.$.$.$.$.O O % r u Y @.| d O X O o # D +.o. .Y _ X.~ i o O O O O O O $.$.$.$.$.$.O $.$.$.$.",
"$.$.$.$.$.$.$.$.$.O O O X   r ) I & X X X X X V @.o.o.@.@.R q X O O O O O O O O O O $.$.$.$.$.$.$.$.",
"$.$.$.$.$.$.$.$.$.O O O O O X x } S 4 4 4 2 t ( o.o.o.^ R q . O O O O O O O O O O $.$.$.$.$.$.$.$.$.",
"$.$.$.$.$.$.$.$.O O O O O % 2 s m f U ' _ _ ' o.o.X.Z > 8 : o O O O O O O O O O O $.$.$.$.$.$.$.$.$.",
"$.$.$.$.$.O O O O O O O O O # S Z - z o.o.o.o.o.{ n $ & a @ O O O O O O O O O O O $.$.$.$.$.$.$.$.$.",
"$.$.$.$.O O O O O O O O O O + 9 Q W T o.o.o.o.@.B O @ m A @ O O O O O O O O O O O $.$.$.$.$.$.$.$.$.",
"$.$.$.$.O O O O O O O O O O O # L #.+.o.o.o.o.' N # = Q ' 6 X O O O O O O O O O $.$.$.$.$.$.$.$.$.$.",
"$.$.$.$.O O O O O O O O O O O O 5 k W +.o.o.@.v = O y [  .0 X O O O O O O O O O $.$.$.$.$.$.$.$.$.$.",
"$.$.$.$.$.O O $.$.$.O O O O O O o o P +.E k x 4 - i Q @.] 9 X O O O O O O O O $.$.$.$.$.$.$.$.$.$.$.",
"$.$.$.$.$.O O $.$.$.$.O O O O O O + b C j X 8 < p H R V y & O O O O O O O $.$.$.$.$.$.$.$.$.$.$.$.$.",
"$.$.$.$.$.$.O $.$.$.$.O O O O O O + N ( k r ( Q Y M < X X O O O O $.$.$.$.$.$.$.$.$.$.$.$.$.$.$.$.$.",
"$.$.$.$.$.$.$.$.$.$.$.$.O O O O O O 3 G P K P k > o o O O O O $.$.$.$.$.$.$.$.$.$.$.$.$.$.$.$.$.$.$.",
"$.$.$.$.$.$.$.$.$.$.$.$.$.O O O O O o # * * % X o O O O O O O $.$.$.$.$.$.$.$.$.$.$.$.$.$.$.$.$.$.$.",
"$.$.$.$.$.$.$.$.$.$.$.$.$.O O O O O O O O O O O O O O O O O O $.$.$.$.$.$.O O $.$.$.$.$.$.$.$.$.$.$.",
"$.$.$.$.$.$.$.$.$.$.$.$.$.O O O O O O O O O O O O O O O O O $.$.$.$.$.O O O $.$.$.$.$.$.$.$.$.$.$.$.",
"$.$.$.$.$.$.$.$.$.$.$.$.$.$.$.$.O O O O O O O O $.O O O O O $.$.$.$.$.$.$.$.$.$.$.$.$.$.$.$.$.$.$.$.",
"$.$.$.$.$.$.$.$.$.$.$.$.$.$.$.$.$.$.$.O O O O O O $.$.$.$.$.$.$.$.$.$.$.$.$.$.$.$.$.$.$.$.$.$.$.$.$.",
"$.$.$.$.$.$.$.$.$.$.$.$.$.$.$.$.$.$.$.$.$.$.$.$.$.$.$.$.$.$.$.$.$.$.$.$.$.$.$.$.$.$.$.$.$.$.$.$.$.$.",
"$.$.$.$.$.$.$.$.$.$.$.$.$.$.$.$.$.$.$.$.$.$.$.$.$.$.$.$.$.$.$.$.$.$.$.$.$.$.$.$.$.$.$.$.$.$.$.$.$.$."
};
