/* XPM */
static char *result[] = {
/* columns rows colors chars-per-pixel */
"50 50 103 2 ",
"   c #B00109",
".  c #B00209",
"X  c #B00309",
"o  c #B10309",
"O  c #B10409",
"+  c #B10509",
"@  c #B20509",
"#  c #B20609",
"$  c #B20709",
"%  c #B30709",
"&  c #B30809",
"*  c #B30909",
"=  c #B40909",
"-  c #B40A09",
";  c #B40B09",
":  c #B50B09",
">  c #B50C09",
",  c #B60D09",
"<  c #B60E09",
"1  c #B60F09",
"2  c #B70F09",
"3  c #B81109",
"4  c #B91308",
"5  c #B81209",
"6  c #B91408",
"7  c #BA1408",
"8  c #BA1508",
"9  c #BB1608",
"0  c #BB1708",
"q  c #BB1808",
"w  c #BC1808",
"e  c #BC1908",
"r  c #BC1A08",
"t  c #BD1A08",
"y  c #BD1B08",
"u  c #BE1D08",
"i  c #BF1E08",
"p  c #BF1F08",
"a  c #C12208",
"s  c #C22408",
"d  c #C22508",
"f  c #C32608",
"g  c #C32708",
"h  c #C42808",
"j  c #C42908",
"k  c #C52A08",
"l  c #C62B08",
"z  c #C62C08",
"x  c #C72D08",
"c  c #C82F08",
"v  c #CA3507",
"b  c #CB3507",
"n  c #CC3807",
"m  c #CD3907",
"M  c #CD3A07",
"N  c #CE3B07",
"B  c #CE3C07",
"V  c #CF3D07",
"C  c #CF3E07",
"Z  c #C83008",
"A  c #D03F07",
"S  c #D14007",
"D  c #D14107",
"F  c #D14207",
"G  c #D24307",
"H  c #D24407",
"J  c #D34407",
"K  c #D34507",
"L  c #D34607",
"P  c #D44607",
"I  c #D44707",
"U  c #D44807",
"Y  c #D54807",
"T  c #D54907",
"R  c #D64B07",
"E  c #D64C07",
"W  c #D74C07",
"Q  c #D74D07",
"!  c #D84F06",
"~  c #D84E07",
"^  c #D85006",
"/  c #D95006",
"(  c #D95106",
")  c #DA5206",
"_  c #DB5406",
"`  c #DB5506",
"'  c #DC5606",
"]  c #DD5706",
"[  c #DD5806",
"{  c #DD5906",
"}  c #DE5906",
"|  c #DE5A06",
" . c #DE5B06",
".. c #DF5B06",
"X. c #DF5C06",
"o. c #DF5D06",
"O. c #E05D06",
"+. c #E05E06",
"@. c #E05F06",
"#. c #E15F06",
"$. c #E16006",
"%. c #E26106",
"&. c None",
/* pixels */
"&.&.&.&.&.&.&.&.&.&.&.&.&.&.&.&.&.&.&.&.&.&.&.&.&.&.&.&.&.&.&.&.&.&.&.&.&.&.&.&.&.&.&.&.&.&.&.&.&.&.",
"&.&.&.&.&.&.&.&.&.&.&.&.&.&.&.&.&.&.&.&.&.&.&.&.&.&.&.&.&.&.&.&.&.&.&.&.&.&.&.&.&.&.&.&.&.&.&.&.&.&.",
"&.&.&.&.&.&.&.&.&.&.&.&.&.&.&.&.&.&.&.&.&.&.&.&.&.&.&.&.&.&.&.&.&.&.&.&.&.&.&.&.&.&.&.&.&.&.&.&.&.&.",
"&.&.&.&.&.&.&.&.&.&.&.&.&.&.&.&.&.&.&.&.&.&.&.&.&.&.&.&.&.&.&.&.&.&.&.&.&.&.&.&.&.&.&.&.&.&.&.&.&.&.",
"&.&.&.&.&.&.&.&.&.&.&.&.&.&.&.&.&.&.&.&.&.&.&.&.&.&.&.&.&.&.&.&.&.&.&.&.&.&.&.&.&.&.&.&.&.&.&.&.&.&.",
"&.&.&.&.&.&.&.&.&.&.&.&.&.&.&.&.&.&.&.&.&.&.&.&.&.&.&.&.&.&.&.&.&.&.&.&.&.&.&.&.&.&.&.&.&.&.&.&.&.&.",
"&.&.&.&.&.&.&.&.&.&.&.&.&.&.&.&.&.&.&.&.&.&.&.&.&.&.&.&.&.&.&.&.&.&.&.&.&.&.&.&.&.&.&.&.&.&.&.&.&.&.",
"&.&.&.&.&.&.&.&.&.&.&.&.&.&.&.&.&.&.&.&.&.&.&.&.&.&.&.&.&.&.&.&.&.&.&.&.&.&.&.&.&.&.&.&.&.&.&.&.&.&.",
"&.&.&.&.&.&.&.&.&.&.&.&.&.&.&.&.&.&.&.&.&.&.&.&.&.&.&.&.&.&.&.&.&.&.&.&.&.&.&.&.&.&.&.&.&.&.&.&.&.&.",
"&.&.&.&.&.&.&.&.&.&.&.&.&.&.&.&.&.&.&.&.&.&.&.&.&.&.&.&.&.&.&.&.&.&.&.&.&.&.&.&.&.&.&.&.&.&.&.&.&.&.",
"&.&.&.&.&.&.&.&.&.&.&.&.&.&.&.&.&.&.&.&.&.&.&.&.&.&.&.&.&.&.&.&.&.&.&.&.&.&.&.&.&.&.&.&.&.&.&.&.&.&.",
"&.&.&.&.&.&.&.&.&.&.&.&.&.&.&.&.&.&.&.&.&.&.&.&.&.&.&.&.&.&.&.&.&.&.&.&.&.&.&.&.&.&.&.&.&.&.&.&.&.&.",
"&.&.&.&.&.&.&.&.&.&.&.&.&.&.&.&.&.&.&.&.&.&.&.&.&.&.&.&.&.&.&.&.&.&.O O O O &.&.&.&.&.&.&.&.&.&.&.&.",
"&.&.&.&.&.&.&.&.&.&.&.&.O O O O &.&.&.&.&.&.&.&.&.&.&.&.&.&.&.&.&.&.O &.&.&.&.&.&.&.&.&.&.&.&.&.&.&.",
"&.&.&.&.&.&.&.&.&.&.&.&.&.&.&.&.&.O O &.&.&.&.&.O O O O O &.&.&.&.&.&.&.&.&.&.&.&.&.&.&.&.&.&.&.&.&.",
"&.&.&.&.&.&.&.&.&.&.&.&.&.&.&.&.&.O O &.&.&.&.O O O O O O O O &.&.&.&.&.&.&.&.&.&.&.&.&.&.&.&.&.&.&.",
"&.&.&.&.&.&.&.&.&.&.&.&.&.&.&.&.&.&.O O O O O O O O O O O O O O &.&.&.&.&.&.&.&.&.&.&.&.&.&.&.&.&.&.",
"&.&.&.&.&.&.&.&.&.&.&.&.&.&.&.&.&.O O O O O O O O O O O O O O O O &.&.&.&.&.&.&.&.&.&.&.&.&.&.&.&.&.",
"&.&.&.&.&.&.&.&.&.&.&.&.&.&.&.&.&.O O O O O X . . . . X O O O O O &.&.&.&.&.&.&.&.&.&.&.&.&.&.&.&.&.",
"&.&.&.&.&.&.&.&.&.&.&.&.&.&.&.&.O O o X O = t f d d g y ; & X O O O &.&.&.&.&.&.&.&.&.&.&.&.&.&.&.&.",
"&.&.&.&.&.&.&.&.&.&.&.&.&.&.&.&.O X : 9 v ~ [ @.@.+.' Q J C f & O O &.&.&.&.&.&.&.&.&.&.&.&.&.&.&.&.",
"&.&.&.&.&.&.&.&.&.&.&.&.&.&.O X ; Z Q [ #.#.+.+.$.( 8 , < w j > o O &.&.&.&.&.&.&.&.&.&.&.&.&.&.&.&.",
"&.&.&.&.&.&.&.&.&.&.O O O O + d T +.#.+.+.+.@. .K e o o o X . O O O O &.&.&.&.&.&.&.&.&.&.&.&.&.&.&.",
"&.&.&.&.&.&.&.&.O O O O O % Z  .#.+.+.+.+.+.] j # o O O O O O O O O O O &.&.&.&.&.&.O &.&.&.&.&.&.&.",
"&.&.&.&.&.&.&.&.O O O O o l +.+.+.+.+.+.+.#.c X O O O O O O O O O O O O O &.&.&.&.&.&.&.&.&.&.&.&.&.",
"&.&.&.&.&.&.&.O O O O X p ' @.+.+.+.+.+.+.#.h . O O O O O O O O O O O O O O &.&.&.&.&.&.&.&.&.&.&.&.",
"&.&.&.&.&.&.&.O O O O @ N $.+.+.+.+.#.$.#.#.j . O O O O O O O O O O O O O O &.&.&.&.&.&.&.&.&.&.&.&.",
"&.&.&.&.&.&.&.O O O o 1 _ @.+.+.+.o.P A K | L = o O O O O O O O O O O O O O &.&.&.&.&.&.&.&.&.&.&.&.",
"&.&.&.&.&.O O O O O o 2 ` @.+.+.+.b & o $ a } n = o O O X X o O O O O O O O &.&.&.&.&.&.&.&.&.&.&.&.",
"&.&.&.&.O O O O O O o 2 ' #.+.@.W > X O X 6 | @.D < X - 4 4 < O O O O O O O &.&.&.&.&.&.&.&.&.&.&.&.",
"&.&.&.O O O O O O O o , Z s V $.C X O O . 8 | +.@.E B U [ | A O O O O O O O &.&.&.&.&.&.&.&.&.&.&.&.",
"&.&.&.O O O O O O O O O O   3 _ T = X X : B O.+.+.#.$.#.#.+.d o O O O O O O &.&.&.&.&.&.&.&.&.&.&.&.",
"&.&.O O O O O O O O O O O O * ! +.z : 4 H @.#.+.[ +.+.+.Q z & O O O O O O &.&.&.&.&.&.&.&.&.&.&.&.&.",
"&.&.O O &.&.&.O O O O O O O & H O.X.) ` @.@.G k 8 G #...p . O O O O O O &.&.&.&.&.&.&.&.&.&.&.&.&.&.",
"&.&.O &.&.&.O O O O O O O O O : a Y #.@.@._ 6 .   g O.#.S & O O O O O &.&.&.&.&.&.&.&.&.&.&.&.&.&.&.",
"&.&.&.&.&.&.O O O O O O O O O O   > Q #.+.| i . O - I #.| q . O O O O &.&.&.&.O O &.&.&.&.&.&.&.&.&.",
"&.&.&.&.&.&.&.&.O O O O O O O O 7 j ^ @.+.#.x # O X i { +.G > o O O O &.&.&.&.&.&.&.&.&.&.&.&.&.&.&.",
"&.&.&.&.&.&.&.&.&.O O O O O O # D $.#.+.@.@.[ f . O - / #.@.Z o O O O &.&.&.&.&.&.&.&.&.&.&.&.&.&.&.",
"&.&.&.&.&.&.&.&.&.&.&.O O O O X h ~ F } T R %.z . o 9 ' @.@.N O O O &.&.&.&.&.&.&.&.&.&.&.&.&.&.&.&.",
"&.&.&.&.&.&.&.&.&.&.&.&.O O O o < 0 # e 6 K $.v + . 0 ` $.Y > O O O O &.&.&.&.&.&.&.&.&.&.&.&.&.&.&.",
"&.&.&.&.&.&.&.&.&.&.&.&.&.O O O o X O   9 o.( e & y ~ #.~ w X O O O O &.&.&.&.&.&.&.&.&.&.&.&.&.&.&.",
"&.&.&.&.&.&.&.&.&.&.&.&.&.&.O O O O O o s E u X Z { $.W 5 X O O O O O &.&.&.&.&.&.&.&.&.&.&.&.&.&.&.",
"&.&.&.&.&.&.&.&.&.&.&.&.&.&.&.O O O O O ; < r M [ $.` p . O O O O O O &.&.&.&.&.&.&.&.&.&.&.&.&.&.&.",
"&.&.&.&.&.&.&.&.&.&.&.&.&.&.&.O O O O o : m [ o.o.~ r o O O O O O O O &.&.&.&.&.&.&.&.&.&.&.&.&.&.&.",
"&.&.&.&.&.&.&.&.&.&.&.&.&.&.&.O O O O O O 4 t e r 2 X O O O O O O O &.&.&.&.&.&.&.&.&.&.&.&.&.&.&.&.",
"&.&.&.&.&.&.&.&.&.&.&.&.&.&.O O O O O O O o X X X o &.&.&.&.&.&.&.&.&.&.&.&.&.&.&.&.&.&.&.&.&.&.&.&.",
"&.&.&.&.&.&.&.&.&.&.&.&.&.&.&.&.&.&.&.&.O O O O O &.&.&.&.&.&.&.&.&.&.&.&.&.&.&.&.&.&.&.&.&.&.&.&.&.",
"&.&.&.&.&.&.&.&.&.&.&.&.&.&.&.&.&.&.&.&.&.&.&.&.&.&.&.&.&.&.&.&.&.&.&.&.&.&.&.&.&.&.&.&.&.&.&.&.&.&.",
"&.&.&.&.&.&.&.&.&.&.&.&.&.&.&.&.&.&.&.&.&.&.&.&.&.&.&.&.&.&.&.&.&.&.&.&.&.&.&.&.&.&.&.&.&.&.&.&.&.&.",
"&.&.&.&.&.&.&.&.&.&.&.&.&.&.&.&.&.&.&.&.&.&.&.&.&.&.&.&.&.&.&.&.&.&.&.&.&.&.&.&.&.&.&.&.&.&.&.&.&.&."
};
