/* XPM */
static char *result[] = {
/* columns rows colors chars-per-pixel */
"50 50 105 2 ",
"   c #B00109",
".  c #B00209",
"X  c #B00309",
"o  c #B10309",
"O  c #B10409",
"+  c #B10509",
"@  c #B20509",
"#  c #B20609",
"$  c #B20709",
"%  c #B30709",
"&  c #B30809",
"*  c #B30909",
"=  c #B40909",
"-  c #B40A09",
";  c #B40B09",
":  c #B50B09",
">  c #B60D09",
",  c #B60E09",
"<  c #B60F09",
"1  c #B70F09",
"2  c #B71009",
"3  c #B81109",
"4  c #B81209",
"5  c #B91209",
"6  c #B91408",
"7  c #BA1508",
"8  c #BA1608",
"9  c #BB1608",
"0  c #BB1708",
"q  c #BC1908",
"w  c #BC1A08",
"e  c #BD1A08",
"r  c #BD1B08",
"t  c #BD1C08",
"y  c #BF1E08",
"u  c #BF1F08",
"i  c #C02008",
"p  c #C02108",
"a  c #C12308",
"s  c #C22408",
"d  c #C22508",
"f  c #C32608",
"g  c #C32708",
"h  c #C42908",
"j  c #C52A08",
"k  c #C52B08",
"l  c #C62B08",
"z  c #C62C08",
"x  c #C62D08",
"c  c #C72E08",
"v  c #C72F08",
"b  c #C93207",
"n  c #CA3307",
"m  c #CA3407",
"M  c #CB3507",
"N  c #CB3607",
"B  c #CC3807",
"V  c #CD3A07",
"C  c #CE3B07",
"Z  c #CF3E07",
"A  c #C83008",
"S  c #D04007",
"D  c #D14007",
"F  c #D14107",
"G  c #D24307",
"H  c #D24407",
"J  c #D34407",
"K  c #D34507",
"L  c #D34607",
"P  c #D44707",
"I  c #D44807",
"U  c #D54907",
"Y  c #D54A07",
"T  c #D64A07",
"R  c #D64C07",
"E  c #D74D07",
"W  c #D74E07",
"Q  c #D84F06",
"!  c #D84E07",
"~  c #D84F07",
"^  c #D85006",
"/  c #D95006",
"(  c #D95106",
")  c #DA5206",
"_  c #DA5306",
"`  c #DB5406",
"'  c #DB5506",
"]  c #DC5606",
"[  c #DC5706",
"{  c #DD5806",
"}  c #DD5906",
"|  c #DE5906",
" . c #DE5A06",
".. c #DE5B06",
"X. c #DF5B06",
"o. c #DF5C06",
"O. c #DF5D06",
"+. c #E05D06",
"@. c #E05E06",
"#. c #E05F06",
"$. c #E15F06",
"%. c #E16006",
"&. c #E16106",
"*. c #E26106",
"=. c None",
/* pixels */
"=.=.=.=.=.=.=.=.=.=.=.=.=.=.=.=.=.=.=.=.=.=.=.=.=.=.=.=.=.=.=.=.=.=.=.=.=.=.=.=.=.=.=.=.=.=.=.=.=.=.",
"=.=.=.=.=.=.=.=.=.=.=.=.=.=.=.=.=.=.=.=.=.=.=.=.=.=.=.=.=.=.=.=.=.=.=.=.=.=.=.=.=.=.=.=.=.=.=.=.=.=.",
"=.=.=.=.=.=.=.=.=.=.=.=.=.=.=.=.=.=.=.=.=.=.=.=.=.=.=.=.=.=.=.=.=.=.=.=.=.=.=.=.=.=.=.=.=.=.=.=.=.=.",
"=.=.=.=.=.=.=.=.=.=.=.=.=.=.=.=.=.=.=.=.=.=.=.=.=.=.=.=.=.=.=.=.=.=.=.=.=.=.=.=.=.=.=.=.=.=.=.=.=.=.",
"=.=.=.=.=.=.=.=.=.=.=.=.=.=.=.=.=.=.=.=.=.=.=.=.=.=.=.=.=.=.=.=.=.=.=.=.=.=.=.=.=.=.=.=.=.=.=.=.=.=.",
"=.=.=.=.=.=.=.=.=.=.=.=.=.=.=.=.=.=.=.=.=.=.=.=.=.=.=.=.=.=.=.=.=.=.=.=.=.=.=.=.=.=.=.=.=.=.=.=.=.=.",
"=.=.=.=.=.=.=.=.=.=.=.=.=.=.=.=.=.=.=.=.=.=.=.=.=.=.=.=.=.=.=.=.=.=.=.=.=.=.=.=.=.=.=.=.=.=.=.=.=.=.",
"=.=.=.=.=.=.=.=.=.=.=.=.=.=.=.=.=.=.=.=.=.=.=.=.=.=.=.=.=.=.=.=.=.=.=.=.=.=.=.=.=.=.=.=.=.=.=.=.=.=.",
"=.=.=.=.=.=.=.=.=.=.=.=.=.=.=.=.=.=.=.=.=.=.=.=.=.=.=.=.=.=.=.=.=.=.=.=.=.=.=.=.=.=.=.=.=.=.=.=.=.=.",
"=.=.=.=.=.=.=.=.=.=.=.=.=.=.=.=.=.=.=.=.=.=.=.=.=.=.=.=.=.=.=.=.=.=.=.=.=.=.=.=.=.=.=.=.=.=.=.=.=.=.",
"=.=.=.=.=.=.=.=.=.=.=.=.=.=.=.=.=.=.=.=.=.=.=.=.=.=.=.=.=.=.=.=.=.=.=.=.=.=.=.=.=.=.=.=.=.=.=.=.=.=.",
"=.=.=.=.=.=.=.=.=.=.=.=.=.=.=.=.=.=.=.=.=.=.=.=.=.=.=.=.=.=.=.=.=.=.=.=.=.=.=.=.=.=.=.=.=.=.=.=.=.=.",
"=.=.=.=.=.=.=.=.=.=.=.=.=.=.=.=.=.=.=.=.=.=.=.=.=.=.=.=.=.=.=.=.=.=.=.=.=.=.=.=.=.=.=.=.=.=.=.=.=.=.",
"=.=.=.=.=.=.=.=.=.=.=.=.=.=.=.=.=.=.=.=.=.=.=.=.=.=.=.=.=.=.=.=.=.=.=.=.=.=.=.=.=.=.=.=.=.=.=.=.=.=.",
"=.=.=.=.=.=.=.=.=.=.=.O O O O O O =.=.=.=.=.=.=.=.=.=.=.=.=.=.=.=.O =.=.=.=.=.=.=.=.=.=.=.=.=.=.=.=.",
"=.=.=.=.=.=.=.=.=.=.=.=.=.=.O O O O O =.=.=.=.=.=.=.=.=.=.=.=.=.=.=.O O =.=.=.=.=.=.=.=.=.=.=.=.=.=.",
"=.=.=.=.=.=.=.=.=.=.=.=.=.=.O O O O O O O O O O =.=.=.=.=.=.=.=.=.=.O O =.=.=.=.=.=.=.=.=.=.=.=.=.=.",
"=.=.=.=.=.=.=.=.=.=.=.=.=.=.O O O O O O O O O O O O O O O O O =.=.O O O O =.=.=.=.=.=.=.=.=.=.=.=.=.",
"=.=.=.=.=.=.=.=.=.=.=.=.O O O O O O O O o . . . . . . X O O O O O O O O O =.=.=.=.=.=.=.=.=.=.=.=.=.",
"=.=.=.=.=.=.=.=.=.=.=.O O O O O o . . % 2 s d d d d f e $ X O O O O O O O O =.=.=.=.=.=.=.=.=.=.=.=.",
"=.=.=.=.=.=.=.=.=.=.O O O O O o > g v K _ @.#.#.#.#.#.} G a # O O O O O O O =.=.=.=.=.=.=.=.=.=.=.=.",
"=.=.=.=.=.=.=.=.=.O O O O O O i / +.%.$.#.@.@.@.@.@.@.@.$.o.A O O O O O O O =.=.=.=.=.=.=.=.=.=.=.=.",
"=.=.=.=.=.=.=.=.=.O O O O O h { $.@.@.@.@.@.@.@.@.@.@.@.@.#.E , o O O O O O =.=.=.=.=.=.=.=.=.=.=.=.",
"=.=.=.=.=.=.=.=.=.O O O X 8 ] $.@.@.@.@.@.@.@.@.@.@.@.@.$.L 7 @ O O O O O O =.=.=.=.=.=.=.=.=.=.=.=.",
"=.=.=.=.=.=.=.=.=.O O O # Z $.@.@.@.@.@.@.@.@.@.@.@.@.#.| t . O O O O O O O =.=.=.=.=.=.=.=.=.=.=.=.",
"=.=.=.=.=.=.=.=.O O O X i ..@.@.@.@.@.@.@.@.@.@.@.@.$.[ g + O O O O O O O O =.=.=.=.=.=.=.=.=.=.=.=.",
"=.=.=.=.=.=.=.O O O O @ C %.@.@.@.@.@.@.@.@.@.@.#.P U u o O O O O O O O O O =.=.=.=.=.=.=.=.=.=.=.=.",
"=.=.=.=.=.=.=.O O O o < ` #.@.@.@.@.@.@.@.@.@.@.[ q , o O O O O O O O O O =.=.=.=.=.=.=.=.=.=.=.=.=.",
"=.=.=.=.=.=.=.O O O o 1 ' #.@.@.@.@.@.@.@.$.#.#.` > X O O O O O O O O O O =.=.=.=.=.=.=.=.=.=.=.=.=.",
"=.=.=.=.=.=.=.O O O o 1 ' #.@.@.@.@.$.$.X.^ ) @.` , o O O X X O O O O O O =.=.=.=.=.=.=.=.=.=.=.=.=.",
"=.=.=.=.=.=.=.O O O o 1 ] $.@.@.@.O.! S i ; > G O.d X O O 7 6 O O O O O =.=.=.=.=.=.=.=.=.=.=.=.=.=.",
"=.=.=.=.=.=.=.=.O O O # v { o.@.o.k : @ X O . N *.E 2 & j } D O O O O O O =.=.=.=.=.=.=.=.=.=.=.=.=.",
"=.=.=.=.=.=.=.=.=.O O O @ 5 M %.+.l O X X o   N %.+.~ E o.o.i X O O O O O =.=.=.=.=.=.=.=.=.=.=.=.=.",
"=.=.=.=.=.=.=.=.=.=.O O O . 0 ( $. .a 3 4 3 9 U $.@.%. .~ z # O O O O O O O =.=.=.=.=.=.=.=.=.=.=.=.",
"=.=.=.=.=.=.=.=.=.=.O O O O . f m ) ..[ [ [ } @.@.%._ p d 3 X O O O O O O O =.=.=.=.=.=.=.=.=.=.=.=.",
"=.=.=.=.=.=.=.=.=.=.O O O O O z 7 b ] #.@.@.@.@.o.G q j ] w X O O O O O O O =.=.=.=.=.=.=.=.=.=.=.=.",
"=.=.=.=.=.=.=.=.=.O O O O O @ 7 r & B #.@.@.@.$.K = = ( %.B O O O O O O O O =.=.=.=.=.=.=.=.=.=.=.=.",
"=.=.=.=.=.=.=.=.=.O O O O O O # F H  .@.@.@.$.%.v . # C *.F O O O O O O O O =.=.=.=.=.=.=.=.=.=.=.=.",
"=.=.=.=.=.=.=.=.O O O O O O O O 8 _ %.$.@...R [ c   , G *.F O O O O O O O =.=.=.=.=.=.=.=.=.=.=.=.=.",
"=.=.=.=.=.=.=.=.O O O O O O O O @ U } Y n j - 7 i v Q $.) y o O O O O O =.=.=.=.=.=.=.=.=.=.=.=.=.=.",
"=.=.=.=.=.=.=.=.O O O O O O O O O u l * & % 0 6 ! &.W x 3 o O O O O O =.=.=.=.=.=.=.=.=.=.=.=.=.=.=.",
"=.=.=.=.=.=.=.=.O =.O O O O O O O o u h 3 V } _ Q n 1 . o O O O O O =.=.=.=.=.=.=.=.=.=.=.=.=.=.=.=.",
"=.=.=.=.=.=.=.=.=.=.=.O O O O O O O 6 F J T I h , o o O O O O O O =.=.=.=.=.=.=.=.=.=.=.=.=.=.=.=.=.",
"=.=.=.=.=.=.=.=.=.=.=.=.=.O O O O O o # * & % X o O O O O O O O O =.=.=.=.=.=.=.=.=.=.=.=.=.=.=.=.=.",
"=.=.=.=.=.=.=.=.=.=.=.=.=.=.O O O O O O O O O O O O O O O O O O =.=.=.=.=.=.=.=.=.=.=.=.=.=.=.=.=.=.",
"=.=.=.=.=.=.=.=.=.=.=.=.=.=.=.=.=.O O O O O O O O O O O O O =.=.=.=.=.=.=.=.=.=.=.=.=.=.=.=.=.=.=.=.",
"=.=.=.=.=.=.=.=.=.=.=.=.=.=.=.=.=.=.=.O O O O O O =.=.=.=.=.=.=.=.=.=.=.=.=.=.=.=.=.=.=.=.=.=.=.=.=.",
"=.=.=.=.=.=.=.=.=.=.=.=.=.=.=.=.=.=.=.=.=.=.=.O O O O =.=.=.=.=.=.=.=.=.=.=.=.=.=.=.=.=.=.=.=.=.=.=.",
"=.=.=.=.=.=.=.=.=.=.=.=.=.=.=.=.=.=.=.=.=.=.=.=.=.=.=.=.=.=.=.=.=.=.=.=.=.=.=.=.=.=.=.=.=.=.=.=.=.=.",
"=.=.=.=.=.=.=.=.=.=.=.=.=.=.=.=.=.=.=.=.=.=.=.=.=.=.=.=.=.=.=.=.=.=.=.=.=.=.=.=.=.=.=.=.=.=.=.=.=.=."
};
