/* XPM */
static char *result[] = {
/* columns rows colors chars-per-pixel */
"50 50 216 2 ",
"   c #9D0F1F",
".  c #AF020A",
"X  c #AD030C",
"o  c #AF080C",
"O  c #B00209",
"+  c #B00309",
"@  c #B10309",
"#  c #B10409",
"$  c #B10509",
"%  c #B20509",
"&  c #B20609",
"*  c #B20709",
"=  c #B30709",
"-  c #B0060B",
";  c #B30809",
":  c #B40A09",
">  c #B40B09",
",  c #B50D09",
"<  c #B60E09",
"1  c #B70F09",
"2  c #B71009",
"3  c #B81009",
"4  c #B81109",
"5  c #B81209",
"6  c #B91409",
"7  c #BA1508",
"8  c #BA1608",
"9  c #BB1708",
"0  c #BC1808",
"q  c #BC1A08",
"w  c #BD1A08",
"e  c #BD1C08",
"r  c #BC1C09",
"t  c #BE1D08",
"y  c #BF1E08",
"u  c #A50112",
"i  c #A20114",
"p  c #A51A1C",
"a  c #A51F1F",
"s  c #B11C13",
"d  c #BF2209",
"f  c #A6201E",
"g  c #A7211E",
"h  c #A8201C",
"j  c #A8221D",
"k  c #A9231D",
"l  c #AA251D",
"z  c #AD281B",
"x  c #AF2A1A",
"c  c #B02B1A",
"v  c #B22D19",
"b  c #B32E19",
"n  c #B42D18",
"m  c #B73217",
"M  c #BC3413",
"N  c #BA3215",
"B  c #B93416",
"V  c #BA3516",
"C  c #BD3914",
"Z  c #BE3A14",
"A  c #BF3A14",
"S  c #B53118",
"D  c #B63118",
"F  c #86002B",
"G  c #87002B",
"H  c #8A0229",
"J  c #88002A",
"K  c #8C0429",
"L  c #8D0628",
"P  c #8F0728",
"I  c #970C23",
"U  c #920A26",
"Y  c #970F24",
"T  c #971024",
"R  c #9B1522",
"E  c #9E1721",
"W  c #A11B20",
"Q  c #A21C20",
"!  c #C22307",
"~  c #C02008",
"^  c #C02208",
"/  c #C12208",
"(  c #C12308",
")  c #C22408",
"_  c #C22508",
"`  c #C32608",
"'  c #C32708",
"]  c #C2290A",
"[  c #C42908",
"{  c #C52A08",
"}  c #C62B08",
"|  c #C82F08",
" . c #C93107",
".. c #C93207",
"X. c #CA3407",
"o. c #CB3507",
"O. c #CC3707",
"+. c #CC3807",
"@. c #CC3907",
"#. c #CE3B07",
"$. c #CF3D07",
"%. c #CF3E07",
"&. c #C2310D",
"*. c #C83008",
"=. c #C93108",
"-. c #C93208",
";. c #C13C13",
":. c #C13D13",
">. c #C23E12",
",. c #CB440D",
"<. c #CB470E",
"1. c #CB470F",
"2. c #CC460D",
"3. c #CB480F",
"4. c #CC490E",
"5. c #CE4B0E",
"6. c #CF4C0D",
"7. c #CE4D0E",
"8. c #D14007",
"9. c #D24207",
"0. c #D24307",
"q. c #D34507",
"w. c #D44607",
"e. c #D54807",
"r. c #D54907",
"t. c #D54A07",
"y. c #D74B06",
"u. c #D64A07",
"i. c #D64B07",
"p. c #D74C07",
"a. c #D84E06",
"s. c #D2490A",
"d. c #D34F0B",
"f. c #D44F0A",
"g. c #D14E0C",
"h. c #D95106",
"j. c #D85007",
"k. c #D95206",
"l. c #DB5306",
"z. c #DA5407",
"x. c #DD5706",
"c. c #DA5907",
"v. c #DF5B05",
"b. c #DD5806",
"n. c #DD5B07",
"m. c #DE5B06",
"M. c #DF5C06",
"N. c #DF5D06",
"B. c #DE5D07",
"V. c #DF5D07",
"C. c #DF5E07",
"Z. c #D85609",
"A. c #D95709",
"S. c #D7590A",
"D. c #DA5808",
"F. c #DB5908",
"G. c #DB5B08",
"H. c #DC5A08",
"J. c #D85F0B",
"K. c #C54111",
"L. c #C44012",
"P. c #C74511",
"I. c #E15E05",
"U. c #E05D06",
"Y. c #E05E06",
"T. c #E15E06",
"R. c #E05F06",
"E. c #E15F06",
"W. c #DE6107",
"Q. c #E26005",
"!. c #E06006",
"~. c #E16006",
"^. c #E16206",
"/. c #E06207",
"(. c #E06307",
"). c #E16406",
"_. c #E06407",
"`. c #E06507",
"'. c #E06607",
"]. c #E16707",
"[. c #E06807",
"{. c #E06A08",
"}. c #E06D08",
"|. c #E16D08",
" X c #E06F08",
".X c #E16F08",
"XX c #E26F08",
"oX c #E07008",
"OX c #E17108",
"+X c #E17208",
"@X c #E07309",
"#X c #E07409",
"$X c #E17409",
"%X c #E17509",
"&X c #E07709",
"*X c #E17D0A",
"=X c #E17E0A",
"-X c #E27E0A",
";X c #E1810B",
":X c #E1820B",
">X c #E1830B",
",X c #E1840B",
"<X c #E1850B",
"1X c #E2840A",
"2X c #E1860B",
"3X c #E2860B",
"4X c #E1890C",
"5X c #E18A0C",
"6X c #E18C0C",
"7X c #E18D0C",
"8X c #E18E0C",
"9X c #E18F0D",
"0X c #E1910D",
"qX c #E1920D",
"wX c #E1930D",
"eX c None",
/* pixels */
"eXeXeXeXeXeXeXeXeXeXeXeXeXeXeXeXeXeXeXeXeXeXeXeXeXeXeXeXeXeXeXeXeXeXeXeXeXeXeXeXeXeXeXeXeXeXeXeXeXeX",
"eXeXeXeXeXeXeXeXeXeXeXeXeXeXeXeXeXeXeXeXeXeXeXeXeXeXeXeXeXeXeXeXeXeXeXeXeXeXeXeXeXeXeXeXeXeXeXeXeXeX",
"eXeXeXeXeXeXeXeXeXeXeXeXeXeXeXeXeXeXeXeXeXeXeXeXeXeXeXeXeXeXeXeXeXeXeXeXeXeXeXeXeXeXeXeXeXeXeXeXeXeX",
"eXeXeXeXeXeXeXeXeXeXeXeXeXeXeXeXeXeXeXeXeXeXeXeXeXeXeXeXeXeXeXeXeXeXeXeXeXeXeXeXeXeXeXeXeXeXeXeXeXeX",
"eXeXeXeXeXeXeXeXeXeXeXeXeXeXeXeXeXeXeXeXeXeXeXeXeXeXeXeXeXeXeXeXeXeXeXeXeXeXeXeXeXeXeXeXeXeXeXeXeXeX",
"eXeXeXeXeXeXeXeXeXeXeXeXeXeXeXeXeXeXeXeXeXeXeXeXeXeXeXeXeXeXeXeXeXeXeXeXeXeXeXeXeXeXeXeXeXeXeXeXeXeX",
"eXeXeXeXeXeXeXeXeXeXeXeXeXeXeXeXeXeXeXeXeXeXeXeXeXeXeXeXeXeXeXeXeXeXeXeXeXeXeXeXeXeXeXeXeXeXeXeXeXeX",
"eXeXeXeXeXeXeXeXeXeXeXeXeXeXeXeXeXeXeXeXeXeXeXeXeXeXeXeXeXeXeXeXeXeXeXeXeXeXeXeXeXeXeXeXeXeXeXeXeXeX",
"eXeXeXeXeXeXeXeXeXeXeXeXeXeXeXeXeXeXeXeXeXeXeXeXeXeXeXeXeXeXeXeXeXeXeXeXeXeXeXeXeXeXeXeXeXeXeXeXeXeX",
"eXeXeXeXeXeXeXeXeXeXeXeXeXeXeXeXeXeXeXeXeXeXeXeXeXeXeXeXeXeXeXeXeXeXeXeXeXeXeXeXeXeXeXeXeXeXeXeXeXeX",
"eXeXeXeXeXeXeXeXeXeXeXeXeXeXeXeXeXeXeXeXeXeXeXeXeXeXeXeXeXeXeXeXeXeXeXeXeXeXeXeXeXeXeXeXeXeXeXeXeXeX",
"eXeXeXeXeXeXeXeXeXeXeXeXeXeXeXeXeXeXeXeXeXeXeXeXeXeXeXeXeXeXeXeXeXeXeXeXeXeXeXeXeXeXeXeXeXeXeXeXeXeX",
"eXeXeXeXeXeXeXeXeXeXeXeXeXeXeXeXeXeXeXeXeXeXeXeXeXeXeXeXeXeXeXeXeXeXeXeXeXeXeXeXeXeXeXeXeXeXeXeXeXeX",
"eXeXeXeXeXeXeXeXeXeXeXeXeXeXeXeXeXeXeXeXeXeXeX# eXeXeXeXeXeXeXeXeXeXeXeXeXeXeXeXeXeXeXeXeXeXeXeXeXeX",
"eXeXeXeXeXeXeXeXeXeXeXeXeXeXeXeXeXeXeXeXeXeXeX# # eXeXeXeXeXeXeXeXeXeXeXeXeXeXeXeXeXeXeXeXeXeXeXeXeX",
"eXeXeXeXeXeXeXeXeXeXeXeXeXeXeXeXeXeXeXeXeXeXeX# # # # eXeXeXeXeXeXeXeXeXeXeXeXeXeXeXeXeXeXeXeXeXeXeX",
"eXeXeXeXeXeXeXeXeXeXeXeXeXeXeXeXeXeXeXeXeX# # # # # # # # eXeXeXeXeXeXeXeXeXeXeXeXeXeXeXeXeXeXeXeXeX",
"eXeXeXeXeXeXeXeXeXeXeXeXeXeXeXeXeXeXeX# # # # # # # # # # # eXeXeXeXeXeXeXeXeXeXeXeXeXeXeXeXeXeXeXeX",
"eXeXeXeXeXeXeXeXeXeXeXeXeXeXeXeX# # # @ O + & & & + O O @ # # eXeXeXeXeXeXeXeXeXeXeXeXeXeXeXeXeXeXeX",
"eXeXeXeXeXeXeXeXeXeXeXeXeXeXeX# # O # 3 ) } w.e.q.[ _ ) 1 # # # eXeXeXeXeXeXeXeXeXeXeXeXeXeXeXeXeXeX",
"eXeXeXeXeXeXeXeXeXeXeXeXeXeX# @ ; ` @.c._.OX%X].^.Y.R.Y.k.{ % @ # # # # # eXeXeXeXeXeXeXeXeXeXeXeXeX",
"eXeXeXeXeXeXeXeXeXeXeXeXeX# # > #.!.*X8X7X0XqX8X;X!.Y.Y.E.M.X.; # # # # # # eXeXeXeXeXeXeXeXeXeXeXeX",
"eXeXeXeXeXeXeXeXeXeXeX# # # @ | E.$XqXqXqXqXqXqX0X&XR.Y.Y.Y.U.' # # # # # # eXeXeXeX# eXeXeXeXeXeXeX",
"eXeXeXeXeXeXeXeXeX# # # # @ 9 l.|.9XqXqXqXqXqXqXqX6X_.Y.Y.Y.Y.x.e + # # # # eXeXeXeX# eXeXeXeXeXeXeX",
"eXeXeXeXeXeXeXeX# # # # @ , p.Y.oXwXqXqXqXqXqXqXwX*XY.Y.Y.Y.Y.~.9.& # # # # # eXeX# # eXeXeXeXeXeXeX",
"eXeXeXeXeXeXeX# # # # # ; %.Y.Y.#XqXqXqXqXqXqXqX9X}.U.Y.Y.Y.Y.E.t.& # # # # eXeX# # # eXeXeXeXeXeXeX",
"eXeXeXeXeXeX# # # # # @ 8 x.R.!.2XwXqXqXqXqXqXwX=XR.Y.Y.Y.Y.Y.E.r.& # # # # # # # # eXeXeXeXeXeXeXeX",
"eXeXeXeXeXeX# # # # # O *.E.Y.Y.&XwXqXqXqXqXwX2X'.U.Y.Y.Y.Y.Y.E.u.& # # # # # # eXeXeXeXeXeXeXeXeXeX",
"eXeXeXeXeXeX# # # # # O  .~.Y.U.[.4X7X7X7X7X>X{.U.Y.Y.Y.Y.Y.Y.R.O.$ # # # # # # eXeXeXeXeXeXeXeXeXeX",
"eXeXeXeXeX# # # # # # O =.~.Y.Y.Y.(._._._._.!.Y.Y.Y.Y.Y.Y.Y.Y.Y.~ O # # # # # # eXeXeXeXeXeXeXeXeXeX",
"eXeXeXeXeX# # # # # # O ..~.(.'.Y.U.U.U.U.U.Y.Y.Y.Y.U.N.R.Y.R.b.q + # # # # # eXeXeXeXeXeXeXeXeXeXeX",
"eXeXeXeX# # # # # # # + / a.'.<X,X#X X XoX X'.Y.A.N d y 0.m.$.9 % # # # # # # eXeXeXeXeXeXeXeXeXeXeX",
"eXeXeX# # eX# # # # # # # < 0..X*X:X7X5X-XXXQ.Q.R.n i O : 7 = + # # # # # # eXeXeXeXeXeXeXeXeXeXeXeX",
"eXeXeX# eXeX# # # # # # # . ] ~.T.!.`.S.d.A v b B 6.I u o 4 < # # # # # # # eXeXeXeXeXeXeXeXeXeXeXeX",
"eXeXeXeXeXeXeX# # # # # # X   l 3.Q.g.T P H G F U 6.Y h 2.j.~ # # # # # # # eXeXeXeXeXeXeXeXeXeXeXeX",
"eXeXeXeXeXeXeXeX# # # # # - p W V Q.D.j J H K E P.G.3.F.C.&.# # # # # # # eXeXeXeXeXeXeXeXeXeXeXeXeX",
"eXeXeXeXeXeXeXeX# # # # # : i.Y.V.K.K.A.m ;.7.J.3X>X).H.:.-.@ # # # # # eXeXeXeXeXeXeXeXeXeXeXeXeXeX",
"eXeXeXeXeXeXeXeXeX# # # # $ 2 +.z.R L 5.Q.).1X6X5X+XQ.1.S o.@ # # # # eXeXeXeXeXeXeXeXeXeXeXeXeXeXeX",
"eXeXeXeXeXeXeXeXeX# # # # # + % 6 s L.n.Y./.@X+XW.Z z c ,.0 + # # # # eXeXeXeXeXeXeXeXeXeXeXeXeXeXeX",
"eXeXeXeXeXeXeXeXeXeXeX# # # # # @ ! Q.E.Y.Y.I.<.g f :.s.t # # # # # # # eXeXeXeXeXeXeXeXeXeXeXeXeXeX",
"eXeXeXeXeXeXeXeXeXeXeXeX# # # @ 2 q.F.Z.Z.A.>.a C B.y.8 + # # # # # # # eXeXeXeXeXeXeXeXeXeXeXeXeXeX",
"eXeXeXeXeXeXeXeXeXeXeXeXeX# # # @ ( M Q x k D 4.v.8.1 + # # # # # # # # eXeXeXeXeXeXeXeXeXeXeXeXeXeX",
"eXeXeXeXeXeXeXeXeXeXeXeXeX# # # # % r f.F.A.E.h.t * @ # # # # # # # # # eXeXeXeXeXeXeXeXeXeXeXeXeXeX",
"eXeXeXeXeXeXeXeXeXeXeXeXeX# # # # # % w / / ^ 5 + # # # # # # # # # eXeXeXeXeXeXeXeXeXeXeXeXeXeXeXeX",
"eXeXeXeXeXeXeXeXeXeXeXeXeX# # # # # # + O O O @ # # # # # # # # # # eXeXeXeXeXeXeXeXeXeXeXeXeXeXeXeX",
"eXeXeXeXeXeXeXeXeXeXeXeXeXeX# # eXeXeXeX# # # # # # # # # # # # # eXeXeXeXeXeXeXeXeXeXeXeXeXeXeXeXeX",
"eXeXeXeXeXeXeXeXeXeXeXeXeXeXeX# # eXeXeXeXeX# # # # # # # eXeXeXeXeXeXeXeXeXeXeXeXeXeXeXeXeXeXeXeXeX",
"eXeXeXeXeXeXeXeXeXeXeXeXeXeXeXeXeXeXeXeXeXeXeXeX# # eXeXeXeXeXeXeXeXeXeXeXeXeXeXeXeXeXeXeXeXeXeXeXeX",
"eXeXeXeXeXeXeXeXeXeXeXeXeXeXeXeXeXeXeXeXeXeXeXeXeXeXeXeXeXeXeXeXeXeXeXeXeXeXeXeXeXeXeXeXeXeXeXeXeXeX",
"eXeXeXeXeXeXeXeXeXeXeXeXeXeXeXeXeXeXeXeXeXeXeXeXeXeXeXeXeXeXeXeXeXeXeXeXeXeXeXeXeXeXeXeXeXeXeXeXeXeX"
};
