/* XPM */
static char *result[] = {
/* columns rows colors chars-per-pixel */
"50 50 108 2 ",
"   c #9F0017",
".  c #9C031A",
"X  c #9B0A1E",
"o  c #AF010A",
"O  c #B10409",
"+  c #B40A09",
"@  c #B61409",
"#  c #B81209",
"$  c #BC1D09",
"%  c #AA0510",
"&  c #A80E15",
"*  c #A81016",
"=  c #A91A16",
"-  c #BB200A",
";  c #BD2A0D",
":  c #BC310E",
">  c #A6271D",
",  c #AA2319",
"<  c #AA2F1C",
"1  c #AF3F1E",
"2  c #8C0127",
"3  c #86002B",
"4  c #89012A",
"5  c #8F0C28",
"6  c #930020",
"7  c #900D28",
"8  c #921027",
"9  c #9E2223",
"0  c #A52E21",
"q  c #C22508",
"w  c #C32D09",
"e  c #CB3507",
"r  c #CD3A07",
"t  c #C1340A",
"y  c #C33A0A",
"u  c #D03F07",
"i  c #C02F18",
"p  c #C23513",
"a  c #AF401D",
"s  c #B9511B",
"d  c #B95221",
"f  c #C6420B",
"g  c #C9430A",
"h  c #C8480B",
"j  c #D14107",
"k  c #CE510A",
"l  c #CE5A0B",
"z  c #DD5A07",
"x  c #D35309",
"c  c #D95A08",
"v  c #C54E16",
"b  c #CA4E14",
"n  c #CD551F",
"m  c #C4581C",
"M  c #CF5C1F",
"N  c #E05D06",
"B  c #DD6106",
"V  c #D1630D",
"C  c #D9640A",
"Z  c #D36B0C",
"A  c #DE6C08",
"S  c #D6720C",
"D  c #DC750B",
"F  c #DA7C0C",
"G  c #C56516",
"H  c #D97213",
"J  c #D37B12",
"K  c #DA7C14",
"L  c #E06307",
"P  c #E06C08",
"I  c #E07509",
"U  c #E17D0A",
"Y  c #D26228",
"T  c #DA7834",
"R  c #DD840C",
"E  c #DE8C0D",
"W  c #D68010",
"Q  c #DD8512",
"!  c #DF9114",
"~  c #E2830A",
"^  c #E18D0C",
"/  c #E1920D",
"(  c #E48516",
")  c #E08F19",
"_  c #E29511",
"`  c #E49915",
"'  c #E39119",
"]  c #E59B1A",
"[  c #E6A01D",
"{  c #DD842F",
"}  c #E39721",
"|  c #E7A222",
" . c #E8A425",
".. c #E9A629",
"X. c #EAAA2D",
"o. c #E8A334",
"O. c #ECAD32",
"+. c #E5A53C",
"@. c #EDB032",
"#. c #EFB53C",
"$. c #EFB740",
"%. c #F1BC44",
"&. c #F2BE4A",
"*. c #F4C14D",
"=. c #F5C552",
"-. c #F6C855",
";. c #F7CB5B",
":. c None",
/* pixels */
":.:.:.:.:.:.:.:.:.:.:.:.:.:.:.:.:.:.:.:.:.:.:.:.:.:.:.:.:.:.:.:.:.:.:.:.:.:.:.:.:.:.:.:.:.:.:.:.:.:.",
":.:.:.:.:.:.:.:.:.:.:.:.:.:.:.:.:.:.:.:.:.:.:.:.:.:.:.:.:.:.:.:.:.:.:.:.:.:.:.:.:.:.:.:.:.:.:.:.:.:.",
":.:.:.:.:.:.:.:.:.:.:.:.:.:.:.:.:.:.:.:.:.:.:.:.:.:.:.:.:.:.:.:.:.:.:.:.:.:.:.:.:.:.:.:.:.:.:.:.:.:.",
":.:.:.:.:.:.:.:.:.:.:.:.:.:.:.:.:.:.:.:.:.:.:.:.:.:.:.:.:.:.:.:.:.:.:.:.:.:.:.:.:.:.:.:.:.:.:.:.:.:.",
":.:.:.:.:.:.:.:.:.:.:.:.:.:.:.:.:.:.:.:.:.:.:.:.:.:.:.:.:.:.:.:.:.:.:.:.:.:.:.:.:.:.:.:.:.:.:.:.:.:.",
":.:.:.:.:.:.:.:.:.:.:.:.:.:.:.:.:.:.:.:.:.:.:.:.:.:.:.:.:.:.:.:.:.:.:.:.:.:.:.:.:.:.:.:.:.:.:.:.:.:.",
":.:.:.:.:.:.:.:.:.:.:.:.:.:.:.:.:.:.:.:.:.:.:.:.:.:.:.:.:.:.:.:.:.:.:.:.:.:.:.:.:.:.:.:.:.:.:.:.:.:.",
":.:.:.:.:.:.:.:.:.:.:.:.:.:.:.:.:.:.:.:.:.:.:.:.:.:.:.:.:.:.:.:.:.:.:.:.:.:.:.:.:.:.:.:.:.:.:.:.:.:.",
":.:.:.:.:.:.:.:.:.:.:.:.:.:.:.:.:.:.:.:.:.:.:.:.:.:.:.:.:.:.:.:.:.:.:.:.:.:.:.:.:.:.:.:.:.:.:.:.:.:.",
":.:.:.:.:.:.:.:.:.:.:.:.:.:.:.:.:.:.:.:.:.:.:.:.:.:.:.:.:.:.:.:.:.:.:.:.:.:.:.:.:.:.:.:.:.:.:.:.:.:.",
":.:.:.:.:.:.:.:.:.:.:.:.:.:.:.:.:.:.:.:.:.:.:.:.:.:.:.:.:.:.:.:.:.:.:.:.:.:.:.:.:.:.:.:.:.:.:.:.:.:.",
":.:.:.:.:.:.:.:.:.:.:.:.:.:.:.:.:.:.:.:.:.:.:.:.:.:.:.:.:.:.:.:.:.:.:.:.:.:.:.:.:.:.:.:.:.:.:.:.:.:.",
":.:.:.:.:.:.:.:.:.:.:.:.:.:.:.:.:.:.:.:.:.:.:.:.:.:.:.:.:.:.:.:.:.:.:.:.:.:.:.:.:.:.:.:.:.:.:.:.:.:.",
":.:.:.:.:.:.:.:.:.:.:.:.:.:.:.:.:.:.:.:.:.:.:.:.:.:.:.:.:.:.:.:.:.:.:.:.:.:.:.:.:.:.:.:.:.:.:.:.:.:.",
":.:.:.:.:.:.:.:.:.:.:.:.:.:.:.:.:.:.:.:.:.:.:.:.:.:.:.:.O O O :.:.:.:.:.:.:.:.:.:.:.:.:.:.:.:.:.:.:.",
":.:.:.:.:.:.:.:.:.:.:.:.:.:.:.:.:.:.:.:.:.:.:.:.:.:.:.O O O O O O :.:.:.:.:.:.:.:.:.:.:.:.:.:.:.:.:.",
":.:.:.:.:.:.:.:.:.:.:.:.:.:.:.:.:.O O O O :.:.:.:.O O O O O O O O O :.:.:.:.:.:.:.:.:.:.:.:.:.:.:.:.",
":.:.:.:.:.:.:.:.:.:.O O O O O O O O O O O O O :.O O O o O O O O O O :.:.:.:.:.:.:.:.:.:.:.:.:.:.:.:.",
":.:.:.:.:.:.:.:.:.O O O O O O O O O O O O O o o O o o o O O O O O O O :.:.:.:.:.:.:.:.:.:.:.:.:.:.:.",
":.:.:.:.:.:.:.:.O O O O O O O O O o O + @ y y y y y y ; + o O O O O O :.:.:.:.:.:.:.:.:.:.:.:.:.:.:.",
":.:.:.:.:.:.:.:.O O O O O O O O # y b S Q ] `  .O. ./ E Z t + O O O O :.:.:.:.:.:.:.:.:.:.:.:.:.:.:.",
":.:.:.:.:.:.:.O O O O O O o O : K #.-.#.*.=.=.;.;.#./ / / ^ h o O O O :.:.:.:.:.:.:.:.:.:.:.:.:.:.:.",
":.:.:.:.:.:.:.O O O O O O + y } *.;.;.;.;.;.;.;.*._ / / / / R w O O O O :.:.:.:.:.:.:.:.:.:.:.:.:.:.",
":.:.:.:.:.:.:.O O O O O o - ' *.;.;.;.;.;.;.;.;.O./ / / / / / F @ O O O :.:.:.:.:.:.:.:.:.:.:.:.:.:.",
":.:.:.:.:.:.:.O O O O O + l #.;.;.;.;.;.;.;.;.=.` / / / / / / / y O O O :.:.:.:.:.:.:.:.:.:.:.:.:.:.",
":.:.:.:.:.:.:.O O O O O t _ =.;.;.;.;.;.;.;.-.| / ^ / / / / / / Z O O O O :.:.:.:.:.:.:.:.:.:.:.:.:.",
":.:.:.:.:.:.:.:.O O O + l _ *.;.;.;.;.;.;.;.*._ U U / / / / / / S + O O O O :.:.:.:.:.:.:.:.:.:.:.:.",
":.:.:.:.:.:.:.:.O O O @ R _ | O.=.;.;.-.&.=.%./ A ^ / / / / / / F $ O O O :.:.:.:.:.:.:.:.:.:.:.:.:.",
":.:.:.:.:.:.:.:.:.O O @ R / /  .-.;.$.| _ ` ` ^ P ^ / / / ^ ^ / ~ q O O O :.:.:.:.:.:.:.:.:.:.:.:.:.",
":.:.:.:.:.:.:.:.:.o O @ R / /  .%..._ / E J J / ~ ^ / ^ D L L I P q O O :.:.:.:.:.O :.:.:.:.:.:.:.:.",
":.:.:.:.:.:.:.:.:.+ o @ R / / ! / / J m < 5 8 G ^ I / U N N N z w O O O :.:.:.:.:.O :.:.:.:.:.:.:.:.",
":.:.:.:.:.:.:.:.:.o + o h E E / / a 8 4 4 4 4 s ] U I I L L L r O O O :.:.:.:.:.:.:.:.:.:.:.:.:.:.:.",
":.:.:.:.:.:.:.:.:.O O O O = s / / a 4 4 4 2 6 m &.( D U ^ F u # O O O :.:.:.:.:.:.:.:.:.:.:.:.:.:.:.",
":.:.:.:.:.:.:.:.O O + O O . 9 F / E : * * @ $ K =.O./ E F g O O O O O O :.:.:.:.:.:.:.:.:.:.:.:.:.:.",
":.:.:.:.:.:.:.:.O O O O O %   y J ! ' A B A R | *. .J < ; + O O O O O O O :.:.:.:.O :.:.:.:.:.:.:.:.",
":.:.:.:.:.:.:.:.O O O O O O O f 9 s +.#. . . .O.] G , ; z $ o O O O O O O O O O O O :.:.:.:.:.:.:.:.",
":.:.:.:.:.:.:.O O O O O O O O - > . v #.-.%.../ Z X o Z U e O O O O O O O O O O O :.:.:.:.:.:.:.:.:.",
":.:.:.:.:.:.O O O O O O O O o + Z x I X.} ] / ` h o O k ~ j O O O O O O O O O O :.:.:.:.:.:.:.:.:.:.",
":.:.:.:.:.O :.:.O O O O O O O O - F [ #./ / [ @.n o @ Z ~ u O O O O O O O O :.:.:.:.:.:.:.:.:.:.:.:.",
":.:.:.:.:.:.:.:.O O O O O O O O O S ] @. .o.{ Y p h S U z q O O O O O O O :.:.:.:.:.:.:.:.:.:.:.:.:.",
":.:.:.:.:.:.:.:.:.O O O O O O O O t H T M i t Z F ~ c w # O O O O O O O :.:.:.:.:.:.:.:.:.:.:.:.:.:.",
":.:.:.:.O :.:.:.:.:.O O O O O O O O e g h Z E ~ B e + O o O O O O O O :.:.:.:.:.:.:.:.:.:.:.:.:.:.:.",
":.:.:.:.:.O :.:.:.:.:.:.:.O O O O O @ x B C x w + O O O O O O + O :.:.:.:.:.:.:.:.:.:.:.:.:.:.:.:.:.",
":.:.:.:.:.:.:.:.:.:.:.:.:.:.:.:.:.O O O O + O O O O O O O O :.:.:.:.:.:.:.:.:.:.:.:.:.:.:.:.:.:.:.:.",
":.:.:.:.:.:.:.:.:.:.:.:.:.:.:.:.:.:.O O O O O O O O O O O :.:.:.:.:.:.:.:.:.:.:.:.:.:.:.:.:.:.:.:.:.",
":.:.:.:.:.:.:.:.:.:.:.:.:.:.:.:.:.:.:.O O O O O O O O :.:.:.:.:.:.:.:.:.:.:.:.:.:.:.:.:.:.:.:.:.:.:.",
":.:.:.:.:.:.:.:.:.:.:.:.:.:.:.:.:.:.:.:.:.:.:.:.:.:.:.:.:.:.:.:.:.:.:.:.:.:.:.:.:.:.:.:.:.:.:.:.:.:.",
":.:.:.:.:.:.:.:.:.:.:.:.:.:.:.:.:.:.:.:.:.:.:.:.:.:.:.:.:.:.:.:.:.:.:.:.:.:.:.:.:.:.:.:.:.:.:.:.:.:.",
":.:.:.:.:.:.:.:.:.:.:.:.:.:.:.:.:.:.:.:.:.:.:.:.:.:.:.:.:.:.:.:.:.:.:.:.:.:.:.:.:.:.:.:.:.:.:.:.:.:.",
":.:.:.:.:.:.:.:.:.:.:.:.:.:.:.:.:.:.:.:.:.:.:.:.:.:.:.:.:.:.:.:.:.:.:.:.:.:.:.:.:.:.:.:.:.:.:.:.:.:."
};
