/* XPM */
static char *a101644161065[] = {
/* columns rows colors chars-per-pixel */
"50 50 100 2 ",
"   c None",
".  c #C6100F",
"X  c #C81110",
"o  c #C81111",
"O  c #C91111",
"+  c #C91112",
"@  c #CA1112",
"#  c #CA1212",
"$  c #CA1213",
"%  c #CB1213",
"&  c #CC1213",
"*  c #CC1214",
"=  c #CC1314",
"-  c #CD1314",
";  c #CD1315",
":  c #CE1315",
">  c #CE1316",
",  c #CF1316",
"<  c #CF1416",
"1  c #CF1417",
"2  c #D01417",
"3  c #D11418",
"4  c #D11518",
"5  c #D21518",
"6  c #D21519",
"7  c #D31519",
"8  c #D3151A",
"9  c #D4161A",
"0  c #D4161B",
"q  c #D5161B",
"w  c #D6161B",
"e  c #D6161C",
"r  c #D6171C",
"t  c #D7171C",
"y  c #D7171D",
"u  c #D8171D",
"i  c #D8171E",
"p  c #D9181E",
"a  c #DA181F",
"s  c #DB1820",
"d  c #DB1920",
"f  c #DC1920",
"g  c #DC1921",
"h  c #DD1921",
"j  c #DD1A22",
"k  c #DE1A22",
"l  c #DF1A23",
"z  c #E01A24",
"x  c #E01B24",
"c  c #E11B24",
"v  c #E11B25",
"b  c #E21B25",
"n  c #E21C26",
"m  c #E31C26",
"M  c #E31C27",
"N  c #E41C27",
"B  c #E51D28",
"V  c #E61D28",
"C  c #E61D29",
"Z  c #E71D29",
"A  c #E71E2A",
"S  c #E81E2A",
"D  c #E81E2B",
"F  c #E91E2B",
"G  c #E91F2B",
"H  c #EA1F2C",
"J  c #EB1F2C",
"K  c #EB1F2D",
"L  c #EC202E",
"P  c #ED202E",
"I  c #ED202F",
"U  c #EE202F",
"Y  c #EE212F",
"T  c #EF2130",
"R  c #F02130",
"E  c #F02131",
"W  c #F12231",
"Q  c #F12232",
"!  c #F22232",
"~  c #F22233",
"^  c #F32233",
"/  c #F32333",
"(  c #F42334",
")  c #F52334",
"_  c #F52335",
"`  c #F62435",
"'  c #F62436",
"]  c #F72436",
"[  c #F72437",
"{  c #F82437",
"}  c #F82537",
"|  c #F82538",
" . c #F92538",
".. c #FA2539",
"X. c #FA2639",
"o. c #FB2639",
"O. c #FB263A",
"+. c #FC263A",
"@. c #FC263B",
"#. c #FD273B",
/* pixels */
"                                                                                                    ",
"                                                      * - #                                         ",
"                                                # * * A W * *                                       ",
"                                                4 T _ {  .A * #                                     ",
"                                              * 4 _  .{ i * m t % *                                 ",
"                                            # m _  .A 4 &   m _ - *                                 ",
"                                          # i { _ t -       m [ - *                                 ",
"                                        # 4 /  .s # #       m  .K %                                 ",
"                                        - I I 4 * %         m  .T %                                 ",
"                                        m p 4 #             A  . .c                                 ",
"                                      l j # # *             m  .W 4                                 ",
"                                    * 4 -                   m @.W # * #                             ",
"                                  % % %                     m  .T & # * %                           ",
"                                  % %                       m #.T &     % % %                       ",
"                                %                           m @.W *       % % *                     ",
"                                %                         # N m 4 # # # # # c - # # #               ",
"                                                          # 4 - j i F L F p t N i F 2 #             ",
"                                                        # 0 K T _ W @.@.@./ 0 I 2 R I F j #         ",
"                                                    % * c 4 s s j j p j a K a a a 0 [ @./ 0 #       ",
"                                                  % % * t 4 A A -         i 2 0 / t u a K I *       ",
"                                                # &     * K @.N *             t o.j # . x  .4       ",
"                                            % % *       4  . .0               * F R 4   0 W A *     ",
"                                            %         * m { @.p                 a { u   # F W *     ",
"                                                      # / { I 2                 0 R u     K W *     ",
"                                                    # p [ @.m X                 # A r     L { p     ",
"                                                    0 W  .W t                   # A A     F @.F     ",
"                                                  # j @. .F #                   # i W -   F  .F     ",
"                                                  - I  . .j                       # L 2   F @.F     ",
"                                                # t  . .N #                       * K * i W { j     ",
"                                                # t  .{ 4                         * F 0 K  .N #     ",
"                                                * c  .I 4                         & F j  . .4       ",
"                                              * * [ _ 0                         # # L p  .I 4       ",
"                                              % - ( s #                       * s 4 K t K 4 #       ",
"                                            % # * m #                         c  .c L - # #         ",
"                                            % 4 * #                       # t _ @.j K - #           ",
"        #                                   % A i #                       3 W { I p F 2             ",
"      * #                                 % * N 0 &                     t F W A % # K 2             ",
"      #                                 % * c j # &                 # i [ I 0 #   % F 2             ",
"      *                                 % 4 c # #                 4 2 K m # #     - F 2             ",
"      * *           *                 % % % # *               % * m p # #         % F 4             ",
"      # #         # *                 * # * #               # 2 4 m # *           4 I 2             ",
"      * *         * #               * # * # *           # * # A 4 * #             A _ 2             ",
"      # #         * #             # # * #           * # * # * # #               # A W *             ",
"      * # *       # *           * # *             * # * # * #                   # A t               ",
"        # *     * # *           # * #         # # * # * *                     # * N 0               ",
"          * # * # * # # #     * *           * * * # #                       # * x j #               ",
"            * # * # # * # * # *           # * #                           & & p N &                 ",
"            # * # * * # * # * #                                           # F I *                   ",
"                * # * # * # * # * #                                   * # * * - #                   ",
"                                                                    # * * #                         "
};
