/* XPM */
static char *a111644161065[] = {
/* columns rows colors chars-per-pixel */
"50 50 101 2 ",
"   c None",
".  c #C71010",
"X  c #C81110",
"o  c #C81111",
"O  c #C91111",
"+  c #C91112",
"@  c #CA1112",
"#  c #CA1212",
"$  c #CA1213",
"%  c #CB1213",
"&  c #CC1213",
"*  c #CC1214",
"=  c #CC1314",
"-  c #CD1314",
";  c #CD1315",
":  c #CE1315",
">  c #CE1316",
",  c #CF1316",
"<  c #CF1416",
"1  c #D01417",
"2  c #D11418",
"3  c #D11518",
"4  c #D21518",
"5  c #D21519",
"6  c #D31519",
"7  c #D3151A",
"8  c #D4161A",
"9  c #D4161B",
"0  c #D5161B",
"q  c #D6161C",
"w  c #D6171C",
"e  c #D7171C",
"r  c #D7171D",
"t  c #D8171D",
"y  c #D9181E",
"u  c #DA181F",
"i  c #DB181F",
"p  c #DB1820",
"a  c #DB1920",
"s  c #DC1920",
"d  c #DC1921",
"f  c #DD1921",
"g  c #DD1922",
"h  c #DD1A22",
"j  c #DE1A22",
"k  c #DE1A23",
"l  c #DF1A23",
"z  c #E01A23",
"x  c #E01B24",
"c  c #E11B24",
"v  c #E11B25",
"b  c #E21B25",
"n  c #E21C26",
"m  c #E31C26",
"M  c #E41C27",
"N  c #E41D27",
"B  c #E51D28",
"V  c #E61D28",
"C  c #E61D29",
"Z  c #E71D29",
"A  c #E71E29",
"S  c #E71E2A",
"D  c #E81E2A",
"F  c #E91E2B",
"G  c #EA1F2C",
"H  c #EB1F2C",
"J  c #EB1F2D",
"K  c #EC202E",
"L  c #ED202E",
"P  c #ED202F",
"I  c #EE202F",
"U  c #EE212F",
"Y  c #EE2130",
"T  c #EF2130",
"R  c #F02130",
"E  c #F02131",
"W  c #F12231",
"Q  c #F12232",
"!  c #F22232",
"~  c #F22233",
"^  c #F32233",
"/  c #F32333",
"(  c #F32334",
")  c #F42334",
"_  c #F52334",
"`  c #F52335",
"'  c #F52435",
"]  c #F62435",
"[  c #F62436",
"{  c #F72436",
"}  c #F72437",
"|  c #F82437",
" . c #F82537",
".. c #F92538",
"X. c #FA2539",
"o. c #FA2639",
"O. c #FB2639",
"+. c #FB263A",
"@. c #FC263A",
"#. c #FC263B",
"$. c #FD263B",
/* pixels */
"                                                      # , #                                         ",
"                                                    & 1 D , #                                       ",
"                                                  # k [ | C , #                                     ",
"                                                # 0 [ [ q , # %                                     ",
"                                              , 3 R C < ,   # C 0                                   ",
"                                              # J R ,       # K G %                                 ",
"                                              v [ 3 &       & K Y ,                                 ",
"                                            u [ u ,         & K O.v #                               ",
"                                            k N &           % K O.C #                               ",
"                                          # a l # # % % % % , K O.C #                               ",
"                                      # # # , , # , # # # , # J O.C # , %                           ",
"                                  # # a Y 3 # #             # K O.C # # % %                         ",
"                                # < J ` v , # ,             k [ O.C #   % % % %                     ",
"                              # k R R t     #               M O.@.D #     % % %                     ",
"                            # q ` k 0 #     #               M @.R 3 #     % % % #                   ",
"                          # , ( C ,                     # # 3 q p k # # # # # % # , # #             ",
"                          # M a 0                     # C G G D J ` G G G G G , # % v ,             ",
"                          v a #                   # u G [ @.@.@.O.| O.O...O.O.C # % t l #           ",
"                        # q ,                   < C R O.` k a k ` O.O.O.O.O.#.O.g # , k a #         ",
"                        , #                   # , u k k k M C C k k a k p a a v ` q # q R C 3       ",
"                      # #                             # v O.O.C #             , k 6 # t O.O.6       ",
"                      ,                             # , R O.G , #                 # # , l R M #     ",
"                    # #                             % % R O.v #                     # # # p ( p     ",
"                                                    # a O.R 0 #                       , % % ( G #   ",
"                                                    # G @.G #                         % # , R ( 0   ",
"                                                    # G @.G #                         % # , ( #.v   ",
"                                                  , # D ` a                           % # , R O.k   ",
"                                                  # . D ` ,                           % % t [ O.k   ",
"                                                  1 k K C ,                           % % G O.O.v   ",
"                                                # 0 O.O.3 #                           % % G O.( 0   ",
"                                                , v O.[ 3                             % % G @.D #   ",
"                                                < ` @.J 3                         # q , 3 R J k     ",
"                                              # u O.R q #                       1 a Y , v Y , #     ",
"                                              3 R #.N #                       , C O.( , u 0 #       ",
"                                            # C O.[ k #                     # k O.O.G , # #         ",
"                                            , G O.Y %                     0 t [ ` G 3 # #           ",
"                                          , v O.O.C %                   , D O.R k # % %             ",
"                                        # 3 } } J , #                 q v ` G , #   % %             ",
"                                        % u } O.q #               # 3 J R a # #   # % %             ",
"                                      # 3 ` O.} q #               3 v 3 # ,       , %               ",
"                                      # G O.O.( 0             % t v # , #         # #               ",
"      %                               , G O.} a #           3 , C # #             #                 ",
"      % %         %                 # v O.O.M %     # 1 3 k ( 0 #               ,                   ",
"        % %       %               & # M O.J % % 3 3 1 D ` C % %               # #                   ",
"          %       %             & # k | | 3 3 3 Y O.R a # %                   # ,                   ",
"          % %     %             # 0 ` | ) k ` O.[ D # ,                     # ,                     ",
"            % % % % % %     % % , K O.[ k R ( R q % #                     # #                       ",
"            % % % % % % # # # , C O.O.C D R , , %                         ,                         ",
"              % % % % % % % # k | O.O.| u , #                         % %                           ",
"                                                                                                    "
};
