/* XPM */
static char *a121644161065[] = {
/* columns rows colors chars-per-pixel */
"50 50 95 2 ",
"   c None",
".  c #C81111",
"X  c #C91111",
"o  c #C91112",
"O  c #CA1112",
"+  c #CA1212",
"@  c #CA1213",
"#  c #CB1213",
"$  c #CC1213",
"%  c #CC1214",
"&  c #CC1314",
"*  c #CD1314",
"=  c #CD1315",
"-  c #CE1315",
";  c #CE1316",
":  c #CF1416",
">  c #CF1417",
",  c #D01417",
"<  c #D11417",
"1  c #D11418",
"2  c #D11518",
"3  c #D21518",
"4  c #D21519",
"5  c #D31519",
"6  c #D3151A",
"7  c #D3161A",
"8  c #D4161A",
"9  c #D4161B",
"0  c #D5161B",
"q  c #D6161C",
"w  c #D6171C",
"e  c #D7171C",
"r  c #D7171D",
"t  c #D8171D",
"y  c #D8171E",
"u  c #D9181E",
"i  c #D9181F",
"p  c #DA181F",
"a  c #DB1820",
"s  c #DB1920",
"d  c #DC1920",
"f  c #DC1921",
"g  c #DD1921",
"h  c #DE1A22",
"j  c #DE1A23",
"k  c #DF1A23",
"l  c #E01B24",
"z  c #E11B24",
"x  c #E11B25",
"c  c #E21B25",
"v  c #E21C26",
"b  c #E31C26",
"n  c #E31C27",
"m  c #E41C27",
"M  c #E51D28",
"N  c #E61D29",
"B  c #E71D29",
"V  c #E71E2A",
"C  c #E81E2A",
"Z  c #E81E2B",
"A  c #E91E2B",
"S  c #E91F2B",
"D  c #EA1F2C",
"F  c #EB1F2C",
"G  c #EB1F2D",
"H  c #EC1F2D",
"J  c #EC202D",
"K  c #EC202E",
"L  c #ED202E",
"P  c #ED202F",
"I  c #EE202F",
"U  c #EE212F",
"Y  c #EE2130",
"T  c #EF2130",
"R  c #F02131",
"E  c #F12231",
"W  c #F22232",
"Q  c #F22233",
"!  c #F32233",
"~  c #F32333",
"^  c #F42334",
"/  c #F52335",
"(  c #F62435",
")  c #F62436",
"_  c #F72436",
"`  c #F72437",
"'  c #F82437",
"]  c #F82537",
"[  c #F92538",
"{  c #FA2538",
"}  c #FA2539",
"|  c #FA2639",
" . c #FB2639",
".. c #FB263A",
"X. c #FC263A",
/* pixels */
"                                                    & & % %                                         ",
"                                                  # k ( 2 & & &                                     ",
"                                                $ w ( [ R # x y #                                   ",
"                                              $ H ( [ ] R & x / < &                                 ",
"                                            # v [ R , 2 1 # v [ D &                                 ",
"                                          # u ( ( 2 #       m X.I &                                 ",
"                                        # 2 / v 2           v X.I &                                 ",
"                                        & I I &             m [ I &                                 ",
"                                        & 2 , # # # # # # # : R T &                                 ",
"                                      # # # # # # # # # # # # 2 2 # # #                             ",
"                                    # # # # # #             k R C & # # #                           ",
"                                  # # # #                 # v [ w # # $ # # #                       ",
"                                # # #                     w / ( & &     # # # #                     ",
"                            # # # #                       s [ ( <         # # #                     ",
"                          # # # #                         & u w # # O # # # # # # #                 ",
"                          # # # #                     # # 0 D D H D C D D C C 0 D w #               ",
"                          # # #                     s H D R X.X.X.X.X.[ [ X.( 2 M R 2 #             ",
"                        # # #                   # # 2 s k y y k y s s k [ X.[ H n T D &             ",
"                      # # #                           # & C w #         a s k ( C 2 / x #           ",
"                    # # # #                           # < [ z .               k w # k / y #         ",
"                    # # #                             # m R 2                   # # & m ! 1 %       ",
"                    # #                               # / H #                     # # & I H &       ",
"                  # #                               # k / y                       & k & 2 ! M       ",
"                  # #                               # C ^ &                       & D & % s T &     ",
"                  #                                 $ C ^ &                       % D < & & D &     ",
"                  #                               # w R R ,                       % D & & & T s     ",
"                                                  # k [ m &                       & H k # & R H     ",
"                                                  & D [ 2                         & R H O g ] C     ",
"                                                % M [ H <                         & T H 0 R X.C     ",
"                                              # & ( X.y #                         & H x x [ ] x     ",
"                                              # s [ / 0                           & D 2 C X.v #     ",
"                                              # R / y #                           & M k / C &       ",
"                                            # 2 ! T #                             & J w u # #       ",
"                                            : I [ T #                         & 0 0 m $ #           ",
"                                          # u X.[ M #                     # w k k k , # #           ",
"                                          # y [ H &                     2 y M M # # #               ",
"                                          $ v ! 0                     # x / 2 # # #                 ",
"                                        # s ( y #                   % w I k # # #                   ",
"                                      # & / D # #                 < & x # # # # #                   ",
"                                      $ 2 ^ x #             # & 2 s k # # #   #                     ",
"                                      # H I & #           # & 2 M # # # #   # #                     ",
"                                    # & M 2 #         # 2 1 x w # # #     # #                       ",
"                                  # & M s # # # # 2 2 0 R C # # #         #                         ",
"                                  # k / w & 2 2 0 ( [ / I & # #         #                           ",
"        # #                     & 2 ( x & y ( [ [ [ / u # #           #                             ",
"        # # #                   > R T & H [ [ ( / C & # #           #                               ",
"          # # #               & M [ D # D ( / k # & #                                               ",
"          # # # # # # # # # # k [ / 2 # D 0 & &                                                     ",
"            # # # # # # # # 2 ] [ [ H %                                                             ",
"                                                                                                    "
};
