/* XPM */
static char *a131644161065[] = {
/* columns rows colors chars-per-pixel */
"50 50 93 2 ",
"   c None",
".  c #C81111",
"X  c #C91111",
"o  c #C91112",
"O  c #CA1112",
"+  c #CA1212",
"@  c #CA1213",
"#  c #CB1213",
"$  c #CC1213",
"%  c #CC1214",
"&  c #CC1314",
"*  c #CD1314",
"=  c #CD1315",
"-  c #CE1315",
";  c #CE1316",
":  c #CF1316",
">  c #CF1416",
",  c #CF1417",
"<  c #D01417",
"1  c #D11418",
"2  c #D11518",
"3  c #D21519",
"4  c #D31519",
"5  c #D3151A",
"6  c #D3161A",
"7  c #D4161A",
"8  c #D4161B",
"9  c #D5161B",
"0  c #D6161C",
"q  c #D6171C",
"w  c #D7171C",
"e  c #D7171D",
"r  c #D8171D",
"t  c #D8181E",
"y  c #D9181E",
"u  c #D9181F",
"i  c #DA181F",
"p  c #DB1820",
"a  c #DB1920",
"s  c #DC1920",
"d  c #DC1921",
"f  c #DD1921",
"g  c #DE1A22",
"h  c #DE1A23",
"j  c #DF1A23",
"k  c #E01B24",
"l  c #E11B24",
"z  c #E11B25",
"x  c #E21B25",
"c  c #E21C26",
"v  c #E31C26",
"b  c #E31C27",
"n  c #E41C27",
"m  c #E41D27",
"M  c #E51D28",
"N  c #E61D28",
"B  c #E61D29",
"V  c #E71E2A",
"C  c #E81E2A",
"Z  c #E81E2B",
"A  c #E91E2B",
"S  c #E91F2B",
"D  c #EA1F2C",
"F  c #EB1F2C",
"G  c #EB1F2D",
"H  c #EC202E",
"J  c #ED202E",
"K  c #ED202F",
"L  c #EE202F",
"P  c #EE212F",
"I  c #EF2130",
"U  c #F02131",
"Y  c #F12131",
"T  c #F12231",
"R  c #F12232",
"E  c #F22232",
"W  c #F22233",
"Q  c #F32233",
"!  c #F32333",
"~  c #F42334",
"^  c #F52335",
"/  c #F62435",
"(  c #F62436",
")  c #F72436",
"_  c #F72437",
"`  c #F82437",
"'  c #F82537",
"]  c #F92538",
"[  c #FA2538",
"{  c #FA2539",
"}  c #FA2639",
"|  c #FB2639",
" . c #FB263A",
/* pixels */
"                                                                                                    ",
"                                                  * * * * * * * #                                   ",
"                                              * * w ^ t . r ^ W - #                                 ",
"                                            . v ^ ^ V . # # V { P -                                 ",
"                                          . t ( t < - &     v { P .                                 ",
"                                        * Q V 4 -           n  .Q .                                 ",
"                                        . 4 < .             v { ` v                                 ",
"                                      * * .                 n { Q <                                 ",
"                                    * . . $ $ . . - # # # . V { P .                                 ",
"                                    * $ $ 1 P Q Q Q T T H . n { Q $ $                               ",
"                                  . . i Q Q  .V 4 9 9 9 7 . v  .Q . . -                             ",
"                                  < P ^ { t 7 <           w ( ( t . - . $                           ",
"                              . x Q I 7 7 *             . t  .( - &     - .                         ",
"                            . w ^ x 7 .                 . f { ` < -       - .                       ",
"                          * C Q V *                     . t ` v - .       . -                       ",
"                          n { I *                       < P { 7 . -         . -                     ",
"                        . P ( 9 #                     # 4 { { w #             - .                   ",
"                      . t l t                         . , ( { w .               -                   ",
"                    . 7 n <                           * V { Z -                 - .                 ",
"                    < n 7 .                           # Q { v .                 . - .               ",
"                    - t .                             t (  .j .                   - .               ",
"                  * $ .                             . H `  .l .                   . - .             ",
"                  * $                               . H `  .l                     - . -             ",
"                * . $                               . H {  .v                       - .             ",
"                . -                               . 7 Q { Q 7                       # # #           ",
"              . -                                 $ l { { C .                       # # .           ",
"              * .                                 . f { ` H                         # 4 w           ",
"              *                                   < P { ( v                         . t V           ",
"            . *                                 . 6 { { n .                           4 t           ",
"                                                - v { ` 4                             # #           ",
"                                              - - ( { I 4                             # #           ",
"                                              . t ` T 7 .                       #     # #           ",
"                                            . 7 ^ { p .                       # #     # #           ",
"                                            . V { x .                       # #       # #           ",
"                                            * P _ -                       # #         #             ",
"                                          * b { P -                     # # #       # #             ",
"                                        # p _ W 4 .                 . 7 * #         # #             ",
"                                        - W ( p .                 w < V *         # #               ",
"                                      # 4 ( Z #               # f ( t . #         # #               ",
"                                      . H { b               4 w I h .           # #                 ",
"                                      * U Z #           # 4 v Q - #             #                   ",
"                                    * V _ 4 #         # w Q f .               # #                   ",
"                                  # p ^ I 4         * , V # #               # #                     ",
"                                # 4 _ x #       * * f p . #               # #                       ",
"                                * U Z #     # 4 w V # #                   #                         ",
"                              * * Z ; * * , h _ I ; #                   #                           ",
"                            . * n w # # V ^ ^ f # #                   # #                           ",
"                  # #     * . x h . # # * * * *                     # #                             ",
"                    # # # # 4 { f . #                             #                                 ",
"                                                              # # #                                 "
};
