/* XPM */
static char *a21644161064[] = {
/* columns rows colors chars-per-pixel */
"50 50 32 1 ",
"  c None",
". c #CA1212",
"X c #CB1213",
"o c #CC1213",
"O c #CC1214",
"+ c #CC1314",
"@ c #CD1314",
"# c #CD1315",
"$ c #CE1315",
"% c #CF1416",
"& c #D01417",
"* c #D11418",
"= c #D11518",
"- c #D21519",
"; c #D31519",
": c #D7171C",
"> c #D8171D",
", c #DD1922",
"< c #E31C26",
"1 c #E51D28",
"2 c #E61D28",
"3 c #F02131",
"4 c #F12232",
"5 c #F42334",
"6 c #F52334",
"7 c #F52335",
"8 c #F62435",
"9 c #F62436",
"0 c #F82537",
"q c #F92538",
"w c #FA2539",
"e c #FA2639",
/* pixels */
"                                                  ",
"                                                  ",
"                                                  ",
"                                                  ",
"                                                  ",
"                                                  ",
"                                                  ",
"                                                  ",
"                                                  ",
"                                                  ",
"                                                  ",
"                                                  ",
"                                                  ",
"                                                  ",
"                                                  ",
"                                                  ",
"                                                  ",
"                                                  ",
"                                                  ",
"                                                  ",
"                                                  ",
"                                                  ",
"                                                  ",
"                                                  ",
"                                                  ",
"                                                  ",
"                                                  ",
"              X                                   ",
"             XX                                   ",
"            XX                                    ",
"           XX                                     ",
"         XXX                                      ",
"        XXX                                       ",
"        XXX                                       ",
"       XXX                                        ",
"       XX                                         ",
"      XXX                                         ",
"      XX                                          ",
"      XX                                          ",
"      XX                                          ",
"      XXX                                         ",
"      XXX                                         ",
"       XX&;;;                                     ",
"         <5w1&&XXX++                              ",
"         X%45w4&;%;@X                             ",
"         X++1ww0w801o                             ",
"         XX;580w8858>X                            ",
"          XX%%38,XooXX                            ",
"             X@@@+XXX                             ",
"                                                  "
};
