/* XPM */
static char *a31644161064[] = {
/* columns rows colors chars-per-pixel */
"50 50 63 1 ",
"  c None",
". c #C91112",
"X c #CA1112",
"o c #CA1212",
"O c #CA1213",
"+ c #CB1213",
"@ c #CC1214",
"# c #CC1314",
"$ c #CD1314",
"% c #CD1315",
"& c #CE1315",
"* c #CE1316",
"= c #CF1416",
"- c #CF1417",
"; c #D01417",
": c #D11418",
"> c #D11518",
", c #D21518",
"< c #D21519",
"1 c #D31519",
"2 c #D3151A",
"3 c #D4161B",
"4 c #D5161B",
"5 c #D6161C",
"6 c #D7171D",
"7 c #D8171D",
"8 c #D9181E",
"9 c #DA181F",
"0 c #DB1920",
"q c #DD1921",
"w c #DE1A22",
"e c #DE1A23",
"r c #DF1A23",
"t c #E01B24",
"y c #E11B25",
"u c #E21C26",
"i c #E31C27",
"p c #E41C27",
"a c #E61D29",
"s c #E81E2B",
"d c #E91E2B",
"f c #E91F2B",
"g c #EB1F2D",
"h c #EC202D",
"j c #EC202E",
"k c #ED202E",
"l c #ED202F",
"z c #F12232",
"x c #F22232",
"c c #F32233",
"v c #F42334",
"b c #F52335",
"n c #F62435",
"m c #F62436",
"M c #F72436",
"N c #F72437",
"B c #F82537",
"V c #F92538",
"C c #FA2538",
"Z c #FA2539",
"A c #FA2639",
"S c #FB2639",
"D c #FB263A",
/* pixels */
"                                                  ",
"                                                  ",
"                                                  ",
"                                                  ",
"                                                  ",
"                                                  ",
"                                                  ",
"                                                  ",
"                                                  ",
"                                                  ",
"                                                  ",
"                                                  ",
"                                                  ",
"                                                  ",
"                                                  ",
"                                                  ",
"                                                  ",
"                                                  ",
"                                                  ",
"                                                  ",
"                                                  ",
"                                                  ",
"                                                  ",
"                                                  ",
"                                                  ",
"                                                  ",
"                                                  ",
"                                                  ",
"             +                                    ",
"           +++                                    ",
"          +;3                                     ",
"        +++t9                                     ",
"        ++wg+                                     ",
"       +;9xi                                      ",
"      +&aVh+                                      ",
"     ++wVV3+                       4&             ",
"     +&bVx;+                     +3g;             ",
"     +4MM5+                    @44kv&             ",
"     +kxw+                    =7MVVs&             ",
"     +i=+                 ++&3sVBVb3+             ",
"     ++++              ++++=9BVVVM7+              ",
"     ++++            +++++3kVVVVVt+               ",
"     +++++       +++++&3;0VVVVVbs+                ",
"     +++++=++++++++&3&wVVVVVbxx5++                ",
"     +++;3g333&:3&;iVVVVVBMx3+++                  ",
"      +3bBVBMMBMBMBVVVbvMvi+++                    ",
"      ++wVVVVVVVBVBMbMa++&++                      ",
"       +wVVbbbbbbbMi+&#+++                        ",
"           &&&&&&#&##++                           ",
"                                                  "
};
