/* XPM */
static char *a41644161064[] = {
/* columns rows colors chars-per-pixel */
"50 50 81 1 ",
"  c None",
". c #C81111",
"X c #C91111",
"o c #C91112",
"O c #CA1112",
"+ c #CA1212",
"@ c #CA1213",
"# c #CB1213",
"$ c #CC1213",
"% c #CC1214",
"& c #CC1314",
"* c #CD1314",
"= c #CD1315",
"- c #CE1315",
"; c #CE1316",
": c #CF1316",
"> c #CF1416",
", c #D01417",
"< c #D11417",
"1 c #D11418",
"2 c #D11518",
"3 c #D21518",
"4 c #D21519",
"5 c #D31519",
"6 c #D4161A",
"7 c #D4161B",
"8 c #D5161B",
"9 c #D6161C",
"0 c #D6171C",
"q c #D7171C",
"w c #D7171D",
"e c #D8171D",
"r c #D9181E",
"t c #D9181F",
"y c #DA181F",
"u c #DB1820",
"i c #DC1921",
"p c #DD1A22",
"a c #DE1A22",
"s c #DF1A23",
"d c #E01B24",
"f c #E11B24",
"g c #E11B25",
"h c #E21B25",
"j c #E31C27",
"k c #E41C27",
"l c #E51D28",
"z c #E61D29",
"x c #E71E2A",
"c c #E81E2A",
"v c #E91E2B",
"b c #E91F2C",
"n c #EA1F2C",
"m c #EC202D",
"M c #EC202E",
"N c #ED202E",
"B c #ED202F",
"V c #EE202F",
"C c #EF2130",
"Z c #F02131",
"A c #F12131",
"S c #F12231",
"D c #F12232",
"F c #F22232",
"G c #F32233",
"H c #F32333",
"J c #F42334",
"K c #F52334",
"L c #F52335",
"P c #F62435",
"I c #F62436",
"U c #F72436",
"Y c #F72437",
"T c #F82437",
"R c #F82537",
"E c #F92538",
"W c #FA2539",
"Q c #FA2639",
"! c #FB2639",
"~ c #FB263A",
"^ c #FC263A",
/* pixels */
"                                                  ",
"                                                  ",
"                                                  ",
"                                                  ",
"                                                  ",
"                                                  ",
"                                                  ",
"                                                  ",
"                                                  ",
"                                                  ",
"                                                  ",
"                                                  ",
"                                                  ",
"                                                  ",
"                                                  ",
"                                                  ",
"                                                  ",
"                                                  ",
"                                                  ",
"                                                  ",
"                                                  ",
"                                                  ",
"                                             #    ",
"                                            u8    ",
"                                           #hi    ",
"                                           ,Ne#   ",
"             ##                           #8~r#   ",
"            e1#                          #*l~r#   ",
"          -uNr#                         ##i~C1#   ",
"         #i~S1#                         ##S~h#%   ",
"        #8L~h##                        ##0SYr#    ",
"       #1N~Le##                       %-un~h#     ",
"      #>c~~N##                       ##1~~c-#     ",
"     ##1Y~Rh#                       ##8hSc,#      ",
"     ##iRRm#                       #-eS~h###      ",
"     #*Y~R1##                    #10h~~l###       ",
"     #0Y~S1#                   #>8n!!!S-##        ",
"     #N~L0##                 ##1i~R~YV1##         ",
"     #NYh###               ##&>S~RRJk###          ",
"     #Nm####             ###18c~R~S1###           ",
"     #n>####           ###-8S~~RYSr##             ",
"     #l>####       ####,11k~~RRLc###              ",
"     #######   #####,11l!~RRTLS0##                ",
"     #-1>1,##&1111<<N~~YRR~LLl###                 ",
"      -SRRL111YRRR~~R~Y~~JJe###                   ",
"      #1L~RRRR~R~RRRRRYLS-#-##                    ",
"      ##d~RLJJJJJJJJLLl#-##                       ",
"       #iLS>*&********%#                          ",
"        --##########                              ",
"                                                  "
};
