/* XPM */
static char *a51644161064[] = {
/* columns rows colors chars-per-pixel */
"50 50 90 1 ",
"  c None",
". c #C91111",
"X c #C91112",
"o c #CA1112",
"O c #CA1212",
"+ c #CA1213",
"@ c #CB1213",
"# c #CC1213",
"$ c #CC1214",
"% c #CC1314",
"& c #CD1314",
"* c #CD1315",
"= c #CE1315",
"- c #CE1316",
"; c #CF1416",
": c #D01417",
"> c #D11417",
", c #D11418",
"< c #D11518",
"1 c #D21518",
"2 c #D21519",
"3 c #D31519",
"4 c #D3151A",
"5 c #D4161A",
"6 c #D4161B",
"7 c #D5161B",
"8 c #D6161C",
"9 c #D6171C",
"0 c #D7171C",
"q c #D7171D",
"w c #D8171D",
"e c #D8181E",
"r c #D9181E",
"t c #DA181F",
"y c #DB1820",
"u c #DB1920",
"i c #DC1920",
"p c #DC1921",
"a c #DD1921",
"s c #DD1922",
"d c #DD1A22",
"f c #DE1A23",
"g c #DF1A23",
"h c #E01A24",
"j c #E01B24",
"k c #E11B24",
"l c #E11B25",
"z c #E21B25",
"x c #E31C27",
"c c #E41C27",
"v c #E51D28",
"b c #E71D29",
"n c #E71E29",
"m c #E71E2A",
"M c #E81E2A",
"N c #E81E2B",
"B c #E91E2B",
"V c #EA1F2C",
"C c #EB1F2C",
"Z c #EB1F2D",
"A c #EC1F2D",
"S c #EC202D",
"D c #EC202E",
"F c #ED202E",
"G c #ED202F",
"H c #EE212F",
"J c #EF2130",
"K c #F02131",
"L c #F12131",
"P c #F12231",
"I c #F12232",
"U c #F22232",
"Y c #F22233",
"T c #F32233",
"R c #F32333",
"E c #F32334",
"W c #F42334",
"Q c #F52334",
"! c #F52335",
"~ c #F62436",
"^ c #F72436",
"/ c #F72437",
"( c #F82437",
") c #F82537",
"_ c #F92538",
"` c #FA2538",
"' c #FA2539",
"] c #FA2639",
"[ c #FB2639",
"{ c #FB263A",
/* pixels */
"                                                  ",
"                                                  ",
"                                                  ",
"                                                  ",
"                                                  ",
"                                                  ",
"                                                  ",
"                                                  ",
"                                                  ",
"                                                  ",
"                                                  ",
"                                                  ",
"                                                  ",
"                                                  ",
"                                                  ",
"                                                  ",
"                                                  ",
"                                                  ",
"                                                  ",
"                                                  ",
"                                                  ",
"                                             @@   ",
"                                             @@   ",
"                                             yf#  ",
"                                            yEQ%  ",
"              @                             z'U%  ",
"             @@@                           5V'U%  ",
"            @@@                            8''U%  ",
"           @@@@                           #c''x%  ",
"          %ff<                           @f''A%   ",
"         @fRB5                          @@J'J<@   ",
"        @@UB@@         @                *fU'x@    ",
"        <fUF%         ##               rn''^y@    ",
"       *n''z@         :<             @8^''Fz%     ",
"      @<))R%          fz            %rJ''U*@      ",
"      #f)'Q%@        %fw           #x''^Fr@@      ",
"     @8^')S#         <n@#        @<f^)'B@@@       ",
"     @F')'<@        %yB%%      @%5A''QA%@@        ",
"     @F''^5@       @5QBnr     <5f)''Jy@@@         ",
"     @F''^5        $A{Bg8  @%<B')'QV%$@@          ",
"     @F''^<%       %F{V%@#5<r^')'^r@@@            ",
"     @F''^<%      <n'''z*f')'')'Uz@@@             ",
"     @B''^e%@   @5^'''^fF'''^UUJ*%@               ",
"      %U)'E5*@@@:U)))'B%U)URF*@@@                 ",
"      @<QURRz@*<B')')'xz^V$@@@@                   ",
"      @@$%%@:<W'')')^F#@@@@@@@                    ",
"       @@@@e^RWWWWR^r@@                           ",
"         @@@@%&&%*#*#                             ",
"           @@@@@@@@@                              ",
"                                                  "
};
