/* XPM */
static char *a61644161064[] = {
/* columns rows colors chars-per-pixel */
"50 50 97 2 ",
"   c None",
".  c #C81111",
"X  c #C91111",
"o  c #C91112",
"O  c #CA1112",
"+  c #CA1212",
"@  c #CA1213",
"#  c #CB1213",
"$  c #CC1213",
"%  c #CC1214",
"&  c #CC1314",
"*  c #CD1314",
"=  c #CD1315",
"-  c #CE1315",
";  c #CE1316",
":  c #CF1316",
">  c #CF1416",
",  c #CF1417",
"<  c #D01417",
"1  c #D11418",
"2  c #D11518",
"3  c #D21518",
"4  c #D21519",
"5  c #D31519",
"6  c #D3151A",
"7  c #D3161A",
"8  c #D4161A",
"9  c #D4161B",
"0  c #D5161B",
"q  c #D6171C",
"w  c #D7171C",
"e  c #D7171D",
"r  c #D8171D",
"t  c #D8181E",
"y  c #D9181E",
"u  c #D9181F",
"i  c #DA181F",
"p  c #DB1820",
"a  c #DB1920",
"s  c #DC1921",
"d  c #DD1921",
"f  c #DD1922",
"g  c #DD1A22",
"h  c #DE1A22",
"j  c #DE1A23",
"k  c #DF1A23",
"l  c #E01B24",
"z  c #E11B24",
"x  c #E11B25",
"c  c #E21B25",
"v  c #E21C26",
"b  c #E31C26",
"n  c #E31C27",
"m  c #E41C27",
"M  c #E41D27",
"N  c #E51D28",
"B  c #E61D28",
"V  c #E61D29",
"C  c #E71D29",
"Z  c #E71E29",
"A  c #E71E2A",
"S  c #E81E2A",
"D  c #E81E2B",
"F  c #E91E2B",
"G  c #EA1F2C",
"H  c #EB1F2D",
"J  c #EC1F2D",
"K  c #EC202E",
"L  c #ED202E",
"P  c #ED202F",
"I  c #EE202F",
"U  c #EE212F",
"Y  c #EF2130",
"T  c #F02130",
"R  c #F02131",
"E  c #F12231",
"W  c #F12232",
"Q  c #F22232",
"!  c #F32233",
"~  c #F32333",
"^  c #F32334",
"/  c #F42334",
"(  c #F52335",
")  c #F52435",
"_  c #F62435",
"`  c #F62436",
"'  c #F72436",
"]  c #F72437",
"[  c #F82437",
"{  c #F82537",
"}  c #F82538",
"|  c #F92538",
" . c #FA2538",
".. c #FA2539",
"X. c #FA2639",
"o. c #FB2639",
"O. c #FB263A",
/* pixels */
"                                                                                                    ",
"                                                                                                    ",
"                                                                                                    ",
"                                                                                                    ",
"                                                                                                    ",
"                                                                                                    ",
"                                                                                                    ",
"                                                                                                    ",
"                                                                                                    ",
"                                                                                                    ",
"                                                                                                    ",
"                                                      #                                             ",
"                                                      #                                             ",
"                                                      #                                             ",
"                                                      #               # #                           ",
"                                                      x 8             # q f . # #                   ",
"                                                      A 8               < 4 n K f # #               ",
"                                                      A 8                 # 8 n ) S A #             ",
"                                                    # A A -                 # - i f ~ n # #         ",
"                                                    # S ~ -                     # # e x S 8 #       ",
"                                                    r ) ~ -                         # , f < #       ",
"                                                  # l O.~ -                           # # $ #       ",
"                                                  # f O.~ -                             # # #       ",
"                                                  # f  .~ -                               # # #     ",
"                                                # - K  .W -                               i , #     ",
"                                                # q  .} W ,                             # S 4 #     ",
"                                              # # 8  . .~ -                           # 4 ~ 4       ",
"                                              # # n  . .x -                           , J G ,       ",
"                      8 8                     # - )  .} 4 #                         - n  .q #       ",
"                    - k a                   # # a )  .} 4 #                       # , [ ~ 4 #       ",
"                # 8 x G #                   # q (  . .P ,                       # 8 f ) i #         ",
"              # < Y  .x                     # A  . . .r #                       < P  .n # $         ",
"            , i A  .) -                   # # n [  .^ 8 #                   # $ A  .G - #           ",
"            - W  . .W ,                   # , K  . .A #                   # # f  .~ < #             ",
"          @ q }  .~ A @                 # # i  . .) a #                 # 4 f ) W q # @             ",
"          4 Y O. .f . #                 # - n [  .M #               # # - G  .Y k # @               ",
"          n  . .( q #                 # @ 4 }  .) - #             # @ 8 x  .Y - # #                 ",
"        - S  . .A # #                 # @ 4 ]  .Y -             # , r W  .( 8 # #                   ",
"        f  . .} f # #               # # @ p  .W 4 #         # # # M  .} ~ f # @                     ",
"        i  . .Y # # #               # - 4 ( ] r #       # # < 8 f ) ~ G @ @ @                       ",
"        e ) [ ~ $ # #             # # - P  .n # # # # # - 4 K  .~ x # # #                           ",
"        # n  .P # # #           - @ - M  .~ - @ # # # < i ) ~ P - # # #                             ",
"          f [ ~ < # # #         @ @ a  . .~ # @ # 4 < G ~ ~ f # #                                   ",
"          - A ( n # # #       # @ 4 } }  .~ @ - 8 / ~ ~ 4 # # #                                     ",
"          # # # # # # # # # # # , Y  . . .J - M ( G - # @ -                   , #                   ",
"          # # # # # # # # # $ , A  . . .} 4 i f # $ #                       4 A -                   ",
"            # # # # # # @ - q [  .}  . .( 4 # $                         , , S 4                     ",
"            # # # # # - < G  . .}  .}  .                            # - i ^ i                       ",
"                    # r )  . . .                                  - < P S -                         ",
"                                                                # f ) 4 ,                           "
};
