/* XPM */
static char *a71644161064[] = {
/* columns rows colors chars-per-pixel */
"50 50 101 2 ",
"   c None",
".  c #C81111",
"X  c #C91111",
"o  c #C91112",
"O  c #CA1112",
"+  c #CA1212",
"@  c #CA1213",
"#  c #CB1213",
"$  c #CC1213",
"%  c #CC1214",
"&  c #CC1314",
"*  c #CD1314",
"=  c #CD1315",
"-  c #CE1315",
";  c #CE1316",
":  c #CF1316",
">  c #CF1416",
",  c #CF1417",
"<  c #D01417",
"1  c #D11417",
"2  c #D11418",
"3  c #D11518",
"4  c #D21518",
"5  c #D21519",
"6  c #D31519",
"7  c #D3151A",
"8  c #D3161A",
"9  c #D4161A",
"0  c #D4161B",
"q  c #D5161B",
"w  c #D6161C",
"e  c #D6171C",
"r  c #D7171C",
"t  c #D7171D",
"y  c #D8171D",
"u  c #D8171E",
"i  c #D8181E",
"p  c #D9181E",
"a  c #D9181F",
"s  c #DA181F",
"d  c #DB1820",
"f  c #DB1920",
"g  c #DC1920",
"h  c #DC1921",
"j  c #DD1921",
"k  c #DD1A22",
"l  c #DE1A22",
"z  c #DE1A23",
"x  c #DF1A23",
"c  c #E01B24",
"v  c #E11B24",
"b  c #E11B25",
"n  c #E21B25",
"m  c #E21C26",
"M  c #E31C26",
"N  c #E41C27",
"B  c #E41D28",
"V  c #E51D28",
"C  c #E61D28",
"Z  c #E61D29",
"A  c #E71D29",
"S  c #E71E2A",
"D  c #E81E2A",
"F  c #E81E2B",
"G  c #E91E2B",
"H  c #E91F2C",
"J  c #EA1F2C",
"K  c #EB1F2D",
"L  c #EC1F2D",
"P  c #EC202E",
"I  c #ED202E",
"U  c #ED202F",
"Y  c #EE202F",
"T  c #EE212F",
"R  c #EF2130",
"E  c #F02130",
"W  c #F02131",
"Q  c #F12231",
"!  c #F12232",
"~  c #F22232",
"^  c #F22233",
"/  c #F32233",
"(  c #F32333",
")  c #F32334",
"_  c #F42334",
"`  c #F52335",
"'  c #F62435",
"]  c #F62436",
"[  c #F72436",
"{  c #F72437",
"}  c #F82437",
"|  c #F82537",
" . c #F82538",
".. c #F92538",
"X. c #FA2538",
"o. c #FA2539",
"O. c #FA2639",
"+. c #FB2639",
"@. c #FB263A",
"#. c #FC263A",
"$. c #FC263B",
/* pixels */
"                                                                                                    ",
"                                                                                                    ",
"                                                                                                    ",
"                                                                                                    ",
"                                                            #                                       ",
"                                                            #                                       ",
"                                                            # #                                     ",
"                                                          # c t                                     ",
"                                                        # # c d                                     ",
"                                                        # # c ~ <                                   ",
"                                                        # t [ [ <                                   ",
"                                                      # . d ..[ 5                                   ",
"                                                      # ; ~ ..[ <                                   ",
"                                                      # 2 [ ../ 5                                   ",
"                                                      % S ....[ <                                   ",
"                                                      c { ..../ 5     # # # #                       ",
"                                                    # S ........; # # # # . % # . # %               ",
"                                                    # S ..$.J y ; y J J J J J J J t . #             ",
"                                                    y [ ] h 5 # 5 c g g j g g g d S J c # #         ",
"                                                  # c G i # # # ; w # #         # t g c i # #       ",
"                                                  # 5 < # . # #                       - N 5 #       ",
"                                                  # # # % S t #                       # w N -       ",
"                                                  # # h G ~ 5 #                         # S 5 #     ",
"                                                # 5 c ~ $.J #                           . S 5 #     ",
"                                                # 5 ......h #                           w ~ 5 #     ",
"                                              # # S ....M # #                 #       # v } 5       ",
"                      #                       # ; ] ..} 5 #                   # #     - T ] 5       ",
"                      #                       # h ] ....5 #                   # # # $ S ..} 5       ",
"                    # $                       # ~ $...L - #                     # # - ....T ;       ",
"                  # t $                     % # L ....y #                       # # # P } i #       ",
"                # w S                       # t / ..~ t #                       # w i y ..h #       ",
"              # < T 5                       - R ..{ i # #                       . G ] w G 5 #       ",
"            # - G ..w                     # g ..$.T # #                       ; 5 g _ i # #         ",
"          # # g ..} w                     # i ....~ # #                   # # M G # R T #           ",
"          # i } ..~ 5                   # # N ..} N #                     # - G g 5 ~ P #           ",
"        # < ~ ....g #                   # 5 ....T ; #                   # # # $ 5 S $.T #           ",
"        # c $.} ..g                     # h } } w #                   # # # # 5 v N $.c #           ",
"        ; J $...] i                   # & _ ..[ < #                 # # # # # # ; J [ ;             ",
"        g $.....S #                   # 5 ] $.g # #               # # # # # #   g ..T ;             ",
"        y ......S #                 # - T ..] i #             # # # # # # #     g ..5 #             ",
"        g ..} } S #               # % S ..} M #             # # # # # # #     ; N [ w               ",
"        i ] ..[ N . #           # # t ....~ ;             # # # # # #         5 ..g #               ",
"        # N ~ i c # #           # # g ....T #       # # # # # # #           % i ] i                 ",
"        # v w # # # # #     # # ; 5 [ ..~ 5 -   # # # # # # # #           # - [ N #                 ",
"        # # # # # # # # # # # ; 5 R ..[ y 5 M # # # # # % #               ; T L ;                   ",
"          # # # # # # # # # ; g ......S $ # $ # # # #                     M ~ 5 #                   ",
"            # # # # # # # ; t ] ........g ;                             $ M i #                     ",
"            # # # # # < ; L ..............{                           # i g #                       ",
"              # # # < [ [ ] ............                            # # ; ;                         ",
"                                                                # # # #                             "
};
