/* XPM */
static char *a81644161065[] = {
/* columns rows colors chars-per-pixel */
"50 50 99 2 ",
"   c None",
".  c #C81110",
"X  c #C81111",
"o  c #C91111",
"O  c #C91112",
"+  c #CA1112",
"@  c #CA1212",
"#  c #CA1213",
"$  c #CB1213",
"%  c #CC1213",
"&  c #CC1214",
"*  c #CC1314",
"=  c #CD1314",
"-  c #CD1315",
";  c #CE1315",
":  c #CE1316",
">  c #CF1316",
",  c #CF1416",
"<  c #CF1417",
"1  c #D01417",
"2  c #D11417",
"3  c #D11418",
"4  c #D11518",
"5  c #D21518",
"6  c #D21519",
"7  c #D31519",
"8  c #D3151A",
"9  c #D4161A",
"0  c #D4161B",
"q  c #D5161B",
"w  c #D6171C",
"e  c #D7171D",
"r  c #D8171D",
"t  c #D8171E",
"y  c #D8181E",
"u  c #D9181E",
"i  c #D9181F",
"p  c #DA181F",
"a  c #DB181F",
"s  c #DB1820",
"d  c #DB1920",
"f  c #DC1920",
"g  c #DC1921",
"h  c #DD1921",
"j  c #DD1922",
"k  c #DD1A22",
"l  c #DE1A22",
"z  c #DE1A23",
"x  c #DF1A23",
"c  c #E01B24",
"v  c #E11B24",
"b  c #E11B25",
"n  c #E21B25",
"m  c #E21C26",
"M  c #E31C26",
"N  c #E31C27",
"B  c #E41C27",
"V  c #E51D28",
"C  c #E61D28",
"Z  c #E61D29",
"A  c #E71D29",
"S  c #E71E29",
"D  c #E71E2A",
"F  c #E81E2A",
"G  c #E81E2B",
"H  c #E91E2B",
"J  c #E91F2B",
"K  c #E91F2C",
"L  c #EA1F2C",
"P  c #EB1F2C",
"I  c #EB1F2D",
"U  c #EC1F2D",
"Y  c #EC202D",
"T  c #EC202E",
"R  c #ED202E",
"E  c #ED202F",
"W  c #EF2130",
"Q  c #F02131",
"!  c #F12231",
"~  c #F22233",
"^  c #F32233",
"/  c #F32333",
"(  c #F42334",
")  c #F52334",
"_  c #F52335",
"`  c #F52435",
"'  c #F62435",
"]  c #F62436",
"[  c #F72436",
"{  c #F72437",
"}  c #F82437",
"|  c #F82537",
" . c #F82538",
".. c #F92538",
"X. c #FA2539",
"o. c #FA2639",
"O. c #FB263A",
"+. c #FC263A",
"@. c #FC263B",
/* pixels */
"                                                                                                    ",
"                                                                                                    ",
"                                                                                                    ",
"                                                          $ $ $                                     ",
"                                                          $ $ $ $                                   ",
"                                                            c e $ $                                 ",
"                                                            M ] Y $                                 ",
"                                                            M O.W %                                 ",
"                                                            M O.R $ $                               ",
"                                                            M O.] M $                               ",
"                                                            M O.O.B $                               ",
"                                                            M O.O.V $                               ",
"                                                          $ c O.O.V $                               ",
"                                                          $ c O.O.V $                               ",
"                                                          $ V @.O.V $                               ",
"                                                          $ 3 r e 2 $ . $ $ $ . $ $ $ $             ",
"                                                        , G G G Y Y V Y Y G Y Y Y Y M $ $           ",
"                                                    $ c R O.@.@.+.O.@.@.O.O.+.O.O.O.O.Y a $         ",
"                                                  7 V ] | a a a a a s s a s s a s s s V ~ 7 $       ",
"                                                M R @.G h G V V x $ $       $ @ $ . . , Y R ,       ",
"                                              $ a h h , 2 O.O.] h $           $ w V 2 $ 7 ~ 2       ",
"                                                    $ $ 7 ] | ] ,               w M c , $ e c %     ",
"                                                      $ 2 ] O.B :                 $ K , $ $ Y :     ",
"                                                    $ $ M O.R ,                   : G 2 $ $ G ,     ",
"                                                    $ $ ~ ~ q $                   $ G , w 7 a $     ",
"                                                  $ $ a ] U $ $                   $ Y , M a . $     ",
"                                                  $ $ K O.h $                     % h s M V , $     ",
"                                                  $ 7 W M $                       $ , G c O.7 $     ",
"                                                $ : K O.7 $                       $ 2 V c O.2 $     ",
"                                                $ q O.R ,                         $ 7 K c | 2       ",
"                                              $ $ c | r $                         $ , G c | 7       ",
"                                              % : { O.a $                         $ 7 G c | 7       ",
"                                            $ $ a { / e                         $ $ 7 V M ] 7       ",
"            $ $                             $ % W ] s $                       $ $ $ 2 h x O.7       ",
"          $ $       $                       $ 7 ~ W $                       $ $ $ $ $ % V O.7       ",
"          $ $       $                     $ : K O.V $                   $ $ $ $ $ $ $ e O.R 7       ",
"          $         $                     $ a O.R % $                 $ $ $ $ $ $ $ : h O.a         ",
"        $         $ $                   $ $ a O.q $                 $ $ $ $ $ $ $ $ 2 ] / a         ",
"        $         $ q                   $ $ c ~ 7 $               $ $ $ $ $ $ $ $ $ , ] M           ",
"        $         : K ,               $ $ a ] a $             $ $ $ $ $ $ $ $ $ $ $ e / M           ",
"        $         : Y ,               $ : ~ M $ $           $ $ $ $ $ $ $ $ $ $   $ R G $           ",
"        $         2 R ,             $ $ 7 Y : $         $ $ $ $ $ $ $ $ $ $       q V :             ",
"        $ $       V ] 2             $ : R ~ *       $ $ $ $ $ $ $ $ $ $         h ] 7 $             ",
"        $ $     : G @.Y $         : 2 c O.W ,     $ $ $ $ $ $ $ $ $           $ h h $               ",
"          $ $   h | O.R :       $ 2 ] O.O.    $ $ $ $ $ $ $ $ $           $ , a M $                 ",
"            $ $ h O.| O.c $ $               $ $ $ $ $ $ $                 $ G R *                   ",
"            $ $ h ] ( ] h $ $ $           $ $ $ $ $                     $ $ $ : $                   ",
"              $ % : % , : $               $ $                         $ $ $                         ",
"                  $                                                   $ $                           ",
"                                                                                                    "
};
