/* XPM */
static char *a91644161065[] = {
/* columns rows colors chars-per-pixel */
"50 50 101 2 ",
"   c None",
".  c #C81111",
"X  c #C91111",
"o  c #C91112",
"O  c #CA1112",
"+  c #CA1212",
"@  c #CA1213",
"#  c #CB1213",
"$  c #CC1213",
"%  c #CC1214",
"&  c #CC1314",
"*  c #CD1314",
"=  c #CD1315",
"-  c #CE1315",
";  c #CE1316",
":  c #CF1316",
">  c #CF1416",
",  c #CF1417",
"<  c #D01417",
"1  c #D11417",
"2  c #D11418",
"3  c #D11518",
"4  c #D21518",
"5  c #D21519",
"6  c #D31519",
"7  c #D3151A",
"8  c #D3161A",
"9  c #D4161A",
"0  c #D4161B",
"q  c #D5161B",
"w  c #D6161C",
"e  c #D6171C",
"r  c #D7171C",
"t  c #D7171D",
"y  c #D8171D",
"u  c #D8181E",
"i  c #D9181E",
"p  c #D9181F",
"a  c #DA181F",
"s  c #DB181F",
"d  c #DB1820",
"f  c #DB1920",
"g  c #DC1920",
"h  c #DC1921",
"j  c #DD1921",
"k  c #DD1A22",
"l  c #DE1A22",
"z  c #DE1A23",
"x  c #DF1A23",
"c  c #E01B24",
"v  c #E11B24",
"b  c #E11B25",
"n  c #E21B25",
"m  c #E21C26",
"M  c #E31C26",
"N  c #E31C27",
"B  c #E41C27",
"V  c #E41D27",
"C  c #E51D28",
"Z  c #E61D28",
"A  c #E61D29",
"S  c #E71D29",
"D  c #E71E2A",
"F  c #E81E2A",
"G  c #E81E2B",
"H  c #E91E2B",
"J  c #E91F2B",
"K  c #EA1F2C",
"L  c #EB1F2C",
"P  c #EB1F2D",
"I  c #EC202D",
"U  c #EC202E",
"Y  c #ED202E",
"T  c #ED202F",
"R  c #EE212F",
"E  c #EF2130",
"W  c #F02130",
"Q  c #F02131",
"!  c #F12232",
"~  c #F22232",
"^  c #F22233",
"/  c #F32233",
"(  c #F32333",
")  c #F42334",
"_  c #F52335",
"`  c #F52435",
"'  c #F62435",
"]  c #F62436",
"[  c #F72436",
"{  c #F72437",
"}  c #F82437",
"|  c #F82537",
" . c #F82538",
".. c #F92538",
"X. c #FA2539",
"o. c #FA2639",
"O. c #FB2639",
"+. c #FB263A",
"@. c #FC263A",
"#. c #FC263B",
"$. c #FD273B",
/* pixels */
"                                                                                                    ",
"                                                    * -                                             ",
"                                                  O l u O O                                         ",
"                                                # e ] ] 8 * O                                       ",
"                                              O < (  . .R - # #                                     ",
"                                            O b ]  .C 8 - # x t O                                   ",
"                                            O C ] q -     O C ( < O                                 ",
"                                          O u ] f $       O b o.G *                                 ",
"                                        O 8 C 8 -         O b $./ O                                 ",
"                                        O - < O           O C  .| b                                 ",
"                                        b 8 O             O N  .$.C                                 ",
"                                      O 8                 O C  . .C                                 ",
"                                      O                   O C  . .C                                 ",
"                                    -                     O C  . .C * # #                           ",
"                                                        O q ]  .) 3 O O O # O #                     ",
"                                                        O u $.b f I I E b O O * O O O               ",
"                                                        8 b u < G $.C y b P P * O v G *             ",
"                                                        - 8 O b  .R b G B s g G g 0 ' b O           ",
"                                                      O - C I ( z b ] $.' G 0 z ' q y ' y #         ",
"                                                    # - C $.R u O 8 g g g g 8 * C / < B / 8 O       ",
"                                                  # O * g g 8 O # O           # 2 T G * E P *       ",
"                                                # # # * b B B 8 #               O G $.g 8 / G       ",
"                                            - # # # * O / $.P < #               O y ' | 0 y R *     ",
"                                          O O #   # O g ]  .v O #                 O E  ./ 8 G *     ",
"                                            #     # O G  ./ q O                   O g |  .g G -     ",
"                                                  O 0 / $.I O O                     8 / $.g G -     ",
"                                                  O x $.] g & O                     8 ' / b R #     ",
"                                                  O z  .) # &                       < ] b I / -     ",
"                                                * - I  .C *                         8 ' b I b *     ",
"                                                O q  .R - #                         2 ' b I 8       ",
"                                              O # b  .g O                           < ' b g 8       ",
"                                              * * | ) 0 O                         * * ..b O O       ",
"                                              # f ' f O #                       O O < ) u O         ",
"                                            # O E C O O                       u u < g G $           ",
"                                            # 8 N - #                       * / #.v E P $           ",
"                                            O C t O                     . 8 f ] | u R C             ",
"                      #                   * - N q O                   O q G #./ v 8 R -             ",
"                    #                   # O u f O                 # 8 f  .' P * O C E -             ",
"                  #                     * 8 # # #                 - R $.| g O O . B t               ",
"                                      O * B -                 # 8 b  .( B O     - B q               ",
"                                      # # # #               8 t ]  ./ 8 O       f f O               ",
"                                      # # #           O 8 b  . .( E f O       # O O                 ",
"          #                         # # #         8 8 8 /  .] E - -           # *                   ",
"          #                       # # #       - q '  .| | ) g O O           # # O                   ",
"          #       #             # # #     8 < G  ...' ' T * #               # #                     ",
"          # #   # #             # # #    .| |  .' ' b O * #               # #                       ",
"            # # # # # #       # * O         ../ 0 * *                     #                         ",
"            # # # # # # # # # # O           G # *                       #                           ",
"              # # # # # # # #                                         & O                           ",
"                                                                                                    "
};
