/* XPM */
static char *result[] = {
/* columns rows colors chars-per-pixel */
"50 50 182 2 ",
"   c #0D0022",
".  c #120022",
"X  c #1B0224",
"o  c #1B072A",
"O  c #1C102C",
"+  c #24042B",
"@  c #330526",
"#  c #3D062D",
"$  c #2B1023",
"%  c #3B1928",
"&  c #260030",
"*  c #2D0331",
"=  c #320632",
"-  c #3A0B32",
";  c #341538",
":  c #272329",
">  c #2C2C2C",
",  c #262829",
"<  c #362F2A",
"1  c #3C382F",
"2  c #2D2D3C",
"3  c #302E33",
"4  c #2F3132",
"5  c #303333",
"6  c #36393A",
"7  c #410E12",
"8  c #451D1E",
"9  c #511E1F",
"0  c #4B0D0A",
"q  c #631E12",
"w  c #6A2212",
"e  c #672012",
"r  c #732B13",
"t  c #792E19",
"y  c #762D1A",
"u  c #7D311A",
"i  c #74331C",
"p  c #450A2D",
"a  c #4B092B",
"s  c #550927",
"d  c #560B28",
"f  c #590B28",
"g  c #471926",
"h  c #5F142A",
"j  c #461936",
"k  c #691C27",
"l  c #4C2222",
"z  c #41342B",
"x  c #5C392C",
"c  c #5A232B",
"v  c #793E33",
"b  c #69342C",
"n  c #3A3C43",
"m  c #383746",
"M  c #362A41",
"N  c #4A3641",
"B  c #3C4343",
"V  c #3E4A4E",
"C  c #3E454A",
"Z  c #444B4D",
"A  c #4B4D4F",
"S  c #5B4746",
"D  c #5B574C",
"F  c #414E51",
"G  c #445256",
"H  c #4C5659",
"J  c #585B5E",
"K  c #60604E",
"L  c #666550",
"P  c #4F5C60",
"I  c #515E62",
"U  c #405676",
"Y  c #655C7F",
"T  c #576468",
"R  c #51627A",
"E  c #616667",
"W  c #646373",
"Q  c #636E73",
"!  c #716370",
"~  c #726E70",
"^  c #637175",
"/  c #67767B",
"(  c #6B7A7E",
")  c #80331B",
"_  c #8C3D1D",
"`  c #923F19",
"'  c #873B29",
"]  c #99471D",
"[  c #B55C1F",
"{  c #9F4D22",
"}  c #95522A",
"|  c #87583B",
" . c #A85926",
".. c #B25F27",
"X. c #AE602C",
"o. c #B3672E",
"O. c #AF6431",
"+. c #B56E34",
"@. c #C27935",
"#. c #8E5F44",
"$. c #966B4E",
"%. c #A97141",
"&. c #A77250",
"*. c #CC8034",
"=. c #D3843D",
"-. c #ED983F",
";. c #B18E48",
":. c #B6845B",
">. c #908C7E",
",. c #909076",
"<. c #9A866D",
"1. c #A99A6F",
"2. c #C9974F",
"3. c #CF8E49",
"4. c #EF9940",
"5. c #E39647",
"6. c #DBAB53",
"7. c #DDB256",
"8. c #E8A051",
"9. c #EAB552",
"0. c #F1BE57",
"q. c #EFAF4E",
"w. c #D5A26F",
"e. c #D8A874",
"r. c #ECB26C",
"t. c #FFBF6D",
"y. c #F7BC70",
"u. c #F3C057",
"i. c #F8C558",
"p. c #FFC97C",
"a. c #FBD37D",
"s. c #696085",
"d. c #8376AA",
"f. c #7A898E",
"g. c #728288",
"h. c #7E8E93",
"j. c #7E9096",
"k. c #848A8C",
"l. c #828895",
"z. c #809196",
"x. c #8A9594",
"c. c #829599",
"v. c #989E94",
"b. c #8C83B1",
"n. c #938BB6",
"m. c #968DB8",
"M. c #9E99BE",
"N. c #9B94BB",
"B. c #8797A4",
"V. c #A196BE",
"C. c #9AA5A6",
"Z. c #C5BB9D",
"A. c #D0BFA6",
"S. c #EACD99",
"D. c #F1D39D",
"F. c #FCD798",
"G. c #FBDBA0",
"H. c #F0D5A0",
"J. c #E9DFB7",
"K. c #FEE1A4",
"L. c #9F9CC0",
"P. c #A09DC0",
"I. c #A7A5C5",
"U. c #ACAAC8",
"Y. c #B9B1CE",
"T. c #B1B3CD",
"R. c #B8BBD3",
"E. c #B1A8C9",
"W. c #C1BCD4",
"Q. c #C1C6D9",
"!. c #C2CADB",
"~. c #CDC8DC",
"^. c #C7D1DE",
"/. c #CED6E2",
"(. c #DADFE8",
"). c #D6DEE7",
"_. c #DBE0E9",
"`. c #E6EAEF",
"'. c #EFF2F5",
"]. c #FEFEFE",
"[. c #F5F7F9",
"{. c None",
/* pixels */
"{.{.{.{.{.{.{.{.{.{.{.{.{.{.{.{.{.{.{.{.{.{.{.{.{.{.{.{.{.{.{.{.{.{.{.{.{.{.{.{.{.{.{.{.{.{.{.{.{.{.",
"{.{.{.{.{.{.{.{.{.{.{.{.{.{.{.{.{.{.{.{.{.{.{.{.{.{.{.].].{.{.{.{.{.{.{.{.{.{.{.{.{.{.{.{.{.{.{.{.{.",
"{.{.{.{.{.{.{.{.{.{.{.{.{.{.{.{.{.{.{.{.{.{.{.{.{.{.{.].].].{.{.{.{.{.{.{.{.{.{.{.{.{.{.{.{.{.{.{.{.",
"{.{.{.{.{.{.{.{.{.{.{.{.{.{.{.{.{.{.{.{.{.{.{.{.{.{.{._.(.'.].{.{.{.{.{.{.{.{.{.{.{.{.{.{.{.{.{.{.{.",
"{.{.{.{.{.{.{.{.{.{.{.{.{.{.{.{.{.{.{.{.{.{.{.{.{.{.{.!.U.!.`.{.{.{.{.{.{.{.{.{.{.{.{.{.{.{.{.{.{.{.",
"{.{.{.{.{.{.{.{.{.{.{.{.{.{.{.{.{.{.{.{.{.{.{.{.{.{.{._.N.V.^.{.{.{.{.{.{.{.{.{.{.{.{.{.{.{.{.{.{.{.",
"{.{.{.{.{.{.{.{.{.{.{.{.{.{.{.{.{.{.{.{.{.{.{.{.{.{.{.].Y.I.R.{.{.{.{.{.{.{.{.{.{.{.{.{.{.{.{.{.{.{.",
"{.{.{.{.{.{.{.{.{.{.{.{.{.{.{.{.{.{.{.{.{.{.{.{.{.{.{.{.].Y.N./.{.{.{.{.{.{.{.{.{.{.{.{.{.{.{.{.{.{.",
"{.{.{.{.{.{.{.{.{.{.{.{.{.{.{.{.{.{.{.{.{.{.{.{.{.{.{.{.].Y.E.].{.{.{.{.{.{.{.{.{.{.{.{.{.{.{.{.{.{.",
"{.{.{.{.{.{.{.{.{.{.{.{.{.{.{.{.{.{.{.{.{.{.{.{.{.{.{.{./.P.E.].{.{.{.{.{.{.{.{.{.{.{.{.{.{.{.{.{.{.",
"{.{.{.{.{.{.{.{.{.{.{.{.{.{.{.{.{.{.{.{.{.{.{.{.{.{.{.{.^.M.M.).{.{.{.{.{.{.{.{.{.{.{.{.{.{.{.{.{.{.",
"{.{.{.{.{.{.{.{.{.{.{.{.{.{.{.{.{.) u u u u {.{.{.{.{.{.{.~.Y.L.!.{.{.{.{.{.{.{.{.{.{.{.{.{.{.{.{.{.",
"{.{.{.{.{.{.{.{.{.{.{.{.{.{.{.u u e u u u u u {.{.{.{.{.{.].~.b.!.{.{.{.{.{.{.{.{.{.{.{.{.{.{.{.{.{.",
"{.{.{.{.{.{.{.{.{.{.{.{.{.{.u y q 0 q y u u u u u {.{.{.{.].~.m.(.{.{.{.{.{.{.{.{.{.{.{.{.{.{.{.{.{.",
"{.{.{.{.{.{.{.{.{.{.{.{.{.u t r r r r t u u u u u {.{.{.{.[.W.V.].{.{.{.{.{.{.{.{.{.{.{.{.{.{.{.{.{.",
"{.{.{.{.{.{.{.{.{.{.{.{.{.) w y -.-.-. .) u u u u u {.{.{.^.I.V.[.{.{.{.{.{.{.{.{.{.{.{.{.{.{.{.{.{.",
"{.{.{.{.{.{.{.{.{.{.{.{.{.) e v S.F.F.5.] r u u u u {.{.{.{.U.m.Q.{.{.{.{.{.{.{.{.{.{.{.{.{.{.{.{.{.",
"{.{.{.{.{.{.{.{.{.{.{.{.{.u w 7 z G.G.S + 9 ) u u u u {.{.{.{.U.n.Q.{.{.{.{.{.{.{.{.{.{.{.{.{.{.{.{.",
"{.{.{.{.{.{.{.{.{.{.{.{.{.) w % U H.G.R B.e...t u u u {.{.{.{.T.b.Q.{.{.{.{.{.{.{.{.{.{.{.{.{.{.{.{.",
"{.{.{.{.{.{.{.{.{.{.{.{.{.) w b Z.G.G.Z.J.w.` ) u u u {.{.{.{.T.b.!.{.{.{.{.{.{.{.{.{.{.{.{.{.{.{.{.",
"{.{.{.{.{.{.{.{.{.{.{.{.{.) e i t.G.G.K.p.+.y t u u ) {.{.{.k.R.d.P.!.A {.{.{.{.{.{.{.{.{.{.{.{.{.{.",
"{.{.{.{.{.{.{.{.{.{.{.{.{.{.w r  .:.r.t.=.] t t t u u {.{.{.I l.d.d.l.Z {.{.{.{.{.{.{.{.{.{.{.{.{.{.",
"{.{.{.{.{.{.{.{.{.{.{.{.{.{.{ u g x 5.8. .) _ _ _ ) ) {.{.{.{.m s.Y 5 {.{.{.{.{.{.{.{.{.{.{.{.{.{.{.",
"{.{.{.{.{.{.{.{.{.{.{.{.{.X.X.| T v.D.F.&.} @.o.} i {.{.{.{.{.{.: : {.{.{.{.{.{.{.{.{.{.{.{.{.{.{.{.",
"{.{.{.{.{.{.{.{.{.{.{.{.X.o.| P x.H.D.8.<.1.9.;.> > {.{.{.{.{.{.. . {.{.{.{.{.{.{.{.{.{.{.{.{.{.{.{.",
"{.{.{.{.{.{.{.{.{.{.{.{...$.f.h.h.x.x.k.T B 1 1 > > > > Q z.c.W o . {.{.{.{.{.{.{.{.{.{.{.{.{.{.{.{.",
"{.{.{.{.{.{.. . {.{.{.> < L j.z.h.h.h.T F B {.{.> > > Q f.h.z.f.~ } {.{.{.{.{.{.{.{.{.{.{.{.{.{.{.{.",
"{.{.{.{.{.{.. O V V V 4 > 6 G I P P I F V {.{.{.{.^ ^ f.h.h.h.h.{.X.z {.{.{.{.{.{.{.{.{.{.{.{.{.{.{.",
"{.{.{.{.{.. . O V V V 5 > , B ^ ^ ^ ^ G V {.{.{.{.{.z.z.h.{.{.{.{.x 5 {.{.{.{.{.{.{.{.{.{.{.{.{.{.{.",
"{.{.{.{.{.{.O 2 V F F B 4 B Q x.j.c.j.^ G V {.{.{.{.{.h.{.{.{.{.{., > {.{.{.{.{.{.{.{.{.{.{.{.{.{.{.",
"{.{.{.{.{.{.{.F V V Z F {.{.>.Y ! ! W C.,.S M {.{.{.{.{.{.{.{.{.{.{.{.{.{.{.{.{.{.{.{.{.{.{.{.{.{.{.",
"{.{.{.{.{.{.{.{.{.{.{.{.{.q.%.# s d - A.a.| * = {.{.{.{.{.{.{.{.{.{.{.{.{.{.{.{.{.{.{.{.{.{.{.{.{.{.",
"{.{.{.{.{.{.{.{.{.{.{.{.{.{.' d d d d 3.+.b & * = {.{.{.{.{.{.{.{.{.{.{.{.{.{.{.{.{.{.{.{.{.{.{.{.{.",
"{.{.{.{.{.{.{.{.{.{.{.{.{.- p d d d d h p + . X = = {.{.{.{.{.{.{.{.{.{.{.{.{.{.{.{.{.{.{.{.{.{.{.{.",
"{.{.{.{.{.{.{.{.{.{.{.{.= = # d d d d d d =   . X = {.{.{.{.{.{.{.{.{.{.{.{.{.{.{.{.{.{.{.{.{.{.{.{.",
"{.{.{.{.{.{.{.{.{.{.{.{.= + @ f d d d d f @ . . . o * {.{.{.{.{.{.{.{.{.{.{.{.{.{.{.{.{.{.{.{.{.{.{.",
"{.{.{.{.{.{.{.{.{.{.{.{.= + X @ d d d d f @ . . . . * {.{.{.{.{.{.{.{.{.{.{.{.{.{.{.{.{.{.{.{.{.{.{.",
"{.{.{.{.{.{.{.{.{.{.{.{.= o   X d d p d f @   . . . X + {.{.{.{.{.{.{.{.{.{.{.{.{.{.{.{.{.{.{.{.{.{.",
"{.{.{.{.{.{.{.{.{.{.{.{.* g l g s d = a f @ . . . . g c {.{.{.{.{.{.{.{.{.{.{.{.{.{.{.{.{.{.{.{.{.{.",
"{.{.{.{.{.{.{.{.{.{.{.{.* v *.O.k d - d f @ . . . g +.@.{.{.{.{.{.{.{.{.{.{.{.{.{.{.{.{.{.{.{.{.{.{.",
"{.{.{.{.{.{.{.{.{.{.{.{.& #.i.9.X.h = p d p + . $ +.9.u.{.{.{.{.{.{.{.{.{.{.{.{.{.{.{.{.{.{.{.{.{.{.",
"{.{.{.{.{.{.{.{.{.{.{.{.& #.i.0.2.- = = a p = + > 6.u.u.{.{.{.{.{.{.{.{.{.{.{.{.{.{.{.{.{.{.{.{.{.{.",
"{.{.{.{.{.{.{.{.{.{.{.{.{.6.i.2.j = = = a p = ; C D 7.u.{.{.{.{.{.{.{.{.{.{.{.{.{.{.{.{.{.{.{.{.{.{.",
"{.{.{.{.{.{.{.{.{.{.{.{.{.{.L S * = = = = - {.{.V Z L {.{.{.{.{.{.{.{.{.{.{.{.{.{.{.{.{.{.{.{.{.{.{.",
"{.{.{.{.{.{.{.{.{.{.{.{.{.g.T m = = = {.{.{.{.{.G / / {.{.{.{.{.{.{.{.{.{.{.{.{.{.{.{.{.{.{.{.{.{.{.",
"{.{.{.{.{.{.{.{.{.{.{.{.h.z.g.{.{.{.{.{.{.{.{.{.H c.z.{.{.{.{.{.{.{.{.{.{.{.{.{.{.{.{.{.{.{.{.{.{.{.",
"{.{.{.{.{.{.{.{.{.{.{.{.j.j.c.{.{.{.{.{.{.{.{.{.{.h.h.{.{.{.{.{.{.{.{.{.{.{.{.{.{.{.{.{.{.{.{.{.{.{.",
"{.{.{.{.{.{.{.{.{.{.{.{.( g.s.{.{.{.{.{.{.{.{.{.( ( h.{.{.{.{.{.{.{.{.{.{.{.{.{.{.{.{.{.{.{.{.{.{.{.",
"{.{.{.{.{.{.{.{.{.{.{.{.V V V {.{.{.{.{.{.{.{.{.V V {.{.{.{.{.{.{.{.{.{.{.{.{.{.{.{.{.{.{.{.{.{.{.{.",
"{.{.{.{.{.{.{.{.{.{.{.{.{.{.{.{.{.{.{.{.{.{.{.{.{.{.{.{.{.{.{.{.{.{.{.{.{.{.{.{.{.{.{.{.{.{.{.{.{.{."
};
