/* XPM */
static char *result[] = {
/* columns rows colors chars-per-pixel */
"50 50 188 2 ",
"   c #10001F",
".  c #27091E",
"X  c #0E0022",
"o  c #120022",
"O  c #1C0225",
"+  c #1D0228",
"@  c #1F162F",
"#  c #240324",
"$  c #24032C",
"%  c #2A032F",
"&  c #290A25",
"*  c #380928",
"=  c #341725",
"-  c #2E0431",
";  c #320632",
":  c #3A0730",
">  c #360A33",
",  c #2C2C2C",
"<  c #302C2B",
"1  c #3D2C22",
"2  c #2F3031",
"3  c #373A3C",
"4  c #393A39",
"5  c #282538",
"6  c #421011",
"7  c #5A1C13",
"8  c #671F0F",
"9  c #661F10",
"0  c #5C201B",
"q  c #6C200F",
"w  c #7A2F1A",
"e  c #782D17",
"r  c #7D311A",
"t  c #77311B",
"y  c #602A1B",
"u  c #460827",
"i  c #430A2E",
"p  c #4E0A2A",
"a  c #470828",
"s  c #510627",
"d  c #530A27",
"f  c #550B28",
"g  c #590C28",
"h  c #580B27",
"j  c #58122B",
"k  c #491A31",
"l  c #552E24",
"z  c #473B2F",
"x  c #6F3326",
"c  c #6D433E",
"v  c #724B2C",
"b  c #373D43",
"n  c #3C4449",
"m  c #3E4A4D",
"M  c #364349",
"N  c #3F4B51",
"B  c #364768",
"V  c #404C4E",
"C  c #404648",
"Z  c #56574F",
"A  c #414E52",
"S  c #495559",
"D  c #51595C",
"F  c #745346",
"G  c #5D625D",
"H  c #716A4E",
"J  c #706B51",
"K  c #716C50",
"L  c #4F5C60",
"P  c #4E576C",
"I  c #5A5F6E",
"U  c #704F6B",
"Y  c #5A6268",
"T  c #5D6D74",
"R  c #616C6F",
"E  c #6B6372",
"W  c #626F73",
"Q  c #716370",
"!  c #647175",
"~  c #6B7A7E",
"^  c #72777E",
"/  c #81331A",
"(  c #813A1E",
")  c #833E26",
"_  c #803E33",
"`  c #95431C",
"'  c #9F4A1C",
"]  c #A44E1D",
"[  c #894A2B",
"{  c #984E29",
"}  c #944A28",
"|  c #965428",
" . c #8F5C38",
".. c #A85F31",
"X. c #AA632D",
"o. c #BB6E2F",
"O. c #AC6438",
"+. c #C2742F",
"@. c #DA7F2B",
"#. c #CB7B38",
"$. c #9F6040",
"%. c #A97849",
"&. c #B07A46",
"*. c #805B75",
"=. c #7D806F",
"-. c #D7853B",
";. c #E98A2D",
":. c #ED8E30",
">. c #E7933F",
",. c #BF9750",
"<. c #AC8B4D",
"1. c #9D987F",
"2. c #D59A47",
"3. c #CB9050",
"4. c #E49645",
"5. c #CBA453",
"6. c #E8B151",
"7. c #E4B656",
"8. c #F2BE56",
"9. c #D49860",
"0. c #D0A474",
"q. c #EABA79",
"w. c #F8C558",
"e. c #F9C558",
"r. c #F6C37D",
"t. c #FEC97E",
"y. c #6A6489",
"u. c #7C6187",
"i. c #6D7D80",
"p. c #707F84",
"a. c #796491",
"s. c #7D6EA5",
"d. c #7F71A7",
"f. c #7E71AA",
"g. c #806385",
"h. c #816B98",
"j. c #8071A5",
"k. c #8173A9",
"l. c #8679AC",
"z. c #897CAE",
"x. c #8C7FB0",
"c. c #79888C",
"v. c #7C8D93",
"b. c #7D9098",
"n. c #838B8A",
"m. c #819296",
"M. c #839599",
"N. c #8A9298",
"B. c #92898E",
"V. c #ACAB9A",
"C. c #8D82B1",
"Z. c #9286B4",
"A. c #9589B5",
"S. c #9D94BC",
"D. c #A096BD",
"F. c #B0B4A3",
"G. c #C7B6A3",
"H. c #FFCE81",
"J. c #E6C892",
"K. c #FEE39D",
"L. c #FBDEA4",
"P. c #FEE4A6",
"I. c #A59BC1",
"U. c #ACA4C6",
"Y. c #A6A5C5",
"T. c #BAB8D1",
"R. c #B6B6CF",
"E. c #C1BAD4",
"W. c #BFC8D9",
"Q. c #C3CBDB",
"!. c #CDCADD",
"~. c #C7C1D8",
"^. c #C8D0DE",
"/. c #EDE6C1",
"(. c #CECAE0",
"). c #D3CEE0",
"_. c #DAD6E4",
"`. c #DCD9E6",
"'. c #DCDDE8",
"]. c #CED6E2",
"[. c #E1DEEA",
"{. c #E5E6EE",
"}. c #ECECF2",
"|. c #F1EFF4",
" X c #F2F2F6",
".X c #F6F6F8",
"XX c #FCFCFC",
"oX c None",
/* pixels */
"oXoXoXoXoXoXoXoXoXoXoXoXoXoXoXoXoXoXoXoXoXoXoXoXoXoXoXoXoXoXoXoXoXoXoXoXoXoXoXoXoXoXoXoXoXoXoXoXoXoX",
"oXoXoXoXoXoXoXoXoXoXoXoXoXoXoXoXoXoXoXoXoXoXoXoXoXoXoXoXoXoXoXoXoXXXXXXXXXXXXXXXXXXXXXXXXXXXXXXXXXXX",
"oXoXoXoXoXoXoXoXoXoXoXoXoXoXoXoXoXoXoXoXoXoXoXoXoXoXXXXXXXXXXXXXXXXXXXXXXXXXXXXXXXXXXXXXXXXXXXXXXXXX",
"oXoXoXoXoXoXoXoXoXoXoXoXoXoXoXoXoXoXoXoXoXXXXXXXXXXXXXXXXXXXXXXXXXXXXXXXXXXXXXXXXXXXXXXXXXXX X'.{.XX",
"oXoXoXoXoXoXoXoXoXoXoXoXoXoXoXoXoXoXoXoXXXXXXXXXXXXXXXXXXXXXXXXXXXXXXXXXXXXXXXXXXXXXXXXXXX'.E.Q.Q.XX",
"oXoXoXoXoXoXoXoXoXoXoXoXoXoXoXoXoXXXXXXXXXXXXXXXXXXXXXXXXXXXXXXXXXXXXXXXXXXXXXXXXXXX}._.).U.Y.Q.Q.oX",
"oXoXoXoXoXoXoXoXoXoXoXXXXXXXXXXXXXXXXXXXXXXXXXXXXXXXXXXXXXXXXXXXXXXXXXXXXXXXXX.X{.'.T.z.C.T.].Q.oXoX",
"oXoXoXoXoXoXoXoXoXXXXXXXXXXXXXXXXXXXXXXXXXXXXXXXXXXXXXXXXXXXXXXXXXXXXX X}.|. X!.j.k.k.x.`.XXXXoXoXoX",
"oXoXoXoXXXXXXXXXXXXXXX.XXXXXXXXXXXXXXXXXXXXXXXXXXXXXXXXXXXXXXX.X.X.X XS.l.l.l.l.j.d.z.`.XXoXoXoXoXoX",
"oXoXXXXXXXXXXXXXXXXXXXXXXXXXXXXXXXXXXXXXXXXXXXXXXXXXXXXXXXXX).Z.A.A.A.k.k.k.k.j.j.z.R.^.oXoXoXoXoXoX",
"XXXXXXXXXXXXXXXXXXXXXXXXXXXXXXXXXXXXXXXXXXXXXXXXXX.XU.D.D.D.Z.s.d.d.d.k.k.k.k.d.C.`.}.oXoXoXoXoXoXoX",
"XXXXXXXXXXXXXXXXXXXXXXXXXXXXXXXXXXXXXXXXXXXX[.U.U.U.j.s.s.d.d.j.k.k.k.k.k.k.d.A.`.XXoXoXoXoXoXoXoXoX",
"XXXXXXXXXXXXXXXXXXXXXXXXXXXXXXXXXXXXXX(.T.E.I.s.d.f.k.k.j.k.k.k.d.l.d.k.f.d.C.R.{.oXoXoXoXoXoXoXoXoX",
"XXXXXXXXXXXXXXXXXXXXXXXXXXXX}.!.(.(.(.Z.f.f.k.k.j.*.*.h.k.k.k.k.d.y.d.k.k.f.S.^.W.oXoXoXoXoXoXoXoXoX",
"XXXXXXXXXXXXXXXXXXXXXX{.`.[.T.s.k.k.u.g.g.g.g.g.Q / r oXoXoXoXoXoXA y.d.k.z.Y.^.oXoXoXoXoXoXoXoXoXoX",
"XXXXXXXXXXXXXX.X{.{.}.S.j.k.s.a.a.a.r w r w / w / / r oXoXoXoXoXoXZ m y.l.Y.oXoXoXoXoXoXoXoXoXoXoXoX",
"XXXXXXXXXX.X.X`.z.z.z.k.j.d.U 7 7 7 w / w w / w w / r oXoXoXoXoXoX5.z 2 N.oXoXoXoXoXoXoXoXoXoXoXoXoX",
"XXXXXXXXXX~.x.x.d.j.oXoX_ y r ;.@.@.@.} w w w / / w / oXoXoXoXoXo = | z 3 oXoXoXoXoXoXoXoXoXoXoXoXoX",
"XXXXXXoXoXoXoXoXoXoXoXoX/ 9 6 x :.@.l . 7 ) w / w / w oXoXoXoX<.o X oXoXoXoXoXoXoXoXoXoXoXoXoXoXoXoX",
"oXoXoXoXoXoXoXoXoXoXoXoX/ 9 = P q.q.B N.3.] w w w / oXoXoXL v &.I Y oXoXoXoXoXoXoXoXoXoXoXoXoXoXoXoX",
"oXoXoXoXoXoXoXoXoXoXoXoXoXq F F.L.L.V./.9.` w / t l < i.N.D 1 F M.oXoXoXoXoXoXoXoXoXoXoXoXoXoXoXoXoX",
"oXoXoXoXoXoXoXoXoXoXoXoXoXoXO.H.P.L.L.H...e w e l , , D c.! n n oXoXoXoXoXoXoXoXoXoXoXoXoXoXoXoXoXoX",
"oXoXoXoXoXoXoXoXoXoXoXoXoXoX' #.0.r.r.-.` / ( l , , , , R M.oXoXoXoXoXoXoXoXoXoXoXoXoXoXoXoXoXoXoXoX",
"oXoXoXoXoXoXoXoXoXoXoXoXoXoXoXe y >.:.` / } v , , , , , ! oXoXoXoXoXoXoXoXoXoXoXoXoXoXoXoXoXoXoXoXoX",
"oXoXoXoXoXoXoXoXoXoXoXoXoX| .. .G J.4.{ } v , , , , , oXoXoXoXoXoXoXoXoXoXoXoXoXoXoXoXoXoXoXoXoXoXoX",
"oXoXoXoXoXoXoXoXoXoXoX, , < Z n.v.N.n.c.Y 4 , , , oXoXoXoXoXoXoXoXoXoXoXoXoXoXoXoXoXoXoXoXoXoXoXoXoX",
"oXoXoXoXoXoXoXoXoX, , , < , A m.v.m.v.Y m n oXoXoXoXoXoXoXoXoXoXoXoXoXoXoXoXoXoXoXoXoXoXoXoXoXoXoXoX",
"oXoXoXoXoXoXoXoX, , , , , , 4 oXL L L A n oXoXoXoXoXoXoXoXoXoXoXoXoXoXoXoXoXoXoXoXoXoXoXoXoXoXoXoXoX",
"oXoXoXoXoXoXoXn b 3 2 , , 2 oXoXW W W ! S n oXoXoXoXoXoXoXoXoXoXoXoXoXoXoXoXoXoXoXoXoXoXoXoXoXoXoXoX",
"oXoXoXoXoXoXA V V m 2 , , oXoXc.b.M.M.M.^ S M oXoXoXoXoXoXoXoXoXoXoXoXoXoXoXoXoXoXoXoXoXoXoXoXoXoXoX",
"oXoXoXoXoX5 b m N m 2 oXoXoXoXF.1.! Q Q I ^ 1.K oXoXoXoXoXoXoXoXoXoXoXoXoXoXoXoXoXoXoXoXoXoXoXoXoXoX",
"oXoXoXo o X @ A N oXoXoXoXoXG.P.2.* d h * 1.K.2.oXoXoXoXoXoXoXoXoXoXoXoXoXoXoXoXoXoXoXoXoXoXoXoXoXoX",
"oXoXoXo o o o oXoXoXoXoXoX$ c 2.{ j g h s $.3.) ; oXoXoXoXoXoXoXoXoXoXoXoXoXoXoXoXoXoXoXoXoXoXoXoXoX",
"oXoXoXoXoXo o oXoXoXoXoX; $ o & : f h h h j j > ; ; oXoXoXoXoXoXoXoXoXoXoXoXoXoXoXoXoXoXoXoXoXoXoXoX",
"oXoXoXoXoXoXoXoXoXoX; ; > $ X o O f f f h f f u O ; oXoXoXoXoXoXoXoXoXoXoXoXoXoXoXoXoXoXoXoXoXoXoXoX",
"oXoXoXoXoXoXoXoXoX; ; ; $ o o o o # d f f f h u o O - oXoXoXoXoXoXoXoXoXoXoXoXoXoXoXoXoXoXoXoXoXoXoX",
"oXoXoXoXoXoX; ; ; ; ; ; + X o o o o p h h g u # o o ; oXoXoXoXoXoXoXoXoXoXoXoXoXoXoXoXoXoXoXoXoXoXoX",
"oXoXoXoXoX; ; ; ; ; ; ; + o o o o * d h f g * X o o # % oXoXoXoXoXoXoXoXoXoXoXoXoXoXoXoXoXoXoXoXoXoX",
"oXoXoXoX; ; ; ; ; ; ; ; + o X X O h f f f d * o o o X $ oXoXoXoXoXoXoXoXoXoXoXoXoXoXoXoXoXoXoXoXoXoX",
"oXoXoX; ; ; ; ; ; ; ; - = = & # # f p f h i $ o o o = k oXoXoXoXoXoXoXoXoXoXoXoXoXoXoXoXoXoXoXoXoXoX",
"oXoXoX; oXoXoX; ; ; ; % [ +.} p d p : p f i $ o o & X.o.oXoXoXoXoXoXoXoXoXoXoXoXoXoXoXoXoXoXoXoXoXoX",
"oXoXoXoXoXoXoXoX- ; > [ 2.w.%.- ; : p f : ; ; % & X.6.8.oXoXoXoXoXoXoXoXoXoXoXoXoXoXoXoXoXoXoXoXoXoX",
"oXoXoXoXoXoXoXoXoXoXn ,.8.w.%.- > p : > ; ; ; oXoX6.8.8.oXoXoXoXoXoXoXoXoXoXoXoXoXoXoXoXoXoXoXoXoXoX",
"oXoXoXoXoXoXoXoXoXoXV 5.e.%.k ; ; : ; ; oXoXoXoXoXK 7.w.oXoXoXoXoXoXoXoXoXoXoXoXoXoXoXoXoXoXoXoXoXoX",
"oXoXoXoXoXoXoXoXoXoXn J <.oXoX> ; ; oXoXoXoXoXoXoXm K oXoXoXoXoXoXoXoXoXoXoXoXoXoXoXoXoXoXoXoXoXoXoX",
"oXoXoXoXoXoXoXoXoXv.! T oXoXoXoXoXoXoXoXoXoXoXoXoX! T oXoXoXoXoXoXoXoXoXoXoXoXoXoXoXoXoXoXoXoXoXoXoX",
"oXoXoXoXoXoXoXoXoXm.b.M.oXoXoXoXoXoXoXoXoXoXoXoXoXm.m.oXoXoXoXoXoXoXoXoXoXoXoXoXoXoXoXoXoXoXoXoXoXoX",
"oXoXoXoXoXoXoXoXoX~ p.oXoXoXoXoXoXoXoXoXoXoXoXoXoXv.i.oXoXoXoXoXoXoXoXoXoXoXoXoXoXoXoXoXoXoXoXoXoXoX",
"oXoXoXoXoXoXoXoXoXm m oXoXoXoXoXoXoXoXoXoXoXoXoXoXc.S m oXoXoXoXoXoXoXoXoXoXoXoXoXoXoXoXoXoXoXoXoXoX",
"oXoXoXoXoXoXoXoXoXoXoXoXoXoXoXoXoXoXoXoXoXoXoXoXoXoXoXoXoXoXoXoXoXoXoXoXoXoXoXoXoXoXoXoXoXoXoXoXoXoX"
};
