/* XPM */
static char *result[] = {
/* columns rows colors chars-per-pixel */
"50 50 176 2 ",
"   c #27081D",
".  c #0E0022",
"X  c #120022",
"o  c #1B0225",
"O  c #1D0228",
"+  c #1F162B",
"@  c #23022B",
"#  c #29032F",
"$  c #280B25",
"%  c #390929",
"&  c #351524",
"*  c #2E0431",
"=  c #320632",
"-  c #3A0730",
";  c #3B0C31",
":  c #330F36",
">  c #2D1730",
",  c #2C2C2C",
"<  c #272528",
"1  c #302D2A",
"2  c #3D322A",
"3  c #2C2A34",
"4  c #2F3031",
"5  c #373B3D",
"6  c #393C3B",
"7  c #4F100B",
"8  c #5F190D",
"9  c #431519",
"0  c #641D0E",
"q  c #631E11",
"w  c #5C201B",
"e  c #65210F",
"r  c #6C2514",
"t  c #682918",
"y  c #7A2F19",
"u  c #752C18",
"i  c #7D311A",
"p  c #77311B",
"a  c #450826",
"s  c #4D0A27",
"d  c #410728",
"f  c #450A2D",
"g  c #4D0A2A",
"h  c #510627",
"j  c #530A27",
"k  c #550B28",
"l  c #580C28",
"z  c #471D2A",
"x  c #58122B",
"c  c #4A1F35",
"v  c #532E24",
"b  c #593633",
"n  c #602931",
"m  c #78482D",
"M  c #69433F",
"N  c #73443E",
"B  c #73543C",
"V  c #3F2344",
"C  c #363D42",
"Z  c #3C4649",
"A  c #3E4A4D",
"S  c #364349",
"D  c #374A6D",
"F  c #404C4F",
"G  c #54524E",
"H  c #454854",
"J  c #4A575A",
"K  c #485155",
"L  c #515A5C",
"P  c #715A56",
"I  c #5D625D",
"U  c #716B4E",
"Y  c #6D6750",
"T  c #7A7251",
"R  c #68654E",
"E  c #4F5C60",
"W  c #4F5C73",
"Q  c #7A5C69",
"!  c #596365",
"~  c #5D6D74",
"^  c #61686C",
"/  c #6B6372",
"(  c #626D73",
")  c #686C70",
"_  c #716370",
"`  c #637175",
"'  c #6B7A7E",
"]  c #727578",
"[  c #81331A",
"{  c #833C1C",
"}  c #833F2B",
"|  c #94431C",
" . c #A34D1D",
".. c #974E27",
"X. c #964C29",
"o. c #975629",
"O. c #8D593A",
"+. c #8F512F",
"@. c #A85D2B",
"#. c #A65F36",
"$. c #AA632D",
"%. c #BE702F",
"&. c #C87834",
"*. c #9F6040",
"=. c #AC7B48",
"-. c #7D806F",
";. c #DB883A",
":. c #EB8F33",
">. c #E38A34",
",. c #E7933F",
"<. c #A88F52",
"1. c #9D987F",
"2. c #CF9548",
"3. c #D49947",
"4. c #C39B51",
"5. c #C68B57",
"6. c #E49645",
"7. c #C7A455",
"8. c #E1AB50",
"9. c #E8B554",
"0. c #F3BF56",
"q. c #D49860",
"w. c #D0A474",
"e. c #F4C157",
"r. c #F8C358",
"t. c #F6C37E",
"y. c #FEC97E",
"u. c #6D7B81",
"i. c #7B7583",
"p. c #7A898D",
"a. c #748286",
"s. c #7D8D93",
"d. c #7D9098",
"f. c #838B8A",
"g. c #9E8482",
"h. c #819196",
"j. c #82959A",
"k. c #889493",
"l. c #868E98",
"z. c #ACAB99",
"x. c #8C87A9",
"c. c #978EB9",
"v. c #968DB7",
"b. c #B8B6A0",
"n. c #A8B1A5",
"m. c #FCCF87",
"M. c #EFD29C",
"N. c #F8D496",
"B. c #E6C892",
"V. c #FEE39D",
"C. c #FCDDA2",
"Z. c #F6D9A0",
"A. c #FFE2A4",
"S. c #FFECAC",
"D. c #9F9DC0",
"F. c #A69CC2",
"G. c #A9A5C5",
"H. c #B5AECC",
"J. c #B2B2CD",
"K. c #BBBDD5",
"L. c #C3BDD6",
"P. c #BEC4D7",
"I. c #C4C1D7",
"U. c #C6CEDD",
"Y. c #CAD2DF",
"T. c #EDE6C1",
"R. c #CFD7E3",
"E. c #D8D4E4",
"W. c #D5DBE6",
"Q. c #DEE2EB",
"!. c #E4E5ED",
"~. c #E8E5EE",
"^. c #EDEDF3",
"/. c #FCFCFC",
"(. c #F3F3F6",
"). c None",
/* pixels */
").).).).).).).).).).).).).).).).).).).).).).).).).).).).).).).).).).).).).).).).).).).).).).).).).).",
").).).).).).).).).).).).).).).).).).).).).).).).).).).).).).).).).).).).).).).).).).).).).).).).).).",
").).).).).).).).).).).).).).).).).).).).).).).).).).).).).).).).).).).).).).).).).).).).).).).).).).",
").).).).).).).).).).).).).).).).).).).).).).).).)././././././././././.).).).).).).).).).).).).).).).",
").).).).).).).).).).).).).).).).).).).).).).).)./././././././././././.).).).).).).).).).).).).).).).",
").).).).).).).).).).).).).).).).).).).).).)./././././././.).).).).).).).).).).).)././././.).).).).).",
").).).).).).).).).).).).).).).).).).)././././././.).).).).).).).).).).).).).).).).)./././././.).).).",
").).).).).).).).).).).).).).).).)./.).).).).).).).).).).).).).).).).).).).).).).).).)./././././.).).",
").).).).).).).).).).).).).).).).).).).).).).).).).).).).).).).).).).).).).).).).).).)./././././.).).",
").).).).).).).).).).).).).).).).).).).).).).).).).).).).).).).).).).).).).).).)./.)././././././.).).",
").).).).).).).).).).).).).).).).).).).).).).).).).).).).).).).).).).).).).).).).)./././././././.).).",
").).).).).).).).).).).).).).).).).).).).).).).).).).).).).).).).).).).).).).).).)./././.L.E./.).).).",
").).).).).).).).).).).).).).).i [ i i i i ).).).).).).).).).).).).).).).).).).).).!.!.L.G.L.).).).).",
").).).).).).).).).).).).).).[ y r i i i i i ).).).).).).).).).).).).).).).).).).).W.G.G.K.).).).).).",
").).).).).).).).).).).).).i y e 7 r i i i i i i ).).).).).).).).).).).).).).).)./.E.G.~.).).).).).).",
").).)./.).).).).).).).).i y r e e e y i i i i i i ).).).).).).).).).).).).).^.(.E.c.^.).).).).).).).",
"/.).).).).).).).).).).i y q { ,.>.>.X.y i i i i i i ).).).).).).).).).).).R.U.J.c.P.).).).).).).).).",
").).).).).).).).).).).i [ 0 O.N.N.m.>.{ y i i i i i i ).).).).).).).).)././.I.F.^.).).).).).).).).).",
").).).).).).).).).).).i i q 9 P C.M.b   w [ i i i i i ).).).).).).).).U.R.H.H.~.).).).).).).).).).).",
").).).).).).).).).).).i [ 0 & W N.M.D l.5. .y i i i [ ).).).).).)., 1 x.c.D.K.).).).).).).).).).).).",
").).).).).).).).).).).i i 0 M b.A.Z.z.T.q.| y i p w v ] j.s.s.j.` + 3 H x.K.).).).).).).).).).).).).",
").).).).).).).).).).).).i r o.m.A.A.A.y.#.u y p v , , L a.s.s.h.u.X + < ) ).).).).).).).).).).).).).",
").).).).).).).).).).).).).i  .&.w.t.t.;.| [ { v , , , < ^ h.h.p.! z o < , ).).).).).).).).).).).).).",
").).).).).).).).).).).).).).).u t 6.:.| [ ..m , , , , , ( h.h.( 2 o.).).).).).).).).).).).).).).).).",
").).).).).).).).).).).).).o.@.O.R B.6.X...B C , , , 4 ).).).).)., 1 ).).).).).).).).).).).).).).).).",
").).).).).).).).).).)., 1 1 G f.s.k.f.p.! 6 , , 4 ).).).).).).).).).).).).).).).).).).).).).).).).).",
").).).).).).).).)., , , , , K h.d.d.s.! F Z ).).).).).).).).).).).).).).).).).).).).).).).).).).).).",
").).).).).).).)., , , , , , 6 ).E E L F A ).).).).).).).).).).).).).).).).).).).).).).).).).).).).).",
").).).).).).).Z S 6 , , , 4 ).).~ ( ` ` J Z ).).).).).).).).).).).).).).).).).).).).).).).).).).).).",
").).).).).).F F F A 4 , , ).).s.d.j.j.j.u.J S ).).).).).).).).).).).).).).).).).).).).).).).).).).).",
").).).).).3 C F F A 4 ).).).i.n.g./ / _ / ` 1.T ).).).).).).).).).).).).).).).).).).).).).).).).).).",
").).).X X X + F A ).).).).@ _ S.3.f h l % 1.N.3.).).).).).).).).).).).).).).).).).).).).).).).).).).",
").).).X X X X ).).).).).).# G 3...x l k h #.2.} * ).).).).).).).).).).).).).).).).).).).).).).).).).",
").).).).).X X ).).).).).= @ o $ % j l k k x x - = = ).).).).).).).).).).).).).).).).).).).).).).).).",
").).).).).).).).).).).= = @ X X @ j k k k l k d o = = ).).).).).).).).).).).).).).).).).).).).).).).",
").).).).).).).).).).= = @ o X X X @ j l k k l a X O * = ).).).).).).).).).).).).).).).).).).).).).).",
").).).).).).).).).= = = o . X X X X g l k k l a X X * = = ).).).).).).).).).).).).).).).).).).).).).",
").).).).).= = ).= = = = @ . X X X X s l l k l a X X O * = = ).).).).).).).).).).).).).).).).).).).).",
").).).).).).= = = = = = o X . X X @ g l g h l a X X . * = = = ).).).).).).).).).).).).).).).).).).).",
").).).).).).).= = = = # & & $ X O = j g - f l a X X & z ; = = ).).).).).).).).).).).).).).).).).).).",
").).).).).).).).= = = $ +.&.m o = = k - = f k d X & $.%.n * = ).).).).).).).).).).).).).).).).).).).",
").).).).).).).).).).).@.2.e.=.# = = j - * f g # $ $.9.0.P ).).).).).).).).).).).).).).).).).).).).).",
").).).).).).).).).).F 4.0.e.9.).= = = = = f f * c 8.0.0.).).).).).).).).).).).).).).).).).).).).).).",
").).).).).).).).).).F 7.r.0.).).).).= = = = - = : Y 9.e.).).).).).).).).).).).).).).).).).).).).).).",
").).).).).).).).).).A R <.).).).).).).).= = = = : Z U ).).).).).).).).).).).).).).).).).).).).).).).",
").).).).).).).).).s.` ( ).).).).).).).).).).).).V ` ~ ).).).).).).).).).).).).).).).).).).).).).).).",
").).).).).).).).).h.h.h.).).).).).).).).).).).).).h.h.).).).).).).).).).).).).).).).).).).).).).).).",
").).).).).).).).).' ' ).).).).).).).).).).).).).).s.u.).).).).).).).).).).).).).).).).).).).).).).).",
").).).).).).).).).A A ).).).).).).).).).).).).).).p.K A ).).).).).).).).).).).).).).).).).).).).).).",
").).).).).).).).).).).).).).).).).).).).).).).).).).).).).).).).).).).).).).).).).).).).).).).).).)."
};
