/* XPM */
static char *result[] = {
/* columns rows colors chars-per-pixel */
"50 50 180 2 ",
"   c #10001F",
".  c #27081D",
"X  c #0E0021",
"o  c #120022",
"O  c #1B0226",
"+  c #1D0228",
"@  c #1F162F",
"#  c #290C24",
"$  c #23022B",
"%  c #270629",
"&  c #390929",
"*  c #351625",
"=  c #2E0331",
"-  c #320632",
";  c #390730",
":  c #3A0C31",
">  c #330B34",
",  c #2C2C2C",
"<  c #302C2B",
"1  c #3D2C22",
"2  c #2F3031",
"3  c #373A3C",
"4  c #393A39",
"5  c #282538",
"6  c #431519",
"7  c #631C0E",
"8  c #641E10",
"9  c #5C201B",
"0  c #63200E",
"q  c #682716",
"w  c #722915",
"e  c #7A2F19",
"r  c #742E19",
"t  c #7D311A",
"y  c #77311B",
"u  c #450826",
"i  c #44092C",
"p  c #4D0A2A",
"a  c #490927",
"s  c #510627",
"d  c #530A27",
"f  c #560B28",
"g  c #580C28",
"h  c #58122B",
"j  c #441430",
"k  c #4C1B2C",
"l  c #542E23",
"z  c #483F32",
"x  c #4F362F",
"c  c #632B31",
"v  c #77462B",
"b  c #69433F",
"n  c #744D2D",
"m  c #373D43",
"M  c #3C4549",
"N  c #3E4A4D",
"B  c #364349",
"V  c #3F4B51",
"C  c #374A6D",
"Z  c #404C4E",
"A  c #404648",
"S  c #56574F",
"D  c #414E52",
"F  c #4A575A",
"G  c #495358",
"H  c #51595C",
"J  c #70594F",
"K  c #5D625D",
"L  c #716A4E",
"P  c #706B51",
"I  c #7A7251",
"U  c #68654E",
"Y  c #4F5C60",
"T  c #5A5F6E",
"R  c #4F5C73",
"E  c #7A5C69",
"W  c #5A6268",
"Q  c #5D6D74",
"!  c #616C6F",
"~  c #6B6372",
"^  c #626F73",
"/  c #716370",
"(  c #647175",
")  c #6B7A7E",
"_  c #72777E",
"`  c #81331B",
"'  c #853C1C",
"]  c #833F2B",
"[  c #94431C",
"{  c #A24D1D",
"}  c #884A2B",
"|  c #984E29",
" . c #944B26",
".. c #965428",
"X. c #8D593A",
"o. c #995732",
"O. c #A85F31",
"+. c #AA632E",
"@. c #BE702F",
"#. c #C87834",
"$. c #9F6040",
"%. c #AA7A49",
"&. c #B07A46",
"*. c #7D806F",
"=. c #DB883A",
"-. c #EB8F33",
";. c #E58B35",
":. c #E7933F",
">. c #A88F52",
",. c #BE9750",
"<. c #AC8346",
"1. c #9D987F",
"2. c #D59A47",
"3. c #CB9050",
"4. c #E49645",
"5. c #CBA453",
"6. c #E8B151",
"7. c #E4B656",
"8. c #F2BE56",
"9. c #D49860",
"0. c #D0A474",
"q. c #F9C559",
"w. c #F8C558",
"e. c #F9C57E",
"r. c #6A6489",
"t. c #6D7D80",
"y. c #767A84",
"u. c #7C6EA4",
"i. c #7F71A6",
"p. c #8072A7",
"a. c #8173A8",
"s. c #8679AB",
"d. c #897CAE",
"f. c #79888C",
"g. c #7C8D93",
"h. c #7D9098",
"j. c #838B8A",
"k. c #9E8482",
"l. c #819296",
"z. c #839599",
"x. c #8A9298",
"c. c #868E98",
"v. c #ACAB99",
"b. c #8D82B1",
"n. c #968BB6",
"m. c #9387B5",
"M. c #9C91BA",
"N. c #9D98BE",
"B. c #B0B4A3",
"V. c #FCCF87",
"C. c #EFD29C",
"Z. c #F8D496",
"A. c #E6C892",
"S. c #FEE39D",
"D. c #FCDDA2",
"F. c #F6D9A0",
"G. c #FFE2A4",
"H. c #FFECAC",
"J. c #ACA4C6",
"K. c #A6A5C5",
"L. c #BDBCD3",
"P. c #B6B9D1",
"I. c #B6B6CF",
"U. c #BFC8D9",
"Y. c #C3CBDB",
"T. c #C9C9DC",
"R. c #C8D0DE",
"E. c #EDE6C1",
"W. c #D3CEE0",
"Q. c #CED6E2",
"!. c #D9D5E4",
"~. c #DCD9E6",
"^. c #DCDEE9",
"/. c #E4E8EE",
"(. c #EDEDF2",
"). c #F0EEF4",
"_. c #F7F6F8",
"`. c #FCFCFC",
"'. c #F1F2F6",
"]. c None",
/* pixels */
"].].].].].].].].].].].].].].].].].].].].].].].].].].].].].].].].].].].].].].].].].].].].].].].].].].",
"].].].].].].].].].].].].].].].].].].].].].].].].].].].].].].].].].].].].].].].].].].].].`.`.`.`.`.`.",
"].].].].].].].].].].].].].].].].].].].].].].].].].].].].].].].`.`.`.`.`.`.`.`.`.`.`.`.`.`.`.`.`.`.`.",
"].].].].].].].].].].].].].].].].].].].].].].].].].].`.`.`.`.`.`.`.`.`.`.`.`.`.`.`.`.`.`.`.`.'.^./.`.",
"].].].].].].].].].].].].].].].].].].].].].].].].].`.`.`.`.`.`.`.`.`.`.`.`.`.`.`.`.`.`.`.`.^.L.Y.Y.`.",
"].].].].].].].].].].].].].].].].].].].].].].`.`.`.`.`.`.`.`.`.`.`.`.`.`.`.`.`.`.`.`.).!.W.J.K.Y.Y.].",
"].].].].].].].].].].].].].].].].].].].`.`.`.`.`.`.].].].`.`.`.`.`.`.`.`.`.`.`.`.`.^.P.d.b.L.Q.Y.].].",
"].].].].].].].].].].].].].].].].`.`.`.].].].].].].].].].].`.`.`.`.`.`.`.'.(.(.).!.s.a.d.~.`.`.].].].",
"].].].].].].].].].].].].].].`.`.].].].].].].].].].].].].].`.`.`.`._._._.J.s.d.d.d.a.s.~.`.].].].].].",
"].].].].].].].].].].].`.].].].].].].].].].].].].].].].`.`.`.`.`.(.n.m.m.s.a.i.i.p.s.P.R.].].].].].].",
"].].].].].].].].].].].].].].].].].].].].].].`.].].`.`.`.`.`.!.M.M.i.i.i.i.a.a.i.b.~.(.].].].].].].].",
"].].].].].].].].].].].].].].].].].].].].].].].].].].].`.T.J.M.i.i.a.a.a.a.a.i.n.!.`.].].].].].].].].",
"].].].].].].].].].].].].].].].].].t t t t ].].].].].].].].u.p.p.a.s.i.a.p.i.b.I./.].].].].].].].].].",
"].].].].].].].].].].].].].].].t t t t t t t t t ].].].].].].p.p.i.r.i.a.a.i.N.R.Y.].].].].].].].].].",
"].].].].].].].].].].].].].t e w w t t t t t t t t ].].].].].].].].V r.i.p.d.K.Y.].].].].].].].].].].",
"].].].].].].].].].].].].].e w 7 q ' t t t t t t t t ` ].].].].].].S N r.s.J.].].].].].].].].].].].].",
"].].].].].].].].].].].].t 8 ' -.-.;.] ` t t t t t t t t ].].].].].5.z , x.].].].].].].].].].].].].].",
"].`.].].].].].].].].].].t 8 X.Z.Z.V.-.' e e t t t t t t ].].].].o * ..z 3 ].].].].].].].].].].].].].",
"].].].].].].].].].].].t t 8 6 J D.C.c . 9 t t t t e t ].].].].<.o o ].].].].].].].].].].].].].].].].",
"].].].].].].].].].].].t ` 8 * T Z.C.C l.3.{ e t t ` ].].].Y n &.T W ].].].].].].].].].].].].].].].].",
"].].].].].].].].].].].].` 7 b B.G.F.v.H.9.] e t y l < t.x.H 1 J z.].].].].].].].].].].].].].].].].].",
"].].].].].].].].].].].].].8 o.V.G.G.D.e.O.w t y l , , H f.( A M ].].].].].].].].].].].].].].].].].].",
"].].].].].].].].].].].].].].{ #.0.e.V.=.[ ` ' l , , , , ! z.].].].].].].].].].].].].].].].].].].].].",
"].].].].].].].].].].].].].].].r q 4.;.[ `  .v , , , , , ^ ].].].].].].].].].].].].].].].].].].].].].",
"].].].].].].].].].].].].]...O.X.K A.4.|  .n , , , , , ].].].].].].].].].].].].].].].].].].].].].].].",
"].].].].].].].].].].]., , < S j.g.x.j.f.W 4 , , , ].].].].].].].].].].].].].].].].].].].].].].].].].",
"].].].].].].].].]., , , , , D l.l.g.g.W N M ].].].].].].].].].].].].].].].].].].].].].].].].].].].].",
"].].].].].].].]., , , , < , 4 ].Y H Y N N ].].].].].].].].].].].].].].].].].].].].].].].].].].].].].",
"].].].].].].].N m 3 2 , , , ].].( ( ^ ( F N ].].].].].].].].].].].].].].].].].].].].].].].].].].].].",
"].].].].].].Z V Z Z 2 , , ].].f.h.z.h.z.) F B ].].].].].].].].].].].].].].].].].].].].].].].].].].].",
"].].].].].5 m V N N 2 ].].].y.B.1.~ / / ~ _ *.$.].].].].].].].].].].].].].].].].].].].].].].].].].].",
"].].].o o o @ Z Z ].].].].$ E H.2.j d f & j.H.2.].].].].].].].].].].].].].].].].].].].].].].].].].].",
"].].].o o o o ].].].].].].$ J 3.| g g g s $.3.} = ].].].].].].].].].].].].].].].].].].].].].].].].].",
"].].].].].o o ].].].].].- $   . & d g g g h h ; = - ].].].].].].].].].].].].].].].].].].].].].].].].",
"].].].].].].].- - - - - - $ o o $ d d g g d f u O - - ].].].].].].].].].].].].].].].].].].].].].].].",
"].].].].].].- - - - - - $ O o o   % p g d g f u o O = - ].].].].].].].].].].].].].].].].].].].].].].",
"].].].].].].- - - - - - O   o o o o p g f f g u o o - - ].].].].].].].].].].].].].].].].].].].].].].",
"].].].].].- - - - - - - $   o o o o p g f g f u o o + - - ].].].].].].].].].].].].].].].].].].].].].",
"].].].].].].].].- - - - O   X o o $ s g p p g u o o X $ - ].].].].].].].].].].].].].].].].].].].].].",
"].].].].].].].].- - = = * * # o + - f p ; i g u o o * k : ].].].].].].].].].].].].].].].].].].].].].",
"].].].].].].].].].- - % } #.v O - ; p ; = i g i O # +.@.c ].].].].].].].].].].].].].].].].].].].].].",
"].].].].].].].].].].> } 2.q.%.= ; d ; - > i i = j +.6.8.].].].].].].].].].].].].].].].].].].].].].].",
"].].].].].].].].].].M ,.w.q.%.= - - - - i i ; = ].6.8.8.].].].].].].].].].].].].].].].].].].].].].].",
"].].].].].].].].].].Z 5.w.q.].- - - - - ; ; = - ].P 7.w.].].].].].].].].].].].].].].].].].].].].].].",
"].].].].].].].].].].N U >.].].].].- - - - - - ].].N L ].].].].].].].].].].].].].].].].].].].].].].].",
"].].].].].].].].].g.( Q ].].].].].].].].].].].].].( Q ].].].].].].].].].].].].].].].].].].].].].].].",
"].].].].].].].].].l.l.l.].].].].].].].].].].].].].l.l.].].].].].].].].].].].].].].].].].].].].].].].",
"].].].].].].].].].) ) ].].].].].].].].].].].].].].g.t.].].].].].].].].].].].].].].].].].].].].].].].",
"].].].].].].].].].N N ].].].].].].].].].].].].].].f.G N ].].].].].].].].].].].].].].].].].].].].].].",
"].].].].].].].].].].].].].].].].].].].].].].].].].].].].].].].].].].].].].].].].].].].].].].].].].]."
};
