/* XPM */
static char *result[] = {
/* columns rows colors chars-per-pixel */
"50 50 178 2 ",
"   c #310C1C",
".  c #35121E",
"X  c #0F0021",
"o  c #120022",
"O  c #1C0324",
"+  c #1D0228",
"@  c #1D1226",
"#  c #1F1030",
"$  c #22032B",
"%  c #2A042E",
"&  c #250823",
"*  c #3B0529",
"=  c #38092B",
"-  c #3C122C",
";  c #2D0431",
":  c #320632",
">  c #390730",
",  c #370D34",
"<  c #241D33",
"1  c #3C1034",
"2  c #2B2B2C",
"3  c #27292A",
"4  c #332F2C",
"5  c #3C332D",
"6  c #2D3032",
"7  c #3E3930",
"8  c #333738",
"9  c #3A3C3D",
"0  c #353A3B",
"q  c #4D0F0B",
"w  c #4E100B",
"e  c #53130C",
"r  c #5B190F",
"t  c #521E17",
"y  c #451615",
"u  c #64210F",
"i  c #6B2612",
"p  c #652C1C",
"a  c #732A17",
"s  c #762C18",
"d  c #7B2E18",
"f  c #7D311A",
"g  c #42082D",
"h  c #4E0A2A",
"j  c #4B0827",
"k  c #550B28",
"l  c #590D29",
"z  c #580B27",
"x  c #47122F",
"c  c #5F1F2F",
"v  c #471834",
"b  c #63192B",
"n  c #42232F",
"m  c #43362D",
"M  c #5E3F2A",
"N  c #69332B",
"B  c #703622",
"V  c #564A34",
"C  c #73482A",
"Z  c #20264C",
"A  c #34324C",
"S  c #332D46",
"D  c #413F51",
"F  c #3B4345",
"G  c #3E4A4D",
"H  c #39454A",
"J  c #3E4C51",
"K  c #384F76",
"L  c #424B4D",
"P  c #464545",
"I  c #414F54",
"U  c #4F4D59",
"Y  c #49565B",
"T  c #50575A",
"R  c #784B44",
"E  c #62614F",
"W  c #666554",
"Q  c #787151",
"!  c #585B66",
"~  c #576669",
"^  c #5A666A",
"/  c #5B696D",
"(  c #5F6D71",
")  c #676E77",
"_  c #6C747C",
"`  c #6B7A7F",
"'  c #667478",
"]  c #77767B",
"[  c #81341B",
"{  c #86391C",
"}  c #8B3D1E",
"|  c #A24F18",
" . c #8E4D29",
".. c #884628",
"X. c #944C26",
"o. c #9D5A2A",
"O. c #9C5729",
"+. c #AC5B25",
"@. c #A45B2A",
"#. c #B15F28",
"$. c #B5652B",
"%. c #BC6A2A",
"&. c #C26C28",
"*. c #C7712D",
"=. c #A37147",
"-. c #7C806F",
";. c #C4843C",
":. c #E78E34",
">. c #EA9036",
",. c #BB8748",
"<. c #A78F53",
"1. c #BB9C55",
"2. c #8A817A",
"3. c #B69471",
"4. c #BBA07F",
"5. c #D29D4E",
"6. c #C09F55",
"7. c #D8995A",
"8. c #DDA14A",
"9. c #D6A54E",
"0. c #DCAE51",
"q. c #DEB256",
"w. c #ECAF4D",
"e. c #E5A859",
"r. c #ECB754",
"t. c #F3BD55",
"y. c #D29A66",
"u. c #D0A372",
"i. c #EBBD7F",
"p. c #ECAF68",
"a. c #F4C258",
"s. c #F9C357",
"d. c #707F84",
"f. c #7B848B",
"g. c #7A898E",
"h. c #73848A",
"j. c #7E8E93",
"k. c #7F9095",
"l. c #819196",
"z. c #839499",
"x. c #8D9998",
"c. c #998488",
"v. c #A19887",
"b. c #AAA18C",
"n. c #B1A393",
"m. c #BEB496",
"M. c #948CB7",
"N. c #9B94BC",
"B. c #B8B9A7",
"V. c #D6C49C",
"C. c #FCCA82",
"Z. c #FDD797",
"A. c #FFDC97",
"S. c #DDCDA2",
"D. c #FCDFA5",
"F. c #FFE1A3",
"G. c #FFE9A6",
"H. c #FFEAA9",
"J. c #F9E6B2",
"K. c #A59BC1",
"L. c #ADADCA",
"P. c #A7A2C5",
"I. c #B6B0CD",
"U. c #BEB6D1",
"Y. c #B2A9C9",
"T. c #C3BDD6",
"R. c #BDC3D6",
"E. c #C1C4CF",
"W. c #C4CBDB",
"Q. c #C9C4DA",
"!. c #CAD2E1",
"~. c #DADCE7",
"^. c #E2E7EE",
"/. c #EBE8F0",
"(. c #F2F2F6",
"). c #FCFCFC",
"_. c #F7F9F9",
"`. c None",
/* pixels */
"`.`.`.`.`.`.`.`.`.`.`.`.`.`.`.`.`.`.`.`.`.`.`.`.`.`.`.`.`.`.`.`.`.`.`.`.`.`.`.`.`.`.`.`.`.`.`.`.`.`.",
"`.`.`.`.`.`.`.`.`.`.`.`.`.`.`.`.`.`.`.`.`.`.`.`.`.`.`.`.`.`.`.`.`.`.`.`.`.`.`.`.`.`.`.`.`.`.`.`.`.`.",
"`.`.`.`.`.`.`.`.`.`.`.`.`.`.`.`.`.`.`.`.`.`.`.`.`.`.`.`.`.`.`.`.`.`.`.`.`.`.`.`.`.`.`.`.`.`.`.`.`.`.",
"`.`.`.`.`.`.`.`.`.`.`.`.`.`.`.`.`.`.`.`.`.`.`.`.`.`.`.`.`.`.`.`.`.`.`.`.`.`.`.`.`.`.`.`.`.`.`.`.`.`.",
"`.`.`.`.`.`.`.`.`.`.`.`.`.`.`.`.`.`.`.`.`.`.`.`.`.`.`.`.`.`.`.`.`.`.`.`.`.`.`.`.`.`.`.`.`.`.`.`.`.`.",
"`.`.`.`.`.`.`.`.`.`.`.`.`.`.`.`.`.`.`.`.`.`.`.`.`.`.`.`.`.`.`.`.`.`.`.`.`.`.`.`.`.`.`.`.`.`.`.`.`.`.",
"`.`.`.`.`.`.`.`.`.`.`.`.`.`.`.`.`.`.`.`.`.`.`.`.`.`.`.`.`.`.`.`.`.`.`.`.`.`.`.`.`.`.`.`.`.`.`.`.`.`.",
"`.`.`.`.`.`.`.`.`.`.`.`.`.`.`.`.`.`.`.`.`.).).).).`.`.`.`.`.`.`.`.`.`.`.`.`.`.`.`.`.`.`.`.`.`.`.`.`.",
"`.`.`.`.`.`.`.`.`.`.`.`.`.`.`.`.`.`.`.`.`.`.).)._._.`.`.`.`.`.`.`.`.`.`.`.`.`.`.`.`.`.`.`.`.`.`.`.`.",
"`.`.`.`.`.`.`.`.`.`.`.`.`.`.`.`.`.`.`.`.`.`.`.(.!.!.W.`.`.`.`.`.`.`.`.`.`.`.`.`.`.`.`.`.`.`.`.`.`.`.",
"`.`.`.`.`.`.`.`.`.`.`.`.`.`.`.`.`.`.`.`.`.`.`.`.R.M.E.W.`.`.`.`.`.`.`.`.`.`.`.`.`.`.`.`.`.`.`.`.`.`.",
"`.`.`.`.`.`.`.`.`.`.`.`.`.`.`.`.`.`.`.`.`.`.`.`.`.Q.N.~._.`.`.`.`.`.`.`.`.`.`.`.`.`.`.`.`.`.`.`.`.`.",
"`.`.`.`.`.`.`.`.`.`.`.`.`.`.`.`.`.`.`.f f [ f `.`.).T.U./.).`.`.`.`.`.`.`.`.`.`.`.`.`.`.`.`.`.`.`.`.",
"`.`.`.`.`.`.`.`.`.`.`.`.`.`.`.`.`.`.f f a s f f f `.).P.I.~.^.`.`.`.`.`.`.`.`.`.`.`.`.`.`.`.`.`.`.`.",
"`.`.`.`.`.`.`.`.`.`.`.`.`.`.`.`.`.f f a e r s f f f `.E.P.K.W.~.`.`.`.`.`.`.`.`.`.`.`.`.`.`.`.`.`.`.",
"`.`.`.`.`.`.`.`.`.`.`.`.`.`.`.`.f f s i u u i f f f f `.).U.Y.(.).`.`.`.`.`.`.`.`.`.`.`.`.`.`.`.`.`.",
"`.`.`.`.`.`.`.`.`.`.`.`.`.`.`.`.f s e *.>.:.&.{ f f f `.`.).Q.K.(._.`.`.`.`.`.`.`.`.`.`.`.`.`.`.`.`.",
"`.`.`.`.`.`.`.`.`.`.`.`.`.`.`.f s e w u.Z.Z.p.&.f f f f `.`.`.L.N.W.W.`.`.`.`.`.`.`.`.`.`.`.`.`.`.`.",
"`.`.`.`.`.`.`.`.`.`.`.`.`.`.`.f s w w n 4.G.3.=   s f f `.`.`.`.L.M.R.!.! `.`.`.`.`.`.`.`.`.`.`.`.`.",
"`.`.`.`.`.`.`.`.`.`.`.`.`.`.f f s w w Z b.G.v.K n.*.{ f `.`.`.`.`.L.N._ P `.`.`.`.`.`.`.`.`.`.`.`.`.",
"`.`.`.`.`.`.`.`.`.`.`.`.`.f f f s w w 2.S.F.V.B.J.$.[ f `.`.`.`.`.W.! & @ `.`.`.`.`.`.`.`.`.`.`.`.`.",
"`.`.`.`.`.`.`.`.`.`.`.`.`.`.f f s w w 7.Z.D.G.A.e.f d f `.`.`.`.`.f.T D # `.`.`.`.`.`.`.`.`.`.`.`.`.",
"`.`.`.`.`.`.`.`.`.`.`.`.`.`.`.f s r e | e.C.i.7.%.[ ..} `.`.`.`.`.L g.z.S . `.`.`.`.`.`.`.`.`.`.`.`.",
"`.`.`.`.`.`.`.`.`.`.`.`.`.`.`.`.{ { t y o.:.&.s [ X.%.@.`.`.`.`.`.l.j.l.A B @.`.`.`.`.`.`.`.`.`.`.`.",
"`.`.`.`.`.`.`.`.`.`.`.`.`.`.`.#.#.o.P J I =.*.s ..9.0.V 2 2 `.`.f.j.j.j.`.+.C 3 `.`.`.`.`.`.`.`.`.`.",
"`.`.`.`.`.`.`.`.`.G L G 8 3 M #.o.m L ` g.m.y.p 4 5 7 4 2 2 2 6 F j.k.`.`.5 4 2 `.`.`.`.`.`.`.`.`.`.",
"`.`.`.`.`.`.`.`.G G G I 8 2 4 m 7 F J h.k.x.] P A 6 2 2 2 2 2 2 0 g.k.`.`.`.`.`.`.`.`.`.`.`.`.`.`.`.",
"`.`.`.`.`.`.o O < G G J H 0 2 6 F G J h.k.k.' G L `.`.2 2 3 3 9 _ j.`.`.`.`.`.`.`.`.`.`.`.`.`.`.`.`.",
"`.`.`.`.`.o o o o `.`.`.`.`.`.0 G G G T ^ ^ T G `.`.`.`.`.T / ' l.`.`.`.`.`.`.`.`.`.`.`.`.`.`.`.`.`.",
"`.`.`.`.`.`.o o o `.`.`.`.`.`.`.G G ~ ( Y G G `.`.`.`.`.`.`.z.z.`.`.`.`.`.`.`.`.`.`.`.`.`.`.`.`.`.`.",
"`.`.`.`.`.`.`.`.o `.`.`.`.`.`.`.J ~ k.z.^ H H `.`.`.`.`.`.`.`.`.`.`.`.`.`.`.`.`.`.`.`.`.`.`.`.`.`.`.",
"`.`.`.`.`.`.`.`.`.`.`.`.`.`.`.`.W _ ] ] U T -.`.`.`.`.`.`.`.`.`.`.`.`.`.`.`.`.`.`.`.`.`.`.`.`.`.`.`.",
"`.`.`.`.`.`.`.`.`.`.`.`.`.`.`.J.5.g k l * c.H.,.: `.`.`.`.`.`.`.`.`.`.`.`.`.`.`.`.`.`.`.`.`.`.`.`.`.",
"`.`.`.`.`.`.`.`.`.`.`.`.`.`.R e.@.l k k j =.8...: : `.`.`.`.`.`.`.`.`.`.`.`.`.`.`.`.`.`.`.`.`.`.`.`.",
"`.`.`.`.`.`.`.`.`.`.`.`.`.; 1 n x k z k k b c > O : : `.`.`.`.`.`.`.`.`.`.`.`.`.`.`.`.`.`.`.`.`.`.`.",
"`.`.`.`.`.`.`.`.`.`.`.`.`.: ; O $ k k k k k k * o O : : `.`.`.`.`.`.`.`.`.`.`.`.`.`.`.`.`.`.`.`.`.`.",
"`.`.`.`.`.`.`.`.`.`.`.`.: % O X o k k z z k z j o o + ; : `.`.`.`.`.`.`.`.`.`.`.`.`.`.`.`.`.`.`.`.`.",
"`.`.`.`.`.`.`.`.`.`.`.: : $ X o O k k k k k j & X o o ; : : `.`.`.`.`.`.`.`.`.`.`.`.`.`.`.`.`.`.`.`.",
"`.`.`.`.`.`.`.`.`.`.`.: : + o o O k l k k z * X o o o + ; : : `.`.`.`.`.`.`.`.`.`.`.`.`.`.`.`.`.`.`.",
"`.`.`.`.`.`.`.`.`.`.`.: ; + X X O k h k z k = o o o o X $ : : : `.`.`.`.`.`.`.`.`.`.`.`.`.`.`.`.`.`.",
"`.`.`.`.`.`.`.`.`.`.`.: + O & @ O h = h k g : ; o o o & - , : : `.`.`.`.`.`.`.`.`.`.`.`.`.`.`.`.`.`.",
"`.`.`.`.`.`.`.`.`.`.`.: $ N $. .O h > k z g : % o o O X.$.N ; `.`.`.`.`.`.`.`.`.`.`.`.`.`.`.`.`.`.`.",
"`.`.`.`.`.`.`.`.`.`.`.`.X.;.t.,.> h > h g : : : % O X.5.r.5.`.`.`.`.`.`.`.`.`.`.`.`.`.`.`.`.`.`.`.`.",
"`.`.`.`.`.`.`.`.`.`.`.`.w.r.a.r.`.> : h g : : : , P 9.t.a.`.`.`.`.`.`.`.`.`.`.`.`.`.`.`.`.`.`.`.`.`.",
"`.`.`.`.`.`.`.`.`.`.`.`.E 1.s.a.`.`.`.`.> : : `.`.L Q q.s.`.`.`.`.`.`.`.`.`.`.`.`.`.`.`.`.`.`.`.`.`.",
"`.`.`.`.`.`.`.`.`.`.`.' Y E <.`.`.`.`.`.`.`.`.`.`.( J Q 6.`.`.`.`.`.`.`.`.`.`.`.`.`.`.`.`.`.`.`.`.`.",
"`.`.`.`.`.`.`.`.`.`.k.l.( H `.`.`.`.`.`.`.`.`.`.z.j.( J `.`.`.`.`.`.`.`.`.`.`.`.`.`.`.`.`.`.`.`.`.`.",
"`.`.`.`.`.`.`.`.`.` ` g.`.`.`.`.`.`.`.`.`.`.`.`.` d.k.`.`.`.`.`.`.`.`.`.`.`.`.`.`.`.`.`.`.`.`.`.`.`.",
"`.`.`.`.`.`.`.`.`.G G `.`.`.`.`.`.`.`.`.`.`.`.`.G G `.`.`.`.`.`.`.`.`.`.`.`.`.`.`.`.`.`.`.`.`.`.`.`.",
"`.`.`.`.`.`.`.`.`.`.`.`.`.`.`.`.`.`.`.`.`.`.`.`.`.`.`.`.`.`.`.`.`.`.`.`.`.`.`.`.`.`.`.`.`.`.`.`.`.`."
};
