/* XPM */
static char *result[] = {
/* columns rows colors chars-per-pixel */
"50 50 177 2 ",
"   c #0E0021",
".  c #130123",
"X  c #1A0223",
"o  c #1B0829",
"O  c #1E1429",
"+  c #24032C",
"@  c #29042D",
"#  c #260623",
"$  c #3E0726",
"%  c #3C072F",
"&  c #390A2F",
"*  c #381726",
"=  c #2E0432",
"-  c #320632",
";  c #350832",
":  c #3D0B31",
">  c #3C1135",
",  c #3C123A",
"<  c #2C2C2B",
"1  c #322C2A",
"2  c #302F31",
"3  c #34393A",
"4  c #333738",
"5  c #4C0D08",
"6  c #4B0C07",
"7  c #51120C",
"8  c #5A180E",
"9  c #411218",
"0  c #5E1B10",
"q  c #621E11",
"w  c #79290F",
"e  c #7A2D15",
"r  c #732C19",
"t  c #7B2F19",
"y  c #76321C",
"u  c #7D311A",
"i  c #4B0927",
"p  c #44072A",
"a  c #45092D",
"s  c #49092B",
"d  c #510627",
"f  c #550B28",
"g  c #580B28",
"h  c #500728",
"j  c #58122A",
"k  c #62172A",
"l  c #5B232F",
"z  c #43352B",
"x  c #4D382A",
"c  c #5D2E38",
"v  c #4F353B",
"b  c #472E26",
"n  c #6F3823",
"m  c #7E3826",
"M  c #783737",
"N  c #70282B",
"B  c #56413A",
"V  c #7D4227",
"C  c #69453B",
"Z  c #72463E",
"A  c #1D2751",
"S  c #373A44",
"D  c #3F3B50",
"F  c #421C41",
"G  c #374144",
"H  c #3B454B",
"J  c #3E4A4D",
"K  c #404343",
"L  c #414549",
"P  c #414B4D",
"I  c #484D4C",
"U  c #4D4845",
"Y  c #524C44",
"T  c #444D51",
"R  c #4C465C",
"E  c #4C5254",
"W  c #435257",
"Q  c #7F4545",
"!  c #67495F",
"~  c #6E5852",
"^  c #686857",
"/  c #4F5E61",
"(  c #515E62",
")  c #5A5B62",
"_  c #546165",
"`  c #576568",
"'  c #5B6B72",
"]  c #6E646C",
"[  c #627175",
"{  c #667579",
"}  c #6C7A7D",
"|  c #82351B",
" . c #84391D",
".. c #8C3C1B",
"X. c #A0501C",
"o. c #8B4627",
"O. c #9E5426",
"+. c #92523F",
"@. c #824735",
"#. c #A65A2B",
"$. c #A95C29",
"%. c #A65A25",
"&. c #B55F22",
"*. c #95633F",
"=. c #B46B33",
"-. c #B7672B",
";. c #CD7326",
":. c #C36A26",
">. c #9A5D49",
",. c #8D744A",
"<. c #9C7444",
"1. c #9F746A",
"2. c #916C72",
"3. c #877D77",
"4. c #CD873E",
"5. c #DA883C",
"6. c #E08835",
"7. c #F2973B",
"8. c #97824E",
"9. c #988552",
"0. c #BE8B5D",
"q. c #A08864",
"w. c #C59449",
"e. c #CB904D",
"r. c #DEA84F",
"t. c #CAA655",
"y. c #ECB14E",
"u. c #ECB855",
"i. c #F3BE56",
"p. c #D8AD64",
"a. c #D0AA74",
"s. c #F1B367",
"d. c #F4C258",
"f. c #F8C357",
"g. c #F6CA7C",
"h. c #6C7B81",
"j. c #757E88",
"k. c #766999",
"l. c #806A95",
"z. c #88759C",
"x. c #8073A8",
"c. c #76868B",
"v. c #77868B",
"b. c #7E8D92",
"n. c #809196",
"m. c #83949B",
"M. c #8C9896",
"N. c #A08695",
"B. c #BEA989",
"V. c #B7B49F",
"C. c #938BB7",
"Z. c #9594B7",
"A. c #C0A684",
"S. c #DBB783",
"D. c #CAAAA0",
"F. c #D4C29B",
"G. c #F3C686",
"H. c #FFCF82",
"J. c #FEDB9C",
"K. c #F9D597",
"L. c #D9C3BC",
"P. c #FDDDA2",
"I. c #FFE6A6",
"U. c #9A95C2",
"Y. c #AFB1CD",
"T. c #BFC5D7",
"R. c #DBD7C1",
"E. c #CEC9DD",
"W. c #C4CDDC",
"Q. c #DFD2D3",
"!. c #DCC9C4",
"~. c #F8EFC8",
"^. c #D9D7E6",
"/. c #FFFFFE",
"(. c #F1F0F4",
"). c #E4ECF5",
"_. c None",
/* pixels */
"_._._._._._._._._._._._._._._._._._._._._._._._._._._._._._._._._._._._._._._._._._._._._._._._._._.",
"_._._._._._._._._._._._._._._._._._._._._._._._._._._._._._._._._._._._._._._._._._._._._._._._._._.",
"_._._._._._._._._._._._._._._._._._._._._._._._._._._._._._._._._._._._._._._._._._._._._._._._._._.",
"_._._._._._._._._._._._._._._._._._._._._._._._._._._._._._._._._._._._._._._._._._._._._._._._._._.",
"_._._._._._._._._._._._._._._._._._._._._._._._._._._._._._._._._._._._._._._._._._._._._._._._._._.",
"_._._._._._._._._._._._._._._._._._._._._._._._._._._._._._._._._._._._._._._._._._._._._._._._._._.",
"_._._._._._._._._._._._._._._._._._._._._._._._._._._._._._._._._._._._._._._._._._._._._._._._._._.",
"_._._._._._._._._._._._._._._._._._._._._._._._._._._._._._._._._._._._._._._._._._._._._._._._._._.",
"_._._._._._._._._._._._._._._._._._._._._._._._._._._._._._._._._._._._._._._._._._._._._._._._._._.",
"_._._._._._._._._._._._._._._._._._._._._._._._._._._._._._._._._._._._._._._._._._._._._._._._._._.",
"_._._._._._._._._._._._._._._._._._._._._._._._._._._._._._._._._._._._._._._._._._._._._._._._._._.",
"_._._._._._._._._._._._._._._._._._._._._._._._._._._._._._._._._._._._._._._._._._._._._._._._._._.",
"_._._._._._._._._._._._._._._././._._._._._._._._._._._._._._._._._._._._._._._._._._._._._._._._._.",
"_._._._._._._._._._._._._._._.(.E.E._._._._._._._._._._._._._._._._._._._._._._._._._._._._._._._._.",
"_._._._._._._._._._._._._._._.^.k.C.Y.^.E.D._._._._._._._._._._._._._._._._._._._._._._._._._._._._.",
"_._._._._._._._._._._._._._._._._.W.z.k.>.e t u u u _._._._._._._._._._._._._._._._._._._._._._._._.",
"_._._._._._._._._._._._._._._._._._.| m m q 8 t u u t _._._._._._._._._._._._._._._._._._._._._._._.",
"_._._._._._._._._._._._._._._._._.| t t q 5 7 0 u u t !._._._._._._._._._._._._._._._._._._._._._._.",
"_._._._._._._._._._._._._._._._.u t u q X.;.;.&.t | t >.!.).W.W._._._._._._._._._._._._._._._._._._.",
"_._._._._._._._._._._._._._._.u u t q 5 e.H.G.s.:.| t e >.N.Z.C.k.2 < _._._._._._._._._._._._._._._.",
"_._._._._._._._._._._._._._._.u u t 7 5 Q B.I.S.n 9 r t w 2.U.k.R < O . _._._._._._._._._._._._._._.",
"_._._._._._._._._._._._._._._.u u t 7 5 # } I.B.A ] #...e 1.Z.R < E D o _._._._._._._._._._._._._._.",
"_._._._._._._._._._._._._._._.| t t 7 5 ) V.I.F.m.~.5...u @.E L E n.n.v * _._._._._._._._._._._._._.",
"_._._._._._._._._._._._._._._.n  .t 0 5 0.J.J.P.P.G.o.e y ~ c.n.b.n.b.*.x _._._._._._._._._._._._._.",
"_._._._._._._._._._.J T 3 < < x O.u u 8 X.s.J.K.G.5. .y b < E b.b.b.b.K < _._._._._._._._._._._._._.",
"_._._._._._._._.J J J J 3 < < < z %.$. .B <.7.5.=.$.z 1 < < < I b.b._._._._._._._._._._._._._._._._.",
"_._._._._._.. . O J J J H 3 < < 2 z Y Y I I q.a.z z < < < < < L n._._._._._._._._._._._._._._._._._.",
"_._._._._.. . . o J _._._._._._._.G J [ h.h.} ^ S _._.< < < I { _._._._._._._._._._._._._._._._._._.",
"_._._._._._._.. X _._._._._._._._.T J c.m.m.{ H P _._._._._._._._._._._._._._._._._._._._._._._._._.",
"_._._._._._._._._._._._._._._._._.J J ` [ [ _ J _._._._._._._._._._._._._._._._._._._._._._._._._._.",
"_._._._._._._._._._._._._._._._._.J / _ W H J J _._._._._._._._._._._._._._._._._._._._._._._._._._.",
"_._._._._._._._._._._._._._._._._._ c.b.` J J J _._._._._._._._._._._._._._._._._._._._._._._._._._.",
"_._._._._._._._._._._._._._._._._.j.M.M._ H L T _._._._._._._._._._._._._._._._._._._._._._._._._._.",
"_._._._._._._._._._._._._._._._.- F R.g.Z p i ! R., _._._._._._._._._._._._._._._._._._._._._._._._.",
"_._._._._._._._._._._._._._._._.- : p.4.N d d M p.> _._._._._._._._._._._._._._._._._._._._._._._._.",
"_._._._._._._._._._._._._._._.- - ; c N j g g k N ; - _._._._._._._._._._._._._._._._._._._._._._._.",
"_._._._._._._._._._._._._._._.- - = o p g f f f h s ; - - - - - - _._._._._._._._._._._._._._._._._.",
"_._._._._._._._._._._._._._._.- - - . @ i g g f f f @ - - - - - - _._._._._._._._._._._._._._._._._.",
"_._._._._._._._._._._._._._.- - - - X   $ g f f f f X o - - - - - - _._._._._._._._._._._._._._._._.",
"_._._._._._._._._._._._._.- - - - @ . . $ g f f g f . . o = - - - - _._._._._._._._._._._._._._._._.",
"_._._._._._._._._._._._._.- - - @ . . . $ g f h f i . . # * : - - _._._._._._._._._._._._._._._._._.",
"_._._._._._._._._._._._._._.; ; X . . . $ g s % i X . X m -.@.= - _._._._._._._._._._._._._._._._._.",
"_._._._._._._._._._._._._.= l %.o.X . @ i s - % i . . V e.u.r._._._._._._._._._._._._._._._._._._._.",
"_._._._._._._._._._._._._.C =.y.w.o @ s a - - & j S 3 w.d.f.d._._._._._._._._._._._._._._._._._._._.",
"_._._._._._._._._._._._.H ,.u.d.u._.= % ; - - _._.{ W ^ t.d.i._._._._._._._._._._._._._._._._._._._.",
"_._._._._._._._._._._.{ W 9.f.d._._._.- - - _._._.b.[ W _._._._._._._._._._._._._._._._._._._._._._.",
"_._._._._._._._._._.b.n.' 8.f._._._._._.- _._._.m.b.n._._._._._._._._._._._._._._._._._._._._._._._.",
"_._._._._._._._._.} b.b._._._._._._._._._._._._.} } b._._._._._._._._._._._._._._._._._._._._._._._.",
"_._._._._._._._.J T c._._._._._._._._._._._._._.J J _._._._._._._._._._._._._._._._._._._._._._._._.",
"_._._._._._._._._._._._._._._._._._._._._._._._._._._._._._._._._._._._._._._._._._._._._._._._._._."
};
