/* XPM */
static char *result[] = {
/* columns rows colors chars-per-pixel */
"50 50 167 2 ",
"   c #28081D",
".  c #0E0021",
"X  c #120022",
"o  c #190125",
"O  c #1E0228",
"+  c #1D142A",
"@  c #250324",
"#  c #240C23",
"$  c #23032B",
"%  c #2C062E",
"&  c #2A0925",
"*  c #340626",
"=  c #3D052D",
"-  c #390626",
";  c #221E23",
":  c #3B1623",
">  c #2D0431",
",  c #320632",
"<  c #370B33",
"1  c #251934",
"2  c #3F1234",
"3  c #2C2C2C",
"4  c #282828",
"5  c #3E2F27",
"6  c #36302C",
"7  c #3B322C",
"8  c #323433",
"9  c #343739",
"0  c #343839",
"q  c #4F0F0A",
"w  c #5A160B",
"e  c #56150E",
"r  c #40171F",
"t  c #5F1C10",
"y  c #611B0E",
"u  c #641F12",
"i  c #64210F",
"p  c #6A2412",
"a  c #662A1C",
"s  c #722916",
"d  c #772D18",
"f  c #7A2E19",
"g  c #7D311A",
"h  c #7F391E",
"j  c #450826",
"k  c #4C0A27",
"l  c #44082C",
"z  c #4E0828",
"x  c #530A27",
"c  c #550B28",
"v  c #590B28",
"b  c #4C162E",
"n  c #5F142A",
"m  c #641929",
"M  c #492629",
"N  c #64292C",
"B  c #65352A",
"V  c #793421",
"C  c #762F31",
"Z  c #6F462A",
"A  c #774B34",
"S  c #383A45",
"D  c #433D50",
"F  c #3B454A",
"G  c #3E4A4E",
"H  c #2D436B",
"J  c #424C4E",
"K  c #4D4746",
"L  c #5B5449",
"P  c #414E52",
"I  c #435053",
"U  c #4D5A5E",
"Y  c #485256",
"T  c #59585A",
"R  c #715752",
"E  c #675547",
"W  c #776E4F",
"Q  c #7C7451",
"!  c #525060",
"~  c #576569",
"^  c #5B6B6F",
"/  c #5C6768",
"(  c #5B6B72",
")  c #626C6F",
"_  c #716F63",
"`  c #7E7D63",
"'  c #686375",
"]  c #646D75",
"[  c #736572",
"{  c #667175",
"}  c #6B7A7E",
"|  c #6A717C",
" . c #81341B",
".. c #8B3C1C",
"X. c #893A18",
"o. c #813727",
"O. c #94431F",
"+. c #994A1E",
"@. c #834C2A",
"#. c #8B4727",
"$. c #964E2C",
"%. c #9E5929",
"&. c #87523B",
"*. c #975B3D",
"=. c #A35A28",
"-. c #B7692E",
";. c #A66A3D",
":. c #C07B39",
">. c #D07A31",
",. c #84545D",
"<. c #A06E4D",
"1. c #877063",
"2. c #C37D40",
"3. c #C8853C",
"4. c #D88131",
"5. c #E78E35",
"6. c #EB9136",
"7. c #A7874D",
"8. c #BD8A49",
"9. c #B09553",
"0. c #8D897C",
"q. c #C58547",
"w. c #E89642",
"e. c #DFAF57",
"r. c #E1AC52",
"t. c #EFBC56",
"y. c #E8B454",
"u. c #F2BD55",
"i. c #D4AA78",
"p. c #F4BF78",
"a. c #F6C258",
"s. c #F8C37A",
"d. c #FCD47D",
"f. c #6A7D84",
"g. c #787D86",
"h. c #7F70AA",
"j. c #7F76A2",
"k. c #8173A8",
"l. c #788587",
"z. c #7D8D93",
"x. c #7E9097",
"c. c #908D82",
"v. c #809096",
"b. c #839499",
"n. c #969A97",
"m. c #AAAB9B",
"M. c #BEBC9D",
"N. c #A1A3B0",
"B. c #C4BFA3",
"V. c #DCC497",
"C. c #F5C989",
"Z. c #FCD78B",
"A. c #E2C390",
"S. c #EFD49F",
"D. c #FBD596",
"F. c #D1C0A7",
"G. c #FFDFA2",
"H. c #FFE3A4",
"J. c #B4BBC9",
"K. c #C0B6CA",
"L. c #CDC7DD",
"P. c #E9DBD3",
"I. c #F6EBC1",
"U. c #FCF8CC",
"Y. c white",
"T. c #E5EBF6",
"R. c None",
/* pixels */
"R.R.R.R.R.R.R.R.R.R.R.R.R.R.R.R.R.R.R.R.R.R.R.R.R.R.R.R.R.R.R.R.R.R.R.R.R.R.R.R.R.R.R.R.R.R.R.R.R.R.",
"R.R.R.R.R.R.R.R.R.R.R.R.R.R.R.R.R.R.R.R.R.R.R.R.R.R.R.R.R.R.R.R.R.R.R.R.R.R.R.R.R.R.R.R.R.R.R.R.R.R.",
"R.R.R.R.R.R.R.R.R.R.R.R.R.R.R.R.R.R.R.R.R.R.R.R.R.R.R.R.R.R.R.R.R.R.R.R.R.R.R.R.R.R.R.R.R.R.R.R.R.R.",
"R.R.R.R.R.R.R.R.R.R.R.R.R.R.R.R.R.R.R.R.R.R.R.R.R.R.R.R.R.R.R.R.R.R.R.R.R.R.R.R.R.R.R.R.R.R.R.R.R.R.",
"R.R.R.R.R.R.R.R.R.R.R.R.R.R.R.R.R.R.R.R.R.R.R.R.R.R.R.R.R.R.R.R.R.R.R.R.R.R.R.R.R.R.R.R.R.R.R.R.R.R.",
"R.R.R.R.R.R.R.R.R.R.R.R.R.R.R.R.R.R.R.R.R.R.R.R.R.R.R.R.R.R.R.R.R.R.R.R.R.R.R.R.R.R.R.R.R.R.R.R.R.R.",
"R.R.R.R.R.R.R.R.R.R.R.R.R.R.R.R.R.R.R.R.R.R.R.R.R.R.R.R.R.R.R.R.R.R.R.R.R.R.R.R.R.R.R.R.R.R.R.R.R.R.",
"R.R.R.R.R.R.R.R.R.R.R.R.R.R.R.R.R.R.R.R.R.R.R.R.R.R.R.R.R.R.R.R.R.R.R.R.R.R.R.R.R.R.R.R.R.R.R.R.R.R.",
"R.R.R.R.R.R.R.R.R.R.R.R.R.R.R.R.R.R.R.R.R.R.R.R.R.R.R.R.R.R.R.R.R.R.R.R.R.R.R.R.R.R.R.R.R.R.R.R.R.R.",
"R.R.R.R.R.R.R.R.R.R.R.R.R.R.R.R.R.R.R.R.R.R.R.R.R.R.R.R.R.R.R.R.R.R.R.R.R.R.R.R.R.R.R.R.R.R.R.R.R.R.",
"R.R.R.R.R.R.R.R.R.R.R.R.R.R.R.R.R.R.R.R.R.R.R.R.R.R.R.R.R.R.R.R.R.R.R.R.R.R.R.R.R.R.R.R.R.R.R.R.R.R.",
"R.R.R.R.R.R.R.R.R.R.R.R.R.R.R.R.R.R.R.R.R.R.R.R.R.R.R.R.R.R.R.R.R.R.R.R.R.R.R.R.R.R.R.R.R.R.R.R.R.R.",
"R.R.R.R.R.R.R.R.R.R.R.R.R.R.g  .g g g g R.R.R.R.R.R.R.R.R.R.R.R.R.R.R.R.R.R.R.R.R.R.R.R.R.R.R.R.R.R.",
"R.R.R.R.R.R.R.R.R.R.R.R.R.g f p g g g g g R.R.R.R.R.R.R.R.R.R.R.R.R.R.R.R.R.R.R.R.R.R.R.R.R.R.R.R.R.",
"R.R.R.R.R.R.R.R.R.R.R.R. .f y e s g g g g g g R.R.R.R.R.R.R.R.R.R.R.R.R.R.R.R.R.R.R.R.R.R.R.R.R.R.R.",
"R.R.R.R.R.R.R.R.R.R.R.R.d p i i i g g g g g g g R.R.R.R.R.R.R.R.R.R.R.R.R.R.R.R.R.R.R.R.R.R.R.R.R.R.",
"R.R.R.R.R.R.R.R.R.R.R. .w $.6.5.4... .g g g g g g R.R.R.R.R.R.R.R.R.R.R.R.R.R.R.R.R.R.R.R.R.R.R.R.R.",
"R.R.R.R.R.R.R.R.R.R.R. .w <.D.D.C.>...g g g g g g R.R.R.R.R.R.R.R.R.R.R.R.R.R.R.R.R.R.R.R.R.R.R.R.R.",
"R.R.R.R.R.R.R.R.R.R.R. .y r 1.H.A.M   a g g g g g g R.R.R.R.R.R.R.R.R.R.R.R.R.R.R.R.R.R.R.R.R.R.R.R.",
"R.R.R.R.R.R.R.R.R.R.R. .y 1 } H.V.H n.2.+.f g g g g R.R.R.R.R.3 R.R.R.R.R.R.R.R.R.R.R.R.R.R.R.R.R.R.",
"R.R.R.R.R.R.R.R.R.R.R.g w R F.D.G.m.I.q... .g g  . .P.Y.T.g.4 3 R.R.R.R.R.R.R.R.R.R.R.R.R.R.R.R.R.R.",
"R.R.R.R.R.R.R.R.R.R.R. .e ;.Z.H.G.G.p.$.d f g g o.,.J.L.N.T + + R.R.R.R.R.R.R.R.R.R.R.R.R.R.R.R.R.R.",
"R.R.R.R.R.R.R.R.R.R.R.g i X.3.i.C.p.>.......o.a B k.h.h.D 8 F 1 # @.T R.R.R.R.R.R.R.R.R.R.R.R.R.R.R.",
"R.R.R.R.R.R.R.R.R.R.R...g i q g w.w...d #.%.Z 3 3 R.R.j.T / b.{ o 0 J.R.R.R.R.R.R.R.R.R.R.R.R.R.R.R.",
"R.R.R.R.R.R.R.R.R.R.=.=.#. .s *.S.C.#.K 0 3 3 3 3 3 3 { v.v.v.z.R.R.R.R.R.R.R.R.R.R.R.R.R.R.R.R.R.R.",
"R.R.R.R.R.R.R.G G 3 6 6 @.O.B _ D.w.L G 9 3 3 3 3 3 3 8 ) v.z.v.R.R.R.R.R.R.R.R.R.R.R.R.R.R.R.R.R.R.",
"R.R.R.R.R.R.G J F 3 3 3 5 5 K z.n.0.l.U R.R.R.R.3 3 3 4 ) v.z.R.R.R.R.R.R.R.R.R.R.R.R.R.R.R.R.R.R.R.",
"R.R.R.R.R.P G G G 3 3 3 3 4 Y b.z.z.v.U G R.R.R.R.R.R.] l.v.R.R.R.R.R.R.R.R.R.R.R.R.R.R.R.R.R.R.R.R.",
"R.R.R.X + S G G R.R.R.R.R.R.J ~ ~ ~ ~ I G G R.R.R.R.R.R.R.R.R.R.R.R.R.R.R.R.R.R.R.R.R.R.R.R.R.R.R.R.",
"R.R.X X X 1 I R.R.R.R.R.R.R.} ^ ( ^ ^ P F R.R.R.R.R.R.R.R.R.R.R.R.R.R.R.R.R.R.R.R.R.R.R.R.R.R.R.R.R.",
"R.R.X X X X R.R.R.R.R.R.R.M.0.' [ [ ' g.` E R.R.R.R.R.R.R.R.R.R.R.R.R.R.R.R.R.R.R.R.R.R.R.R.R.R.R.R.",
"R.R.R.R.X R.R.R.R.R.R.R.U.Z.;.= x x = F.d.&.> R.R.R.R.R.R.R.R.R.R.R.R.R.R.R.R.R.R.R.R.R.R.R.R.R.R.R.",
"R.R.R.R.R.R.R.R.R.R.R.R.e.q.o.k c c v q.-.B > , , R.R.R.R.R.R.R.R.R.R.R.R.R.R.R.R.R.R.R.R.R.R.R.R.R.",
"R.R.R.R.R.R.R.R.R.R.R.R.2 2 & @ x c c n b % O > , , R.R.R.R.R.R.R.R.R.R.R.R.R.R.R.R.R.R.R.R.R.R.R.R.",
"R.R.R.R.R.R.R.R.R.R.R.R., , $ X @ x c c b x * O , , , , , R.R.R.R.R.R.R.R.R.R.R.R.R.R.R.R.R.R.R.R.R.",
"R.R.R.R.R.R.R.R.R.R.R.R., , , $ X @ x c v v x = O , , , , , R.R.R.R.R.R.R.R.R.R.R.R.R.R.R.R.R.R.R.R.",
"R.R.R.R.R.R.R.R.R.R.R.R., , , > X X x c c c v j o > , , , , , R.R.R.R.R.R.R.R.R.R.R.R.R.R.R.R.R.R.R.",
"R.R.R.R.R.R.R.R.R.R.R.R., , > O X X * k c c v j o , , , , , , , R.R.R.R.R.R.R.R.R.R.R.R.R.R.R.R.R.R.",
"R.R.R.R.R.R.R.R.R.R.R., , % O X X X . j v j j x & $ > , , , , , , R.R.R.R.R.R.R.R.R.R.R.R.R.R.R.R.R.",
"R.R.R.R.R.R.R.R.R.R.R., , $ . X X X o l v - $ k x : b < , , , , , R.R.R.R.R.R.R.R.R.R.R.R.R.R.R.R.R.",
"R.R.R.R.R.R.R.R.R.R., , > & # # X o > , l l $ @ m -.-.R.R.R.R., , R.R.R.R.R.R.R.R.R.R.R.R.R.R.R.R.R.",
"R.R.R.R.R.R.R.R.R.R., < O B -.@.o > , , , < > R.C y.u.R.R.R.R.R.R.R.R.R.R.R.R.R.R.R.R.R.R.R.R.R.R.R.",
"R.R.R.R.R.R.R.R.R.R.R.S A 3.u.q., , , , , , R.R.r.u.u.R.R.R.R.R.R.R.R.R.R.R.R.R.R.R.R.R.R.R.R.R.R.R.",
"R.R.R.R.R.R.R.R.R.R.G G 7.u.a.y.R.R., , , R.R.R.Q t.a.R.R.R.R.R.R.R.R.R.R.R.R.R.R.R.R.R.R.R.R.R.R.R.",
"R.R.R.R.R.R.R.R.R.z.f.Y 9.a.a.R.R.R.R.R.R.R.R.R.P W W R.R.R.R.R.R.R.R.R.R.R.R.R.R.R.R.R.R.R.R.R.R.R.",
"R.R.R.R.R.R.R.R.R.z.x.~ R.R.R.R.R.R.R.R.R.R.R.R.I ( ( R.R.R.R.R.R.R.R.R.R.R.R.R.R.R.R.R.R.R.R.R.R.R.",
"R.R.R.R.R.R.R.R.R.v.v.R.R.R.R.R.R.R.R.R.R.R.R.R.U v.b.R.R.R.R.R.R.R.R.R.R.R.R.R.R.R.R.R.R.R.R.R.R.R.",
"R.R.R.R.R.R.R.R.R.} } R.R.R.R.R.R.R.R.R.R.R.R.R.R.} } R.R.R.R.R.R.R.R.R.R.R.R.R.R.R.R.R.R.R.R.R.R.R.",
"R.R.R.R.R.R.R.R.R.G G R.R.R.R.R.R.R.R.R.R.R.R.R.R.G G R.R.R.R.R.R.R.R.R.R.R.R.R.R.R.R.R.R.R.R.R.R.R.",
"R.R.R.R.R.R.R.R.R.R.R.R.R.R.R.R.R.R.R.R.R.R.R.R.R.R.R.R.R.R.R.R.R.R.R.R.R.R.R.R.R.R.R.R.R.R.R.R.R.R."
};
