/* XPM */
static char *result[] = {
/* columns rows colors chars-per-pixel */
"50 50 169 2 ",
"   c #0F0022",
".  c #130122",
"X  c #1A0225",
"o  c #1D0329",
"O  c #190C2E",
"+  c #240324",
"@  c #290D23",
"#  c #24042B",
"$  c #2C052C",
"%  c #2A0625",
"&  c #350625",
"*  c #3C062D",
"=  c #3F082F",
"-  c #3A0925",
";  c #201727",
":  c #3F1C24",
">  c #2E0431",
",  c #320632",
"<  c #3B1D35",
"1  c #2C2C2C",
"2  c #262424",
"3  c #3E2D28",
"4  c #35383D",
"5  c #5A150B",
"6  c #53130D",
"7  c #6B200F",
"8  c #6C2514",
"9  c #642012",
"0  c #782E19",
"q  c #76311C",
"w  c #7D311A",
"e  c #4D0A27",
"r  c #43092E",
"t  c #4B092A",
"y  c #540827",
"u  c #550B28",
"i  c #590C28",
"p  c #580B27",
"a  c #501A2F",
"s  c #641929",
"d  c #4D2E25",
"f  c #59262A",
"g  c #533125",
"h  c #5C2D38",
"j  c #6B232D",
"k  c #6A3425",
"l  c #692430",
"z  c #643E31",
"x  c #793A2B",
"c  c #4D423F",
"v  c #50423D",
"b  c #61402A",
"n  c #784931",
"m  c #393C46",
"M  c #522A49",
"N  c #3E4B4E",
"B  c #394548",
"V  c #3E4B50",
"C  c #434A4B",
"Z  c #4D4340",
"A  c #4C524C",
"S  c #5E564D",
"D  c #4E4953",
"F  c #455358",
"G  c #6C6D5B",
"H  c #4B5C61",
"J  c #595F69",
"K  c #56656B",
"L  c #556368",
"P  c #5B6C70",
"I  c #616B6E",
"U  c #616C72",
"Y  c #646C78",
"T  c #6C7A7F",
"R  c #67737A",
"E  c #81361C",
"W  c #86381B",
"Q  c #8B3C1A",
"!  c #82372A",
"~  c #8E4115",
"^  c #9E4D21",
"/  c #974B26",
"(  c #A24F22",
")  c #A45626",
"_  c #AE622B",
"`  c #BB6B2A",
"'  c #AE6431",
"]  c #B66E32",
"[  c #926042",
"{  c #8C7345",
"}  c #877B53",
"|  c #A37453",
" . c #A87856",
".. c #B27D57",
"X. c #BC843E",
"o. c #C7883E",
"O. c #DA8435",
"+. c #9A8653",
"@. c #958250",
"#. c #B48245",
"$. c #B89D5E",
"%. c #B29A7D",
"&. c #D29A4A",
"*. c #E49648",
"=. c #E19E44",
"-. c #C7A14F",
";. c #C5A355",
":. c #DDAF51",
">. c #EAB04F",
",. c #E0AD58",
"<. c #EBB451",
"1. c #F2BD55",
"2. c #FEB055",
"3. c #CFA574",
"4. c #EABB62",
"5. c #F4C159",
"6. c #FAC457",
"7. c #665C80",
"8. c #577493",
"9. c #6D628C",
"0. c #6F7E82",
"q. c #747984",
"w. c #7E6FA6",
"e. c #7F71A7",
"r. c #8072A7",
"t. c #8173A8",
"y. c #867AAC",
"u. c #897DAE",
"i. c #7A8A8E",
"p. c #7D8D92",
"a. c #7F9195",
"s. c #84809E",
"d. c #809096",
"f. c #839498",
"g. c #B6AF97",
"h. c #8E83B4",
"j. c #9286B4",
"k. c #9489B5",
"l. c #9A8EB9",
"z. c #9A92BA",
"x. c #99A2A6",
"c. c #FED28E",
"v. c #F0D09C",
"b. c #E1CEA3",
"n. c #F4D9A2",
"m. c #E4D9B9",
"M. c #FFE5A7",
"N. c #A7A5C5",
"B. c #ADAECA",
"V. c #A9A6C6",
"C. c #B7AFCD",
"Z. c #B3B5CE",
"A. c #BEB6D1",
"S. c #C2BBD5",
"D. c #BFC5D8",
"F. c #C3CBDB",
"G. c #CDC7DC",
"H. c #EEE6C1",
"J. c #D1CFE0",
"K. c #CCD2E0",
"L. c #D3D3E2",
"P. c #E4E4EC",
"I. c #E5E9EF",
"U. c #EDEBF2",
"Y. c #F0EEF4",
"T. c #F2F2F6",
"R. c #F7F7F9",
"E. c #FCFCFC",
"W. c None",
/* pixels */
"W.W.W.W.W.W.W.W.W.W.W.W.W.W.W.W.W.W.W.W.W.W.W.W.W.W.W.W.W.W.W.W.W.W.W.W.W.W.W.W.W.W.W.W.W.W.W.W.W.W.",
"W.W.W.W.W.W.W.W.W.W.W.W.W.W.W.W.W.W.W.W.W.W.W.W.W.W.W.W.W.W.W.W.W.W.W.W.W.W.W.W.W.W.W.W.W.W.W.W.W.W.",
"W.W.W.W.W.W.W.W.W.W.W.W.W.W.W.W.W.W.W.W.W.W.W.W.W.W.W.W.W.W.W.W.W.W.W.W.W.W.W.W.W.W.W.W.W.W.W.W.W.W.",
"W.W.W.W.W.W.W.W.W.W.E.E.E.E.E.E.E.E.E.E.E.E.E.E.E.W.W.W.W.W.W.W.W.W.W.W.W.W.W.W.W.W.W.W.W.W.W.W.W.W.",
"W.W.W.W.W.W.W.W.W.E.E.E.E.E.E.E.E.E.E.E.E.E.E.E.E.E.W.W.W.W.W.W.W.W.W.W.W.W.W.W.W.W.W.W.W.W.W.W.W.W.",
"W.W.W.W.W.W.W.W.E.E.E.E.E.E.E.E.E.E.E.E.E.E.E.E.E.E.E.E.E.E.E.W.W.W.W.W.W.W.W.W.W.W.W.W.W.W.W.W.W.W.",
"W.W.W.W.W.W.W.W.E.E.E.E.E.E.E.E.E.E.E.E.E.E.E.E.E.E.E.E.E.E.E.E.E.E.E.E.W.W.W.W.W.W.W.W.W.W.W.W.W.W.",
"W.W.W.W.W.W.W.E.E.E.E.E.E.E.E.E.E.E.E.E.E.E.E.E.E.E.E.E.E.E.E.E.E.E.E.E.E.E.E.E.W.W.W.W.W.W.W.W.W.W.",
"W.W.W.W.W.W.E.E.E.E.E.E.E.E.E.E.E.E.E.E.E.E.E.E.E.E.E.E.E.E.E.E.E.E.E.E.E.E.E.E.E.E.W.W.W.W.W.W.W.W.",
"W.W.W.W.W.W.E.E.E.E.E.E.E.E.E.E.E.E.E.E.E.E.E.E.E.E.E.E.E.E.E.E.E.E.E.E.E.E.E.E.E.E.E.E.E.W.W.W.W.W.",
"W.W.W.W.W.E.E.E.E.E.E.E.E.E.E.W.W.W.W.W.W.W.W.W.W.W.W.W.W.W.W.W.W.W.E.E.E.E.E.E.E.E.E.E.E.E.E.W.W.W.",
"W.W.W.W.W.E.E.E.E.E.E.E.E.E.W.W.W.W.W.W.W.W.W.W.W.W.W.W.W.W.W.W.W.W.W.W.W.W.W.W.W.W.W.E.E.E.E.E.E.W.",
"W.W.W.W.W.E.E.E.E.E.E.E.E.E.W.W.W.W.W.W.W.W.W.W.W.W.W.W.W.W.W.W.W.W.W.W.W.W.W.W.W.W.W.W.E.W.E.E.E.E.",
"W.W.W.W.E.E.E.E.E.E.E.E.E.E.W.W.W.W.W.W.W.W.W.W.W.W.W.W.W.W.W.W.W.W.W.W.W.W.W.W.W.W.W.W.W.W.W.E.E.E.",
"W.W.W.W.E.E.E.E.E.E.E.E.E.W.W.W.W.W.W.W.W.W.W.W.W.W.W.W.W.W.W.W.W.W.W.W.W.W.W.W.W.W.W.W.W.W.W.W.W.W.",
"W.W.W.W.E.E.E.E.E.E.E.E.E.W.W.W.W.W.W.W.W.W.W.W.W.W.W.W.W.W.W.W.W.W.W.W.W.W.W.W.W.W.W.W.W.W.W.W.W.W.",
"W.W.W.E.E.E.E.E.E.E.E.E.E.W.W.W.W.W.W.W.W.W.W.W.W.W.W.W.W.W.W.W.W.. . W.W.W.W.W.W.W.W.W.W.W.W.W.W.W.",
"W.W.W.E.E.E.E.E.E.E.E.E.E.W.W.W.W.W.W.W.W.W.W.W.W.W.W.w w w w W.W.. . W.W.W.W.W.W.W.W.W.W.W.W.W.W.W.",
"W.W.E.E.E.E.E.E.E.E.E.E.E.W.W.W.W.W.W.W.W.W.W.W.W.w w w w w w w 0 f B C W.W.W.W.W.W.W.W.W.W.W.W.W.W.",
"W.W.E.E.E.E.E.E.E.E.E.E.C.W.W.W.W.W.W.W.W.W.W.W.8 9 w w w w w w w q z C N W.W.W.W.W.W.W.W.W.W.W.W.W.",
"W.W.E.E.E.E.E.E.E.E.E.R.j.W.W.W.W.W.W.W.W.W.W.8 6 6 w w w w w w w w q 4 N W.W.W.W.W.W.W.W.W.W.W.W.W.",
"W.E.E.E.E.E.E.E.E.E.E.R.k.W.W.W.W.W.W.W.W.W.w W ~ Q w w w w w w w w q d 4 W.W.W.W.W.W.W.W.W.W.W.W.W.",
"W.E.E.E.E.E.E.E.E.E.E.R.k.W.W.W.W.W.W.W.W.W.8 ' 2.*.^ w w w w w w w w w d W.W.W.W.W.W.W.W.W.W.W.W.W.",
"W.E.E.E.E.E.E.E.E.E.E.R.k.W.W.W.W.W.W.W.W.w 5 | v.3.` w w w w w w w w w w W.W.W.W.W.W.W.W.W.W.W.W.W.",
"W.E.E.E.E.E.E.E.E.E.E.U.k.W.W.W.W.W.W.W.W.w 6  .%.O < w w w w w w w w w w W.W.W.W.W.W.W.W.W.W.W.W.W.",
"W.E.E.E.E.E.E.E.E.E.Y.k.t.W.W.W.W.W.W.W.W.E 5  .g.8.m.O.~ w w w w w w q 3 W.W.W.W.W.W.W.W.W.W.W.W.W.",
"E.E.E.E.E.E.E.E.E.E.Y.u.t.t.W.W.W.W.W.W.W.E 5 | n.b.v./ w q w w w w q 3 W.W.W.W.W.W.W.W.W.W.W.W.W.W.",
"E.E.E.E.E.E.E.E.E.E.U.u.t.t.W.W.W.W.W.W.W.W.8 #.M.c.*.W ( ( ) n c v c B W.W.W.W.W.W.W.W.W.W.W.W.W.W.",
"E.E.E.E.E.E.E.E.E.E.R.u.t.t.W.W.W.W.W.W.W.W.W.W.W.W.W.g b X.&.{ H P V V W.W.W.W.W.W.W.W.W.W.W.W.W.W.",
"U.A.G.P.I.R.E.E.E.T.A.y.t.t.W.W.W.W.W.W.W.W.W.W.W.W.W.1 1 ;.6.+.F R K C N W.W.W.W.W.W.W.W.W.W.W.W.W.",
"L.k.l.V.V.I.E.E.T.S.e.t.t.t.W.W.W.W.W.W.W.W.W.W.W.W.1 1 1 { <.} B H p.H V W.W.W.W.W.W.W.W.W.W.W.W.W.",
"W.F.F.z.l.G.P.P.S.w.t.e.t.t.t.W.W.W.W.W.W.W.W.W.W.W.1 1 1 1 W.S m D q.x.G < , , W.W.W.W.W.W.W.W.W.W.",
"W.W.W.E.E.V.y.y.r.r.t.t.t.t.t.t.W.W.W.W.W.W.W.W.W.1 1 1 1 W.6.[ * e M H.4.h > , , , , W.W.W.W.W.W.W.",
"W.W.W.W.E.L.F.N.t.y.t.t.r.t.t.r.W.W.W.W.W.W.W.W.U 1 1 1 W.W._ ! y y l :.] a , , , , , , , W.W.W.W.W.",
"W.W.W.W.W.W.T.T.U.L.t.t.t.r.t.t.W.W.W.W.W.W.d.p.i.I 1 W.W., @ r i u i l s u * , , , , , , , W.W.W.W.",
"W.W.W.W.W.W.W.W.I.K.Z.Z.u.r.r.t.W.W.1 W.W.d.d.p.d.d.W., , +   . & i i y y i t r , , , , , , , W.W.W.",
"W.W.W.W.W.W.W.W.W.W.W.W.B.B.j.w.y.Y 1 1 X R d.d.d.W., , , X .   X & u u i u p r , , , , , , , , W.W.",
"W.W.W.W.W.W.W.W.W.W.W.W.W.W.B.k.e.9.1 O X U f.d.W.W.> # # X .   . + i u i i p & # , , , , , , , , W.",
"W.W.W.W.W.W.W.W.W.W.W.W.W.W.W.N.h.y.1 . . Y T W.W.W., X   . .   . $ u u - e p & o , , , , , , , , W.",
"W.W.W.W.W.W.W.W.W.W.W.W.W.W.W.W.W.x.1 X . L C 2 W.W.$ .       X # r t t % e y % o > , , , , , , , W.",
"W.W.W.W.W.W.W.W.W.W.W.W.W.W.W.W.W.W.1 W.W.1 1 W.W.W., @ @ X . # r t , , u i % .   o , , , , , , , , ",
"W.W.W.W.W.W.W.W.W.W.W.W.W.W.W.W.W.W.W.W.W.W.W.W.W.W.W._ ) : # , , , , , u i @ X X X > , , , , , , , ",
"W.W.W.W.W.W.W.W.W.W.W.W.W.W.W.W.W.W.W.W.W.W.W.W.W.W.W.<.1.] f , , W.W.u u * x ) k   X , , , , , , W.",
"W.W.W.W.W.W.W.W.W.W.W.W.W.W.W.W.W.W.W.W.W.W.W.W.W.W.W.1.5.<.#.W.W.W.W.W.W.W.&.>.o.k   W., , , , W.W.",
"W.W.W.W.W.W.W.W.W.W.W.W.W.W.W.W.W.W.W.W.W.W.W.W.W.W.W.5.5.+.W.W.W.W.W.W.W.W.6.5.<. .4 W.W.W.W.W.W.W.",
"W.W.W.W.W.W.W.W.W.W.W.W.W.W.W.W.W.W.W.W.W.W.W.W.W.W.W.W.@.A W.W.W.W.W.W.W.W.W.5.6.;.F i.W.W.W.W.W.W.",
"W.W.W.W.W.W.W.W.W.W.W.W.W.W.W.W.W.W.W.W.W.W.W.W.W.W.W.W.K K W.W.W.W.W.W.W.W.W.W.6.$.P p.W.W.W.W.W.W.",
"W.W.W.W.W.W.W.W.W.W.W.W.W.W.W.W.W.W.W.W.W.W.W.W.W.W.W.W.T p.W.W.W.W.W.W.W.W.W.W.W.W.p.T 0.W.W.W.W.W.",
"W.W.W.W.W.W.W.W.W.W.W.W.W.W.W.W.W.W.W.W.W.W.W.W.W.W.W.N N i.W.W.W.W.W.W.W.W.W.W.W.W.W.V N W.W.W.W.W.",
"W.W.W.W.W.W.W.W.W.W.W.W.W.W.W.W.W.W.W.W.W.W.W.W.W.W.W.W.W.W.W.W.W.W.W.W.W.W.W.W.W.W.W.W.W.W.W.W.W.W."
};
