/* XPM */
static char *result[] = {
/* columns rows colors chars-per-pixel */
"50 50 169 2 ",
"   c #0F001F",
".  c #381818",
"X  c #0F0021",
"o  c #130123",
"O  c #1C0324",
"+  c #180A24",
"@  c #1A102C",
"#  c #1F1130",
"$  c #2B0424",
"%  c #23032B",
"&  c #2D042B",
"*  c #270924",
"=  c #3D0726",
"-  c #390727",
";  c #381624",
":  c #2D0431",
">  c #320632",
",  c #3A0730",
"<  c #350936",
"1  c #311C32",
"2  c #26292C",
"3  c #2C2C2C",
"4  c #342D2A",
"5  c #3D2D28",
"6  c #2F2E31",
"7  c #312F34",
"8  c #303131",
"9  c #34383D",
"0  c #400605",
"q  c #5F190D",
"w  c #601A0D",
"e  c #691D0D",
"r  c #631E11",
"t  c #6E2616",
"y  c #6C271A",
"u  c #7B2E19",
"i  c #762C16",
"p  c #74301C",
"a  c #7D311A",
"s  c #400726",
"d  c #4F0A27",
"f  c #470827",
"g  c #510927",
"h  c #540B28",
"j  c #590C28",
"k  c #4D1A2F",
"l  c #512B29",
"z  c #573022",
"x  c #5D2D38",
"c  c #463F31",
"v  c #593D35",
"b  c #492B24",
"n  c #68222D",
"m  c #6A3425",
"M  c #692430",
"N  c #77392B",
"B  c #47433F",
"V  c #54413C",
"C  c #7D683D",
"Z  c #373A45",
"A  c #522A49",
"S  c #3F4B4E",
"D  c #3B4749",
"F  c #3E4C50",
"G  c #4C524C",
"H  c #474C52",
"J  c #405158",
"K  c #6D6E5C",
"L  c #524C64",
"P  c #4D5D61",
"I  c #575A6A",
"U  c #645B7E",
"Y  c #556063",
"T  c #5C696C",
"R  c #56656B",
"E  c #6B797E",
"W  c #697579",
"Q  c #646C78",
"!  c #81331A",
"~  c #8A3C1D",
"^  c #82372A",
"/  c #8C4119",
"(  c #95451A",
")  c #A4501E",
"_  c #8A4221",
"`  c #934827",
"'  c #8C593F",
"]  c #8A573E",
"[  c #A65726",
"{  c #A15932",
"}  c #9A6B3C",
"|  c #AD622B",
" . c #B36D32",
".. c #A67239",
"X. c #C17330",
"o. c #8F5C41",
"O. c #935D40",
"+. c #946143",
"@. c #897C51",
"#. c #AA724F",
"$. c #A26948",
"%. c #C7883E",
"&. c #978452",
"*. c #AF8D48",
"=. c #B08345",
"-. c #BA994F",
";. c #B79C5A",
":. c #D79A47",
">. c #E79848",
",. c #C6A456",
"<. c #EAB04F",
"1. c #E0AC58",
"2. c #F6A953",
"3. c #EBB351",
"4. c #F2BD55",
"5. c #D1AD7E",
"6. c #EABB62",
"7. c #F3C158",
"8. c #F9C559",
"9. c #F8C357",
"0. c #FFD15C",
"q. c #4A688A",
"w. c #6E7D82",
"e. c #747984",
"r. c #7C6EA3",
"t. c #7F70A7",
"y. c #8071A7",
"u. c #8173A8",
"i. c #897DAE",
"p. c #728083",
"a. c #7D8D92",
"s. c #7F9195",
"d. c #819296",
"f. c #8D83B1",
"g. c #9287B4",
"h. c #958CB7",
"j. c #9893B8",
"k. c #949BA4",
"l. c #95A1A0",
"z. c #CBB189",
"x. c #CEBF9A",
"c. c #DDCA9F",
"v. c #FFDD9A",
"b. c #F6DAA3",
"n. c #FFE7A9",
"m. c #A19EC1",
"M. c #A4A2C3",
"N. c #ABAAC8",
"B. c #B3B5CE",
"V. c #BFBED5",
"C. c #B5B9D0",
"Z. c #C4BED6",
"A. c #BEC5D7",
"S. c #C4CDDC",
"D. c #C6C5D9",
"F. c #D2CCDF",
"G. c #C7D0DE",
"H. c #C8D1DF",
"J. c #DBD9C2",
"K. c #EEE6C1",
"L. c #D4CFE0",
"P. c #CED5E2",
"I. c #D8D9E6",
"U. c #E9E7EF",
"Y. c #F3F4F6",
"T. c #F6F7F8",
"R. c #FCFCFC",
"E. c #F7F8F9",
"W. c None",
/* pixels */
"W.W.W.W.W.W.W.W.W.W.W.W.W.W.W.W.W.W.W.W.W.W.W.W.W.W.W.W.W.W.W.W.W.W.W.W.W.W.W.W.W.W.W.W.W.W.W.W.W.W.",
"W.W.W.W.W.W.W.W.W.W.W.W.W.W.W.W.W.W.W.W.W.W.W.W.W.W.W.W.W.W.W.W.W.W.W.W.W.W.W.W.W.W.W.W.W.W.W.W.W.W.",
"W.W.W.W.W.W.W.W.W.W.W.W.W.W.W.W.W.W.W.W.W.W.W.W.W.W.W.W.W.W.W.W.W.W.W.W.W.W.W.W.W.W.W.W.W.W.W.W.W.W.",
"W.W.W.W.W.W.W.W.W.W.W.W.W.W.W.W.W.W.W.W.W.W.W.W.W.W.W.W.W.W.W.W.W.W.W.W.W.W.W.W.W.W.W.W.W.W.W.W.W.W.",
"W.W.W.W.W.W.W.W.W.W.W.W.W.W.W.W.W.W.W.W.W.W.W.W.W.W.W.W.W.W.W.W.W.W.W.W.W.W.W.W.W.W.W.W.W.W.W.W.W.W.",
"W.W.W.W.W.W.W.W.W.W.W.W.W.W.W.W.W.W.W.W.R.R.R.R.R.R.R.W.W.W.W.W.W.W.W.W.W.W.W.W.W.W.W.W.W.W.W.W.W.W.",
"W.W.W.W.W.W.W.W.W.W.W.W.W.W.W.W.W.W.W.R.R.R.R.R.R.R.R.R.R.R.W.W.W.W.W.R.W.W.W.W.W.W.W.W.W.W.W.W.W.W.",
"W.W.W.W.W.W.W.W.W.W.W.W.W.W.W.W.W.R.W.W.W.W.W.W.W.W.W.W.W.W.W.W.W.W.W.W.R.R.W.W.W.W.W.W.W.W.W.W.W.W.",
"W.W.W.W.W.W.W.W.W.W.W.W.W.W.R.W.W.W.W.W.W.W.W.W.W.W.W.W.W.W.W.W.W.W.W.W.W.W.W.W.W.W.W.W.W.W.W.W.W.W.",
"W.W.W.W.W.W.W.W.W.W.W.W.R.R.W.W.W.W.W.W.W.W.W.W.W.W.W.W.W.W.W.W.W.W.W.W.W.W.W.W.W.W.R.R.R.W.W.W.W.W.",
"W.W.W.W.W.W.W.W.W.W.W.R.R.W.W.W.W.W.W.W.W.W.W.W.W.W.W.W.W.W.W.W.W.W.W.W.W.W.W.W.W.W.W.W.R.R.W.W.W.W.",
"W.W.W.W.W.W.W.W.W.W.R.R.W.W.W.W.W.W.W.W.W.W.W.W.W.W.W.W.W.W.W.W.W.W.W.W.W.W.W.W.W.W.W.W.W.W.W.W.W.W.",
"W.W.W.W.W.W.W.W.W.R.R.W.W.W.W.W.W.W.W.W.W.W.W.W.W.W.W.W.W.W.W.W.W.W.W.W.W.W.W.W.W.W.W.W.W.W.W.W.W.W.",
"W.W.W.W.W.W.W.W.R.R.R.W.W.W.W.W.W.W.W.W.W.W.W.W.W.W.W.W.W.W.W.W.W.W.W.W.W.W.W.W.W.W.W.W.W.W.W.W.W.W.",
"W.W.W.W.W.W.W.R.R.R.R.W.R.W.W.W.W.W.W.W.W.W.W.W.W.W.W.W.W.W.W.W.W.W.W.W.W.W.W.W.W.W.W.W.W.W.W.W.W.W.",
"W.W.W.W.W.W.W.R.R.R.R.W.W.W.W.W.W.W.W.W.W.W.W.W.W.W.W.W.W.W.W.W.W.W.W.W.W.W.W.W.W.W.W.W.W.W.W.W.W.W.",
"W.W.W.W.W.W.R.R.R.R.R.W.W.W.W.W.W.W.W.W.W.W.W.W.W.W.W.W.W.W.W.W.W.W.W.o o W.W.W.W.W.W.W.W.W.W.W.W.W.",
"W.W.W.W.W.W.R.R.R.R.W.W.W.W.W.W.W.W.W.W.W.W.W.W.W.W.W.W.W.W.W.W.W.W.W.o o W.W.W.W.W.W.W.W.W.W.W.W.W.",
"W.W.W.W.W.R.R.R.R.R.W.W.W.W.W.W.W.W.W.W.W.W.W.W.W.W.W.a a a a a W.W.@ Z Z W.W.W.W.W.W.W.W.W.W.W.W.W.",
"W.W.W.W.W.R.R.R.R.R.W.W.W.W.W.W.W.W.W.W.W.W.W.W.W.W.! a a a a a a y b H F F W.W.W.W.W.W.W.W.W.W.W.W.",
"W.W.W.W.R.R.R.R.R.R.W.W.W.W.W.W.W.W.W.W.W.W.W.W.W.t r u a a a a a a a v 9 S W.W.W.W.W.W.W.W.W.W.W.W.",
"W.W.W.W.R.R.R.R.R.R.W.W.W.W.W.W.W.W.W.W.W.W.W.W.t i ( [ a u a a a a a p 4 9 W.W.W.W.W.W.W.W.W.W.W.W.",
"W.W.W.R.R.R.R.R.R.W.W.W.W.W.W.W.W.W.W.W.W.W.W.! r _ 2.>.[ ! a a a a a p 3 3 W.W.W.W.W.W.W.W.W.W.W.W.",
"W.W.W.R.R.R.R.R.R.W.W.W.W.W.W.W.W.W.W.W.W.W.W.a q ] v.5.X.~ u a a a ! p 5 3 W.W.W.W.W.W.W.W.W.W.W.W.",
"W.W.W.R.R.R.R.R.R.W.W.W.W.W.W.W.W.W.W.W.W.W.a ! q o.z.@ 1 u ! u a a a a p 5 W.W.W.W.W.W.W.W.W.W.W.W.",
"W.W.R.R.R.R.R.R.R.W.W.R.W.W.W.W.W.W.W.W.W.W.a a w ' c.q.J.:.( u a a a a a 4 W.W.W.W.W.W.W.W.W.W.W.W.",
"W.W.R.R.R.R.R.R.R.R.R.R.W.W.W.W.W.W.W.W.W.W.a ! q ' b.c.b.{ ! u a a a a a W.W.W.W.W.W.W.W.W.W.W.W.W.",
"W.R.R.R.R.R.R.R.R.R.R.W.W.W.W.W.W.W.W.W.W.W.W.a t $.n.v.2.~ u ` ~ u a p V W.W.W.W.W.W.W.W.W.W.W.W.W.",
"R.R.R.R.R.R.R.R.R.R.R.W.W.W.W.W.W.W.W.W.W.W.W.W.u ` #.O.~ z b ..%...v v S W.W.W.W.W.W.W.W.W.W.W.W.W.",
"R.R.R.R.R.R.R.R.R.U.Z.W.W.W.W.W.W.W.W.W.W.W.W.W.W.u e 0 . 3 2 *.0.-.J R S S W.W.W.W.W.W.W.W.W.W.W.W.",
"R.R.R.R.R.R.R.R.R.L.r.W.W.W.W.W.W.W.W.W.W.W.W.W.W.W.W.W.3 3 3 C -.@.P a.Y F W.W.W.W.W.W.W.W.W.W.W.W.",
"R.R.R.R.R.R.R.R.R.L.t.W.W.W.W.W.W.W.W.W.W.W.W.W.W.W.W.W.3 3 3 c H Z H e.l.K W.W.W.W.W.W.W.W.W.W.W.W.",
"Y.T.E.R.R.R.R.R.E.D.y.u.W.W.W.W.W.W.W.W.W.W.W.W.W.W.W.3 3 3 2 *.+., d A K.6.M : < > W.W.W.W.W.W.W.W.",
"m.S.P.T.Y.R.R.R.Z.u.y.u.u.W.W.W.W.W.W.W.W.W.W.W.W.W.E 8 3 3 W.| ^ h g n 1. .k : > > > W.W.W.W.W.W.W.",
"M.i.i.g.h.D.P.N.i.y.y.u.y.u.W.W.W.W.W.W.W.W.W.W.W.a.a.W 8 W.> * s j h j n * O o % < > > > W.W.W.W.W.",
"C.Z.I.I.B.h.f.u.y.y.y.u.u.u.u.u.W.W.W.3 W.W.W.W.a.a.a.a.W.< O o - j h j h o X   O < > > > > > > > W.",
"W.W.W.W.W.N.D.F.V.N.m.t.y.r.u.y.j.I.k.2 3 W.W.s.s.a.s.W.< % o X - h h h h s O   % < > > > > > > > > ",
"W.W.W.W.W.W.E.R.W.G.A.M.M.M.i.r.g.M.j.L 8 + W.Q d.d.W.& % o o X * s h h j j = O o % > > > > > > > > ",
"W.W.W.W.W.W.W.W.W.W.S.G.S.P.m.j.f.t.t.r.8 +   I p.T W.> o X o o   $ h h = h j = $ & < : > > > > > > ",
"W.W.W.W.W.W.W.W.W.W.W.W.W.W.S.P.M.t.r.U 6 + o I Y W.W.> o X X o X & h d $ = h j h = : > > > > > > W.",
"W.W.W.W.W.W.W.W.W.W.W.W.W.W.W.W.W.W.W.3 3 W.W.W.W.W.W.> * * O o % > , h h % = d $ o O : < > > > W.W.",
"W.W.W.W.W.W.W.W.W.W.W.W.W.W.W.W.W.W.W.3 W.W.W.W.W.W.W.W.| | ; % < > , h h < O + * o O > > > > W.W.W.",
"W.W.W.W.W.W.W.W.W.W.W.W.W.W.W.W.W.W.W.W.W.W.W.W.W.W.W.W.4.3. .W.W.W.> , h > > N [ m X o W.W.W.W.W.W.",
"W.W.W.W.W.W.W.W.W.W.W.W.W.W.W.W.W.W.W.W.W.W.W.W.W.W.W.W.7.7.3.W.W.W.W.W., > W.:.3.%.m X W.W.W.W.W.W.",
"W.W.W.W.W.W.W.W.W.W.W.W.W.W.W.W.W.W.W.W.W.W.W.W.W.W.W.W.4.9.&.W.W.W.W.W.W.W.W.8.9.4.#.Z W.W.W.W.W.W.",
"W.W.W.W.W.W.W.W.W.W.W.W.W.W.W.W.W.W.W.W.W.W.W.W.W.W.W.W.W.&.G W.W.W.W.W.W.W.W.W.7.9.,.F D W.W.W.W.W.",
"W.W.W.W.W.W.W.W.W.W.W.W.W.W.W.W.W.W.W.W.W.W.W.W.W.W.W.W.W.R T W.W.W.W.W.W.W.W.W.W.9.;.T T W.W.W.W.W.",
"W.W.W.W.W.W.W.W.W.W.W.W.W.W.W.W.W.W.W.W.W.W.W.W.W.W.W.W.W.E a.W.W.W.W.W.W.W.W.W.W.W.W.a.w.w.W.W.W.W.",
"W.W.W.W.W.W.W.W.W.W.W.W.W.W.W.W.W.W.W.W.W.W.W.W.W.W.W.W.S F w.W.W.W.W.W.W.W.W.W.W.W.W.W.S S W.W.W.W.",
"W.W.W.W.W.W.W.W.W.W.W.W.W.W.W.W.W.W.W.W.W.W.W.W.W.W.W.W.W.W.W.W.W.W.W.W.W.W.W.W.W.W.W.W.W.W.W.W.W.W."
};
