/* XPM */
static char *result[] = {
/* columns rows colors chars-per-pixel */
"50 50 166 2 ",
"   c #170C1F",
".  c #0D0021",
"X  c #130024",
"o  c #1B0423",
"O  c #1B0229",
"+  c #190E22",
"@  c #240324",
"#  c #290424",
"$  c #24022B",
"%  c #29032E",
"&  c #2A0C25",
"*  c #3C072F",
"=  c #3E082F",
"-  c #390B26",
";  c #201827",
":  c #351325",
">  c #381A27",
",  c #2C0132",
"<  c #320632",
"1  c #3B0730",
"2  c #3C0D32",
"3  c #3C1034",
"4  c #2B2B2C",
"5  c #272629",
"6  c #372A28",
"7  c #2F2F31",
"8  c #2A2336",
"9  c #2F3539",
"0  c #323738",
"q  c #383737",
"w  c #4B0E09",
"e  c #4A0904",
"r  c #58170D",
"t  c #621F0E",
"y  c #62200F",
"u  c #6D2515",
"i  c #61251E",
"p  c #732A17",
"a  c #7A2E18",
"s  c #762D1A",
"d  c #7F3017",
"f  c #7D311A",
"g  c #4E0729",
"h  c #4C0A2B",
"j  c #550B28",
"k  c #590C28",
"l  c #530727",
"z  c #4F142F",
"x  c #5D1028",
"c  c #541628",
"v  c #471935",
"b  c #422D27",
"n  c #492923",
"m  c #5F3127",
"M  c #523124",
"N  c #432B3A",
"B  c #493530",
"V  c #573F38",
"C  c #622F20",
"Z  c #762C29",
"A  c #6C302D",
"S  c #7E322A",
"D  c #642C30",
"F  c #673733",
"G  c #703D31",
"H  c #584837",
"J  c #7C502E",
"K  c #684835",
"L  c #363848",
"P  c #482648",
"I  c #423F4C",
"U  c #473241",
"Y  c #3E4B4E",
"T  c #3E474C",
"R  c #3D4C51",
"E  c #424C4D",
"W  c #484D4F",
"Q  c #5C4545",
"!  c #565A4F",
"~  c #414D50",
"^  c #444256",
"/  c #495154",
"(  c #485558",
")  c #44555E",
"_  c #52595D",
"`  c #6F4842",
"'  c #644A4A",
"]  c #746A4D",
"[  c #7A704F",
"{  c #4E5D62",
"}  c #515E62",
"|  c #495870",
" . c #536064",
".. c #5C6C74",
"X. c #6A797D",
"o. c #81341B",
"O. c #99481F",
"+. c #96471F",
"@. c #82452E",
"#. c #9D552C",
"$. c #864735",
"%. c #9E5531",
"&. c #A75F2F",
"*. c #B4652B",
"=. c #BF712F",
"-. c #B97E3D",
";. c #D87F2D",
":. c #8D5C42",
">. c #9D764B",
",. c #DD822D",
"<. c #CA853A",
"1. c #D98231",
"2. c #958556",
"3. c #9C8954",
"4. c #A28749",
"5. c #AFA277",
"6. c #CD8D40",
"7. c #D79445",
"8. c #DAA14C",
"9. c #D9A752",
"0. c #D5A250",
"q. c #E1A74C",
"w. c #E3B958",
"e. c #F2BD55",
"r. c #E3BA71",
"t. c #FCC759",
"y. c #F7C358",
"u. c #E9CB7F",
"i. c #6F7E82",
"p. c #8173A8",
"a. c #897EAF",
"s. c #8579AB",
"d. c #79898E",
"f. c #78858C",
"g. c #7D8D93",
"h. c #7F9095",
"j. c #828F90",
"k. c #819196",
"l. c #829398",
"z. c #8D9A92",
"x. c #8B81B0",
"c. c #998FB9",
"v. c #9D95BC",
"b. c #9C99BD",
"n. c #A29FC1",
"m. c #A5A2C3",
"M. c #ADA5C6",
"N. c #AAA8C7",
"B. c #B1B4CE",
"V. c #B9B2CF",
"C. c #BCB7D2",
"Z. c #B8BDD3",
"A. c #C3BCD5",
"S. c #BCC2D5",
"D. c #D3D3C2",
"F. c #C2C7D9",
"G. c #C2CADA",
"H. c #C4C0D7",
"J. c #CBD4E1",
"K. c #D9DCE7",
"L. c #E4E9EF",
"P. c #ECEEF3",
"I. c #EFF1F5",
"U. c #FCFCFC",
"Y. c #F7FAFA",
"T. c None",
/* pixels */
"T.T.T.T.T.T.T.T.T.T.T.T.T.T.T.T.T.T.T.T.T.T.T.T.T.T.T.T.T.T.T.T.T.T.T.T.T.T.T.T.T.T.T.T.T.T.T.T.T.T.",
"T.T.T.T.T.T.T.T.T.T.T.T.T.T.T.T.T.T.T.T.T.T.T.T.T.T.T.T.T.T.T.T.T.T.T.T.T.T.T.T.T.T.T.T.T.T.T.T.T.T.",
"T.T.T.T.T.T.T.T.T.T.T.T.T.T.T.T.T.T.T.T.T.T.T.T.T.T.T.T.T.T.T.T.T.T.T.T.T.T.T.T.T.T.T.T.T.T.T.T.T.T.",
"T.T.T.T.T.T.T.T.T.T.T.T.T.T.T.T.T.T.T.T.T.T.T.T.T.T.T.T.T.T.T.T.T.T.T.T.T.T.T.T.T.T.T.T.T.T.T.T.T.T.",
"T.T.T.T.T.T.T.T.T.T.T.T.T.T.T.T.T.T.T.T.U.T.T.T.T.T.T.T.T.T.T.T.T.T.T.T.T.T.T.T.T.T.T.T.T.T.T.T.T.T.",
"T.T.T.T.T.T.T.T.T.T.T.T.T.T.T.T.T.T.T.U.U.T.T.T.T.T.T.T.T.T.T.T.T.T.U.T.T.T.T.T.T.T.T.T.T.T.T.T.T.T.",
"T.T.T.T.T.T.T.T.T.T.T.T.T.T.T.T.T.T.T.T.T.T.T.T.T.T.T.T.T.T.T.T.T.T.T.T.T.T.T.T.T.T.T.T.T.T.T.T.T.T.",
"T.T.T.T.T.T.T.T.T.T.T.T.T.T.T.T.U.T.T.T.T.T.T.T.T.T.T.T.T.T.T.T.T.T.T.T.T.T.T.T.T.T.T.T.T.T.T.T.T.T.",
"T.T.T.T.T.T.T.T.T.T.T.T.T.T.T.T.T.T.T.T.T.T.T.T.T.T.T.T.T.T.T.T.T.T.T.T.T.T.T.T.T.T.U.U.T.T.T.T.T.T.",
"T.T.T.T.T.T.T.T.T.T.T.T.T.T.T.T.T.T.T.T.T.T.T.T.T.T.T.T.T.T.T.T.T.T.T.T.T.T.T.T.T.T.T.T.T.T.T.T.T.T.",
"T.T.T.T.T.T.T.T.T.T.T.T.T.T.T.T.T.T.T.T.T.T.T.T.T.T.T.T.T.T.T.T.T.T.T.T.T.T.T.T.T.T.T.T.T.T.T.T.T.T.",
"T.T.T.T.T.T.T.T.T.U.T.T.T.T.T.T.T.T.T.T.T.T.T.T.T.T.T.T.T.T.T.T.T.T.T.T.T.T.T.T.T.T.T.T.T.T.T.T.T.T.",
"T.T.T.T.T.T.T.T.U.U.T.T.T.T.T.T.T.T.T.T.T.T.T.T.T.T.T.T.T.T.T.T.T.T.T.T.T.T.T.T.T.T.T.T.T.T.T.T.T.T.",
"T.T.T.T.T.T.T.T.U.U.T.T.T.T.T.T.T.T.T.T.T.T.T.T.T.T.T.T.T.T.T.T.T.T.T.T.T.T.T.T.T.T.T.T.T.T.T.T.T.T.",
"T.T.T.T.T.T.T.U.U.U.T.T.T.T.T.T.T.T.T.T.T.T.T.T.T.T.T.T.T.T.T.T.T.T.T.T.T.T.T.T.T.T.T.T.T.T.T.T.T.T.",
"T.T.T.T.T.T.U.U.U.T.T.T.T.T.T.T.T.T.T.T.T.T.T.T.T.T.T.T.T.T.T.T.T.T.T.T.T.T.T.T.T.T.T.T.T.T.T.T.T.T.",
"T.T.T.T.T.U.U.U.T.T.T.T.T.T.T.T.T.T.T.T.T.T.T.T.T.T.T.T.T.T.T.T.T.T.T.T.T.T.T.T.T.T.T.T.T.T.T.T.T.T.",
"T.T.T.T.T.U.U.U.T.T.T.T.T.T.T.T.T.T.T.T.T.T.T.T.T.T.T.T.T.T.T.T.T.T.T.T.T.T.T.T.T.T.T.T.T.T.T.T.T.T.",
"T.T.T.T.T.U.U.T.T.T.T.T.T.T.T.T.T.T.T.T.T.T.T.T.T.T.T.T.T.T.T.T.T.T.T.T.T.T.T.T.T.T.T.T.T.T.T.T.T.T.",
"T.T.T.T.T.U.T.T.T.T.T.T.T.T.T.T.T.T.T.T.T.T.T.T.T.T.T.f f f f f T.T.T.T.T.T.T.T.T.T.T.T.T.T.T.T.T.T.",
"T.T.T.T.U.T.T.T.T.T.T.T.T.T.T.T.T.T.T.T.T.T.T.T.T.T.f f f f f f f T.T.T.T.T.T.T.T.T.T.T.T.T.T.T.T.T.",
"T.T.T.T.T.T.T.T.T.T.T.T.T.T.T.T.T.T.T.T.T.T.T.T.T.T.f f f f f f f f T.T.T.T.T.T.T.T.T.T.T.T.T.T.T.T.",
"T.T.T.T.T.T.T.T.T.T.T.T.T.T.T.T.T.T.T.T.T.T.T.T.T.s O.o.f f f f f f f T.T.T.T.T.T.T.T.T.T.T.T.T.T.T.",
"T.T.T.U.T.T.T.T.T.T.T.T.T.T.T.T.T.T.T.T.T.T.T.T.p y ,.f s f f f f f f f T.T.T.T.T.T.T.T.T.T.T.T.T.T.",
"T.T.T.T.T.T.T.T.T.T.T.T.T.T.T.T.T.T.T.T.T.T.T.T.u y ;.> i f f f f f f f T.T.T.T.T.T.T.T.T.T.T.T.T.T.",
"T.T.T.T.T.T.T.T.T.T.T.T.T.T.T.T.T.T.T.T.T.T.T.u w t 1.| F f f f a o.f f T.T.T.T.T.T.T.T.T.T.T.T.T.T.",
"T.T.T.T.T.T.T.T.T.T.T.T.T.T.T.T.T.T.T.T.T.T.T.u w t ,.@.f f f f a a f f T.T.T.T.T.T.T.T.T.T.T.T.T.T.",
"T.T.T.T.T.T.T.T.T.T.T.T.T.T.T.T.T.T.T.T.T.T.T.u w r +.M b b C f a a o.T.T.T.T.T.T.T.T.T.T.T.T.T.T.T.",
"T.T.T.T.T.T.T.T.U.T.T.T.T.T.T.T.T.T.T.T.T.T.o.u e w n 4 4 4 6 J 6.-.H E T.T.T.T.T.T.T.T.T.T.T.T.T.T.",
"T.T.T.T.T.T.T.T.T.T.T.T.T.T.T.T.T.T.T.T.T.T.T.G ' Q 4 5 4 4 5 H 4.2.~ Y T.T.T.T.T.T.T.T.T.T.T.T.T.T.",
"T.T.T.T.T.T.T.T.T.T.T.T.T.T.T.T.T.T.T.T.T.T.T.T.l.g.W W B q 9 9 9 R  .~ T.T.T.T.T.T.T.T.T.T.T.T.T.T.",
"T.T.T.T.T.T.T.T.T.T.T.T.T.T.T.T.T.T.T.T.4 4 T.T.g.g.k.g.J H R R Y ( d. .~ T.T.T.T.T.T.T.T.T.T.T.T.T.",
"T.T.T.U.T.T.T.T.T.T.T.T.T.T.T.T.T.T.T.T.7 5 _ k.g.g.k.T.T.T.R R Y ( d.h. .T.T.T.T.T.T.T.T.T.T.T.T.T.",
"T.T.T.T.T.T.T.T.U.T.T.T.T.T.T.F.F.Z.s.p.I + ^ g.d.g.T.T.T.T.T.W Y / f.k.j. .T.T.T.T.T.T.T.T.T.T.T.T.",
"T.T.T.T.T.T.T.U.U.T.T.G.P.U.A.a.x.a.p.p.I + O 8 q T.T.T.T.T.w.>.2 z P D.u.` T.T.T.T.T.T.T.T.T.T.T.T.",
"T.T.T.U.T.T.T.I.K.U.U.b.v.v.N.B.B.B.T.T.0 5 ; T.T.T.T.T.T.T.$.#.g j c r.7.D , < < T.T.T.T.T.T.T.T.T.",
"T.T.U.U.T.T.K.F.c.M.M.N.A.M.T.T.T.T.T.T.4 4 T.T.T.T.T.T.T.$ : c j j x $.S - O $ < < T.T.T.T.T.T.T.T.",
"T.T.U.U.U.C.b.M.C.C.n.S.Y.T.T.T.T.T.T.T.T.T.T.T.T.T.T.T.$ O . # k j j l l # . O < < < T.< < < T.T.T.",
"T.T.U.U.K.M.v.A.U.U.J.T.T.T.T.T.T.T.T.T.T.T.T.T.T.T.T.$ X . . # k j j j k # . X , < < < < < < < T.T.",
"T.T.U.U.v.m.L.T.T.T.T.T.T.T.T.T.T.T.T.T.T.T.T.T.T.T.< > > @ . # l j j j k - @ @ @ % < < < < < T.T.T.",
"T.T.T.T.T.T.T.T.T.T.T.T.T.T.T.T.T.T.T.T.T.T.T.T.T.< 2 &.=.C o O 1 j j j j j k k c & % < < < T.T.T.T.",
"T.T.T.T.T.T.T.T.T.T.T.T.T.T.T.T.T.T.T.T.T.T.T.T.T.< 3 0.e.<.A , 1 j j < h j g Z *.#.v < < T.T.T.T.T.",
"T.T.T.T.T.T.T.T.T.T.T.T.T.T.T.T.T.T.T.T.T.T.T.T.< < 3 9.y.e.:., < 1 j j = 1 O K e.q.#.3 < T.T.T.T.T.",
"T.T.T.T.T.T.T.T.T.T.T.T.T.T.T.T.T.T.T.T.T.T.T.T.T.< 3 9.t.3.U , < < 1 j l 1 O K t.e.8.v T.T.T.T.T.T.",
"T.T.T.T.T.T.T.T.T.T.T.T.T.T.T.T.T.T.T.T.T.T.T.T.T.T.T.] [ ! L < < < < 1 h < % N 2.t.e.T.T.T.T.T.T.T.",
"T.T.T.T.T.T.T.T.T.T.T.T.T.T.T.T.T.T.T.T.T.T.T.T.T.T.T.....{ T.T.< < < < < < < T.! 2.5.z.T.T.T.T.T.T.",
"T.T.T.T.T.T.T.T.T.T.T.T.T.T.T.T.T.T.T.T.T.T.T.T.T.T.T.l.k.T.T.T.T.< < < < < T.T.T.) g.h.T.T.T.T.T.T.",
"T.T.T.T.T.T.T.T.T.T.T.T.T.T.T.T.T.T.T.T.T.T.T.T.T.T.T.i.d.T.T.T.T.T.T.T.T.T.T.T.T.T.X.X.T.T.T.T.T.T.",
"T.T.T.T.T.T.T.T.T.T.T.T.T.T.T.T.T.T.T.T.T.T.T.T.T.T.~ E i.T.T.T.T.T.T.T.T.T.T.T.T.T.Y Y T.T.T.T.T.T.",
"T.T.T.T.T.T.T.T.T.T.T.T.T.T.T.T.T.T.T.T.T.T.T.T.T.T.T.T.T.T.T.T.T.T.T.T.T.T.T.T.T.T.T.T.T.T.T.T.T.T."
};
