/* XPM */
static char *result[] = {
/* columns rows colors chars-per-pixel */
"50 50 156 2 ",
"   c #0E0022",
".  c #130123",
"X  c #1C0223",
"o  c #1D012A",
"O  c #1A0E24",
"+  c #220323",
"@  c #2B0524",
"#  c #290C24",
"$  c #23032B",
"%  c #2A032E",
"&  c #3A0726",
"*  c #320F27",
"=  c #37052A",
"-  c #3B1822",
";  c #3C1725",
":  c #2B0131",
">  c #320632",
",  c #3A0730",
"<  c #3A0C31",
"1  c #241933",
"2  c #242027",
"3  c #282628",
"4  c #2C2C2C",
"5  c #332C2B",
"6  c #382D29",
"7  c #352F3E",
"8  c #3C3630",
"9  c #34373A",
"0  c #470A08",
"q  c #4E0F0B",
"w  c #59170E",
"e  c #5A180E",
"r  c #54130D",
"t  c #4C171A",
"y  c #621E11",
"u  c #47251F",
"i  c #672213",
"p  c #752A16",
"a  c #6C301E",
"s  c #74311C",
"d  c #7D311A",
"f  c #4A092B",
"g  c #550B28",
"h  c #590C28",
"j  c #540927",
"k  c #4F1A2E",
"l  c #4B102D",
"z  c #5D152C",
"x  c #491C37",
"c  c #431436",
"v  c #671B29",
"b  c #4C2325",
"n  c #4E2E24",
"m  c #41273D",
"M  c #632F20",
"N  c #6A222D",
"B  c #722928",
"V  c #73372F",
"C  c #7A452A",
"Z  c #704239",
"A  c #7A483D",
"S  c #292243",
"D  c #352D40",
"F  c #373E40",
"G  c #3C3B47",
"H  c #353044",
"J  c #423D46",
"K  c #394042",
"L  c #3D4A4D",
"P  c #3E4D53",
"I  c #42434E",
"U  c #4B534F",
"Y  c #57564E",
"T  c #5C5B4D",
"R  c #414E51",
"E  c #445154",
"W  c #4B5A5D",
"Q  c #445258",
"!  c #5C5D5D",
"~  c #6A5D5D",
"^  c #755B55",
"/  c #786F4F",
"(  c #7A7151",
")  c #576467",
"_  c #596165",
"`  c #59676A",
"'  c #5E696C",
"]  c #5C6C73",
"[  c #576A75",
"{  c #606A6D",
"}  c #7E736F",
"|  c #636D71",
" . c #6B7A7E",
".. c #627074",
"X. c #7E7370",
"o. c #8A3F19",
"O. c #9B4E1D",
"+. c #A04E1A",
"@. c #A3521C",
"#. c #894A2B",
"$. c #91442A",
"%. c #A65420",
"&. c #9F693D",
"*. c #B3672D",
"=. c #BC6D2C",
"-. c #C06A27",
";. c #C27835",
":. c #9D7642",
">. c #8C7F53",
",. c #AA7948",
"<. c #EF8E2F",
"1. c #9B8651",
"2. c #BC884A",
"3. c #C0874B",
"4. c #DA9C45",
"5. c #C2A055",
"6. c #D7A457",
"7. c #DFAA50",
"8. c #E2AF53",
"9. c #E4B255",
"0. c #F1BD56",
"q. c #F5C157",
"w. c #F9C558",
"e. c #F3CA73",
"r. c #6E638D",
"t. c #717D82",
"y. c #7A6D9E",
"u. c #8173A7",
"i. c #887BAE",
"p. c #76858A",
"a. c #7F8688",
"s. c #7A898E",
"d. c #7F8F94",
"f. c #7F9197",
"g. c #7F9298",
"h. c #819196",
"j. c #829499",
"k. c #8D9999",
"l. c #9CA192",
"z. c #9994BB",
"x. c #E0D7BB",
"c. c #AAA6C6",
"v. c #A9A8C7",
"b. c #AFAECB",
"n. c #A7A2C4",
"m. c #B7B1CE",
"M. c #B7BBD2",
"N. c #C1BBD4",
"B. c #CDCBDD",
"V. c #C3C9DA",
"C. c #C6D0DE",
"Z. c #CCD4E1",
"A. c #DDE1EA",
"S. c #E1E5EC",
"D. c #FDFDFD",
"F. c None",
/* pixels */
"F.F.F.F.F.F.F.F.F.F.F.F.F.F.F.F.F.F.F.F.F.F.F.F.F.F.F.F.F.F.F.F.F.F.F.F.F.F.F.F.F.F.F.F.F.F.F.F.F.F.",
"F.F.F.F.F.F.F.F.F.F.F.F.F.F.F.F.F.F.F.F.F.F.F.F.F.F.F.F.F.F.F.F.F.F.F.F.F.F.F.F.F.F.F.F.F.F.F.F.F.F.",
"F.F.F.F.F.F.F.F.F.F.F.F.F.F.F.F.F.F.F.F.F.F.F.F.F.F.F.F.F.F.F.F.F.F.F.F.F.F.F.F.F.F.F.F.F.F.F.F.F.F.",
"F.F.F.F.F.F.F.F.F.F.F.F.F.F.F.F.F.F.F.F.F.F.F.F.F.F.F.F.F.F.F.F.F.F.F.F.F.F.F.F.F.F.F.F.F.F.F.F.F.F.",
"F.F.F.F.F.F.F.F.F.F.F.F.F.F.F.F.F.F.F.F.F.F.F.F.F.F.F.F.F.F.F.F.F.F.F.F.F.F.F.F.F.F.F.F.F.F.F.F.F.F.",
"F.F.F.F.F.F.F.F.F.F.F.F.F.F.F.F.F.F.F.F.F.F.F.F.F.F.F.F.F.F.F.F.F.F.F.F.F.F.F.F.F.F.F.F.F.F.F.F.F.F.",
"F.F.F.F.F.F.F.F.F.F.F.F.F.F.F.F.F.F.F.F.F.F.F.F.F.F.F.F.F.F.F.F.F.F.F.F.F.F.F.F.F.F.F.F.F.F.F.F.F.F.",
"F.F.F.F.F.F.F.F.F.F.F.F.F.F.F.F.F.F.F.F.F.F.F.F.F.F.F.F.F.F.F.F.F.F.F.F.F.F.F.F.F.F.F.F.F.F.F.F.F.F.",
"F.F.F.F.F.F.F.F.F.F.F.F.F.F.F.F.F.F.F.F.F.F.F.F.F.F.F.F.F.F.F.F.F.F.F.F.F.F.F.F.F.F.F.F.F.F.F.F.F.F.",
"F.F.F.F.F.F.F.F.F.F.F.F.F.F.F.F.F.F.F.F.F.F.F.F.F.F.F.F.F.F.F.F.F.F.F.F.F.F.F.F.F.F.F.F.F.F.F.F.F.F.",
"F.F.F.F.F.F.F.F.F.F.F.F.F.F.F.F.F.F.F.F.F.F.F.F.F.F.F.F.F.F.F.F.F.F.F.F.F.F.F.F.F.F.F.F.F.F.F.F.F.F.",
"F.F.F.F.F.F.F.F.F.F.F.F.F.F.F.F.F.F.F.F.F.F.F.F.F.F.F.F.F.F.F.F.F.F.F.F.F.F.F.F.F.F.F.F.F.F.F.F.F.F.",
"F.F.F.F.F.F.F.F.F.F.F.F.F.F.F.F.F.F.F.F.F.F.F.F.F.F.F.F.F.F.F.F.F.F.F.F.F.F.F.F.F.F.F.F.F.F.F.F.F.F.",
"F.F.F.F.F.F.F.F.F.F.F.F.F.F.F.F.F.F.F.F.F.F.F.F.F.F.F.F.F.F.F.F.F.F.F.F.F.F.F.F.F.F.F.F.F.F.F.F.F.F.",
"F.F.F.F.F.F.F.F.F.F.F.F.F.F.F.F.F.F.F.F.F.F.F.F.F.F.F.F.F.F.F.F.F.F.F.F.F.F.F.F.F.F.F.F.F.F.F.F.F.F.",
"F.F.F.F.F.F.F.F.F.F.F.F.F.F.F.F.F.F.F.F.F.F.F.F.F.F.F.F.F.F.F.F.F.F.F.F.F.F.F.F.F.F.F.F.F.F.F.F.F.F.",
"F.F.F.F.F.F.F.F.F.F.F.F.F.d d d d d d d F.F.F.F.F.F.F.F.F.F.F.F.F.F.F.F.F.F.F.F.F.F.F.F.F.F.F.F.F.F.",
"F.F.F.F.F.F.F.F.F.F.F.F.d d d d d d d d d F.F.F.F.F.F.F.F.F.F.F.F.F.F.F.F.F.F.F.F.F.F.F.F.F.F.F.F.F.",
"F.F.F.F.F.F.F.F.F.F.F.d o.y y d d d d d d F.F.F.F.F.F.F.F.F.F.F.F.F.F.F.F.F.F.F.F.F.F.F.F.F.F.F.F.F.",
"F.F.F.F.F.F.F.F.F.F.F.d y o.+.o.d d d d d d F.F.F.F.F.F.F.F.F.F.F.F.F.F.F.F.F.F.F.F.F.F.F.F.F.F.F.F.",
"F.F.F.F.F.F.F.F.F.F.F.d w @.*.t d d d d d d d F.F.F.F.F.F.F.F.F.F.F.F.F.F.F.F.F.F.F.F.F.F.F.F.F.F.F.",
"F.F.F.F.F.F.F.F.F.F.B o.e +.&.S d d d d d d d F.F.F.F.F.F.F.F.F.F.F.F.F.F.F.F.F.F.F.F.F.F.F.F.F.F.F.",
"F.F.F.F.F.F.F.F.F.F.d p r +.2.~ d d d d d d d d F.F.F.F.F.F.F.F.F.F.F.F.F.F.F.F.F.F.F.F.F.F.F.F.F.F.",
"F.F.F.F.F.F.F.F.F.d d w 0 O.<.=.s d d d d d d d F.F.F.F.F.F.F.F.F.F.F.F.F.F.F.F.F.F.F.F.F.F.F.F.F.F.",
"F.F.F.F.F.F.F.F.F.d d e 0 O.=.a 6 s s d d s s s F.F.F.F.F.F.F.F.F.F.F.F.F.F.F.F.F.F.F.F.F.F.F.F.F.F.",
"F.F.F.F.F.F.F.F.F.d d e q u 8 5 4 5 5 a n 5 5 5 F.F.F.F.F.F.F.F.F.F.F.F.F.F.F.F.F.F.F.F.F.F.F.F.F.F.",
"F.F.F.F.F.F.F.F.F.F.d p ^ t.t.' 4 4 4 5 4 4 4 4 4 F.F.F.F.F.F.F.F.F.F.F.F.F.F.F.F.F.F.F.F.F.F.F.F.F.",
"F.F.F.F.F.F.F.F.F.F.} } a.g.g.s.' 5 4 4 4 4 4 F.F.F.F.F.F.F.F.F.F.F.F.F.F.F.F.F.F.F.F.F.F.F.F.F.F.F.",
"F.F.F.F.F.F.F.F.F.j.j.g.f.h.h.p.) K 9 K 9 F.F.F.F.F.F.F.F.F.F.F.F.F.F.F.F.F.F.F.F.F.F.F.F.F.F.F.F.F.",
"F.F.F.F.F.F.F.F.1 _ _ p.h. ...) L R ` Q F.F.F.F.F.F.F.F.F.F.F.F.F.F.F.F.F.F.F.F.F.F.F.F.F.F.F.F.F.F.",
"F.F.F.F.F.F.F.2 . 3 4 | F.F.L L L E p.] W F.F.F.F.F.F.F.F.F.F.F.F.F.F.F.F.F.F.F.F.F.F.F.F.F.F.F.F.F.",
"F.F.F.F.F.F.F.7 O 4 4 F.F.F.Y G I I k.l.! D F.F.F.F.F.F.F.F.F.F.F.F.F.F.F.F.F.F.F.F.F.F.F.F.F.F.F.F.",
"F.F.F.F.F.F.i.r.9 4 F.F.F.8.,., f x x.e.Z : > F.F.F.F.F.F.F.F.F.F.F.F.F.F.F.F.F.F.F.F.F.F.F.F.F.F.F.",
"F.F.F.F.F.V.v.u.y.F.F.F.: V $.j j z 6.;.b o > F.F.F.F.F.F.F.F.F.F.F.F.F.F.F.F.F.F.F.F.F.F.F.F.F.F.F.",
"F.F.F.F.D.N.z.M.F.F.F.F.> < f g g h N v @ o > > F.F.F.F.F.F.F.F.F.F.F.F.F.F.F.F.F.F.F.F.F.F.F.F.F.F.",
"F.F.F.C.c.n.M.F.F.F.F.> > > % @ j h h g @ . $ > > F.F.F.F.F.F.F.F.F.F.F.F.F.F.F.F.F.F.F.F.F.F.F.F.F.",
"F.F.D.c.m.B.F.F.F.> > > > % . + h j g g @ . . $ > F.F.F.F.F.F.F.F.F.F.F.F.F.F.F.F.F.F.F.F.F.F.F.F.F.",
"F.F.S.b.B.F.F.> > > > > % X   + g g g h +   . . $ F.F.F.F.F.F.F.F.F.F.F.F.F.F.F.F.F.F.F.F.F.F.F.F.F.",
"F.D.A.Z.F.F.> > > > > > o     + j j f h & o .   . : F.F.F.F.F.F.F.F.F.F.F.F.F.F.F.F.F.F.F.F.F.F.F.F.",
"F.D.D.F.F.F.> > > > > % * - # + h j , f h =   X ; k F.F.F.F.F.F.F.F.F.F.F.F.F.F.F.F.F.F.F.F.F.F.F.F.",
"F.F.F.F.F.> > > > > > # #.;.C X g g > f h = X n =.*.c F.F.F.F.F.F.F.F.F.F.F.F.F.F.F.F.F.F.F.F.F.F.F.",
"F.F.F.F.> > > > > > > #.4.w.:.X g g , > f j B =.0.8.x F.F.F.F.F.F.F.F.F.F.F.F.F.F.F.F.F.F.F.F.F.F.F.",
"F.F.F.F.> > > F.F.> > 2.0.w.,.% , g > > > > A 0.q.9.x F.F.F.F.F.F.F.F.F.F.F.F.F.F.F.F.F.F.F.F.F.F.F.",
"F.F.F.F.> > F.F.F.F.G Y 5.w.9.F.> < > > > : m >.q.0.F.F.F.F.F.F.F.F.F.F.F.F.F.F.F.F.F.F.F.F.F.F.F.F.",
"F.F.F.F.F.F.F.F.F.F. .Q T 1.F.F.F.F.F.F.F.F.H U ( / F.F.F.F.F.F.F.F.F.F.F.F.F.F.F.F.F.F.F.F.F.F.F.F.",
"F.F.F.F.F.F.F.F.F.F.h. ...] F.F.F.F.F.F.F.F.F.L P ] s.F.F.F.F.F.F.F.F.F.F.F.F.F.F.F.F.F.F.F.F.F.F.F.",
"F.F.F.F.F.F.F.F.F.F.h.h.j.F.F.F.F.F.F.F.F.F.F.F.W h.g.F.F.F.F.F.F.F.F.F.F.F.F.F.F.F.F.F.F.F.F.F.F.F.",
"F.F.F.F.F.F.F.F.F.F. . .F.F.F.F.F.F.F.F.F.F.F.F.F. . .F.F.F.F.F.F.F.F.F.F.F.F.F.F.F.F.F.F.F.F.F.F.F.",
"F.F.F.F.F.F.F.F.F.F.L L F.F.F.F.F.F.F.F.F.F.F.F.F.L L F.F.F.F.F.F.F.F.F.F.F.F.F.F.F.F.F.F.F.F.F.F.F.",
"F.F.F.F.F.F.F.F.F.F.F.F.F.F.F.F.F.F.F.F.F.F.F.F.F.F.F.F.F.F.F.F.F.F.F.F.F.F.F.F.F.F.F.F.F.F.F.F.F.F."
};
