/* XPM */
static char *result[] = {
/* columns rows colors chars-per-pixel */
"50 50 180 2 ",
"   c #10001F",
".  c #27081D",
"X  c #0E0021",
"o  c #120022",
"O  c #1B0226",
"+  c #1D0228",
"@  c #1F162F",
"#  c #290C24",
"$  c #23022B",
"%  c #270629",
"&  c #390929",
"*  c #351625",
"=  c #2E0331",
"-  c #320632",
";  c #390730",
":  c #3A0C31",
">  c #330B34",
",  c #2C2C2C",
"<  c #302C2B",
"1  c #3D2C22",
"2  c #2F3031",
"3  c #373A3C",
"4  c #393A39",
"5  c #282538",
"6  c #431519",
"7  c #631C0E",
"8  c #641E10",
"9  c #5C201B",
"0  c #63200E",
"q  c #682716",
"w  c #722915",
"e  c #7A2F19",
"r  c #742E19",
"t  c #7D311A",
"y  c #77311B",
"u  c #450826",
"i  c #44092C",
"p  c #4D0A2A",
"a  c #490927",
"s  c #510627",
"d  c #530A27",
"f  c #560B28",
"g  c #580C28",
"h  c #58122B",
"j  c #441430",
"k  c #4C1B2C",
"l  c #542E23",
"z  c #483F32",
"x  c #4F362F",
"c  c #632B31",
"v  c #77462B",
"b  c #69433F",
"n  c #744D2D",
"m  c #373D43",
"M  c #3C4549",
"N  c #3E4A4D",
"B  c #364349",
"V  c #3F4B51",
"C  c #374A6D",
"Z  c #404C4E",
"A  c #404648",
"S  c #56574F",
"D  c #414E52",
"F  c #4A575A",
"G  c #495358",
"H  c #51595C",
"J  c #70594F",
"K  c #5D625D",
"L  c #716A4E",
"P  c #706B51",
"I  c #7A7251",
"U  c #68654E",
"Y  c #4F5C60",
"T  c #5A5F6E",
"R  c #4F5C73",
"E  c #7A5C69",
"W  c #5A6268",
"Q  c #5D6D74",
"!  c #616C6F",
"~  c #6B6372",
"^  c #626F73",
"/  c #716370",
"(  c #647175",
")  c #6B7A7E",
"_  c #72777E",
"`  c #81331B",
"'  c #853C1C",
"]  c #833F2B",
"[  c #94431C",
"{  c #A24D1D",
"}  c #884A2B",
"|  c #984E29",
" . c #944B26",
".. c #965428",
"X. c #8D593A",
"o. c #995732",
"O. c #A85F31",
"+. c #AA632E",
"@. c #BE702F",
"#. c #C87834",
"$. c #9F6040",
"%. c #AA7A49",
"&. c #B07A46",
"*. c #7D806F",
"=. c #DB883A",
"-. c #EB8F33",
";. c #E58B35",
":. c #E7933F",
">. c #A88F52",
",. c #BE9750",
"<. c #AC8346",
"1. c #9D987F",
"2. c #D59A47",
"3. c #CB9050",
"4. c #E49645",
"5. c #CBA453",
"6. c #E8B151",
"7. c #E4B656",
"8. c #F2BE56",
"9. c #D49860",
"0. c #D0A474",
"q. c #F9C559",
"w. c #F8C558",
"e. c #F9C57E",
"r. c #6A6489",
"t. c #6D7D80",
"y. c #767A84",
"u. c #7C6EA4",
"i. c #7F71A6",
"p. c #8072A7",
"a. c #8173A8",
"s. c #8679AB",
"d. c #897CAE",
"f. c #79888C",
"g. c #7C8D93",
"h. c #7D9098",
"j. c #838B8A",
"k. c #9E8482",
"l. c #819296",
"z. c #839599",
"x. c #8A9298",
"c. c #868E98",
"v. c #ACAB99",
"b. c #8D82B1",
"n. c #968BB6",
"m. c #9387B5",
"M. c #9C91BA",
"N. c #9D98BE",
"B. c #B0B4A3",
"V. c #FCCF87",
"C. c #EFD29C",
"Z. c #F8D496",
"A. c #E6C892",
"S. c #FEE39D",
"D. c #FCDDA2",
"F. c #F6D9A0",
"G. c #FFE2A4",
"H. c #FFECAC",
"J. c #ACA4C6",
"K. c #A6A5C5",
"L. c #BDBCD3",
"P. c #B6B9D1",
"I. c #B6B6CF",
"U. c #BFC8D9",
"Y. c #C3CBDB",
"T. c #C9C9DC",
"R. c #C8D0DE",
"E. c #EDE6C1",
"W. c #D3CEE0",
"Q. c #CED6E2",
"!. c #D9D5E4",
"~. c #DCD9E6",
"^. c #DCDEE9",
"/. c #E4E8EE",
"(. c #EDEDF2",
"). c #F0EEF4",
"_. c #F7F6F8",
"`. c #FCFCFC",
"'. c #F1F2F6",
"]. c None",
/* pixels */
"].].].].].].].].].].].].].].].].].].].].].].].].].].].].].].].].].].].].].].].].].].].].].].].].].].",
"`.`.`.`.`.`.].].].].].].].].].].].].].].].].].].].].].].].].].].].].].].].].].].].].].].].].].].].].",
"`.`.`.`.`.`.`.`.`.`.`.`.`.`.`.`.`.`.`.].].].].].].].].].].].].].].].].].].].].].].].].].].].].].].].",
"`./.^.'.`.`.`.`.`.`.`.`.`.`.`.`.`.`.`.`.`.`.`.`.].].].].].].].].].].].].].].].].].].].].].].].].].].",
"`.R.Y.L.~.`.`.`.`.`.`.`.`.`.`.`.`.`.`.`.`.`.`.`.`.].].].].].].].].].].].].].].].].].].].].].].].].].",
"].Y.Y.K.J.W.!.'.`.`.`.`.`.`.`.`.`.`.`.`.`.`.`.`.`.`.`.`.].].].].].].].].].].].].].].].].].].].].].].",
"].].Y.Q.P.b.d.P.^.`.`.`.`.`.`.`.`.`.`.`.`.`.].].].`.`.`.`.`.`.].].].].].].].].].].].].].].].].].].].",
"].].].`.`.!.b.a.s.~.).(.(.).`.`.`.`.`.`.`.].].].].].].].].].].`.`.`.].].].].].].].].].].].].].].].].",
"].].].].].`.~.s.a.d.d.d.s.J.`._._.`.`.`.`.].].].].].].].].].].].].].`.`.].].].].].].].].].].].].].].",
"].].].].].].R.P.s.p.a.i.p.s.m.m.n.(.`.`.`.`.`.].].].].].].].].].].].].].].].`.].].].].].].].].].].].",
"].].].].].].].(.~.b.i.a.a.p.p.p.p.M.M.~.`.`.`.`.`.].].`.].].].].].].].].].].].].].].].].].].].].].].",
"].].].].].].].].`.!.n.u.a.a.p.a.a.u.u.M.J.T.`.].].].].].].].].].].].].].].].].].].].].].].].].].].].",
"].].].].].].].].]./.I.b.a.a.a.a.a.a.a.a.u.].].].].].].].].t t t ` ].].].].].].].].].].].].].].].].].",
"].].].].].].].].].Y.R.N.u.a.a.p.r.u.a.a.].].].].].].t t t t t t e t ` ].].].].].].].].].].].].].].].",
"].].].].].].].].].].Y.K.d.a.i.r.D ].].].].].].].].t t t t t t t e w w y t ].].].].].].].].].].].].].",
"].].].].].].].].].].].].K.s.r.N S ].].].].].].t t t t t t t t t ' q 7 w e ].].].].].].].].].].].].].",
"].].].].].].].].].].].].].c.2 z 5.].].].].].t t t t t t t t t [ ;.;.:.' 7 ` ].].].].].].].].].].].].",
"].].].].].].].].].].].].].2 z o.* O ].].].].t t t t t t t e [ =.V.Z.Z.X.7 ` ].].].].].].].].].].`.].",
"].].].].].].].].].].].].].].].].    <.].].].].t t t t t ` h . x C.D.J 6 8 ` t ].].].].].].].].].].].",
"].].].].].].].].].].].].].].].].W ~ <.n H ].].].t t t e { 3.c.C C.D.R * 7 ` t ].].].].].].].].].].].",
"].].].].].].].].].].].].].].].].].z.J 1 H l.t.< l y t t [ 9.H.v.F.D.B.b 7 t ].].].].].].].].].].].].",
"].].].].].].].].].].].].].].].].].].M A ( f.H , , l y t e O.V.G.D.D.V.o.8 ].].].].].].].].].].].].].",
"].].].].].].].].].].].].].].].].].].].].l.! , , , , 9 ' ' ' =.e.e.0.#.{ ].].].].].].].].].].].].].].",
"].].].].].].].].].].].].].].].].].].].].].^ , , , , , v  .e  .;.4.q y ].].].].].].].].].].].].].].].",
"].].].].].].].].].].].].].].].].].].].].].].].2 , , , , n | | 4.A.K X.+...].].].].].].].].].].].].].",
"].].].].].].].].].].].].].].].].].].].].].].].].]., , , 3 Y j.j.x.f.j.S < , , ].].].].].].].].].].].",
"].].].].].].].].].].].].].].].].].].].].].].].].].].].].M D W g.g.h.l.G , , , , , ].].].].].].].].].",
"].].].].].].].].].].].].].].].].].].].].].].].].].].].].].N N Y Y H ].3 , , < , , , ].].].].].].].].",
"].].].].].].].].].].].].].].].].].].].].].].].].].].].].N F ( ( ( ( ].]., , , 2 3 m N ].].].].].].].",
"].].].].].].].].].].].].].].].].].].].].].].].].].].].B F t.h.z.l.h.g.].]., , 2 N Z N Z ].].].].].].",
"].].].].].].].].].].].].].].].].].].].].].].].].].].$.*._ ~ / ~ ~ 1.B.y.].].].2 N V N m 5 ].].].].].",
"].].].].].].].].].].].].].].].].].].].].].].].].].].2.Z.1.& g d i 3.H.E $ ].].].].Z Z @ o o o ].].].",
"].].].].].].].].].].].].].].].].].].].].].].].].].- } 3.$.s g g g | 2.b $ ].].].].].].o o o o ].].].",
"].].].].].].].].].].].].].].].].].].].].].].].].- - : d h g g d d : # o $ - ].].].].].o o ].].].].].",
"].].].].].].].].].].].].].].].].].].].].].].].- - O & g g d g g f + o o $ - - - > - - ].].].].].].].",
"].].].].].].].].].].].].].].].].].].].].].].- - O   u g d g g p % o o o o $ - - > - - - ].].].].].].",
"].].].].].].].].].].].].].].].].].].].].].].; = o o u g f f g p o X o o   + - - - - - - ].].].].].].",
"].].].].].].].].].].].].].].].].].].].].].- = + o o u g g f g p o o o o o + - = - - - - - ].].].].].",
"].].].].].].].].].].].].].].].].].].].].].- $ X o o u g p p g p $   o   X O ; - - - ].].].].].].].].",
"].].].].].].].].].].].].].].].].].].].].].: k * o o u g i ; s s - + o # * * = - - - ].].].].].].].].",
"].].].].].].].].].].].].].].].].].].].].].c @.O.* O i g i = ; p ; - + v #.} % - - ].].].].].].].].].",
"].].].].].].].].].].].].].].].].].].].].].].8.6.+.j - i i - - ; p ; = %.w.2.} > ].].].].].].].].].].",
"].].].].].].].].].].].].].].].].].].].].].].8.8.6.].= - i i - - ; - = %.w.8.,.M ].].].].].].].].].].",
"].].].].].].].].].].].].].].].].].].].].].].w.7.P ].- - ; ; - - - - ; ].q.w.5.Z ].].].].].].].].].].",
"].].].].].].].].].].].].].].].].].].].].].].].L N ].].- - - - - - ].].].].>.U N ].].].].].].].].].].",
"].].].].].].].].].].].].].].].].].].].].].].].Q ^ ].].].].].].].].].].].].].Q ( g.].].].].].].].].].",
"].].].].].].].].].].].].].].].].].].].].].].].l.l.].].].].].].].].].].].].].l.l.g.].].].].].].].].].",
"].].].].].].].].].].].].].].].].].].].].].].].t.g.].].].].].].].].].].].].].].) t.].].].].].].].].].",
"].].].].].].].].].].].].].].].].].].].].].].V G g.].].].].].].].].].].].].].].N N ].].].].].].].].].",
"].].].].].].].].].].].].].].].].].].].].].].].].].].].].].].].].].].].].].].].].].].].].].].].].].]."
};
