/* XPM */
static char *result[] = {
/* columns rows colors chars-per-pixel */
"50 50 188 2 ",
"   c #10001F",
".  c #27091E",
"X  c #0E0022",
"o  c #120022",
"O  c #1C0225",
"+  c #1D0228",
"@  c #1F162F",
"#  c #240324",
"$  c #24032C",
"%  c #2A032F",
"&  c #290A25",
"*  c #380928",
"=  c #341725",
"-  c #2E0431",
";  c #320632",
":  c #3A0730",
">  c #360A33",
",  c #2C2C2C",
"<  c #302C2B",
"1  c #3D2C22",
"2  c #2F3031",
"3  c #373A3C",
"4  c #393A39",
"5  c #282538",
"6  c #421011",
"7  c #5A1C13",
"8  c #671F0F",
"9  c #661F10",
"0  c #5C201B",
"q  c #6C200F",
"w  c #7A2F1A",
"e  c #782D17",
"r  c #7D311A",
"t  c #77311B",
"y  c #602A1B",
"u  c #460827",
"i  c #430A2E",
"p  c #4E0A2A",
"a  c #470828",
"s  c #510627",
"d  c #530A27",
"f  c #550B28",
"g  c #590C28",
"h  c #580B27",
"j  c #58122B",
"k  c #491A31",
"l  c #552E24",
"z  c #473B2F",
"x  c #6F3326",
"c  c #6D433E",
"v  c #724B2C",
"b  c #373D43",
"n  c #3C4449",
"m  c #3E4A4D",
"M  c #364349",
"N  c #3F4B51",
"B  c #364768",
"V  c #404C4E",
"C  c #404648",
"Z  c #56574F",
"A  c #414E52",
"S  c #495559",
"D  c #51595C",
"F  c #745346",
"G  c #5D625D",
"H  c #716A4E",
"J  c #706B51",
"K  c #716C50",
"L  c #4F5C60",
"P  c #4E576C",
"I  c #5A5F6E",
"U  c #704F6B",
"Y  c #5A6268",
"T  c #5D6D74",
"R  c #616C6F",
"E  c #6B6372",
"W  c #626F73",
"Q  c #716370",
"!  c #647175",
"~  c #6B7A7E",
"^  c #72777E",
"/  c #81331A",
"(  c #813A1E",
")  c #833E26",
"_  c #803E33",
"`  c #95431C",
"'  c #9F4A1C",
"]  c #A44E1D",
"[  c #894A2B",
"{  c #984E29",
"}  c #944A28",
"|  c #965428",
" . c #8F5C38",
".. c #A85F31",
"X. c #AA632D",
"o. c #BB6E2F",
"O. c #AC6438",
"+. c #C2742F",
"@. c #DA7F2B",
"#. c #CB7B38",
"$. c #9F6040",
"%. c #A97849",
"&. c #B07A46",
"*. c #805B75",
"=. c #7D806F",
"-. c #D7853B",
";. c #E98A2D",
":. c #ED8E30",
">. c #E7933F",
",. c #BF9750",
"<. c #AC8B4D",
"1. c #9D987F",
"2. c #D59A47",
"3. c #CB9050",
"4. c #E49645",
"5. c #CBA453",
"6. c #E8B151",
"7. c #E4B656",
"8. c #F2BE56",
"9. c #D49860",
"0. c #D0A474",
"q. c #EABA79",
"w. c #F8C558",
"e. c #F9C558",
"r. c #F6C37D",
"t. c #FEC97E",
"y. c #6A6489",
"u. c #7C6187",
"i. c #6D7D80",
"p. c #707F84",
"a. c #796491",
"s. c #7D6EA5",
"d. c #7F71A7",
"f. c #7E71AA",
"g. c #806385",
"h. c #816B98",
"j. c #8071A5",
"k. c #8173A9",
"l. c #8679AC",
"z. c #897CAE",
"x. c #8C7FB0",
"c. c #79888C",
"v. c #7C8D93",
"b. c #7D9098",
"n. c #838B8A",
"m. c #819296",
"M. c #839599",
"N. c #8A9298",
"B. c #92898E",
"V. c #ACAB9A",
"C. c #8D82B1",
"Z. c #9286B4",
"A. c #9589B5",
"S. c #9D94BC",
"D. c #A096BD",
"F. c #B0B4A3",
"G. c #C7B6A3",
"H. c #FFCE81",
"J. c #E6C892",
"K. c #FEE39D",
"L. c #FBDEA4",
"P. c #FEE4A6",
"I. c #A59BC1",
"U. c #ACA4C6",
"Y. c #A6A5C5",
"T. c #BAB8D1",
"R. c #B6B6CF",
"E. c #C1BAD4",
"W. c #BFC8D9",
"Q. c #C3CBDB",
"!. c #CDCADD",
"~. c #C7C1D8",
"^. c #C8D0DE",
"/. c #EDE6C1",
"(. c #CECAE0",
"). c #D3CEE0",
"_. c #DAD6E4",
"`. c #DCD9E6",
"'. c #DCDDE8",
"]. c #CED6E2",
"[. c #E1DEEA",
"{. c #E5E6EE",
"}. c #ECECF2",
"|. c #F1EFF4",
" X c #F2F2F6",
".X c #F6F6F8",
"XX c #FCFCFC",
"oX c None",
/* pixels */
"oXoXoXoXoXoXoXoXoXoXoXoXoXoXoXoXoXoXoXoXoXoXoXoXoXoXoXoXoXoXoXoXoXoXoXoXoXoXoXoXoXoXoXoXoXoXoXoXoXoX",
"XXXXXXXXXXXXXXXXXXXXXXXXXXXXXXXXXXoXoXoXoXoXoXoXoXoXoXoXoXoXoXoXoXoXoXoXoXoXoXoXoXoXoXoXoXoXoXoXoXoX",
"XXXXXXXXXXXXXXXXXXXXXXXXXXXXXXXXXXXXXXXX.XXXXXXXoXoXoXoXoXoXoXoXoXoXoXoXoXoXoXoXoXoXoXoXoXoXoXoXoXoX",
"XX{.'. XXXXXXXXXXXXXXXXXXXXXXXXXXXXXXXXXXXXXXXXXXXXXXXXXXXoXoXoXoXoXoXoXoXoXoXoXoXoXoXoXoXoXoXoXoXoX",
"XX^.Q.T.`.XXXXXXXXXXXXXXXXXXXXXXXXXXXXXXXXXXXXXXXXXXXXXXXXXXoXoXoXoXoXoXoXoXoXoXoXoXoXoXoXoXoXoXoXoX",
"oXQ.Q.Y.U.)._. XXXXXXXXXXXXXXXXXXXXXXXXXXXXXXXXXXXXXXXXXXXXXXXXXXXoXoXoXoXoXoXoXoXoXoXoXoXoXoXoXoXoX",
"oXoXQ.].R.C.z.R.'.[..XXXXXXXXXXXXXXXXXXXXXXXXXXXXXXXXXXXXXXXXXXXXXXXXXXXXXXX.XoXoXoXoXoXoXoXoXoXoXoX",
"oXoXoXXXXX_.C.k.k.k.). X}.}. XXXXXXXXXXXXXXXXXXXXXXXXXXXXXXXXXXXXXXXXXXXXXXXXXXXXXoXoXoXoXoXoXoXoXoX",
"oXoXoXoXoXXX`.l.k.k.l.z.z.z.S. X.X.X.XXXXXXXXXXXXXXXXXXXXXXXXXXXXXXXXXXXXXXXXXXXXXXXXXXXXXXXoXoXoXoX",
"oXoXoXoXoXoX^.R.l.k.k.f.k.j.l.Z.Z.Z.Z.).XXXXXXXXXXXXXXXXXXXXXXXXXXXXXXXXXXXXXXXXXXXXXXXXXXXXXXXXoXoX",
"oXoXoXoXoXoXoX}.`.C.d.k.k.k.k.d.j.f.s.Z.I.S.S.U..XXXXXXXXXXXXXXXXXXXXXXXXXXXXXXXXXXXXXXXXXXXXXXXXXXX",
"oXoXoXoXoXoXoXoXXX_.A.s.k.k.j.k.k.j.j.f.f.s.f.k.U.U.U.[.XXXXXXXXXXXXXXXXXXXXXXXXXXXXXXXXXXXXXXXXXXXX",
"oXoXoXoXoXoXoXoXoX{.R.C.k.k.k.k.k.k.k.k.k.k.k.l.f.s.s.I.E.T.!.XXXXXXXXXXXXXXXXXXXXXXXXXXXXXXXXXXXXXX",
"oXoXoXoXoXoXoXoXoXQ.^.S.d.k.j.j.y.s.k.k.k.k.h.*.*.j.k.f.k.f.Z.(.!.!.).}.XXXXXXXXXXXXXXXXXXXXXXXXXXXX",
"oXoXoXoXoXoXoXoXoXoXQ.Y.z.d.d.y.V oXoXoXoXoXoXw r *.g.g.g.g.g.u.f.f.s.T.[.`.[.XXXXXXXXXXXXXXXXXXXXXX",
"oXoXoXoXoXoXoXoXoXoXoXoXY.l.y.m Z oXoXoXoXoXoXr r r / w / / / x u.a.a.s.k.k.S.{.}.{..XXXXXXXXXXXXXXX",
"oXoXoXoXoXoXoXoXoXoXoXoXoXN.2 z 5.oXoXoXoXoXoXr r r r r r r r / 7 7 7 U d.s.l.z.l.l._..XXXXXXXXXXXXX",
"oXoXoXoXoXoXoXoXoXoXoXoXoX3 z | = O oXoXoXoXoXr r r r r r w ` @.@.;.@.t y v oXoXk.k.x.x.~.XXXXXXXXXX",
"oXoXoXoXoXoXoXoXoXoXoXoXoXoXoXoX    <.oXoXoXoXr r r r r r 7 & l ;.;.x 6 8 / oXoXoXoXoXoXoXoXoXXXXXXX",
"oXoXoXoXoXoXoXoXoXoXoXoXoXoXoXoXE I <.v L oXoXoXr r r w ] 3.m.B q.t.P = 8 / oXoXoXoXoXoXoXoXoXoXoXoX",
"oXoXoXoXoXoXoXoXoXoXoXoXoXoXoXoXoXm.F 1 D M.i.< l w / w ) 9./.V.L.L.F.F q oXoXoXoXoXoXoXoXoXoXoXoXoX",
"oXoXoXoXoXoXoXoXoXoXoXoXoXoXoXoXoXoXn C ! c.D , , l w / / ..H.L.P.P.t.O.oXoXoXoXoXoXoXoXoXoXoXoXoXoX",
"oXoXoXoXoXoXoXoXoXoXoXoXoXoXoXoXoXoXoXoXM.R , , , , l / / ' #.H.r.0.#.' oXoXoXoXoXoXoXoXoXoXoXoXoXoX",
"oXoXoXoXoXoXoXoXoXoXoXoXoXoXoXoXoXoXoXoXoXW , , , , , v ' / ) :.4.0 e oXoXoXoXoXoXoXoXoXoXoXoXoXoXoX",
"oXoXoXoXoXoXoXoXoXoXoXoXoXoXoXoXoXoXoXoXoXoXoX, , , , , v { { 4.J.G  .X.| oXoXoXoXoXoXoXoXoXoXoXoXoX",
"oXoXoXoXoXoXoXoXoXoXoXoXoXoXoXoXoXoXoXoXoXoXoXoXoX, , , 3 L n.n.N.c.n.Z < , , oXoXoXoXoXoXoXoXoXoXoX",
"oXoXoXoXoXoXoXoXoXoXoXoXoXoXoXoXoXoXoXoXoXoXoXoXoXoXoXoXn A Y v.m.m.m.A , , , , , oXoXoXoXoXoXoXoXoX",
"oXoXoXoXoXoXoXoXoXoXoXoXoXoXoXoXoXoXoXoXoXoXoXoXoXoXoXoXoXm A L L L oX3 , , , , , , oXoXoXoXoXoXoXoX",
"oXoXoXoXoXoXoXoXoXoXoXoXoXoXoXoXoXoXoXoXoXoXoXoXoXoXoXoXn A ! ! ! ! oXoX, , , 2 3 b n oXoXoXoXoXoXoX",
"oXoXoXoXoXoXoXoXoXoXoXoXoXoXoXoXoXoXoXoXoXoXoXoXoXoXoXn S c.M.b.M.b.v.oXoX, , 2 m A m V oXoXoXoXoXoX",
"oXoXoXoXoXoXoXoXoXoXoXoXoXoXoXoXoXoXoXoXoXoXoXoXoXoXK =.^ E Q Q W 1.F.oXoXoXoX2 m m V b 5 oXoXoXoXoX",
"oXoXoXoXoXoXoXoXoXoXoXoXoXoXoXoXoXoXoXoXoXoXoXoXoXoX>.K.B.* f p i 3.P.G.oXoXoXoXoXm A @ o o o oXoXoX",
"oXoXoXoXoXoXoXoXoXoXoXoXoXoXoXoXoXoXoXoXoXoXoXoXoX; [ 3.O.s d f g { 2.F $ oXoXoXoXoXoXo o o o oXoXoX",
"oXoXoXoXoXoXoXoXoXoXoXoXoXoXoXoXoXoXoXoXoXoXoXoX; ; > f j f f f f : & o $ ; oXoXoXoXoXo o oXoXoXoXoX",
"oXoXoXoXoXoXoXoXoXoXoXoXoXoXoXoXoXoXoXoXoXoXoXoX; O u d f h f f f + X X $ ; ; ; oXoXoXoXoXoXoXoXoXoX",
"oXoXoXoXoXoXoXoXoXoXoXoXoXoXoXoXoXoXoXoXoXoXoX- O o u f f f f d # o o o o $ ; ; ; oXoXoXoXoXoXoXoXoX",
"oXoXoXoXoXoXoXoXoXoXoXoXoXoXoXoXoXoXoXoXoXoXoX- o o # u f f f p o o o o   + ; ; ; ; ; ; oXoXoXoXoXoX",
"oXoXoXoXoXoXoXoXoXoXoXoXoXoXoXoXoXoXoXoXoXoX- # o o X * h f f d * o o o o + ; ; ; ; ; ; ; oXoXoXoXoX",
"oXoXoXoXoXoXoXoXoXoXoXoXoXoXoXoXoXoXoXoXoXoX$ X o o o * d f f h f O X o X + ; ; ; ; ; ; ; ; oXoXoXoX",
"oXoXoXoXoXoXoXoXoXoXoXoXoXoXoXoXoXoXoXoXoXoXk = o X o $ i h f p d & # & = = % ; ; ; ; ; ; ; ; oXoXoX",
"oXoXoXoXoXoXoXoXoXoXoXoXoXoXoXoXoXoXoXoXoXoXo.X.= o o % i g d : p p p } +.[ & ; ; ; ; oXoXoX; oXoXoX",
"oXoXoXoXoXoXoXoXoXoXoXoXoXoXoXoXoXoXoXoXoXoX8.6.X.& $ ; ; : d p : ; - %.w.2.[ ; ; ; oXoXoXoXoXoXoXoX",
"oXoXoXoXoXoXoXoXoXoXoXoXoXoXoXoXoXoXoXoXoXoX8.8.6.oXoX; ; ; > : p > - %.w.w.,.n oXoXoXoXoXoXoXoXoXoX",
"oXoXoXoXoXoXoXoXoXoXoXoXoXoXoXoXoXoXoXoXoXoXw.7.K oXoXoXoXoX; ; : > - k %.e.5.N oXoXoXoXoXoXoXoXoXoX",
"oXoXoXoXoXoXoXoXoXoXoXoXoXoXoXoXoXoXoXoXoXoXoXH m oXoXoXoXoXoXoX; ; ; oXoX<.J m oXoXoXoXoXoXoXoXoXoX",
"oXoXoXoXoXoXoXoXoXoXoXoXoXoXoXoXoXoXoXoXoXoXoXT ! oXoXoXoXoXoXoXoXoXoXoXoXoXT ! v.oXoXoXoXoXoXoXoXoX",
"oXoXoXoXoXoXoXoXoXoXoXoXoXoXoXoXoXoXoXoXoXoXoXm.m.oXoXoXoXoXoXoXoXoXoXoXoXoXM.m.v.oXoXoXoXoXoXoXoXoX",
"oXoXoXoXoXoXoXoXoXoXoXoXoXoXoXoXoXoXoXoXoXoXoXi.v.oXoXoXoXoXoXoXoXoXoXoXoXoXoX~ ~ oXoXoXoXoXoXoXoXoX",
"oXoXoXoXoXoXoXoXoXoXoXoXoXoXoXoXoXoXoXoXoXoXm S c.oXoXoXoXoXoXoXoXoXoXoXoXoXoXN N oXoXoXoXoXoXoXoXoX",
"oXoXoXoXoXoXoXoXoXoXoXoXoXoXoXoXoXoXoXoXoXoXoXoXoXoXoXoXoXoXoXoXoXoXoXoXoXoXoXoXoXoXoXoXoXoXoXoXoXoX"
};
