/* XPM */
static char *result[] = {
/* columns rows colors chars-per-pixel */
"50 50 178 2 ",
"   c #310C1C",
".  c #35121E",
"X  c #0F0021",
"o  c #120022",
"O  c #1C0324",
"+  c #1D0228",
"@  c #1D1226",
"#  c #1F1030",
"$  c #22032B",
"%  c #2A042E",
"&  c #250823",
"*  c #3B0529",
"=  c #38092B",
"-  c #3C122C",
";  c #2D0431",
":  c #320632",
">  c #390730",
",  c #370D34",
"<  c #241D33",
"1  c #3C1034",
"2  c #2B2B2C",
"3  c #27292A",
"4  c #332F2C",
"5  c #3C332D",
"6  c #2D3032",
"7  c #3E3930",
"8  c #333738",
"9  c #3A3C3D",
"0  c #353A3B",
"q  c #4D0F0B",
"w  c #4E100B",
"e  c #53130C",
"r  c #5B190F",
"t  c #521E17",
"y  c #451615",
"u  c #64210F",
"i  c #6B2612",
"p  c #652C1C",
"a  c #732A17",
"s  c #762C18",
"d  c #7B2E18",
"f  c #7D311A",
"g  c #42082D",
"h  c #4E0A2A",
"j  c #4B0827",
"k  c #550B28",
"l  c #590D29",
"z  c #580B27",
"x  c #47122F",
"c  c #5F1F2F",
"v  c #471834",
"b  c #63192B",
"n  c #42232F",
"m  c #43362D",
"M  c #5E3F2A",
"N  c #69332B",
"B  c #703622",
"V  c #564A34",
"C  c #73482A",
"Z  c #20264C",
"A  c #34324C",
"S  c #332D46",
"D  c #413F51",
"F  c #3B4345",
"G  c #3E4A4D",
"H  c #39454A",
"J  c #3E4C51",
"K  c #384F76",
"L  c #424B4D",
"P  c #464545",
"I  c #414F54",
"U  c #4F4D59",
"Y  c #49565B",
"T  c #50575A",
"R  c #784B44",
"E  c #62614F",
"W  c #666554",
"Q  c #787151",
"!  c #585B66",
"~  c #576669",
"^  c #5A666A",
"/  c #5B696D",
"(  c #5F6D71",
")  c #676E77",
"_  c #6C747C",
"`  c #6B7A7F",
"'  c #667478",
"]  c #77767B",
"[  c #81341B",
"{  c #86391C",
"}  c #8B3D1E",
"|  c #A24F18",
" . c #8E4D29",
".. c #884628",
"X. c #944C26",
"o. c #9D5A2A",
"O. c #9C5729",
"+. c #AC5B25",
"@. c #A45B2A",
"#. c #B15F28",
"$. c #B5652B",
"%. c #BC6A2A",
"&. c #C26C28",
"*. c #C7712D",
"=. c #A37147",
"-. c #7C806F",
";. c #C4843C",
":. c #E78E34",
">. c #EA9036",
",. c #BB8748",
"<. c #A78F53",
"1. c #BB9C55",
"2. c #8A817A",
"3. c #B69471",
"4. c #BBA07F",
"5. c #D29D4E",
"6. c #C09F55",
"7. c #D8995A",
"8. c #DDA14A",
"9. c #D6A54E",
"0. c #DCAE51",
"q. c #DEB256",
"w. c #ECAF4D",
"e. c #E5A859",
"r. c #ECB754",
"t. c #F3BD55",
"y. c #D29A66",
"u. c #D0A372",
"i. c #EBBD7F",
"p. c #ECAF68",
"a. c #F4C258",
"s. c #F9C357",
"d. c #707F84",
"f. c #7B848B",
"g. c #7A898E",
"h. c #73848A",
"j. c #7E8E93",
"k. c #7F9095",
"l. c #819196",
"z. c #839499",
"x. c #8D9998",
"c. c #998488",
"v. c #A19887",
"b. c #AAA18C",
"n. c #B1A393",
"m. c #BEB496",
"M. c #948CB7",
"N. c #9B94BC",
"B. c #B8B9A7",
"V. c #D6C49C",
"C. c #FCCA82",
"Z. c #FDD797",
"A. c #FFDC97",
"S. c #DDCDA2",
"D. c #FCDFA5",
"F. c #FFE1A3",
"G. c #FFE9A6",
"H. c #FFEAA9",
"J. c #F9E6B2",
"K. c #A59BC1",
"L. c #ADADCA",
"P. c #A7A2C5",
"I. c #B6B0CD",
"U. c #BEB6D1",
"Y. c #B2A9C9",
"T. c #C3BDD6",
"R. c #BDC3D6",
"E. c #C1C4CF",
"W. c #C4CBDB",
"Q. c #C9C4DA",
"!. c #CAD2E1",
"~. c #DADCE7",
"^. c #E2E7EE",
"/. c #EBE8F0",
"(. c #F2F2F6",
"). c #FCFCFC",
"_. c #F7F9F9",
"`. c None",
/* pixels */
"`.`.`.`.`.`.`.`.`.`.`.`.`.`.`.`.`.`.`.`.`.`.`.`.`.`.`.`.`.`.`.`.`.`.`.`.`.`.`.`.`.`.`.`.`.`.`.`.`.`.",
"`.`.`.`.`.`.`.`.`.`.`.`.`.`.`.`.`.`.`.`.`.`.`.`.`.`.`.`.`.`.`.`.`.`.`.`.`.`.`.`.`.`.`.`.`.`.`.`.`.`.",
"`.`.`.`.`.`.`.`.`.`.`.`.`.`.`.`.`.`.`.`.`.`.`.`.`.`.`.`.`.`.`.`.`.`.`.`.`.`.`.`.`.`.`.`.`.`.`.`.`.`.",
"`.`.`.`.`.`.`.`.`.`.`.`.`.`.`.`.`.`.`.`.`.`.`.`.`.`.`.`.`.`.`.`.`.`.`.`.`.`.`.`.`.`.`.`.`.`.`.`.`.`.",
"`.`.`.`.`.`.`.`.`.`.`.`.`.`.`.`.`.`.`.`.`.`.`.`.`.`.`.`.`.`.`.`.`.`.`.`.`.`.`.`.`.`.`.`.`.`.`.`.`.`.",
"`.`.`.`.`.`.`.`.`.`.`.`.`.`.`.`.`.`.`.`.`.`.`.`.`.`.`.`.`.`.`.`.`.`.`.`.`.`.`.`.`.`.`.`.`.`.`.`.`.`.",
"`.`.`.`.`.`.`.`.`.`.`.`.`.`.`.`.`.`.`.`.`.`.`.`.`.`.`.`.`.`.`.`.`.`.`.`.`.`.`.`.`.`.`.`.`.`.`.`.`.`.",
"`.`.`.`.`.`.`.`.`.`.`.`.`.`.`.`.`.`.`.`.`.`.`.`.`.).).).).`.`.`.`.`.`.`.`.`.`.`.`.`.`.`.`.`.`.`.`.`.",
"`.`.`.`.`.`.`.`.`.`.`.`.`.`.`.`.`.`.`.`.`.`.`.`._._.).).`.`.`.`.`.`.`.`.`.`.`.`.`.`.`.`.`.`.`.`.`.`.",
"`.`.`.`.`.`.`.`.`.`.`.`.`.`.`.`.`.`.`.`.`.`.`.W.!.!.(.`.`.`.`.`.`.`.`.`.`.`.`.`.`.`.`.`.`.`.`.`.`.`.",
"`.`.`.`.`.`.`.`.`.`.`.`.`.`.`.`.`.`.`.`.`.`.W.R.M.R.`.`.`.`.`.`.`.`.`.`.`.`.`.`.`.`.`.`.`.`.`.`.`.`.",
"`.`.`.`.`.`.`.`.`.`.`.`.`.`.`.`.`.`.`.`.`._.~.N.Q.`.`.`.`.`.`.`.`.`.`.`.`.`.`.`.`.`.`.`.`.`.`.`.`.`.",
"`.`.`.`.`.`.`.`.`.`.`.`.`.`.`.`.`.`.`.`.)./.U.T.).`.`.f [ f f `.`.`.`.`.`.`.`.`.`.`.`.`.`.`.`.`.`.`.",
"`.`.`.`.`.`.`.`.`.`.`.`.`.`.`.`.`.`.`.^.~.I.P.).`.d f f a a f f `.`.`.`.`.`.`.`.`.`.`.`.`.`.`.`.`.`.",
"`.`.`.`.`.`.`.`.`.`.`.`.`.`.`.`.`.`.~.R.K.P.E.`.f f f s r e a f f `.`.`.`.`.`.`.`.`.`.`.`.`.`.`.`.`.",
"`.`.`.`.`.`.`.`.`.`.`.`.`.`.`.`.`.).(.Y.T.).`.f f f [ i u u i s f f `.`.`.`.`.`.`.`.`.`.`.`.`.`.`.`.",
"`.`.`.`.`.`.`.`.`.`.`.`.`.`.`.`._._.K.Q.).`.`.f f f f &.>.>.%.r s f `.`.`.`.`.`.`.`.`.`.`.`.`.`.`.`.",
"`.`.`.`.`.`.`.`.`.`.`.`.`.`.`.W.W.N.L.`.`.`.f f f f &.p.A.Z.u.w e s f `.`.`.`.`.`.`.`.`.`.`.`.`.`.`.",
"`.`.`.`.`.`.`.`.`.`.`.`.`.! !.T.M.L.`.`.`.`.f f s   - 3.H.4.n w w s f `.`.`.`.`.`.`.`.`.`.`.`.`.`.`.",
"`.`.`.`.`.`.`.`.`.`.`.`.`.F _ N.L.`.`.`.`.`.f { *.n.K v.G.b.Z w e s f f `.`.`.`.`.`.`.`.`.`.`.`.`.`.",
"`.`.`.`.`.`.`.`.`.`.`.`.`.@ @ ! W.`.`.`.`.`.f f $.J.B.V.F.S.2.q w s f f f `.`.`.`.`.`.`.`.`.`.`.`.`.",
"`.`.`.`.`.`.`.`.`.`.`.`.`.# D T f.`.`.`.`.`.f f f e.A.F.F.Z.7.q w s f f `.`.`.`.`.`.`.`.`.`.`.`.`.`.",
"`.`.`.`.`.`.`.`.`.`.`.`.. S z.g.L `.`.`.`.`.} } [ %.y.i.C.e.| w r s f `.`.`.`.`.`.`.`.`.`.`.`.`.`.`.",
"`.`.`.`.`.`.`.`.`.`.`.#.B A l.j.l.`.`.`.`.`.@.%.X.[ s &.:.o.y t { { `.`.`.`.`.`.`.`.`.`.`.`.`.`.`.`.",
"`.`.`.`.`.`.`.`.`.`.2 C +.`.j.j.k.g.`.`.2 3 V q.9...s *.=.J I P O.#.#.`.`.`.`.`.`.`.`.`.`.`.`.`.`.`.",
"`.`.`.`.`.`.`.`.`.`.2 4 5 `.`.j.g.P 2 2 2 2 4 7 7 4 p y.m.g.-.L 7 O.#.M 3 8 L J J `.`.`.`.`.`.`.`.`.",
"`.`.`.`.`.`.`.`.`.`.`.`.`.`.`.j.g.0 2 2 2 4 2 2 2 F P ] z.j.h.J F m m 4 2 8 J G L J `.`.`.`.`.`.`.`.",
"`.`.`.`.`.`.`.`.`.`.`.`.`.`.`.`.k.' 9 3 3 2 2 `.`.G G ' k.k.h.J G F 6 2 8 H L G G < O o `.`.`.`.`.`.",
"`.`.`.`.`.`.`.`.`.`.`.`.`.`.`.`.`.l.' ^ T `.`.`.`.`.J T / ~ T G L J 0 `.`.`.`.`.`.o o o o `.`.`.`.`.",
"`.`.`.`.`.`.`.`.`.`.`.`.`.`.`.`.`.`.z.z.`.`.`.`.`.`.`.G G Y / ~ G G `.`.`.`.`.`.`.o o o `.`.`.`.`.`.",
"`.`.`.`.`.`.`.`.`.`.`.`.`.`.`.`.`.`.`.`.`.`.`.`.`.`.`.H G ~ z.k.~ I `.`.`.`.`.`.`.o `.`.`.`.`.`.`.`.",
"`.`.`.`.`.`.`.`.`.`.`.`.`.`.`.`.`.`.`.`.`.`.`.`.`.`.`.] T U ] _ _ W `.`.`.`.`.`.`.`.`.`.`.`.`.`.`.`.",
"`.`.`.`.`.`.`.`.`.`.`.`.`.`.`.`.`.`.`.`.`.`.`.`.`.: ,.G.c.g z h g 5.J.`.`.`.`.`.`.`.`.`.`.`.`.`.`.`.",
"`.`.`.`.`.`.`.`.`.`.`.`.`.`.`.`.`.`.`.`.`.`.`.`.: : ..8.=.j z z l @.e.R `.`.`.`.`.`.`.`.`.`.`.`.`.`.",
"`.`.`.`.`.`.`.`.`.`.`.`.`.`.`.`.`.`.`.`.`.`.`.: : O , c b k k k k x v 1 : `.`.`.`.`.`.`.`.`.`.`.`.`.",
"`.`.`.`.`.`.`.`.`.`.`.`.`.`.`.`.`.`.`.`.`.`.: : + o * k k k z l k + O % : `.`.`.`.`.`.`.`.`.`.`.`.`.",
"`.`.`.`.`.`.`.`.`.`.`.`.`.`.`.`.`.`.`.`.`.: ; O o o j l z k k k k O o O % ; `.`.`.`.`.`.`.`.`.`.`.`.",
"`.`.`.`.`.`.`.`.`.`.`.`.`.`.`.`.`.`.`.`.: > % X o X & j l k l k h O X X $ > : `.`.`.`.`.`.`.`.`.`.`.",
"`.`.`.`.`.`.`.`.`.`.`.`.`.`.`.`.`.`.`.: : ; $ X o o X * l k z k k O X X $ > : `.`.`.`.`.`.`.`.`.`.`.",
"`.`.`.`.`.`.`.`.`.`.`.`.`.`.`.`.`.`.: : : $ X o o o o * k k k h h O X X O ; : `.`.`.`.`.`.`.`.`.`.`.",
"`.`.`.`.`.`.`.`.`.`.`.`.`.`.`.`.`.`.: ; 1 - & o X o ; : g k h > k O @ & O + , `.`.`.`.`.`.`.`.`.`.`.",
"`.`.`.`.`.`.`.`.`.`.`.`.`.`.`.`.`.`.`.; N $. .$ o o ; : g k h > h O  .$.N + > `.`.`.`.`.`.`.`.`.`.`.",
"`.`.`.`.`.`.`.`.`.`.`.`.`.`.`.`.`.`.`.`.5.r.8. .O % ; : > g h > k = ,.t.;.X.`.`.`.`.`.`.`.`.`.`.`.`.",
"`.`.`.`.`.`.`.`.`.`.`.`.`.`.`.`.`.`.`.`.`.a.t.9.F , : : > > h : = `.r.a.r.w.`.`.`.`.`.`.`.`.`.`.`.`.",
"`.`.`.`.`.`.`.`.`.`.`.`.`.`.`.`.`.`.`.`.`.s.q.Q L `.`.: : > `.`.`.`.s.s.6.E `.`.`.`.`.`.`.`.`.`.`.`.",
"`.`.`.`.`.`.`.`.`.`.`.`.`.`.`.`.`.`.`.`.`.6.Q J ( `.`.`.`.`.`.`.`.`.`.<.T Y ' `.`.`.`.`.`.`.`.`.`.`.",
"`.`.`.`.`.`.`.`.`.`.`.`.`.`.`.`.`.`.`.`.`.`.J ( k.z.`.`.`.`.`.`.`.`.`.`.H ( j.j.`.`.`.`.`.`.`.`.`.`.",
"`.`.`.`.`.`.`.`.`.`.`.`.`.`.`.`.`.`.`.`.`.`.`.j.d.` `.`.`.`.`.`.`.`.`.`.`.`.g.` d.`.`.`.`.`.`.`.`.`.",
"`.`.`.`.`.`.`.`.`.`.`.`.`.`.`.`.`.`.`.`.`.`.`.`.G G `.`.`.`.`.`.`.`.`.`.`.`.`.G G `.`.`.`.`.`.`.`.`.",
"`.`.`.`.`.`.`.`.`.`.`.`.`.`.`.`.`.`.`.`.`.`.`.`.`.`.`.`.`.`.`.`.`.`.`.`.`.`.`.`.`.`.`.`.`.`.`.`.`.`."
};
