/* XPM */
static char *result[] = {
/* columns rows colors chars-per-pixel */
"50 50 177 2 ",
"   c #0E0021",
".  c #130123",
"X  c #1A0223",
"o  c #1B0829",
"O  c #1E1429",
"+  c #24032C",
"@  c #29042D",
"#  c #260623",
"$  c #3E0726",
"%  c #3C072F",
"&  c #390A2F",
"*  c #381726",
"=  c #2E0432",
"-  c #320632",
";  c #350832",
":  c #3D0B31",
">  c #3C1135",
",  c #3C123A",
"<  c #2C2C2B",
"1  c #322C2A",
"2  c #302F31",
"3  c #34393A",
"4  c #333738",
"5  c #4C0D08",
"6  c #4B0C07",
"7  c #51120C",
"8  c #5A180E",
"9  c #411218",
"0  c #5E1B10",
"q  c #621E11",
"w  c #79290F",
"e  c #7A2D15",
"r  c #732C19",
"t  c #7B2F19",
"y  c #76321C",
"u  c #7D311A",
"i  c #4B0927",
"p  c #44072A",
"a  c #45092D",
"s  c #49092B",
"d  c #510627",
"f  c #550B28",
"g  c #580B28",
"h  c #500728",
"j  c #58122A",
"k  c #62172A",
"l  c #5B232F",
"z  c #43352B",
"x  c #4D382A",
"c  c #5D2E38",
"v  c #4F353B",
"b  c #472E26",
"n  c #6F3823",
"m  c #7E3826",
"M  c #783737",
"N  c #70282B",
"B  c #56413A",
"V  c #7D4227",
"C  c #69453B",
"Z  c #72463E",
"A  c #1D2751",
"S  c #373A44",
"D  c #3F3B50",
"F  c #421C41",
"G  c #374144",
"H  c #3B454B",
"J  c #3E4A4D",
"K  c #404343",
"L  c #414549",
"P  c #414B4D",
"I  c #484D4C",
"U  c #4D4845",
"Y  c #524C44",
"T  c #444D51",
"R  c #4C465C",
"E  c #4C5254",
"W  c #435257",
"Q  c #7F4545",
"!  c #67495F",
"~  c #6E5852",
"^  c #686857",
"/  c #4F5E61",
"(  c #515E62",
")  c #5A5B62",
"_  c #546165",
"`  c #576568",
"'  c #5B6B72",
"]  c #6E646C",
"[  c #627175",
"{  c #667579",
"}  c #6C7A7D",
"|  c #82351B",
" . c #84391D",
".. c #8C3C1B",
"X. c #A0501C",
"o. c #8B4627",
"O. c #9E5426",
"+. c #92523F",
"@. c #824735",
"#. c #A65A2B",
"$. c #A95C29",
"%. c #A65A25",
"&. c #B55F22",
"*. c #95633F",
"=. c #B46B33",
"-. c #B7672B",
";. c #CD7326",
":. c #C36A26",
">. c #9A5D49",
",. c #8D744A",
"<. c #9C7444",
"1. c #9F746A",
"2. c #916C72",
"3. c #877D77",
"4. c #CD873E",
"5. c #DA883C",
"6. c #E08835",
"7. c #F2973B",
"8. c #97824E",
"9. c #988552",
"0. c #BE8B5D",
"q. c #A08864",
"w. c #C59449",
"e. c #CB904D",
"r. c #DEA84F",
"t. c #CAA655",
"y. c #ECB14E",
"u. c #ECB855",
"i. c #F3BE56",
"p. c #D8AD64",
"a. c #D0AA74",
"s. c #F1B367",
"d. c #F4C258",
"f. c #F8C357",
"g. c #F6CA7C",
"h. c #6C7B81",
"j. c #757E88",
"k. c #766999",
"l. c #806A95",
"z. c #88759C",
"x. c #8073A8",
"c. c #76868B",
"v. c #77868B",
"b. c #7E8D92",
"n. c #809196",
"m. c #83949B",
"M. c #8C9896",
"N. c #A08695",
"B. c #BEA989",
"V. c #B7B49F",
"C. c #938BB7",
"Z. c #9594B7",
"A. c #C0A684",
"S. c #DBB783",
"D. c #CAAAA0",
"F. c #D4C29B",
"G. c #F3C686",
"H. c #FFCF82",
"J. c #FEDB9C",
"K. c #F9D597",
"L. c #D9C3BC",
"P. c #FDDDA2",
"I. c #FFE6A6",
"U. c #9A95C2",
"Y. c #AFB1CD",
"T. c #BFC5D7",
"R. c #DBD7C1",
"E. c #CEC9DD",
"W. c #C4CDDC",
"Q. c #DFD2D3",
"!. c #DCC9C4",
"~. c #F8EFC8",
"^. c #D9D7E6",
"/. c #FFFFFE",
"(. c #F1F0F4",
"). c #E4ECF5",
"_. c None",
/* pixels */
"_._._._._._._._._._._._._._._._._._._._._._._._._._._._._._._._._._._._._._._._._._._._._._._._._._.",
"_._._._._._._._._._._._._._._._._._._._._._._._._._._._._._._._._._._._._._._._._._._._._._._._._._.",
"_._._._._._._._._._._._._._._._._._._._._._._._._._._._._._._._._._._._._._._._._._._._._._._._._._.",
"_._._._._._._._._._._._._._._._._._._._._._._._._._._._._._._._._._._._._._._._._._._._._._._._._._.",
"_._._._._._._._._._._._._._._._._._._._._._._._._._._._._._._._._._._._._._._._._._._._._._._._._._.",
"_._._._._._._._._._._._._._._._._._._._._._._._._._._._._._._._._._._._._._._._._._._._._._._._._._.",
"_._._._._._._._._._._._._._._._._._._._._._._._._._._._._._._._._._._._._._._._._._._._._._._._._._.",
"_._._._._._._._._._._._._._._._._._._._._._._._._._._._._._._._._._._._._._._._._._._._._._._._._._.",
"_._._._._._._._._._._._._._._._._._._._._._._._._._._._._._._._._._._._._._._._._._._._._._._._._._.",
"_._._._._._._._._._._._._._._._._._._._._._._._._._._._._._._._._._._._._._._._._._._._._._._._._._.",
"_._._._._._._._._._._._._._._._._._._._._._._._._._._._._._._._._._._._._._._._._._._._._._._._._._.",
"_._._._._._._._._._._._._._._._._._._._._._._._._._._._._._._._._._._._._._._._._._._._._._._._._._.",
"_._._._._._._._._._._._._._._._._._._._._._._._._._._._._._._._._././._._._._._._._._._._._._._._._.",
"_._._._._._._._._._._._._._._._._._._._._._._._._._._._._._._._.E.E.(._._._._._._._._._._._._._._._.",
"_._._._._._._._._._._._._._._._._._._._._._._._._._._._.D.!.^.Y.C.k.^._._._._._._._._._._._._._._._.",
"_._._._._._._._._._._._._._._._._._._._._._._._.u u t r r >.k.z.W._._._._._._._._._._._._._._._._._.",
"_._._._._._._._._._._._._._._._._._._._._._._.u u u t 0 q t m m _._._._._._._._._._._._._._._._._._.",
"_._._._._._._._._._._._._._._._._._._._._._.Q. .u u q 5 7 q t t u _._._._._._._._._._._._._._._._._.",
"_._._._._._._._._._._._._._._._._._.W.W.).D.>.u u t &.;.:.X.q t u u _._._._._._._._._._._._._._._._.",
"_._._._._._._._._._._._._._._.< 2 k.C.Z.N.>.w t  .:.s.H.H.e.6 q u u u _._._._._._._._._._._._._._._.",
"_._._._._._._._._._._._._._.X O < R k.U.2.w u r 9 n S.I.A.Q 6 9 t u u _._._._._._._._._._._._._._._.",
"_._._._._._._._._._._._._._.o D E 2 R Z.1.e  .#.] A B.I.3.o 5 7 t u u _._._._._._._._._._._._._._._.",
"_._._._._._._._._._._._._.* v n.b.E L / @.e ..5.~.m.F.I.V.) 5 7 u u u _._._._._._._._._._._._._._._.",
"_._._._._._._._._._._._._.x *.b.b.n.n.c.~ r u o.G.J.P.P.J.0.6 8 u  .y _._._._._._._._._._._._._._._.",
"_._._._._._._._._._._._._.< K b.b.b.v.E < b y  .5.G.K.J.s.$.8 |  .O.x < < 4 J J _._._._._._._._._._.",
"_._._._._._._._._._._._._._._._.b.n.I < < < 1 z $.-.5.7.<.B  .%.%.z < < < 3 T J J J _._._._._._._._.",
"_._._._._._._._._._._._._._._._._.b.L < < < < < z z a.q.I L U Y z 2 < < 3 J J J J O . . _._._._._._.",
"_._._._._._._._._._._._._._._._._._.} P < < < _._.G ^ } } h.[ J G _._._._._._._.H o . . . _._._._._.",
"_._._._._._._._._._._._._._._._._._._._._._._._._.J H { m.m.c.J P _._._._._._._._.o   _._._._._._._.",
"_._._._._._._._._._._._._._._._._._._._._._._._._._.J _ [ [ _ J J _._._._._._._._._._._._._._._._._.",
"_._._._._._._._._._._._._._._._._._._._._._._._._._.J J J W _ / J _._._._._._._._._._._._._._._._._.",
"_._._._._._._._._._._._._._._._._._._._._._._._._._.J J J _ n.v.( _._._._._._._._._._._._._._._._._.",
"_._._._._._._._._._._._._._._._._._._._._._._._._._.T L K ) M.M.c._._._._._._._._._._._._._._._._._.",
"_._._._._._._._._._._._._._._._._._._._._._._._., R.! p p Z g.L.F ; _._._._._._._._._._._._._._._._.",
"_._._._._._._._._._._._._._._._._._._._._._._._.; p.M f d N e.p.> = _._._._._._._._._._._._._._._._.",
"_._._._._._._._._._._._._._._._._._._._._._._.- ; M k f g g N c ; ; ; _._._._._._._._._._._._._._._.",
"_._._._._._._._._._._._._._._._._.- - - - - - - a d h g g g i X ; = = _._._._._._._._._._._._._._._.",
"_._._._._._._._._._._._._._._._._.- - - - - - # f f f g g i @ . = ; ; _._._._._._._._._._._._._._._.",
"_._._._._._._._._._._._._._._._.- - - - - - + X h f f g g $   . = = ; ; _._._._._._._._._._._._._._.",
"_._._._._._._._._._._._._._._._.- - - - @ +   X f f g g g $   . @ ; ; = ; _._._._._._._._._._._._._.",
"_._._._._._._._._._._._._._._._._.- - > * #   X i f h f g $   . . @ - - - _._._._._._._._._._._._._.",
"_._._._._._._._._._._._._._._._._.- = m =.V X . X i : a g $ . . . X & ; _._._._._._._._._._._._._._.",
"_._._._._._._._._._._._._._._._._._._.r.u.e.o.. . i % - s s + . X o.#.l = _._._._._._._._._._._._._.",
"_._._._._._._._._._._._._._._._._._._.d.i.i.w.S S j % - - a s @ o w.u.=.C _._._._._._._._._._._._._.",
"_._._._._._._._._._._._._._._._._._._.i.f.t.^ W { _._.- ; ; & = _.u.f.y.,.H _._._._._._._._._._._._.",
"_._._._._._._._._._._._._._._._._._._._._._.W [ b._._._.= ; - _._._.d.f.9.W { _._._._._._._._._._._.",
"_._._._._._._._._._._._._._._._._._._._._._._.n.n.n._._._.; _._._._._.f.8.' n.b._._._._._._._._._._.",
"_._._._._._._._._._._._._._._._._._._._._._._.b.h.h._._._._._._._._._._._._.b.b.h._._._._._._._._._.",
"_._._._._._._._._._._._._._._._._._._._._._._._.J J _._._._._._._._._._._._._.c.T J _._._._._._._._.",
"_._._._._._._._._._._._._._._._._._._._._._._._._._._._._._._._._._._._._._._._._._._._._._._._._._."
};
