/* XPM */
static char *result[] = {
/* columns rows colors chars-per-pixel */
"50 50 167 2 ",
"   c #28081D",
".  c #0E0021",
"X  c #120022",
"o  c #190125",
"O  c #1E0228",
"+  c #1D142A",
"@  c #250324",
"#  c #240C23",
"$  c #23032B",
"%  c #2C062E",
"&  c #2A0925",
"*  c #340626",
"=  c #3D052D",
"-  c #390626",
";  c #221E23",
":  c #3B1623",
">  c #2D0431",
",  c #320632",
"<  c #370B33",
"1  c #251934",
"2  c #3F1234",
"3  c #2C2C2C",
"4  c #282828",
"5  c #3E2F27",
"6  c #36302C",
"7  c #3B322C",
"8  c #323433",
"9  c #343739",
"0  c #343839",
"q  c #4F0F0A",
"w  c #5A160B",
"e  c #56150E",
"r  c #40171F",
"t  c #5F1C10",
"y  c #611B0E",
"u  c #641F12",
"i  c #64210F",
"p  c #6A2412",
"a  c #662A1C",
"s  c #722916",
"d  c #772D18",
"f  c #7A2E19",
"g  c #7D311A",
"h  c #7F391E",
"j  c #450826",
"k  c #4C0A27",
"l  c #44082C",
"z  c #4E0828",
"x  c #530A27",
"c  c #550B28",
"v  c #590B28",
"b  c #4C162E",
"n  c #5F142A",
"m  c #641929",
"M  c #492629",
"N  c #64292C",
"B  c #65352A",
"V  c #793421",
"C  c #762F31",
"Z  c #6F462A",
"A  c #774B34",
"S  c #383A45",
"D  c #433D50",
"F  c #3B454A",
"G  c #3E4A4E",
"H  c #2D436B",
"J  c #424C4E",
"K  c #4D4746",
"L  c #5B5449",
"P  c #414E52",
"I  c #435053",
"U  c #4D5A5E",
"Y  c #485256",
"T  c #59585A",
"R  c #715752",
"E  c #675547",
"W  c #776E4F",
"Q  c #7C7451",
"!  c #525060",
"~  c #576569",
"^  c #5B6B6F",
"/  c #5C6768",
"(  c #5B6B72",
")  c #626C6F",
"_  c #716F63",
"`  c #7E7D63",
"'  c #686375",
"]  c #646D75",
"[  c #736572",
"{  c #667175",
"}  c #6B7A7E",
"|  c #6A717C",
" . c #81341B",
".. c #8B3C1C",
"X. c #893A18",
"o. c #813727",
"O. c #94431F",
"+. c #994A1E",
"@. c #834C2A",
"#. c #8B4727",
"$. c #964E2C",
"%. c #9E5929",
"&. c #87523B",
"*. c #975B3D",
"=. c #A35A28",
"-. c #B7692E",
";. c #A66A3D",
":. c #C07B39",
">. c #D07A31",
",. c #84545D",
"<. c #A06E4D",
"1. c #877063",
"2. c #C37D40",
"3. c #C8853C",
"4. c #D88131",
"5. c #E78E35",
"6. c #EB9136",
"7. c #A7874D",
"8. c #BD8A49",
"9. c #B09553",
"0. c #8D897C",
"q. c #C58547",
"w. c #E89642",
"e. c #DFAF57",
"r. c #E1AC52",
"t. c #EFBC56",
"y. c #E8B454",
"u. c #F2BD55",
"i. c #D4AA78",
"p. c #F4BF78",
"a. c #F6C258",
"s. c #F8C37A",
"d. c #FCD47D",
"f. c #6A7D84",
"g. c #787D86",
"h. c #7F70AA",
"j. c #7F76A2",
"k. c #8173A8",
"l. c #788587",
"z. c #7D8D93",
"x. c #7E9097",
"c. c #908D82",
"v. c #809096",
"b. c #839499",
"n. c #969A97",
"m. c #AAAB9B",
"M. c #BEBC9D",
"N. c #A1A3B0",
"B. c #C4BFA3",
"V. c #DCC497",
"C. c #F5C989",
"Z. c #FCD78B",
"A. c #E2C390",
"S. c #EFD49F",
"D. c #FBD596",
"F. c #D1C0A7",
"G. c #FFDFA2",
"H. c #FFE3A4",
"J. c #B4BBC9",
"K. c #C0B6CA",
"L. c #CDC7DD",
"P. c #E9DBD3",
"I. c #F6EBC1",
"U. c #FCF8CC",
"Y. c white",
"T. c #E5EBF6",
"R. c None",
/* pixels */
"R.R.R.R.R.R.R.R.R.R.R.R.R.R.R.R.R.R.R.R.R.R.R.R.R.R.R.R.R.R.R.R.R.R.R.R.R.R.R.R.R.R.R.R.R.R.R.R.R.R.",
"R.R.R.R.R.R.R.R.R.R.R.R.R.R.R.R.R.R.R.R.R.R.R.R.R.R.R.R.R.R.R.R.R.R.R.R.R.R.R.R.R.R.R.R.R.R.R.R.R.R.",
"R.R.R.R.R.R.R.R.R.R.R.R.R.R.R.R.R.R.R.R.R.R.R.R.R.R.R.R.R.R.R.R.R.R.R.R.R.R.R.R.R.R.R.R.R.R.R.R.R.R.",
"R.R.R.R.R.R.R.R.R.R.R.R.R.R.R.R.R.R.R.R.R.R.R.R.R.R.R.R.R.R.R.R.R.R.R.R.R.R.R.R.R.R.R.R.R.R.R.R.R.R.",
"R.R.R.R.R.R.R.R.R.R.R.R.R.R.R.R.R.R.R.R.R.R.R.R.R.R.R.R.R.R.R.R.R.R.R.R.R.R.R.R.R.R.R.R.R.R.R.R.R.R.",
"R.R.R.R.R.R.R.R.R.R.R.R.R.R.R.R.R.R.R.R.R.R.R.R.R.R.R.R.R.R.R.R.R.R.R.R.R.R.R.R.R.R.R.R.R.R.R.R.R.R.",
"R.R.R.R.R.R.R.R.R.R.R.R.R.R.R.R.R.R.R.R.R.R.R.R.R.R.R.R.R.R.R.R.R.R.R.R.R.R.R.R.R.R.R.R.R.R.R.R.R.R.",
"R.R.R.R.R.R.R.R.R.R.R.R.R.R.R.R.R.R.R.R.R.R.R.R.R.R.R.R.R.R.R.R.R.R.R.R.R.R.R.R.R.R.R.R.R.R.R.R.R.R.",
"R.R.R.R.R.R.R.R.R.R.R.R.R.R.R.R.R.R.R.R.R.R.R.R.R.R.R.R.R.R.R.R.R.R.R.R.R.R.R.R.R.R.R.R.R.R.R.R.R.R.",
"R.R.R.R.R.R.R.R.R.R.R.R.R.R.R.R.R.R.R.R.R.R.R.R.R.R.R.R.R.R.R.R.R.R.R.R.R.R.R.R.R.R.R.R.R.R.R.R.R.R.",
"R.R.R.R.R.R.R.R.R.R.R.R.R.R.R.R.R.R.R.R.R.R.R.R.R.R.R.R.R.R.R.R.R.R.R.R.R.R.R.R.R.R.R.R.R.R.R.R.R.R.",
"R.R.R.R.R.R.R.R.R.R.R.R.R.R.R.R.R.R.R.R.R.R.R.R.R.R.R.R.R.R.R.R.R.R.R.R.R.R.R.R.R.R.R.R.R.R.R.R.R.R.",
"R.R.R.R.R.R.R.R.R.R.R.R.R.R.R.R.R.R.R.R.R.R.R.R.R.R.R.R.R.R.g g g g g g R.R.R.R.R.R.R.R.R.R.R.R.R.R.",
"R.R.R.R.R.R.R.R.R.R.R.R.R.R.R.R.R.R.R.R.R.R.R.R.R.R.R.R.R.g g g g g s d g R.R.R.R.R.R.R.R.R.R.R.R.R.",
"R.R.R.R.R.R.R.R.R.R.R.R.R.R.R.R.R.R.R.R.R.R.R.R.R.R.R.g g g g g g s e y f g R.R.R.R.R.R.R.R.R.R.R.R.",
"R.R.R.R.R.R.R.R.R.R.R.R.R.R.R.R.R.R.R.R.R.R.R.R.R.R.g g g g g g g i i i p f R.R.R.R.R.R.R.R.R.R.R.R.",
"R.R.R.R.R.R.R.R.R.R.R.R.R.R.R.R.R.R.R.R.R.R.R.R.R. .g g g g g g ..4.5.6.$.w  .R.R.R.R.R.R.R.R.R.R.R.",
"R.R.R.R.R.R.R.R.R.R.R.R.R.R.R.R.R.R.R.R.R.R.R.R.R.f g g g g f X.4.C.D.D.<.w  .R.R.R.R.R.R.R.R.R.R.R.",
"R.R.R.R.R.R.R.R.R.R.R.R.R.R.R.R.R.R.R.R.R.R.R.R.g g g g  . .a   M A.H.1.r y  .R.R.R.R.R.R.R.R.R.R.R.",
"R.R.R.R.R.R.R.R.R.R.R.R.R.R.R.R.R.R.3 R.R.R.R.R.g g g g f $.2.n.H V.H.| 1 y  .R.R.R.R.R.R.R.R.R.R.R.",
"R.R.R.R.R.R.R.R.R.R.R.R.R.R.R.R.R.R.3 4 g.T.Y.P. .g g g f X.2.I.m.G.G.M.R w g R.R.R.R.R.R.R.R.R.R.R.",
"R.R.R.R.R.R.R.R.R.R.R.R.R.R.R.R.R.R.+ ; T N.L.J.,.g  .f  .s $.p.H.H.G.Z.;.e  .R.R.R.R.R.R.R.R.R.R.R.",
"R.R.R.R.R.R.R.R.R.R.R.R.R.R.R.T @.# 1 F 8 D h.h.k.B N h ......>.s.s.i.:.X.i f R.R.R.R.R.R.R.R.R.R.R.",
"R.R.R.R.R.R.R.R.R.R.R.R.R.R.R.J.0 X | b./ ! j.R.R.3 3 Z =.$.V ..w.w.g q p  .O.R.R.R.R.R.R.R.R.R.R.R.",
"R.R.R.R.R.R.R.R.R.R.R.R.R.R.R.R.R.R.z.z.z.z.{ 3 3 3 3 6 3 0 K #.C.D.<.s f #.=.%.R.R.R.R.R.R.R.R.R.R.",
"R.R.R.R.R.R.R.R.R.R.R.R.R.R.R.R.R.R.z.z.v.{ 8 3 3 3 3 3 3 0 G L w.C._ N +.Z 6 6 3 G G R.R.R.R.R.R.R.",
"R.R.R.R.R.R.R.R.R.R.R.R.R.R.R.R.R.R.R.z.v.) 4 3 3 3 R.R.R.R.U l.c.n.z.K M 7 3 3 3 G G G R.R.R.R.R.R.",
"R.R.R.R.R.R.R.R.R.R.R.R.R.R.R.R.R.R.R.R.z.l.) R.R.R.R.R.R.F U z.z.v.v.Y 4 3 3 3 3 G G G I R.R.R.R.R.",
"R.R.R.R.R.R.R.R.R.R.R.R.R.R.R.R.R.R.R.R.R.R.R.R.R.R.R.R.G G I ~ ~ ~ ~ J R.R.R.R.R.R.J J 9 + . R.R.R.",
"R.R.R.R.R.R.R.R.R.R.R.R.R.R.R.R.R.R.R.R.R.R.R.R.R.R.R.R.R.F P ( ^ ( ^ f.R.R.R.R.R.R.R.P 1 . X X R.R.",
"R.R.R.R.R.R.R.R.R.R.R.R.R.R.R.R.R.R.R.R.R.R.R.R.R.R.R.R.E ` l.' [ [ ' 0.M.R.R.R.R.R.R.R.X X X X R.R.",
"R.R.R.R.R.R.R.R.R.R.R.R.R.R.R.R.R.R.R.R.R.R.R.R.R.R.R.% &.d.F.= x x = ;.Z.U.R.R.R.R.R.R.R.X R.R.R.R.",
"R.R.R.R.R.R.R.R.R.R.R.R.R.R.R.R.R.R.R.R.R.R.R.R.R., , > N -.q.v v c z o.q.e.R.R.R.R.R.R.R.R.R.R.R.R.",
"R.R.R.R.R.R.R.R.R.R.R.R.R.R.R.R.R.R.R.R.R.R.R.R., , , O $ b m b v c $ > 2 2 R.R.R.R.R.R.R.R.R.R.R.R.",
"R.R.R.R.R.R.R.R.R.R.R.R.R.R.R.R.R.R.R.R.R., , , , , O * x x c c c @ X $ , , R.R.R.R.R.R.R.R.R.R.R.R.",
"R.R.R.R.R.R.R.R.R.R.R.R.R.R.R.R.R.R.R.R., , , , , O - x v c c x @ X $ , , , R.R.R.R.R.R.R.R.R.R.R.R.",
"R.R.R.R.R.R.R.R.R.R.R.R.R.R.R.R.R.R.R., , , , , , X j v c c c k X X % , , , R.R.R.R.R.R.R.R.R.R.R.R.",
"R.R.R.R.R.R.R.R.R.R.R.R.R.R.R.R.R.R., , , , , , , o j v c v k * X X O > , , R.R.R.R.R.R.R.R.R.R.R.R.",
"R.R.R.R.R.R.R.R.R.R.R.R.R.R.R.R.R., , , , , , > $ & k j j v j X X X X O > , , R.R.R.R.R.R.R.R.R.R.R.",
"R.R.R.R.R.R.R.R.R.R.R.R.R.R.R.R.R., , , , , 2 b : x k @ - c l o X X X . $ , , R.R.R.R.R.R.R.R.R.R.R.",
"R.R.R.R.R.R.R.R.R.R.R.R.R.R.R.R.R., , R.R.R.R.-.-.m @ $ l l , > o X   # & > , , R.R.R.R.R.R.R.R.R.R.",
"R.R.R.R.R.R.R.R.R.R.R.R.R.R.R.R.R.R.R.R.R.R.R.t.y.C R., , , , , > o @.-.B $ , , R.R.R.R.R.R.R.R.R.R.",
"R.R.R.R.R.R.R.R.R.R.R.R.R.R.R.R.R.R.R.R.R.R.R.u.u.r.R.R., , , , , , 8.u.3.A F R.R.R.R.R.R.R.R.R.R.R.",
"R.R.R.R.R.R.R.R.R.R.R.R.R.R.R.R.R.R.R.R.R.R.R.a.t.Q R.R.R., , , R.R.y.a.u.7.F G R.R.R.R.R.R.R.R.R.R.",
"R.R.R.R.R.R.R.R.R.R.R.R.R.R.R.R.R.R.R.R.R.R.R.Q W P R.R.R.R.R.R.R.R.R.u.a.9.Y f.z.R.R.R.R.R.R.R.R.R.",
"R.R.R.R.R.R.R.R.R.R.R.R.R.R.R.R.R.R.R.R.R.R.R.( ( I R.R.R.R.R.R.R.R.R.R.R.R.~ v.z.R.R.R.R.R.R.R.R.R.",
"R.R.R.R.R.R.R.R.R.R.R.R.R.R.R.R.R.R.R.R.R.R.R.v.v.U R.R.R.R.R.R.R.R.R.R.R.R.R.v.v.R.R.R.R.R.R.R.R.R.",
"R.R.R.R.R.R.R.R.R.R.R.R.R.R.R.R.R.R.R.R.R.R.R.} f.R.R.R.R.R.R.R.R.R.R.R.R.R.R.} } R.R.R.R.R.R.R.R.R.",
"R.R.R.R.R.R.R.R.R.R.R.R.R.R.R.R.R.R.R.R.R.R.R.J J R.R.R.R.R.R.R.R.R.R.R.R.R.R.G G R.R.R.R.R.R.R.R.R.",
"R.R.R.R.R.R.R.R.R.R.R.R.R.R.R.R.R.R.R.R.R.R.R.R.R.R.R.R.R.R.R.R.R.R.R.R.R.R.R.R.R.R.R.R.R.R.R.R.R.R."
};
