/* XPM */
static char *result[] = {
/* columns rows colors chars-per-pixel */
"50 50 176 2 ",
"   c #2E0D1C",
".  c #390F1C",
"X  c #0E0022",
"o  c #120022",
"O  c #1B0225",
"+  c #1B0128",
"@  c #19092B",
"#  c #230323",
"$  c #280425",
"%  c #25042B",
"&  c #290B25",
"*  c #3B0726",
"=  c #3D042B",
"-  c #241F29",
";  c #291824",
":  c #3B1723",
">  c #3E1C24",
",  c #2D0430",
"<  c #320632",
"1  c #340934",
"2  c #2B2C2C",
"3  c #272C2D",
"4  c #3C2D29",
"5  c #342C2A",
"6  c #35312D",
"7  c #3D332B",
"8  c #2B283A",
"9  c #313334",
"0  c #353439",
"q  c #3A3C3D",
"w  c #52120C",
"e  c #5F1C10",
"r  c #64210F",
"t  c #6C2513",
"y  c #702915",
"u  c #772D18",
"i  c #7B2F1A",
"p  c #77311E",
"a  c #7D311A",
"s  c #440926",
"d  c #4B0927",
"f  c #44092C",
"g  c #48092D",
"h  c #540725",
"j  c #520A27",
"k  c #550B28",
"l  c #590C28",
"z  c #4E1A2D",
"x  c #541E2B",
"c  c #522E24",
"v  c #5C2F22",
"b  c #522420",
"n  c #43352B",
"m  c #4D2838",
"M  c #503C38",
"N  c #633221",
"B  c #7B3928",
"V  c #59423A",
"C  c #634E3D",
"Z  c #373845",
"A  c #283258",
"S  c #403247",
"D  c #3A4346",
"F  c #3A454A",
"G  c #3F4B4E",
"H  c #3B4A50",
"J  c #434D4E",
"K  c #404345",
"L  c #464D51",
"P  c #404158",
"I  c #435053",
"U  c #495559",
"Y  c #4D5859",
"T  c #6B5D4C",
"R  c #705542",
"E  c #61604E",
"W  c #7B6C4D",
"Q  c #756D4F",
"!  c #7B7351",
"~  c #574064",
"^  c #4E5C61",
"/  c #515E61",
"(  c #5E5168",
")  c #465B7D",
"_  c #6D5464",
"`  c #675075",
"'  c #5A666A",
"]  c #5B6B72",
"[  c #606467",
"{  c #657678",
"}  c #6B7A7E",
"|  c #617376",
" . c #82341A",
".. c #86391D",
"X. c #843A21",
"o. c #90421F",
"O. c #9C4E23",
"+. c #8C5129",
"@. c #94532A",
"#. c #824832",
"$. c #8B5732",
"%. c #AC5925",
"&. c #A05727",
"*. c #B36228",
"=. c #B7672A",
"-. c #B46D34",
";. c #B1743C",
":. c #A46538",
">. c #C06826",
",. c #C37330",
"<. c #D77F31",
"1. c #D97925",
"2. c #B67943",
"3. c #A07E62",
"4. c #CC853C",
"5. c #D68533",
"6. c #E88F36",
"7. c #F69B3D",
"8. c #AB8C4F",
"9. c #BB8C4A",
"0. c #B09654",
"q. c #98926D",
"w. c #848371",
"e. c #958974",
"r. c #C6964E",
"t. c #D29140",
"y. c #D59658",
"u. c #EBB653",
"i. c #EFBC56",
"p. c #F3BF56",
"a. c #D59D65",
"s. c #D7A870",
"d. c #EEAE63",
"f. c #F7C458",
"g. c #FBC658",
"h. c #FBCD74",
"j. c #6F6789",
"k. c #7F6D99",
"l. c #8375AA",
"z. c #8679AD",
"x. c #758589",
"c. c #7A8688",
"v. c #7E8E93",
"b. c #868886",
"n. c #848B96",
"m. c #809196",
"M. c #829398",
"N. c #8A9492",
"B. c #9B9589",
"V. c #B8A188",
"C. c #9891AF",
"Z. c #9D98BE",
"A. c #CEAF83",
"S. c #CEB289",
"D. c #C7B796",
"F. c #D5BE9C",
"G. c #E6B980",
"H. c #F6D082",
"J. c #FCD696",
"K. c #FFDB96",
"L. c #F3C685",
"P. c #C3C4AE",
"I. c #D7D0A5",
"U. c #E6D0A1",
"Y. c #F9DAA1",
"T. c #FFE4A5",
"R. c #FFE8A8",
"E. c #FEF3BD",
"W. c #ADA6C8",
"Q. c #BBB3CF",
"!. c #B7BCD5",
"~. c #BEC4D7",
"^. c #CCC2CD",
"/. c #C8CDDF",
"(. c #ECEBF2",
"). c None",
/* pixels */
").).).).).).).).).).).).).).).).).).).).).).).).).).).).).).).).).).).).).).).).).).).).).).).).).).",
").).).).).).).).).).).).).).).).).).).).).).).).).).).).).).).).).).).).).).).).).).).).).).).).).).",
").).).).).).).).).).).).).).).).).).).).).).).).).).).).).).).).).).).).).).).).).).).).).).).).).).",
").).).).).).).).).).).).).).).).).).).).).).).).).).).).).).).).).).).).).).).).).).).).).).).).).).",
").).).).).).).).).).).).).).).).).).).).).).).).).).).).).).).).).).).).).).).).).).).).).).).).).).",
").).).).).).).).).).).).).).).).).).).).).).).).).).).).).).).).).).).).).).).).).).).).).).).).).).",
").).).).).).).).).).).).).).).).).).).).).).).).).).).).).).).).).).).).).).).).).).).).).).).).).).",
").).).).).).).).).).).).).).).).).).).).).).).).).).).).).).).).).).).).).).).).).).).).).).).).).).",
").).).).).).).).).).).).).).).).).).).).).).).).).).).).).).).).).).).).).).).).).).).).).).).).).).",
").).).).).).).).).).).).).).).).).).).).).).).).).).).).).).).).).).).).).).).).).).).).).).).).).).",
").).).).).).).).).).).).).).).).).).).).).).).).).).).).).).).).).).).).).).).).).).).).).).).).).).",
").).).).).).).).).).).).).).).).).).).).).).).).).).).).).).).).).).).).).).).).).).).).).).).).).).",
").).).).).).).).).).).).).).).).).).).).).).).).).).).).).).).).).a a a a a  .).).).).).).).).).).).",
").).).).).).).).).).).).).).).).).).).).).).).).).).).).).).).).a a a a a i t  .).).).).).).).).).).",
").).).).).).).).).).).).).).).).).).).).).).).).).).).).).a a a a a a a u e w y ).).).).).).).).).).",
").).).).).).).).).).).).).).).).).).).).).).).).).).).).a a a a a a a a y r r r a ).).).).).).).).).",
").).).).).).).).).).).).).).).).).).).).).).).).).).).a a a a a i a a  .*.6.6.5.X.).).).).).).).).).",
").).).).).).).).).).).).).).).).).).).).).).).).).).).a a a a a  .i i *.d.J.K.s.X.).).).).).).).).).",
").).).).).).).).).).).).).).).).).).).).).).).).).).).4 v i a a  .u .   3.R.S.m a ).).).).).).).).).",
").).).).).).).).).).).).).).).).).).).).).).).).).).).3 c  .a a  .=.V.) w.T.D.A B ).).).).).).).).).",
").).).).).).).).).).).).).).).).).).).).).).).).m.q 2 2 n c v i a %.Y.P.F.K.U.B.a ).).).).).).).).).",
").).).).).).).).).).).).).).).).).).).).).).).).[ 9 2 2 2 2 2 y o.i y.J.R.T.K.d.X.).).).).).).).).).",
").).).).).).).).).).).).).).).).).).).).).).).x.2 2 2 2 2 2 3 9 $.O.1.a.A.s.a.>. .).).).).).).).).).",
").).).).).).).).).).).).).).).).).2 7 ).).).v.x.K q 9 ).).).2 9 J 5.7.Q M B i  ...).).).).).).).).).",
").).).).).).).).).).).).).).).).).3 +.).).v.v.v.v.v.).).).).).J Y 4.L.w.G V  ...@.).).).).).).).).).",
").).).).).).).).).).).).).).).).).).*.b P v.v.).).).).).).).G U x.b.N.m.' C %.@.n 6 F ).).).).).).).",
").).).).).).).).).).).).).).).).).).).# @ 8 0 2 ).).).).).).U x.n.v.m.m.' 5 n n 6 D G G ).).).).).).",
").).).).).).).).).).).).).).).).).).).- - - 0 j.~.).).).).G I / ^ ^ / L 9 2 3 3 2 G G G ).).).).).).",
").).).).).).).).).).).).).).).).).).).).).[ n.z.Z.(.).).).F F I | { { ] L ).).).).G G G G ).).).).).",
").).).).).).).).).).).).).).).).).).).).).).~.Z.l.Q./.).R q.b.Z _ _ ( e.I.).).).).).G G G G ).).).).",
").).).).).).).).).).).).).).).).).).).).).).)./.W.z.!.` #.h.F.f h h f :.H.E.).).).).).).G F 8 ).).).",
").).).).).).).).).).).).).).).).).).).).).).).).^.k.C.~ x -.2.k l k h B ;.r.).).).).).).Z 8 o o ).).",
").).).).).).).).).).).).).).).).).).).).).).).< 1 1 1 % % f l k k k j = < 1 ).).).).).).).o o o ).).",
").).).).).).).).).).).).).).).).).).).).).< < < < < < f k k k k l j $ o % 1 ).).).).).).).).o o ).).",
").).).).).).).).).).).).).).).).).).< < < < < < < < + * h l l l j # o % < < ).).).).).).).).).).).).",
").).).).).).).).).).).).).).).).).< < < < < < < < + * j l l s # # o o % 1 < ).).).).).).).).).).).).",
").).).).).).).).).).).).).).).).).< < < < < < < < * j l l s $ % o o o % < < ).).).).).).).).).).).).",
").).).).).).).).).).).).).).).).).< < ).).< < , % j * d l s % < o o o , < < ).).).).).).).).).).).).",
").).).).).).).).).).).).).).).).).< ).).).).< , o d # & d g 1 , o o X + , 1 1 ).).).).).).).).).).).",
").).).).).).).).).).).).).).).).).).).).).).).x : s O o * g 1 , + o ; : & , < < ).).).).).).).).).).",
").).).).).).).).).).).).).).).).).).).).).).).-.=.z O % f g < < , O +.,.C , < < ).).).).).).).).).).",
").).).).).).).).).).).).).).).).).).).).).).).i.u.-.z , < 1 < < , O 9.f.5.B , < ).).).).).).).).).).",
").).).).).).).).).).).).).).).).).).).).).).).f.f.u.)., < < < < < < r.f.p.8.Z < ).).).).).).).).).).",
").).).).).).).).).).).).).).).).).).).).).).).g.f.Q ).< < < < < < < z r.g.0.F ).).).).).).).).).).).",
").).).).).).).).).).).).).).).).).).).).).).).! Q G ).).< < < < < ).).T ! E U v.).).).).).).).).).).",
").).).).).).).).).).).).).).).).).).).).).).).| ] H ).).).< < < ).).).).).^ } v.v.).).).).).).).).).",
").).).).).).).).).).).).).).).).).).).).).).).M.M.Y ).).).).< < ).).).).).).m.m.m.).).).).).).).).).",
").).).).).).).).).).).).).).).).).).).).).).).} j.).).).).).).).).).).).).).).} } ).).).).).).).).).",
").).).).).).).).).).).).).).).).).).).).).).).G G ).).).).).).).).).).).).).).G G ).).).).).).).).).",
").).).).).).).).).).).).).).).).).).).).).).).).).).).).).).).).).).).).).).).).).).).).).).).).).)."
};
