/* XPM */
static char *result[] = {
/* columns rows colors chars-per-pixel */
"50 50 169 2 ",
"   c #0F0022",
".  c #130122",
"X  c #1A0225",
"o  c #1D0329",
"O  c #190C2E",
"+  c #240324",
"@  c #290D23",
"#  c #24042B",
"$  c #2C052C",
"%  c #2A0625",
"&  c #350625",
"*  c #3C062D",
"=  c #3F082F",
"-  c #3A0925",
";  c #201727",
":  c #3F1C24",
">  c #2E0431",
",  c #320632",
"<  c #3B1D35",
"1  c #2C2C2C",
"2  c #262424",
"3  c #3E2D28",
"4  c #35383D",
"5  c #5A150B",
"6  c #53130D",
"7  c #6B200F",
"8  c #6C2514",
"9  c #642012",
"0  c #782E19",
"q  c #76311C",
"w  c #7D311A",
"e  c #4D0A27",
"r  c #43092E",
"t  c #4B092A",
"y  c #540827",
"u  c #550B28",
"i  c #590C28",
"p  c #580B27",
"a  c #501A2F",
"s  c #641929",
"d  c #4D2E25",
"f  c #59262A",
"g  c #533125",
"h  c #5C2D38",
"j  c #6B232D",
"k  c #6A3425",
"l  c #692430",
"z  c #643E31",
"x  c #793A2B",
"c  c #4D423F",
"v  c #50423D",
"b  c #61402A",
"n  c #784931",
"m  c #393C46",
"M  c #522A49",
"N  c #3E4B4E",
"B  c #394548",
"V  c #3E4B50",
"C  c #434A4B",
"Z  c #4D4340",
"A  c #4C524C",
"S  c #5E564D",
"D  c #4E4953",
"F  c #455358",
"G  c #6C6D5B",
"H  c #4B5C61",
"J  c #595F69",
"K  c #56656B",
"L  c #556368",
"P  c #5B6C70",
"I  c #616B6E",
"U  c #616C72",
"Y  c #646C78",
"T  c #6C7A7F",
"R  c #67737A",
"E  c #81361C",
"W  c #86381B",
"Q  c #8B3C1A",
"!  c #82372A",
"~  c #8E4115",
"^  c #9E4D21",
"/  c #974B26",
"(  c #A24F22",
")  c #A45626",
"_  c #AE622B",
"`  c #BB6B2A",
"'  c #AE6431",
"]  c #B66E32",
"[  c #926042",
"{  c #8C7345",
"}  c #877B53",
"|  c #A37453",
" . c #A87856",
".. c #B27D57",
"X. c #BC843E",
"o. c #C7883E",
"O. c #DA8435",
"+. c #9A8653",
"@. c #958250",
"#. c #B48245",
"$. c #B89D5E",
"%. c #B29A7D",
"&. c #D29A4A",
"*. c #E49648",
"=. c #E19E44",
"-. c #C7A14F",
";. c #C5A355",
":. c #DDAF51",
">. c #EAB04F",
",. c #E0AD58",
"<. c #EBB451",
"1. c #F2BD55",
"2. c #FEB055",
"3. c #CFA574",
"4. c #EABB62",
"5. c #F4C159",
"6. c #FAC457",
"7. c #665C80",
"8. c #577493",
"9. c #6D628C",
"0. c #6F7E82",
"q. c #747984",
"w. c #7E6FA6",
"e. c #7F71A7",
"r. c #8072A7",
"t. c #8173A8",
"y. c #867AAC",
"u. c #897DAE",
"i. c #7A8A8E",
"p. c #7D8D92",
"a. c #7F9195",
"s. c #84809E",
"d. c #809096",
"f. c #839498",
"g. c #B6AF97",
"h. c #8E83B4",
"j. c #9286B4",
"k. c #9489B5",
"l. c #9A8EB9",
"z. c #9A92BA",
"x. c #99A2A6",
"c. c #FED28E",
"v. c #F0D09C",
"b. c #E1CEA3",
"n. c #F4D9A2",
"m. c #E4D9B9",
"M. c #FFE5A7",
"N. c #A7A5C5",
"B. c #ADAECA",
"V. c #A9A6C6",
"C. c #B7AFCD",
"Z. c #B3B5CE",
"A. c #BEB6D1",
"S. c #C2BBD5",
"D. c #BFC5D8",
"F. c #C3CBDB",
"G. c #CDC7DC",
"H. c #EEE6C1",
"J. c #D1CFE0",
"K. c #CCD2E0",
"L. c #D3D3E2",
"P. c #E4E4EC",
"I. c #E5E9EF",
"U. c #EDEBF2",
"Y. c #F0EEF4",
"T. c #F2F2F6",
"R. c #F7F7F9",
"E. c #FCFCFC",
"W. c None",
/* pixels */
"W.W.W.W.W.W.W.W.W.W.W.W.W.W.W.W.W.W.W.W.W.W.W.W.W.W.W.W.W.W.W.W.W.W.W.W.W.W.W.W.W.W.W.W.W.W.W.W.W.W.",
"W.W.W.W.W.W.W.W.W.W.W.W.W.W.W.W.W.W.W.W.W.W.W.W.W.W.W.W.W.W.W.W.W.W.W.W.W.W.W.W.W.W.W.W.W.W.W.W.W.W.",
"W.W.W.W.W.W.W.W.W.W.W.W.W.W.W.W.W.W.W.W.W.W.W.W.W.W.W.W.W.W.W.W.W.W.W.W.W.W.W.W.W.W.W.W.W.W.W.W.W.W.",
"W.W.W.W.W.W.W.W.W.W.W.W.W.W.W.W.W.W.W.W.W.W.W.W.W.E.E.E.E.E.E.E.E.E.E.E.E.E.E.E.W.W.W.W.W.W.W.W.W.W.",
"W.W.W.W.W.W.W.W.W.W.W.W.W.W.W.W.W.W.W.W.W.W.W.W.E.E.E.E.E.E.E.E.E.E.E.E.E.E.E.E.E.W.W.W.W.W.W.W.W.W.",
"W.W.W.W.W.W.W.W.W.W.W.W.W.W.W.W.W.W.W.E.E.E.E.E.E.E.E.E.E.E.E.E.E.E.E.E.E.E.E.E.E.E.W.W.W.W.W.W.W.W.",
"W.W.W.W.W.W.W.W.W.W.W.W.W.W.E.E.E.E.E.E.E.E.E.E.E.E.E.E.E.E.E.E.E.E.E.E.E.E.E.E.E.E.W.W.W.W.W.W.W.W.",
"W.W.W.W.W.W.W.W.W.W.E.E.E.E.E.E.E.E.E.E.E.E.E.E.E.E.E.E.E.E.E.E.E.E.E.E.E.E.E.E.E.E.E.W.W.W.W.W.W.W.",
"W.W.W.W.W.W.W.W.E.E.E.E.E.E.E.E.E.E.E.E.E.E.E.E.E.E.E.E.E.E.E.E.E.E.E.E.E.E.E.E.E.E.E.E.W.W.W.W.W.W.",
"W.W.W.W.W.E.E.E.E.E.E.E.E.E.E.E.E.E.E.E.E.E.E.E.E.E.E.E.E.E.E.E.E.E.E.E.E.E.E.E.E.E.E.E.W.W.W.W.W.W.",
"W.W.W.E.E.E.E.E.E.E.E.E.E.E.E.E.W.W.W.W.W.W.W.W.W.W.W.W.W.W.W.W.W.W.W.E.E.E.E.E.E.E.E.E.E.W.W.W.W.W.",
"W.E.E.E.E.E.E.W.W.W.W.W.W.W.W.W.W.W.W.W.W.W.W.W.W.W.W.W.W.W.W.W.W.W.W.W.E.E.E.E.E.E.E.E.E.W.W.W.W.W.",
"E.E.E.E.W.E.W.W.W.W.W.W.W.W.W.W.W.W.W.W.W.W.W.W.W.W.W.W.W.W.W.W.W.W.W.W.E.E.E.E.E.E.E.E.E.W.W.W.W.W.",
"E.E.E.W.W.W.W.W.W.W.W.W.W.W.W.W.W.W.W.W.W.W.W.W.W.W.W.W.W.W.W.W.W.W.W.W.E.E.E.E.E.E.E.E.E.E.W.W.W.W.",
"W.W.W.W.W.W.W.W.W.W.W.W.W.W.W.W.W.W.W.W.W.W.W.W.W.W.W.W.W.W.W.W.W.W.W.W.W.E.E.E.E.E.E.E.E.E.W.W.W.W.",
"W.W.W.W.W.W.W.W.W.W.W.W.W.W.W.W.W.W.W.W.W.W.W.W.W.W.W.W.W.W.W.W.W.W.W.W.W.E.E.E.E.E.E.E.E.E.W.W.W.W.",
"W.W.W.W.W.W.W.W.W.W.W.W.W.W.W.. . W.W.W.W.W.W.W.W.W.W.W.W.W.W.W.W.W.W.W.W.E.E.E.E.E.E.E.E.E.E.W.W.W.",
"W.W.W.W.W.W.W.W.W.W.W.W.W.W.W.  . W.W.w w w w W.W.W.W.W.W.W.W.W.W.W.W.W.W.E.E.E.E.E.E.E.E.E.E.W.W.W.",
"W.W.W.W.W.W.W.W.W.W.W.W.W.W.N m f 0 w w w w w w w W.W.W.W.W.W.W.W.W.W.W.W.E.E.E.E.E.E.E.E.E.E.E.W.W.",
"W.W.W.W.W.W.W.W.W.W.W.W.W.N C z w w w w w w w w 9 8 W.W.W.W.W.W.W.W.W.W.W.C.E.E.E.E.E.E.E.E.E.E.W.W.",
"W.W.W.W.W.W.W.W.W.W.W.W.W.N 4 q w w w w w w w w 6 6 8 W.W.W.W.W.W.W.W.W.W.j.R.E.E.E.E.E.E.E.E.E.W.W.",
"W.W.W.W.W.W.W.W.W.W.W.W.W.4 g q w w w w w w w 0 Q ~ W w W.W.W.W.W.W.W.W.W.k.R.E.E.E.E.E.E.E.E.E.E.W.",
"W.W.W.W.W.W.W.W.W.W.W.W.W.d w w w w w w w w w ^ *.2.' 8 W.W.W.W.W.W.W.W.W.k.R.E.E.E.E.E.E.E.E.E.E.W.",
"W.W.W.W.W.W.W.W.W.W.W.W.W.w w w w w w w w w w ` 3.v.| 5 E W.W.W.W.W.W.W.W.k.R.E.E.E.E.E.E.E.E.E.E.W.",
"W.W.W.W.W.W.W.W.W.W.W.W.W.w w w w w w w w w w < O %. .5 E W.W.W.W.W.W.W.W.k.U.E.E.E.E.E.E.E.E.E.E.W.",
"W.W.W.W.W.W.W.W.W.W.W.W.W.3 q w w w w w w ~ O.m.8.g.| 5 w W.W.W.W.W.W.W.W.t.k.Y.E.E.E.E.E.E.E.E.E.W.",
"W.W.W.W.W.W.W.W.W.W.W.W.W.W.3 q w w w w w w / v.b.M.| 5 E W.W.W.W.W.W.W.r.r.u.Y.E.E.E.E.E.E.E.E.E.E.",
"W.W.W.W.W.W.W.W.W.W.W.W.W.W.B Z v Z n ^ ) ^ W *.c.M. .7 W.W.W.W.W.W.W.W.t.r.u.Y.E.E.E.E.E.E.E.E.E.E.",
"W.W.W.W.W.W.W.W.W.W.W.W.W.W.N N P H { &.X.b g W.W.W.W.W.W.W.W.W.W.W.W.W.t.r.u.Y.E.E.E.E.E.E.E.E.E.E.",
"W.W.W.W.W.W.W.W.W.W.W.W.W.N N K Y F +.6.-.1 1 W.W.W.W.W.W.W.W.W.W.W.W.W.r.r.y.S.R.E.E.E.R.I.I.S.S.U.",
"W.W.W.W.W.W.W.W.W.W.W.W.W.V H p.H V @.:.{ 1 1 1 W.W.W.W.W.W.W.W.W.W.W.W.t.t.t.r.S.T.E.E.I.V.N.z.k.L.",
"W.W.W.W.W.W.W.W.W.W., , < G x.q.D m S W.1 1 1 1 W.W.W.W.W.W.W.W.W.W.W.t.t.t.r.r.r.S.P.P.G.z.z.D.F.W.",
"W.W.W.W.W.W.W., , , , > h 4.H.M t * [ 6.W.1 1 1 1 W.W.W.W.W.W.W.W.W.t.t.t.t.t.t.t.t.y.y.V.E.E.W.W.W.",
"W.W.W.W.W., , , , , , > a ] :.l y y ! _ W.W.1 1 1 U W.W.W.W.W.W.W.W.t.t.t.t.r.t.t.y.N.F.L.E.W.W.W.W.",
"W.W.W.W., , , , , , , * u s l i p p - % , W.W.1 I i.d.d.W.W.W.W.W.W.t.t.r.t.t.t.L.U.T.T.W.W.W.W.W.W.",
"W.W.W., , , , , , , = u i u u i p - X . o , , W.i.d.p.d.d.W.W.1 W.W.t.t.w.u.Z.Z.K.I.W.W.W.W.W.W.W.W.",
"W.W., , , , , , , , t p u u i u & X . . X , , , W.d.d.d.R X 1 1 7.y.w.k.B.B.W.W.W.W.W.W.W.W.W.W.W.W.",
"W., , , , , , , , # - p i u i u X   . . . # # , W.W.f.f.U . ; 1 9.r.k.B.W.W.W.W.W.W.W.W.W.W.W.W.W.W.",
"W., , , , , , , , o & p e r u u $ .   . . . . > W.W.W.T Y . . 1 y.j.N.W.W.W.W.W.W.W.W.W.W.W.W.W.W.W.",
"W., , , , , , , > o + e e # t t = # X .     . > W.W.2 C L . . 1 x.W.W.W.W.W.W.W.W.W.W.W.W.W.W.W.W.W.",
", , , , , , , , X     % i u , , t = # . X @ @ , W.W.W.1 1 W.W.1 W.W.W.W.W.W.W.W.W.W.W.W.W.W.W.W.W.W.",
", , , , , , , > X . X & i e , , , , , # : _ _ W.W.W.W.W.W.W.W.W.W.W.W.W.W.W.W.W.W.W.W.W.W.W.W.W.W.W.",
"W., , , , , , X . k ) x * i u W.W., , f ] <.<.W.W.W.W.W.W.W.W.W.W.W.W.W.W.W.W.W.W.W.W.W.W.W.W.W.W.W.",
"W.W., , , , W.  k o.<.&.W.W.W.W.W.W.W.#.<.5.1.W.W.W.W.W.W.W.W.W.W.W.W.W.W.W.W.W.W.W.W.W.W.W.W.W.W.W.",
"W.W.W.W.W.W.W.4 #.1.5.5.W.W.W.W.W.W.W.W.+.5.5.W.W.W.W.W.W.W.W.W.W.W.W.W.W.W.W.W.W.W.W.W.W.W.W.W.W.W.",
"W.W.W.W.W.W.i.F ;.6.5.W.W.W.W.W.W.W.W.W.A @.W.W.W.W.W.W.W.W.W.W.W.W.W.W.W.W.W.W.W.W.W.W.W.W.W.W.W.W.",
"W.W.W.W.W.W.d.P $.5.W.W.W.W.W.W.W.W.W.W.K K W.W.W.W.W.W.W.W.W.W.W.W.W.W.W.W.W.W.W.W.W.W.W.W.W.W.W.W.",
"W.W.W.W.W.T T p.W.W.W.W.W.W.W.W.W.W.W.W.p.T W.W.W.W.W.W.W.W.W.W.W.W.W.W.W.W.W.W.W.W.W.W.W.W.W.W.W.W.",
"W.W.W.W.W.N N W.W.W.W.W.W.W.W.W.W.W.W.W.0.N N W.W.W.W.W.W.W.W.W.W.W.W.W.W.W.W.W.W.W.W.W.W.W.W.W.W.W.",
"W.W.W.W.W.W.W.W.W.W.W.W.W.W.W.W.W.W.W.W.W.W.W.W.W.W.W.W.W.W.W.W.W.W.W.W.W.W.W.W.W.W.W.W.W.W.W.W.W.W."
};
