/* XPM */
static char *result[] = {
/* columns rows colors chars-per-pixel */
"50 50 169 2 ",
"   c #0F001F",
".  c #381818",
"X  c #0F0021",
"o  c #130123",
"O  c #1C0324",
"+  c #180A24",
"@  c #1A102C",
"#  c #1F1130",
"$  c #2B0424",
"%  c #23032B",
"&  c #2D042B",
"*  c #270924",
"=  c #3D0726",
"-  c #390727",
";  c #381624",
":  c #2D0431",
">  c #320632",
",  c #3A0730",
"<  c #350936",
"1  c #311C32",
"2  c #26292C",
"3  c #2C2C2C",
"4  c #342D2A",
"5  c #3D2D28",
"6  c #2F2E31",
"7  c #312F34",
"8  c #303131",
"9  c #34383D",
"0  c #400605",
"q  c #5F190D",
"w  c #601A0D",
"e  c #691D0D",
"r  c #631E11",
"t  c #6E2616",
"y  c #6C271A",
"u  c #7B2E19",
"i  c #762C16",
"p  c #74301C",
"a  c #7D311A",
"s  c #400726",
"d  c #4F0A27",
"f  c #470827",
"g  c #510927",
"h  c #540B28",
"j  c #590C28",
"k  c #4D1A2F",
"l  c #512B29",
"z  c #573022",
"x  c #5D2D38",
"c  c #463F31",
"v  c #593D35",
"b  c #492B24",
"n  c #68222D",
"m  c #6A3425",
"M  c #692430",
"N  c #77392B",
"B  c #47433F",
"V  c #54413C",
"C  c #7D683D",
"Z  c #373A45",
"A  c #522A49",
"S  c #3F4B4E",
"D  c #3B4749",
"F  c #3E4C50",
"G  c #4C524C",
"H  c #474C52",
"J  c #405158",
"K  c #6D6E5C",
"L  c #524C64",
"P  c #4D5D61",
"I  c #575A6A",
"U  c #645B7E",
"Y  c #556063",
"T  c #5C696C",
"R  c #56656B",
"E  c #6B797E",
"W  c #697579",
"Q  c #646C78",
"!  c #81331A",
"~  c #8A3C1D",
"^  c #82372A",
"/  c #8C4119",
"(  c #95451A",
")  c #A4501E",
"_  c #8A4221",
"`  c #934827",
"'  c #8C593F",
"]  c #8A573E",
"[  c #A65726",
"{  c #A15932",
"}  c #9A6B3C",
"|  c #AD622B",
" . c #B36D32",
".. c #A67239",
"X. c #C17330",
"o. c #8F5C41",
"O. c #935D40",
"+. c #946143",
"@. c #897C51",
"#. c #AA724F",
"$. c #A26948",
"%. c #C7883E",
"&. c #978452",
"*. c #AF8D48",
"=. c #B08345",
"-. c #BA994F",
";. c #B79C5A",
":. c #D79A47",
">. c #E79848",
",. c #C6A456",
"<. c #EAB04F",
"1. c #E0AC58",
"2. c #F6A953",
"3. c #EBB351",
"4. c #F2BD55",
"5. c #D1AD7E",
"6. c #EABB62",
"7. c #F3C158",
"8. c #F9C559",
"9. c #F8C357",
"0. c #FFD15C",
"q. c #4A688A",
"w. c #6E7D82",
"e. c #747984",
"r. c #7C6EA3",
"t. c #7F70A7",
"y. c #8071A7",
"u. c #8173A8",
"i. c #897DAE",
"p. c #728083",
"a. c #7D8D92",
"s. c #7F9195",
"d. c #819296",
"f. c #8D83B1",
"g. c #9287B4",
"h. c #958CB7",
"j. c #9893B8",
"k. c #949BA4",
"l. c #95A1A0",
"z. c #CBB189",
"x. c #CEBF9A",
"c. c #DDCA9F",
"v. c #FFDD9A",
"b. c #F6DAA3",
"n. c #FFE7A9",
"m. c #A19EC1",
"M. c #A4A2C3",
"N. c #ABAAC8",
"B. c #B3B5CE",
"V. c #BFBED5",
"C. c #B5B9D0",
"Z. c #C4BED6",
"A. c #BEC5D7",
"S. c #C4CDDC",
"D. c #C6C5D9",
"F. c #D2CCDF",
"G. c #C7D0DE",
"H. c #C8D1DF",
"J. c #DBD9C2",
"K. c #EEE6C1",
"L. c #D4CFE0",
"P. c #CED5E2",
"I. c #D8D9E6",
"U. c #E9E7EF",
"Y. c #F3F4F6",
"T. c #F6F7F8",
"R. c #FCFCFC",
"E. c #F7F8F9",
"W. c None",
/* pixels */
"W.W.W.W.W.W.W.W.W.W.W.W.W.W.W.W.W.W.W.W.W.W.W.W.W.W.W.W.W.W.W.W.W.W.W.W.W.W.W.W.W.W.W.W.W.W.W.W.W.W.",
"W.W.W.W.W.W.W.W.W.W.W.W.W.W.W.W.W.W.W.W.W.W.W.W.W.W.W.W.W.W.W.W.W.W.W.W.W.W.W.W.W.W.W.W.W.W.W.W.W.W.",
"W.W.W.W.W.W.W.W.W.W.W.W.W.W.W.W.W.W.W.W.W.W.W.W.W.W.W.W.W.W.W.W.W.W.W.W.W.W.W.W.W.W.W.W.W.W.W.W.W.W.",
"W.W.W.W.W.W.W.W.W.W.W.W.W.W.W.W.W.W.W.W.W.W.W.W.W.W.W.W.W.W.W.W.W.W.W.W.W.W.W.W.W.W.W.W.W.W.W.W.W.W.",
"W.W.W.W.W.W.W.W.W.W.W.W.W.W.W.W.W.W.W.W.W.W.W.W.W.W.W.W.W.W.W.W.W.W.W.W.W.W.W.W.W.W.W.W.W.W.W.W.W.W.",
"W.W.W.W.W.W.W.W.W.W.W.W.W.W.W.W.W.W.W.W.W.W.W.R.R.R.R.R.R.R.W.W.W.W.W.W.W.W.W.W.W.W.W.W.W.W.W.W.W.W.",
"W.W.W.W.W.W.W.W.W.W.W.W.W.W.R.W.W.W.W.W.R.R.R.R.R.R.R.R.R.R.R.W.W.W.W.W.W.W.W.W.W.W.W.W.W.W.W.W.W.W.",
"W.W.W.W.W.W.W.W.W.W.W.W.R.R.W.W.W.W.W.W.W.W.W.W.W.W.W.W.W.W.W.W.R.W.W.W.W.W.W.W.W.W.W.W.W.W.W.W.W.W.",
"W.W.W.W.W.W.W.W.W.W.W.W.W.W.W.W.W.W.W.W.W.W.W.W.W.W.W.W.W.W.W.W.W.W.W.R.W.W.W.W.W.W.W.W.W.W.W.W.W.W.",
"W.W.W.W.W.R.R.R.W.W.W.W.W.W.W.W.W.W.W.W.W.W.W.W.W.W.W.W.W.W.W.W.W.W.W.W.R.R.W.W.W.W.W.W.W.W.W.W.W.W.",
"W.W.W.W.R.R.W.W.W.W.W.W.W.W.W.W.W.W.W.W.W.W.W.W.W.W.W.W.W.W.W.W.W.W.W.W.W.R.R.W.W.W.W.W.W.W.W.W.W.W.",
"W.W.W.W.W.W.W.W.W.W.W.W.W.W.W.W.W.W.W.W.W.W.W.W.W.W.W.W.W.W.W.W.W.W.W.W.W.W.R.R.W.W.W.W.W.W.W.W.W.W.",
"W.W.W.W.W.W.W.W.W.W.W.W.W.W.W.W.W.W.W.W.W.W.W.W.W.W.W.W.W.W.W.W.W.W.W.W.W.W.W.R.R.W.W.W.W.W.W.W.W.W.",
"W.W.W.W.W.W.W.W.W.W.W.W.W.W.W.W.W.W.W.W.W.W.W.W.W.W.W.W.W.W.W.W.W.W.W.W.W.W.W.R.R.R.W.W.W.W.W.W.W.W.",
"W.W.W.W.W.W.W.W.W.W.W.W.W.W.W.W.W.W.W.W.W.W.W.W.W.W.W.W.W.W.W.W.W.W.W.W.W.R.W.R.R.R.R.W.W.W.W.W.W.W.",
"W.W.W.W.W.W.W.W.W.W.W.W.W.W.W.W.W.W.W.W.W.W.W.W.W.W.W.W.W.W.W.W.W.W.W.W.W.W.W.R.R.R.R.W.W.W.W.W.W.W.",
"W.W.W.W.W.W.W.W.W.W.W.W.W.o o W.W.W.W.W.W.W.W.W.W.W.W.W.W.W.W.W.W.W.W.W.W.W.W.R.R.R.R.R.W.W.W.W.W.W.",
"W.W.W.W.W.W.W.W.W.W.W.W.W.o o W.W.W.W.W.W.W.W.W.W.W.W.W.W.W.W.W.W.W.W.W.W.W.W.W.R.R.R.R.W.W.W.W.W.W.",
"W.W.W.W.W.W.W.W.W.W.W.W.W.Z Z @ W.W.a a a a a W.W.W.W.W.W.W.W.W.W.W.W.W.W.W.W.W.R.R.R.R.R.W.W.W.W.W.",
"W.W.W.W.W.W.W.W.W.W.W.W.F F F l y a a a a a a a W.W.W.W.W.W.W.W.W.W.W.W.W.W.W.W.R.R.R.R.R.W.W.W.W.W.",
"W.W.W.W.W.W.W.W.W.W.W.W.S 9 v a ! a a a u a u r t W.W.W.W.W.W.W.W.W.W.W.W.W.W.W.R.R.R.R.R.R.W.W.W.W.",
"W.W.W.W.W.W.W.W.W.W.W.W.9 3 a a a a a a a a [ ( i t W.W.W.W.W.W.W.W.W.W.W.W.W.W.R.R.R.R.R.R.W.W.W.W.",
"W.W.W.W.W.W.W.W.W.W.W.W.3 4 p a a a a a ! [ >.2._ r ! W.W.W.W.W.W.W.W.W.W.W.W.W.W.R.R.R.R.R.R.W.W.W.",
"W.W.W.W.W.W.W.W.W.W.W.W.3 5 p a a u a a ~ X.5.v.] q ! W.W.W.W.W.W.W.W.W.W.W.W.W.W.R.R.R.R.R.R.W.W.W.",
"W.W.W.W.W.W.W.W.W.W.W.W.4 p a a u u ! ! a 1 @ z.o.q ! a W.W.W.W.W.W.W.W.W.W.W.W.W.R.R.R.R.R.R.W.W.W.",
"W.W.W.W.W.W.W.W.W.W.W.W.4 a a a ! ! ! ~ >.J.q.x.o.q ! a W.W.W.W.W.W.W.W.W.W.R.W.W.R.R.R.R.R.R.R.W.W.",
"W.W.W.W.W.W.W.W.W.W.W.W.W.a a ! a u ! ! { b.c.v.] w a a W.W.W.W.W.W.W.W.W.W.R.R.R.R.R.R.R.R.R.R.W.W.",
"W.W.W.W.W.W.W.W.W.W.W.W.W.V p ! u ~ ` u _ >.v.n.$.t a W.W.W.W.W.W.W.W.W.W.W.W.R.R.R.R.R.R.R.R.R.R.W.",
"W.W.W.W.W.W.W.W.W.W.W.W.W.S V v +.:...b z / O.$.` u W.W.W.W.W.W.W.W.W.W.W.W.W.R.R.R.R.R.R.R.R.R.R.R.",
"W.W.W.W.W.W.W.W.W.W.W.W.S H T J ;.0.*.2 3 . . e u W.W.W.W.W.W.W.W.W.W.W.W.W.W.Z.U.R.R.R.R.R.R.R.R.R.",
"W.W.W.W.W.W.W.W.W.W.W.W.S Y a.J @.-.C 3 3 6 W.W.W.W.W.W.W.W.W.W.W.W.W.W.W.W.W.r.L.R.R.R.R.R.R.R.R.R.",
"W.W.W.W.W.W.W.W.W.W.W.W.K l.e.G 9 B B 3 3 3 W.W.W.W.W.W.W.W.W.W.W.W.W.W.W.W.W.y.L.R.R.R.R.R.R.R.R.R.",
"W.W.W.W.W.W.W.W.> > : x 6.K.A d , +.*.3 3 3 3 W.W.W.W.W.W.W.W.W.W.W.W.W.W.W.u.t.D.R.R.R.R.R.R.T.T.Y.",
"W.W.W.W.W.W.W.> > > : k  .1.M g g ^ | W.3 3 8 E W.W.W.W.W.W.W.W.W.W.W.W.W.u.u.u.u.Z.R.R.E.T.T.P.S.M.",
"W.W.W.W.W.> > > > % o + ; n j h j = * > W.8 W a.a.W.W.W.W.W.W.W.W.W.W.W.u.u.u.u.u.i.N.P.D.h.g.i.i.M.",
"W.> > > > > > > > % o o o g j h j & o % > W.a.a.a.a.W.W.W.W.3 W.W.W.u.u.u.u.u.t.y.r.u.g.h.B.I.I.A.C.",
"> > > > > > > > > %   O = h j h j - X o O < W.s.d.a.d.W.W.3 3 l.I.j.t.t.t.t.t.m.N.Z.F.Z.N.W.W.W.W.W.",
"> > > > > > > > & o O = j h h j = * X X o % & W.d.d.Q W.+ 6 L h.M.g.r.i.m.m.M.A.H.W.R.T.W.W.W.W.W.W.",
"> > > > > > > > & $ = j h s g j $ X o o o o : W.T p.I   + 7 r.y.t.f.j.m.P.P.S.S.W.W.W.W.W.W.W.W.W.W.",
"W.> > > > > > : - g j h s % d g & o X o X o > W.W.Y I   + 6 U r.t.M.P.P.W.W.W.W.W.W.W.W.W.W.W.W.W.W.",
"W.W.> > > > : O X $ d = % g h , > % o   * * > W.W.W.W.W.W.3 3 W.W.W.W.W.W.W.W.W.W.W.W.W.W.W.W.W.W.W.",
"W.W.W.> > > > O o * O O > h h , > > % k | | W.W.W.W.W.W.W.W.3 W.W.W.W.W.W.W.W.W.W.W.W.W.W.W.W.W.W.W.",
"W.W.W.W.W.W.o o m [ m : , g , < W.W.W. .3.3.W.W.W.W.W.W.W.W.W.W.W.W.W.W.W.W.W.W.W.W.W.W.W.W.W.W.W.W.",
"W.W.W.W.W.W.X m :.<.:.W.> , W.W.W.W.W.3.7.7.W.W.W.W.W.W.W.W.W.W.W.W.W.W.W.W.W.W.W.W.W.W.W.W.W.W.W.W.",
"W.W.W.W.W.W.Z =.4.7.8.W.W.W.W.W.W.W.W.&.9.7.W.W.W.W.W.W.W.W.W.W.W.W.W.W.W.W.W.W.W.W.W.W.W.W.W.W.W.W.",
"W.W.W.W.W.D D ,.9.7.W.W.W.W.W.W.W.W.W.G &.W.W.W.W.W.W.W.W.W.W.W.W.W.W.W.W.W.W.W.W.W.W.W.W.W.W.W.W.W.",
"W.W.W.W.W.T T ;.9.W.W.W.W.W.W.W.W.W.W.R R W.W.W.W.W.W.W.W.W.W.W.W.W.W.W.W.W.W.W.W.W.W.W.W.W.W.W.W.W.",
"W.W.W.W.w.w.a.W.W.W.W.W.W.W.W.W.W.W.W.a.E W.W.W.W.W.W.W.W.W.W.W.W.W.W.W.W.W.W.W.W.W.W.W.W.W.W.W.W.W.",
"W.W.W.W.F S W.W.W.W.W.W.W.W.W.W.W.W.W.w.H S W.W.W.W.W.W.W.W.W.W.W.W.W.W.W.W.W.W.W.W.W.W.W.W.W.W.W.W.",
"W.W.W.W.W.W.W.W.W.W.W.W.W.W.W.W.W.W.W.W.W.W.W.W.W.W.W.W.W.W.W.W.W.W.W.W.W.W.W.W.W.W.W.W.W.W.W.W.W.W."
};
