/* XPM */
static char *result[] = {
/* columns rows colors chars-per-pixel */
"50 50 166 2 ",
"   c #170C1F",
".  c #0D0021",
"X  c #130024",
"o  c #1B0423",
"O  c #1B0229",
"+  c #190E22",
"@  c #240324",
"#  c #290424",
"$  c #24022B",
"%  c #29032E",
"&  c #2A0C25",
"*  c #3C072F",
"=  c #3E082F",
"-  c #390B26",
";  c #201827",
":  c #351325",
">  c #381A27",
",  c #2C0132",
"<  c #320632",
"1  c #3B0730",
"2  c #3C0D32",
"3  c #3C1034",
"4  c #2B2B2C",
"5  c #272629",
"6  c #372A28",
"7  c #2F2F31",
"8  c #2A2336",
"9  c #2F3539",
"0  c #323738",
"q  c #383737",
"w  c #4B0E09",
"e  c #4A0904",
"r  c #58170D",
"t  c #621F0E",
"y  c #62200F",
"u  c #6D2515",
"i  c #61251E",
"p  c #732A17",
"a  c #7A2E18",
"s  c #762D1A",
"d  c #7F3017",
"f  c #7D311A",
"g  c #4E0729",
"h  c #4C0A2B",
"j  c #550B28",
"k  c #590C28",
"l  c #530727",
"z  c #4F142F",
"x  c #5D1028",
"c  c #541628",
"v  c #471935",
"b  c #422D27",
"n  c #492923",
"m  c #5F3127",
"M  c #523124",
"N  c #432B3A",
"B  c #493530",
"V  c #573F38",
"C  c #622F20",
"Z  c #762C29",
"A  c #6C302D",
"S  c #7E322A",
"D  c #642C30",
"F  c #673733",
"G  c #703D31",
"H  c #584837",
"J  c #7C502E",
"K  c #684835",
"L  c #363848",
"P  c #482648",
"I  c #423F4C",
"U  c #473241",
"Y  c #3E4B4E",
"T  c #3E474C",
"R  c #3D4C51",
"E  c #424C4D",
"W  c #484D4F",
"Q  c #5C4545",
"!  c #565A4F",
"~  c #414D50",
"^  c #444256",
"/  c #495154",
"(  c #485558",
")  c #44555E",
"_  c #52595D",
"`  c #6F4842",
"'  c #644A4A",
"]  c #746A4D",
"[  c #7A704F",
"{  c #4E5D62",
"}  c #515E62",
"|  c #495870",
" . c #536064",
".. c #5C6C74",
"X. c #6A797D",
"o. c #81341B",
"O. c #99481F",
"+. c #96471F",
"@. c #82452E",
"#. c #9D552C",
"$. c #864735",
"%. c #9E5531",
"&. c #A75F2F",
"*. c #B4652B",
"=. c #BF712F",
"-. c #B97E3D",
";. c #D87F2D",
":. c #8D5C42",
">. c #9D764B",
",. c #DD822D",
"<. c #CA853A",
"1. c #D98231",
"2. c #958556",
"3. c #9C8954",
"4. c #A28749",
"5. c #AFA277",
"6. c #CD8D40",
"7. c #D79445",
"8. c #DAA14C",
"9. c #D9A752",
"0. c #D5A250",
"q. c #E1A74C",
"w. c #E3B958",
"e. c #F2BD55",
"r. c #E3BA71",
"t. c #FCC759",
"y. c #F7C358",
"u. c #E9CB7F",
"i. c #6F7E82",
"p. c #8173A8",
"a. c #897EAF",
"s. c #8579AB",
"d. c #79898E",
"f. c #78858C",
"g. c #7D8D93",
"h. c #7F9095",
"j. c #828F90",
"k. c #819196",
"l. c #829398",
"z. c #8D9A92",
"x. c #8B81B0",
"c. c #998FB9",
"v. c #9D95BC",
"b. c #9C99BD",
"n. c #A29FC1",
"m. c #A5A2C3",
"M. c #ADA5C6",
"N. c #AAA8C7",
"B. c #B1B4CE",
"V. c #B9B2CF",
"C. c #BCB7D2",
"Z. c #B8BDD3",
"A. c #C3BCD5",
"S. c #BCC2D5",
"D. c #D3D3C2",
"F. c #C2C7D9",
"G. c #C2CADA",
"H. c #C4C0D7",
"J. c #CBD4E1",
"K. c #D9DCE7",
"L. c #E4E9EF",
"P. c #ECEEF3",
"I. c #EFF1F5",
"U. c #FCFCFC",
"Y. c #F7FAFA",
"T. c None",
/* pixels */
"T.T.T.T.T.T.T.T.T.T.T.T.T.T.T.T.T.T.T.T.T.T.T.T.T.T.T.T.T.T.T.T.T.T.T.T.T.T.T.T.T.T.T.T.T.T.T.T.T.T.",
"T.T.T.T.T.T.T.T.T.T.T.T.T.T.T.T.T.T.T.T.T.T.T.T.T.T.T.T.T.T.T.T.T.T.T.T.T.T.T.T.T.T.T.T.T.T.T.T.T.T.",
"T.T.T.T.T.T.T.T.T.T.T.T.T.T.T.T.T.T.T.T.T.T.T.T.T.T.T.T.T.T.T.T.T.T.T.T.T.T.T.T.T.T.T.T.T.T.T.T.T.T.",
"T.T.T.T.T.T.T.T.T.T.T.T.T.T.T.T.T.T.T.T.T.T.T.T.T.T.T.T.T.T.T.T.T.T.T.T.T.T.T.T.T.T.T.T.T.T.T.T.T.T.",
"T.T.T.T.T.T.T.T.T.T.T.T.T.T.T.T.T.T.T.T.T.T.T.T.T.T.T.T.T.U.T.T.T.T.T.T.T.T.T.T.T.T.T.T.T.T.T.T.T.T.",
"T.T.T.T.T.T.T.T.T.T.T.T.T.T.T.U.T.T.T.T.T.T.T.T.T.T.T.T.T.U.U.T.T.T.T.T.T.T.T.T.T.T.T.T.T.T.T.T.T.T.",
"T.T.T.T.T.T.T.T.T.T.T.T.T.T.T.T.T.T.T.T.T.T.T.T.T.T.T.T.T.T.T.T.T.T.T.T.T.T.T.T.T.T.T.T.T.T.T.T.T.T.",
"T.T.T.T.T.T.T.T.T.T.T.T.T.T.T.T.T.T.T.T.T.T.T.T.T.T.T.T.T.T.T.T.T.U.T.T.T.T.T.T.T.T.T.T.T.T.T.T.T.T.",
"T.T.T.T.T.T.U.U.T.T.T.T.T.T.T.T.T.T.T.T.T.T.T.T.T.T.T.T.T.T.T.T.T.T.T.T.T.T.T.T.T.T.T.T.T.T.T.T.T.T.",
"T.T.T.T.T.T.T.T.T.T.T.T.T.T.T.T.T.T.T.T.T.T.T.T.T.T.T.T.T.T.T.T.T.T.T.T.T.T.T.T.T.T.T.T.T.T.T.T.T.T.",
"T.T.T.T.T.T.T.T.T.T.T.T.T.T.T.T.T.T.T.T.T.T.T.T.T.T.T.T.T.T.T.T.T.T.T.T.T.T.T.T.T.T.T.T.T.T.T.T.T.T.",
"T.T.T.T.T.T.T.T.T.T.T.T.T.T.T.T.T.T.T.T.T.T.T.T.T.T.T.T.T.T.T.T.T.T.T.T.T.T.T.T.U.T.T.T.T.T.T.T.T.T.",
"T.T.T.T.T.T.T.T.T.T.T.T.T.T.T.T.T.T.T.T.T.T.T.T.T.T.T.T.T.T.T.T.T.T.T.T.T.T.T.T.U.U.T.T.T.T.T.T.T.T.",
"T.T.T.T.T.T.T.T.T.T.T.T.T.T.T.T.T.T.T.T.T.T.T.T.T.T.T.T.T.T.T.T.T.T.T.T.T.T.T.T.U.U.T.T.T.T.T.T.T.T.",
"T.T.T.T.T.T.T.T.T.T.T.T.T.T.T.T.T.T.T.T.T.T.T.T.T.T.T.T.T.T.T.T.T.T.T.T.T.T.T.T.Y.U.U.T.T.T.T.T.T.T.",
"T.T.T.T.T.T.T.T.T.T.T.T.T.T.T.T.T.T.T.T.T.T.T.T.T.T.T.T.T.T.T.T.T.T.T.T.T.T.T.T.T.U.U.U.T.T.T.T.T.T.",
"T.T.T.T.T.T.T.T.T.T.T.T.T.T.T.T.T.T.T.T.T.T.T.T.T.T.T.T.T.T.T.T.T.T.T.T.T.T.T.T.T.T.U.U.U.T.T.T.T.T.",
"T.T.T.T.T.T.T.T.T.T.T.T.T.T.T.T.T.T.T.T.T.T.T.T.T.T.T.T.T.T.T.T.T.T.T.T.T.T.T.T.T.T.U.U.U.T.T.T.T.T.",
"T.T.T.T.T.T.T.T.T.T.T.T.T.T.T.T.T.T.T.T.T.T.T.T.T.T.T.T.T.T.T.T.T.T.T.T.T.T.T.T.T.T.T.U.U.T.T.T.T.T.",
"T.T.T.T.T.T.T.T.T.T.T.T.T.T.T.T.T.T.f f f f f T.T.T.T.T.T.T.T.T.T.T.T.T.T.T.T.T.T.T.T.T.U.T.T.T.T.T.",
"T.T.T.T.T.T.T.T.T.T.T.T.T.T.T.T.T.f f f f f f f T.T.T.T.T.T.T.T.T.T.T.T.T.T.T.T.T.T.T.T.T.U.T.T.T.T.",
"T.T.T.T.T.T.T.T.T.T.T.T.T.T.T.T.f f f f f f f f T.T.T.T.T.T.T.T.T.T.T.T.T.T.T.T.T.T.T.T.T.T.T.T.T.T.",
"T.T.T.T.T.T.T.T.T.T.T.T.T.T.T.f f f f f f f o.O.s T.T.T.T.T.T.T.T.T.T.T.T.T.T.T.T.T.T.T.T.T.T.T.T.T.",
"T.T.T.T.T.T.T.T.T.T.T.T.T.T.f f f f f f f s f ,.y p T.T.T.T.T.T.T.T.T.T.T.T.T.T.T.T.T.T.T.T.U.T.T.T.",
"T.T.T.T.T.T.T.T.T.T.T.T.T.T.f f o.a o.a o.C > ;.y u T.T.T.T.T.T.T.T.T.T.T.T.T.T.T.T.T.T.T.T.T.T.T.T.",
"T.T.T.T.T.T.T.T.T.T.T.T.T.T.f f a o.a o.o.F | 1.t w u T.T.T.T.T.T.T.T.T.T.T.T.T.T.T.T.T.T.T.T.T.T.T.",
"T.T.T.T.T.T.T.T.T.T.T.T.T.T.f f S d a a a a @.;.y w u T.T.T.T.T.T.T.T.T.T.T.T.T.T.T.T.T.T.T.T.T.T.T.",
"T.T.T.T.T.T.T.T.T.T.T.T.T.T.T.f a a o.C b b M +.r w u T.T.T.T.T.T.T.T.T.T.T.T.T.T.T.T.T.T.T.T.T.T.T.",
"T.T.T.T.T.T.T.T.T.T.T.T.T.T.E H -.<.J 6 4 4 4 n w e u o.T.T.T.T.T.T.T.T.T.T.T.T.T.U.T.T.T.T.T.T.T.T.",
"T.T.T.T.T.T.T.T.T.T.T.T.T.T.E Y 2.4.H 4 4 4 4 4 Q ' G T.T.T.T.T.T.T.T.T.T.T.T.T.T.T.T.T.T.T.T.T.T.T.",
"T.T.T.T.T.T.T.T.T.T.T.T.T.T.R } R 9 9 0 7 B W / d.h.T.T.T.T.T.T.T.T.T.T.T.T.T.T.T.T.T.T.T.T.T.T.T.T.",
"T.T.T.T.T.T.T.T.T.T.T.T.T.~  .d.( Y Y Y H $.k.h.g.h.T.T.4 4 T.T.T.T.T.T.T.T.T.T.T.T.T.T.T.T.T.T.T.T.",
"T.T.T.T.T.T.T.T.T.T.T.T.T. .g.d.( Y Y Y T.T.T.h.h.g.k._ 5 7 T.T.T.T.T.T.T.T.T.T.T.T.T.T.T.T.U.T.T.T.",
"T.T.T.T.T.T.T.T.T.T.T.T. .k.k.f./ Y E T.T.T.T.T.h.d.g.^   I p.s.Z.F.F.T.T.T.T.T.T.U.T.T.T.T.T.T.T.T.",
"T.T.T.T.T.T.T.T.T.T.T.T.` u.D.P z * >.w.T.T.T.T.T.T 8 o + I p.p.x.x.a.A.U.P.G.T.T.U.U.T.T.T.T.T.T.T.",
"T.T.T.T.T.T.T.T.T.< < , D 7.r.c j h %.$.T.T.T.T.T.T.T.; 5 0 T.T.B.B.B.M.v.v.v.U.U.K.I.T.T.T.U.T.T.T.",
"T.T.T.T.T.T.T.T.< < $ O h S $.x j k c : $ T.T.T.T.T.T.T.4 4 T.T.T.T.T.T.M.H.N.M.M.v.G.K.T.T.U.U.T.T.",
"T.T.T.< < < T.< < < @ . @ l g j j k @ . O $ T.T.T.T.T.T.T.T.T.T.T.T.T.T.T.Y.S.n.V.C.M.b.C.U.U.U.T.T.",
"T.T.< < < < < < < % X . # k j j j j # . . X $ T.T.T.T.T.T.T.T.T.T.T.T.T.T.T.T.J.Y.U.A.v.M.K.U.U.T.T.",
"T.T.T.< < < < < , @ @ o - k j k j j # . @ > : , T.T.T.T.T.T.T.T.T.T.T.T.T.T.T.T.T.T.T.L.m.v.U.U.T.T.",
"T.T.T.T.< < < % & c x j j j l j j 1 O o C =.&.2 < T.T.T.T.T.T.T.T.T.T.T.T.T.T.T.T.T.T.T.T.T.T.T.T.T.",
"T.T.T.T.T.< < = #.*.Z g j h * j l 1 , A <.y.0.3 < T.T.T.T.T.T.T.T.T.T.T.T.T.T.T.T.T.T.T.T.T.T.T.T.T.",
"T.T.T.T.T.< 3 &.q.e.K $ 1 = l j * < , :.e.y.9.3 < < T.T.T.T.T.T.T.T.T.T.T.T.T.T.T.T.T.T.T.T.T.T.T.T.",
"T.T.T.T.T.T.v 8.e.t.K X 1 h j 1 < < < U 3.t.9.3 < T.T.T.T.T.T.T.T.T.T.T.T.T.T.T.T.T.T.T.T.T.T.T.T.T.",
"T.T.T.T.T.T.T.e.t.3.N % 1 * * < < < < L ! [ ] T.T.T.T.T.T.T.T.T.T.T.T.T.T.T.T.T.T.T.T.T.T.T.T.T.T.T.",
"T.T.T.T.T.T.z.5.2.! T.< < < < < < < T.T.{ ....T.T.T.T.T.T.T.T.T.T.T.T.T.T.T.T.T.T.T.T.T.T.T.T.T.T.T.",
"T.T.T.T.T.T.h.g.) T.T.T.< < < < < T.T.T.T.k.l.T.T.T.T.T.T.T.T.T.T.T.T.T.T.T.T.T.T.T.T.T.T.T.T.T.T.T.",
"T.T.T.T.T.T.i.X.T.T.T.T.T.T.T.T.T.T.T.T.T.d.X.T.T.T.T.T.T.T.T.T.T.T.T.T.T.T.T.T.T.T.T.T.T.T.T.T.T.T.",
"T.T.T.T.T.T.E Y T.T.T.T.T.T.T.T.T.T.T.T.T.i.Y Y T.T.T.T.T.T.T.T.T.T.T.T.T.T.T.T.T.T.T.T.T.T.T.T.T.T.",
"T.T.T.T.T.T.T.T.T.T.T.T.T.T.T.T.T.T.T.T.T.T.T.T.T.T.T.T.T.T.T.T.T.T.T.T.T.T.T.T.T.T.T.T.T.T.T.T.T.T."
};
