/* XPM */
static char *result[] = {
/* columns rows colors chars-per-pixel */
"50 50 156 2 ",
"   c #0E0022",
".  c #130123",
"X  c #1C0223",
"o  c #1D012A",
"O  c #1A0E24",
"+  c #220323",
"@  c #2B0524",
"#  c #290C24",
"$  c #23032B",
"%  c #2A032E",
"&  c #3A0726",
"*  c #320F27",
"=  c #37052A",
"-  c #3B1822",
";  c #3C1725",
":  c #2B0131",
">  c #320632",
",  c #3A0730",
"<  c #3A0C31",
"1  c #241933",
"2  c #242027",
"3  c #282628",
"4  c #2C2C2C",
"5  c #332C2B",
"6  c #382D29",
"7  c #352F3E",
"8  c #3C3630",
"9  c #34373A",
"0  c #470A08",
"q  c #4E0F0B",
"w  c #59170E",
"e  c #5A180E",
"r  c #54130D",
"t  c #4C171A",
"y  c #621E11",
"u  c #47251F",
"i  c #672213",
"p  c #752A16",
"a  c #6C301E",
"s  c #74311C",
"d  c #7D311A",
"f  c #4A092B",
"g  c #550B28",
"h  c #590C28",
"j  c #540927",
"k  c #4F1A2E",
"l  c #4B102D",
"z  c #5D152C",
"x  c #491C37",
"c  c #431436",
"v  c #671B29",
"b  c #4C2325",
"n  c #4E2E24",
"m  c #41273D",
"M  c #632F20",
"N  c #6A222D",
"B  c #722928",
"V  c #73372F",
"C  c #7A452A",
"Z  c #704239",
"A  c #7A483D",
"S  c #292243",
"D  c #352D40",
"F  c #373E40",
"G  c #3C3B47",
"H  c #353044",
"J  c #423D46",
"K  c #394042",
"L  c #3D4A4D",
"P  c #3E4D53",
"I  c #42434E",
"U  c #4B534F",
"Y  c #57564E",
"T  c #5C5B4D",
"R  c #414E51",
"E  c #445154",
"W  c #4B5A5D",
"Q  c #445258",
"!  c #5C5D5D",
"~  c #6A5D5D",
"^  c #755B55",
"/  c #786F4F",
"(  c #7A7151",
")  c #576467",
"_  c #596165",
"`  c #59676A",
"'  c #5E696C",
"]  c #5C6C73",
"[  c #576A75",
"{  c #606A6D",
"}  c #7E736F",
"|  c #636D71",
" . c #6B7A7E",
".. c #627074",
"X. c #7E7370",
"o. c #8A3F19",
"O. c #9B4E1D",
"+. c #A04E1A",
"@. c #A3521C",
"#. c #894A2B",
"$. c #91442A",
"%. c #A65420",
"&. c #9F693D",
"*. c #B3672D",
"=. c #BC6D2C",
"-. c #C06A27",
";. c #C27835",
":. c #9D7642",
">. c #8C7F53",
",. c #AA7948",
"<. c #EF8E2F",
"1. c #9B8651",
"2. c #BC884A",
"3. c #C0874B",
"4. c #DA9C45",
"5. c #C2A055",
"6. c #D7A457",
"7. c #DFAA50",
"8. c #E2AF53",
"9. c #E4B255",
"0. c #F1BD56",
"q. c #F5C157",
"w. c #F9C558",
"e. c #F3CA73",
"r. c #6E638D",
"t. c #717D82",
"y. c #7A6D9E",
"u. c #8173A7",
"i. c #887BAE",
"p. c #76858A",
"a. c #7F8688",
"s. c #7A898E",
"d. c #7F8F94",
"f. c #7F9197",
"g. c #7F9298",
"h. c #819196",
"j. c #829499",
"k. c #8D9999",
"l. c #9CA192",
"z. c #9994BB",
"x. c #E0D7BB",
"c. c #AAA6C6",
"v. c #A9A8C7",
"b. c #AFAECB",
"n. c #A7A2C4",
"m. c #B7B1CE",
"M. c #B7BBD2",
"N. c #C1BBD4",
"B. c #CDCBDD",
"V. c #C3C9DA",
"C. c #C6D0DE",
"Z. c #CCD4E1",
"A. c #DDE1EA",
"S. c #E1E5EC",
"D. c #FDFDFD",
"F. c None",
/* pixels */
"F.F.F.F.F.F.F.F.F.F.F.F.F.F.F.F.F.F.F.F.F.F.F.F.F.F.F.F.F.F.F.F.F.F.F.F.F.F.F.F.F.F.F.F.F.F.F.F.F.F.",
"F.F.F.F.F.F.F.F.F.F.F.F.F.F.F.F.F.F.F.F.F.F.F.F.F.F.F.F.F.F.F.F.F.F.F.F.F.F.F.F.F.F.F.F.F.F.F.F.F.F.",
"F.F.F.F.F.F.F.F.F.F.F.F.F.F.F.F.F.F.F.F.F.F.F.F.F.F.F.F.F.F.F.F.F.F.F.F.F.F.F.F.F.F.F.F.F.F.F.F.F.F.",
"F.F.F.F.F.F.F.F.F.F.F.F.F.F.F.F.F.F.F.F.F.F.F.F.F.F.F.F.F.F.F.F.F.F.F.F.F.F.F.F.F.F.F.F.F.F.F.F.F.F.",
"F.F.F.F.F.F.F.F.F.F.F.F.F.F.F.F.F.F.F.F.F.F.F.F.F.F.F.F.F.F.F.F.F.F.F.F.F.F.F.F.F.F.F.F.F.F.F.F.F.F.",
"F.F.F.F.F.F.F.F.F.F.F.F.F.F.F.F.F.F.F.F.F.F.F.F.F.F.F.F.F.F.F.F.F.F.F.F.F.F.F.F.F.F.F.F.F.F.F.F.F.F.",
"F.F.F.F.F.F.F.F.F.F.F.F.F.F.F.F.F.F.F.F.F.F.F.F.F.F.F.F.F.F.F.F.F.F.F.F.F.F.F.F.F.F.F.F.F.F.F.F.F.F.",
"F.F.F.F.F.F.F.F.F.F.F.F.F.F.F.F.F.F.F.F.F.F.F.F.F.F.F.F.F.F.F.F.F.F.F.F.F.F.F.F.F.F.F.F.F.F.F.F.F.F.",
"F.F.F.F.F.F.F.F.F.F.F.F.F.F.F.F.F.F.F.F.F.F.F.F.F.F.F.F.F.F.F.F.F.F.F.F.F.F.F.F.F.F.F.F.F.F.F.F.F.F.",
"F.F.F.F.F.F.F.F.F.F.F.F.F.F.F.F.F.F.F.F.F.F.F.F.F.F.F.F.F.F.F.F.F.F.F.F.F.F.F.F.F.F.F.F.F.F.F.F.F.F.",
"F.F.F.F.F.F.F.F.F.F.F.F.F.F.F.F.F.F.F.F.F.F.F.F.F.F.F.F.F.F.F.F.F.F.F.F.F.F.F.F.F.F.F.F.F.F.F.F.F.F.",
"F.F.F.F.F.F.F.F.F.F.F.F.F.F.F.F.F.F.F.F.F.F.F.F.F.F.F.F.F.F.F.F.F.F.F.F.F.F.F.F.F.F.F.F.F.F.F.F.F.F.",
"F.F.F.F.F.F.F.F.F.F.F.F.F.F.F.F.F.F.F.F.F.F.F.F.F.F.F.F.F.F.F.F.F.F.F.F.F.F.F.F.F.F.F.F.F.F.F.F.F.F.",
"F.F.F.F.F.F.F.F.F.F.F.F.F.F.F.F.F.F.F.F.F.F.F.F.F.F.F.F.F.F.F.F.F.F.F.F.F.F.F.F.F.F.F.F.F.F.F.F.F.F.",
"F.F.F.F.F.F.F.F.F.F.F.F.F.F.F.F.F.F.F.F.F.F.F.F.F.F.F.F.F.F.F.F.F.F.F.F.F.F.F.F.F.F.F.F.F.F.F.F.F.F.",
"F.F.F.F.F.F.F.F.F.F.F.F.F.F.F.F.F.F.F.F.F.F.F.F.F.F.F.F.F.F.F.F.F.F.F.F.F.F.F.F.F.F.F.F.F.F.F.F.F.F.",
"F.F.F.F.F.F.F.F.F.F.F.F.F.F.F.F.F.F.F.F.F.F.F.F.F.F.F.F.F.F.d d d d d d d F.F.F.F.F.F.F.F.F.F.F.F.F.",
"F.F.F.F.F.F.F.F.F.F.F.F.F.F.F.F.F.F.F.F.F.F.F.F.F.F.F.F.F.d d d d d d d d d F.F.F.F.F.F.F.F.F.F.F.F.",
"F.F.F.F.F.F.F.F.F.F.F.F.F.F.F.F.F.F.F.F.F.F.F.F.F.F.F.F.F.d d d d d d i i d d F.F.F.F.F.F.F.F.F.F.F.",
"F.F.F.F.F.F.F.F.F.F.F.F.F.F.F.F.F.F.F.F.F.F.F.F.F.F.F.F.d d d d d d d %.$.y d F.F.F.F.F.F.F.F.F.F.F.",
"F.F.F.F.F.F.F.F.F.F.F.F.F.F.F.F.F.F.F.F.F.F.F.F.F.F.F.d d d d d d d t *.@.e d F.F.F.F.F.F.F.F.F.F.F.",
"F.F.F.F.F.F.F.F.F.F.F.F.F.F.F.F.F.F.F.F.F.F.F.F.F.F.F.d d d d d d d S &.@.e d d F.F.F.F.F.F.F.F.F.F.",
"F.F.F.F.F.F.F.F.F.F.F.F.F.F.F.F.F.F.F.F.F.F.F.F.F.F.d d d d d d d d ~ 3.+.r p d F.F.F.F.F.F.F.F.F.F.",
"F.F.F.F.F.F.F.F.F.F.F.F.F.F.F.F.F.F.F.F.F.F.F.F.F.F.d d d d d d d s -.<.O.0 w d d F.F.F.F.F.F.F.F.F.",
"F.F.F.F.F.F.F.F.F.F.F.F.F.F.F.F.F.F.F.F.F.F.F.F.F.F.s s s d d s s 6 M =.O.0 e d d F.F.F.F.F.F.F.F.F.",
"F.F.F.F.F.F.F.F.F.F.F.F.F.F.F.F.F.F.F.F.F.F.F.F.F.F.5 5 5 n a 5 6 4 5 8 b q e d d F.F.F.F.F.F.F.F.F.",
"F.F.F.F.F.F.F.F.F.F.F.F.F.F.F.F.F.F.F.F.F.F.F.F.F.4 4 4 4 4 6 4 4 4 ' t. .^ p d F.F.F.F.F.F.F.F.F.F.",
"F.F.F.F.F.F.F.F.F.F.F.F.F.F.F.F.F.F.F.F.F.F.F.F.F.F.F.4 4 4 4 4 4 { s.f.g.a.} } F.F.F.F.F.F.F.F.F.F.",
"F.F.F.F.F.F.F.F.F.F.F.F.F.F.F.F.F.F.F.F.F.F.F.F.F.F.F.F.F.9 9 9 K ) s.f.d.d.f.j.j.F.F.F.F.F.F.F.F.F.",
"F.F.F.F.F.F.F.F.F.F.F.F.F.F.F.F.F.F.F.F.F.F.F.F.F.F.F.F.F.F.Q ' R L ` .. .d.p._ _ 1 F.F.F.F.F.F.F.F.",
"F.F.F.F.F.F.F.F.F.F.F.F.F.F.F.F.F.F.F.F.F.F.F.F.F.F.F.F.F.W ] p.E L L L F.F.| 4 4 . 2 F.F.F.F.F.F.F.",
"F.F.F.F.F.F.F.F.F.F.F.F.F.F.F.F.F.F.F.F.F.F.F.F.F.F.F.F.7 ! l.k.I J G Y F.F.F.4 4 O 7 F.F.F.F.F.F.F.",
"F.F.F.F.F.F.F.F.F.F.F.F.F.F.F.F.F.F.F.F.F.F.F.F.F.F.F.> % Z e.x.c g , ,.7.F.F.F.4 9 r.i.F.F.F.F.F.F.",
"F.F.F.F.F.F.F.F.F.F.F.F.F.F.F.F.F.F.F.F.F.F.F.F.F.F.F.> o b ;.6.z g f $.V : F.F.F.y.u.v.V.F.F.F.F.F.",
"F.F.F.F.F.F.F.F.F.F.F.F.F.F.F.F.F.F.F.F.F.F.F.F.F.F.> > o @ v N h j h f < > F.F.F.F.M.z.N.D.F.F.F.F.",
"F.F.F.F.F.F.F.F.F.F.F.F.F.F.F.F.F.F.F.F.F.F.F.F.F.> > $ . @ j j g h = % > > > F.F.F.F.M.n.v.Z.F.F.F.",
"F.F.F.F.F.F.F.F.F.F.F.F.F.F.F.F.F.F.F.F.F.F.F.F.F.> $ . . @ h h g h + . % > > > > F.F.F.B.m.v.D.F.F.",
"F.F.F.F.F.F.F.F.F.F.F.F.F.F.F.F.F.F.F.F.F.F.F.F.F.$ .     @ h h g g +   X % > > > > > F.F.B.b.S.F.F.",
"F.F.F.F.F.F.F.F.F.F.F.F.F.F.F.F.F.F.F.F.F.F.F.F.: . . . X & g f g g +     X > > > > > > F.F.Z.A.D.F.",
"F.F.F.F.F.F.F.F.F.F.F.F.F.F.F.F.F.F.F.F.F.F.F.F.k ; X   = h f > g g + # - * % > > > > > F.F.F.D.D.F.",
"F.F.F.F.F.F.F.F.F.F.F.F.F.F.F.F.F.F.F.F.F.F.F.c *.=.b X = g f < j j X C ;.#.# > > > > > > F.F.F.F.F.",
"F.F.F.F.F.F.F.F.F.F.F.F.F.F.F.F.F.F.F.F.F.F.F.x 7.0.;.B j f > < g j X ,.w.4.#.> > > > > > > F.F.F.F.",
"F.F.F.F.F.F.F.F.F.F.F.F.F.F.F.F.F.F.F.F.F.F.F.x 9.q.0.A % > > > g < % ,.w.0.2.> > F.F.> > > F.F.F.F.",
"F.F.F.F.F.F.F.F.F.F.F.F.F.F.F.F.F.F.F.F.F.F.F.F.q.q.>.m > > > > , > F.8.w.5.Y G F.F.F.F.> > F.F.F.F.",
"F.F.F.F.F.F.F.F.F.F.F.F.F.F.F.F.F.F.F.F.F.F.F.F./ ( U H F.F.F.F.F.F.F.F.1.T Q  .F.F.F.F.F.F.F.F.F.F.",
"F.F.F.F.F.F.F.F.F.F.F.F.F.F.F.F.F.F.F.F.F.F.F.s.[ P L F.F.F.F.F.F.F.F.F.[ ]  .h.F.F.F.F.F.F.F.F.F.F.",
"F.F.F.F.F.F.F.F.F.F.F.F.F.F.F.F.F.F.F.F.F.F.F.h.j.W F.F.F.F.F.F.F.F.F.F.F.j.h.f.F.F.F.F.F.F.F.F.F.F.",
"F.F.F.F.F.F.F.F.F.F.F.F.F.F.F.F.F.F.F.F.F.F.F. . .F.F.F.F.F.F.F.F.F.F.F.F.F. .t.F.F.F.F.F.F.F.F.F.F.",
"F.F.F.F.F.F.F.F.F.F.F.F.F.F.F.F.F.F.F.F.F.F.F.L L F.F.F.F.F.F.F.F.F.F.F.F.F.L L F.F.F.F.F.F.F.F.F.F.",
"F.F.F.F.F.F.F.F.F.F.F.F.F.F.F.F.F.F.F.F.F.F.F.F.F.F.F.F.F.F.F.F.F.F.F.F.F.F.F.F.F.F.F.F.F.F.F.F.F.F."
};
