/* XPM */
static char *pdl101641565246[] = {
/* columns rows colors chars-per-pixel */
"50 50 171 2 ",
"   c None",
".  c #0E001E",
"X  c #0F0021",
"o  c #130022",
"O  c #1C0224",
"+  c #170829",
"@  c #250223",
"#  c #23032A",
"$  c #2B032D",
"%  c #280A26",
"&  c #380625",
"*  c #2E0132",
"=  c #330632",
"-  c #201230",
";  c #3A1135",
":  c #26272A",
">  c #26292B",
",  c #2C2C2B",
"<  c #342F2C",
"1  c #2F2F30",
"2  c #282538",
"3  c #3F2F3B",
"4  c #2E3031",
"5  c #323235",
"6  c #39363B",
"7  c #363439",
"8  c #52130C",
"9  c #501C1B",
"0  c #6F2715",
"q  c #652217",
"w  c #732A15",
"e  c #782D19",
"r  c #7B2C16",
"t  c #75311C",
"y  c #7D311A",
"u  c #7F3C1F",
"i  c #420625",
"p  c #4C0927",
"a  c #590A27",
"s  c #441A20",
"d  c #5B1229",
"f  c #5C1A36",
"g  c #661A2A",
"h  c #402E28",
"j  c #44352B",
"k  c #4B382B",
"l  c #5C2D37",
"z  c #5C3E35",
"x  c #573C33",
"c  c #7C3B25",
"v  c #66233E",
"b  c #6A442A",
"n  c #764829",
"m  c #71463C",
"M  c #6F5836",
"N  c #705F39",
"B  c #71603B",
"V  c #3D4345",
"C  c #3E494D",
"Z  c #344144",
"A  c #404C4F",
"S  c #434747",
"D  c #414D51",
"F  c #474454",
"G  c #5C4D5E",
"H  c #455254",
"J  c #4B585C",
"K  c #495558",
"L  c #5B585E",
"P  c #684D49",
"I  c #6B5452",
"U  c #535F62",
"Y  c #655C79",
"T  c #4F6369",
"R  c #59646D",
"E  c #59666A",
"W  c #5F7174",
"Q  c #676B72",
"!  c #6B7A7E",
"~  c #657478",
"^  c #85381A",
"/  c #97441C",
"(  c #A5521F",
")  c #A35121",
"_  c #AD5D27",
"`  c #A35A29",
"'  c #A95F2A",
"]  c #B35C23",
"[  c #BB6522",
"{  c #B96B2E",
"}  c #B6672B",
"|  c #B76D32",
" . c #A7773B",
".. c #CB742B",
"X. c #D27628",
"o. c #C97B36",
"O. c #95634A",
"+. c #8F7642",
"@. c #927842",
"#. c #BA7340",
"$. c #937869",
"%. c #B0833F",
"&. c #CE873E",
"*. c #F69D3F",
"=. c #B48C46",
"-. c #B9974C",
";. c #B29052",
":. c #C6894D",
">. c #DB8C42",
",. c #E19A4F",
"<. c #DBA05F",
"1. c #E6A94B",
"2. c #FBAC52",
"3. c #E9B351",
"4. c #F0B853",
"5. c #D7A36E",
"6. c #F9BA6A",
"7. c #F7B96B",
"8. c #FCC85A",
"9. c #6E7D82",
"0. c #776B9A",
"q. c #796D9D",
"w. c #7F6FA8",
"e. c #847F97",
"r. c #8377AA",
"t. c #758489",
"y. c #778081",
"u. c #7E8E93",
"i. c #838C8E",
"p. c #998297",
"a. c #819196",
"s. c #839499",
"d. c #A98897",
"f. c #8981AA",
"g. c #9498A8",
"h. c #8E85B3",
"j. c #9286B3",
"k. c #938BB7",
"l. c #948EB9",
"z. c #9A93BB",
"x. c #9F9CBF",
"c. c #A18FA3",
"v. c #A3ACBB",
"b. c #CBB28B",
"n. c #FFCD80",
"m. c #FFDD8B",
"M. c #FCDB9E",
"N. c #E8CB97",
"B. c #CBC8A3",
"V. c #FCDDA1",
"C. c #A49EC2",
"Z. c #ACA9C8",
"A. c #ADB3C4",
"S. c #B1B2CD",
"D. c #B9B7C9",
"F. c #B3B4D0",
"G. c #B9BBD2",
"H. c #C0BED5",
"J. c #BBC1D5",
"K. c #C4CCDC",
"L. c #C1C4D3",
"P. c #C9D1DC",
"I. c #C7D0DE",
"U. c #CCD3E1",
"Y. c #D7D5E5",
"T. c #E5E1EC",
"R. c #ECECF2",
"E. c #EEF1F5",
"W. c #F2F3F6",
"Q. c #FDFCFD",
"!. c #F5F7FA",
/* pixels */
"                                                                                                    ",
"                                                                                                    ",
"                                                                                                    ",
"                                                                                                    ",
"                                                                                                    ",
"                                                                                                    ",
"                                                                                                    ",
"                                                                                                    ",
"                                                                                                    ",
"                                                                                                    ",
"                                                                                                    ",
"                                                                                                    ",
"                                                                                                    ",
"                                                                                                    ",
"                                                                                                    ",
"                                                                                                    ",
"                                                                                                    ",
"                                                                                                    ",
"                                                                                                    ",
"                                                                                                    ",
"                                                                                                    ",
"                                                                                                    ",
"                                                                                                    ",
"                                                                                                    ",
"                                                                                                    ",
"        ,                                                                                           ",
"        , ,                                                                                         ",
"      j b ,                                                                                         ",
"    j b ' M                                                                                         ",
"  > n ] { 3.                                                                                        ",
"    ` _ } 3.                                                                                        ",
"    j b } o.1.                                                                                      ",
"      j n _ 1.-.                                                                                    ",
"        < n %.B >                                                                                   ",
"        , 7 6 6 5 ,                                                                                 ",
"          0.q.q.Y 1                                                                                 ",
"        K.F.h.w.f.g.                                                                                ",
"        K.I.Z.h.l.U.K.                                                                              ",
"            U.Z.z.S.U.                                                                              ",
"            K.K.G.z.R.                                                  y y y y y y y y             ",
"              W.W.R.Q.                        o o                     r y y y y y y r y y y         ",
"            Q.Q.T.Z.U.      = = = = = = = * O . o o       H t.a.    y r y y q s [ X.) r y y         ",
"              E.H.r.J.R.  $ = = = $ # # # m $.Q 2 2 R   J ~ u.~ T z r ^ t / c % 5.*.X.( y y y       ",
"                H.C.S.R.p.$ = $ $ O X . o  .m.B.H U ~ T J 9.9.J S z ^ ^ ^ &.:.I N.6.*...w y y y     ",
"              v.P.R.j.Y.c.; $ o o o o O O n &.;.H 9.T S C C C C x t t y ..6.V.V.V.V.6.[ 8 w y y     ",
"      D C C C H i.R.h.F.K.e.O o o o @ p a d g l A H A A V < , 4 < < h t 5.M.V.V.M.M.6.[ 8 8 w y y   ",
"C ! t.! 9.9.J Z ! !.G.z.F.g.X X o @ & @ O G G F ! ! S 4 5 , , > B -.=.' >.n.b.P ,.2.| w 0 0 e y y   ",
"D 9.a.a.u.u.9.J I d.L.j.C.Z.Q ; & p i + F E W ! a.u.Q V , , , > @.8.4.{ ] | O.9 ( [ ^ q y y y y y y ",
"D ! a.u.u.u.a.~ 3 f D.l.x.U.G.v a a i - t.U E s.u.u.s.E : , , > @.8.3.{ ^ e r ^ e e y y y y y y y y ",
"                                                                                                    "
};
