/* XPM */
static char *pdl21641565245[] = {
/* columns rows colors chars-per-pixel */
"50 50 175 2 ",
"   c None",
".  c #0E001E",
"X  c #3B131F",
"o  c #290618",
"O  c #0D0022",
"+  c #070021",
"@  c #120022",
"#  c #1B0224",
"$  c #1E022A",
"%  c #1F0A26",
"&  c #22032B",
"*  c #250724",
"=  c #360625",
"-  c #33062D",
";  c #3D052B",
":  c #3A092C",
">  c #29162B",
",  c #3E1A23",
"<  c #2E0431",
"1  c #320632",
"2  c #370B30",
"3  c #3A1736",
"4  c #25262A",
"5  c #2B2B2B",
"6  c #282727",
"7  c #38332E",
"8  c #4C0C06",
"9  c #490C09",
"0  c #52130B",
"q  c #58160D",
"w  c #5D1A0E",
"e  c #5F1C10",
"r  c #601D11",
"t  c #6A2314",
"y  c #712916",
"u  c #772D18",
"i  c #7A2F19",
"p  c #7B2D15",
"a  c #7D311A",
"s  c #7B3019",
"d  c #4D0A27",
"f  c #44092D",
"g  c #4B092A",
"h  c #440826",
"j  c #520627",
"k  c #550B28",
"l  c #580B28",
"z  c #421723",
"x  c #401D25",
"c  c #411128",
"v  c #561E2E",
"b  c #431332",
"n  c #523826",
"m  c #473A36",
"M  c #513530",
"N  c #4D2B2A",
"B  c #612E23",
"V  c #6E3426",
"C  c #763623",
"Z  c #73272A",
"A  c #56413B",
"S  c #5C4931",
"D  c #5F5338",
"F  c #7D4234",
"G  c #7B5A3E",
"H  c #685A3A",
"J  c #362C44",
"K  c #363C43",
"L  c #4D3A49",
"P  c #3E4A4E",
"I  c #394346",
"U  c #424B4D",
"Y  c #474247",
"T  c #4A544F",
"R  c #53514C",
"E  c #414D50",
"W  c #49485C",
"Q  c #584851",
"!  c #455356",
"~  c #4A565A",
"^  c #4D5A5D",
"/  c #545251",
"(  c #7F5242",
")  c #6B5553",
"_  c #6B674E",
"`  c #736F55",
"'  c #4C5B61",
"]  c #545E62",
"[  c #556367",
"{  c #5D6B6F",
"}  c #5C6B71",
"|  c #646876",
" . c #647377",
".. c #8A3E16",
"X. c #81341B",
"o. c #8D3E1C",
"O. c #813D22",
"+. c #823E35",
"@. c #97471E",
"#. c #964D26",
"$. c #9E5025",
"%. c #8D5931",
"&. c #995D3F",
"*. c #AE5E29",
"=. c #A7632D",
"-. c #BD6621",
";. c #B6682E",
":. c #B8692D",
">. c #B36E39",
",. c #A5663B",
"<. c #C06821",
"1. c #C87D36",
"2. c #D07E39",
"3. c #8F6044",
"4. c #916144",
"5. c #8D7541",
"6. c #96715D",
"7. c #926F4D",
"8. c #A67454",
"9. c #CB8439",
"0. c #D28D3D",
"q. c #8E8052",
"w. c #958050",
"e. c #BA8655",
"r. c #9F807B",
"t. c #C78A4E",
"y. c #CD9747",
"u. c #D69947",
"i. c #D2A24D",
"p. c #DBAC54",
"a. c #E1A84C",
"s. c #EDB753",
"d. c #E6B051",
"f. c #F2BF57",
"g. c #FAB969",
"h. c #FAC558",
"j. c #F5C258",
"k. c #FFC46F",
"l. c #6E7D81",
"z. c #667889",
"x. c #707F83",
"c. c #7A6F9F",
"v. c #8273A9",
"b. c #728185",
"n. c #76858B",
"m. c #7A888A",
"M. c #7D8D92",
"N. c #7F9095",
"B. c #819196",
"V. c #84959A",
"C. c #A29887",
"Z. c #9FA188",
"A. c #8F87B3",
"S. c #988EB8",
"D. c #9892BA",
"F. c #CFB48C",
"G. c #CFB3AA",
"H. c #FADA9F",
"J. c #F7D89E",
"K. c #EACC97",
"L. c #DAC5BE",
"P. c #FCDEA3",
"I. c #FFE9A2",
"U. c #A3A1C3",
"Y. c #B4ACCB",
"T. c #B1B3CD",
"R. c #BDC3D6",
"E. c #BFC8D9",
"W. c #C4CDDC",
"Q. c #D9D6E5",
"!. c #D7D7E5",
"~. c #E7E7EF",
"^. c #EBEEF2",
"/. c #FCFCFC",
"(. c #F0F1F5",
/* pixels */
"                                                            /./././.                                ",
"                          f.                                /././././.                              ",
"                        f.                                  /./././././.                            ",
"                      f.f.                                  Q.~.^.(././.                            ",
"                      j.                                  ~.D.T.W.!././.                            ",
"                    f.                                    W.R.W.E.  /././.                          ",
"                  f.f.                                  Q.D.R.W.      /././.                        ",
"                  f.f.                                Q.Y.U.R.          /.                          ",
"                  f.f.                              Q.Y.A.W.            /./.                        ",
"                  f.f.                              v.                  /././.                      ",
"                  f.f.                            v.                    /././.                      ",
"                  j.f.                          v.                      /././.                      ",
"                  f.f.                                                  /././.                      ",
"                  f.f.j.                                                G.W.G.                      ",
"                  f.f.f.                                              a p p u i a                   ",
"                    f.f.f.              v.                          a a e 0 0 q i a i a             ",
"                    f.f.            Y v.v.                        a s w 9 9 o 8 w 0 0 r a i         ",
"                    f.f.f.        n J z.c.                      a X.s 0 @.>.7.J o %.,.o.t i X.      ",
"                    j.f.f.f.    1.%.m I                           a s r @.e.Z.z.Q F.g.<.0 t i X.    ",
"                      f.f.f.f.  s.0.%.U                         V C s s X % ) J.P.P.g.<.0 q y X.    ",
"                        f.f.f.f.1.;.                      B.M.] I A s s y 8.K.H.P.P.g.-.q y i i     ",
"                          j.h.j.u.                        B.M.x.[ P A a a #.6.z.Q t.2.o.y i X.a     ",
"                            5.7.                        ~  .M.V. .P U s a p V L z @.@.i X.i X.a     ",
"                            4 4 >                     } ~ E  .l.[ I Y O.o.X.a a X.p i i i X.i       ",
"                              1 1 1 1 1 1 1 1       m.M. .~ U U E I 7 =.:.$.X.a a a a a a a         ",
"                            1 1 1 1 1 1 1 1 < v ;.d.` { B.b.! U P I m i.s.9.@.s a a a a a           ",
"                          1 1 1 f f 1 1 1 < < b Z +.R ! ' ' E P P   7 D H S n N s a a a             ",
"                    P   3 < < < f f f f f f f h j j 3 | Z.q.T P     5 5 4 I ] ^ C   a               ",
"                  P E P m v v v 2 - h l l l l l k k ; r.I.u.Y         5 6 ] V.M.                    ",
"                  U P P ( :.;.*., O * d d l l l k k j &.y.#.b           6 [ M.b.^                   ",
"                    U P w.f.a.;., O @ # # h l k l l l c > * 1             m. .[ b.M.                ",
"                          5.M , % . @ @ @ # = l l l = @ O @ 1               b.b.B.V.                ",
"                              + $ & & & & $ : l j = # @ @ # 1                 n.W W J               ",
"                                1 1 1 1 1 1 f l g # O @ @ @ <                   . O @ @             ",
"                                1 1 1 1 1 1 f k g # @ @ @ @ 1                     @ @ @             ",
"                                      1 1 1 1 f j 1 # @ O @ 1                                       ",
"                                        1 1 1 : k 2 $ O O @ 1                                       ",
"                                            1 2 f 1 & c B N 2                                       ",
"                                              1 1 1 < F 9.>.b                                       ",
"                                                1 1 < 3.h.a.v                                       ",
"                                                    < 4.h.p.R                                       ",
"                                                          _ U                                       ",
"                                                          } }                                       ",
"                                                          B.B.                                      ",
"                                                          n.n.                                      ",
"                                                          ! ~                                       ",
"                                                                                                    ",
"                                                                                                    ",
"                                                                                                    ",
"                                                                                                    "
};
