/* XPM */
static char *pdl31641565245[] = {
/* columns rows colors chars-per-pixel */
"50 50 185 2 ",
"   c None",
".  c #0F001E",
"X  c #0D0022",
"o  c #140122",
"O  c #1C0125",
"+  c #250424",
"@  c #24032C",
"#  c #2A0729",
"$  c #320525",
"%  c #3B0726",
"&  c #3A072E",
"*  c #3E082F",
"=  c #32062F",
"-  c #3D1D28",
";  c #2E0331",
":  c #2E0A3B",
">  c #330632",
",  c #330A34",
"<  c #390C33",
"1  c #391430",
"2  c #27112A",
"3  c #2A2B2C",
"4  c #25272A",
"5  c #2A2D31",
"6  c #3F2D3F",
"7  c #2F373C",
"8  c #2D3133",
"9  c #38383A",
"0  c #3C382F",
"q  c #4A0A06",
"w  c #4C0E09",
"e  c #52130C",
"r  c #58160E",
"t  c #5E1B10",
"y  c #631E12",
"u  c #5D2019",
"i  c #6F2715",
"p  c #6F2B14",
"a  c #732A15",
"s  c #752D19",
"d  c #7A2E19",
"f  c #792C17",
"g  c #7D311A",
"h  c #7C3313",
"j  c #4A0927",
"k  c #470629",
"l  c #430A2E",
"z  c #4A092B",
"x  c #4C0627",
"c  c #500A27",
"v  c #550B28",
"b  c #580B28",
"n  c #491C36",
"m  c #461738",
"M  c #521B31",
"N  c #441E26",
"B  c #4A2725",
"V  c #5F2E24",
"C  c #5F3E34",
"Z  c #4D3528",
"A  c #6A3E2F",
"S  c #65373B",
"D  c #713630",
"F  c #62242C",
"G  c #57412D",
"H  c #57493D",
"J  c #654032",
"K  c #74433E",
"L  c #655738",
"P  c #665737",
"I  c #74533B",
"U  c #322741",
"Y  c #373144",
"T  c #4B2140",
"R  c #403F41",
"E  c #37454B",
"W  c #3E4A4E",
"Q  c #3C4548",
"!  c #106B6E",
"~  c #176F72",
"^  c #186F73",
"/  c #27757B",
"(  c #404C4E",
")  c #474647",
"_  c #4C524D",
"`  c #52574F",
"'  c #575A4F",
"]  c #484A58",
"[  c #455255",
"{  c #4A5659",
"}  c #4B585C",
"|  c #525552",
" . c #57454E",
".. c #6F4645",
"X. c #7F754E",
"o. c #545B67",
"O. c #596569",
"+. c #5F6D71",
"@. c #616F72",
"#. c #6B7A7E",
"$. c #667579",
"%. c #81341B",
"&. c #8B3A19",
"*. c #8D401F",
"=. c #93431F",
"-. c #98471C",
";. c #874726",
":. c #934622",
">. c #9C5427",
",. c #985733",
"<. c #8A5633",
"1. c #A65927",
"2. c #8F633F",
"3. c #B6672C",
"4. c #AA6B38",
"5. c #BD7332",
"6. c #BA7739",
"7. c #895641",
"8. c #946746",
"9. c #A16948",
"0. c #A57648",
"q. c #BB7846",
"w. c #866E62",
"e. c #BB813E",
"r. c #CA8138",
"t. c #EC953C",
"y. c #F1993D",
"u. c #938152",
"i. c #B98A4C",
"p. c #98917A",
"a. c #D79341",
"s. c #CD9B50",
"d. c #E79C46",
"f. c #C6A253",
"g. c #DBAA53",
"h. c #ECB14E",
"j. c #E7B353",
"k. c #EBB452",
"l. c #ECBC56",
"z. c #EFBD58",
"x. c #F2BF57",
"c. c #F2BA5D",
"v. c #DBAF7D",
"b. c #C7B275",
"n. c #FAC355",
"m. c #F5C358",
"M. c #F9C658",
"N. c #FFD05A",
"B. c #F8C974",
"V. c #347081",
"C. c #5F7297",
"Z. c #6D7D82",
"A. c #6D7A8B",
"S. c #707F83",
"D. c #766C9A",
"F. c #6A729C",
"G. c #7F73A7",
"H. c #7573A2",
"J. c #8273A9",
"K. c #8873AC",
"L. c #8B7FB1",
"P. c #468C8E",
"I. c #77878B",
"U. c #78878B",
"Y. c #78888D",
"T. c #7E8E94",
"R. c #95838F",
"E. c #809196",
"W. c #839498",
"Q. c #88948F",
"!. c #A19D81",
"~. c #98A29D",
"^. c #8882A7",
"/. c #96BDBF",
"(. c #B4B4A8",
"). c #CCB084",
"_. c #E0C692",
"`. c #ECD095",
"'. c #FBD494",
"]. c #F9D89C",
"[. c #FCDDA1",
"{. c #B0B7C6",
"}. c #DFEAEB",
"|. c #FCFCFC",
" X c #EEF4F4",
/* pixels */
"                    |.|.|.|.|.|.                        |.|.|.                                      ",
"                    |.|.|.|.                            |.|.|.|.                                    ",
"                  |.|.|.|.|.                                |.|.|.                                  ",
"                  |.|.|.|.                                      |.|.                                ",
"                  |.|.|.                                          |.                                ",
"                |.|.|.        |.                                    |.                              ",
"              |.|.|.            |.                                  |.                              ",
"            |.|.|.|.            |.|.                                                                ",
"            |.|.|.|.            |.|.                                                                ",
"          |.|.|.|.|.                |.                                                              ",
"          |.|.|.|.|.  |.|.|.                                                                        ",
"          |.|.|.|.|.        |.|.                                      |.                            ",
"      |.|.|.|.|.|.|.|.       X/.P.                                                                  ",
"      |.|.|.|.|.|.|.|.|.    }./ !                                                                   ",
"          |.|.|.|.|.|.|.|.|.                                                                        ",
"                  |.|.|.|.|.|.                    ( (                                               ",
"                                      J.J.J.J.J.D.[ I                                               ",
"                                        K.K.J.J.D.( >.r.  k.3.Z 3                                   ",
"                                              ^.L.9 ;.a.m.j.r.G 3 3                                 ",
"                                      ^ ^       {.9 ;.a.m.m.m.P 4 3                                 ",
"                          ~         G.  ^ C.          k.m.x.m.                                      ",
"                        ~ ~       J.J.    H.J.            z.x.                                      ",
"                        ~ ~       J.J.      J.F.        x.x.x.                  %.g g               ",
"                          ~         J.        F.V.      m.x.x.              g g a i d g             ",
"                                                H./   n.m.x.              g g a e w y d f g         ",
"                            x.z.                G.  l.x.x.              g g a e w w e e r d g g g   ",
"                      ( W '   n.M.                z.x.x.x.              g g i q q q w w q e a %.g g ",
"                      W W W [ u.8...  n j.N.N.  n.x.x.x.                g i s 1.0. .2 B 9.>.a i g g ",
"                        ( W ( E U : , 1 0.s.i.s.m.m.m.                  :.s i q.].~.o.w.'.y.h t g g ",
"                          ( ( ` ` n , , & , ; S g.g.                  1.1.:.t 1 ).[.[.[.'.t.%.y g g ",
"                            ` f.6.I Y < z * > < n n <             T.Y.| ( J f s *.v.[.[.'.t.-.s g g ",
"                              m.h.e.J + c c * ; ; > R._.f.W W Q $.T.T.Z.} ) C %.f ,.9.q.d.1.%.g g g ",
"                              8.g.d.;.o $ j c & O @ ).B.i.+.+.[ } Z.T.T.o.W H s s s a &.1.%.f g g g ",
"                              ; 8.4.V . o $ c j + # 2.4.<.S.T.+.[ } Z.Z.} E H >.*.%.d g f %.g g g g ",
"                              > < @ O o o o $ b b v * z M ] S.Y.O.W W W ( 7 L j.5.=.g g g g g g g   ",
"                                > ; ; > j + $ b b v c c v M _ { [ W W W W 7 L l.j.5.=.g g g g g     ",
"                                > > > > c j j b b c b b x n (.b.w.Q W     8 0 L L G Z B             ",
"                                  > > , c b v b v v v v z T `.c.<.7         3 5 } } Q 4             ",
"                                    > , z v b b v b b b z 1 0.,.F             9 $.Z.O.)             ",
"                                    > > > z v v v v b c % o o @ ,               [ [ @.U.            ",
"                                      > > > z v b b b $ O o o @                 U.Y.+.[             ",
"                                        > > = * & + + o X o @ ;                 W.W.Y.Z.            ",
"                                          > > ; @ X . . o @ >                   ] ] ] ]             ",
"                                            ; m S N N # @ >                     . . X o             ",
"                                            : ..j.5.3.D ;                         o o o             ",
"                                            A.p.l.k.x.7.;                                           ",
"                                            E.Q.!.                                                  ",
"                                          E.E.E.                                                    ",
"                                          #.#.#.                                                    ",
"                                          ( ( (                                                     "
};
