/* XPM */
static char *pdl61641565246[] = {
/* columns rows colors chars-per-pixel */
"50 50 180 2 ",
"   c None",
".  c #0E001E",
"X  c #0D0021",
"o  c #130022",
"O  c #1E0228",
"+  c #190123",
"@  c #25032A",
"#  c #2B032A",
"$  c #2D0627",
"%  c #330324",
"&  c #3B0726",
"*  c #3B062F",
"=  c #3D0D2F",
"-  c #231026",
";  c #2D0531",
":  c #320632",
">  c #3D0C32",
",  c #350832",
"<  c #3A1B39",
"1  c #26282A",
"2  c #2B2C2C",
"3  c #352D2A",
"4  c #3A312C",
"5  c #36253F",
"6  c #2F3233",
"7  c #313536",
"8  c #363738",
"9  c #490B07",
"0  c #4B0D0A",
"q  c #55140D",
"w  c #5D1B0E",
"e  c #4B1516",
"r  c #521914",
"t  c #621E11",
"y  c #662112",
"u  c #6D2514",
"i  c #62261A",
"p  c #63281C",
"a  c #762D19",
"s  c #7B2F19",
"d  c #752916",
"f  c #7D311B",
"g  c #72301C",
"h  c #4F0A2A",
"j  c #4B0325",
"k  c #560926",
"l  c #560B28",
"z  c #590C28",
"x  c #451333",
"c  c #5D1D3A",
"v  c #631B2C",
"b  c #5C2F24",
"n  c #532627",
"m  c #52332E",
"M  c #552F38",
"N  c #433C38",
"B  c #54393A",
"V  c #673D22",
"C  c #694024",
"Z  c #74492B",
"A  c #764C38",
"S  c #7B5739",
"D  c #3A2C44",
"F  c #3B3562",
"G  c #3A4447",
"H  c #3E4B4E",
"J  c #3A4A50",
"K  c #116B6E",
"L  c #176F72",
"P  c #30717E",
"I  c #404C4F",
"U  c #5A4045",
"Y  c #5A5145",
"T  c #454856",
"R  c #465356",
"E  c #4C5B5E",
"W  c #48525E",
"Q  c #605143",
"!  c #7E5949",
"~  c #7F4F5A",
"^  c #71694E",
"/  c #7B6057",
"(  c #65654C",
")  c #4B4F62",
"_  c #545C61",
"`  c #545967",
"'  c #725669",
"]  c #556165",
"[  c #646877",
"{  c #68767A",
"}  c #81341A",
"|  c #8C3E1E",
" . c #803017",
".. c #8F401E",
"X. c #944518",
"o. c #9B4A1A",
"O. c #8A4329",
"+. c #87422C",
"@. c #9C4C21",
"#. c #8F4D39",
"$. c #9B5427",
"%. c #A45B29",
"&. c #B05F28",
"*. c #8B703F",
"=. c #B9662A",
"-. c #BC7435",
";. c #C67B34",
":. c #C87B34",
">. c #C87128",
",. c #8B5E54",
"<. c #8F6044",
"1. c #986747",
"2. c #91725B",
"3. c #A67144",
"4. c #B77D46",
"5. c #A76A47",
"6. c #82726D",
"7. c #D5913F",
"8. c #CD853A",
"9. c #E08B3A",
"0. c #8B837C",
"q. c #948E7D",
"w. c #9A947F",
"e. c #B8A776",
"r. c #C38F4C",
"t. c #DC8D42",
"y. c #D39241",
"u. c #D99944",
"i. c #E5984A",
"p. c #C7A04E",
"a. c #DAA852",
"s. c #ECB24E",
"d. c #E4AF53",
"f. c #F8AB53",
"g. c #E4B054",
"h. c #EBB858",
"j. c #F2BF57",
"k. c #F0BE58",
"l. c #E9BA61",
"z. c #ECB775",
"x. c #F4C258",
"c. c #F8C558",
"v. c #387285",
"b. c #43728A",
"n. c #5F7398",
"m. c #696185",
"M. c #6E7D82",
"N. c #796D9C",
"B. c #7E72A5",
"V. c #7473A2",
"C. c #8273A9",
"Z. c #867BAA",
"A. c #5E9B9D",
"S. c #58848B",
"D. c #63838D",
"F. c #75848A",
"G. c #79868C",
"H. c #7C888D",
"J. c #7E8882",
"K. c #768C94",
"L. c #7C8D93",
"P. c #778C98",
"I. c #7E9296",
"U. c #9F9C82",
"Y. c #829296",
"T. c #85959B",
"R. c #8EB8BA",
"E. c #CAAE86",
"W. c #CDB38B",
"Q. c #E9BD84",
"!. c #DEC395",
"~. c #E7C38D",
"^. c #FDDC9E",
"/. c #FAC983",
"(. c #FDDEA2",
"). c #FFEAA8",
"_. c #F4EABF",
"`. c #ABB1C3",
"'. c #CEE0E0",
"]. c #FCFCFC",
/* pixels */
"                                                                                                    ",
"                                                                                                    ",
"                                                                                                    ",
"                                                                                                    ",
"                        ].].].].].].].].                                                            ",
"                  ].].].].].                  ].                                                    ",
"            ].].].].].].].                      ].].].                                              ",
"            ].].].].].].                        ].].].].                                            ",
"            ].].].].                              ].].].].                                          ",
"          ].].].].].                                    ].].                                        ",
"          ].].].].                                        ].                                        ",
"        ].].].].      ].                                    ].                                      ",
"      ].].].].          ].                                  ].                                      ",
"    ].].].].            ].].                                ].                                      ",
"    ].].].].              ].                                                                        ",
"  ].].].].].                ].                                                                      ",
"  ].].].].].    ].].                                                                                ",
"  ].].].].].    ].].].].                                                                            ",
"  ].].].].].].      ].'.R.                                    ].                                    ",
"].].].].].].].].    ].A.K L                                                                         ",
"  ].].].].].].].].].                                                                                ",
"          ].].].].].].                      H J                                                     ",
"            ].].  ].].          C.C.C.  B.W Y S                                                     ",
"                              C.C.C.C.C.C.) Z =.                                                    ",
"                                      B.Z.T C ;.x.k.8.Z 1 2                                         ",
"                              L L     ` `._ V ;.k.x.j.*.1 2                                         ",
"                  L         B.  L b.m.W T.    u.k.k.x.p.                                            ",
"                  L         C.    n.N.[ H.Y.    k.x.k.                                              ",
"                  L         C.      C.B.D.K.0.    j.x.x.                                            ",
"                  L         C.        V.P S.2.;.j.j.g.a.                                            ",
"                                        V.v.( :.j.k.A                                               ",
"                    x.x.                C.F ! s.g.#.x     l                                         ",
"                      j.j.                ,.r.c.g.v @ % z                                           ",
"                        x.k.              c.c.s.r.v % & k                                           ",
"                          j.k.j.k.k.k.x.x.x.h.4.z l k l l                                           ",
"                            j.j.k.k.k.x.k.x.1.x l l l l l     o o o                                 ",
"                            U.U.U.U.e.c.x.<.< , l l l l l     o o .           f } f }               ",
"                              P.P.P.q.y.7.3.M O & l z l h     T T `         d y y y y u }           ",
"                                  I.6.+.O.y.#.X o & l l h *   G.Y.L.M.    s u 9 9 9 9 q u u u       ",
"                                      , , +.b X o o & l l l > [ I.{ E F.,.f u q w i r e p p } } s   ",
"                                      : : > # X o o o & z k h   E ] G.H.J.! u w >.z./ B Q.~.i.o.w s ",
"                                        : : ; # @ o X + & k k k     I.Y.] N n d @.Q.!.E.(.(.f.o.q f ",
"                                        : : : , : o o o o % j k j   G._ 8 1 3 b a 5.Q.).(.(.f.o.q s ",
"                                        : : : : : O o X - B ~ c = <   6 2 2 2 3 g s <.W.(./.t.X.t f ",
"                                          : : : : : O X m h._.' D R R J 7 2 2 3 g } e U Q.9.X.s f f ",
"                                            : : : : ; ; n -.l.U.F.G.F.R 7 2 2 4 $.| a f +.| f f f f ",
"                                                  : : ; < Y ^ J.T.F.E H G 8 2 4 %.O.f f s s f f f f ",
"                                                    :   D H H ] [ ] H H I G N Z %.| s f f f f f f f ",
"                                                          I I H H H H H H H Y =.=.| a f f f f f     ",
"                                                            H H H H H H H H H                       "
};
