/* XPM */
static char *pdl81641565246[] = {
/* columns rows colors chars-per-pixel */
"50 50 172 2 ",
"   c None",
".  c #0E001D",
"X  c #050016",
"o  c #0F0021",
"O  c #120022",
"+  c #1C0224",
"@  c #170829",
"#  c #250223",
"$  c #23032A",
"%  c #2A042D",
"&  c #280A26",
"*  c #350626",
"=  c #3C0726",
"-  c #2E0132",
";  c #320632",
":  c #201230",
">  c #25272B",
",  c #26282B",
"<  c #2C2C2C",
"1  c #252526",
"2  c #352E2B",
"3  c #34332F",
"4  c #2A2835",
"5  c #3E2F3A",
"6  c #2E3031",
"7  c #36353A",
"8  c #303233",
"9  c #52130C",
"0  c #501C1B",
"q  c #6F2715",
"w  c #652217",
"e  c #732A15",
"r  c #782D19",
"t  c #7B2C16",
"y  c #75311C",
"u  c #7D311A",
"i  c #7F3C1F",
"p  c #420625",
"a  c #4C0927",
"s  c #5A0C29",
"d  c #441A20",
"f  c #5B1229",
"g  c #631F39",
"h  c #661A2A",
"j  c #402E28",
"k  c #5C2D37",
"l  c #5C3E35",
"z  c #573C33",
"x  c #7C3B25",
"c  c #4F4634",
"v  c #664B30",
"b  c #71463C",
"n  c #695939",
"m  c #71603B",
"M  c #4A234A",
"N  c #3D4345",
"B  c #3E494D",
"V  c #344043",
"C  c #176F72",
"Z  c #076568",
"A  c #404C4F",
"S  c #434747",
"D  c #454752",
"F  c #5C4D5E",
"G  c #455154",
"H  c #4B585C",
"J  c #495558",
"K  c #59575A",
"L  c #6B5452",
"P  c #684D49",
"I  c #535F62",
"U  c #6F5B70",
"Y  c #4F6369",
"T  c #59646D",
"R  c #59666A",
"E  c #5F7174",
"W  c #6D6D6D",
"Q  c #676B72",
"!  c #6B7A7E",
"~  c #657478",
"^  c #85381A",
"/  c #97441C",
"(  c #A5521F",
")  c #A35121",
"_  c #A95B27",
"`  c #B45C21",
"'  c #836D3F",
"]  c #BB6522",
"[  c #B76A2E",
"{  c #B96B2E",
"}  c #B76D32",
"|  c #A7773B",
" . c #CB742B",
".. c #D27628",
"X. c #C77C37",
"o. c #95634A",
"O. c #8F7642",
"+. c #927842",
"@. c #BA7340",
"#. c #937869",
"$. c #CE873E",
"%. c #F69D3F",
"&. c #AF8D48",
"*. c #B48C46",
"=. c #BB974C",
"-. c #B29052",
";. c #DB8C42",
":. c #C6894D",
">. c #E19A4F",
",. c #DDA048",
"<. c #DBA05F",
"1. c #E5AB4E",
"2. c #FBAC52",
"3. c #EAB451",
"4. c #E7B654",
"5. c #F2BE56",
"6. c #D7A36E",
"7. c #F9BA6A",
"8. c #F7B96B",
"9. c #F4C057",
"0. c #F5C258",
"q. c #FCC85A",
"w. c #72678F",
"e. c #6E7D82",
"r. c #757E80",
"t. c #886F88",
"y. c #837A8B",
"u. c #897F90",
"i. c #947F95",
"p. c #4D9092",
"a. c #569698",
"s. c #758489",
"d. c #7E8E93",
"f. c #74A8AA",
"g. c #868D8F",
"h. c #968096",
"j. c #819196",
"k. c #839499",
"l. c #AF8D9A",
"z. c #A398BF",
"x. c #A297BE",
"c. c #8AB6B7",
"v. c #CBB28B",
"b. c #FFCD80",
"n. c #FFDD8B",
"m. c #FCDB9E",
"M. c #E8CB97",
"N. c #CBC8A3",
"B. c #FCDDA1",
"V. c #ADAAC9",
"C. c #B5ACCC",
"Z. c #BEB6D1",
"A. c #D4BEC5",
"S. c #C1B7D3",
"D. c #C5C3C8",
"F. c #C5CBDB",
"G. c #D3CFDF",
"H. c #CAD1DF",
"J. c #C4DADA",
"K. c #D3D6D6",
"L. c #D4DAE5",
"P. c #D7D7E4",
"I. c #E8DFE2",
"U. c #DFE3EC",
"Y. c #E3ECED",
"T. c #E7E9ED",
"R. c #F2EEEF",
"E. c #EAECF2",
"W. c #EBF4F2",
"Q. c #F4F4F7",
"!. c #FDFDFD",
"~. c #F6F9F9",
/* pixels */
"                                                                                                    ",
"                                                                                                    ",
"                                                                                                    ",
"                                                                                                    ",
"                                                                                                    ",
"                                                                                                    ",
"                                                                                                    ",
"                                                                                                    ",
"                                                                                                    ",
"                                                                                                    ",
"                                    C                                                               ",
"                                C C   C                                                             ",
"                                                                                                    ",
"                                                                                                    ",
"                                                                                                    ",
"                  5.      <                                                                         ",
"                        , < <                                                                       ",
"                        n > <                                                                       ",
"                    9.0.&.c <                                                                       ",
"                    5.5.0.=.3                                                                       ",
"                    5.9.9.4.                                                                        ",
"                    X.1.9.0.                                                                        ",
"                    _ ,.0.                                                                          ",
"                    X.1.                                                                            ",
"                  [ 3.9.                                                                            ",
"            <     [ 3.                                                                              ",
"              < 2 v 4.                                                                              ",
"              1 1 3 '                                                                               ",
"              W K < 1                                                                               ",
"                D.7 <                                                                               ",
"  !.      F.    P.w.7 <                                                                             ",
"    a.Z     F.V.C.G.                                                                                ",
"    c.f.    E.V.z.!.                                                                                ",
"      J.a.  W.Z.z.!.                                                                                ",
"        U.p.J.Z.z.!.                                                                                ",
"        !.Y.~.Z.z.!.                                                                                ",
"          !.!.P.F.!.                                                                                ",
"            !.U.P.!.                                                                                ",
"            !.U.L.!.                                                                                ",
"            !.T.L.Q.                                                    u u u u u u u u             ",
"              !.T.H.                          O O                     u u u u u u u u u u u         ",
"                E.F.Q.      ; ; ; ; ; ; ; - + . O O       G s.d.    t u u u w d ] ..( e u u         ",
"              !.E.H.Q.t.  ; ; ; ; - $ $ $ b #.Q 4 4 I   H ~ d.~ Y l u u y / x & 6.%...( u u u       ",
"                Q.U.Q.i.M ; ; % % + o o @ | n.N.G I ! Y H e.e.J S l ^ ^ ^ $.:.L M.7.%. .e u u u     ",
"              K.E.!.!.!.i.% % O O O O + + x $.-.G e.Y B B B B B l y y u  .7.B.B.B.B.7.] 9 e u u     ",
"      A B A B G g.!.!.!.u.. O O O O # a a f h k D G A B N 2 6 6 2 2 j y 6.m.B.B.m.m.7.] 9 9 e u u   ",
"A ! s.! ! ! H N ! !.!.!.y.X O O o # = # # F F D e.e.S 6 8 < < , m =.*._ ;.b.v.P >.2.} e q q r u u   ",
"A ! j.j.j.j.! H K l.R.!.D.U * * * a p @ D R E ! d.d.Q N < < < , +.q.5.{ ` } o.0 ( ] ^ w u u u u u u ",
"A ! j.d.d.d.k.E 5 g I.!.!.D.f s s s a : s.I R k.j.j.j.I < < < , O.q.3.[ ^ e t ^ r r u u u u u u u u ",
"                                                                                                    "
};
