/* XPM */
static char *pdl91641565246[] = {
/* columns rows colors chars-per-pixel */
"50 50 173 2 ",
"   c None",
".  c #0C001D",
"X  c #17031F",
"o  c #22001F",
"O  c #3C131F",
"+  c #0C0021",
"@  c #120022",
"#  c #1B0224",
"$  c #1F0029",
"%  c #22032A",
"&  c #2A042B",
"*  c #380524",
"=  c #2E0530",
"-  c #320632",
";  c #340934",
":  c #251435",
">  c #1D2022",
",  c #27282A",
"<  c #2C2C2C",
"1  c #252729",
"2  c #392F2A",
"3  c #312F2E",
"4  c #282634",
"5  c #2E3131",
"6  c #313434",
"7  c #3D332B",
"8  c #4D0F0A",
"9  c #611E0E",
"0  c #6A2314",
"q  c #662617",
"w  c #732916",
"e  c #752C19",
"r  c #7A2F19",
"t  c #792B15",
"y  c #7D311A",
"u  c #75311A",
"i  c #440827",
"p  c #4F0A27",
"a  c #570925",
"s  c #571028",
"d  c #64192A",
"f  c #582523",
"g  c #44382C",
"h  c #44213E",
"j  c #5A3236",
"k  c #632631",
"l  c #4C433E",
"z  c #564837",
"x  c #66573A",
"c  c #675839",
"v  c #7A5232",
"b  c #173D44",
"n  c #223D40",
"m  c #343146",
"M  c #431D46",
"N  c #4A394B",
"B  c #3E4A4C",
"V  c #3B4649",
"C  c #31786E",
"Z  c #424649",
"A  c #404C4F",
"S  c #49484C",
"D  c #52574F",
"F  c #434C53",
"G  c #465256",
"H  c #4C575A",
"J  c #6F4D53",
"K  c #566355",
"L  c #555F66",
"P  c #665B68",
"I  c #546266",
"U  c #5D6B6F",
"Y  c #57686D",
"T  c #5E6C70",
"R  c #5F7073",
"E  c #636C75",
"W  c #627275",
"Q  c #69767A",
"!  c #6B7A7E",
"~  c #667379",
"^  c #7C777D",
"/  c #83351B",
"(  c #8C3C1B",
")  c #8F431D",
"_  c #96461E",
"`  c #884D28",
"'  c #9E4F20",
"]  c #935227",
"[  c #AD5A24",
"{  c #A15928",
"}  c #B25E26",
"|  c #A5622E",
" . c #B56128",
".. c #B96629",
"X. c #BE7335",
"o. c #B26F35",
"O. c #D67B2A",
"+. c #C67C36",
"@. c #CA7937",
"#. c #93705A",
"$. c #AE7B53",
"%. c #53896E",
"&. c #DD802A",
"*. c #CF8C3E",
"=. c #D1853F",
"-. c #E0842D",
";. c #B6944B",
":. c #BE8255",
">. c #D49140",
",. c #CC9E52",
"<. c #C2854C",
"1. c #E0994E",
"2. c #F29E44",
"3. c #DAAD50",
"4. c #D3AE5B",
"5. c #FEAB4D",
"6. c #F9AD57",
"7. c #F2BE57",
"8. c #E5B554",
"9. c #FDBE6D",
"0. c #F4C259",
"q. c #F8C358",
"w. c #FBC77F",
"e. c #F9C970",
"r. c #6E7D82",
"t. c #79788C",
"y. c #776A99",
"u. c #7F6FA7",
"i. c #937A93",
"p. c #867AAD",
"a. c #887BAD",
"s. c #718085",
"d. c #79888D",
"f. c #7E8E93",
"g. c #7F9095",
"h. c #819196",
"j. c #839399",
"k. c #9C9C9F",
"l. c #9287B4",
"z. c #9D99BE",
"x. c #A398BF",
"c. c #A492A5",
"v. c #A0A0B5",
"b. c #C9B08B",
"n. c #FBDA9D",
"m. c #EBCD98",
"M. c #FCDDA2",
"N. c #EBE3B2",
"B. c #9F9CC0",
"V. c #A29EC1",
"C. c #A4A2C4",
"Z. c #A9A3C5",
"A. c #ABAAC9",
"S. c #AAA8C7",
"D. c #AFB0CC",
"F. c #B5B5CB",
"G. c #BBBCD2",
"H. c #C3BAC6",
"J. c #BCC4D0",
"K. c #C2C7D9",
"L. c #C4CCDC",
"P. c #CDC8DC",
"I. c #C6D0DE",
"U. c #CCCEE0",
"Y. c #D4CFE1",
"T. c #C8D0E0",
"R. c #D7DCE6",
"E. c #DFE4ED",
"W. c #E8EAEB",
"Q. c #EDEBF2",
"!. c #F2F2F5",
"~. c #FEFEFE",
"^. c #F5F7F8",
/* pixels */
"                                                                                                    ",
"                                                                                                    ",
"                                                                                                    ",
"                                                                                                    ",
"                                                                                                    ",
"                                                                                                    ",
"                                                                                                    ",
"                                                                                                    ",
"                                                                                                    ",
"                                                                                                    ",
"                                                                                                    ",
"                                                                                                    ",
"                                                                                                    ",
"                                                                                                    ",
"                                                                                                    ",
"                                                                                                    ",
"                                                                                                    ",
"                                                                                                    ",
"                                                                                                    ",
"                                                                                                    ",
"                                                                                                    ",
"            <                                                                                       ",
"            <                                                                                       ",
"          n                                                                                         ",
"          C                                                                                         ",
"          4.                                                                                        ",
"< <     q.                                                                                          ",
"< , b %.                                                                                            ",
"< g K %.                                                                                            ",
"7 ` *.0.                                                                                            ",
"{ [ >.0.                                                                                            ",
"   ...*.0.                                                                                          ",
"  ..[ +.8.z                                                                                         ",
"  ` ` o.3.g >     ~.                                                                                ",
"  < , x ,.S 5 k.~.                                                                                  ",
"    1 S i.y.y.G.~.                                                                                  ",
"      t.A.a.u.A.R.                                                                                  ",
"        J.C.a.B.T.                                                                                  ",
"          I.C.B.D.F.                                                                                ",
"          T.L.C.a.l.Q.                                                    y y y y y y y y           ",
"              !.P.l.Q.~.                        @ @                     / r t / y y t u y y y       ",
"              ~.^.Y.Z.K.      - - - - - - - - $ . + @       B ! h.    r r / r w O ' O. .y y y       ",
"                ^.R.a.A.E.  ; - - - = % % $ j #.^ m 4 F   G U d.s.Y S r r r ( _ # :.5.&.[ ( y y     ",
"                  J.Z.S.W.H.- - = & % @ @ + v e.N.K H W T G Q r.I Z z y y ( @.,.J b.w.2.&.y e y y   ",
"                  K.^.x.G.H.M - # @ @ @ # # f X.,.D ~ T B B B B B l u u u  .6.n.n.M.M.w.&.9 q r y   ",
"        A A A A A T W.v.V.L.x.: . @ @ # i p s d k S G F F B 6 5 5 3 2 2 q :.n.M.n.n.M.w.&.9 8 0 y y ",
"    T d.! ! r.I V K W.P.z.C.F.: . + % * & o N P N ~ r.H 5 6 < < , z ;.;.| +.9.m.J :.5.*.y w 0 e y y ",
"  B U h.h.h.j.r.L G i.G.C.l.F.t.h * i p # m L R W f.h.r.S < < < , c 0.0.+.[ ..$.f )  ._ 9 r / y y y ",
"    U h.f.f.f.h.r.Z p c.C.l.L.T.J a s p % E W L g.f.f.j.Q < < < 1 x 7.7.+.] w t / r r r y y y y y y ",
"                                                                                                    "
};
