/* XPM */
static char *pdr11641565246[] = {
/* columns rows colors chars-per-pixel */
"50 50 190 2 ",
"   c None",
".  c #772635",
"X  c #2A004D",
"o  c #35005A",
"O  c #3B005C",
"+  c #42045D",
"@  c #4C065C",
"#  c #4B0C5C",
"$  c #50075D",
"%  c #4C115C",
"&  c #591E5C",
"*  c #620D5E",
"=  c #62115F",
"-  c #69285E",
";  c #763352",
":  c #4E0764",
">  c #5B0D69",
",  c #580A66",
"<  c #581462",
"1  c #4C1564",
"2  c #600F6B",
"3  c #671460",
"4  c #62106B",
"5  c #6B136E",
"6  c #7B1D62",
"7  c #7D1C6D",
"8  c #761A67",
"9  c #6E1371",
"0  c #711671",
"q  c #731A71",
"w  c #7B1E70",
"e  c #5C3678",
"r  c #672664",
"t  c #75226D",
"y  c #782771",
"u  c #663674",
"i  c #6B6B6B",
"p  c #686868",
"a  c #6F6F70",
"s  c #777879",
"d  c #8A2F23",
"f  c #943F2D",
"g  c #8F3829",
"h  c #99432C",
"j  c #9D4D35",
"k  c #A04D31",
"l  c #A55A3F",
"z  c #A65637",
"x  c #821E68",
"c  c #8B2363",
"v  c #882169",
"b  c #942764",
"n  c #962864",
"m  c #992965",
"M  c #8A386E",
"N  c #933B6B",
"B  c #985D54",
"V  c #AA5F41",
"C  c #A35C4C",
"Z  c #966E59",
"A  c #9F755F",
"S  c #AE6B4A",
"D  c #AB664A",
"F  c #B26E4C",
"G  c #B0674B",
"H  c #B3704D",
"J  c #BC7549",
"K  c #BA7952",
"L  c #BA7B58",
"P  c #865062",
"I  c #8D4767",
"U  c #AB4D6D",
"Y  c #956C77",
"T  c #977D65",
"R  c #AD676A",
"E  c #B67768",
"W  c #A9607C",
"Q  c #A6747E",
"!  c #C07646",
"~  c #7D817F",
"^  c #94806A",
"/  c #999179",
"(  c #BD8C74",
")  c #BEA175",
"_  c #C28152",
"`  c #C78966",
"'  c #CA9468",
"]  c #D69C64",
"[  c #DAA46C",
"{  c #DAA76C",
"}  c #D6A773",
"|  c #E2AC71",
" . c #E5B272",
".. c #F2C078",
"X. c #7C7E81",
"o. c #7B6884",
"O. c #6D76A5",
"+. c #826A80",
"@. c #AD6D81",
"#. c #AE7789",
"$. c #9479A1",
"%. c #7C888C",
"&. c #7B868A",
"*. c #828C8E",
"=. c #898B8E",
"-. c #968E80",
";. c #9D938C",
":. c #878A95",
">. c #859093",
",. c #8C9699",
"<. c #899497",
"1. c #929B9E",
"2. c #A48398",
"3. c #BA928C",
"4. c #B4A884",
"5. c #A5AC9F",
"6. c #B9B190",
"7. c #8F9CA3",
"8. c #969CA2",
"9. c #989FA1",
"0. c #A08EB0",
"q. c #99A3A6",
"w. c #9CA9AC",
"e. c #96A1A5",
"r. c #9DAAB0",
"t. c #A0AAAC",
"y. c #BEA1A8",
"u. c #BDB5A7",
"i. c #A2ADB1",
"p. c #A8A5B9",
"a. c #A6B1B5",
"s. c #AEB9BD",
"d. c #A8B3B6",
"f. c #B7B9B9",
"g. c #C28D84",
"h. c #C99686",
"j. c #DAAB90",
"k. c #C7BD93",
"l. c #D6AD86",
"z. c #E4BA88",
"x. c #CDBEA1",
"c. c #C6ADAF",
"v. c #D8C48C",
"b. c #D1C19F",
"n. c #DFD19F",
"m. c #EFCC89",
"M. c #EECC86",
"N. c #F1CC87",
"B. c #F5D48C",
"V. c #FCD28B",
"C. c #E9C891",
"Z. c #F0CC9B",
"A. c #EAD696",
"S. c #F5DB94",
"D. c #F8DD95",
"F. c #FFE597",
"G. c #FFE598",
"H. c #DDD5BD",
"J. c #D4C1A8",
"K. c #F3D4A5",
"L. c #E8D3BD",
"P. c #E5C8AF",
"I. c #FFF6BF",
"U. c #B4AACF",
"Y. c #BAABC5",
"T. c #AEBAC0",
"R. c #B2BEC2",
"E. c #B8B6CB",
"W. c #B6ACD1",
"Q. c #BDB5D4",
"!. c #C1AECB",
"~. c #CCBCCD",
"^. c #B5C0C4",
"/. c #BEC8CD",
"(. c #C7CECC",
"). c #C7C6D8",
"_. c #CED6D6",
"`. c #D8D6D0",
"'. c #FFEEC5",
"]. c #FCEDCA",
"[. c #FFF7CE",
"{. c #FFF7D3",
"}. c #EEE3C8",
"|. c #DADFE7",
" X c #D7D9E6",
".X c #DEE3EB",
"XX c #E1E6EE",
"oX c #E7E7E9",
"OX c #FEFEFE",
"+X c #F3F6F7",
/* pixels */
"                                                                                                    ",
"                                                                                                    ",
"                                                                                                    ",
"                                                                                                    ",
"                                                                                                    ",
"                                                                                                    ",
"                                                                                                    ",
"                                                                                                    ",
"                                                D.                                                  ",
"                            H H H H H G             D.D.D.                                          ",
"                          H H F H H l h G H               D.  i i i                                 ",
"                        H H H H H l g d f D               D.D.v./ p                                 ",
"                      H H H H H F J J ! ! l V             D.D.m.)                                   ",
"                    H F H H H H _ | V.V.V.V j H           D.m.}                                     ",
"                    H H H H F D ' Z.].].L.C k H   s i ^ } m.[                                       ",
"                    H H H H D & # 2.[.L.u . z H   _.=.i ^ [                                         ",
"                    H H F _ | c.O.t.[.}.O.; k ( .X).U.*.s -.                                        ",
"                    H F H K } {.`.`.P.2.R.B h ` ).U.U.Y.i.%.                                        ",
"                    H H H F L K.'.[.y.1 Z.C C 3.U.U.Q. X).*.                                        ",
"                    H H H F J | K.I.c.r ] z 3._.Y.Q. X                                              ",
"                      H F H H K L [  .[ z l ` } l.oX                                                ",
"                      H H H H H S ] A.b.] z.J.u.c.(.                                                ",
"                        H H F Z ' M.n.w.b.H.(.R.^.^.                                                ",
"                          F Z i 4.v.4.%.w.R.R.R.R.a.                                                ",
"                          A i i i a X.<.*.t.s.s.d.>.                                                ",
"                        f.q.i i p :.~.oX,.*.>.=.>.%.i.                                              ",
"                        t.s.9.a :.Q..XXX  %.&.<.a.a.^.$.                                            ",
"                      w.9.i.R.1.E. XXX    %.*.=.w.w.:.#.@.                                          ",
"                    R.^.w.1.a./.|.XX      ;.t.1.o.+.y @.g.I                                         ",
"                    ^.^.^.a.e. XXX      q h.I.~.w b b x M E y                                       ",
"                  R.s.s.R./. X.X        0 E m.j.b b b b 6 % : >                                     ",
"                  e e e 0.+X+X        9 : & I U b b b m 6 o O > q                                   ",
"                  o o X !.OX          5 O o * b b b b n c * + 2 0 0                                 ",
"                  O O     OX          5 + o 3 n b b b b n c + 2 q 0 0                               ",
"                            OX        5 : o 3 n n b b b n c $ 4 0 0 0 0                             ",
"                                OX    5 O o 3 n b b b b n n x 8 0 0 0 0 0                           ",
"                                      5 + o = n b b x v n b n & > 0 0 0 0 0                         ",
"                                      5 + o = n b b 7 5 8 n b @ : q 0 0 0                           ",
"                                      5 - - - c n b 7 : + 6 b 6 5 0 0 0                             ",
"                                      M ' { P $ b b 7 > o # N ` R t 0 0                             ",
"                                      ' m.D.Y @ b b 7 9 > 1 l.S. .R q                               ",
"                                      B.D.G.Y $ b 7 0 0 5 y C.F.S.z.                                ",
"                                      k.S.G.@.> 7 0 0 0 0 y @.C.F.A.                                ",
"                                    7.*.k.S.#.0 0 0 0 0 0 0 9 h.A.6.*.                              ",
"                                    d.>.*.        0 0 0 0 0 0     *.,.s.                            ",
"                                  R.R.d.*.                          s.R.R.                          ",
"                                  ^.^.^.                              ^.^.^.                        ",
"                                  q.q.q.                              q.q.q.                        ",
"                                    %.%.                              %.%.                          ",
"                                                                                                    "
};
