/* XPM */
static char *pdr21641565247[] = {
/* columns rows colors chars-per-pixel */
"50 50 175 2 ",
"   c None",
".  c #0E001E",
"X  c #3B131F",
"o  c #290618",
"O  c #0D0022",
"+  c #070021",
"@  c #120022",
"#  c #1B0224",
"$  c #1E022A",
"%  c #1F0A26",
"&  c #22032B",
"*  c #250724",
"=  c #360625",
"-  c #33062D",
";  c #3D052B",
":  c #3A092C",
">  c #29162B",
",  c #3E1A23",
"<  c #2E0431",
"1  c #320632",
"2  c #370B30",
"3  c #3A1736",
"4  c #25262A",
"5  c #2B2B2B",
"6  c #282727",
"7  c #38332E",
"8  c #4C0C06",
"9  c #490C09",
"0  c #52130B",
"q  c #58160D",
"w  c #5D1A0E",
"e  c #5F1C10",
"r  c #601D11",
"t  c #6A2314",
"y  c #712916",
"u  c #772D18",
"i  c #7A2F19",
"p  c #7B2D15",
"a  c #7D311A",
"s  c #7B3019",
"d  c #4D0A27",
"f  c #44092D",
"g  c #4B092A",
"h  c #440826",
"j  c #520627",
"k  c #550B28",
"l  c #580B28",
"z  c #421723",
"x  c #401D25",
"c  c #411128",
"v  c #561E2E",
"b  c #431332",
"n  c #523826",
"m  c #473A36",
"M  c #513530",
"N  c #4D2B2A",
"B  c #612E23",
"V  c #6E3426",
"C  c #763623",
"Z  c #73272A",
"A  c #56413B",
"S  c #5C4931",
"D  c #5F5338",
"F  c #7D4234",
"G  c #7B5A3E",
"H  c #685A3A",
"J  c #362C44",
"K  c #363C43",
"L  c #4D3A49",
"P  c #3E4A4E",
"I  c #394346",
"U  c #424B4D",
"Y  c #474247",
"T  c #4A544F",
"R  c #53514C",
"E  c #414D50",
"W  c #49485C",
"Q  c #584851",
"!  c #455356",
"~  c #4A565A",
"^  c #4D5A5D",
"/  c #545251",
"(  c #7F5242",
")  c #6B5553",
"_  c #6B674E",
"`  c #736F55",
"'  c #4C5B61",
"]  c #545E62",
"[  c #556367",
"{  c #5D6B6F",
"}  c #5C6B71",
"|  c #646876",
" . c #647377",
".. c #8A3E16",
"X. c #81341B",
"o. c #8D3E1C",
"O. c #813D22",
"+. c #823E35",
"@. c #97471E",
"#. c #964D26",
"$. c #9E5025",
"%. c #8D5931",
"&. c #995D3F",
"*. c #AE5E29",
"=. c #A7632D",
"-. c #BD6621",
";. c #B6682E",
":. c #B8692D",
">. c #B36E39",
",. c #A5663B",
"<. c #C06821",
"1. c #C87D36",
"2. c #D07E39",
"3. c #8F6044",
"4. c #916144",
"5. c #8D7541",
"6. c #96715D",
"7. c #926F4D",
"8. c #A67454",
"9. c #CB8439",
"0. c #D28D3D",
"q. c #8E8052",
"w. c #958050",
"e. c #BA8655",
"r. c #9F807B",
"t. c #C78A4E",
"y. c #CD9747",
"u. c #D69947",
"i. c #D2A24D",
"p. c #DBAC54",
"a. c #E1A84C",
"s. c #EDB753",
"d. c #E6B051",
"f. c #F2BF57",
"g. c #FAB969",
"h. c #FAC558",
"j. c #F5C258",
"k. c #FFC46F",
"l. c #6E7D81",
"z. c #667889",
"x. c #707F83",
"c. c #7A6F9F",
"v. c #8273A9",
"b. c #728185",
"n. c #76858B",
"m. c #7A888A",
"M. c #7D8D92",
"N. c #7F9095",
"B. c #819196",
"V. c #84959A",
"C. c #A29887",
"Z. c #9FA188",
"A. c #8F87B3",
"S. c #988EB8",
"D. c #9892BA",
"F. c #CFB48C",
"G. c #CFB3AA",
"H. c #FADA9F",
"J. c #F7D89E",
"K. c #EACC97",
"L. c #DAC5BE",
"P. c #FCDEA3",
"I. c #FFE9A2",
"U. c #A3A1C3",
"Y. c #B4ACCB",
"T. c #B1B3CD",
"R. c #BDC3D6",
"E. c #BFC8D9",
"W. c #C4CDDC",
"Q. c #D9D6E5",
"!. c #D7D7E5",
"~. c #E7E7EF",
"^. c #EBEEF2",
"/. c #FCFCFC",
"(. c #F0F1F5",
/* pixels */
"                                /./././.                                                            ",
"                              /././././.                                f.                          ",
"                            /./././././.                                  f.                        ",
"                            /./.(.^.~.Q.                                  f.f.                      ",
"                            /./.!.W.T.S.~.                                  f.                      ",
"                          /././.  E.W.R.W.                                    f.                    ",
"                        /././.      W.E.D.Q.                                  f.f.                  ",
"                          /.          R.U.Y.Q.                                j.j.                  ",
"                        /./.            W.A.Y.Q.                              f.f.                  ",
"                      /././.                  v.                              f.f.                  ",
"                      /././.                    v.                            f.f.                  ",
"                      /././.                      v.                          f.f.                  ",
"                      /././.                                                  f.f.                  ",
"                      G.W.G.                                                f.f.f.                  ",
"                  a u u X.X.X.                                              f.f.j.                  ",
"            a i a u q 0 0 w X.p                           v.              f.f.f.                    ",
"        a a e q q q 8 9 9 X e s a                         v.v.Y             f.f.                    ",
"      X.i t ..,.( o J 7.=.@.0 u X.a                       c.z.K n         f.f.f.                    ",
"    a u t q <.k.F.Q z.Z.e.@.r s a                           K m %.1.    f.f.f.f.                    ",
"    a y 0 0 <.g.P.H.J.) % X a a a V                         U %.y.s.  f.f.f.j.                      ",
"    a a y q -.g.P.H.H.K.8.y a a A P [ M.M.                      ;.1.f.f.j.j.                        ",
"    a a i y o.2.t.Q z.6.#.p s A U [ b.M.N.                        u.h.j.j.                          ",
"    a a X.i p @.@.z L V p p s U P  .V.M. .~                         5.5.                            ",
"      a i X.i u p X.X.i a @.F Y I [ l. .U ~ }                     > > 4                             ",
"        a a a a a a a a $.:.=.7 I E P U ~  .m.m.      1 1 1 1 1 1 1 1                               ",
"          a X.a a a a $.9.j.i.7 K E P ! b.B.} ` d.;.v < 1 1 1 1 1 1 1 1                             ",
"            a a a s N N S H D 7   P P E ' ] ! R +.Z b 1 1 1 1 < f f 1 - 1                           ",
"              a   a ^ ] I 4 4 5     P T q.Z.| 3 j j f f f f f f f ; < < < 3   P                     ",
"                    B.V.[ 6 5         Y u.I.r.; k l l l l l l d - 2 v v v L P P P                   ",
"                  ^ b.B.] 6           b #.y.&.j k k k l k g d * O x =.:.:.( P P E                   ",
"                M.l.^ l.m.            1 * > , k k l l l h # # @ O , :.a.s.w.P P                     ",
"                V.B.l.b.              1 @ . @ = l k l ; # @ O @ . * x M 5.                          ",
"              J W W n.                < @ @ O # = k k : $ & & & & $ O                               ",
"            @ @ . .                   1 @ @ @ @ # d l f 1 1 1 1 1 1                                 ",
"            @ @ @                     < @ O @ O # d k f 1 1 1 1 1 1                                 ",
"                                      1 $ @ @ $ - g f 1 1 1 1                                       ",
"                                      1 @ O O $ 2 k f < 1 1                                         ",
"                                      2 N B , & 1 f 1 1                                             ",
"                                      b >.9.F < 1 1 1                                               ",
"                                      v a.h.3.< 1 1                                                 ",
"                                      R p.h.4.<                                                     ",
"                                      U _                                                           ",
"                                      } }                                                           ",
"                                      B.B.                                                          ",
"                                      m.n.                                                          ",
"                                      ! !                                                           ",
"                                                                                                    ",
"                                                                                                    ",
"                                                                                                    ",
"                                                                                                    "
};
