/* XPM */
static char *pdr31641565247[] = {
/* columns rows colors chars-per-pixel */
"50 50 185 2 ",
"   c None",
".  c #0F001E",
"X  c #0D0022",
"o  c #140122",
"O  c #1C0125",
"+  c #250424",
"@  c #24032C",
"#  c #2A0729",
"$  c #320525",
"%  c #3B0726",
"&  c #3A072E",
"*  c #3E082F",
"=  c #32062F",
"-  c #3D1D28",
";  c #2E0331",
":  c #2E0A3B",
">  c #330632",
",  c #330A34",
"<  c #390C33",
"1  c #391430",
"2  c #27112A",
"3  c #2A2B2C",
"4  c #25272A",
"5  c #2A2D31",
"6  c #3F2D3F",
"7  c #2F373C",
"8  c #2D3133",
"9  c #38383A",
"0  c #3C382F",
"q  c #4A0A06",
"w  c #4C0E09",
"e  c #52130C",
"r  c #58160E",
"t  c #5E1B10",
"y  c #631E12",
"u  c #5D2019",
"i  c #6F2715",
"p  c #6F2B14",
"a  c #732A15",
"s  c #752D19",
"d  c #7A2E19",
"f  c #792C17",
"g  c #7D311A",
"h  c #7C3313",
"j  c #4A0927",
"k  c #470629",
"l  c #430A2E",
"z  c #4A092B",
"x  c #4C0627",
"c  c #500A27",
"v  c #550B28",
"b  c #580B28",
"n  c #491C36",
"m  c #461738",
"M  c #521B31",
"N  c #441E26",
"B  c #4A2725",
"V  c #5F2E24",
"C  c #5F3E34",
"Z  c #4D3528",
"A  c #6A3E2F",
"S  c #65373B",
"D  c #713630",
"F  c #62242C",
"G  c #57412D",
"H  c #57493D",
"J  c #654032",
"K  c #74433E",
"L  c #655738",
"P  c #665737",
"I  c #74533B",
"U  c #322741",
"Y  c #373144",
"T  c #4B2140",
"R  c #403F41",
"E  c #37454B",
"W  c #3E4A4E",
"Q  c #3C4548",
"!  c #106B6E",
"~  c #176F72",
"^  c #186F73",
"/  c #27757B",
"(  c #404C4E",
")  c #474647",
"_  c #4C524D",
"`  c #52574F",
"'  c #575A4F",
"]  c #484A58",
"[  c #455255",
"{  c #4A5659",
"}  c #4B585C",
"|  c #525552",
" . c #57454E",
".. c #6F4645",
"X. c #7F754E",
"o. c #545B67",
"O. c #596569",
"+. c #5F6D71",
"@. c #616F72",
"#. c #6B7A7E",
"$. c #667579",
"%. c #81341B",
"&. c #8B3A19",
"*. c #8D401F",
"=. c #93431F",
"-. c #98471C",
";. c #874726",
":. c #934622",
">. c #9C5427",
",. c #985733",
"<. c #8A5633",
"1. c #A65927",
"2. c #8F633F",
"3. c #B6672C",
"4. c #AA6B38",
"5. c #BD7332",
"6. c #BA7739",
"7. c #895641",
"8. c #946746",
"9. c #A16948",
"0. c #A57648",
"q. c #BB7846",
"w. c #866E62",
"e. c #BB813E",
"r. c #CA8138",
"t. c #EC953C",
"y. c #F1993D",
"u. c #938152",
"i. c #B98A4C",
"p. c #98917A",
"a. c #D79341",
"s. c #CD9B50",
"d. c #E79C46",
"f. c #C6A253",
"g. c #DBAA53",
"h. c #ECB14E",
"j. c #E7B353",
"k. c #EBB452",
"l. c #ECBC56",
"z. c #EFBD58",
"x. c #F2BF57",
"c. c #F2BA5D",
"v. c #DBAF7D",
"b. c #C7B275",
"n. c #FAC355",
"m. c #F5C358",
"M. c #F9C658",
"N. c #FFD05A",
"B. c #F8C974",
"V. c #347081",
"C. c #5F7297",
"Z. c #6D7D82",
"A. c #6D7A8B",
"S. c #707F83",
"D. c #766C9A",
"F. c #6A729C",
"G. c #7F73A7",
"H. c #7573A2",
"J. c #8273A9",
"K. c #8873AC",
"L. c #8B7FB1",
"P. c #468C8E",
"I. c #77878B",
"U. c #78878B",
"Y. c #78888D",
"T. c #7E8E94",
"R. c #95838F",
"E. c #809196",
"W. c #839498",
"Q. c #88948F",
"!. c #A19D81",
"~. c #98A29D",
"^. c #8882A7",
"/. c #96BDBF",
"(. c #B4B4A8",
"). c #CCB084",
"_. c #E0C692",
"`. c #ECD095",
"'. c #FBD494",
"]. c #F9D89C",
"[. c #FCDDA1",
"{. c #B0B7C6",
"}. c #DFEAEB",
"|. c #FCFCFC",
" X c #EEF4F4",
/* pixels */
"                                      |.|.|.                        |.|.|.|.|.|.                    ",
"                                    |.|.|.|.                            |.|.|.|.                    ",
"                                  |.|.|.                                |.|.|.|.|.                  ",
"                                |.|.                                      |.|.|.|.                  ",
"                                |.                                          |.|.|.                  ",
"                              |.                                    |.        |.|.|.                ",
"                              |.                                  |.            |.|.|.              ",
"                                                                |.|.            |.|.|.|.            ",
"                                                                |.|.            |.|.|.|.            ",
"                                                              |.                |.|.|.|.|.          ",
"                                                                        |.|.|.  |.|.|.|.|.          ",
"                            |.                                      |.|.        |.|.|.|.|.          ",
"                                                                  P./. X      |.|.|.|.|.|.|.|.      ",
"                                                                  ! / }.    |.|.|.|.|.|.|.|.|.      ",
"                                                                        |.|.|.|.|.|.|.|.|.          ",
"                                              ( W                     |.|.|.|.|.|.                  ",
"                                              I [ D.K.G.J.J.J.                                      ",
"                                  3 Z 3.j.  r.>.Q D.J.J.J.K.                                        ",
"                                3 3 G r.l.m.a.;.9 ^.L.                                              ",
"                                3 4 P l.m.m.a.;.R {.      ^ ^                                       ",
"                                      x.x.x.k.          C.^   G.        ~                           ",
"                                      x.x.            J.H.    J.J.      ~ ^                         ",
"              %.%.g                   x.m.x.        F.J.      J.J.      ~ ^                         ",
"            g s i a g g               m.x.x.      V.F.        J.        ~                           ",
"        g s d y w e s g g               x.x.n.  / H.                                                ",
"  g g g d r e e w q e i g g               x.m.l.  G.                m.x.                            ",
"g g %.a e q w w q q q i %.g               x.x.x.x.                M.M.  ' W W                       ",
"g g i s >.0.N 2  .0.1.s i d                 x.m.x.n.  N.N.j.n   ..8.u.] W ( W                       ",
"f %.t %.y.'.w.o.~.].6.a p :.                  m.m.x.s.i.i.0.m > , 5 E W ( W                         ",
"%.%.y %.t.'.[.[.[.).1 y :.1.1.                  g.g.S ; < < > , 6 ` | ( W                           ",
"f %.a &.t.'.[.[.).:.s d J _ | I.T.            < m m < > < z > Y I 6.f.`                             ",
"%.d %.%.1.d.q.9.,.d g C ( } Z.T.E.$.Q W W f._.R.> = > * v v + A e.h.m.                              ",
"d %.d d g 1.&.f f f s ) W O.T.T.#.{ [ +.@.i.B.).O @ & z x $ o *.d.g.8.                              ",
"%.d d %.g s %.f %.*.>.H Q } #.#.} [ +.T.Z.7.4.2.+ + j c $ o o F 4.8.,                               ",
"  %.%.d g g g h =.5.k.P 7 ( ( ( W O.Y.Z.] M z * v v b $ o o O o @ , ,                               ",
"    d %.g g g *.5.k.k.L 7 ( ( W W [ { ] M c c v v b b $ + j = ; = ,                                 ",
"            B Z G L L 0 8     W W X.b.(.n j b v v v b j j c > > > >                                 ",
"            4 Q o.{ 5 3         Y <.c.`.T k b b v b v b b b , > >                                   ",
"            ) O.I.@.9             F ,.0.1 k b v v v v b v z > >                                     ",
"            Y.+.[ [               , # o o % b b v b v v z > > >                                     ",
"            [ +.Y.Y.                # o o o $ b v v v z > > >                                       ",
"            Z.Y.W.W.                ; @ o o O + + & * = > >                                         ",
"            ] ] ] ]                   > @ o X X X @ ; > >                                           ",
"            . . . .                     > O # N N S m ;                                             ",
"            o o o                         ; D 3.5.j...:                                             ",
"                                          ; 2.x.k.c.p.A.                                            ",
"                                                  !.Q.E.                                            ",
"                                                    T.E.E.                                          ",
"                                                    Z.Z.Z.                                          ",
"                                                    W ( (                                           "
};
