/* XPM */
static char *pdr41641565247[] = {
/* columns rows colors chars-per-pixel */
"50 50 157 2 ",
"   c None",
".  c #0C0021",
"X  c #130123",
"o  c #180025",
"O  c #2A0425",
"+  c #24032B",
"@  c #290629",
"#  c #310526",
"$  c #3C062F",
"%  c #360827",
"&  c #311C28",
"*  c #2E0331",
"=  c #320632",
"-  c #350C35",
";  c #3B0A32",
":  c #381030",
">  c #3B183C",
",  c #2B2C2C",
"<  c #332E2C",
"1  c #3C332C",
"2  c #32302D",
"3  c #362A3F",
"4  c #2E3030",
"5  c #313334",
"6  c #323738",
"7  c #343A3B",
"8  c #470806",
"9  c #4A0B06",
"0  c #4B0E0A",
"q  c #55140D",
"w  c #5B190F",
"e  c #5C170C",
"r  c #4A1819",
"t  c #4D1618",
"y  c #601C10",
"u  c #63200F",
"i  c #6C2414",
"p  c #672314",
"a  c #732A16",
"s  c #7D2D15",
"d  c #762E19",
"f  c #7A2F1A",
"g  c #7D311A",
"h  c #78331A",
"j  c #4F0A27",
"k  c #41092E",
"l  c #490727",
"z  c #570926",
"x  c #550B28",
"c  c #580B28",
"v  c #491C37",
"b  c #511E30",
"n  c #492D25",
"m  c #552524",
"M  c #56312F",
"N  c #5A3739",
"B  c #65202E",
"V  c #6E2F2C",
"C  c #72312C",
"Z  c #7E3D2A",
"A  c #65373C",
"S  c #51463C",
"D  c #6D4B3B",
"F  c #7F4935",
"G  c #7A4739",
"H  c #7A5032",
"J  c #382F43",
"K  c #353E41",
"L  c #602A46",
"P  c #3B454C",
"I  c #3E4B4E",
"U  c #414C4E",
"Y  c #4C4D4A",
"T  c #54584F",
"R  c #545049",
"E  c #444753",
"W  c #465256",
"Q  c #4C595C",
"!  c #4A5153",
"~  c #634B4D",
"^  c #755951",
"/  c #505D61",
"(  c #665E70",
")  c #536265",
"_  c #5E6471",
"`  c #776364",
"'  c #606B73",
"]  c #676F7B",
"[  c #7D6771",
"{  c #627074",
"}  c #717E7F",
"|  c #83351B",
" . c #8C3E1D",
".. c #803C20",
"X. c #873F28",
"o. c #9A4A18",
"O. c #91401B",
"+. c #82472D",
"@. c #9B4725",
"#. c #8E5229",
"$. c #9F5828",
"%. c #955032",
"&. c #A05928",
"*. c #AB5D28",
"=. c #B56229",
"-. c #A96732",
";. c #CD762D",
":. c #C67D39",
">. c #856647",
",. c #906044",
"<. c #80635A",
"1. c #927153",
"2. c #8E7668",
"3. c #CB8137",
"4. c #B7934A",
"5. c #BB964B",
"6. c #938676",
"7. c #9B967E",
"8. c #A89178",
"9. c #C58D48",
"0. c #D8A753",
"q. c #F6A851",
"w. c #F6A851",
"e. c #E9B158",
"r. c #E1B253",
"t. c #F2BF57",
"y. c #D4A26E",
"u. c #D6A775",
"i. c #DBAD79",
"p. c #F8BC6F",
"a. c #F4C057",
"s. c #F5C158",
"d. c #F9C458",
"f. c #FDC95A",
"g. c #6E7D82",
"h. c #727E85",
"j. c #8173A8",
"k. c #6E8187",
"l. c #77868B",
"z. c #77898D",
"x. c #78888C",
"c. c #79878C",
"v. c #7D8D93",
"b. c #7F9096",
"n. c #7F959A",
"m. c #9A9982",
"M. c #819197",
"N. c #83979A",
"B. c #A38180",
"V. c #FAC881",
"C. c #E8C995",
"Z. c #F4D59D",
"A. c #FCDB9E",
"S. c #FCDDA1",
"D. c #FFE8A7",
"F. c #FCEBB0",
"G. c gray99",
/* pixels */
"                                                , 2 5.f.                                            ",
"                                                4.5.r.s.            G.                              ",
"                                              s.d.d.t.t.t.                                          ",
"                                            t.t.t.t.t.t.                                            ",
"                                              t.t.t.t.                      G.G.                    ",
"                                            t.t.t.t.                          G.G.                  ",
"                                            t.t.t.                              G.G.                ",
"                                          t.t.t.                                G.G.G.              ",
"                                          t.t.t.                                G.G.G.              ",
"                                          t.t.t.          j.                    G.G.G.G.            ",
"                                          t.t.t.          j.j.                    G.G.G.            ",
"                                          t.t.t.            j.                    G.G.G.            ",
"                                          t.t.t.            j.                      G.G.            ",
"                                          t.t.t.            j.                        G.G.          ",
"                                          t.t.t.                                    G.G.G.          ",
"                                          t.t.          j.j.                  G.      G.G.          ",
"                                          t.t.                                  G.    G.G.G.        ",
"                                                                                      G.G.G.        ",
"                                                                          G.G.      G.G.G.G.        ",
"                                                                            G.G.    G.G.G.G.        ",
"                                                                              G.      G.G.G.        ",
"                                                                                G.    G.G.G.        ",
"                                                                                G.    G.G.G.        ",
"                                            t.t.                                G.  G.G.G.          ",
"                                              t.            U                     G.G.G.G.          ",
"                                                          l.W                     G.G.G.            ",
"                                                f.      v.v.g.                                      ",
"                                                ,.B   6.M.v.M.                                      ",
"                                              = % x @.1.k.v.                                        ",
"                                              $ x z #.D P                                           ",
"                                        x     $ x x % @ -                                           ",
"                                          c # O x x = * =                                           ",
"                g g                       x l % x x ; = =                                           ",
"              g g g s g                   x c c x c $ = = *           U                             ",
"            g f f d g g         X X X     x c x x x $ = ; v v   N.M.z.Q                             ",
"        g f | p q q d g g       o X X     x x x x x $ * A 0.0.m.v.v.v.z.                            ",
"      | f y w q 0 0 w a g     M.] ' '   = l c z x O X D 9.:.3.6.v.v.                                ",
"    i y w 9 0 9 9 9 0 i | Z l._ x.N.h.; k x c j # X . H :.C V ` n.                                  ",
"  a a h F F r m +.s q i +.<.l.) ' x.' $ x x x # X X . m C = *                                       ",
"g q o.w.A.Z.~ 2.p.;.u u ^ x.b.M.)     x x x O X X X X + = = =                                       ",
"f q o.q.A.S.C.Z.i.+.f n < W v.v.    x z z O X X o @ = = = =                                         ",
"g e o.q.S.S.D.u.%.h n < , 4 U   > l x l O X . X o * = = = =                                         ",
"g i  .:.p.A.8.G s d , , , 5 7 K J - L B.>.& . X + = = = =                                           ",
"g g f  .;.y.N t |  .< , , 5 U / / E [ F.e.M X + = = = =                                             ",
"g g g g | g g f O.$.1 , , 5 W h.v.v.m.0.-.m = = = = =                                               ",
"  g g g g g g f O.$.1 , 7 U U W g.M.} T ! > * = =                                                   ",
"      g g g g f +.*.#.S P I I I Q / Q I I J                                                         ",
"          g g f  .  =.R I I I I I P I I I                                                           ",
"                        U I I I U I I I                                                             ",
"                                                                                                    "
};
