/* XPM */
static char *pdr51641565247[] = {
/* columns rows colors chars-per-pixel */
"50 50 163 2 ",
"   c None",
".  c #0E0022",
"X  c #130023",
"o  c #1A0124",
"O  c #240B23",
"+  c #24042B",
"@  c #29042E",
"#  c #2B0424",
"$  c #340525",
"%  c #360927",
"&  c #2E0530",
"*  c #320632",
"=  c #350C36",
"-  c #3A143C",
";  c #371139",
":  c #2C2C2C",
">  c #31233B",
",  c #2F3031",
"<  c #333535",
"1  c #353639",
"2  c #373E3F",
"3  c #4D0F0A",
"4  c #4E110B",
"5  c #53140D",
"6  c #5C180E",
"7  c #611D11",
"8  c #6B260E",
"9  c #6D2615",
"0  c #662317",
"q  c #722A15",
"w  c #7B2E17",
"e  c #772D18",
"r  c #7A2F19",
"t  c #793112",
"y  c #7D311A",
"u  c #72321B",
"i  c #470927",
"p  c #4E0A27",
"a  c #420527",
"s  c #540322",
"d  c #560927",
"f  c #550B28",
"g  c #590C28",
"h  c #580C27",
"j  c #4C1B33",
"k  c #44212C",
"l  c #492931",
"z  c #512035",
"x  c #433D31",
"c  c #793D26",
"v  c #682D31",
"b  c #663A2D",
"n  c #77452D",
"m  c #61493C",
"M  c #613046",
"N  c #653D51",
"B  c #3E4A4E",
"V  c #424C4D",
"C  c #4A524E",
"Z  c #444C54",
"A  c #465255",
"S  c #4E535A",
"D  c #6D4A43",
"F  c #675140",
"G  c #674C5C",
"H  c #5D586C",
"J  c #615B6E",
"K  c #586369",
"L  c #5E6F71",
"P  c #626A76",
"I  c #756F7A",
"U  c #6B797C",
"Y  c #67777B",
"T  c #80331B",
"R  c #843117",
"E  c #99471E",
"W  c #8B4229",
"Q  c #8A4B29",
"!  c #934B25",
"~  c #8C522B",
"^  c #83512E",
"/  c #985631",
"(  c #895836",
")  c #A24F22",
"_  c #A35224",
"`  c #A95D29",
"'  c #A35E38",
"]  c #8B653E",
"[  c #AE622E",
"{  c #BE6C2B",
"}  c #B97A3D",
"|  c #8D6A41",
" . c #8D734B",
".. c #8E7642",
"X. c #B77B40",
"o. c #927B6B",
"O. c #CF893C",
"+. c #D88A37",
"@. c #E18B39",
"#. c #EE963C",
"$. c #F1993D",
"%. c #97814D",
"&. c #AA8046",
"*. c #AF9555",
"=. c #A68D74",
"-. c #C78B42",
";. c #C49E4D",
":. c #D59543",
">. c #D79A45",
",. c #E39B42",
"<. c #DDA046",
"1. c #DAAD52",
"2. c #E5A748",
"3. c #ECBA56",
"4. c #F2BF57",
"5. c #C7996B",
"6. c #D3A46F",
"7. c #CEA679",
"8. c #F6C258",
"9. c #FCC173",
"0. c #FEDA7D",
"q. c #6C7E80",
"w. c #747A81",
"e. c #706690",
"r. c #7D6EA5",
"t. c #8173A8",
"y. c #8073A7",
"u. c #78878D",
"i. c #7D8D92",
"p. c #838C8B",
"a. c #82959A",
"s. c #BFA481",
"d. c #968CB7",
"f. c #A096BD",
"g. c #9FA5A6",
"h. c #DBB180",
"j. c #E0B683",
"k. c #FBCC87",
"l. c #FCDD8D",
"z. c #EACB96",
"x. c #FDDC9D",
"c. c #FBD595",
"v. c #E8DCAE",
"b. c #FCDEA3",
"n. c #FDE4A5",
"m. c #FFEAA8",
"M. c #E9E0B4",
"N. c #A79DC2",
"B. c #B7AECC",
"V. c #AFB1CC",
"C. c #B2B2CD",
"Z. c #B8B8D1",
"A. c #BDC4D7",
"S. c #C6CBCC",
"D. c #C3CCDC",
"F. c #D4DFD1",
"G. c #CCD3E0",
"H. c #D9DEE4",
"J. c #D7D8E5",
"K. c #E1DEEA",
"L. c #E2E6ED",
"P. c #FCFCFC",
"I. c #F7F8F7",
/* pixels */
"                                                                                                    ",
"                                                                                                    ",
"                                                    P.P.                                            ",
"                                                  P.P.P.P.                                          ",
"                                                P.P.P.P.P.                                4.        ",
"                                              P.P.P.P.P.P.                                  4.      ",
"                                              P.I.H.J.C.B.P.                                4.4.    ",
"                                            P.P.P.G.D.V.C.L.                                  4.    ",
"                                          P.P.P.P.    D.A.C.                                  4.4.  ",
"                                          P.P.P.        C.d.K.                                4.4.4.",
"                                          P.P.            Z.d.J.                                4.4.",
"                                        P.P.                  f.N.                            4.4.4.",
"                                        P.P.                    r.                            4.4.4.",
"                                        P.P.P.                    t.                          4.4.4.",
"                                        P.P.P.                      t.                          4.4.",
"                                        P.P.P.                                                4.4.4.",
"                                        P.P.P.                                                4.4.4.",
"                                        P.P.P.                                              4.4.4.8.",
"                                        P.P.P.                            t.t.              4.4.4.  ",
"                                        P.P.P.                              t.e.1           4.4.4.  ",
"                                        P.P.                                  Z < Q       4.4.4.4.  ",
"                                        P.P.    Z                             V ^ O.    4.4.4.4.    ",
"                                          P.P.g.B                               [ O.<.8.4.4.4.      ",
"                                            P.S.K                                   >.8.8.4.        ",
"                                            I.H.i.                                  1.1.1.          ",
"                                V         u.S.P.                                      x x           ",
"                                U u.      F.v.6.h f                                                 ",
"                                a.I G     m.0.&.g f     *                                           ",
"                              i.w.N s     :.2.} g     * * *                                         ",
"                            A q.M s   f g W ` W g   * * * * *                                       ",
"                            V A z d f f f % O O   * * * * * *                                       ",
"                          M.*.C j d f f # X . o * * * * * * * *                                     ",
"                        n.l.3.] v f g p o . X X + * * * * * * * *                                   ",
"                        <.<.>.~   a g p o X X . X & * * * * * * *                                   ",
"                          [ ! O . $ g p o . X X o * * * * * * * *                                   ",
"                            O X . $ g p o X X o & * * * * * * *                                     ",
"                  y y y y 9     o $ g p o . . o * * * * * * * *                                     ",
"              y T y y y y T       % f p o . o @ * * * * * * *                                       ",
"            q 9 9 q 9 r y y         g p o o o & & * * * * * *                                       ",
"        r e 6 3 3 3 3 9 y y y       f a o @ @ X X & * * * *                                         ",
"      9 6 6 3 3 3 4 3 4 0 T r     g i # X # @ . o & * * *                                           ",
"    0 t { =.7.D l 5.{ 8 7 T        .&.n % > S L H ; * * *                                           ",
"  T 7 t $.x.m.h.=.x.9.c 6 R     B  .+.[ G L L q.u.- & *                                             ",
"  y 6 w #.c.b.b.m.b.h./ u b   V B m / ( p.i.Y K J - *                                               ",
"  T 7 t @.k.x.z.z.j.W { | B B B B B 2 1 U i.u.J = *                                                 ",
"  y r y ! @.k.o.k W y m C V B V B 2 : : 1 U J ; *                                                   ",
"  y y r T E ' n 7 r y ^ X.%.< < < , : : : S                                                         ",
"    y y T r w r y y y _ >.;.: : : : : : :                                                           ",
"      y y y y y r y y _ } ..: : : : : :                                                             ",
"        y y y y y y y _ n : : : : :                                                                 "
};
