/* XPM */
static char *pdr71641565247[] = {
/* columns rows colors chars-per-pixel */
"50 50 161 2 ",
"   c None",
".  c #08001C",
"X  c #10001F",
"o  c #0F0021",
"O  c #120022",
"+  c #1B0227",
"@  c #240324",
"#  c #2A0324",
"$  c #2E012D",
"%  c #2A0B23",
"&  c #330424",
"*  c #3C072F",
"=  c #37092E",
"-  c #231D29",
";  c #2A1426",
":  c #3C1A2B",
">  c #2C0031",
",  c #320632",
"<  c #3A0730",
"1  c #350933",
"2  c #281631",
"3  c #301C3C",
"4  c #25252A",
"5  c #2C2C2C",
"6  c #312B2A",
"7  c #31302D",
"8  c #2E3030",
"9  c #303232",
"0  c #363A3B",
"q  c #323738",
"w  c #782C17",
"e  c #7A2E19",
"r  c #7D311A",
"t  c #4D0A27",
"y  c #46092D",
"u  c #4A092C",
"i  c #550B28",
"p  c #590B28",
"a  c #411D28",
"s  c #5C1228",
"d  c #581825",
"f  c #611528",
"g  c #5C2B23",
"h  c #44382D",
"j  c #423D31",
"k  c #48333F",
"l  c #50303E",
"z  c #6C2F2B",
"x  c #474132",
"c  c #554A35",
"v  c #7A4828",
"b  c #63573A",
"n  c #675839",
"m  c #2F2741",
"M  c #372640",
"N  c #472F4F",
"B  c #3B464A",
"V  c #3D4A4D",
"C  c #3A4143",
"Z  c #434D4D",
"A  c #4F4E47",
"S  c #54594F",
"D  c #414D50",
"F  c #445255",
"G  c #4C5553",
"H  c #4A575B",
"J  c #585C54",
"K  c #797151",
"L  c #525E62",
"P  c #59676B",
"I  c #586568",
"U  c #5D6C72",
"Y  c #586071",
"T  c #606E72",
"R  c #657275",
"E  c #6B7A7F",
"W  c #67777C",
"Q  c #8A3C1C",
"!  c #843519",
"~  c #903E19",
"^  c #92411C",
"/  c #9F4C1D",
"(  c #A34E1D",
")  c #8B452B",
"_  c #874525",
"`  c #9A4D25",
"'  c #9F5B2C",
"]  c #8B5535",
"[  c #9D5C3D",
"{  c #AD5B29",
"}  c #9E6438",
"|  c #B7682A",
" . c #A96A3A",
".. c #B26532",
"X. c #BA7339",
"o. c #C36B28",
"O. c #D47A2C",
"+. c #C17931",
"@. c #D07930",
"#. c #86564F",
"$. c #977847",
"%. c #AD764F",
"&. c #A2785C",
"*. c #B57E56",
"=. c #947C6A",
"-. c #7D817F",
";. c #CD8D3F",
":. c #E2862F",
">. c #AD8C48",
",. c #B18F49",
"<. c #BC904F",
"1. c #BA865E",
"2. c #AC9153",
"3. c #87847B",
"4. c #B69D7F",
"5. c #D58640",
"6. c #C9944A",
"7. c #C18A5E",
"8. c #E39C41",
"9. c #DAAC54",
"0. c #D4AA54",
"q. c #DCB056",
"w. c #EAAD4B",
"e. c #E3B555",
"r. c #EBBA55",
"t. c #F2BF57",
"y. c #C18B61",
"u. c #C2966D",
"i. c #D79D64",
"p. c #DEB27F",
"a. c #F2B065",
"s. c #F4BD75",
"d. c #F4C057",
"f. c #F5C158",
"g. c #FFCC5B",
"h. c #F9C459",
"j. c #FFC678",
"k. c #6D7C81",
"l. c #776B99",
"z. c #8173A8",
"x. c #76868B",
"c. c #76868A",
"v. c #7B8C91",
"b. c #809096",
"n. c #83949A",
"m. c #8C9A9E",
"M. c #BDA281",
"N. c #99A4A8",
"B. c #DABE90",
"V. c #FCCB82",
"C. c #E3C593",
"Z. c #F3D49C",
"A. c #FBDA9E",
"S. c #FDDEA3",
"D. c #FFE3A5",
"F. c #FFE9AB",
"G. c #CAD1D3",
"H. c #EBEEEE",
"J. c #EEF0F0",
"K. c #F7F8F8",
"L. c #FCFCFC",
/* pixels */
"                                                                                                    ",
"                                                                                                    ",
"                                                                                                    ",
"                                                                                                    ",
"                                                                                                    ",
"                                                                                                    ",
"                                                                                                    ",
"                                                                                                    ",
"                                                                                                    ",
"                                                                                                    ",
"                                                                  t.                                ",
"                                                          t.t.t.t.                                  ",
"                                                        t.t.t.t.                                    ",
"                                                        t.t.                                        ",
"                                                  5   g.t.t.                              L.        ",
"                                                  7 ,.h.t.                                L.L.      ",
"                                                j >.e.d.t.    5     z.                      L.L.    ",
"                                                c r.f.t.      5     z.                      L.L.    ",
"                                                  d.t.      5         z.                      L.L.  ",
"                                                  t.t.                z.                      L.L.  ",
"                                                t.t.        z.          z.                    L.L.L.",
"                                                d.t.        z.z.        z.z.                    L.L.",
"                                                t.t.        l.z.z.                            L.L.L.",
"                                                  t.      5     z.z.                          L.L.L.",
"                                                  t.      5       z.z.                        L.L.L.",
"                                                  t.t.    5                                   L.L.L.",
"                                                  t.t.                                        L.L.L.",
"                                                    t.                                        L.L.L.",
"                                                    t.                                        L.L.L.",
"                                                                                        L.      L.L.",
"                                                                              L.          L.    L.L.",
"                                                                              L.L.        L.    L.L.",
"                                                                              L.L.              L.L.",
"                                                                              L.L.            L.L.L.",
"                                                                                L.          L.L.L.  ",
"                                                                                L.          L.L.L.  ",
"                                                        i         , , ,         L.          L.L.    ",
"                                                      i p       , , , , ,       L.          L.L.    ",
"                                                      i p   , < 1 , , , , ,     K.L.        L.      ",
"            r r r r r r r                 O O O         i i < u u , , , , $ N m.J.L.      L.        ",
"        ! e w ! r r r r r r             O O O O       , * i i i i u , , , >   m.J.L.      L.        ",
"      r ! o.i.B.&.a u.5.{ w r             4 4 -       , * i i p p i u , > 3 F P N.G.                ",
"    e e Q :.V.F.B.=.Z.j.X.w e     v.      5 5 5     , , * i i i i i p z ] $.K V E     L             ",
"      w Q :.V.S.S.D.S.D.1.! `   W x.n.  8 5 5 j     = = y i i i i i f { e.g.0.K     P P E           ",
"    r e ! O.s.A.Z.C.A.D.7./ X.A C P v.-.0 8 5 b 0...: # i i i i i i s ` 6.9.9.9.  v.b.E D           ",
"  ! r r ! Q @.j.4.k C.D.a.| h 7 8 C F F B B B Z J c.9 X # i i i i p u % ; : l S Z k.b.v.            ",
"  r r r r e ~ i.4.2 B.7.| | v 6 5 8 q 0 V V B H k.v.M o @ i i i p u @ O g } <.2.G E b.              ",
"r r r r e ! e } %.] 1._ ^ X.6.} x 4 5 9 M L T U T v.Y M & & & & & # O O _ 8.g.e.S U                 ",
"r r r r e r r w ^ o.! w Q X.d.f.n 4 5 5 5 R n.c.I W 3.#.d + + + + + + + z  .6.q.S                   ",
"r r r r r r r r r r r r w { d.r.n 4 5 5 8 R b.v.x.G ] | _ = , , , , , , 1 1 1                       "
};
