/* XPM */
static char *pdr81641565247[] = {
/* columns rows colors chars-per-pixel */
"50 50 172 2 ",
"   c None",
".  c #0E001D",
"X  c #050016",
"o  c #0F0021",
"O  c #120022",
"+  c #1C0224",
"@  c #170829",
"#  c #250223",
"$  c #23032A",
"%  c #2A042D",
"&  c #280A26",
"*  c #350626",
"=  c #3C0726",
"-  c #2E0132",
";  c #320632",
":  c #201230",
">  c #25272B",
",  c #26282B",
"<  c #2C2C2C",
"1  c #252526",
"2  c #352E2B",
"3  c #34332F",
"4  c #2A2835",
"5  c #3E2F3A",
"6  c #2E3031",
"7  c #36353A",
"8  c #303233",
"9  c #52130C",
"0  c #501C1B",
"q  c #6F2715",
"w  c #652217",
"e  c #732A15",
"r  c #782D19",
"t  c #7B2C16",
"y  c #75311C",
"u  c #7D311A",
"i  c #7F3C1F",
"p  c #420625",
"a  c #4C0927",
"s  c #5A0C29",
"d  c #441A20",
"f  c #5B1229",
"g  c #631F39",
"h  c #661A2A",
"j  c #402E28",
"k  c #5C2D37",
"l  c #5C3E35",
"z  c #573C33",
"x  c #7C3B25",
"c  c #4F4634",
"v  c #664B30",
"b  c #71463C",
"n  c #695939",
"m  c #71603B",
"M  c #4A234A",
"N  c #3D4345",
"B  c #3E494D",
"V  c #344043",
"C  c #176F72",
"Z  c #076568",
"A  c #404C4F",
"S  c #434747",
"D  c #454752",
"F  c #5C4D5E",
"G  c #455154",
"H  c #4B585C",
"J  c #495558",
"K  c #59575A",
"L  c #6B5452",
"P  c #684D49",
"I  c #535F62",
"U  c #6F5B70",
"Y  c #4F6369",
"T  c #59646D",
"R  c #59666A",
"E  c #5F7174",
"W  c #6D6D6D",
"Q  c #676B72",
"!  c #6B7A7E",
"~  c #657478",
"^  c #85381A",
"/  c #97441C",
"(  c #A5521F",
")  c #A35121",
"_  c #A95B27",
"`  c #B45C21",
"'  c #836D3F",
"]  c #BB6522",
"[  c #B76A2E",
"{  c #B96B2E",
"}  c #B76D32",
"|  c #A7773B",
" . c #CB742B",
".. c #D27628",
"X. c #C77C37",
"o. c #95634A",
"O. c #8F7642",
"+. c #927842",
"@. c #BA7340",
"#. c #937869",
"$. c #CE873E",
"%. c #F69D3F",
"&. c #AF8D48",
"*. c #B48C46",
"=. c #BB974C",
"-. c #B29052",
";. c #DB8C42",
":. c #C6894D",
">. c #E19A4F",
",. c #DDA048",
"<. c #DBA05F",
"1. c #E5AB4E",
"2. c #FBAC52",
"3. c #EAB451",
"4. c #E7B654",
"5. c #F2BE56",
"6. c #D7A36E",
"7. c #F9BA6A",
"8. c #F7B96B",
"9. c #F4C057",
"0. c #F5C258",
"q. c #FCC85A",
"w. c #72678F",
"e. c #6E7D82",
"r. c #757E80",
"t. c #886F88",
"y. c #837A8B",
"u. c #897F90",
"i. c #947F95",
"p. c #4D9092",
"a. c #569698",
"s. c #758489",
"d. c #7E8E93",
"f. c #74A8AA",
"g. c #868D8F",
"h. c #968096",
"j. c #819196",
"k. c #839499",
"l. c #AF8D9A",
"z. c #A398BF",
"x. c #A297BE",
"c. c #8AB6B7",
"v. c #CBB28B",
"b. c #FFCD80",
"n. c #FFDD8B",
"m. c #FCDB9E",
"M. c #E8CB97",
"N. c #CBC8A3",
"B. c #FCDDA1",
"V. c #ADAAC9",
"C. c #B5ACCC",
"Z. c #BEB6D1",
"A. c #D4BEC5",
"S. c #C1B7D3",
"D. c #C5C3C8",
"F. c #C5CBDB",
"G. c #D3CFDF",
"H. c #CAD1DF",
"J. c #C4DADA",
"K. c #D3D6D6",
"L. c #D4DAE5",
"P. c #D7D7E4",
"I. c #E8DFE2",
"U. c #DFE3EC",
"Y. c #E3ECED",
"T. c #E7E9ED",
"R. c #F2EEEF",
"E. c #EAECF2",
"W. c #EBF4F2",
"Q. c #F4F4F7",
"!. c #FDFDFD",
"~. c #F6F9F9",
/* pixels */
"                                                                                                    ",
"                                                                                                    ",
"                                                                                                    ",
"                                                                                                    ",
"                                                                                                    ",
"                                                                                                    ",
"                                                                                                    ",
"                                                                                                    ",
"                                                                                                    ",
"                                                                                                    ",
"                                                              C                                     ",
"                                                            C   C C                                 ",
"                                                                                                    ",
"                                                                                                    ",
"                                                                                                    ",
"                                                                        <       9.                  ",
"                                                                      < < <                         ",
"                                                                      < > n                         ",
"                                                                      < c &.9.9.                    ",
"                                                                      6 =.9.9.9.                    ",
"                                                                        4.9.5.5.                    ",
"                                                                        9.9.1.X.                    ",
"                                                                          0.,._                     ",
"                                                                            1.X.                    ",
"                                                                            9.3.{                   ",
"                                                                              3.[     <             ",
"                                                                              4.v 2 <               ",
"                                                                              ' 3 1 1               ",
"                                                                              , < K W               ",
"                                                                              < 7 D.                ",
"                                                                            , 7 w.P.    F.      !.  ",
"                                                                                G.C.V.F.    Z a.    ",
"                                                                                !.z.V.T.    f.c.    ",
"                                                                                !.z.Z.E.  a.J.      ",
"                                                                                !.z.S.J.p.Y.        ",
"                                                                                ~.z.Z.!.Y.!.        ",
"                                                                                !.F.P.!.!.          ",
"                                                                                ~.L.U.!.            ",
"                                                                                !.P.U.!.            ",
"            u u u u u u u u                                                     Q.L.T.!.            ",
"        u u u t u u u u u u u                     O O                           H.E.!.              ",
"        u u t ( ..] d w u u u u     j.s.G       o O o + - ; ; ; ; ; ; ;       Q.H.E.                ",
"      u u u ( ..2.<.& i / e u u z Y ! d.~ H   T 4 4 Q #.b $ $ $ % ; ; ; ;   t.Q.H.E.!.              ",
"    u u u e  .%.8.M.P :.X./ u u v N H ! e.H Y ~ I G N.n.| O o O + % % ; ; M h.Q.L.Q.                ",
"    u u e 9 ] 7.B.m.B.B.7. .^ x y c S B B B B I e.J -.:.x + + O O O O - % i.!.!.!.E.K.              ",
"  u u e 9 9 ] 7.B.m.B.B.B.6.r 2 3 3 3 3 6 N B A G B k h f a a # O O O @ . u.!.!.!.g.G B A A A       ",
"  u u r q q e } 2.>.P v.b.;._ *.:.m , < < 8 6 N ! ! D F F # # p # o o o X u.!.!.!.! V J ! ! ! s.e.B ",
"u u u u u u q ^ ` ) 0 o.@.` { 3.q.' , < < < S E d.g.! Q T D @ p a * * * U D.!.R.l.K H ! j.j.j.j.e.A ",
"u u u u u u u u r r ^ t e ^ { 3.q.O., < < , R j.j.d.j.R Y s.: p s s s s A.!.!.T.g j ~ k.d.d.d.k.e.B ",
"                                                                                                    "
};
