/* XPM */
static char *result[] = {
/* columns rows colors chars-per-pixel */
"50 50 166 2 ",
"   c #130022",
".  c #1A0124",
"X  c #1A0E2A",
"o  c #1E0228",
"O  c #260324",
"+  c #25032B",
"@  c #260A2D",
"#  c #350625",
"$  c #3B072F",
"%  c #381724",
"&  c #2F0531",
"*  c #320632",
"=  c #340934",
"-  c #3F163F",
";  c #2C2C2C",
":  c #2E253F",
">  c #34283E",
",  c #303233",
"<  c #4D0F0A",
"1  c #430D0F",
"2  c #4E100A",
"3  c #471B1F",
"4  c #5F1C10",
"5  c #621E11",
"6  c #692313",
"7  c #6D2915",
"8  c #692615",
"9  c #722A16",
"0  c #792E18",
"q  c #762C18",
"w  c #7D311A",
"e  c #44092D",
"r  c #560B28",
"t  c #491A27",
"y  c #532525",
"u  c #5A2B26",
"i  c #433D31",
"p  c #492A28",
"a  c #662F23",
"s  c #62282E",
"d  c #70332C",
"f  c #653438",
"g  c #564738",
"h  c #7C4832",
"j  c #7F5435",
"k  c #71543D",
"l  c #3F1741",
"z  c #322B44",
"x  c #392B41",
"c  c #373E40",
"v  c #323642",
"b  c #4B2B4E",
"n  c #493A52",
"m  c #593547",
"M  c #3B4243",
"N  c #3F4B4E",
"B  c #38587F",
"V  c #45494B",
"C  c #594349",
"Z  c #565A4F",
"A  c #464D54",
"S  c #52405B",
"D  c #455155",
"F  c #4A575A",
"G  c #4D5A5D",
"H  c #604342",
"J  c #744F43",
"K  c #625D48",
"L  c #73634C",
"P  c #6E6950",
"I  c #75625C",
"U  c #5C4F66",
"Y  c #4F5C60",
"T  c #525F62",
"R  c #6C5262",
"E  c #605065",
"W  c #664666",
"Q  c #556165",
"!  c #59666A",
"~  c #5B676A",
"^  c #5F6D71",
"/  c #616C74",
"(  c #69757A",
")  c #6B7A7E",
"_  c #717A7C",
"`  c #82361B",
"'  c #8A3F1A",
"]  c #853F21",
"[  c #984A1F",
"{  c #89402A",
"}  c #994A22",
"|  c #954628",
" . c #9B5B2D",
".. c #845938",
"X. c #9C5C3D",
"o. c #A65828",
"O. c #B05F28",
"+. c #9A6637",
"@. c #A3632F",
"#. c #BE6726",
"$. c #AE6B37",
"%. c #AF7336",
"&. c #B67239",
"*. c #CD792D",
"=. c #C17834",
"-. c #C77F3C",
";. c #9D6B4C",
":. c #977947",
">. c #877952",
",. c #A26B40",
"<. c #B17F59",
"1. c #CC873C",
"2. c #C8883E",
"3. c #ED9338",
"4. c #BF8343",
"5. c #BF994C",
"6. c #AE9354",
"7. c #BE9D54",
"8. c #A78C76",
"9. c #A49574",
"0. c #D69F4F",
"q. c #DA9955",
"w. c #C88A45",
"e. c #CEA44F",
"r. c #C2A055",
"t. c #DCA15D",
"y. c #E1A64B",
"u. c #E3AA4D",
"i. c #F0A24C",
"p. c #E4A55F",
"a. c #F3AD5D",
"s. c #EEBD57",
"d. c #F2BF57",
"f. c #CD9B6C",
"g. c #F3B163",
"h. c #F6BE75",
"j. c #6D7C85",
"k. c #717682",
"l. c #867793",
"z. c #748488",
"x. c #78888D",
"c. c #7E8E93",
"v. c #8C819B",
"b. c #9A869C",
"n. c #849294",
"m. c #919295",
"M. c #9FA194",
"N. c #A6A489",
"B. c #9289A2",
"V. c #969DA1",
"C. c #96A6AC",
"Z. c #B7A8B7",
"A. c #DDBF8F",
"S. c #E2B984",
"D. c #DEC99D",
"F. c #D1C19B",
"G. c #EBC781",
"H. c #F9CB88",
"J. c #EACF9C",
"K. c #EED39E",
"L. c #FBDA9D",
"P. c #E9D4A6",
"I. c #FCDCA0",
"U. c #C3CBDB",
"Y. c gray99",
"T. c None",
/* pixels */
"T.T.T.T.T.T.T.T.T.T.T.T.T.T.T.T.T.T.T.T.T.T.T.T.T.T.T.T.T.T.T.T.T.T.T.T.T.T.T.T.T.T.T.T.T.T.T.T.T.T.",
"T.T.T.T.T.T.T.T.T.T.T.T.T.T.T.T.T.T.T.T.T.T.T.T.T.T.T.T.T.T.T.T.T.T.T.T.T.T.T.T.T.T.T.T.T.T.T.T.T.T.",
"T.T.T.T.T.T.T.T.T.T.T.T.T.T.T.T.T.T.T.T.T.T.T.T.T.T.T.T.T.T.T.T.T.T.T.T.T.T.T.T.T.T.T.T.T.T.T.T.T.T.",
"T.T.T.T.T.T.T.T.T.T.T.T.T.T.T.T.T.T.T.T.T.T.T.T.T.T.T.T.T.T.T.T.T.T.T.T.T.T.T.T.T.T.T.T.T.T.T.T.T.T.",
"T.T.T.T.T.T.T.T.T.T.T.T.T.T.T.T.T.T.T.T.T.T.T.T.T.T.T.T.T.T.T.T.T.T.T.T.T.T.T.T.T.T.T.T.T.T.T.T.T.T.",
"T.T.T.T.T.T.T.T.T.T.T.T.T.T.T.T.T.T.T.T.T.T.T.T.T.T.T.T.T.T.T.T.T.T.T.T.T.T.T.T.T.T.T.T.T.T.T.T.T.T.",
"T.T.T.T.T.T.T.T.T.T.T.T.T.T.T.T.T.T.T.T.T.T.T.T.T.T.T.T.T.T.T.T.T.T.T.T.T.T.T.T.T.T.T.T.T.T.T.T.T.T.",
"T.T.T.T.T.T.T.T.T.T.T.T.T.T.T.T.T.T.T.T.T.T.T.T.T.T.T.T.T.T.T.T.T.T.T.T.T.T.T.T.T.T.T.T.T.T.T.T.T.T.",
"T.T.T.T.T.T.T.T.T.T.T.T.T.T.T.T.T.T.T.T.T.T.T.T.T.T.T.T.T.T.T.T.T.T.T.T.T.T.T.T.T.T.T.T.T.T.T.T.T.T.",
"T.T.T.T.T.T.T.T.T.T.T.T.T.T.T.T.T.T.T.T.T.T.T.T.T.T.T.T.T.T.T.T.T.T.T.T.T.T.T.T.T.T.T.T.T.T.T.T.T.T.",
"T.T.T.T.T.T.T.T.T.T.T.T.T.T.T.T.T.T.T.T.T.T.T.T.T.w w w w w w w w T.T.T.T.T.T.T.T.T.T.T.T.T.T.T.T.T.",
"T.T.T.T.T.T.T.T.T.T.T.T.T.T.T.T.T.T.T.T.T.T.T.T.0 5 4 9 w w w w w w T.T.T.T.T.T.T.T.T.T.T.T.T.T.T.T.",
"T.T.T.T.T.T.T.T.T.T.T.T.T.T.T.T.T.T.T.T.T.T.w 9 4 < < 4 9 w w w w w w T.T.T.T.T.T.T.T.T.T.T.T.T.T.T.",
"T.T.T.T.T.T.T.T.T.T.T.T.T.T.T.T.T.T.T.T.T.w 0 9 ' ' ' ' ` w w w w w w w T.T.T.T.T.T.T.T.T.T.T.T.T.T.",
"T.T.T.T.T.T.T.T.T.T.T.T.T.T.T.T.T.T.T.T.w q 6 8 i.i.i.3.=.' w w w w w w T.T.T.T.T.T.T.T.T.T.T.T.T.T.",
"T.T.T.T.T.T.T.T.T.T.T.T.T.T.T.T.T.T.T.T.w 6 < 7 A.L.L.q.*.o.w w w w w w T.T.T.T.T.T.T.T.T.T.T.T.T.T.",
"T.T.T.T.T.T.T.T.T.T.T.T.T.T.T.T.T.T.T.T.w 8 2 1 @ J.I.C   3 ` w w w w w T.T.T.T.T.T.T.T.T.T.T.T.T.T.",
"T.T.T.T.T.T.T.T.T.T.T.T.T.T.T.T.T.T.; ; u 6 < 3 B K.L.j.C.S.#.w w w w w T.T.T.T.T.T.T.T.T.T.T.T.T.T.",
"T.T.T.T.T.T.T.T.T.T.T.T.T.T.T.T.T.T.; :.+.6 < a F.L.L.D.P.f.[ 0 w w w w T.T.T.T.T.T.T.T.T.T.T.T.T.T.",
"T.T.T.T.T.T.T.T.T.T.T.T.T.T.T.T.T.T.T.%.2.@.5 8 a.L.I.I.h.&.w w w w w w T.T.T.T.T.T.T.T.T.T.T.T.T.T.",
"T.T.T.T.T.T.T.T.T.T.T.T.T.T.T.T.T.T.T.T...+.@.7 } ;.p.g.-.| w ` } } ` w T.T.T.T.T.T.T.T.T.T.T.T.T.T.",
"T.T.T.T.T.T.T.T.T.T.T.T.T.T.T.T.T.T.T.T.T.j -.] p H q.a.$.{ J h 1.1.%.T.T.T.T.T.T.T.T.T.T.T.T.T.T.T.",
"T.T.T.T.T.T.T.T.T.T.T.T.T.T.T.T.T.T.T.T.T.@.O...! M.P.H.6.I ! K d.d.5.T.c.c.c.T.T.T.T.T.T.T.T.T.T.T.",
"T.T.T.T.T.T.T.T.T.T.T.T.T.T.T.T.T.T.N N k  ...T c.J.D.q.8.^ M g e.e.i ( c.x.z.T.T.T.T.T.T.T.T.T.T.T.",
"T.T.T.T.T.T.T.T.T.T.T.T.T.T.T.T.T.T.N N N c A c.c.c.c.c.c.^ M ; ; ; ; ( x./ ! c.n.T.T.T.T.T.T.T.T.T.",
"T.T.T.T.T.T.T.T.T.T.T.T.T.T.T.T.T.N N N N c V n.c.c.c.c.~ D N M ; ; ; ( ! ^ c.c.c.T.T.T.T.T.T.T.T.T.",
"T.T.T.T.T.T.T.T.T.T.T.T.T.T.T.T.T.X X v N , , M F F F F D N N T.T.T.T.T.T.z.c.c.c.T.T.T.T.T.T.T.T.T.",
"T.T.T.T.T.T.T.T.T.T.T.T.T.T.T.T.T.    X T.T.T.T.) ) ) ) Q V ) Y.T.T.T.T.T.T./ z z T.T.T.T.T.T.T.T.T.",
"T.T.T.T.T.T.T.T.T.T.T.T.T.T.T.T.T.      T.T.b c.c.c.c.n.j.Q Q V.U.T.T.T.T.T.:     T.T.T.T.T.T.T.T.T.",
"T.T.T.T.T.T.T.T.T.T.T.T.T.T.T.T.T.T.  T.T.* m 9.U R R E m.N.L n l.T.T.T.T.T.      T.T.T.T.T.T.T.T.T.",
"T.T.T.T.T.T.T.T.T.T.T.T.T.T.T.T.T.T.T.T.= & f 4.e r r e 8.H.$.& - Z.T.T.T.T.T.    T.T.T.T.T.T.T.T.T.",
"T.T.T.T.T.T.T.T.T.T.T.T.T.T.T.T.T.T.T.* = & t { r r r r X.,.d @ * = Z.T.T.T.T.T.T.T.T.T.T.T.T.T.T.T.",
"T.T.T.T.T.T.T.T.T.T.T.T.T.T.T.T.T.T.T.* * + O $ r r r r r e + . & * * B.T.T.T.T.T.T.T.T.T.T.T.T.T.T.",
"T.T.T.T.T.T.T.T.T.T.T.T.T.T.T.T.T.T.T.* * + O r r r r r r #       * * = v.T.T.T.T.T.T.T.T.T.T.T.T.T.",
"T.T.T.T.T.T.T.T.T.T.T.T.T.T.T.T.T.T.T.= * + O r r r | o.y         * * * - b.Y.T.T.T.T.T.T.T.T.T.T.T.",
"T.T.T.T.T.T.T.T.T.T.T.T.T.T.T.T.T.T.T.= * + O r r r w.y.$.p       * * * * b W T.T.T.T.T.T.T.T.T.T.T.",
"T.T.T.T.T.T.T.T.T.T.T.T.T.T.T.T.T.T.T.T.& + . # r r 0.d.u.j     . * * * * * * T.T.T.T.T.T.T.T.T.T.T.",
"T.T.T.T.T.T.T.T.T.T.T.T.T.T.T.T.T.T.T.T.* +   . # r q.d.r.g   . + * * * * * * T.T.T.T.T.T.T.T.T.T.T.",
"T.T.T.T.T.T.T.T.T.T.T.T.T.T.T.T.T.T.T.T.s u %     e :.6.P > o + * * * * * * T.T.T.T.T.T.T.T.T.T.T.T.",
"T.T.T.T.T.T.T.T.T.T.T.T.T.T.T.T.T.T.T.T.=.&. .%   & F Y D x * * * * * * * T.T.T.T.T.T.T.T.T.T.T.T.T.",
"T.T.T.T.T.T.T.T.T.T.T.T.T.T.T.T.T.T.T.T.d.d.y. .  * k.c.! > * * * * * * T.T.T.T.T.T.T.T.T.T.T.T.T.T.",
"T.T.T.T.T.T.T.T.T.T.T.T.T.T.T.T.T.T.T.T.d.d.s.s.T.* k.c.n * * * * * * T.T.T.T.T.T.T.T.T.T.T.T.T.T.T.",
"T.T.T.T.T.T.T.T.T.T.T.T.T.T.T.T.T.T.T.T.d.d.r.Z T.T.n.c.T.= * * * * T.T.T.T.T.T.T.T.T.T.T.T.T.T.T.T.",
"T.T.T.T.T.T.T.T.T.T.T.T.T.T.T.T.T.T.T.T.T.>.Z V T.T.Y Y T.T.T.T.T.T.T.T.T.T.T.T.T.T.T.T.T.T.T.T.T.T.",
"T.T.T.T.T.T.T.T.T.T.T.T.T.T.T.T.T.T.T.T.T.T.( ) T.T.T.T.T.T.T.T.T.T.T.T.T.T.T.T.T.T.T.T.T.T.T.T.T.T.",
"T.T.T.T.T.T.T.T.T.T.T.T.T.T.T.T.T.T.T.T.T.T.c.c.T.T.T.T.T.T.T.T.T.T.T.T.T.T.T.T.T.T.T.T.T.T.T.T.T.T.",
"T.T.T.T.T.T.T.T.T.T.T.T.T.T.T.T.T.T.T.T.T.T.c.c.T.T.T.T.T.T.T.T.T.T.T.T.T.T.T.T.T.T.T.T.T.T.T.T.T.T.",
"T.T.T.T.T.T.T.T.T.T.T.T.T.T.T.T.T.T.T.T.T.T.) ) T.T.T.T.T.T.T.T.T.T.T.T.T.T.T.T.T.T.T.T.T.T.T.T.T.T.",
"T.T.T.T.T.T.T.T.T.T.T.T.T.T.T.T.T.T.T.T.T.T.N N T.T.T.T.T.T.T.T.T.T.T.T.T.T.T.T.T.T.T.T.T.T.T.T.T.T.",
"T.T.T.T.T.T.T.T.T.T.T.T.T.T.T.T.T.T.T.T.T.T.T.T.T.T.T.T.T.T.T.T.T.T.T.T.T.T.T.T.T.T.T.T.T.T.T.T.T.T."
};
