/* XPM */
static char *result[] = {
/* columns rows colors chars-per-pixel */
"50 50 165 2 ",
"   c #130022",
".  c #1A0125",
"X  c #1A0E2A",
"o  c #1E0228",
"O  c #260324",
"+  c #25032B",
"@  c #2A0729",
"#  c #39072A",
"$  c #381724",
"%  c #2F0531",
"&  c #320632",
"*  c #340934",
"=  c #3F163F",
"-  c #2C2C2C",
";  c #2E253F",
":  c #34283E",
">  c #303233",
",  c #4D0F0A",
"<  c #430D0F",
"1  c #4E100A",
"2  c #471B1F",
"3  c #5F1C10",
"4  c #621E11",
"5  c #692313",
"6  c #6D2915",
"7  c #692615",
"8  c #732A17",
"9  c #782E19",
"0  c #7D311A",
"q  c #44092D",
"w  c #560B28",
"e  c #491A27",
"r  c #532525",
"t  c #5A2B26",
"y  c #433D31",
"u  c #492A28",
"i  c #662F23",
"p  c #62282E",
"a  c #70332C",
"s  c #653438",
"d  c #564738",
"f  c #7C4832",
"g  c #7F5435",
"h  c #71543D",
"j  c #3F1741",
"k  c #322B44",
"l  c #392B41",
"z  c #373E40",
"x  c #323642",
"c  c #493A52",
"v  c #523F5B",
"b  c #3B4243",
"n  c #3F4B4E",
"m  c #38587F",
"M  c #45494B",
"N  c #4B484A",
"B  c #594349",
"V  c #5A5D4F",
"C  c #464B54",
"Z  c #455155",
"A  c #4A575A",
"S  c #4D5A5D",
"D  c #604342",
"F  c #744F43",
"G  c #625D48",
"H  c #705253",
"J  c #73634C",
"K  c #6E6950",
"L  c #75625C",
"P  c #5C4F66",
"I  c #4F5C60",
"U  c #525F62",
"Y  c #6C5262",
"T  c #605065",
"R  c #755875",
"E  c #556165",
"W  c #59666A",
"Q  c #5B676A",
"!  c #5F6D71",
"~  c #616C74",
"^  c #69757A",
"/  c #6B7A7E",
"(  c #717A7C",
")  c #82361B",
"_  c #8A3F1A",
"`  c #853F21",
"'  c #984A1F",
"]  c #89402A",
"[  c #994A22",
"{  c #954628",
"}  c #9A5A2D",
"|  c #845938",
" . c #9C5C3D",
".. c #A65828",
"X. c #B05F28",
"o. c #9A6637",
"O. c #A3632F",
"+. c #BE6726",
"@. c #AE6B37",
"#. c #AF7336",
"$. c #B67239",
"%. c #CD792D",
"&. c #C17834",
"*. c #C77F3C",
"=. c #9D6B4C",
"-. c #977947",
";. c #877952",
":. c #A26B40",
">. c #B17F59",
",. c #CC873C",
"<. c #C8883E",
"1. c #ED9338",
"2. c #BF8343",
"3. c #BF994C",
"4. c #AE9354",
"5. c #BE9D54",
"6. c #A78C76",
"7. c #A49574",
"8. c #D69F4F",
"9. c #CC9C50",
"0. c #DA9955",
"q. c #C88A45",
"w. c #CEA44F",
"e. c #C2A055",
"r. c #DCA15D",
"t. c #E1A64B",
"y. c #E3AA4D",
"u. c #F0A24C",
"i. c #E4A55F",
"p. c #F3AD5D",
"a. c #F2BF57",
"s. c #CD9B6C",
"d. c #F3B163",
"f. c #F6BE75",
"g. c #6D7C85",
"h. c #707581",
"j. c #867793",
"k. c #748488",
"l. c #78888D",
"z. c #7E8E93",
"x. c #8C819B",
"c. c #978197",
"v. c #9A869C",
"b. c #849294",
"n. c #919295",
"m. c #9FA194",
"M. c #A6A489",
"N. c #9289A2",
"B. c #969DA1",
"V. c #96A6AC",
"C. c #B7A8B7",
"Z. c #DDBF8F",
"A. c #E2B984",
"S. c #DEC99D",
"D. c #D1C19B",
"F. c #EBC781",
"G. c #F9CB88",
"H. c #EACF9C",
"J. c #EED39E",
"K. c #FBDA9D",
"L. c #E9D4A6",
"P. c #FCDCA0",
"I. c #C3CBDB",
"U. c gray99",
"Y. c None",
/* pixels */
"Y.Y.Y.Y.Y.Y.Y.Y.Y.Y.Y.Y.Y.Y.Y.Y.Y.Y.Y.Y.Y.Y.Y.Y.Y.Y.Y.Y.Y.Y.Y.Y.Y.Y.Y.Y.Y.Y.Y.Y.Y.Y.Y.Y.Y.Y.Y.Y.Y.Y.",
"Y.Y.Y.Y.Y.Y.Y.Y.Y.Y.Y.Y.Y.Y.Y.Y.Y.Y.Y.Y.Y.Y.Y.Y.Y.Y.Y.Y.Y.Y.Y.Y.Y.Y.Y.Y.Y.Y.Y.Y.Y.Y.Y.Y.Y.Y.Y.Y.Y.Y.",
"Y.Y.Y.Y.Y.Y.Y.Y.Y.Y.Y.Y.Y.Y.Y.Y.Y.Y.Y.Y.Y.Y.Y.Y.Y.Y.Y.Y.Y.Y.Y.Y.Y.Y.Y.Y.Y.Y.Y.Y.Y.Y.Y.Y.Y.Y.Y.Y.Y.Y.",
"Y.Y.Y.Y.Y.Y.Y.Y.Y.Y.Y.Y.Y.Y.Y.Y.Y.Y.Y.Y.Y.Y.Y.Y.Y.Y.Y.Y.Y.Y.Y.Y.Y.Y.Y.Y.Y.Y.Y.Y.Y.Y.Y.Y.Y.Y.Y.Y.Y.Y.",
"Y.Y.Y.Y.Y.Y.Y.Y.Y.Y.Y.Y.Y.Y.Y.Y.Y.Y.Y.Y.Y.Y.Y.Y.Y.Y.Y.Y.Y.Y.Y.Y.Y.Y.Y.Y.Y.Y.Y.Y.Y.Y.Y.Y.Y.Y.Y.Y.Y.Y.",
"Y.Y.Y.Y.Y.Y.Y.Y.Y.Y.Y.Y.Y.Y.Y.Y.Y.Y.Y.Y.Y.Y.Y.Y.Y.Y.Y.Y.Y.Y.Y.Y.Y.Y.Y.Y.Y.Y.Y.Y.Y.Y.Y.Y.Y.Y.Y.Y.Y.Y.",
"Y.Y.Y.Y.Y.Y.Y.Y.Y.Y.Y.Y.Y.Y.Y.Y.Y.Y.Y.Y.Y.Y.Y.Y.Y.Y.Y.Y.Y.Y.Y.Y.Y.Y.Y.Y.Y.Y.Y.Y.Y.Y.Y.Y.Y.Y.Y.Y.Y.Y.",
"Y.Y.Y.Y.Y.Y.Y.Y.Y.Y.Y.Y.Y.Y.Y.Y.Y.Y.Y.Y.Y.Y.Y.Y.Y.Y.Y.Y.Y.Y.Y.Y.Y.Y.Y.Y.Y.Y.Y.Y.Y.Y.Y.Y.Y.Y.Y.Y.Y.Y.",
"Y.Y.Y.Y.Y.Y.Y.Y.Y.Y.Y.Y.Y.Y.Y.Y.Y.Y.Y.Y.Y.Y.Y.Y.Y.Y.Y.Y.Y.Y.Y.Y.Y.Y.Y.Y.Y.Y.Y.Y.Y.Y.Y.Y.Y.Y.Y.Y.Y.Y.",
"Y.Y.Y.Y.Y.Y.Y.Y.Y.Y.Y.Y.Y.Y.Y.Y.Y.Y.Y.Y.Y.Y.Y.Y.Y.Y.Y.Y.Y.Y.Y.Y.Y.Y.Y.Y.Y.Y.Y.Y.Y.Y.Y.Y.Y.Y.Y.Y.Y.Y.",
"Y.Y.Y.Y.Y.Y.Y.Y.Y.Y.Y.Y.Y.Y.Y.Y.Y.Y.0 0 ) 0 ) 9 0 Y.Y.Y.Y.Y.Y.Y.Y.Y.Y.Y.Y.Y.Y.Y.Y.Y.Y.Y.Y.Y.Y.Y.Y.Y.",
"Y.Y.Y.Y.Y.Y.Y.Y.Y.Y.Y.Y.Y.Y.Y.Y.Y.0 0 0 0 0 8 3 4 9 Y.Y.Y.Y.Y.Y.Y.Y.Y.Y.Y.Y.Y.Y.Y.Y.Y.Y.Y.Y.Y.Y.Y.Y.",
"Y.Y.Y.Y.Y.Y.Y.Y.Y.Y.Y.Y.Y.Y.Y.Y.0 0 0 0 9 8 3 , 1 4 8 Y.Y.Y.Y.Y.Y.Y.Y.Y.Y.Y.Y.Y.Y.Y.Y.Y.Y.Y.Y.Y.Y.Y.",
"Y.Y.Y.Y.Y.Y.Y.Y.Y.Y.Y.Y.Y.Y.Y.Y.0 0 0 0 ) ) _ _ ] _ 8 8 Y.Y.Y.Y.Y.Y.Y.Y.Y.Y.Y.Y.Y.Y.Y.Y.Y.Y.Y.Y.Y.Y.",
"Y.Y.Y.Y.Y.Y.Y.Y.Y.Y.Y.Y.Y.Y.Y.0 0 0 0 0 _ +.1.u.u.u.6 5 8 Y.Y.Y.Y.Y.Y.Y.Y.Y.Y.Y.Y.Y.Y.Y.Y.Y.Y.Y.Y.Y.",
"Y.Y.Y.Y.Y.Y.Y.Y.Y.Y.Y.Y.Y.Y.0 0 0 0 0 0 ..%.8.K.K.Z.i , 5 0 Y.Y.Y.Y.Y.Y.Y.Y.Y.Y.Y.Y.Y.Y.Y.Y.Y.Y.Y.Y.",
"Y.Y.Y.Y.Y.Y.Y.Y.Y.Y.Y.Y.Y.Y.0 0 0 0 0 0 w . B P.H.X < , 5 0 Y.Y.Y.Y.Y.Y.Y.Y.Y.Y.Y.Y.Y.Y.Y.Y.Y.Y.Y.Y.",
"Y.Y.Y.Y.Y.Y.Y.Y.Y.Y.Y.Y.Y.Y.0 0 0 0 9 &.A.V.g.P.L.m 2 , 5 t - - Y.Y.Y.Y.Y.Y.Y.Y.Y.Y.Y.Y.Y.Y.Y.Y.Y.Y.",
"Y.Y.Y.Y.Y.Y.Y.Y.Y.Y.Y.Y.Y.Y.0 0 9 ) ) _ s.P.S.P.K.D.i 1 5 o.-.- Y.Y.Y.Y.Y.Y.Y.Y.Y.Y.Y.Y.Y.Y.Y.Y.Y.Y.",
"Y.Y.Y.Y.Y.Y.Y.Y.Y.Y.Y.Y.Y.Y.0 0 ) 9 ) 9 :.f.P.P.K.p.6 4 O.<.#.Y.Y.Y.Y.Y.Y.Y.Y.Y.Y.Y.Y.Y.Y.Y.Y.Y.Y.Y.",
"Y.Y.Y.Y.Y.Y.Y.Y.Y.Y.Y.Y.Y.Y.0 ) _ [ ) ) ' *.d.i.=.[ 5 o.o.| Y.Y.Y.Y.Y.Y.Y.Y.Y.Y.Y.Y.Y.Y.Y.Y.Y.Y.Y.Y.",
"Y.Y.Y.Y.Y.Y.Y.Y.Y.Y.Y.Y.Y.Y.Y.#.,.,.f F ` @.d.0.B u _ <.g Y.Y.Y.Y.Y.Y.Y.Y.Y.Y.Y.Y.Y.Y.Y.Y.Y.Y.Y.Y.Y.",
"Y.Y.Y.Y.Y.Y.Y.Y.Y.Y.Y.z.z.z.Y.3.a.a.G Q L 4.G.L.m.E | ..O.Y.Y.Y.Y.Y.Y.Y.Y.Y.Y.Y.Y.Y.Y.Y.Y.Y.Y.Y.Y.Y.",
"Y.Y.Y.Y.Y.Y.Y.Y.Y.Y.Y.k.l.z.^ y 8.w.d z ~ 6.r.S.H.b.E | ..h n M Y.Y.Y.Y.Y.Y.Y.Y.Y.Y.Y.Y.Y.Y.Y.Y.Y.Y.",
"Y.Y.Y.Y.Y.Y.Y.Y.Y.z.z.W ! z.^ - - - - b ! z.z.z.z.z.z.M > n n n Y.Y.Y.Y.Y.Y.Y.Y.Y.Y.Y.Y.Y.Y.Y.Y.Y.Y.",
"Y.Y.Y.Y.Y.Y.Y.Y.Y.z.z.z.! W ^ - - - b n Z Q z.z.z.z.z.M b Z n n n Y.Y.Y.Y.Y.Y.Y.Y.Y.Y.Y.Y.Y.Y.Y.Y.Y.",
"Y.Y.Y.Y.Y.Y.Y.Y.Y.z.z.z.k.Y.Y.Y.Y.Y.Y.n n Z A A A A b > > n x X X Y.Y.Y.Y.Y.Y.Y.Y.Y.Y.Y.Y.Y.Y.Y.Y.Y.",
"Y.Y.Y.Y.Y.Y.Y.Y.Y.k k ! Y.Y.Y.Y.Y.Y.U.( n I / ^ / / Y.Y.Y.Y.X     Y.Y.Y.Y.Y.Y.Y.Y.Y.Y.Y.Y.Y.Y.Y.Y.Y.",
"Y.Y.Y.Y.Y.Y.Y.Y.Y.    k Y.Y.Y.Y.Y.I.B.W W g.b.b.z.z.z.Y.Y.Y.    . Y.Y.Y.Y.Y.Y.Y.Y.Y.Y.Y.Y.Y.Y.Y.Y.Y.",
"Y.Y.Y.Y.Y.Y.Y.Y.Y.      Y.Y.Y.Y.Y.j.c J M.n.T Y Y P 7.H Y.Y.Y.  Y.Y.Y.Y.Y.Y.Y.Y.Y.Y.Y.Y.Y.Y.Y.Y.Y.Y.",
"Y.Y.Y.Y.Y.Y.Y.Y.Y.    Y.Y.Y.Y.Y.C.j & @.G.6.q w w # q.s & Y.Y.Y.Y.Y.Y.Y.Y.Y.Y.Y.Y.Y.Y.Y.Y.Y.Y.Y.Y.Y.",
"Y.Y.Y.Y.Y.Y.Y.Y.Y.Y.Y.Y.Y.Y.Y.C.% * + a :. .w w w w ] e % & Y.Y.Y.Y.Y.Y.Y.Y.Y.Y.Y.Y.Y.Y.Y.Y.Y.Y.Y.Y.",
"Y.Y.Y.Y.Y.Y.Y.Y.Y.Y.Y.Y.Y.Y.N.& & % . + q w w w w w # . + & & Y.Y.Y.Y.Y.Y.Y.Y.Y.Y.Y.Y.Y.Y.Y.Y.Y.Y.Y.",
"Y.Y.Y.Y.Y.Y.Y.Y.Y.Y.Y.Y.Y.x.* & % .     # w w w w w w O + & & Y.Y.Y.Y.Y.Y.Y.Y.Y.Y.Y.Y.Y.Y.Y.Y.Y.Y.Y.",
"Y.Y.Y.Y.Y.Y.Y.Y.Y.Y.Y.U.v.j & & &         r ..{ w w w O + & & Y.Y.Y.Y.Y.Y.Y.Y.Y.Y.Y.Y.Y.Y.Y.Y.Y.Y.Y.",
"Y.Y.Y.Y.Y.Y.Y.Y.Y.Y.Y.U.c.& & & %       r #.t.q.w w @ . + & & Y.Y.Y.Y.Y.Y.Y.Y.Y.Y.Y.Y.Y.Y.Y.Y.Y.Y.Y.",
"Y.Y.Y.Y.Y.Y.Y.Y.Y.Y.Y.U.c.& & & %       g y.a.8.w @ .   + % * Y.Y.Y.Y.Y.Y.Y.Y.Y.Y.Y.Y.Y.Y.Y.Y.Y.Y.Y.",
"Y.Y.Y.Y.Y.Y.Y.Y.Y.Y.Y.Y.R & & & & +     B 9.a.w.w       + % Y.Y.Y.Y.Y.Y.Y.Y.Y.Y.Y.Y.Y.Y.Y.Y.Y.Y.Y.Y.",
"Y.Y.Y.Y.Y.Y.Y.Y.Y.Y.Y.Y.Y.& & & & & + o : K 4.=.q     $ t p Y.Y.Y.Y.Y.Y.Y.Y.Y.Y.Y.Y.Y.Y.Y.Y.Y.Y.Y.Y.",
"Y.Y.Y.Y.Y.Y.Y.Y.Y.Y.Y.Y.Y.Y.& & & * % % l Z I C #   $ } $.&.Y.Y.Y.Y.Y.Y.Y.Y.Y.Y.Y.Y.Y.Y.Y.Y.Y.Y.Y.Y.",
"Y.Y.Y.Y.Y.Y.Y.Y.Y.Y.Y.Y.Y.Y.Y.& & & & & : W z.h.% . } t.a.a.Y.Y.Y.Y.Y.Y.Y.Y.Y.Y.Y.Y.Y.Y.Y.Y.Y.Y.Y.Y.",
"Y.Y.Y.Y.Y.Y.Y.Y.Y.Y.Y.Y.Y.Y.Y.Y.& & & & & v b.h.& & 9.a.a.a.Y.Y.Y.Y.Y.Y.Y.Y.Y.Y.Y.Y.Y.Y.Y.Y.Y.Y.Y.Y.",
"Y.Y.Y.Y.Y.Y.Y.Y.Y.Y.Y.Y.Y.Y.Y.Y.Y.Y.Y.& & v b.h.& & N e.a.a.Y.Y.Y.Y.Y.Y.Y.Y.Y.Y.Y.Y.Y.Y.Y.Y.Y.Y.Y.Y.",
"Y.Y.Y.Y.Y.Y.Y.Y.Y.Y.Y.Y.Y.Y.Y.Y.Y.Y.Y.Y.Y.C A A Y.Y.n V ;.Y.Y.Y.Y.Y.Y.Y.Y.Y.Y.Y.Y.Y.Y.Y.Y.Y.Y.Y.Y.Y.",
"Y.Y.Y.Y.Y.Y.Y.Y.Y.Y.Y.Y.Y.Y.Y.Y.Y.Y.Y.Y.Y.Y.Y.Y.Y.Y.^ / Y.Y.Y.Y.Y.Y.Y.Y.Y.Y.Y.Y.Y.Y.Y.Y.Y.Y.Y.Y.Y.Y.",
"Y.Y.Y.Y.Y.Y.Y.Y.Y.Y.Y.Y.Y.Y.Y.Y.Y.Y.Y.Y.Y.Y.Y.Y.Y.Y.z.z.Y.Y.Y.Y.Y.Y.Y.Y.Y.Y.Y.Y.Y.Y.Y.Y.Y.Y.Y.Y.Y.Y.",
"Y.Y.Y.Y.Y.Y.Y.Y.Y.Y.Y.Y.Y.Y.Y.Y.Y.Y.Y.Y.Y.Y.Y.Y.Y.Y.z.z.Y.Y.Y.Y.Y.Y.Y.Y.Y.Y.Y.Y.Y.Y.Y.Y.Y.Y.Y.Y.Y.Y.",
"Y.Y.Y.Y.Y.Y.Y.Y.Y.Y.Y.Y.Y.Y.Y.Y.Y.Y.Y.Y.Y.Y.Y.Y.Y.Y./ g.Y.Y.Y.Y.Y.Y.Y.Y.Y.Y.Y.Y.Y.Y.Y.Y.Y.Y.Y.Y.Y.Y.",
"Y.Y.Y.Y.Y.Y.Y.Y.Y.Y.Y.Y.Y.Y.Y.Y.Y.Y.Y.Y.Y.Y.Y.Y.Y.Y.M n Y.Y.Y.Y.Y.Y.Y.Y.Y.Y.Y.Y.Y.Y.Y.Y.Y.Y.Y.Y.Y.Y.",
"Y.Y.Y.Y.Y.Y.Y.Y.Y.Y.Y.Y.Y.Y.Y.Y.Y.Y.Y.Y.Y.Y.Y.Y.Y.Y.Y.Y.Y.Y.Y.Y.Y.Y.Y.Y.Y.Y.Y.Y.Y.Y.Y.Y.Y.Y.Y.Y.Y.Y."
};
