/* XPM */
static char *result[] = {
/* columns rows colors chars-per-pixel */
"50 50 255 2 ",
"   c #120022",
".  c #140023",
"X  c #150123",
"o  c #170122",
"O  c #150124",
"+  c #160124",
"@  c #150425",
"#  c #1C0223",
"$  c #180125",
"%  c #1E0228",
"&  c #1A0D2A",
"*  c #1B0F2B",
"=  c #260324",
"-  c #23032A",
";  c #24032B",
":  c #25032B",
">  c #25042C",
",  c #2C052F",
"<  c #200F2B",
"1  c #340525",
"2  c #360625",
"3  c #370625",
"4  c #341423",
"5  c #3C1924",
"6  c #2F0531",
"7  c #300631",
"8  c #310632",
"9  c #320632",
"0  c #3F163F",
"q  c #2C2C2C",
"w  c #2D2D2E",
"e  c #2E253F",
"r  c #38263F",
"t  c #302A3D",
"y  c #303132",
"u  c #303233",
"i  c #430D0F",
"p  c #4D0F0A",
"a  c #4E100A",
"s  c #58180D",
"d  c #471B1F",
"f  c #5E1B10",
"g  c #5F1C10",
"h  c #601D10",
"j  c #621E11",
"k  c #641F12",
"l  c #652012",
"z  c #672213",
"x  c #692313",
"c  c #6A2916",
"v  c #712916",
"b  c #722916",
"n  c #732A17",
"m  c #742B17",
"M  c #792E19",
"N  c #7A2F19",
"B  c #7C311A",
"V  c #7D311A",
"C  c #7E321A",
"Z  c #45092B",
"A  c #40082E",
"S  c #44082C",
"D  c #45092D",
"F  c #540B28",
"G  c #550B28",
"H  c #560B28",
"J  c #471A21",
"K  c #4D1A2D",
"L  c #512624",
"P  c #552425",
"I  c #5A2F22",
"U  c #5A262A",
"Y  c #433D31",
"T  c #672E22",
"R  c #642F24",
"E  c #62282E",
"W  c #70332C",
"Q  c #633C31",
"!  c #653438",
"~  c #504634",
"^  c #5B483C",
"/  c #7D4331",
"(  c #7A4C32",
")  c #7F5434",
"_  c #7E5435",
"`  c #71543D",
"'  c #322B44",
"]  c #392B41",
"[  c #323642",
"{  c #373E40",
"}  c #493A52",
"|  c #523F5B",
" . c #394042",
".. c #394143",
"X. c #3E4243",
"o. c #3A4345",
"O. c #3F4A4D",
"+. c #3F4B4E",
"@. c #38587F",
"#. c #45494B",
"$. c #594349",
"%. c #50554E",
"&. c #5A5D4F",
"*. c #474653",
"=. c #414D50",
"-. c #4A4D58",
";. c #445053",
":. c #465256",
">. c #4A575A",
",. c #4C565B",
"<. c #4D5A5D",
"1. c #624442",
"2. c #744F43",
"3. c #625D48",
"4. c #705253",
"5. c #73634C",
"6. c #6E6950",
"7. c #75625C",
"8. c #5C4F66",
"9. c #4F5C60",
"0. c #525F62",
"q. c #605065",
"w. c #6B5262",
"e. c #6C5262",
"r. c #755875",
"t. c #536064",
"y. c #546165",
"u. c #576366",
"i. c #5A6467",
"p. c #586269",
"a. c #59676B",
"s. c #5A676A",
"d. c #5C696D",
"f. c #5E6C70",
"g. c #5F6D71",
"h. c #616F73",
"j. c #616875",
"k. c #697478",
"l. c #69777C",
"z. c #6B7A7E",
"x. c #717A7C",
"c. c #823719",
"v. c #83361C",
"b. c #84381C",
"n. c #893F18",
"m. c #8D3E1D",
"M. c #8D3F1D",
"N. c #853D20",
"B. c #99481F",
"V. c #994A22",
"C. c #904128",
"Z. c #954628",
"A. c #96532B",
"S. c #9A592C",
"D. c #9C592D",
"F. c #995C2F",
"G. c #885A35",
"H. c #815638",
"J. c #835A3C",
"K. c #9C5C3D",
"L. c #A85824",
"P. c #AF5C26",
"I. c #A35328",
"U. c #A65D2B",
"Y. c #B05F28",
"T. c #9F6432",
"R. c #BC6626",
"E. c #BF6826",
"W. c #AE6637",
"Q. c #AD6F36",
"!. c #AF7336",
"~. c #B4743D",
"^. c #BC713A",
"/. c #BB7C3A",
"(. c #CD792D",
"). c #C17834",
"_. c #CC7F3E",
"`. c #9F6C4C",
"'. c #9B7542",
"]. c #927842",
"[. c #9C7A4C",
"{. c #877952",
"}. c #A26B40",
"|. c #B17F59",
" X c #CC873C",
".X c #C8883E",
"XX c #D08E3F",
"oX c #ED9338",
"OX c #BF8343",
"+X c #BF994C",
"@X c #AE9354",
"#X c #BE9D54",
"$X c #A48E71",
"%X c #AA8A7B",
"&X c #A49574",
"*X c #C88A45",
"=X c #D39947",
"-X c #D69F4F",
";X c #CD9C50",
":X c #DB9750",
">X c #D99B5A",
",X c #CEA44F",
"<X c #C2A055",
"1X c #DCA15D",
"2X c #E1A64B",
"3X c #E3AA4D",
"4X c #E7AF4F",
"5X c #F0A24C",
"6X c #E4A55F",
"7X c #F2AB5A",
"8X c #F3AE5F",
"9X c #F1BE57",
"0X c #F2BF57",
"qX c #CD9B6C",
"wX c #F3B163",
"eX c #F6BE75",
"rX c #6F7E82",
"tX c #6A7A87",
"yX c #707581",
"uX c #8F788F",
"iX c #867793",
"pX c #748388",
"aX c #748488",
"sX c #78888D",
"dX c #7C8B90",
"fX c #7C8C90",
"gX c #7C8C91",
"hX c #7E8E93",
"jX c #978197",
"kX c #849294",
"lX c #919295",
"zX c #9FA194",
"xX c #A6A489",
"cX c #969DA1",
"vX c #96A6AC",
"bX c #B4A5B4",
"nX c #DDBF8F",
"mX c #E2B984",
"MX c #D1C19B",
"NX c #DCC89C",
"BX c #DFCA9D",
"VX c #EBC781",
"CX c #F9CB88",
"ZX c #E5CE9E",
"AX c #EECF99",
"SX c #ECD29E",
"DX c #EFD39E",
"FX c #FBD99B",
"GX c #FADA9F",
"HX c #E9D4A6",
"JX c #F9DAA0",
"KX c #FCDCA0",
"LX c #C3CBDB",
"PX c gray99",
"IX c None",
/* pixels */
"IXIXIXIXIXIXIXIXIXIXIXIXIXIXIXIXIXIXIXIXIXIXIXIXIXIXIXIXIXIXIXIXIXIXIXIXIXIXIXIXIXIXIXIXIXIXIXIXIXIX",
"IXIXIXIXIXIXIXIXIXIXIXIXIXIXIXIXIXIXIXIXIXIXIXIXIXIXIXIXIXIXIXIXIXIXIXIXIXIXIXIXIXIXIXIXIXIXIXIXIXIX",
"IXIXIXIXIXIXIXIXIXIXIXIXIXIXIXIXIXIXIXIXIXIXIXIXIXIXIXIXIXIXIXIXIXIXIXIXIXIXIXIXIXIXIXIXIXIXIXIXIXIX",
"IXIXIXIXIXIXIXIXIXIXIXIXIXIXIXIXIXIXIXIXIXIXIXIXIXIXIXIXIXIXIXIXIXIXIXIXIXIXIXIXIXIXIXIXIXIXIXIXIXIX",
"IXIXIXIXIXIXIXIXIXIXIXIXIXIXIXIXIXIXIXIXIXIXIXIXIXIXIXIXIXIXIXIXIXIXIXIXIXIXIXIXIXIXIXIXIXIXIXIXIXIX",
"IXIXIXIXIXIXIXIXIXIXIXIXIXIXIXIXIXIXIXIXIXIXIXIXIXIXIXIXIXIXIXIXIXIXIXIXIXIXIXIXIXIXIXIXIXIXIXIXIXIX",
"IXIXIXIXIXIXIXIXIXIXIXIXIXIXIXIXIXIXIXIXIXIXIXIXIXIXIXIXIXIXIXIXIXIXIXIXIXIXIXIXIXIXIXIXIXIXIXIXIXIX",
"IXIXIXIXIXIXIXIXIXIXIXIXIXIXIXIXIXIXIXIXIXIXIXIXIXIXIXIXIXIXIXIXIXIXIXIXIXIXIXIXIXIXIXIXIXIXIXIXIXIX",
"IXIXIXIXIXIXIXIXIXIXIXIXIXIXIXIXIXIXIXIXIXIXIXIXIXIXIXIXIXIXIXIXIXIXIXIXIXIXIXIXIXIXIXIXIXIXIXIXIXIX",
"IXIXIXIXIXIXIXIXIXIXIXIXIXIXIXIXIXIXIXIXIXIXIXIXIXIXIXIXIXIXIXIXIXIXIXIXIXIXIXIXIXIXIXIXIXIXIXIXIXIX",
"IXIXIXIXIXIXIXIXIXIXIXIXIXIXIXIXIXIXV V V V V V V IXIXIXIXIXIXIXIXIXIXIXIXIXIXIXIXIXIXIXIXIXIXIXIXIX",
"IXIXIXIXIXIXIXIXIXIXIXIXIXIXIXIXV V V V V V m g h N V IXIXIXIXIXIXIXIXIXIXIXIXIXIXIXIXIXIXIXIXIXIXIX",
"IXIXIXIXIXIXIXIXIXIXIXIXIXIXIXV V V V V V n f p a k l b IXIXIXIXIXIXIXIXIXIXIXIXIXIXIXIXIXIXIXIXIXIX",
"IXIXIXIXIXIXIXIXIXIXIXIXIXIXV V V V V V V c.n.n.n.n.s j v IXIXIXIXIXIXIXIXIXIXIXIXIXIXIXIXIXIXIXIXIX",
"IXIXIXIXIXIXIXIXIXIXIXIXIXV V V V V V V m.R.oX5X5X5Xc p x V IXIXIXIXIXIXIXIXIXIXIXIXIXIXIXIXIXIXIXIX",
"IXIXIXIXIXIXIXIXIXIXIXIXV V V V V V V V L.(.:XKXGXnXT p x V IXIXIXIXIXIXIXIXIXIXIXIXIXIXIXIXIXIXIXIX",
"IXIXIXIXIXIXIXIXIXIXIXIXV V V V V V V C J @ $.KXAX< i p x B IXIXIXIXIXIXIXIXIXIXIXIXIXIXIXIXIXIXIXIX",
"IXIXIXIXIXIXIXIXIXIXIXIXV V V V V V V E.mXvXtXKXDX@.d p x I q q IXIXIXIXIXIXIXIXIXIXIXIXIXIXIXIXIXIX",
"IXIXIXIXIXIXIXIXIXIXIXIXV V V V V V V m.qXHXNXKXJXMXR z M T.].q IXIXIXIXIXIXIXIXIXIXIXIXIXIXIXIXIXIX",
"IXIXIXIXIXIXIXIXIXIXIXIXIXV V V V V V V ^.eXKXKXFX7XN.m /..X!.IXIXIXIXIXIXIXIXIXIXIXIXIXIXIXIXIXIXIX",
"IXIXIXIXIXIXIXIXIXIXIXIXIXIXIXb.V.V.v.V B._.wX6X`.P.M.=X'.G.IXIXIXIXIXIXIXIXIXIXIXIXIXIXIXIXIXIXIXIX",
"IXIXIXIXIXIXIXIXIXIXIXIXIXIXIX4X X X( 2./ W.8X>X1.Q A.XX) IXIXIXIXIXIXIXIXIXIXIXIXIXIXIXIXIXIXIXIXIX",
"IXIXIXIXIXIXIXIXIXIXIXhXhXhXIX+X0X0X3.s.7.|.CXSXzXu.J.U.Y.IXIXIXIXIXIXIXIXIXIXIXIXIXIXIXIXIXIXIXIXIX",
"IXIXIXIXIXIXIXIXIXIXIXpXsXhXk.Y ,X,X~  .h.$X1XZXBXkXy.H.S.` +.+.IXIXIXIXIXIXIXIXIXIXIXIXIXIXIXIXIXIX",
"IXIXIXIXIXIXIXIXIXhXhXa.g.dXk.q q q w ..g.gXhXhXhXhXhX#.{ +.+.+.IXIXIXIXIXIXIXIXIXIXIXIXIXIXIXIXIXIX",
"IXIXIXIXIXIXIXIXIXhXhXfXf.a.k.q q q o.O.=.d.hXhXhXhXhX#.{ +.+.+.+.IXIXIXIXIXIXIXIXIXIXIXIXIXIXIXIXIX",
"IXIXIXIXIXIXIXIXIXhXhXhXaXIXIXIXIXIXIX+.+.;.>.>.>.>.X.y u +.[ & & IXIXIXIXIXIXIXIXIXIXIXIXIXIXIXIXIX",
"IXIXIXIXIXIXIXIXIX' ' j.IXIXIXIXIXIXPXx.+.0.z.z.z.z.IXIXIXIX*     IXIXIXIXIXIXIXIXIXIXIXIXIXIXIXIXIX",
"IXIXIXIXIXIXIXIXIX    e IXIXIXIXIXLXcXi.t.rXhXhXhXhXhXIXIXIX      IXIXIXIXIXIXIXIXIXIXIXIXIXIXIXIXIX",
"IXIXIXIXIXIXIXIXIX      IXIXIXIXIXiX} 5.xXlXq.e.w.8.&X4.IXIXIX  IXIXIXIXIXIXIXIXIXIXIXIXIXIXIXIXIXIX",
"IXIXIXIXIXIXIXIXIX    IXIXIXIXIXbX0 9 }.VX%XD H G A OX! 9 IXIXIXIXIXIXIXIXIXIXIXIXIXIXIXIXIXIXIXIXIX",
"IXIXIXIXIXIXIXIXIXIXIXIXIXIXIX9 9 9 , W ~.K.H H H H C.K 6 9 IXIXIXIXIXIXIXIXIXIXIXIXIXIXIXIXIXIXIXIX",
"IXIXIXIXIXIXIXIXIXIXIXIXIXIX9 9 9 6 $ > S H H H H H H = : 9 IXIXIXIXIXIXIXIXIXIXIXIXIXIXIXIXIXIXIXIX",
"IXIXIXIXIXIXIXIXIXIXIXIXIX9 9 9 8 +     3 H H H H H H = : 9 9 IXIXIXIXIXIXIXIXIXIXIXIXIXIXIXIXIXIXIX",
"IXIXIXIXIXIXIXIXIXIXIXPXuX9 9 9 8 O     o P I.Z.H H H = : 9 9 IXIXIXIXIXIXIXIXIXIXIXIXIXIXIXIXIXIXIX",
"IXIXIXIXIXIXIXIXIXIXIXPXjX9 9 9 8 O     L Q.2X*XH H H = : 9 9 IXIXIXIXIXIXIXIXIXIXIXIXIXIXIXIXIXIXIX",
"IXIXIXIXIXIXIXIXIXIXIXPXjX9 9 9 8 O     _ 3X0X-XH H H = : 9 IXIXIXIXIXIXIXIXIXIXIXIXIXIXIXIXIXIXIXIX",
"IXIXIXIXIXIXIXIXIXIXIXIXr.9 9 9 9 ; +   ^ #X0X-XF 2 1 # : 9 IXIXIXIXIXIXIXIXIXIXIXIXIXIXIXIXIXIXIXIX",
"IXIXIXIXIXIXIXIXIXIXIXIXIX9 9 9 9 9 - % t 6.@X[.Z X   5 U E IXIXIXIXIXIXIXIXIXIXIXIXIXIXIXIXIXIXIXIX",
"IXIXIXIXIXIXIXIXIXIXIXIXIXIX9 9 9 9 9 9 ] :.9.-.7 . 4 F.).).IXIXIXIXIXIXIXIXIXIXIXIXIXIXIXIXIXIXIXIX",
"IXIXIXIXIXIXIXIXIXIXIXIXIXIXIX9 9 9 9 9 r p.hXyX7 $ D.2X0X0XIXIXIXIXIXIXIXIXIXIXIXIXIXIXIXIXIXIXIXIX",
"IXIXIXIXIXIXIXIXIXIXIXIXIXIXIXIX9 9 9 9 9 | hXyX9 9 ;X9X0X0XIXIXIXIXIXIXIXIXIXIXIXIXIXIXIXIXIXIXIXIX",
"IXIXIXIXIXIXIXIXIXIXIXIXIXIXIXIXIX9 9 9 9 | hXyX9 IX%.<X0X0XIXIXIXIXIXIXIXIXIXIXIXIXIXIXIXIXIXIXIXIX",
"IXIXIXIXIXIXIXIXIXIXIXIXIXIXIXIXIXIXIXIXIX*.<.,.IXIX+.&.{.IXIXIXIXIXIXIXIXIXIXIXIXIXIXIXIXIXIXIXIXIX",
"IXIXIXIXIXIXIXIXIXIXIXIXIXIXIXIXIXIXIXIXIXIXIXIXIXIXl.l.IXIXIXIXIXIXIXIXIXIXIXIXIXIXIXIXIXIXIXIXIXIX",
"IXIXIXIXIXIXIXIXIXIXIXIXIXIXIXIXIXIXIXIXIXIXIXIXIXIXhXhXIXIXIXIXIXIXIXIXIXIXIXIXIXIXIXIXIXIXIXIXIXIX",
"IXIXIXIXIXIXIXIXIXIXIXIXIXIXIXIXIXIXIXIXIXIXIXIXIXIXhXhXIXIXIXIXIXIXIXIXIXIXIXIXIXIXIXIXIXIXIXIXIXIX",
"IXIXIXIXIXIXIXIXIXIXIXIXIXIXIXIXIXIXIXIXIXIXIXIXIXIXz.z.IXIXIXIXIXIXIXIXIXIXIXIXIXIXIXIXIXIXIXIXIXIX",
"IXIXIXIXIXIXIXIXIXIXIXIXIXIXIXIXIXIXIXIXIXIXIXIXIXIX+.+.IXIXIXIXIXIXIXIXIXIXIXIXIXIXIXIXIXIXIXIXIXIX",
"IXIXIXIXIXIXIXIXIXIXIXIXIXIXIXIXIXIXIXIXIXIXIXIXIXIXIXIXIXIXIXIXIXIXIXIXIXIXIXIXIXIXIXIXIXIXIXIXIXIX"
};
