/* XPM */
static char *prl41641565249[] = {
/* columns rows colors chars-per-pixel */
"50 50 161 2 ",
"   c None",
".  c #08001F",
"X  c #3F0204",
"o  c #0E0022",
"O  c #120022",
"+  c #1B0324",
"@  c #1D0228",
"#  c #1F1331",
"$  c #2E012D",
"%  c #230729",
"&  c #350525",
"*  c #30022F",
"=  c #391824",
"-  c #2D0232",
";  c #2F0B36",
":  c #320632",
">  c #330A34",
",  c #37173A",
"<  c #272B2D",
"1  c #2B2A2A",
"2  c #22242A",
"3  c #2E3131",
"4  c #313333",
"5  c #56140B",
"6  c #5E1B10",
"7  c #631E12",
"8  c #6C2A1B",
"9  c #742A15",
"0  c #7C2D15",
"q  c #7B2F19",
"w  c #702716",
"e  c #7A3113",
"r  c #7D311A",
"t  c #7B391D",
"y  c #4D0A27",
"u  c #430826",
"i  c #570927",
"p  c #560B28",
"a  c #590B28",
"s  c #401C24",
"d  c #5B1128",
"f  c #491933",
"g  c #651828",
"h  c #4D2524",
"j  c #492E26",
"k  c #482D29",
"l  c #5A212F",
"z  c #582631",
"x  c #5D3F36",
"c  c #53373B",
"v  c #642C2C",
"b  c #643A2D",
"n  c #793927",
"m  c #724C2D",
"M  c #674737",
"N  c #7F4D3E",
"B  c #7E4530",
"V  c #77543C",
"C  c #74613A",
"Z  c #392C48",
"A  c #212D57",
"S  c #46294B",
"D  c #47324F",
"F  c #463843",
"G  c #563E43",
"H  c #4B2850",
"J  c #57385D",
"K  c #5A395D",
"L  c #3B4142",
"P  c #3C454A",
"I  c #3F4B4E",
"U  c #374347",
"Y  c #3E4E56",
"T  c #444A4D",
"R  c #484649",
"E  c #5E4B41",
"W  c #414F54",
"Q  c #52445C",
"!  c #445154",
"~  c #485558",
"^  c #4D5A5D",
"/  c #505759",
"(  c #70424D",
")  c #685240",
"_  c #7C5E54",
"`  c #706B4F",
"'  c #726E55",
"]  c #4D4F61",
"[  c #594B64",
"{  c #5A5B66",
"}  c #576569",
"|  c #5C6D74",
" . c #6A777C",
".. c #637377",
"X. c #72707C",
"o. c #83351A",
"O. c #9C4C1E",
"+. c #98461D",
"@. c #A44E1C",
"#. c #844426",
"$. c #964620",
"%. c #9B5122",
"&. c #9B5A3A",
"*. c #AD5E28",
"=. c #A85A28",
"-. c #89643D",
";. c #B76227",
":. c #BC7F3D",
">. c #C0702F",
",. c #8D7340",
"<. c #977F4E",
"1. c #957743",
"2. c #807954",
"3. c #AC6D42",
"4. c #A2704E",
"5. c #AA7A57",
"6. c #A97B59",
"7. c #C8823A",
"8. c #CC8C3F",
"9. c #DE8938",
"0. c #E18B38",
"q. c #F39A3E",
"w. c #9A834C",
"e. c #B78643",
"r. c #DF9F46",
"t. c #EAAD4D",
"y. c #E4A25E",
"u. c #F7AF5C",
"i. c #EFBD57",
"p. c #F3BF57",
"a. c #C4A366",
"s. c #F5C358",
"d. c #6E7E82",
"f. c #6F7280",
"g. c #707F84",
"h. c #81728E",
"j. c #738186",
"k. c #76858A",
"l. c #78878C",
"z. c #7B898D",
"x. c #7E8E93",
"c. c #7F9198",
"v. c #8C819C",
"b. c #809095",
"n. c #839499",
"m. c #BBAA8C",
"M. c #A29BB1",
"N. c #D1B68D",
"B. c #EDC78F",
"V. c #F5C786",
"C. c #EDC991",
"Z. c #FDDA9C",
"A. c #D4C6A0",
"S. c #B1B3C6",
"D. c #C8CEDD",
"F. c #F2EFCD",
"G. c #D0DAE7",
"H. c #E1DDE4",
"J. c #EEF0F4",
"K. c #FCFCFC",
"L. c #F1F1F3",
/* pixels */
"                                                                                                    ",
"                                                                                                    ",
"                                                                                                    ",
"                                                                                                    ",
"                                                                                                    ",
"                                                                                                    ",
"                                                                                                    ",
"                                                                                                    ",
"                                                                                                    ",
"                                                                                                    ",
"                                                                                                    ",
"                                                                                                    ",
"                                                                                                    ",
"                                                                                                    ",
"                                                                                                    ",
"                                    r r r r r r r                                                   ",
"                                  r o.r r r r r r r                                                 ",
"                                r w 6 7 q r r r r r r                                               ",
"                              r w 9 e e q r r r r r r r                                             ",
"                              r 6 %.q.0.$.r r r r r r r r                                           ",
"                            r r 5 4.Z.V.9.+.q r r r r r r                                           ",
"                          k r r 5 6.N.G h 8 q o.r r r o.o.                                          ",
"                        < k r r 5 5.m.A X.&.@.r r r b x x                                           ",
"                          k r r 5 5.A.c.F.y.@.t r r M R U                                           ",
"                            r r 5 4.Z.Z.C.&.0 r r o.*.m 3 P P                                       ",
"                              r 5 %.u.B.&.r r r o.=.t.-.< 3 3 L                                     ",
"                                w 9 t B r r r r o.*.t.1.< 1 1 3 4                                   ",
"                                  w X   9 0 r n _ V :.e.C 4 / ^                                     ",
"                                          N N _  .Y m e.w.L k.n.f.                                  ",
"                            I             j.l. .~ W I R T ^ j.b.[ : :                               ",
"                            I I I I I I I ! W } k.k.D : D j.^ j.[ : : :                             ",
"                              I T I I I Y P P R ( a.c . Z x. .Q , : : : - h.                        ",
"                                I I I I     F f g 7.j o # ] x.H $ : : : * J v.G.                    ",
"                                            i p d n = O O % { S - : : : : $ H M.L.K.                ",
"                                          p p p y + o O @ - > : : : : : : : > K H.K.K.              ",
"                                          p p p y + o O + : : : : : : : : $ J S.D.J.K.K.            ",
"                                        p p p y % O O O + @ $ $ : : : : : $    .  K.K.K.K.          ",
"                                        p p a u O O O O o + v f : : > : :   I U     K.K.            ",
"                                        p p y & O O O O + h =.l - : : ,   W I I                     ",
"                                        p p & O O O O . s *.*.z ; > , P I I I I                     ",
"                                          a & O O O + O = *.;.E P P P I T I I I                     ",
"                                            n #.n + -.1.  =.) T I I I I I I I                       ",
"                                            ;.>.8.-.w.'     T I I I I I I I I                       ",
"                                              7.s.s.' Y }       I I I I I I                         ",
"                                                s.s.' | x.x.      I I I I                           ",
"                                                    l.z.x.x.        I I                             ",
"                                                      b.x.b.x.                                      ",
"                                                        | ..z.                                      ",
"                                                        P ! l.                                      ",
"                                                                                                    "
};
