/* XPM */
static char *prl51641565249[] = {
/* columns rows colors chars-per-pixel */
"50 50 188 2 ",
"   c None",
".  c #0C001D",
"X  c #0E0021",
"o  c #130122",
"O  c #1C0124",
"+  c #1A072D",
"@  c #1D112D",
"#  c #230A22",
"$  c #2D002C",
"%  c #26072B",
"&  c #330525",
"*  c #3D092E",
"=  c #3F0726",
"-  c #2A0030",
";  c #320632",
":  c #340A35",
">  c #201231",
",  c #3D143D",
"<  c #26292B",
"1  c #2B2C2C",
"2  c #282727",
"3  c #3B322C",
"4  c #2E243F",
"5  c #313435",
"6  c #34393A",
"7  c #54150E",
"8  c #5D1B10",
"9  c #480C0A",
"0  c #601D10",
"q  c #772C18",
"w  c #7A2F1A",
"e  c #772B17",
"r  c #7D311A",
"t  c #7F3016",
"y  c #410626",
"u  c #4F0627",
"i  c #42072D",
"p  c #4E0B28",
"a  c #570927",
"s  c #560B28",
"d  c #580B28",
"f  c #520627",
"g  c #54162B",
"h  c #511B31",
"j  c #611B29",
"k  c #512C21",
"l  c #492A3B",
"z  c #4B372D",
"x  c #6A212E",
"c  c #692E2D",
"v  c #673728",
"b  c #7D3422",
"n  c #613935",
"m  c #703D31",
"M  c #54493B",
"N  c #6C4B2F",
"B  c #7C4032",
"V  c #785537",
"C  c #372B40",
"Z  c #373844",
"A  c #463542",
"S  c #542F54",
"D  c #59385C",
"F  c #4A2A4A",
"G  c #3B4449",
"H  c #3F4B4E",
"J  c #3B4446",
"K  c #394A50",
"L  c #404B4E",
"P  c #444E52",
"I  c #4C4555",
"U  c #49575A",
"Y  c #545B5E",
"T  c #56484F",
"R  c #73515A",
"E  c #695542",
"W  c #594566",
"Q  c #4F5E60",
"!  c #664667",
"~  c #605F6F",
"^  c #7E566B",
"/  c #755775",
"(  c #5A6568",
")  c #5E6871",
"_  c #796E6C",
"`  c #636873",
"'  c #677379",
"]  c #81341A",
"[  c #83391A",
"{  c #8B3B1B",
"}  c #9F4D1D",
"|  c #93421C",
" . c #A9551E",
".. c #8E4729",
"X. c #994921",
"o. c #974821",
"O. c #8F5329",
"+. c #9B5329",
"@. c #9A5E38",
"#. c #85543D",
"$. c #AB5926",
"%. c #A35928",
"&. c #AC5620",
"*. c #B35F26",
"=. c #B05F28",
"-. c #AC622C",
";. c #B36128",
":. c #B36027",
">. c #B87439",
",. c #C26A21",
"<. c #D77D2D",
"1. c #D07930",
"2. c #C87C35",
"3. c #927943",
"4. c #A06E49",
"5. c #A97E43",
"6. c #A57553",
"7. c #BB7847",
"8. c #805B74",
"9. c #8F7B6D",
"0. c #D5863B",
"q. c #BE9E54",
"w. c #B38A63",
"e. c #CF9345",
"r. c #CE904A",
"t. c #E99B49",
"y. c #E1A34C",
"u. c #E9AC4B",
"i. c #E6AA54",
"p. c #F2BF57",
"a. c #CBA275",
"s. c #CDA578",
"d. c #D6AB78",
"f. c #E4BF77",
"g. c #F5BB72",
"h. c #F9C659",
"j. c #F6C358",
"k. c #FFC671",
"l. c #5A7592",
"z. c #6F7E85",
"x. c #767A89",
"c. c #87758D",
"v. c #8274A8",
"b. c #6F8086",
"n. c #7A848A",
"m. c #76868B",
"M. c #7E8E93",
"N. c #7F9095",
"B. c #858E8D",
"V. c #819196",
"C. c #899998",
"Z. c #949890",
"A. c #9A849A",
"S. c #9891BA",
"D. c #A19ABF",
"F. c #9BACB3",
"G. c #A6A5B9",
"H. c #EED285",
"J. c #FAD79A",
"K. c #E1C798",
"L. c #D2C6A3",
"P. c #E2CFA2",
"I. c #FCDFA6",
"U. c #FFEAA9",
"Y. c #FFEAB5",
"T. c #A49EC1",
"R. c #ABA4C5",
"E. c #A8A6C2",
"W. c #B9B2CE",
"Q. c #B8B6C8",
"!. c #B9B6D1",
"~. c #BAC7D1",
"^. c #C6C0CB",
"/. c #C2C5D8",
"(. c #C4CBDC",
"). c #C8C7DA",
"_. c #C8D0DF",
"`. c #DAD5CE",
"'. c #E0DDC3",
"]. c #DEDBE4",
"[. c #D3D6E4",
"{. c #E4DFE5",
"}. c #E5E5EB",
"|. c #ECEFF4",
" X c #F0EDF0",
".X c #F6F6F9",
"XX c #FCFCFC",
"oX c #F2F1F5",
/* pixels */
"                                                                                                    ",
"                                                                                                    ",
"                                                                                                    ",
"                                                                                                    ",
"                                                                                                    ",
"                                                                                                    ",
"                                                                                                    ",
"                                                                                                    ",
"                                                                                                    ",
"                                                                                                    ",
"                                                                                                    ",
"                                                                                                    ",
"                                                                                                    ",
"                                                                                                    ",
"                                q e w r r r r                                                       ",
"                              r 8 7 0 r r r r r                                                     ",
"                            q 0 } :. .t ] w r r r                                                   ",
"                            e 7 r.k.i.*.] w ] w r ]   ;.;.%.3 1                                     ",
"                            q 7 s.K.w.=.} ] w w r r o.$.;.%.3 1 1                                   ",
"                            w 7 s.9.+ l 0.$.] ] r r w X.;.O.3 1 1 1                                 ",
"                            q 7 s.Z.l.'.J.t.&.w r r w } O.3 1 1 1 5 H                               ",
"                            q 7 a.P.L.Y.U.7.{ w ] r w v z < 1 1 5 G H                               ",
"                            q 7 s.U.U.J.g.%.e w w r ] k < 1 1 6 J P H H                             ",
"                            q 0 6.s.d.g.1.{ w w r r ] n Z <     H H H L                             ",
"                              r 0 9 t 0.| r r r r r ] / v.        L L G                             ",
"                                      *.r w r w r r 8.x.S.(.        G @ o                           ",
"                                    0.y.e.N 3 T T _ G.!.T.D.oX      @ o o o                         ",
"                                  M V 3.3.M Z H U m.F.~._.!.!.).      o o                           ",
"                                1 1 < < 1     H I ~ ~ x.W..XR.R./.                                  ",
"                O >           1 1 1 1 1 1     P P F l * ! {..XR.W.oX                                ",
"              . 4 z.M.M.C.' 1 1 1 1 1 1       U V.`.f.#.; ! {.[.D.R.XX                              ",
"              ) ' M.M.M.V.n.) 5 2 2           b.Z.H.y.m $ : ! E.[./.E./.                            ",
"                V.M.M.M.M.V.M.( Y `         C.n.R @...j i i - W ^..XW.T.[.                          ",
"                  M.M.M.M.M.M.V.V.V.N.N.M.N.x.I y u f s s s i $ / ]..XD.].XX                        ",
"                    M.M.M.M.M.M.M.N.M.M.M.B.I . O p s s s s s i $ ! ].).|..XXX                      ",
"                        M.M.M.M.M.M.M.N.M.6.v . O p d s s s s s & % S Q._.}.XXXX                    ",
"                                        4.-.+.m Z A h s s s s d & X % D G.|.XX XS                   ",
"                                        *.*.@.E P K h s s s s d & X o O W x.A.c., ; ;               ",
"                                        $.:.V K H H l s d s s s = O o X X O $ $ ; ; ; ;             ",
"                                                H H H A s s s s s y o # # % : ; ; ; ;               ",
"                                                    L L A s s s s = # O.%.c ; ; ; ;                 ",
"                                                          s s   s p g e.u.>.m 3 : ;                 ",
"                                                          d s     f x i.h.u.w.J 4                   ",
"                                                          s         x y.j.h.q.L ( '                 ",
"                                                                        p.j.q.U m.M.M.              ",
"                                                                                M.M.M.M.            ",
"                                                                                  V.V.M.            ",
"                                                                                  ( z.M.            ",
"                                                                                H G )               ",
"                                                                                                    "
};
