/* XPM */
static char *prl71641565249[] = {
/* columns rows colors chars-per-pixel */
"50 50 180 2 ",
"   c None",
".  c #0E001E",
"X  c #0F0021",
"o  c #130022",
"O  c #1A0225",
"+  c #1F0329",
"@  c #170B2B",
"#  c #1F112F",
"$  c #24032B",
"%  c #2C032D",
"&  c #2C0627",
"*  c #370C29",
"=  c #281028",
"-  c #301627",
";  c #2E0431",
":  c #320632",
">  c #340A32",
",  c #380A33",
"<  c #361938",
"1  c #2B2C2C",
"2  c #24272A",
"3  c #3B2D2A",
"4  c #3A2C27",
"5  c #32302B",
"6  c #2A2833",
"7  c #2F3031",
"8  c #373D3F",
"9  c #313739",
"0  c #4E0F0B",
"q  c #54140D",
"w  c #4B001A",
"e  c #5B2B1F",
"r  c #642D1E",
"t  c #682213",
"y  c #742916",
"u  c #782A15",
"i  c #792E19",
"p  c #772C18",
"a  c #7D311A",
"s  c #74311C",
"d  c #46092A",
"f  c #4B0A2B",
"g  c #460528",
"h  c #530624",
"j  c #560B28",
"k  c #560A27",
"l  c #541D2F",
"z  c #430A30",
"x  c #411233",
"c  c #541F30",
"v  c #601934",
"b  c #671F27",
"n  c #422E27",
"m  c #5C2829",
"M  c #45312E",
"N  c #503A2B",
"B  c #423C31",
"V  c #602D23",
"C  c #6B3727",
"Z  c #63223F",
"A  c #703034",
"S  c #5C412F",
"D  c #464233",
"F  c #735332",
"G  c #71613C",
"H  c #393442",
"J  c #353B45",
"K  c #6A2741",
"L  c #6A2841",
"P  c #3D474B",
"I  c #3F4B4E",
"U  c #304770",
"Y  c #434B4C",
"T  c #484D4B",
"R  c #56494A",
"E  c #404D50",
"W  c #465255",
"Q  c #495556",
"!  c #515658",
"~  c #6C485E",
"^  c #4F4A65",
"/  c #5B4973",
"(  c #5D5975",
")  c #6E4E6F",
"_  c #665874",
"`  c #5B696C",
"'  c #5E6D71",
"]  c #647176",
"[  c #67767B",
"{  c #6C797D",
"}  c #82341A",
"|  c #8B3E1C",
" . c #8E411B",
".. c #9B4B1B",
"X. c #A5501E",
"o. c #904D29",
"O. c #9D5327",
"+. c #9D5328",
"@. c #865434",
"#. c #955C33",
"$. c #A95A29",
"%. c #B45F24",
"&. c #B05F28",
"*. c #AF652C",
"=. c #B6652A",
"-. c #BC672B",
";. c #BE7332",
":. c #AE6C35",
">. c #C67733",
",. c #917647",
"<. c #B77442",
"1. c #C58039",
"2. c #D18238",
"3. c #BE8C4C",
"4. c #BE984B",
"5. c #BC855C",
"6. c #BC8256",
"7. c #C7984D",
"8. c #DA9541",
"9. c #DC9D45",
"0. c #C28A5E",
"q. c #F0A14D",
"w. c #EAA154",
"e. c #FCAE54",
"r. c #F1BE57",
"t. c #E3A74A",
"y. c #C69367",
"u. c #DCA164",
"i. c #EABB67",
"p. c #F8C558",
"a. c #727E87",
"s. c #9F7586",
"d. c #A67F8E",
"f. c #8B7FAF",
"g. c #77868B",
"h. c #7E818F",
"j. c #7E8E92",
"k. c #7C8197",
"l. c #8C829D",
"z. c #809196",
"x. c #849599",
"c. c #A98493",
"v. c #BCAF92",
"b. c #A4A89D",
"n. c #8F99A2",
"m. c #9794AA",
"M. c #8C80B1",
"N. c #948DB9",
"B. c #9D94BD",
"V. c #9B98BB",
"C. c #A495A9",
"Z. c #A9ABAE",
"A. c #DFB984",
"S. c #C4AA85",
"D. c #EAC790",
"F. c #F9D69A",
"G. c #E0CDA1",
"H. c #FCDDA0",
"J. c #FFE1A3",
"K. c #FFEBB3",
"L. c #A49DC4",
"P. c #A6A5C7",
"I. c #B0A9CA",
"U. c #BABFD3",
"Y. c #B6B4C4",
"T. c #C1B9D5",
"R. c #BDC3D6",
"E. c #C4C9CB",
"W. c #CBC5D6",
"Q. c #DBDADF",
"!. c #D7C4CA",
"~. c #F9ECD1",
"^. c #F6EBC1",
"/. c #DCD8E7",
"(. c #E8DFE3",
"). c #DEE2ED",
"_. c #EBE3E6",
"`. c #F3EDE4",
"'. c #FFFEFD",
"]. c #F5F5FA",
/* pixels */
"                                                                                                    ",
"                                                                                                    ",
"                                                                                                    ",
"                                                                                                    ",
"                                                                                                    ",
"                                                                                                    ",
"                                                                                                    ",
"                                                                                                    ",
"                                                                                                    ",
"                                                                                                    ",
"                                                                                                    ",
"                                  a a a a     1 2                                                   ",
"                              a a a a a a } 4 D ,.                                                  ",
"                          a a a a a a a a a m F t.                                                  ",
"                          i p a a a a a a a a  .$.                                                  ",
"                        } y q a a a a a a a a a }       I I                                         ",
"                        t 0 0 u a a a a a a a a a     7 J Y I                                       ",
"                      a | ....i a a a a a a a a a a 4 1 1 J I I                                     ",
"                      p =.e.q.$.} i a a a a a a a a n 1 1 7 P E J                                   ",
"                      u 5.H.A.2.X.} a a a a a a a s n 1 1 7 P P 6 o                                 ",
"                      u 0.S.< - *.%.i a a a a a s 3 1 1       @ o o                                 ",
"                      u 0.v.U b.D.w.%.a a } V 3 M _ ^                                               ",
"                      u 5.G.b.^.K.u.$.a i C R ^ ( V.                                                ",
"                        y.J.J.J.J.5.y i C R k.B.M.R.n.                                              ",
"                          H.F.D.F.6.u C Y [ E./.M.U.]                                               ",
"                              r >.-.C Y I { E./.M.U.]     > : : : : >                               ",
"                               .%.%.@.I I Q Z./.M./._ & : : : : : : : :                             ",
"                            =.8.2.:.S 8 I I l.T.W.].) % : : : : : : : :                             ",
"                  . o .     >.4.4.G 2 5 H H / L.].~.) % : : : : : : : : :                           ",
"                  # # # @   7.B 7 7 5 5 , < / L.~.i.A ; : : : : : : : : :                           ",
"                  g.a.g.! 7 8 5 1 2 N o.x l.V.V.E.<.m ; : : : : : : : : : :                         ",
"                  j.j.x.' 9 1 1 1 1   m , m.P.N.Y.L & O O + : > : > : : : :                         ",
"                  j.j.[ ' ! 7 1     : : z C.P.B.W.Z & $ O o + $ + $ : : : : :                       ",
"                    j.` [ { 1     : ; % j C.P.L.(.Z g * ; O o o X O $ ; : : :                       ",
"                      j.j.j.        $ O f C.P.I.(.K h d > ; O o o O = , , : :     z.] W             ",
"                                  O o o O m.).].(.K h j f : ; O & b +.$.c : < Q g.j.j.[ Y           ",
"                                  +.m o o Z.'.'._.L h j j f f f g b =.9.7.0.,.! g.z.                ",
"                                &.=.+.V = Q.!.c.d.l k j j j j j j   >.r.p.p.  Q                     ",
"                                &.&.$.#.    c.w h k k j j j j j       p.r.                          ",
"                                &.*.@.E         k k k k j j k                                       ",
"                                  R T I             j j j j j j                                     ",
"                                  I I I                     j j j j                                 ",
"                                I I I                         j j                                   ",
"                                E I I                                                               ",
"                                I I Y                                                               ",
"                              Y E I I                                                               ",
"                                                                                                    ",
"                                                                                                    ",
"                                                                                                    ",
"                                                                                                    "
};
