/* XPM */
static char *prl81641565250[] = {
/* columns rows colors chars-per-pixel */
"50 50 158 2 ",
"   c None",
".  c #040019",
"X  c #1F001F",
"o  c #170425",
"O  c #27002A",
"+  c #2E012E",
"@  c #2B0424",
"#  c #30022F",
"$  c #360424",
"%  c #2C0934",
"&  c #320532",
"*  c #350B35",
"=  c #261930",
"-  c #3A143C",
";  c #351437",
":  c #272729",
">  c #2B2B2B",
",  c #2A2429",
"<  c #2E2B30",
"1  c #383733",
"2  c #450705",
"3  c #480A07",
"4  c #490C09",
"5  c #5B190F",
"6  c #5D1C12",
"7  c #671E0E",
"8  c #621E11",
"9  c #63281D",
"0  c #732A17",
"q  c #7A2F19",
"w  c #7A2F17",
"e  c #7A3315",
"r  c #7D311A",
"t  c #4E0626",
"y  c #570A27",
"u  c #560B28",
"i  c #580B28",
"p  c #560725",
"a  c #411C31",
"s  c #641A2C",
"d  c #492020",
"f  c #4C2738",
"g  c #7B2D28",
"h  c #6B3829",
"j  c #64392E",
"k  c #743420",
"l  c #763934",
"z  c #594538",
"x  c #5E5137",
"c  c #6A483E",
"v  c #7E4834",
"b  c #665637",
"n  c #64553B",
"m  c #2C2541",
"M  c #392D47",
"N  c #353848",
"B  c #2F3A5E",
"V  c #431A43",
"C  c #4A234A",
"Z  c #472B4D",
"A  c #432447",
"S  c #443E46",
"D  c #5E3649",
"F  c #4B3352",
"G  c #503053",
"H  c #65394D",
"J  c #3F4B4E",
"K  c #3D474A",
"L  c #40464E",
"P  c #414A4D",
"I  c #594C41",
"U  c #414E51",
"Y  c #5F4356",
"T  c #465256",
"R  c #53585D",
"E  c #725356",
"W  c #66644F",
"Q  c #6C6950",
"!  c #565E60",
"~  c #576063",
"^  c #5A666B",
"/  c #5B6878",
"(  c #66606A",
")  c #606672",
"_  c #667579",
"`  c #6B747D",
"'  c #667679",
"]  c #77757F",
"[  c #81331B",
"{  c #A9531F",
"}  c #894020",
"|  c #82472E",
" . c #9B4C23",
".. c #904521",
"X. c #824C36",
"o. c #844F38",
"O. c #8D4735",
"+. c #A75423",
"@. c #AD5822",
"#. c #A15D2C",
"$. c #B65E21",
"%. c #BF7838",
"&. c #A27559",
"*. c #876B74",
"=. c #A87D62",
"-. c #CA863B",
";. c #E98B2E",
":. c #E3862E",
">. c #EA8C30",
",. c #EB9D4A",
"<. c #DEA94E",
"1. c #DCAE53",
"2. c #DEB155",
"3. c #EFBB55",
"4. c #F0BE58",
"5. c #E2B073",
"6. c #F0B471",
"7. c #F3C260",
"8. c #6F7F83",
"9. c #717682",
"0. c #767F89",
"q. c #747C86",
"w. c #6F818B",
"e. c #76848B",
"r. c #78828B",
"t. c #7E8E93",
"y. c #7F9094",
"u. c #9B869C",
"i. c #819296",
"p. c #839599",
"a. c #949C90",
"s. c #968EA8",
"d. c #9992AB",
"f. c #A294A8",
"g. c #9CA3B1",
"h. c #B2A1B2",
"j. c #DEC698",
"k. c #E8CF9C",
"l. c #F6CF91",
"z. c #FAD698",
"x. c #D3CCAF",
"c. c #EDD0BD",
"v. c #F8E3B9",
"b. c #BCBCC1",
"n. c #C6BAC6",
"m. c #CCCCD2",
"M. c #C4CFDF",
"N. c #D1C8D1",
"B. c #F4E2CE",
"V. c #CAD4E2",
"C. c #D6DDE9",
"Z. c #D5D9E4",
"A. c #E7E2E7",
"S. c #EAE6EA",
"D. c #E7EDF5",
"F. c #EFF3F7",
"G. c #FCFDFD",
"H. c #F4F5F8",
/* pixels */
"                                                                                                    ",
"                                                                                                    ",
"                                                                                                    ",
"                                                                                                    ",
"                                                                                                    ",
"                                                                                                    ",
"                                                                                                    ",
"                                                                                                    ",
"                                                                                                    ",
"                                                                                                    ",
"                                                                                                    ",
"                                                                                                    ",
"                                                                                                    ",
"                                                                                                    ",
"                                                                                                    ",
"                                      r r r r r r r                                                 ",
"                                r [ 0 8 q [ q q [ q r                                               ",
"                          >     r 0 5 4 5 w [ q q [ r r                                             ",
"                        > 1 b   [ 9 5 e e q q q [ q r r                                             ",
"                          b <.} 0 5 e :.;.+.[ [ q [ [ r r                                           ",
"                              r 7 2 e ;.;.:.@.q r r q [ r r                                         ",
"                              r 5 2 | 5.j d 9 q r q [ q r r                                         ",
"                              r 5 2 o.k.B / &.{ [ q q [ q [                                         ",
"                              q 5 2 X.k.t.x.6.@.r [ [ k h h                                         ",
"                              r 6 2 o.z.z.,.@.q r r r z T J                                         ",
"                              r 6 3 v l.,.+.[ r r r z ^ ` J J                                       ",
"                                0 5 6 v e w r r [  .I / t.' T                                       ",
"                                  8 2   2 0 r [  .-.n ^ p.y.' b.                                    ",
"                                            q ..-.3.b U ' 8.8.m.H.                                  ",
"                                t.t.          #.3.1.x : 1 K K g.D.n.C                               ",
"                                t.t.t.t.        2.z > > < < ; d.V.Z.N.C +                           ",
"                                t.t.t.t.t.y.y.a.  > : > > , % s.V.C.A.C + &                         ",
"                                  y.t.t.t.t.t.t.e.~ ! ! ! R ; s.C.F.S.C # & &                       ",
"                                    t.t.t.t.t.t.t.y.y.y.i.r.- f.H.H.h.V & & & #                     ",
"                                      t.t.t.t.t.t.t.t.y.t.` G n.G.h.* & & & * -                     ",
"                                          t.t.t.t.t.t.i.) M N.H.f.a & & & & Z q.                    ",
"                                                e.N m c =.n.H.u.V & & & # F 9.y.                    ",
"                                                Y o . E c.G.v.H @ & & # F 9.i.t.                    ",
"                                                t @ o *.B.v.7.E % # & Z 9.y.t.t.                    ",
"                                                u u y g %.3.2.Q M - A 0.t.t.t.t.                    ",
"                                                u u y y O.1.W J ^ 0.q.t.t.t.t.                      ",
"                                                  u u u s l = N _ i.i.t.t.t.t.                      ",
"                                                    i u y t $ a ( y.t.t.t.t.                        ",
"                                                      u u y u p H 9.i.t.t.                          ",
"                                                        i i i u u D r.t.                            ",
"                                                          i u u f P T                               ",
"                                                                S J J J                             ",
"                                                                J J J J                             ",
"                                                                  J J J                             ",
"                                                                                                    "
};
