/* XPM */
static char *prr11641565250[] = {
/* columns rows colors chars-per-pixel */
"50 50 181 2 ",
"   c None",
".  c #0D001D",
"X  c #380912",
"o  c #0C0021",
"O  c #120022",
"+  c #1B0324",
"@  c #1F022A",
"#  c #1A0C2E",
"$  c #1F112F",
"%  c #250125",
"&  c #25042C",
"*  c #2D012D",
"=  c #38072B",
"-  c #201A28",
";  c #3E1E2A",
":  c #2F0230",
">  c #320632",
",  c #340A34",
"<  c #360E38",
"1  c #291F3A",
"2  c #3A133D",
"3  c #371436",
"4  c #2C2C2C",
"5  c #252629",
"6  c #3C322C",
"7  c #2A253A",
"8  c #2E2F37",
"9  c #35233D",
"0  c #392235",
"q  c #373D3F",
"w  c #35303E",
"e  c #4E0F0A",
"r  c #4F110A",
"t  c #51120B",
"y  c #5D180D",
"u  c #651D0E",
"i  c #621D12",
"p  c #5F2119",
"a  c #692313",
"s  c #662013",
"d  c #702716",
"f  c #732B16",
"g  c #7A2E19",
"h  c #772D19",
"j  c #7D311A",
"k  c #7B341A",
"l  c #440726",
"z  c #540321",
"x  c #550A27",
"c  c #550C29",
"v  c #5B1729",
"b  c #4A1D35",
"n  c #571C34",
"m  c #4C2725",
"M  c #47382C",
"N  c #4A2D3C",
"B  c #4C2638",
"V  c #423C31",
"C  c #592B25",
"Z  c #693728",
"A  c #7E3B22",
"S  c #763521",
"D  c #6A3B37",
"F  c #534934",
"G  c #7F4126",
"H  c #634C3D",
"J  c #665839",
"K  c #382A45",
"L  c #3A3942",
"P  c #4A2548",
"I  c #5F374A",
"U  c #493F5B",
"Y  c #533D5E",
"T  c #602B42",
"R  c #623047",
"E  c #3C4449",
"W  c #3F4B4E",
"Q  c #4C4B45",
"!  c #414B4E",
"~  c #464446",
"^  c #55574E",
"/  c #434C52",
"(  c #4A4854",
")  c #53425D",
"_  c #475154",
"`  c #535B5D",
"'  c #5F625D",
"]  c #7C724D",
"[  c #4E5C62",
"{  c #455E7E",
"}  c #6E4F6E",
"|  c #725472",
" . c #4F6062",
".. c #536265",
"X. c #5A696D",
"o. c #5E6F76",
"O. c #606A6D",
"+. c #79716E",
"@. c #6D6D7A",
"#. c #606E72",
"$. c #627075",
"%. c #6D7A7E",
"&. c #73797F",
"*. c #736A76",
"=. c #82341A",
"-. c #87381A",
";. c #883E22",
":. c #923E26",
">. c #8D401F",
",. c #9A481D",
"<. c #8A4E28",
"1. c #964E24",
"2. c #984B23",
"3. c #9B5529",
"4. c #8D5531",
"5. c #A35A2A",
"6. c #A85525",
"7. c #B15D26",
"8. c #BE6621",
"9. c #BE6E2C",
"0. c #AA6032",
"q. c #B67639",
"w. c #C87931",
"e. c #C36A25",
"r. c #8D7046",
"t. c #897367",
"y. c #C68139",
"u. c #DA8A39",
"i. c #998653",
"p. c #AF8144",
"a. c #BC974B",
"s. c #988C6E",
"d. c #96907B",
"f. c #D89144",
"g. c #C59C4C",
"h. c #E29940",
"j. c #CEA359",
"k. c #DCB257",
"l. c #E6A94B",
"z. c #F2BE56",
"x. c #E9B05A",
"c. c #D9A467",
"v. c #EFAF65",
"b. c #FCBC6C",
"n. c #E8B274",
"m. c #F6C157",
"M. c #F5C359",
"N. c #5A7794",
"B. c #7D6E8A",
"V. c #6E7680",
"C. c #727D85",
"Z. c #8A7F99",
"A. c #75838A",
"S. c #7A8B8F",
"D. c #778087",
"F. c #7C8A90",
"G. c #7F9195",
"H. c #8B918B",
"J. c #88879B",
"K. c #9B899E",
"L. c #809196",
"P. c #849699",
"I. c #B9A382",
"U. c #A8A693",
"Y. c #918BA2",
"T. c #A7B3BE",
"R. c #CEBA8D",
"E. c #C7BC9C",
"W. c #DCC89C",
"Q. c #FAC781",
"!. c #E3C898",
"~. c #FCD99B",
"^. c #CCC2A3",
"/. c #D9CFAF",
"(. c #F9DBA3",
"). c #FFE3A5",
"_. c #FFE3A8",
"`. c #C0C6D6",
"'. c #CAD2E1",
"]. c #D7DDE7",
"[. c #FBFBFC",
/* pixels */
"                                                                                                    ",
"                                                                                                    ",
"                                                                                                    ",
"                                                                                                    ",
"                                                                                                    ",
"                                                                                                    ",
"                                                                                                    ",
"                                                                                                    ",
"                                                                                                    ",
"                                                                                                    ",
"                                                                                                    ",
"                                                                                                    ",
"                                                  j j j j =.                                        ",
"                                              j j j j j g d a h                                     ",
"                                          j j j j j j j a r t d                                     ",
"                                          j j j j j j a t r t d k                                   ",
"                                        j j j j j j h 2.e.8.8.f i                                   ",
"                                        j j j j j j 6.f.b.b.b.A u j                                 ",
"                                        j j j j h s 1.c._.!.c.D u j                                 ",
"                                      j j j j =.k 0 # t.).W.K X a j                                 ",
"                                      j j j g ,.f./.N.H.).!.{ ; u j   4 4                           ",
"                                      j j j g -.0.(.W.W.).~.E.H y 3.z.a.F 5                         ",
"                                      =.g h g g ;.v.~.).).~.b.A y 1.f.m.J                           ",
"                                    m Z 3.2.=.g =.e.v.Q.Q.v.u.j i >.7.                              ",
"                                  4 4 V g.w.3.S S =.9.u.w.5.5.>.=.                                  ",
"                                4 4 4 4 V a.u.4.~ S H ^ Q 6 6 <.    O O                             ",
"                              L.%._ 4 5 4 a.h.4.( +.I.R.s.4 4 M M $ O . w                           ",
"                            S.o.S.` L C.W ] r.H / X.U.^.d.4 4 4 4 4 7 7 E W                         ",
"                          P.F...$.O.*.J.( L W .... .o.A.$.4 4 4 4 q _ W W W                         ",
"                          C.C.G.X.J.J.3 > : Y C.C.H...Q     4 4 q W W W W W                         ",
"                        $ $ 1 C.T.B.b > > > < 2 T j.q.3.      E W W W W W W                         ",
"                          o O 1 Y P : > > > : : > D 5.:.B W W ! W W W W ! W                         ",
"                        U o O + & > > > > > > > > & m v v N ! W W W W W W                           ",
"                    ].'.J.K @ : > > > > > > > > & O o % l x U E W W W                               ",
"                  [.[.].`.Z., > > > > > > > > & O O O + = v                                         ",
"                  [.[.[.Y.2 > > > > > , > > & O O O o C 5.5.                                        ",
"                    | } P > > > : , : > > : = l l w H 9.l.l.                                        ",
"                  % * * > > > > , : , : > * b N N ! p.l.M.z.                                        ",
"                  > > > > > > > : , : : > P ( ...._ i.k.z.z.                                        ",
"                  > > > > > > > , : , , 2 @.L.F.%._ E i.m.m.                                        ",
"                    > > > > > > > > 2 / V.F.G.*.n                                                   ",
"                    > > > > > > : l B W I R R T                                                     ",
"                  E K < > > > > >   n B x z z                                                       ",
"                ! W ! 9 > > > >       x x                                                           ",
"              W W W !       > >                                                                     ",
"            ! W W W                                                                                 ",
"            W W W                                                                                   ",
"            W W W                                                                                   ",
"              W W W                                                                                 ",
"                                                                                                    "
};
