/* XPM */
static char *prr21641565250[] = {
/* columns rows colors chars-per-pixel */
"50 50 169 2 ",
"   c None",
".  c #0D001D",
"X  c #0E0022",
"o  c #120022",
"O  c #1B0125",
"+  c #1D0228",
"@  c #23032B",
"#  c #2C022E",
"$  c #260324",
"%  c #340625",
"&  c #30032F",
"*  c #390A2A",
"=  c #25152E",
"-  c #371422",
";  c #2E0531",
":  c #320632",
">  c #340B35",
",  c #3A113B",
"<  c #2B2B2B",
"1  c #28272C",
"2  c #342D2A",
"3  c #37352D",
"4  c #2E2E37",
"5  c #35233D",
"6  c #2E3234",
"7  c #323435",
"8  c #393D3E",
"9  c #5E1C0D",
"0  c #4F1C19",
"q  c #591D17",
"w  c #6C2513",
"e  c #7B2F19",
"r  c #752915",
"t  c #6D3018",
"y  c #74311D",
"u  c #7D311A",
"i  c #7B381A",
"p  c #450927",
"a  c #44092D",
"s  c #4E0A2A",
"d  c #560B28",
"f  c #580B28",
"g  c #570A27",
"h  c #441E23",
"j  c #5E1C2C",
"k  c #4D1A32",
"l  c #45372C",
"z  c #482D3B",
"x  c #532C35",
"c  c #543F3F",
"v  c #613E27",
"b  c #793925",
"n  c #554C36",
"m  c #5C533C",
"M  c #6D4835",
"N  c #7C5131",
"B  c #2C2B4A",
"V  c #392C42",
"C  c #3A3043",
"Z  c #383654",
"A  c #421C45",
"S  c #423649",
"D  c #4A3953",
"F  c #3A4549",
"G  c #3F4B4E",
"H  c #3F4E55",
"J  c #434648",
"K  c #424C4E",
"L  c #484D4F",
"P  c #56504A",
"I  c #4A4A5D",
"U  c #47465A",
"Y  c #4C5A5D",
"T  c #495556",
"R  c #694C44",
"E  c #7C4F40",
"W  c #615B4D",
"Q  c #785D57",
"!  c #6E6B51",
"~  c #76644A",
"^  c #5A4C65",
"/  c #515367",
"(  c #5D6B6F",
")  c #546165",
"_  c #5F6F72",
"`  c #616A6D",
"'  c #626C71",
"]  c #657276",
"[  c #68767B",
"{  c #69777B",
"}  c #82341B",
"|  c #893C1D",
" . c #86381A",
".. c #843D20",
"X. c #98451D",
"o. c #894121",
"O. c #9C4D22",
"+. c #9E552F",
"@. c #8F5834",
"#. c #A25126",
"$. c #8C733E",
"%. c #AB602E",
"&. c #BD682A",
"*. c #A16130",
"=. c #C16722",
"-. c #D47A2C",
";. c #C47B38",
":. c #D67F33",
">. c #80584A",
",. c #9E6547",
"<. c #BD7942",
"1. c #82756F",
"2. c #DD822D",
"3. c #CC8A3E",
"4. c #AB8543",
"5. c #B28847",
"6. c #AF9555",
"7. c #9A8562",
"8. c #CD9D4B",
"9. c #D69140",
"0. c #E0994C",
"q. c #CEA855",
"w. c #D5A651",
"e. c #E2A74B",
"r. c #EDAB5F",
"t. c #F2BF57",
"y. c #D99E64",
"u. c #C49C74",
"i. c #C49766",
"p. c #E6AA62",
"a. c #F4BF7A",
"s. c #F5C157",
"d. c #F6C258",
"f. c #FFCA7C",
"g. c #5D768C",
"h. c #7C6A88",
"j. c #6E7E81",
"k. c #82718E",
"l. c #867894",
"z. c #77878C",
"x. c #79898E",
"c. c #7E8E93",
"v. c #7F9196",
"b. c #83898A",
"n. c #8D829C",
"m. c #819296",
"M. c #8C9693",
"N. c #83949A",
"B. c #978399",
"V. c #9FA398",
"C. c #C2A885",
"Z. c #FBC981",
"A. c #FFD086",
"S. c #E7CE9D",
"D. c #E8CB97",
"F. c #ECD09C",
"G. c #C0C8BC",
"H. c #FCDDA1",
"J. c #F4D9A2",
"K. c #FFE3A4",
"L. c #FFE5A8",
"P. c #AEB5C2",
"I. c #B7B4C5",
"U. c #BEC4D5",
"Y. c #C9D2E1",
"T. c #CBD5E4",
"R. c #D6DCE7",
"E. c #DBE1EB",
"W. c #FBFBFC",
/* pixels */
"                                                                                                    ",
"                                                                                                    ",
"                                                                                                    ",
"                                                                                                    ",
"                                                                                                    ",
"                                                                                                    ",
"                                                                                                    ",
"                                                                                                    ",
"                                                                                                    ",
"                                                                                                    ",
"                                                                                                    ",
"                                                                                                    ",
"                                                    u u u u u u }                                   ",
"                                                  u u u u u e r w w                                 ",
"                                                u u u u u u | w 9 w i l 7                           ",
"                                              u u u u u u | -.2.2.=.o.8.m                           ",
"                                            u u u u e e X.:.a.Z.A.y...                              ",
"                                          e u u u u e q 0 @.D.L.C.>.e                               ",
"                                        u e e i u u X.E Z B D.K.1.= u                               ",
"                                        y | |  .u u =.f.G.g.S.H.V./ u                               ",
"                                      2 2 5.3.O.u u } &.r.S.J.H.J.u.i                               ",
"                                    < < < n 5.3.O.} e  .<.H.K.L.f.<.- X                             ",
"                                  ' L < < 1 n 4.3.M b r +.r.7.i.&.b X X                             ",
"                              { x.N.[ < < < 1 P 6.T R b O.0.~ N i 0 - = 4                           ",
"                            z.Y ] m.] 6 8 7 8 G K K ] Q ,.F.S.W v O.b J G                           ",
"                            c.z./ Y     P.( F G K K T ( b.M.M.L 2 3   G G G                         ",
"                          N.m.N.[     Y.Y.[ F Y { z.T T Y J F 7 < 6 G G G K                         ",
"                        I I U U     Y.U.k.D 5 S ^ ^ S 5 c $.3 1 < 7 G G G G                         ",
"                        . . . .   R.U.n., # : : & & : @ x 5.  1 < 7 H G G                           ",
"                          o o   T.U.n.> : : : : : : : @ o O p                                       ",
"                              W.R.k., ; : : : : : : + o o o O p                                     ",
"                            W.E.k.A # : : : : : ; O o o o o X $                                     ",
"                          I.B.h.A # : : : : : : a % O X X X X h N                                   ",
"                        l.h.& & : : : : : ; : a f f % $ $ $ - *.-.&.                                ",
"                      : : > : : : ; : : ; + % d d d d d d j %.e.d.s.                                ",
"                      : : : : : : : : ; O @ a d d d g g k P w.s.s.d.                                ",
"                      : : : : : ; : ; + @ ; a f d d   z S K ! q.s.s.                                ",
"                      : : : : : : ; @ @ : a s d d d     _ ( H   d.                                  ",
"                      5 > : : : : @ + : * d f d d     v.m.N.                                        ",
"                    G G C > : :         d d     d   v.c.c.                                          ",
"                  G K G G C :           d           c.c.c.                                          ",
"                G G G G                             m.{ Y G                                         ",
"              G G G G                                 ( F                                           ",
"              G G G                                                                                 ",
"                G                                                                                   ",
"                                                                                                    ",
"                                                                                                    ",
"                                                                                                    ",
"                                                                                                    ",
"                                                                                                    "
};
