/* XPM */
static char *prr31641565250[] = {
/* columns rows colors chars-per-pixel */
"50 50 181 2 ",
"   c None",
".  c #00000D",
"X  c #0B001A",
"o  c #3E0E13",
"O  c #0C0021",
"+  c #120022",
"@  c #1C0323",
"#  c #1E0228",
"$  c #1F112F",
"%  c #240423",
"&  c #220921",
"*  c #210329",
"=  c #2D012C",
"-  c #2D0E23",
";  c #3E0726",
":  c #31042A",
">  c #2C1625",
",  c #381927",
"<  c #2F0530",
"1  c #2E0A32",
"2  c #320632",
"3  c #330934",
"4  c #330C39",
"5  c #231C34",
"6  c #371C3B",
"7  c #2C2C2C",
"8  c #252628",
"9  c #332A2C",
"0  c #3C3129",
"q  c #3B3C3D",
"w  c #323335",
"e  c #480B09",
"r  c #52120C",
"t  c #5D160B",
"y  c #631B0E",
"u  c #601B10",
"i  c #512B1D",
"p  c #6D2514",
"a  c #6B2F1D",
"s  c #642316",
"d  c #712915",
"f  c #752D1A",
"g  c #7A2E1A",
"h  c #7D311A",
"j  c #7A361D",
"k  c #440826",
"l  c #4A0C27",
"z  c #490627",
"x  c #560B28",
"c  c #590B28",
"v  c #5C162B",
"b  c #681928",
"n  c #442D27",
"m  c #4A2E25",
"M  c #5F2B25",
"N  c #46313F",
"B  c #5E3633",
"V  c #683426",
"C  c #773D25",
"Z  c #534934",
"A  c #65412A",
"S  c #764130",
"D  c #6E5034",
"F  c #362F44",
"G  c #393D47",
"H  c #451F48",
"J  c #583A5F",
"K  c #513157",
"L  c #453543",
"P  c #5E3F64",
"I  c #3B4243",
"U  c #3F4B4E",
"Y  c #36496C",
"T  c #424B4E",
"R  c #4A4D48",
"E  c #534840",
"W  c #4E554F",
"Q  c #54524A",
"!  c #434E51",
"~  c #4A4C51",
"^  c #52415D",
"/  c #44535A",
"(  c #5F5B56",
")  c #7A5D48",
"_  c #686652",
"`  c #4E5D62",
"'  c #41587D",
"]  c #615A6E",
"[  c #62486B",
"{  c #536266",
"}  c #5C6A6F",
"|  c #666A79",
" . c #677579",
".. c #767568",
"X. c #82331A",
"o. c #8A3B1A",
"O. c #823F26",
"+. c #8A401E",
"@. c #9C4B18",
"#. c #95441D",
"$. c #8B4122",
"%. c #8B4C2E",
"&. c #934621",
"*. c #994E25",
"=. c #8E5530",
"-. c #9A5329",
";. c #AB5826",
":. c #B15E29",
">. c #A15C34",
",. c #84633F",
"<. c #976637",
"1. c #AE612B",
"2. c #B36129",
"3. c #B36124",
"4. c #CA7A38",
"5. c #906A4F",
"6. c #947763",
"7. c #7C807F",
"8. c #C9883D",
"9. c #D38A3D",
"0. c #938052",
"q. c #AF8E4A",
"w. c #BB974C",
"e. c #AD9353",
"r. c #DA9541",
"t. c #D39141",
"y. c #DEA249",
"u. c #C2A256",
"i. c #D8A653",
"p. c #F7A952",
"a. c #F8AA52",
"s. c #EBBB57",
"d. c #EAB755",
"f. c #F3BD56",
"g. c #E2A74A",
"h. c #CFAA7B",
"j. c #EAAE66",
"k. c #E8B473",
"l. c #F4C157",
"z. c #F5C359",
"x. c #6D6981",
"c. c #7C6B89",
"v. c #776382",
"b. c #717D86",
"n. c #748385",
"m. c #748389",
"M. c #7A8A8E",
"N. c #7E8E93",
"B. c #848A87",
"V. c #8B928B",
"C. c #898E98",
"Z. c #809096",
"A. c #839398",
"S. c #BBAD88",
"D. c #A1A59A",
"F. c #B9B09B",
"G. c #9E99B0",
"H. c #9598AC",
"J. c #AAA6BA",
"K. c #B4B9A9",
"L. c #C5B99A",
"P. c #EABF85",
"I. c #E2C28F",
"U. c #FFCC83",
"Y. c #E9C791",
"T. c #E3C897",
"R. c #FDDC9D",
"E. c #CDC5A6",
"W. c #FFDFA1",
"Q. c #F0D5A0",
"!. c #FFE3A4",
"~. c #FAE6B8",
"^. c #B1B4C6",
"/. c #B3B5C8",
"(. c #B4BAC9",
"). c #C8D1DF",
"_. c #C2CADA",
"`. c #C9D3E2",
"'. c #E2E5ED",
"]. c #E7EBF1",
"[. c #FCFCFC",
/* pixels */
"                                                                                                    ",
"                                                                                                    ",
"                                                                                                    ",
"                                                                                                    ",
"                                                                                                    ",
"                                                                                                    ",
"                                                                                                    ",
"                                                                                                    ",
"                                                                                                    ",
"                                                                                                    ",
"                                                                                                    ",
"                                                                                                    ",
"                                                                                                    ",
"                                                                                                    ",
"                                                      h h h h h h h f f                             ",
"                                                  h h h h h h h h d r r f                           ",
"                                                h h h h h h h h s r e e p                           ",
"                                              h h h h h h h h g o.@.@.@.d p                         ",
"                                            X.h h h h h h h h #.4.p.p.p.j u X.                      ",
"                                            a f h h h h h h f 3.j.W.R.I.S y X.                      ",
"                                      N.N.T 7 i h h h h h f - & 6.!.Y.N o s X.  w 7                 ",
"                                    { N.N.R 8 9 0 n a g #.4.F.' B.!.T.Y , y -.s.w.Z 8               ",
"                                   .}  .m.R 8 7 7 7 C o.o.4.~.K.L.!.Q.F.B t *.t.f.D                 ",
"                                Z.A.m.{ m.G 8 7 7 7 <.:.X.$.k.R.!.!.!.k.%.p #.:.                    ",
"                              b.b.n.m.Z.  q G q 7 7 w.r.*.O.4.k.Y.Y.Y.9.o.+.2.                      ",
"                              $ $ * 5     ^.(.C.7 9 w.t.=.R Q B s V $.> & -                         ",
"                              X X .   `.).v.P ^ R q.8.<.( 7.S.h.) i &.@ O 5                         ",
"                              x.x.H./.c.c.H = 1 L 0.5.Z U  .F.E...0 A > 5 G U                       ",
"                              `.^.G.c.= = 2 2 2 3 F / ` ` {  . ./ 7 7 7 I U U                       ",
"                        [.]._./.J = 2 2 2 2 2 2 2 3 ] Z.V.7.! w 7 7 7 7 I T U U                     ",
"                    [.[.'.).^.K 3 2 2 2 2 2 2 2 2 2 4 5.i.>.M 9 7 7 7 7 I U U U                     ",
"                  [.[.[.].J.P 2 2 2 2 2 2 2 2 2 2 # # > S ;.b         7 I U U U                     ",
"                  [.[.  J.[ = 2 2 2 2 2 2 2 2 < * + O O & M v c         I U U                       ",
"                        = = 2 2 2 2 2 2 2 2 < * + + + + + + ; z x                                   ",
"            U U U     2 2 2 2 2 2 2 2 3 3 2 # + + @ + + + + + l b                                   ",
"            U U U U U 6 2 2 2 2 2 2 2 2 2 # + + @ k % + + + + C 2.2.                                ",
"                U U U L 6 2 2 2 2 2 2 < # + + @ k x l k : @ C 8.g.y.                                ",
"                    U   6 2 2 2 2 2 2 2 @   % ; x x c c z 9 9.f.z.z.                                ",
"                          2 2 2 2 2 2 2     c c x x x c     u.d.z.l.                                ",
"                            2 2 2 2 2     x x x x x x       ~ e.f.f.                                ",
"                              3 3 2         x x x           U W _                                   ",
"                                                            ! } m.                                  ",
"                                                              m.N.N.                                ",
"                                                              N.N.A.                                ",
"                                                              N.N.m.                                ",
"                                                              A. .U U                               ",
"                                                                                                    ",
"                                                                                                    ",
"                                                                                                    ",
"                                                                                                    "
};
