/* XPM */
static char *prr51641565250[] = {
/* columns rows colors chars-per-pixel */
"50 50 188 2 ",
"   c None",
".  c #0C001D",
"X  c #0E0021",
"o  c #130122",
"O  c #1C0124",
"+  c #1A072D",
"@  c #1D112D",
"#  c #230A22",
"$  c #2D002C",
"%  c #26072B",
"&  c #330525",
"*  c #3D092E",
"=  c #3F0726",
"-  c #2A0030",
";  c #320632",
":  c #340A35",
">  c #201231",
",  c #3D143D",
"<  c #26292B",
"1  c #2B2C2C",
"2  c #282727",
"3  c #3B322C",
"4  c #2E243F",
"5  c #313435",
"6  c #34393A",
"7  c #54150E",
"8  c #5D1B10",
"9  c #480C0A",
"0  c #601D10",
"q  c #772C18",
"w  c #7A2F1A",
"e  c #772B17",
"r  c #7D311A",
"t  c #7F3016",
"y  c #410626",
"u  c #4F0627",
"i  c #42072D",
"p  c #4E0B28",
"a  c #570927",
"s  c #560B28",
"d  c #580B28",
"f  c #520627",
"g  c #54162B",
"h  c #511B31",
"j  c #611B29",
"k  c #512C21",
"l  c #492A3B",
"z  c #4B372D",
"x  c #6A212E",
"c  c #692E2D",
"v  c #673728",
"b  c #7D3422",
"n  c #613935",
"m  c #703D31",
"M  c #54493B",
"N  c #6C4B2F",
"B  c #7C4032",
"V  c #785537",
"C  c #372B40",
"Z  c #373844",
"A  c #463542",
"S  c #542F54",
"D  c #59385C",
"F  c #4A2A4A",
"G  c #3B4449",
"H  c #3F4B4E",
"J  c #3B4446",
"K  c #394A50",
"L  c #404B4E",
"P  c #444E52",
"I  c #4C4555",
"U  c #49575A",
"Y  c #545B5E",
"T  c #56484F",
"R  c #73515A",
"E  c #695542",
"W  c #594566",
"Q  c #4F5E60",
"!  c #664667",
"~  c #605F6F",
"^  c #7E566B",
"/  c #755775",
"(  c #5A6568",
")  c #5E6871",
"_  c #796E6C",
"`  c #636873",
"'  c #677379",
"]  c #81341A",
"[  c #83391A",
"{  c #8B3B1B",
"}  c #9F4D1D",
"|  c #93421C",
" . c #A9551E",
".. c #8E4729",
"X. c #994921",
"o. c #974821",
"O. c #8F5329",
"+. c #9B5329",
"@. c #9A5E38",
"#. c #85543D",
"$. c #AB5926",
"%. c #A35928",
"&. c #AC5620",
"*. c #B35F26",
"=. c #B05F28",
"-. c #AC622C",
";. c #B36128",
":. c #B36027",
">. c #B87439",
",. c #C26A21",
"<. c #D77D2D",
"1. c #D07930",
"2. c #C87C35",
"3. c #927943",
"4. c #A06E49",
"5. c #A97E43",
"6. c #A57553",
"7. c #BB7847",
"8. c #805B74",
"9. c #8F7B6D",
"0. c #D5863B",
"q. c #BE9E54",
"w. c #B38A63",
"e. c #CF9345",
"r. c #CE904A",
"t. c #E99B49",
"y. c #E1A34C",
"u. c #E9AC4B",
"i. c #E6AA54",
"p. c #F2BF57",
"a. c #CBA275",
"s. c #CDA578",
"d. c #D6AB78",
"f. c #E4BF77",
"g. c #F5BB72",
"h. c #F9C659",
"j. c #F6C358",
"k. c #FFC671",
"l. c #5A7592",
"z. c #6F7E85",
"x. c #767A89",
"c. c #87758D",
"v. c #8274A8",
"b. c #6F8086",
"n. c #7A848A",
"m. c #76868B",
"M. c #7E8E93",
"N. c #7F9095",
"B. c #858E8D",
"V. c #819196",
"C. c #899998",
"Z. c #949890",
"A. c #9A849A",
"S. c #9891BA",
"D. c #A19ABF",
"F. c #9BACB3",
"G. c #A6A5B9",
"H. c #EED285",
"J. c #FAD79A",
"K. c #E1C798",
"L. c #D2C6A3",
"P. c #E2CFA2",
"I. c #FCDFA6",
"U. c #FFEAA9",
"Y. c #FFEAB5",
"T. c #A49EC1",
"R. c #ABA4C5",
"E. c #A8A6C2",
"W. c #B9B2CE",
"Q. c #B8B6C8",
"!. c #B9B6D1",
"~. c #BAC7D1",
"^. c #C6C0CB",
"/. c #C2C5D8",
"(. c #C4CBDC",
"). c #C8C7DA",
"_. c #C8D0DF",
"`. c #DAD5CE",
"'. c #E0DDC3",
"]. c #DEDBE4",
"[. c #D3D6E4",
"{. c #E4DFE5",
"}. c #E5E5EB",
"|. c #ECEFF4",
" X c #F0EDF0",
".X c #F6F6F9",
"XX c #FCFCFC",
"oX c #F2F1F5",
/* pixels */
"                                                                                                    ",
"                                                                                                    ",
"                                                                                                    ",
"                                                                                                    ",
"                                                                                                    ",
"                                                                                                    ",
"                                                                                                    ",
"                                                                                                    ",
"                                                                                                    ",
"                                                                                                    ",
"                                                                                                    ",
"                                                                                                    ",
"                                                                                                    ",
"                                                                                                    ",
"                                                      r r r r w e q                                 ",
"                                                    r r r r r 8 7 0 r                               ",
"                                                  r r r r r r  .:.} 0 q                             ",
"                                    1 3 %.;.;.  r r r r r ] *.i.k.r.7 t                             ",
"                                  1 1 3 %.:.$.o.r r r r [ X.=.w.K.s.7 q                             ",
"                                1 1 1 3 O.;.o.w r r r ] $.0.l + 9.s.7 q                             ",
"                              H 5 1 1 1 3 O.} r ] w e &.t.J.'.l.Z.s.7 q                             ",
"                              H G 5 1 1 1 z v t w ] w { 7.U.Y.L.P.s.7 q                             ",
"                            H H P J 6 1 1 < k r w ] ] e +.g.J.U.U.s.7 q                             ",
"                            H H H H     < Z n ] r w w ] { 1.g.d.s.6.8 w                             ",
"                            G P H         v.^ b r ] r r r { 0.t 9 8 r                               ",
"                          o @ G         (.S.v.^ b w r r r [ ;.                                      ",
"                        o o o @       oXS.E.W.D._ T M 3 N e.y.2.                                    ",
"                          o o       /.!.!._.~.F.M.U G Z M 3.3.V n                                   ",
"                                  /.R.R.XXQ.c.~ ) P H     < < < 1 1                                 ",
"                                oXW.R..X{.! * l F P P     3 1 1 1 1 1           > o                 ",
"                              .XR.T.[.}.D : #.f.'.M.Q       1 1 1 1 1 1 ' V.M.M.x.C .               ",
"                            /.T./.].G.! : $ m y.H.C.b.          2 2 5 ) m.M.M.M.M.' )               ",
"                          [.R.W..X^.W $ i i g ..@.R c.C.        ` Y ( M.V.M.M.M.M.V.                ",
"                        XX].T.oX[./ & * d d d u f y I b.M.M.M.M.V.V.N.M.M.M.M.M.N.                  ",
"                      XXXX}.(.].! $ * s d s s d u O X I B.M.M.M.M.M.M.M.M.M.M.M.                    ",
"                    XXXX}.(.Q.D % & s d d s s d p O X n 6.M.M.M.M.M.M.M.M.M.                        ",
"                  S  XXX|.E.D + X & d s d d d h A Z N X.-.4.                                        ",
"              ; - h c.A.x.W O o X & d s s d a h H H E @.;.*.                                        ",
"            ; ; ; ; $ $ O . o o O y s s s a g l H H K V :.;.                                        ",
"              ; ; ; ; ; % # # o = s s s s s l H H H                                                 ",
"                ; ; ; ; c %...# y d s s s A L H                                                     ",
"                ; : Z m >.u.e.g u s   s s                                                           ",
"                  C H 5.u.h.i.x f     s s                                                           ",
"                ' Q P q.h.j.i.x         d                                                           ",
"              M.M.m.U q.h.j.                                                                        ",
"            M.M.M.M.                                                                                ",
"            M.M.V.                                                                                  ",
"            M.z.(                                                                                   ",
"              ) H H                                                                                 ",
"                                                                                                    "
};
