/* XPM */
static char *prr61641565250[] = {
/* columns rows colors chars-per-pixel */
"50 50 183 2 ",
"   c None",
".  c #0E001E",
"X  c #130022",
"o  c #1B0126",
"O  c #180A28",
"+  c #1D132D",
"@  c #22022D",
"#  c #2A042E",
"$  c #2B0526",
"%  c #3B062D",
"&  c #3A0226",
"*  c #391625",
"=  c #320632",
"-  c #350A35",
";  c #3A0730",
":  c #2D1E3B",
">  c #33183A",
",  c #281228",
"<  c #26292B",
"1  c #2C2C2B",
"2  c #22252A",
"3  c #32312D",
"4  c #2D2D3C",
"5  c #30223C",
"6  c #2E3030",
"7  c #35383C",
"8  c #572D1E",
"9  c #742511",
"0  c #7B2D16",
"q  c #7A2F19",
"w  c #762A17",
"e  c #7D3017",
"r  c #7D311A",
"t  c #77341F",
"y  c #450728",
"u  c #520523",
"i  c #550926",
"p  c #590C26",
"a  c #550B28",
"s  c #580B28",
"d  c #4D1728",
"f  c #621A35",
"g  c #462023",
"h  c #4F3C2E",
"j  c #5C3C29",
"k  c #622D2D",
"l  c #6D322C",
"z  c #653E27",
"x  c #763420",
"c  c #7E392C",
"v  c #7D3727",
"b  c #7E3932",
"n  c #564837",
"m  c #5D5137",
"M  c #784428",
"N  c #7B4B35",
"B  c #69563C",
"V  c #624736",
"C  c #76623B",
"Z  c #382643",
"A  c #333050",
"S  c #2C2948",
"D  c #441B43",
"F  c #592640",
"G  c #4A3F4A",
"H  c #6B2943",
"J  c #723341",
"K  c #733E58",
"L  c #3A4244",
"P  c #3B4549",
"I  c #3F4B4E",
"U  c #364145",
"Y  c #3C4950",
"T  c #404D4F",
"R  c #4D4A46",
"E  c #504641",
"W  c #474856",
"Q  c #4C5658",
"!  c #535B5E",
"~  c #7C4141",
"^  c #785252",
"/  c #4A5960",
"(  c #5C5562",
")  c #785976",
"_  c #59676B",
"`  c #6C7A7F",
"'  c #657479",
"]  c #82351B",
"[  c #893B1D",
"{  c #A44F1E",
"}  c #A5501E",
"|  c #85492A",
" . c #9A4B20",
".. c #954E27",
"X. c #8A5029",
"o. c #91522B",
"O. c #9F5125",
"+. c #895230",
"@. c #945533",
"#. c #A75523",
"$. c #B05F28",
"%. c #A05B37",
"&. c #AE6029",
"*. c #B3632A",
"=. c #B7662A",
"-. c #B9723F",
";. c #CC7229",
":. c #804E4F",
">. c #846F40",
",. c #8C7844",
"<. c #A36341",
"1. c #A77B58",
"2. c #835B6C",
"3. c #957B69",
"4. c #DE822E",
"5. c #D5913F",
"6. c #CB863B",
"7. c #988451",
"8. c #BC865D",
"9. c #B49149",
"0. c #D59845",
"q. c #E29143",
"w. c #F2BF57",
"e. c #E6AF50",
"r. c #DBAD63",
"t. c #D5A776",
"y. c #E9AC67",
"u. c #F7C357",
"i. c #F3C158",
"p. c #FBC85A",
"a. c #F7C47E",
"s. c #5E768D",
"d. c #7E6995",
"f. c #8E6C83",
"g. c #847A8E",
"h. c #9E7484",
"j. c #806B96",
"k. c #A47F8E",
"l. c #857AAB",
"z. c #77868B",
"x. c #7A8A8F",
"c. c #7E8E93",
"v. c #819296",
"b. c #90989F",
"n. c #B08C99",
"m. c #9F92AF",
"M. c #8E85B3",
"N. c #928AB7",
"B. c #9C93B3",
"V. c #8C97A5",
"C. c #A099AF",
"Z. c #A199BB",
"A. c #B8A8B6",
"S. c #A4AAAA",
"D. c #C0AFBF",
"F. c #B6C0BC",
"G. c #DFC292",
"H. c #FFCC82",
"J. c #EBCF9D",
"K. c #E5CC9B",
"L. c #F7D89E",
"P. c #FADDA4",
"I. c #FFE4A6",
"U. c #FFE4A8",
"Y. c #F6ECBF",
"T. c #A39CC2",
"R. c #A7A5C5",
"E. c #B5B4CF",
"W. c #B6B4C4",
"Q. c #B5B5D1",
"!. c #C6BAC5",
"~. c #C0BAD5",
"^. c #BEC5D8",
"/. c #C4CAC7",
"(. c #C4C1DA",
"). c #CBD1D9",
"_. c #FFF2C2",
"`. c #DFDCE6",
"'. c #E1DFE3",
"]. c #E4E6EA",
"[. c #EAE8E9",
"{. c #E6EBF2",
"}. c white",
/* pixels */
"                                                                                                    ",
"                                                                                                    ",
"                                                                                                    ",
"                                                                                                    ",
"                                                                                                    ",
"                                                                                                    ",
"                                                                                                    ",
"                                                                                                    ",
"                                                                                                    ",
"                                                                                                    ",
"                                                  1 1                                               ",
"                                                  9.n 2                                             ",
"                                                  p.,.  ] r r r ] q                                 ",
"                                                  0.  0 r r r r q q q                               ",
"                                                  r r r r r r r ] ] [ [ ]                           ",
"                                      1 1 X.*.#.r r r r r r r r q #.4.;...q                         ",
"                                    L 1 1 o.X.8 e r r r r r r q } q.a.H.@.9                         ",
"                                  T L 1 1 j M V 8 r r r r r q {  .N 7.P.<.9                         ",
"                                I T P 6 1 < j N R x q r r ]  .q.1.A S K.<.9                         ",
"                              I I I T I 1 1 1 W d.c 0 r r [ ;.a.Y./.s.K.<.9                         ",
"                          X O P T I       1 < W j.v ] q r r [ t.P.P.K.L.%.9                         ",
"                        X X X + 4               d.v 0 ] r r r @.t.I.I.P.<.9                         ",
"                          X X                   B.2.c q r r r w -.y.8.8.o.q                         ",
"                                              ].(.l.~ 0 r q ] q #.;.] q q                           ",
"                                            {.{.Q.N.^ ] e e t r #.=.*.[                             ",
"                                          P S.`.N.Q.b.^ e e n +.6.e.e.*.        X X                 ",
"                                        - = g.~.d.b.' Q n E   n m B C 0.      . X . X               ",
"                                      = = ) m.T.R.^.! 5 S Z     < < 3 >.m   A W W W W               ",
"                                    = = - !.(.N.(._.^ & % %       1 1 < < 6 R v.v.v.                ",
"                                  = = = = !.~.N./.r.b u a a ;       1 1 < 7 _ z.c.                  ",
"                                = = = = - m.T.N.E.J p a i a a ;       1 1 ! ' ! c.                  ",
"                              = = = = D A.T.Q.W.^ a i a a a $ o @         ` v.s.                    ",
"                            = = - # o Z [.T.E.D.i i a s y $ X g l l         c.                      ",
"                          = = # # o . : '.E.N.f.s s a a * X * O.=.*.                                ",
"                        = = = X . X . : '.].f.u a a a y # , o.&.$.$.                                ",
"                  = = = = # o X X . . 5 '.}.k.u a a       P R o.*.$.                                ",
"                  = = = o * v M d y y f [.n.H i s       T I I ^                                     ",
"                  = = = d N 5.5.k & p f h.H u a       I I I I                                       ",
"                    > > N 5.u.i.V $ s i u i a         I I I                                         ",
"                    Q I 7.u.w.w.      s i i         T I I                                           ",
"                  c.z./ 7.u.w.      a a             I I T                                           ",
"                v.c.c.'                             I I T                                           ",
"              _ ' c.c.                                T                                             ",
"              P Q c.                                                                                ",
"                I                                                                                   ",
"                                                                                                    ",
"                                                                                                    ",
"                                                                                                    ",
"                                                                                                    ",
"                                                                                                    "
};
