/* XPM */
static char *prr71641565251[] = {
/* columns rows colors chars-per-pixel */
"50 50 180 2 ",
"   c None",
".  c #0E001E",
"X  c #0F0021",
"o  c #130022",
"O  c #1A0225",
"+  c #1F0329",
"@  c #170B2B",
"#  c #1F112F",
"$  c #24032B",
"%  c #2C032D",
"&  c #2C0627",
"*  c #370C29",
"=  c #281028",
"-  c #301627",
";  c #2E0431",
":  c #320632",
">  c #340A32",
",  c #380A33",
"<  c #361938",
"1  c #2B2C2C",
"2  c #24272A",
"3  c #3B2D2A",
"4  c #3A2C27",
"5  c #32302B",
"6  c #2A2833",
"7  c #2F3031",
"8  c #373D3F",
"9  c #313739",
"0  c #4E0F0B",
"q  c #54140D",
"w  c #4B001A",
"e  c #5B2B1F",
"r  c #642D1E",
"t  c #682213",
"y  c #742916",
"u  c #782A15",
"i  c #792E19",
"p  c #772C18",
"a  c #7D311A",
"s  c #74311C",
"d  c #46092A",
"f  c #4B0A2B",
"g  c #460528",
"h  c #530624",
"j  c #560B28",
"k  c #560A27",
"l  c #541D2F",
"z  c #430A30",
"x  c #411233",
"c  c #541F30",
"v  c #601934",
"b  c #671F27",
"n  c #422E27",
"m  c #5C2829",
"M  c #45312E",
"N  c #503A2B",
"B  c #423C31",
"V  c #602D23",
"C  c #6B3727",
"Z  c #63223F",
"A  c #703034",
"S  c #5C412F",
"D  c #464233",
"F  c #735332",
"G  c #71613C",
"H  c #393442",
"J  c #353B45",
"K  c #6A2741",
"L  c #6A2841",
"P  c #3D474B",
"I  c #3F4B4E",
"U  c #304770",
"Y  c #434B4C",
"T  c #484D4B",
"R  c #56494A",
"E  c #404D50",
"W  c #465255",
"Q  c #495556",
"!  c #515658",
"~  c #6C485E",
"^  c #4F4A65",
"/  c #5B4973",
"(  c #5D5975",
")  c #6E4E6F",
"_  c #665874",
"`  c #5B696C",
"'  c #5E6D71",
"]  c #647176",
"[  c #67767B",
"{  c #6C797D",
"}  c #82341A",
"|  c #8B3E1C",
" . c #8E411B",
".. c #9B4B1B",
"X. c #A5501E",
"o. c #904D29",
"O. c #9D5327",
"+. c #9D5328",
"@. c #865434",
"#. c #955C33",
"$. c #A95A29",
"%. c #B45F24",
"&. c #B05F28",
"*. c #AF652C",
"=. c #B6652A",
"-. c #BC672B",
";. c #BE7332",
":. c #AE6C35",
">. c #C67733",
",. c #917647",
"<. c #B77442",
"1. c #C58039",
"2. c #D18238",
"3. c #BE8C4C",
"4. c #BE984B",
"5. c #BC855C",
"6. c #BC8256",
"7. c #C7984D",
"8. c #DA9541",
"9. c #DC9D45",
"0. c #C28A5E",
"q. c #F0A14D",
"w. c #EAA154",
"e. c #FCAE54",
"r. c #F1BE57",
"t. c #E3A74A",
"y. c #C69367",
"u. c #DCA164",
"i. c #EABB67",
"p. c #F8C558",
"a. c #727E87",
"s. c #9F7586",
"d. c #A67F8E",
"f. c #8B7FAF",
"g. c #77868B",
"h. c #7E818F",
"j. c #7E8E92",
"k. c #7C8197",
"l. c #8C829D",
"z. c #809196",
"x. c #849599",
"c. c #A98493",
"v. c #BCAF92",
"b. c #A4A89D",
"n. c #8F99A2",
"m. c #9794AA",
"M. c #8C80B1",
"N. c #948DB9",
"B. c #9D94BD",
"V. c #9B98BB",
"C. c #A495A9",
"Z. c #A9ABAE",
"A. c #DFB984",
"S. c #C4AA85",
"D. c #EAC790",
"F. c #F9D69A",
"G. c #E0CDA1",
"H. c #FCDDA0",
"J. c #FFE1A3",
"K. c #FFEBB3",
"L. c #A49DC4",
"P. c #A6A5C7",
"I. c #B0A9CA",
"U. c #BABFD3",
"Y. c #B6B4C4",
"T. c #C1B9D5",
"R. c #BDC3D6",
"E. c #C4C9CB",
"W. c #CBC5D6",
"Q. c #DBDADF",
"!. c #D7C4CA",
"~. c #F9ECD1",
"^. c #F6EBC1",
"/. c #DCD8E7",
"(. c #E8DFE3",
"). c #DEE2ED",
"_. c #EBE3E6",
"`. c #F3EDE4",
"'. c #FFFEFD",
"]. c #F5F5FA",
/* pixels */
"                                                                                                    ",
"                                                                                                    ",
"                                                                                                    ",
"                                                                                                    ",
"                                                                                                    ",
"                                                                                                    ",
"                                                                                                    ",
"                                                                                                    ",
"                                                                                                    ",
"                                                                                                    ",
"                                                                                                    ",
"                                                  2 1     a a a a                                   ",
"                                                  ,.D 4 } a a a a a a                               ",
"                                                  t.F m a a a a a a a a }                           ",
"                                                  $.| a a } a a a a a i i                           ",
"                                        I Y       } a a a i a a a a p q y }                         ",
"                                      I Y 8 7     a a a a a a a a a i 0 0 t                         ",
"                                    I I 8 1 1 4 a a a a a a a a a a a ....| a                       ",
"                                  J E P 7 1 1 n a a a a a a a a a } $.q.e.:.i                       ",
"                                X 6 P P 7 1 1 n s a a a a a a a } ..1.A.F.5.u                       ",
"                                o o @       1 1 3 p a i a a a i =.*.- < S.0.u                       ",
"                                              ^ _ M n V a a a %.w.D.b.U v.0.u                       ",
"                                                B.( ^ R C } a X.u.K.^.b.G.5.i                       ",
"                                              n.U.f.L.a.! C a u 0.J.J.F.J.y.                        ",
"                                              ] U.f./.E.a.Y C i 6.F.D.F.H.                          ",
"                              : : : : : >     ] U.f./.E.[ I T C =.>.r                               ",
"                            : : > : : : : : ; _ ).f./.Z.Q Y Y @.=.%. .                              ",
"                            : : : : : : : : $ ) ].T.T.k.P Y 8 N :.8.8.=.                            ",
"                          : : : : : : : : : % ~ ~.'.L./ H H 1 2 G 4.4.1.    . . o                   ",
"                          : : : : : : : : : ; A i.`.L./ < , 3 7 1 1 B 7.  @ # # #                   ",
"                        : > : : : : : : : : : l <.E.B.B.l.x o.N 1 1 1 B 5 ! g.a.g.                  ",
"                        : : : : : : > ; + O O * A Y.N.P.m., l   1 1 1 2 9 ' x.j.j.                  ",
"                      : : : : : $ $ $ + o + + & Z W.B.P.C.d : ;     1 7 ! ' [ j.j.                  ",
"                      : : : ; $ O o . o O % , g K (.L.L.C.j % : :     1 { { ` j.                    ",
"            W ] z.    > : , , = O o o O ; : d h Z (.I.P.C.f O $         j.j.j.                      ",
"          I ] j.j.g.Q < ; l +.$.b & O : : f j h L _.].).n.O . O O                                   ",
"                j.g.Q ,.3.7.9.-.b j d f f j j h L _.'.'.Z.o o m +.                                  ",
"                    !   p.p.r.;.  j j j j j j j l d.d.!./.= m +.=.&.                                ",
"                          r.r.      j j j j j j k h w c.    #.*.&.&.                                ",
"                                      j j j j j k k         Y @.&.&.                                ",
"                                    j j j j j j             I T R                                   ",
"                                j j j j                     I I I                                   ",
"                                  j j                         I I I                                 ",
"                                                              I I I                                 ",
"                                                              E Y I                                 ",
"                                                              I I I I                               ",
"                                                                                                    ",
"                                                                                                    ",
"                                                                                                    ",
"                                                                                                    "
};
