/* XPM */
static char *prr81641565251[] = {
/* columns rows colors chars-per-pixel */
"50 50 158 2 ",
"   c None",
".  c #040019",
"X  c #1F001F",
"o  c #170425",
"O  c #27002A",
"+  c #2E012E",
"@  c #2B0424",
"#  c #30022F",
"$  c #360424",
"%  c #2C0934",
"&  c #320532",
"*  c #350B35",
"=  c #261930",
"-  c #3A143C",
";  c #351437",
":  c #272729",
">  c #2B2B2B",
",  c #2A2429",
"<  c #2E2B30",
"1  c #383733",
"2  c #450705",
"3  c #480A07",
"4  c #490C09",
"5  c #5B190F",
"6  c #5D1C12",
"7  c #671E0E",
"8  c #621E11",
"9  c #63281D",
"0  c #732A17",
"q  c #7A2F19",
"w  c #7A2F17",
"e  c #7A3315",
"r  c #7D311A",
"t  c #4E0626",
"y  c #570A27",
"u  c #560B28",
"i  c #580B28",
"p  c #560725",
"a  c #411C31",
"s  c #641A2C",
"d  c #492020",
"f  c #4C2738",
"g  c #7B2D28",
"h  c #6B3829",
"j  c #64392E",
"k  c #743420",
"l  c #763934",
"z  c #594538",
"x  c #5E5137",
"c  c #6A483E",
"v  c #7E4834",
"b  c #665637",
"n  c #64553B",
"m  c #2C2541",
"M  c #392D47",
"N  c #353848",
"B  c #2F3A5E",
"V  c #431A43",
"C  c #4A234A",
"Z  c #472B4D",
"A  c #432447",
"S  c #443E46",
"D  c #5E3649",
"F  c #4B3352",
"G  c #503053",
"H  c #65394D",
"J  c #3F4B4E",
"K  c #3D474A",
"L  c #40464E",
"P  c #414A4D",
"I  c #594C41",
"U  c #414E51",
"Y  c #5F4356",
"T  c #465256",
"R  c #53585D",
"E  c #725356",
"W  c #66644F",
"Q  c #6C6950",
"!  c #565E60",
"~  c #576063",
"^  c #5A666B",
"/  c #5B6878",
"(  c #66606A",
")  c #606672",
"_  c #667579",
"`  c #6B747D",
"'  c #667679",
"]  c #77757F",
"[  c #81331B",
"{  c #A9531F",
"}  c #894020",
"|  c #82472E",
" . c #9B4C23",
".. c #904521",
"X. c #824C36",
"o. c #844F38",
"O. c #8D4735",
"+. c #A75423",
"@. c #AD5822",
"#. c #A15D2C",
"$. c #B65E21",
"%. c #BF7838",
"&. c #A27559",
"*. c #876B74",
"=. c #A87D62",
"-. c #CA863B",
";. c #E98B2E",
":. c #E3862E",
">. c #EA8C30",
",. c #EB9D4A",
"<. c #DEA94E",
"1. c #DCAE53",
"2. c #DEB155",
"3. c #EFBB55",
"4. c #F0BE58",
"5. c #E2B073",
"6. c #F0B471",
"7. c #F3C260",
"8. c #6F7F83",
"9. c #717682",
"0. c #767F89",
"q. c #747C86",
"w. c #6F818B",
"e. c #76848B",
"r. c #78828B",
"t. c #7E8E93",
"y. c #7F9094",
"u. c #9B869C",
"i. c #819296",
"p. c #839599",
"a. c #949C90",
"s. c #968EA8",
"d. c #9992AB",
"f. c #A294A8",
"g. c #9CA3B1",
"h. c #B2A1B2",
"j. c #DEC698",
"k. c #E8CF9C",
"l. c #F6CF91",
"z. c #FAD698",
"x. c #D3CCAF",
"c. c #EDD0BD",
"v. c #F8E3B9",
"b. c #BCBCC1",
"n. c #C6BAC6",
"m. c #CCCCD2",
"M. c #C4CFDF",
"N. c #D1C8D1",
"B. c #F4E2CE",
"V. c #CAD4E2",
"C. c #D6DDE9",
"Z. c #D5D9E4",
"A. c #E7E2E7",
"S. c #EAE6EA",
"D. c #E7EDF5",
"F. c #EFF3F7",
"G. c #FCFDFD",
"H. c #F4F5F8",
/* pixels */
"                                                                                                    ",
"                                                                                                    ",
"                                                                                                    ",
"                                                                                                    ",
"                                                                                                    ",
"                                                                                                    ",
"                                                                                                    ",
"                                                                                                    ",
"                                                                                                    ",
"                                                                                                    ",
"                                                                                                    ",
"                                                                                                    ",
"                                                                                                    ",
"                                                                                                    ",
"                                                                                                    ",
"                                                r r r r r r r                                       ",
"                                              r r r r r r q 6 0 [ q                                 ",
"                                            r r r r r r q 6 3 5 0 [     >                           ",
"                                            r r r r r r e e e 5 8 [   b 1 >                         ",
"                                          r r r r r r [ +.;.:.e 5 q } 1.b                           ",
"                                        r r r r q [ q +.:.;.;.e 3 8 r                               ",
"                                        r r r r r q q 9 d j 5.| 2 5 r                               ",
"                                        r [ r r r [ { &./ B k.X.2 5 r                               ",
"                                        h h q r r r $.6.x.t.k.X.2 5 r                               ",
"                                        J T z q r r q @.,.z.z.X.2 5 r                               ",
"                                      J J ` ^ z r r r [ +.,.l.X.2 5 r                               ",
"                                      T ' y./ I  .[ r r q r v 6 5 0                                 ",
"                                    b._ y.p.^ n -. .[ r 0 2   4 7                                   ",
"                                  G.m.w.8.' P b 3.-...q                                             ",
"                              C n.D.g.K K 1 : x 1.3.#.          t.t.                                ",
"                          # A N.Z.V.d.; > > > < z 2.        t.t.t.t.                                ",
"                        & + C A.C.M.d.* , > > : >   a.y.y.t.t.t.t.t.                                ",
"                      & & + C S.F.Z.s.- R R R R ~ 8.t.t.t.t.t.t.t.                                  ",
"                    & & & & V h.F.H.f.- e.p.i.i.i.i.t.t.t.t.i.t.                                    ",
"                    - * & & & * h.G.n.G ` t.i.t.t.t.t.t.t.t.i.                                      ",
"                    q.Z & & * & - f.G.N.M ) i.t.t.t.t.t.t.                                          ",
"                    i.9.F # & & + C u.H.n.=.I < N r.                                                ",
"                    t.i.` F & & & O H v.G.c.E . o Y                                                 ",
"                    t.t.i.9.Z & # % c 4.B.B.*.o @ t                                                 ",
"                    t.t.t.i.0.A - M Q 3.3.%.g t u u                                                 ",
"                      t.t.t.t.r.e.^ K W 1.O.y u u u                                                 ",
"                      t.t.t.t.t.y._ N = l s y u u                                                   ",
"                        t.t.t.t.y.( a $ t y u u                                                     ",
"                          t.t.t.] H y u y y u                                                       ",
"                            t.e.H y y u u u                                                         ",
"                              T P f y y u                                                           ",
"                            J J J L                                                                 ",
"                            J P P J                                                                 ",
"                            J J P                                                                   ",
"                                                                                                    "
};
