/* XPM */
static char *result[] = {
/* columns rows colors chars-per-pixel */
"50 50 167 2 ",
"   c #130022",
".  c #1C0224",
"X  c #1F162F",
"o  c #24032A",
"O  c #2B052F",
"+  c #360625",
"@  c #3D082F",
"#  c #360629",
"$  c #2E0530",
"%  c #320632",
"&  c #3A0730",
"*  c #340A34",
"=  c #341036",
"-  c #391B3C",
";  c #2D2D2D",
":  c #363C3E",
">  c #343738",
",  c #4D0F0A",
"<  c #4E100A",
"1  c #5C1A0F",
"2  c #441013",
"3  c #5D1C10",
"4  c #541E1D",
"5  c #621E11",
"6  c #692313",
"7  c #6D2915",
"8  c #672518",
"9  c #722A16",
"0  c #792E19",
"q  c #772C18",
"w  c #7D311A",
"e  c #74301C",
"r  c #43082D",
"t  c #4A092B",
"y  c #4E0A27",
"u  c #550B28",
"i  c #481B27",
"p  c #631A28",
"a  c #5A3023",
"s  c #5E2836",
"d  c #453831",
"f  c #652C2C",
"g  c #633125",
"h  c #6B3325",
"j  c #7B3429",
"k  c #633538",
"l  c #564C3A",
"z  c #694132",
"x  c #754B34",
"c  c #2B2541",
"v  c #3B314D",
"b  c #343944",
"n  c #3F3C51",
"m  c #461F46",
"M  c #442F4B",
"N  c #4F3156",
"B  c #533F5A",
"V  c #3A4245",
"C  c #3F4B4E",
"Z  c #3D474A",
"A  c #44494A",
"S  c #424F52",
"D  c #4C4D5F",
"F  c #584059",
"G  c #4A575A",
"H  c #5D525A",
"J  c #6F4C4C",
"K  c #7E4F41",
"L  c #625D4B",
"P  c #765948",
"I  c #674255",
"U  c #655152",
"Y  c #525E61",
"T  c #556165",
"R  c #59666A",
"E  c #5C696D",
"W  c #576468",
"Q  c #5F6D71",
"!  c #5F6572",
"~  c #726460",
"^  c #616F73",
"/  c #697578",
"(  c #637276",
")  c #853A1B",
"_  c #84371B",
"`  c #833528",
"'  c #9D4E1D",
"]  c #91421E",
"[  c #8A472A",
"{  c #9A4B22",
"}  c #8C542E",
"|  c #9F5B2B",
" . c #92503A",
".. c #9E5B3A",
"X. c #88533B",
"o. c #A95D2B",
"O. c #B05F28",
"+. c #9D633C",
"@. c #AD6E34",
"#. c #A9673C",
"$. c #B66D33",
"%. c #B9793A",
"&. c #C56D28",
"*. c #C27935",
"=. c #C47537",
"-. c #8A5B43",
";. c #816A4C",
":. c #CB873C",
">. c #CC8C3F",
",. c #9E8552",
"<. c #A28346",
"1. c #BF994C",
"2. c #B0825C",
"3. c #B69653",
"4. c #9E8E76",
"5. c #AD976C",
"6. c #AB8671",
"7. c #D99B45",
"8. c #DE9951",
"9. c #CEA44F",
"0. c #DDB156",
"q. c #D8A853",
"w. c #E7AF4F",
"e. c #F0A24D",
"r. c #EDA657",
"t. c #F2AA58",
"y. c #E8B553",
"u. c #F2BF57",
"i. c #CB9864",
"p. c #DBA668",
"a. c #F5B86D",
"s. c #F4B76C",
"d. c #E7BD76",
"f. c #F7C57F",
"g. c #55718C",
"h. c #776281",
"j. c #7C6B9C",
"k. c #748286",
"l. c #76868A",
"z. c #79898E",
"x. c #7E8E93",
"c. c #828D91",
"v. c #839194",
"b. c #998D99",
"n. c #B8B28E",
"m. c #AEAA96",
"M. c #A29FBA",
"N. c #B1BEB8",
"B. c #B4A5B4",
"V. c #C8A482",
"C. c #D4C39C",
"Z. c #EFD29D",
"A. c #F6D79D",
"S. c #FCDCA0",
"D. c #AFAFC3",
"F. c #B8BAD2",
"G. c #BFC6D8",
"H. c #C6C0CC",
"J. c #C3CBDB",
"K. c #C9D0DE",
"L. c #CDD4E1",
"P. c #D6DBE6",
"I. c #E2E2E9",
"U. c #EBEDF2",
"Y. c #FCFCFC",
"T. c #F7F7F8",
"R. c None",
/* pixels */
"R.R.R.R.R.R.R.R.R.R.R.R.R.R.R.R.R.R.R.R.R.R.R.R.R.R.R.R.R.R.R.R.R.R.R.R.R.R.R.R.R.R.R.R.R.R.R.R.R.R.",
"R.R.R.R.R.R.R.R.R.R.R.R.R.R.R.R.R.R.R.R.R.R.R.R.R.R.R.R.R.R.R.R.R.R.R.R.R.R.R.R.R.R.R.R.R.R.R.R.R.R.",
"R.R.R.R.R.R.R.R.R.R.R.R.R.R.R.R.R.R.R.R.R.R.R.R.R.R.R.R.R.R.R.R.R.R.R.R.R.R.R.R.R.R.R.R.R.R.R.R.R.R.",
"R.R.R.R.R.R.R.R.R.R.R.R.R.R.R.R.R.R.R.R.R.R.R.R.R.R.R.R.R.R.R.R.R.R.R.R.R.R.R.R.R.R.R.R.R.R.R.R.R.R.",
"R.R.R.R.R.R.R.R.R.R.R.R.R.R.R.R.R.R.R.R.R.R.R.R.R.R.R.R.R.R.R.R.R.R.R.R.R.R.R.R.R.R.R.R.R.R.R.R.R.R.",
"R.R.R.R.R.R.R.R.R.R.R.R.R.R.R.R.R.R.R.R.R.R.R.R.R.R.R.R.R.R.R.R.R.R.R.R.R.R.R.R.R.R.R.R.R.R.R.R.R.R.",
"R.R.R.R.R.R.R.R.R.R.R.R.R.R.R.R.R.R.R.R.R.R.R.R.R.R.R.R.R.R.R.R.R.R.R.R.R.R.R.R.R.R.R.R.R.R.R.R.R.R.",
"R.R.R.R.R.R.R.R.R.R.R.R.R.R.R.R.R.R.R.R.R.R.R.R.R.R.R.R.R.R.R.R.R.R.R.R.R.R.R.R.R.R.R.R.R.R.R.R.R.R.",
"R.R.R.R.R.R.R.R.R.R.R.R.R.R.R.R.R.R.R.R.R.R.R.R.R.R.R.R.R.R.R.R.R.R.R.R.R.R.R.R.R.R.R.R.R.R.R.R.R.R.",
"R.R.R.R.R.R.R.R.R.R.R.R.R.R.R.R.R.R.R.R.R.R.R.R.R.w w w w w w R.R.R.R.R.R.R.R.R.R.R.R.R.R.R.R.R.R.R.",
"R.R.R.R.R.R.R.R.R.R.R.R.R.R.R.R.R.R.R.R.R.R.R.w 0 1 0 w w w w w w R.R.R.R.R.R.R.R.R.R.R.R.R.R.R.R.R.",
"R.R.R.R.R.R.R.R.R.R.R.R.R.R.R.R.R.R.R.R.R.R.R.q 3 < 1 9 w w w w w R.R.R.R.R.R.R.R.R.R.R.R.R.R.R.R.R.",
"R.R.R.R.R.R.R.R.R.R.R.R.R.R.R.R.R.R.R.R.R.R.9 7 ' { { ) w w w w w w R.R.R.R.R.R.R.R.R.R.R.R.R.R.R.R.",
"R.R.R.R.R.R.R.R.R.R.R.R.R.R.R.R.R.R.R.R.R.7 6 3 | r.t.[ 4 8 w w w w R.R.R.R.R.R.R.R.R.R.R.R.R.R.R.R.",
"R.R.R.R.R.R.R.R.R.R.R.R.R.R.R.R.R.R.R.R.w 6 < 2 c Z.S.H v k w w w w R.R.R.R.R.R.R.R.R.R.R.R.R.R.R.R.",
"R.R.R.R.R.R.R.R.R.R.R.R.R.R.R.R.R.R.R.R.e 6 < i g.A.S.v.N.V.) w w w R.R.R.R.R.R.R.R.R.R.R.R.R.R.R.R.",
"R.R.R.R.R.R.R.R.R.R.R.R.R.R.R.R.R.R.; ; a 6 < h S.S.S.S.S.s.&.w w w R.R.R.R.R.R.R.R.R.R.R.R.R.R.R.R.",
"R.R.R.R.R.R.R.R.R.R.R.R.R.R.R.R.R.R.; <.@.6 < h S.S.S.S.S.i._ w w w R.R.R.R.R.R.R.R.R.R.R.R.R.R.R.R.",
"R.R.R.R.R.R.R.R.R.R.R.R.R.R.R.R.R.R.R.@.>.@.6 7 e.A.A.S.a.$.w w w w R.R.R.R.R.R.R.R.R.R.R.R.R.R.R.R.",
"R.R.R.R.R.R.R.R.R.R.R.R.R.R.R.R.R.R.R.R.%.:.@.7 ] } 7.t.=.] w w w R.R.R.R.R.R.R.R.R.R.R.R.R.R.R.R.R.",
"R.R.R.R.R.R.R.R.R.R.R.R.R.R.R.R.R.R.R.R.R.*.*.[ d U p.a.#.x P z { O.R.R.R.R.R.R.R.R.R.R.R.R.R.R.R.R.",
"R.R.R.R.R.R.R.R.R.R.R.R.R.R.R.R.R.R.R.R.R.O.o.P E m.A.f.2.~ Y U :.:.w.R.R.R.R.R.R.R.R.R.R.R.R.R.R.R.",
"R.R.R.R.R.R.R.R.R.R.R.R.R.R.R.R.R.R.R.R.O.o.x E v.C.C.i.4.Q b l u.u.1.L / x.x.R.R.R.R.R.R.R.R.R.R.R.",
"R.R.R.R.R.R.R.R.R.R.R.R.R.R.R.R.R.R.R.R.} z A x.x.x.x.v.l.E V l 9.9.d / x.z.k.R.R.R.R.R.R.R.R.R.R.R.",
"R.R.R.R.R.R.R.R.R.R.R.R.R.R.R.R.R.R.C C : ; A z.z.z.x.z.W C C V ; ; ; / x.Q S R.R.R.R.R.R.R.R.R.R.R.",
"R.R.R.R.R.R.R.R.R.R.R.R.R.R.R.R.R.R.C C C b ; : S S S S S C C R.R.R.R.x.R E x.x.R.R.R.R.R.R.R.R.R.R.",
"R.R.R.R.R.R.R.R.R.R.R.R.R.R.R.R.R.C C C C Z R.R.l.k.k.k.W A k.Y.R.R.R.G ( z.x.x.R.R.R.R.R.R.R.R.R.R.",
"R.R.R.R.R.R.R.R.R.R.R.R.R.R.R.R.R.X X b C R.R.x.x.x.x.x.k.E G c.J.R.R.R.l.x.x.x.R.R.R.R.R.R.R.R.R.R.",
"R.R.R.R.R.R.R.R.R.R.R.R.R.R.R.R.R.    X R.R.J 5.F I I F b.n.P M h.T.R.R.x.! n n R.R.R.R.R.R.R.R.R.R.",
"R.R.R.R.R.R.R.R.R.R.R.R.R.R.R.R.R.      R.% k %.@ u u t 6.f.+.= m T.Y.R.D c     R.R.R.R.R.R.R.R.R.R.",
"R.R.R.R.R.R.R.R.R.R.R.R.R.R.R.R.R.    R.% $ i j u u u u  .#.g o - B.I.P.v       R.R.R.R.R.R.R.R.R.R.",
"R.R.R.R.R.R.R.R.R.R.R.R.R.R.R.R.R.R.R.R.% o . # u u u u u r o   $ % M.J.J.R.    R.R.R.R.R.R.R.R.R.R.",
"R.R.R.R.R.R.R.R.R.R.R.R.R.R.R.R.R.R.R.R.% o   . u u u u u +       % j.F.K.L.R.R.R.R.R.R.R.R.R.R.R.R.",
"R.R.R.R.R.R.R.R.R.R.R.R.R.R.R.R.R.R.R.R.% o   o u u u u u +       * D.U.Y.Y.Y.R.R.R.R.R.R.R.R.R.R.R.",
"R.R.R.R.R.R.R.R.R.R.R.R.R.R.R.R.R.R.R.R.% O     . u u u u +       $ D.L.U.Y.Y.R.R.R.R.R.R.R.R.R.R.R.",
"R.R.R.R.R.R.R.R.R.R.R.R.R.R.R.R.R.R.R.R.[ [ g     y u t t y +     . N H.T.Y.Y.R.R.R.R.R.R.R.R.R.R.R.",
"R.R.R.R.R.R.R.R.R.R.R.R.R.R.R.R.R.R.R.R.7.7.%.a   u u @ & t p g #   $ b.R.R.R.R.R.R.R.R.R.R.R.R.R.R.",
"R.R.R.R.R.R.R.R.R.R.R.R.R.R.R.R.R.R.R.R.u.u.y.%.o t u t & r p ` j   $ R.R.R.R.R.R.R.R.R.R.R.R.R.R.R.",
"R.R.R.R.R.R.R.R.R.R.R.R.R.R.R.R.R.R.R.R.u.u.0.,.$ % t u @ s  ...%.o O R.R.R.R.R.R.R.R.R.R.R.R.R.R.R.",
"R.R.R.R.R.R.R.R.R.R.R.R.R.R.R.R.R.R.R.R.R.0.,.S R.* % r @ -.u.y.3.- % R.R.R.R.R.R.R.R.R.R.R.R.R.R.R.",
"R.R.R.R.R.R.R.R.R.R.R.R.R.R.R.R.R.R.R.R.R.R.S T x.R.* % $ K q.3.C C = R.R.R.R.R.R.R.R.R.R.R.R.R.R.R.",
"R.R.R.R.R.R.R.R.R.R.R.R.R.R.R.R.R.R.R.R.R.R.R.x.x.x.R.% * * - C C C = R.R.R.R.R.R.R.R.R.R.R.R.R.R.R.",
"R.R.R.R.R.R.R.R.R.R.R.R.R.R.R.R.R.R.R.R.R.R.R.R.x.x.R.R.% % - C C C R.R.R.R.R.R.R.R.R.R.R.R.R.R.R.R.",
"R.R.R.R.R.R.R.R.R.R.R.R.R.R.R.R.R.R.R.R.R.R.R.R.Y G R.R.R.R.R.R.C C A R.R.R.R.R.R.R.R.R.R.R.R.R.R.R.",
"R.R.R.R.R.R.R.R.R.R.R.R.R.R.R.R.R.R.R.R.R.R.R.R.R.R.R.R.R.R.R.R.R.C C R.R.R.R.R.R.R.R.R.R.R.R.R.R.R.",
"R.R.R.R.R.R.R.R.R.R.R.R.R.R.R.R.R.R.R.R.R.R.R.R.R.R.R.R.R.R.R.R.R.C C R.R.R.R.R.R.R.R.R.R.R.R.R.R.R.",
"R.R.R.R.R.R.R.R.R.R.R.R.R.R.R.R.R.R.R.R.R.R.R.R.R.R.R.R.R.R.R.R.R.C C R.R.R.R.R.R.R.R.R.R.R.R.R.R.R.",
"R.R.R.R.R.R.R.R.R.R.R.R.R.R.R.R.R.R.R.R.R.R.R.R.R.R.R.R.R.R.R.R.R.R.R.R.R.R.R.R.R.R.R.R.R.R.R.R.R.R.",
"R.R.R.R.R.R.R.R.R.R.R.R.R.R.R.R.R.R.R.R.R.R.R.R.R.R.R.R.R.R.R.R.R.R.R.R.R.R.R.R.R.R.R.R.R.R.R.R.R.R.",
"R.R.R.R.R.R.R.R.R.R.R.R.R.R.R.R.R.R.R.R.R.R.R.R.R.R.R.R.R.R.R.R.R.R.R.R.R.R.R.R.R.R.R.R.R.R.R.R.R.R."
};
