/* XPM */
static char *result[] = {
/* columns rows colors chars-per-pixel */
"50 50 164 2 ",
"   c #130022",
".  c #1C0224",
"X  c #1F162F",
"o  c #230429",
"O  c #2B052D",
"+  c #3F0726",
"@  c #3D082F",
"#  c #33062D",
"$  c #2F0530",
"%  c #320632",
"&  c #3A0730",
"*  c #320933",
"=  c #341036",
"-  c #3A1A3C",
";  c #2D2D2D",
":  c #363C3E",
">  c #343738",
",  c #4E100A",
"<  c #5C1A0F",
"1  c #441013",
"2  c #5D1C10",
"3  c #541E1D",
"4  c #6F2715",
"5  c #6D2915",
"6  c #67271C",
"7  c #732A16",
"8  c #792E19",
"9  c #7D311A",
"0  c #44082D",
"q  c #4A092C",
"w  c #560B28",
"e  c #481B27",
"r  c #601B27",
"t  c #5C2D25",
"y  c #453831",
"u  c #652C2C",
"i  c #633125",
"p  c #6C3425",
"a  c #793928",
"s  c #643438",
"d  c #564C3A",
"f  c #6B442A",
"g  c #694132",
"h  c #7D4838",
"j  c #78543A",
"k  c #2B2541",
"l  c #3B314D",
"z  c #343944",
"x  c #3F3C51",
"c  c #451F46",
"v  c #442F4B",
"b  c #4E2C52",
"n  c #533F5A",
"m  c #3A4245",
"M  c #3F4B4E",
"N  c #3D474A",
"B  c #44494A",
"V  c #424F52",
"C  c #4C4D5F",
"Z  c #584059",
"A  c #4D5A5D",
"S  c #485457",
"D  c #5D525A",
"F  c #6F4C4C",
"G  c #7E4F41",
"H  c #625D4B",
"J  c #765948",
"K  c #674255",
"L  c #675451",
"P  c #525E61",
"I  c #556165",
"U  c #59666A",
"Y  c #5C696D",
"T  c #576468",
"R  c #5F6D71",
"E  c #5F6572",
"W  c #726460",
"Q  c #616F73",
"!  c #7F647F",
"~  c #697578",
"^  c #637276",
"/  c #83361B",
"(  c #853A1B",
")  c #9D4E1D",
"_  c #91421E",
"`  c #87472A",
"'  c #994A22",
"]  c #8C542E",
"[  c #9F5B2B",
"{  c #9C5327",
"}  c #88533B",
"|  c #985539",
" . c #A25C2D",
".. c #B05F28",
"X. c #9D633C",
"o. c #AB6A39",
"O. c #B66D33",
"+. c #BA7C3C",
"@. c #B77538",
"#. c #C56D28",
"$. c #C27935",
"%. c #C47537",
"&. c #8A5B43",
"*. c #816A4C",
"=. c #CB873C",
"-. c #9E8552",
";. c #A28346",
":. c #BF994C",
">. c #B0825C",
",. c #B69653",
"<. c #9E8E76",
"1. c #AD976C",
"2. c #AB8671",
"3. c #D99B45",
"4. c #D49949",
"5. c #DE9951",
"6. c #CEA44F",
"7. c #D8A853",
"8. c #DDB156",
"9. c #F0A24D",
"0. c #EDA657",
"q. c #F2AA58",
"w. c #E8B553",
"e. c #F2BF57",
"r. c #CB9864",
"t. c #DBA668",
"y. c #F5B86D",
"u. c #F4B76C",
"i. c #E7BD76",
"p. c #F7C57F",
"a. c #55718C",
"s. c #776281",
"d. c #7C6B9C",
"f. c #748286",
"g. c #76868A",
"h. c #79898E",
"j. c #7E8E93",
"k. c #828D91",
"l. c #839194",
"z. c #969396",
"x. c #B8B28E",
"c. c #AEAA96",
"v. c #A29FBA",
"b. c #B4A5B4",
"n. c #B1BEB8",
"m. c #A8A4B9",
"M. c #C8A482",
"N. c #D4C39C",
"B. c #EFD29D",
"V. c #F6D79D",
"C. c #FCDCA0",
"Z. c #AEAEC2",
"A. c #BDB2C0",
"S. c #B8BAD2",
"D. c #BFC6D8",
"F. c #C3CBDB",
"G. c #C9D0DE",
"H. c #CDD4E1",
"J. c #D6DBE6",
"K. c #E2E2E9",
"L. c #EBEDF2",
"P. c #FCFCFC",
"I. c #F8F7F8",
"U. c None",
/* pixels */
"U.U.U.U.U.U.U.U.U.U.U.U.U.U.U.U.U.U.U.U.U.U.U.U.U.U.U.U.U.U.U.U.U.U.U.U.U.U.U.U.U.U.U.U.U.U.U.U.U.U.",
"U.U.U.U.U.U.U.U.U.U.U.U.U.U.U.U.U.U.U.U.U.U.U.U.U.U.U.U.U.U.U.U.U.U.U.U.U.U.U.U.U.U.U.U.U.U.U.U.U.U.",
"U.U.U.U.U.U.U.U.U.U.U.U.U.U.U.U.U.U.U.U.U.U.U.U.U.U.U.U.U.U.U.U.U.U.U.U.U.U.U.U.U.U.U.U.U.U.U.U.U.U.",
"U.U.U.U.U.U.U.U.U.U.U.U.U.U.U.U.U.U.U.U.U.U.U.U.U.U.U.U.U.U.U.U.U.U.U.U.U.U.U.U.U.U.U.U.U.U.U.U.U.U.",
"U.U.U.U.U.U.U.U.U.U.U.U.U.U.U.U.U.U.U.U.U.U.U.U.U.U.U.U.U.U.U.U.U.U.U.U.U.U.U.U.U.U.U.U.U.U.U.U.U.U.",
"U.U.U.U.U.U.U.U.U.U.U.U.U.U.U.U.U.U.U.U.U.U.U.U.U.U.U.U.U.U.U.U.U.U.U.U.U.U.U.U.U.U.U.U.U.U.U.U.U.U.",
"U.U.U.U.U.U.U.U.U.U.U.U.U.U.U.U.U.U.U.U.U.U.U.U.U.U.U.U.U.U.U.U.U.U.U.U.U.U.U.U.U.U.U.U.U.U.U.U.U.U.",
"U.U.U.U.U.U.U.U.U.U.U.U.U.U.U.U.U.U.U.U.U.U.U.U.U.U.U.U.U.U.U.U.U.U.U.U.U.U.U.U.U.U.U.U.U.U.U.U.U.U.",
"U.U.U.U.U.U.U.U.U.U.U.U.U.U.U.U.U.U.U.U.U.U.U.U.U.U.U.U.U.U.U.U.U.U.U.U.U.U.U.U.U.U.U.U.U.U.U.U.U.U.",
"U.U.U.U.U.U.U.U.U.U.U.U.U.U.U.U.U.U.U.U.U.U.U.U.U.9 9 9 9 9 9 9 U.U.U.U.U.U.U.U.U.U.U.U.U.U.U.U.U.U.",
"U.U.U.U.U.U.U.U.U.U.U.U.U.U.U.U.U.U.U.U.U.U.U.U.8 < 8 9 9 9 9 9 9 U.U.U.U.U.U.U.U.U.U.U.U.U.U.U.U.U.",
"U.U.U.U.U.U.U.U.U.U.U.U.U.U.U.U.U.U.U.U.U.U.U.7 2 , < 7 9 9 9 9 9 9 U.U.U.U.U.U.U.U.U.U.U.U.U.U.U.U.",
"U.U.U.U.U.U.U.U.U.U.U.U.U.U.U.U.U.U.U.U.U.U.7 4 ) ) { ( 9 9 9 9 9 9 U.U.U.U.U.U.U.U.U.U.U.U.U.U.U.U.",
"U.U.U.U.U.U.U.U.U.U.U.U.U.U.U.U.U.U.U.U.U.U.4 2 [ 0.q.` 3 6 9 9 9 9 U.U.U.U.U.U.U.U.U.U.U.U.U.U.U.U.",
"U.U.U.U.U.U.U.U.U.U.U.U.U.U.U.U.U.U.U.U.U.U.7 1 k B.C.D l s 9 9 9 9 9 U.U.U.U.U.U.U.U.U.U.U.U.U.U.U.",
"U.U.U.U.U.U.U.U.U.U.U.U.U.U.U.U.U.U.U.U.U.U.5 e a.B.C.k.n.M.( 9 9 9 9 U.U.U.U.U.U.U.U.U.U.U.U.U.U.U.",
"U.U.U.U.U.U.U.U.U.U.U.U.U.U.U.U.U.U.; ; U.U.5 p C.C.C.C.C.u.#.9 9 9 9 U.U.U.U.U.U.U.U.U.U.U.U.U.U.U.",
"U.U.U.U.U.U.U.U.U.U.U.U.U.U.U.U.U.U.; ;.U.U.7 p C.C.C.C.C.r.( 9 9 9 9 9 U.U.U.U.U.U.U.U.U.U.U.U.U.U.",
"U.U.U.U.U.U.U.U.U.U.U.U.U.U.U.U.U.U.U.O.=.=.5 5 9.V.C.C.u.O.9 9 9 9 9 9 U.U.U.U.U.U.U.U.U.U.U.U.U.U.",
"U.U.U.U.U.U.U.U.U.U.U.U.U.U.U.U.U.U.U.U.@.=.O.7 ( } 5.q.%._ 9 9 9 9 9 9 U.U.U.U.U.U.U.U.U.U.U.U.U.U.",
"U.U.U.U.U.U.U.U.U.U.U.U.U.U.U.U.U.U.U.U.U.$.+.` y L t.y.o.} F g ' ' / 9 U.U.U.U.U.U.U.U.U.U.U.U.U.U.",
"U.U.U.U.U.U.U.U.U.U.U.U.U.U.U.U.U.U.U.U.U... .j R c.V.p.>.W I d =.=.@.p L U.U.U.U.U.U.U.U.U.U.U.U.U.",
"U.U.U.U.U.U.U.U.U.U.U.U.U.U.U.U.U.U.U.U... .j Y l.N.N.r.<.R m d e.e.:.H ~ j.j.U.U.U.U.U.U.U.U.U.U.U.",
"U.U.U.U.U.U.U.U.U.U.U.U.U.U.U.U.U.U.U.U.] f B j.j.j.j.j.g.Y m d 6.6.y ~ j.h.f.U.U.U.U.U.U.U.U.U.U.U.",
"U.U.U.U.U.U.U.U.U.U.U.U.U.U.U.U.U.U.M M : ; B j.h.j.j.j.U M M N ; ; ; ~ j.Y V U.U.U.U.U.U.U.U.U.U.U.",
"U.U.U.U.U.U.U.U.U.U.U.U.U.U.U.U.U.U.M M N z ; > V V M M M M M U.U.U.U.j.U R j.j.U.U.U.U.U.U.U.U.U.U.",
"U.U.U.U.U.U.U.U.U.U.U.U.U.U.U.U.U.M M M N N U.U.s.g.g.g.I M f.P.U.U.U.A ^ h.j.j.U.U.U.U.U.U.U.U.U.U.",
"U.U.U.U.U.U.U.U.U.U.U.U.U.U.U.U.U.X X z M U.U.j.j.j.j.j.f.T P k.F.U.U.U.g.j.j.j.U.U.U.U.U.U.U.U.U.U.",
"U.U.U.U.U.U.U.U.U.U.U.U.U.U.U.U.U.    X U.U.F 1.Z K K Z z.x.J v s.I.U.U.j.E x x U.U.U.U.U.U.U.U.U.U.",
"U.U.U.U.U.U.U.U.U.U.U.U.U.U.U.U.U.      U.U.s +.0 w w q 2.p.X.* c I.P.U.C k     U.U.U.U.U.U.U.U.U.U.",
"U.U.U.U.U.U.U.U.U.U.U.U.U.U.U.U.U.    U.U.U.e a w w w w } o.i O - b.K.J.l       U.U.U.U.U.U.U.U.U.U.",
"U.U.U.U.U.U.U.U.U.U.U.U.U.U.U.U.U.U.U.U.U.U.. # w w w w w q O   O % v.F.F.U.    U.U.U.U.U.U.U.U.U.U.",
"U.U.U.U.U.U.U.U.U.U.U.U.U.U.U.U.U.U.U.U.U.U.  . w w w w w w 0     % d.S.G.H.U.U.U.U.U.U.U.U.U.U.U.U.",
"U.U.U.U.U.U.U.U.U.U.U.U.U.U.U.U.U.U.U.U.U.U.  . w w w w w w +     # Z.L.P.P.P.U.U.U.U.U.U.U.U.U.U.U.",
"U.U.U.U.U.U.U.U.U.U.U.U.U.U.U.U.U.U.U.U.U.U.    . w w w w w 0     $ c m.L.P.P.U.U.U.U.U.U.U.U.U.U.U.",
"U.U.U.U.U.U.U.U.U.U.U.U.U.U.U.U.U.U.U.U.U.{ i     w w q q w +     . $ b A.P.P.U.U.U.U.U.U.U.U.U.U.U.",
"U.U.U.U.U.U.U.U.U.U.U.U.U.U.U.U.U.U.U.U.3.3.+.i   w w @ & q r i     $ % s.U.U.U.U.U.U.U.U.U.U.U.U.U.",
"U.U.U.U.U.U.U.U.U.U.U.U.U.U.U.U.U.U.U.U.e.e.w.@.o 0 w & % s | a t   $ % U.U.U.U.U.U.U.U.U.U.U.U.U.U.",
"U.U.U.U.U.U.U.U.U.U.U.U.U.U.U.U.U.U.U.U.e.e.8.-.% % q & % &.4.| @.o $ * U.U.U.U.U.U.U.U.U.U.U.U.U.U.",
"U.U.U.U.U.U.U.U.U.U.U.U.U.U.U.U.U.U.U.U.U.8.-.V U.U.% % % &.e.w.,.- * $ U.U.U.U.U.U.U.U.U.U.U.U.U.U.",
"U.U.U.U.U.U.U.U.U.U.U.U.U.U.U.U.U.U.U.U.U.U.V I j.U.U.% * G 7.,.M M = * U.U.U.U.U.U.U.U.U.U.U.U.U.U.",
"U.U.U.U.U.U.U.U.U.U.U.U.U.U.U.U.U.U.U.U.U.U.U.j.j.j.U.U.* * - M M M = U.U.U.U.U.U.U.U.U.U.U.U.U.U.U.",
"U.U.U.U.U.U.U.U.U.U.U.U.U.U.U.U.U.U.U.U.U.U.U.U.j.j.U.U.U.U.U.M M M U.U.U.U.U.U.U.U.U.U.U.U.U.U.U.U.",
"U.U.U.U.U.U.U.U.U.U.U.U.U.U.U.U.U.U.U.U.U.U.U.U.A A U.U.U.U.U.U.M M B U.U.U.U.U.U.U.U.U.U.U.U.U.U.U.",
"U.U.U.U.U.U.U.U.U.U.U.U.U.U.U.U.U.U.U.U.U.U.U.U.U.U.U.U.U.U.U.U.U.M M U.U.U.U.U.U.U.U.U.U.U.U.U.U.U.",
"U.U.U.U.U.U.U.U.U.U.U.U.U.U.U.U.U.U.U.U.U.U.U.U.U.U.U.U.U.U.U.U.U.M M U.U.U.U.U.U.U.U.U.U.U.U.U.U.U.",
"U.U.U.U.U.U.U.U.U.U.U.U.U.U.U.U.U.U.U.U.U.U.U.U.U.U.U.U.U.U.U.U.U.M M U.U.U.U.U.U.U.U.U.U.U.U.U.U.U.",
"U.U.U.U.U.U.U.U.U.U.U.U.U.U.U.U.U.U.U.U.U.U.U.U.U.U.U.U.U.U.U.U.U.U.U.U.U.U.U.U.U.U.U.U.U.U.U.U.U.U.",
"U.U.U.U.U.U.U.U.U.U.U.U.U.U.U.U.U.U.U.U.U.U.U.U.U.U.U.U.U.U.U.U.U.U.U.U.U.U.U.U.U.U.U.U.U.U.U.U.U.U.",
"U.U.U.U.U.U.U.U.U.U.U.U.U.U.U.U.U.U.U.U.U.U.U.U.U.U.U.U.U.U.U.U.U.U.U.U.U.U.U.U.U.U.U.U.U.U.U.U.U.U."
};
