/* XPM */
static char *result[] = {
/* columns rows colors chars-per-pixel */
"50 50 167 2 ",
"   c #130022",
".  c #1C0224",
"X  c #1F162F",
"o  c #24032A",
"O  c #2B052F",
"+  c #360625",
"@  c #3D082F",
"#  c #360629",
"$  c #2E0530",
"%  c #320632",
"&  c #3A0730",
"*  c #340A34",
"=  c #341036",
"-  c #391B3C",
";  c #2D2D2D",
":  c #363C3E",
">  c #343738",
",  c #4D0F0A",
"<  c #4E100A",
"1  c #5C1A0F",
"2  c #441013",
"3  c #5D1C10",
"4  c #541E1D",
"5  c #621E11",
"6  c #692313",
"7  c #6D2915",
"8  c #672518",
"9  c #722A16",
"0  c #792E19",
"q  c #772C18",
"w  c #7D311A",
"e  c #74301C",
"r  c #43082D",
"t  c #4A092B",
"y  c #4E0A27",
"u  c #550B28",
"i  c #481B27",
"p  c #631A28",
"a  c #5A3023",
"s  c #5E2836",
"d  c #453831",
"f  c #652C2C",
"g  c #633125",
"h  c #6B3325",
"j  c #7B3429",
"k  c #633538",
"l  c #564C3A",
"z  c #694132",
"x  c #754B34",
"c  c #2B2541",
"v  c #3B314D",
"b  c #343944",
"n  c #3F3C51",
"m  c #461F46",
"M  c #442F4B",
"N  c #4F3156",
"B  c #533F5A",
"V  c #3A4245",
"C  c #3F4B4E",
"Z  c #3D474A",
"A  c #44494A",
"S  c #424F52",
"D  c #4C4D5F",
"F  c #584059",
"G  c #4A575A",
"H  c #5D525A",
"J  c #6F4C4C",
"K  c #7E4F41",
"L  c #625D4B",
"P  c #765948",
"I  c #674255",
"U  c #655152",
"Y  c #525E61",
"T  c #556165",
"R  c #59666A",
"E  c #5C696D",
"W  c #576468",
"Q  c #5F6D71",
"!  c #5F6572",
"~  c #726460",
"^  c #616F73",
"/  c #697578",
"(  c #637276",
")  c #853A1B",
"_  c #84371B",
"`  c #833528",
"'  c #9D4E1D",
"]  c #91421E",
"[  c #8A472A",
"{  c #9A4B22",
"}  c #8C542E",
"|  c #9F5B2B",
" . c #92503A",
".. c #9E5B3A",
"X. c #88533B",
"o. c #A95D2B",
"O. c #B05F28",
"+. c #9D633C",
"@. c #AD6E34",
"#. c #A9673C",
"$. c #B66D33",
"%. c #B9793A",
"&. c #C56D28",
"*. c #C27935",
"=. c #C47537",
"-. c #8A5B43",
";. c #816A4C",
":. c #CB873C",
">. c #CC8C3F",
",. c #9E8552",
"<. c #A28346",
"1. c #BF994C",
"2. c #B0825C",
"3. c #B69653",
"4. c #9E8E76",
"5. c #AD976C",
"6. c #AB8671",
"7. c #D99B45",
"8. c #DE9951",
"9. c #CEA44F",
"0. c #DDB156",
"q. c #D8A853",
"w. c #E7AF4F",
"e. c #F0A24D",
"r. c #EDA657",
"t. c #F2AA58",
"y. c #E8B553",
"u. c #F2BF57",
"i. c #CB9864",
"p. c #DBA668",
"a. c #F5B86D",
"s. c #F4B76C",
"d. c #E7BD76",
"f. c #F7C57F",
"g. c #55718C",
"h. c #776281",
"j. c #7C6B9C",
"k. c #748286",
"l. c #76868A",
"z. c #79898E",
"x. c #7E8E93",
"c. c #828D91",
"v. c #839194",
"b. c #998D99",
"n. c #B8B28E",
"m. c #AEAA96",
"M. c #A29FBA",
"N. c #B1BEB8",
"B. c #B4A5B4",
"V. c #C8A482",
"C. c #D4C39C",
"Z. c #EFD29D",
"A. c #F6D79D",
"S. c #FCDCA0",
"D. c #AFAFC3",
"F. c #B8BAD2",
"G. c #BFC6D8",
"H. c #C6C0CC",
"J. c #C3CBDB",
"K. c #C9D0DE",
"L. c #CDD4E1",
"P. c #D6DBE6",
"I. c #E2E2E9",
"U. c #EBEDF2",
"Y. c #FCFCFC",
"T. c #F7F7F8",
"R. c None",
/* pixels */
"R.R.R.R.R.R.R.R.R.R.R.R.R.R.R.R.R.R.R.R.R.R.R.R.R.R.R.R.R.R.R.R.R.R.R.R.R.R.R.R.R.R.R.R.R.R.R.R.R.R.",
"R.R.R.R.R.R.R.R.R.R.R.R.R.R.R.R.R.R.R.R.R.R.R.R.R.R.R.R.R.R.R.R.R.R.R.R.R.R.R.R.R.R.R.R.R.R.R.R.R.R.",
"R.R.R.R.R.R.R.R.R.R.R.R.R.R.R.R.R.R.R.R.R.R.R.R.R.R.R.R.R.R.R.R.R.R.R.R.R.R.R.R.R.R.R.R.R.R.R.R.R.R.",
"R.R.R.R.R.R.R.R.R.R.R.R.R.R.R.R.R.R.R.R.R.R.R.R.R.R.R.R.R.R.R.R.R.R.R.R.R.R.R.R.R.R.R.R.R.R.R.R.R.R.",
"R.R.R.R.R.R.R.R.R.R.R.R.R.R.R.R.R.R.R.R.R.R.R.R.R.R.R.R.R.R.R.R.R.R.R.R.R.R.R.R.R.R.R.R.R.R.R.R.R.R.",
"R.R.R.R.R.R.R.R.R.R.R.R.R.R.R.R.R.R.R.R.R.R.R.R.R.R.R.R.R.R.R.R.R.R.R.R.R.R.R.R.R.R.R.R.R.R.R.R.R.R.",
"R.R.R.R.R.R.R.R.R.R.R.R.R.R.R.R.R.R.R.R.R.R.R.R.R.R.R.R.R.R.R.R.R.R.R.R.R.R.R.R.R.R.R.R.R.R.R.R.R.R.",
"R.R.R.R.R.R.R.R.R.R.R.R.R.R.R.R.R.R.R.R.R.R.R.R.R.R.R.R.R.R.R.R.R.R.R.R.R.R.R.R.R.R.R.R.R.R.R.R.R.R.",
"R.R.R.R.R.R.R.R.R.R.R.R.R.R.R.R.R.R.R.R.R.R.R.R.R.R.R.R.R.R.R.R.R.R.R.R.R.R.R.R.R.R.R.R.R.R.R.R.R.R.",
"R.R.R.R.R.R.R.R.R.R.R.R.R.R.R.R.R.R.R.w w w w _ w R.R.R.R.R.R.R.R.R.R.R.R.R.R.R.R.R.R.R.R.R.R.R.R.R.",
"R.R.R.R.R.R.R.R.R.R.R.R.R.R.R.R.R.w w w w w 0 q 1 0 w R.R.R.R.R.R.R.R.R.R.R.R.R.R.R.R.R.R.R.R.R.R.R.",
"R.R.R.R.R.R.R.R.R.R.R.R.R.R.R.R.R.w w w w w 9 1 < 3 0 R.R.R.R.R.R.R.R.R.R.R.R.R.R.R.R.R.R.R.R.R.R.R.",
"R.R.R.R.R.R.R.R.R.R.R.R.R.R.R.R.w w w w _ q _ ' ' ' 9 9 R.R.R.R.R.R.R.R.R.R.R.R.R.R.R.R.R.R.R.R.R.R.",
"R.R.R.R.R.R.R.R.R.R.R.R.R.R.R.R.w w w w f 4 [ t.r.| 1 5 9 R.R.R.R.R.R.R.R.R.R.R.R.R.R.R.R.R.R.R.R.R.",
"R.R.R.R.R.R.R.R.R.R.R.R.R.R.R.R.w w w w k v Y S.Z.; 2 < 6 w R.R.R.R.R.R.R.R.R.R.R.R.R.R.R.R.R.R.R.R.",
"R.R.R.R.R.R.R.R.R.R.R.R.R.R.R.R.w w w ) V.N.c.S.Z.g.i , 6 e R.R.R.R.R.R.R.R.R.R.R.R.R.R.R.R.R.R.R.R.",
"R.R.R.R.R.R.R.R.R.R.R.R.R.R.R.R.w w w &.s.A.S.S.S.S.h < 6 a ; ; R.R.R.R.R.R.R.R.R.R.R.R.R.R.R.R.R.R.",
"R.R.R.R.R.R.R.R.R.R.R.R.R.R.R.R.w w w _ i.A.S.S.S.S.h < 6 @.<.; R.R.R.R.R.R.R.R.R.R.R.R.R.R.R.R.R.R.",
"R.R.R.R.R.R.R.R.R.R.R.R.R.R.R.R.w w w w =.s.S.A.A.e.7 6 @.>.@.R.R.R.R.R.R.R.R.R.R.R.R.R.R.R.R.R.R.R.",
"R.R.R.R.R.R.R.R.R.R.R.R.R.R.R.R.R.w w w ] *.t.8. .) 7 @.:.*.R.R.R.R.R.R.R.R.R.R.R.R.R.R.R.R.R.R.R.R.",
"R.R.R.R.R.R.R.R.R.R.R.R.R.R.R.R.O.{ z P X.#.t.p.L d [ %.*.R.R.R.R.R.R.R.R.R.R.R.R.R.R.R.R.R.R.R.R.R.",
"R.R.R.R.R.R.R.R.R.R.R.R.R.R.R.w.:.:.l T ~ 2.Z.S.m.E P o.O.R.R.R.R.R.R.R.R.R.R.R.R.R.R.R.R.R.R.R.R.R.",
"R.R.R.R.R.R.R.R.R.R.R.x.x./ L 1.u.u.l b ^ 4.i.C.C.c.R x o.O.R.R.R.R.R.R.R.R.R.R.R.R.R.R.R.R.R.R.R.R.",
"R.R.R.R.R.R.R.R.R.R.R.k.z.x./ d 9.9.l V ! l.x.x.c.c.x.A z } R.R.R.R.R.R.R.R.R.R.R.R.R.R.R.R.R.R.R.R.",
"R.R.R.R.R.R.R.R.R.R.R.S ^ x./ ; ; ; Z C C W z.x.z.z.z.A ; : C C R.R.R.R.R.R.R.R.R.R.R.R.R.R.R.R.R.R.",
"R.R.R.R.R.R.R.R.R.R.x.x.Q R x.R.R.R.R.A C S S S S S > ; : C C C R.R.R.R.R.R.R.R.R.R.R.R.R.R.R.R.R.R.",
"R.R.R.R.R.R.R.R.R.R.x.x.z.( G R.R.R.Y.k.C T k.k.l.k.R.R.Z C C C C R.R.R.R.R.R.R.R.R.R.R.R.R.R.R.R.R.",
"R.R.R.R.R.R.R.R.R.R.x.x.x.k.R.R.R.J.c.Y W k.x.x.x.x.x.R.R.C b X X R.R.R.R.R.R.R.R.R.R.R.R.R.R.R.R.R.",
"R.R.R.R.R.R.R.R.R.R.M C ! x.R.R.T.h.M ;.n.b.F I I B 5.J R.R.X     R.R.R.R.R.R.R.R.R.R.R.R.R.R.R.R.R.",
"R.R.R.R.R.R.R.R.R.R.    c D R.Y.T.m % +.d.6.r u u r %.k % R.      R.R.R.R.R.R.R.R.R.R.R.R.R.R.R.R.R.",
"R.R.R.R.R.R.R.R.R.R.      v P.I.B.m O f #. .u u u u j i $ % R.    R.R.R.R.R.R.R.R.R.R.R.R.R.R.R.R.R.",
"R.R.R.R.R.R.R.R.R.R.    R.J.G.M.$ O   o r u u u u u $ . o % R.R.R.R.R.R.R.R.R.R.R.R.R.R.R.R.R.R.R.R.",
"R.R.R.R.R.R.R.R.R.R.R.R.L.L.F.j.%       + u u u u u o   o % R.R.R.R.R.R.R.R.R.R.R.R.R.R.R.R.R.R.R.R.",
"R.R.R.R.R.R.R.R.R.R.R.Y.Y.Y.U.D.*       + u u u u u .   o % R.R.R.R.R.R.R.R.R.R.R.R.R.R.R.R.R.R.R.R.",
"R.R.R.R.R.R.R.R.R.R.R.Y.Y.U.J.D.%       + u u u u .     $ % R.R.R.R.R.R.R.R.R.R.R.R.R.R.R.R.R.R.R.R.",
"R.R.R.R.R.R.R.R.R.R.R.Y.Y.T.H.N       + u t r u u     g [ [ R.R.R.R.R.R.R.R.R.R.R.R.R.R.R.R.R.R.R.R.",
"R.R.R.R.R.R.R.R.R.R.R.R.R.R.b.%   + g p t & @ u u   g %.7.7.R.R.R.R.R.R.R.R.R.R.R.R.R.R.R.R.R.R.R.R.",
"R.R.R.R.R.R.R.R.R.R.R.R.R.R.R.$   j ` p r & t u r o %.y.u.u.R.R.R.R.R.R.R.R.R.R.R.R.R.R.R.R.R.R.R.R.",
"R.R.R.R.R.R.R.R.R.R.R.R.R.R.R.$ o %... .s r u r $ % <.0.u.u.R.R.R.R.R.R.R.R.R.R.R.R.R.R.R.R.R.R.R.R.",
"R.R.R.R.R.R.R.R.R.R.R.R.R.R.R.* - 3.y.u.-.@ r % * R.S ,.0.R.R.R.R.R.R.R.R.R.R.R.R.R.R.R.R.R.R.R.R.R.",
"R.R.R.R.R.R.R.R.R.R.R.R.R.R.R.= C C 3.q.-.% % * R.x.Y S R.R.R.R.R.R.R.R.R.R.R.R.R.R.R.R.R.R.R.R.R.R.",
"R.R.R.R.R.R.R.R.R.R.R.R.R.R.R.= C C C c % % % R.x.x.x.R.R.R.R.R.R.R.R.R.R.R.R.R.R.R.R.R.R.R.R.R.R.R.",
"R.R.R.R.R.R.R.R.R.R.R.R.R.R.R.R.C C C - % % R.R.x.x.R.R.R.R.R.R.R.R.R.R.R.R.R.R.R.R.R.R.R.R.R.R.R.R.",
"R.R.R.R.R.R.R.R.R.R.R.R.R.R.R.C C C R.R.R.R.R.R.G Y R.R.R.R.R.R.R.R.R.R.R.R.R.R.R.R.R.R.R.R.R.R.R.R.",
"R.R.R.R.R.R.R.R.R.R.R.R.R.R.R.C C R.R.R.R.R.R.R.R.R.R.R.R.R.R.R.R.R.R.R.R.R.R.R.R.R.R.R.R.R.R.R.R.R.",
"R.R.R.R.R.R.R.R.R.R.R.R.R.R.R.C C R.R.R.R.R.R.R.R.R.R.R.R.R.R.R.R.R.R.R.R.R.R.R.R.R.R.R.R.R.R.R.R.R.",
"R.R.R.R.R.R.R.R.R.R.R.R.R.R.R.C C R.R.R.R.R.R.R.R.R.R.R.R.R.R.R.R.R.R.R.R.R.R.R.R.R.R.R.R.R.R.R.R.R.",
"R.R.R.R.R.R.R.R.R.R.R.R.R.R.R.R.R.R.R.R.R.R.R.R.R.R.R.R.R.R.R.R.R.R.R.R.R.R.R.R.R.R.R.R.R.R.R.R.R.R.",
"R.R.R.R.R.R.R.R.R.R.R.R.R.R.R.R.R.R.R.R.R.R.R.R.R.R.R.R.R.R.R.R.R.R.R.R.R.R.R.R.R.R.R.R.R.R.R.R.R.R.",
"R.R.R.R.R.R.R.R.R.R.R.R.R.R.R.R.R.R.R.R.R.R.R.R.R.R.R.R.R.R.R.R.R.R.R.R.R.R.R.R.R.R.R.R.R.R.R.R.R.R."
};
