/* XPM */
static char *result[] = {
/* columns rows colors chars-per-pixel */
"50 50 165 2 ",
"   c #130022",
".  c #1C0224",
"X  c #1F162F",
"o  c #230429",
"O  c #2B052D",
"+  c #3F0726",
"@  c #37072E",
"#  c #2E0530",
"$  c #320632",
"%  c #390730",
"&  c #320933",
"*  c #341036",
"=  c #3A1A3C",
"-  c #2D2D2D",
";  c #363C3E",
":  c #343738",
">  c #4E100A",
",  c #5C1A0F",
"<  c #441013",
"1  c #5D1C10",
"2  c #541E1D",
"3  c #6F2715",
"4  c #6D2915",
"5  c #67271C",
"6  c #722A16",
"7  c #792E19",
"8  c #772C18",
"9  c #7D311A",
"0  c #43082D",
"q  c #4A092C",
"w  c #560B28",
"e  c #481B27",
"r  c #551E33",
"t  c #601B27",
"y  c #5C2D25",
"u  c #453831",
"i  c #652C2C",
"p  c #633125",
"a  c #6C3425",
"s  c #7D372B",
"d  c #633538",
"f  c #564C3A",
"g  c #69472D",
"h  c #694132",
"j  c #7D4838",
"k  c #78543A",
"l  c #2B2541",
"z  c #3B314D",
"x  c #393C47",
"c  c #3F3C51",
"v  c #461F46",
"b  c #442F4B",
"n  c #4F3156",
"m  c #533F5A",
"M  c #3A4245",
"N  c #3F4B4E",
"B  c #3D474A",
"V  c #44494A",
"C  c #424F52",
"Z  c #4C4D5F",
"A  c #584059",
"S  c #4A575A",
"D  c #5D525A",
"F  c #6F4C4C",
"G  c #7E4F41",
"H  c #625D4B",
"J  c #765948",
"K  c #674255",
"L  c #655152",
"P  c #525E61",
"I  c #556165",
"U  c #59666A",
"Y  c #5C696D",
"T  c #576468",
"R  c #5F6D71",
"E  c #5F6572",
"W  c #726460",
"Q  c #616F73",
"!  c #697578",
"~  c #637276",
"^  c #83361B",
"/  c #853A1B",
"(  c #803830",
")  c #9D4E1D",
"_  c #91421E",
"`  c #87472A",
"'  c #994A22",
"]  c #8C542E",
"[  c #9F5B2B",
"{  c #9C5327",
"}  c #88533B",
"|  c #92503A",
" . c #8B4838",
".. c #A25C2D",
"X. c #B05F28",
"o. c #9D633C",
"O. c #AB6A39",
"+. c #B66D33",
"@. c #BA7B3C",
"#. c #B77538",
"$. c #C56D28",
"%. c #C27935",
"&. c #C47537",
"*. c #816A4C",
"=. c #A66740",
"-. c #CB873C",
";. c #9E8552",
":. c #A28346",
">. c #BF994C",
",. c #B0825C",
"<. c #B69653",
"1. c #9E8E76",
"2. c #AD976C",
"3. c #AB8671",
"4. c #D89A45",
"5. c #DE9951",
"6. c #CEA44F",
"7. c #DDB156",
"8. c #D8A853",
"9. c #F0A24D",
"0. c #EDA657",
"q. c #F2AA58",
"w. c #E9B251",
"e. c #E8B856",
"r. c #F2BF57",
"t. c #CB9864",
"y. c #DBA668",
"u. c #F5B86D",
"i. c #F4B76C",
"p. c #E7BD76",
"a. c #F7C57F",
"s. c #55718C",
"d. c #776281",
"f. c #7C6B9C",
"g. c #748286",
"h. c #76868A",
"j. c #79898E",
"k. c #7E8E93",
"l. c #828D91",
"z. c #9B869B",
"x. c #839194",
"c. c #969396",
"v. c #B8B28E",
"b. c #AEAA96",
"n. c #A29FBA",
"m. c #B1BEB8",
"M. c #B4A5B4",
"N. c #C8A482",
"B. c #D4C39C",
"V. c #EFD29D",
"C. c #F6D79D",
"Z. c #FCDCA0",
"A. c #AFAFC3",
"S. c #B8BAD2",
"D. c #BFC6D8",
"F. c #C6C0CC",
"G. c #C3CBDB",
"H. c #C9D0DE",
"J. c #CDD4E1",
"K. c #D6DBE6",
"L. c #E2E2E9",
"P. c #EBEDF2",
"I. c #FCFCFC",
"U. c #F7F7F8",
"Y. c None",
/* pixels */
"Y.Y.Y.Y.Y.Y.Y.Y.Y.Y.Y.Y.Y.Y.Y.Y.Y.Y.Y.Y.Y.Y.Y.Y.Y.Y.Y.Y.Y.Y.Y.Y.Y.Y.Y.Y.Y.Y.Y.Y.Y.Y.Y.Y.Y.Y.Y.Y.Y.Y.",
"Y.Y.Y.Y.Y.Y.Y.Y.Y.Y.Y.Y.Y.Y.Y.Y.Y.Y.Y.Y.Y.Y.Y.Y.Y.Y.Y.Y.Y.Y.Y.Y.Y.Y.Y.Y.Y.Y.Y.Y.Y.Y.Y.Y.Y.Y.Y.Y.Y.Y.",
"Y.Y.Y.Y.Y.Y.Y.Y.Y.Y.Y.Y.Y.Y.Y.Y.Y.Y.Y.Y.Y.Y.Y.Y.Y.Y.Y.Y.Y.Y.Y.Y.Y.Y.Y.Y.Y.Y.Y.Y.Y.Y.Y.Y.Y.Y.Y.Y.Y.Y.",
"Y.Y.Y.Y.Y.Y.Y.Y.Y.Y.Y.Y.Y.Y.Y.Y.Y.Y.Y.Y.Y.Y.Y.Y.Y.Y.Y.Y.Y.Y.Y.Y.Y.Y.Y.Y.Y.Y.Y.Y.Y.Y.Y.Y.Y.Y.Y.Y.Y.Y.",
"Y.Y.Y.Y.Y.Y.Y.Y.Y.Y.Y.Y.Y.Y.Y.Y.Y.Y.Y.Y.Y.Y.Y.Y.Y.Y.Y.Y.Y.Y.Y.Y.Y.Y.Y.Y.Y.Y.Y.Y.Y.Y.Y.Y.Y.Y.Y.Y.Y.Y.",
"Y.Y.Y.Y.Y.Y.Y.Y.Y.Y.Y.Y.Y.Y.Y.Y.Y.Y.Y.Y.Y.Y.Y.Y.Y.Y.Y.Y.Y.Y.Y.Y.Y.Y.Y.Y.Y.Y.Y.Y.Y.Y.Y.Y.Y.Y.Y.Y.Y.Y.",
"Y.Y.Y.Y.Y.Y.Y.Y.Y.Y.Y.Y.Y.Y.Y.Y.Y.Y.Y.Y.Y.Y.Y.Y.Y.Y.Y.Y.Y.Y.Y.Y.Y.Y.Y.Y.Y.Y.Y.Y.Y.Y.Y.Y.Y.Y.Y.Y.Y.Y.",
"Y.Y.Y.Y.Y.Y.Y.Y.Y.Y.Y.Y.Y.Y.Y.Y.Y.Y.Y.Y.Y.Y.Y.Y.Y.Y.Y.Y.Y.Y.Y.Y.Y.Y.Y.Y.Y.Y.Y.Y.Y.Y.Y.Y.Y.Y.Y.Y.Y.Y.",
"Y.Y.Y.Y.Y.Y.Y.Y.Y.Y.Y.Y.Y.Y.Y.Y.Y.Y.Y.Y.Y.Y.Y.Y.Y.Y.Y.Y.Y.Y.Y.Y.Y.Y.Y.Y.Y.Y.Y.Y.Y.Y.Y.Y.Y.Y.Y.Y.Y.Y.",
"Y.Y.Y.Y.Y.Y.Y.Y.Y.Y.Y.Y.Y.Y.Y.Y.Y.Y.Y.9 9 9 9 9 9 Y.Y.Y.Y.Y.Y.Y.Y.Y.Y.Y.Y.Y.Y.Y.Y.Y.Y.Y.Y.Y.Y.Y.Y.Y.",
"Y.Y.Y.Y.Y.Y.Y.Y.Y.Y.Y.Y.Y.Y.Y.Y.Y.9 9 9 9 9 9 7 , 7 9 Y.Y.Y.Y.Y.Y.Y.Y.Y.Y.Y.Y.Y.Y.Y.Y.Y.Y.Y.Y.Y.Y.Y.",
"Y.Y.Y.Y.Y.Y.Y.Y.Y.Y.Y.Y.Y.Y.Y.Y.Y.9 9 9 9 9 6 , > 1 7 Y.Y.Y.Y.Y.Y.Y.Y.Y.Y.Y.Y.Y.Y.Y.Y.Y.Y.Y.Y.Y.Y.Y.",
"Y.Y.Y.Y.Y.Y.Y.Y.Y.Y.Y.Y.Y.Y.Y.Y.9 9 9 9 7 7 / ) ) ) 3 6 Y.Y.Y.Y.Y.Y.Y.Y.Y.Y.Y.Y.Y.Y.Y.Y.Y.Y.Y.Y.Y.Y.",
"Y.Y.Y.Y.Y.Y.Y.Y.Y.Y.Y.Y.Y.Y.Y.Y.9 9 9 9 p 2  .q.0.[ , 6 Y.Y.Y.Y.Y.Y.Y.Y.Y.Y.Y.Y.Y.Y.Y.Y.Y.Y.Y.Y.Y.Y.",
"Y.Y.Y.Y.Y.Y.Y.Y.Y.Y.Y.Y.Y.Y.Y.Y.9 9 9 9 d z D Z.V.- < 6 Y.Y.Y.Y.Y.Y.Y.Y.Y.Y.Y.Y.Y.Y.Y.Y.Y.Y.Y.Y.Y.Y.",
"Y.Y.Y.Y.Y.Y.Y.Y.Y.Y.Y.Y.Y.Y.Y.9 9 9 9 / N.m.k.Z.V.s.e 3 Y.Y.Y.Y.Y.Y.Y.Y.Y.Y.Y.Y.Y.Y.Y.Y.Y.Y.Y.Y.Y.Y.",
"Y.Y.Y.Y.Y.Y.Y.Y.Y.Y.Y.Y.Y.Y.Y.9 9 9 9 $.u.C.C.Z.Z.Z.a 4 Y.Y.- - Y.Y.Y.Y.Y.Y.Y.Y.Y.Y.Y.Y.Y.Y.Y.Y.Y.Y.",
"Y.Y.Y.Y.Y.Y.Y.Y.Y.Y.Y.Y.Y.Y.Y.9 9 9 9 ^ t.C.Z.Z.Z.Z.a 4 Y.Y.:.- Y.Y.Y.Y.Y.Y.Y.Y.Y.Y.Y.Y.Y.Y.Y.Y.Y.Y.",
"Y.Y.Y.Y.Y.Y.Y.Y.Y.Y.Y.Y.Y.Y.Y.9 9 9 9 9 &.u.C.C.C.9.4 4 @.4.+.Y.Y.Y.Y.Y.Y.Y.Y.Y.Y.Y.Y.Y.Y.Y.Y.Y.Y.Y.",
"Y.Y.Y.Y.Y.Y.Y.Y.Y.Y.Y.Y.Y.Y.Y.9 9 9 9 9 _ &.q.5.} _ 4 +.-.%.Y.Y.Y.Y.Y.Y.Y.Y.Y.Y.Y.Y.Y.Y.Y.Y.Y.Y.Y.Y.",
"Y.Y.Y.Y.Y.Y.Y.Y.Y.Y.Y.Y.Y.Y.Y.9 ' ' h J j =.q.y.F u ` @.%.Y.Y.Y.Y.Y.Y.Y.Y.Y.Y.Y.Y.Y.Y.Y.Y.Y.Y.Y.Y.Y.",
"Y.Y.Y.Y.Y.Y.Y.Y.Y.Y.Y.Y.Y.Y.g #.-.-.f P W ,.V.Z.b.R k ..X.Y.Y.Y.Y.Y.Y.Y.Y.Y.Y.Y.Y.Y.Y.Y.Y.Y.Y.Y.Y.Y.",
"Y.Y.Y.Y.Y.Y.Y.Y.Y.Y.Y.k.k.! H >.r.r.f M ! 1.t.B.B.l.U k [ X.Y.Y.Y.Y.Y.Y.Y.Y.Y.Y.Y.Y.Y.Y.Y.Y.Y.Y.Y.Y.",
"Y.Y.Y.Y.Y.Y.Y.Y.Y.Y.Y.h.j.k.! u 6.6.f M Y j.l.k.k.k.l.V g ] Y.Y.Y.Y.Y.Y.Y.Y.Y.Y.Y.Y.Y.Y.Y.Y.Y.Y.Y.Y.",
"Y.Y.Y.Y.Y.Y.Y.Y.Y.Y.Y.C Q k.! - - - N N N U j.k.k.j.j.V - ; N N Y.Y.Y.Y.Y.Y.Y.Y.Y.Y.Y.Y.Y.Y.Y.Y.Y.Y.",
"Y.Y.Y.Y.Y.Y.Y.Y.Y.Y.k.k.R U k.Y.Y.Y.Y.N N N C C C C : - x B N N Y.Y.Y.Y.Y.Y.Y.Y.Y.Y.Y.Y.Y.Y.Y.Y.Y.Y.",
"Y.Y.Y.Y.Y.Y.Y.Y.Y.Y.k.k.h.~ S Y.Y.Y.I.d.N I h.g.g.g.Y.Y.B N N N N Y.Y.Y.Y.Y.Y.Y.Y.Y.Y.Y.Y.Y.Y.Y.Y.Y.",
"Y.Y.Y.Y.Y.Y.Y.Y.Y.Y.k.k.k.h.Y.Y.Y.H.l.P U g.k.k.k.k.k.Y.Y.N x X X Y.Y.Y.Y.Y.Y.Y.Y.Y.Y.Y.Y.Y.Y.Y.Y.Y.",
"Y.Y.Y.Y.Y.Y.Y.Y.Y.Y.c c E l.Y.Y.U.! b *.v.c.A K K A 2.F Y.Y.X     Y.Y.Y.Y.Y.Y.Y.Y.Y.Y.Y.Y.Y.Y.Y.Y.Y.",
"Y.Y.Y.Y.Y.Y.Y.Y.Y.Y.    l Z Y.U.U.b % o.p.3.q w w q =.d Y.Y.      Y.Y.Y.Y.Y.Y.Y.Y.Y.Y.Y.Y.Y.Y.Y.Y.Y.",
"Y.Y.Y.Y.Y.Y.Y.Y.Y.Y.      z K.L.M.= # i O.| w w w w s e Y.Y.Y.    Y.Y.Y.Y.Y.Y.Y.Y.Y.Y.Y.Y.Y.Y.Y.Y.Y.",
"Y.Y.Y.Y.Y.Y.Y.Y.Y.Y.    Y.H.G.n.$ O . O q w w w w w # . Y.Y.Y.Y.Y.Y.Y.Y.Y.Y.Y.Y.Y.Y.Y.Y.Y.Y.Y.Y.Y.Y.",
"Y.Y.Y.Y.Y.Y.Y.Y.Y.Y.Y.Y.J.H.S.f.&     + w w w w w w o   Y.Y.Y.Y.Y.Y.Y.Y.Y.Y.Y.Y.Y.Y.Y.Y.Y.Y.Y.Y.Y.Y.",
"Y.Y.Y.Y.Y.Y.Y.Y.Y.Y.Y.I.I.I.P.A.&     0 w w w w w w .   Y.Y.Y.Y.Y.Y.Y.Y.Y.Y.Y.Y.Y.Y.Y.Y.Y.Y.Y.Y.Y.Y.",
"Y.Y.Y.Y.Y.Y.Y.Y.Y.Y.Y.I.I.P.H.A.#     + w w w w w .     Y.Y.Y.Y.Y.Y.Y.Y.Y.Y.Y.Y.Y.Y.Y.Y.Y.Y.Y.Y.Y.Y.",
"Y.Y.Y.Y.Y.Y.Y.Y.Y.Y.Y.I.I.U.F.n .     + w q % 0 w     p [ Y.Y.Y.Y.Y.Y.Y.Y.Y.Y.Y.Y.Y.Y.Y.Y.Y.Y.Y.Y.Y.",
"Y.Y.Y.Y.Y.Y.Y.Y.Y.Y.Y.Y.Y.Y.z.#     y t q % $ % w   a @.4.4.Y.Y.Y.Y.Y.Y.Y.Y.Y.Y.Y.Y.Y.Y.Y.Y.Y.Y.Y.Y.",
"Y.Y.Y.Y.Y.Y.Y.Y.Y.Y.Y.Y.Y.Y.Y.#   y @.s 0 $ % 0 0 o =.w.r.r.Y.Y.Y.Y.Y.Y.Y.Y.Y.Y.Y.Y.Y.Y.Y.Y.Y.Y.Y.Y.",
"Y.Y.Y.Y.Y.Y.Y.Y.Y.Y.Y.Y.Y.Y.$ # o #.w. .0 $ % 0 # $ :.7.r.r.Y.Y.Y.Y.Y.Y.Y.Y.Y.Y.Y.Y.Y.Y.Y.Y.Y.Y.Y.Y.",
"Y.Y.Y.Y.Y.Y.Y.Y.Y.Y.Y.Y.Y.Y.$ & = <.e.=.r $ $ $ Y.Y.C ;.7.Y.Y.Y.Y.Y.Y.Y.Y.Y.Y.Y.Y.Y.Y.Y.Y.Y.Y.Y.Y.Y.",
"Y.Y.Y.Y.Y.Y.Y.Y.Y.Y.Y.Y.Y.Y.$ * N N <.8.G & $ Y.Y.k.P C Y.Y.Y.Y.Y.Y.Y.Y.Y.Y.Y.Y.Y.Y.Y.Y.Y.Y.Y.Y.Y.Y.",
"Y.Y.Y.Y.Y.Y.Y.Y.Y.Y.Y.Y.Y.Y.$ * N N C = # & Y.Y.k.k.k.Y.Y.Y.Y.Y.Y.Y.Y.Y.Y.Y.Y.Y.Y.Y.Y.Y.Y.Y.Y.Y.Y.Y.",
"Y.Y.Y.Y.Y.Y.Y.Y.Y.Y.Y.Y.Y.Y.Y.* N N N Y.Y.Y.Y.Y.k.k.Y.Y.Y.Y.Y.Y.Y.Y.Y.Y.Y.Y.Y.Y.Y.Y.Y.Y.Y.Y.Y.Y.Y.Y.",
"Y.Y.Y.Y.Y.Y.Y.Y.Y.Y.Y.Y.Y.Y.Y.x N N Y.Y.Y.Y.Y.Y.S P Y.Y.Y.Y.Y.Y.Y.Y.Y.Y.Y.Y.Y.Y.Y.Y.Y.Y.Y.Y.Y.Y.Y.Y.",
"Y.Y.Y.Y.Y.Y.Y.Y.Y.Y.Y.Y.Y.Y.Y.C N Y.Y.Y.Y.Y.Y.Y.Y.Y.Y.Y.Y.Y.Y.Y.Y.Y.Y.Y.Y.Y.Y.Y.Y.Y.Y.Y.Y.Y.Y.Y.Y.Y.",
"Y.Y.Y.Y.Y.Y.Y.Y.Y.Y.Y.Y.Y.Y.Y.V N Y.Y.Y.Y.Y.Y.Y.Y.Y.Y.Y.Y.Y.Y.Y.Y.Y.Y.Y.Y.Y.Y.Y.Y.Y.Y.Y.Y.Y.Y.Y.Y.Y.",
"Y.Y.Y.Y.Y.Y.Y.Y.Y.Y.Y.Y.Y.Y.Y.N N Y.Y.Y.Y.Y.Y.Y.Y.Y.Y.Y.Y.Y.Y.Y.Y.Y.Y.Y.Y.Y.Y.Y.Y.Y.Y.Y.Y.Y.Y.Y.Y.Y.",
"Y.Y.Y.Y.Y.Y.Y.Y.Y.Y.Y.Y.Y.Y.Y.Y.Y.Y.Y.Y.Y.Y.Y.Y.Y.Y.Y.Y.Y.Y.Y.Y.Y.Y.Y.Y.Y.Y.Y.Y.Y.Y.Y.Y.Y.Y.Y.Y.Y.Y.",
"Y.Y.Y.Y.Y.Y.Y.Y.Y.Y.Y.Y.Y.Y.Y.Y.Y.Y.Y.Y.Y.Y.Y.Y.Y.Y.Y.Y.Y.Y.Y.Y.Y.Y.Y.Y.Y.Y.Y.Y.Y.Y.Y.Y.Y.Y.Y.Y.Y.Y.",
"Y.Y.Y.Y.Y.Y.Y.Y.Y.Y.Y.Y.Y.Y.Y.Y.Y.Y.Y.Y.Y.Y.Y.Y.Y.Y.Y.Y.Y.Y.Y.Y.Y.Y.Y.Y.Y.Y.Y.Y.Y.Y.Y.Y.Y.Y.Y.Y.Y.Y."
};
