/* XPM */
static char *psl11641565252[] = {
/* columns rows colors chars-per-pixel */
"50 50 196 2 ",
"   c None",
".  c #0E001F",
"X  c #0E0022",
"o  c #130022",
"O  c #1B0124",
"+  c #1A0C2A",
"@  c #1B0528",
"#  c #1D1131",
"$  c #2A002E",
"%  c #260429",
"&  c #340625",
"*  c #35082D",
"=  c #21102D",
"-  c #2C0231",
";  c #260030",
":  c #330532",
">  c #300832",
",  c #390E39",
"<  c #2D1B39",
"1  c #2D2D2D",
"2  c #292827",
"3  c #31223E",
"4  c #2D3237",
"5  c #313232",
"6  c #373936",
"7  c #470F0E",
"8  c #50120B",
"9  c #59180E",
"0  c #4B1818",
"q  c #531B13",
"w  c #631D11",
"e  c #5B2219",
"r  c #642313",
"t  c #6D2514",
"y  c #6A281A",
"u  c #712714",
"i  c #742A17",
"p  c #772D18",
"a  c #7A2E19",
"s  c #7D311A",
"d  c #460927",
"f  c #46052B",
"g  c #490629",
"h  c #4D092A",
"j  c #450829",
"k  c #510627",
"l  c #550B28",
"z  c #590B28",
"x  c #540827",
"c  c #591629",
"v  c #4D1D36",
"b  c #611327",
"n  c #5C2A23",
"m  c #582130",
"M  c #533026",
"N  c #612E23",
"B  c #763627",
"V  c #642530",
"C  c #68373A",
"Z  c #7D3832",
"A  c #4E4532",
"S  c #514230",
"D  c #58503B",
"F  c #644D3D",
"G  c #665739",
"H  c #2F2840",
"J  c #352A44",
"K  c #363944",
"L  c #4A254A",
"P  c #483546",
"I  c #3B4446",
"U  c #3B454A",
"Y  c #3E4A4D",
"T  c #3D4C52",
"R  c #33496E",
"E  c #414C4E",
"W  c #484646",
"Q  c #504A42",
"!  c #424F52",
"~  c #465356",
"^  c #4A5457",
"/  c #575853",
"(  c #615548",
")  c #564E63",
"_  c #4D5C61",
"`  c #515E62",
"'  c #6E4E6D",
"]  c #5C676A",
"[  c #5D6A6E",
"{  c #556165",
"}  c #5E6D72",
"|  c #6C6A75",
" . c #6C797D",
".. c #677179",
"X. c #78696D",
"o. c #82351B",
"O. c #87381B",
"+. c #8B3D1C",
"@. c #863A2B",
"#. c #93401A",
"$. c #AB561E",
"%. c #B25D1F",
"&. c #8B452A",
"*. c #8E5229",
"=. c #9A562B",
"-. c #8D5A3D",
";. c #AD5C27",
":. c #A65D2C",
">. c #B65F26",
",. c #A4612F",
"<. c #B7642A",
"1. c #BD6825",
"2. c #A5653F",
"3. c #BA7233",
"4. c #CC7C33",
"5. c #C77C36",
"6. c #8F5C41",
"7. c #887A52",
"8. c #966E49",
"9. c #BE7E4E",
"0. c #A96840",
"q. c #8B796C",
"w. c #CE8B3F",
"e. c #CA843A",
"r. c #D18F3F",
"t. c #F59D3F",
"y. c #E18C3A",
"u. c #9C8852",
"i. c #B5924A",
"p. c #A78847",
"a. c #85856E",
"s. c #AF8D65",
"d. c #AC8D70",
"f. c #B99F7F",
"g. c #CE9143",
"h. c #D59A48",
"j. c #C68E5A",
"k. c #DEAD5F",
"l. c #DFB356",
"z. c #DEA349",
"x. c #E8A359",
"c. c #E9B554",
"v. c #F1BE56",
"b. c #F0B651",
"n. c #E0A44A",
"m. c #ECAC61",
"M. c #FBBC6C",
"N. c #E0B37A",
"B. c #F2BA73",
"V. c #F4C157",
"C. c #F7C559",
"Z. c #FBC85A",
"A. c #F8CB7D",
"S. c #446286",
"D. c #6E7D82",
"F. c #707F84",
"G. c #7C6F94",
"H. c #796692",
"J. c #757490",
"K. c #76868A",
"L. c #79878C",
"P. c #738186",
"I. c #7D8D93",
"U. c #7F9095",
"Y. c #819095",
"T. c #829599",
"R. c #899192",
"E. c #989B90",
"W. c #B9A788",
"Q. c #AFAD99",
"!. c #BDB396",
"~. c #9A92AA",
"^. c #A699AD",
"/. c #9CA8A7",
"(. c #B1BABD",
"). c #ACB4B7",
"_. c #C6BC9E",
"`. c #EABE82",
"'. c #FFD18A",
"]. c #EAD09E",
"[. c #FFDA96",
"{. c #FFDE9E",
"}. c #EBCE9A",
"|. c #CACEBF",
" X c #F9DCA3",
".X c #E8D8B0",
"XX c #FFE3A5",
"oX c #FFE8A9",
"OX c #F8E5B4",
"+X c #BCB8C5",
"@X c #B4C1C7",
"#X c #CED5E2",
"$X c #E2DEE3",
"%X c #FEFEFE",
"&X c #F4F6F7",
"*X c #E6EDF4",
/* pixels */
"                                                                                                    ",
"                                                                                                    ",
"                                                                                                    ",
"                                                                                                    ",
"                                                                                                    ",
"                                                                                                    ",
"                                                                                                    ",
"                                            s s s s s                                               ",
"                                          u a a s s s s                                             ",
"                                      s p 9 w a s s s s s s                                         ",
"                                      a 9 8 8 w s s s s s s                                         ",
"                                    u w %.1.1.$.a s s s s s s                                       ",
"                                  o.t r c.M.M.x.>.O.s s s s s                                       ",
"                                  o.t e d.}.oX`.:.y y s s s s s                                     ",
"                                    t 7 = f.oXf.# < B O.s s o.a                                     ",
"                            1 1     t 0 R !.XX!.S.|.x.$.a s s s s                                   ",
"                            6 p.    t e W..X{.]._.OX9.O.o.a o.a s                                   ",
"                            S w.b.,.w r x.[.XXXX{.M.=.a a o.o.a s                                   ",
"                              ;.h.e.&.r %.j.N.'.B.4.+.a a o.a a s                                   ",
"                                ;.r.g.s q 0 =.t.r.+.@.o.s o.o.o.s                                   ",
"                                  <.<.=.Q ..W.[.}.&.X.] F ;.;.+.s                                   ",
"                                  <.=.(  .!. X'.z.q.] T F z.n.h.                                    ",
"                                <.=.G } I.Q._.W.s.R.{ 4 G C.Z.i.G                                   ",
"                                *.M Y Y.I.I.I.I.I...^ 6 D i.i.A 5 ~                                 ",
"                                1 2 W K.K.K.K.L.D.~ Y Y I 1 1 5 { U.I.                              ",
"                                1 1 1 6 ! ~ ^ ^ ~ E T ~     1 [ I.I.I.                              ",
"                              E U 4 2 5 ..D.D.D...! U E.      K.T.P.^                               ",
"                              Y E U U ` I.T.T.T.U.} T  .).    Y.P.[ } K.                            ",
"                              Y E K / E.| | | | D./.a.Q ) ~.  L.{ [ U.U.                            ",
"                            I I Y 3 C h.v h z h L .XA.-.$ L $XR...U.U.I.                            ",
"                            + + K J V ,.c l l k V k.w.B $ L $X&X+XI.I.I.                            ",
"                            o o + + $ m z l l l z Z V * O , ' +X@X..H H                             ",
"                            o o o . o % h l l l l k f % o % $ G.J.J X .                             ",
"                            o o     X O k z l l z l z & X o > H.G.J X .                             ",
"                                  o X O d l l l l z z & X o > ~.*X+X3 <                             ",
"                                    o o O d l l l l z & X o > ~.#X#X$X$X                            ",
"                                    X X o * z k j l z & X X O L ^.&X%X%X                            ",
"                                      N N c l g : h l c n M O O '   %X                              ",
"                                      4.5.@.b g * l l &.e.3.m &                                     ",
"                                      v.v.e.@.f * k k 0.C.b.3.v -                                   ",
"                                      v.v.v.-.: : * g 2.C.v.c.C ;                                   ",
"                                      V.V.u.P : : : g 2.Z.c.7.W K                                   ",
"                                      l.u./ 3 : : : * C 8.7.E Y E                                   ",
"                                        _ { K : : : : - < T _ ` `                                   ",
"                                        I.Y.) : : :       ~ L.I.I.                                  ",
"                                        I.Y.L.  :           I.I.I.                                  ",
"                                        Y.I.                Y.I.Y.                                  ",
"                                      ~ [ K.T.              } [ }                                   ",
"                                      E Y  .                Y Y                                     ",
"                                                                                                    "
};
