/* XPM */
static char *psl31641565252[] = {
/* columns rows colors chars-per-pixel */
"50 50 196 2 ",
"   c None",
".  c #0E001E",
"X  c #0E0022",
"o  c #130123",
"O  c #1A0123",
"+  c #170927",
"@  c #1D002A",
"#  c #1D1131",
"$  c #22022A",
"%  c #2A022E",
"&  c #220829",
"*  c #330525",
"=  c #3D042E",
"-  c #361227",
";  c #2C0332",
":  c #2F0936",
">  c #330632",
",  c #3A0730",
"<  c #321639",
"1  c #361A3C",
"2  c #2C1C36",
"3  c #1D2026",
"4  c #2C2C2C",
"5  c #26272A",
"6  c #2C3133",
"7  c #35393B",
"8  c #362E37",
"9  c #4D0E0A",
"0  c #490C09",
"q  c #5A190E",
"w  c #491617",
"e  c #611A0F",
"r  c #631E12",
"t  c #5A231B",
"y  c #652113",
"u  c #662718",
"i  c #742C19",
"p  c #7A2F19",
"a  c #772B16",
"s  c #6A301E",
"d  c #7D311A",
"f  c #74331F",
"g  c #49092C",
"h  c #480729",
"j  c #520627",
"k  c #550927",
"l  c #550B28",
"z  c #580B28",
"x  c #5A1329",
"c  c #591827",
"v  c #4E1635",
"b  c #51192F",
"n  c #60162A",
"m  c #492427",
"M  c #5B2A23",
"N  c #5F2534",
"B  c #662C26",
"V  c #7B3824",
"C  c #60333B",
"Z  c #7D3F31",
"A  c #772C2C",
"S  c #4A4031",
"D  c #544B38",
"F  c #655639",
"G  c #624B3C",
"H  c #342741",
"J  c #312943",
"K  c #343A42",
"L  c #373547",
"P  c #502941",
"I  c #50304F",
"U  c #493754",
"Y  c #5A375B",
"T  c #472E4B",
"R  c #3A474B",
"E  c #3E4A4D",
"W  c #3B4446",
"Q  c #3C4950",
"!  c #334A6F",
"~  c #414C4E",
"^  c #434747",
"/  c #564C46",
"(  c #565D4F",
")  c #414F50",
"_  c #465255",
"`  c #4B5556",
"'  c #525A5C",
"]  c #6C4040",
"[  c #73634B",
"{  c #4D5C61",
"}  c #515F63",
"|  c #604779",
" . c #546266",
".. c #5D6B6F",
"X. c #5E676A",
"o. c #636B72",
"O. c #6B7A7F",
"+. c #657377",
"@. c #716C67",
"#. c #82341B",
"$. c #8A3B1D",
"%. c #8A3F20",
"&. c #833F35",
"*. c #9C4C1A",
"=. c #98451B",
"-. c #A44F1D",
";. c #A5521C",
":. c #894829",
">. c #834133",
",. c #975436",
"<. c #A85C27",
"1. c #B75E23",
"2. c #826C3F",
"3. c #99613B",
"4. c #B4652B",
"5. c #A4683B",
"6. c #B97334",
"7. c #BD7E3B",
"8. c #B86F33",
"9. c #C77B34",
"0. c #865C40",
"q. c #9C674A",
"w. c #887B52",
"e. c #906A49",
"r. c #A46540",
"t. c #8A7567",
"y. c #CE8337",
"u. c #E28A36",
"i. c #F3993B",
"p. c #9B8650",
"a. c #B4924A",
"s. c #AF8F69",
"d. c #B99F7F",
"f. c #CB8945",
"g. c #DB9E47",
"h. c #D29644",
"j. c #E49646",
"k. c #E19A53",
"l. c #DFB356",
"z. c #D6A351",
"x. c #E1A34C",
"c. c #ECBA57",
"v. c #E9B452",
"b. c #F1BE57",
"n. c #FAAC54",
"m. c #C09A6C",
"M. c #DAAF7D",
"N. c #E6B874",
"B. c #FBB563",
"V. c #F3C057",
"C. c #F7C559",
"Z. c #FBC85A",
"A. c #E9CC7F",
"S. c #456286",
"D. c #6E7D82",
"F. c #797E86",
"G. c #707F84",
"H. c #88738D",
"J. c #877C9D",
"K. c #76868B",
"L. c #78848B",
"P. c #79898E",
"I. c #778485",
"U. c #7D8D93",
"Y. c #7F9095",
"T. c #858D8F",
"R. c #819195",
"E. c #869599",
"W. c #938C95",
"Q. c #B8A88B",
"!. c #AFAD99",
"~. c #BCB296",
"^. c #A296AB",
"/. c #A8A8B0",
"(. c #C6BD9E",
"). c #E9BF81",
"_. c #ECC085",
"`. c #EECB92",
"'. c #EAD09E",
"]. c #FCD99C",
"[. c #F9D699",
"{. c #C9CDBF",
"}. c #EDD5A1",
"|. c #FEDEA1",
" X c #FFE3A3",
".X c #FFE9A6",
"XX c #F8E3B2",
"oX c #B7B4CB",
"OX c #CFCDD7",
"+X c #D0CCD2",
"@X c #D3D5CB",
"#X c #E3DFE4",
"$X c #E7E4E8",
"%X c #E4E9F2",
"&X c #FDFDFD",
"*X c #F8F9FB",
/* pixels */
"                                                                                                    ",
"                                                                                                    ",
"                                                                                                    ",
"                                                                                                    ",
"                                                                                                    ",
"                                                                                                    ",
"                                                                                                    ",
"                                                                                                    ",
"                                                                                                    ",
"                                          i d d d d d d                                             ",
"                                      d d q y d d d d d d d                                         ",
"                                      d q 9 9 r p d d d d d                                         ",
"                                    a y *.*.*.;.1.$.p p d d d                                       ",
"                                  i y q <.j.n.j.<.u i #.d d d d                                     ",
"                                d y 9 0 # d. Xd.# 2 B #.d d d d d                                   ",
"                                #.y 9 w ! ~. X~.S.{.q.a d d d d d d                                 ",
"                            4 4 s r 0 t Q.'.].'.(.XXk.-.p p #.p d d                                 ",
"                            4 [ :.q 0 u `.|.|.|. X|.f.=.#.p p #.d d                                 ",
"                            C h.6.f 9 y N.[. X X].).:.p p p p p d d                                 ",
"                              4.g.7.i y 9.A.[.[.).:.A V f %.#.#.d d                                 ",
"                                4.h.y.s / I.m.i.u.%.@...G <.<.%.d                                   ",
"                                  9.5./ +.~.`.B.u.t.X.Q G x.x.g.                                    ",
"                                  4.3.+.Y.!.(.Q.s.R.} 6 F Z.Z.a.                                    ",
"                                :.:.0.E.Y.Y.U.U.U.O.' 7 G a.a.S 3                                   ",
"                              6 4 4 ^ L.K.K.K.K.I._ E E W 4 4 4 6 ` T.U.                            ",
"                            E E 6 4 4 7 _ ` _ _ _ E E E     4 4 ` P.U.U.                            ",
"                            E E R 7     O.O.D.O.+._ E         4 } E.P. .                            ",
"                          ) ) E )       Y.U.R.R.P._ R T.        o.K...X.D.                          ",
"                        K K K E         U.Y.Y.Y.U. .E T.OX        +. .U.R.U.                        ",
"                        o o + L       T.L.L.F.F.I.E.X.^ ..oX       .U.U.U.U.                        ",
"                        o X o +     G z.P v n b I @XA.0.> Y #X      U.U.U.U.                        ",
"                        o o O     ; N 8.x j l j n A.k.Z % T $X&X    L.L H J                         ",
"                          +       @ - B z z z k c ,.>.b $ v H.OX*X/.L o . .                         ",
"                                  X O ; l z l z l j h @ o % ; J.%XOX_ o o o                         ",
"                                  o o O g z z z l z l * o o ; | oX&X#XU o                           ",
"                                  o o O g z z z l z l * X o O ; ^.&X*X#X                            ",
"                                  o o . O h z z z z z * X X o $ H.%X&X&X                            ",
"                                    - M M x z g g l z c M M o O T ^.&X&X                            ",
"                                      9.9.A j g > g z :.y.6.m O O Y *X&X                            ",
"                                      b.b.&.j g > l j 5.C.v.6.m $ >                                 ",
"                                      V.b.>.h > > k j 5.C.V.v.[ 2 >                                 ",
"                                      V.b.[ < > > k = q.Z.V.[ ` H >                                 ",
"                                      l.p.( H > > l = C w.p.~ E L                                   ",
"                                        } } U % > g = % 2 R ' }                                     ",
"                                        U.U.    > > > > < ` K.U.R.                                  ",
"                                        U.Y.      > > > :   U.Y.R.                                  ",
"                                        Y.U.Y.      > >     Y.Y.R.                                  ",
"                                      _ ..L.R.              ......                                  ",
"                                      E E D.                E E                                     ",
"                                                                                                    "
};
