/* XPM */
static char *psl41641565252[] = {
/* columns rows colors chars-per-pixel */
"50 50 192 2 ",
"   c None",
".  c #0E001E",
"X  c #2F0A1B",
"o  c #0E0022",
"O  c #120022",
"+  c #1A0125",
"@  c #1C0529",
"#  c #1F152F",
"$  c #230223",
"%  c #260029",
"&  c #2A012D",
"*  c #250823",
"=  c #32032E",
"-  c #3B052E",
";  c #3D092E",
":  c #20172F",
">  c #391724",
",  c #2F0631",
"<  c #320632",
"1  c #330A34",
"2  c #2A1D39",
"3  c #36143A",
"4  c #22242A",
"5  c #2A2929",
"6  c #302E2B",
"7  c #3A322B",
"8  c #33312E",
"9  c #282733",
"0  c #2E3337",
"q  c #373C3D",
"w  c #4C0D09",
"e  c #4A0B07",
"r  c #54130C",
"t  c #4A1212",
"y  c #501C1A",
"u  c #631F11",
"i  c #6B2414",
"p  c #61251A",
"a  c #672012",
"s  c #722916",
"d  c #7A2E15",
"f  c #7A2E19",
"g  c #6F301D",
"h  c #7A3113",
"j  c #7D311A",
"k  c #42082D",
"l  c #4D0A2A",
"z  c #4A0526",
"x  c #540A27",
"c  c #560B28",
"v  c #560724",
"b  c #451928",
"n  c #59142A",
"m  c #581F38",
"M  c #63182A",
"N  c #542427",
"B  c #493B38",
"V  c #4A312A",
"C  c #793D25",
"Z  c #762F31",
"A  c #653237",
"S  c #662B2A",
"D  c #5F523B",
"F  c #6D402E",
"G  c #645638",
"H  c #774D35",
"J  c #76633C",
"K  c #3B1D41",
"L  c #1B2048",
"P  c #22305A",
"I  c #451D45",
"U  c #572D48",
"Y  c #532E53",
"T  c #513C4B",
"R  c #633146",
"E  c #3B464A",
"W  c #3E4A4D",
"Q  c #434A4D",
"!  c #484944",
"~  c #514244",
"^  c #464A56",
"/  c #455154",
"(  c #4E5A5E",
")  c #4A5557",
"_  c #515D5F",
"`  c #58425E",
"'  c #7A5443",
"]  c #724D49",
"[  c #59605F",
"{  c #4F5D61",
"}  c #4F5062",
"|  c #525E61",
" . c #525565",
".. c #6B5172",
"X. c #654B6D",
"o. c #536065",
"O. c #5D6B6F",
"+. c #596567",
"@. c #5F6D71",
"#. c #4C6067",
"$. c #706E6F",
"%. c #686A76",
"&. c #68777B",
"*. c #68757A",
"=. c #73767C",
"-. c #82341A",
";. c #893B1D",
":. c #863B25",
">. c #853E33",
",. c #99471E",
"<. c #A44E1C",
"1. c #964821",
"2. c #875836",
"3. c #864A35",
"4. c #A85C2A",
"5. c #B25F27",
"6. c #A05B32",
"7. c #B7682C",
"8. c #A76437",
"9. c #B47538",
"0. c #AC662F",
"q. c #C37A35",
"w. c #D07B33",
"e. c #D1782C",
"r. c #8C5B46",
"t. c #916445",
"y. c #AD6E42",
"u. c #B77741",
"i. c #A87C57",
"p. c #C6813A",
"a. c #CA8339",
"s. c #DA8637",
"d. c #EF983D",
"f. c #A28C52",
"g. c #B19756",
"h. c #BFA267",
"j. c #CF8F40",
"k. c #C5964D",
"l. c #C09E53",
"z. c #D79648",
"x. c #EA9A47",
"c. c #D6A14D",
"v. c #E4A94C",
"b. c #E5A35E",
"n. c #EDBC56",
"m. c #E8B559",
"M. c #F2BD56",
"N. c #F5A64E",
"B. c #CEBB7D",
"V. c #CCAA7E",
"C. c #F4BA72",
"Z. c #FAC658",
"A. c #6D5888",
"S. c #6C7982",
"D. c #757E86",
"F. c #86708A",
"G. c #76868A",
"H. c #78878C",
"J. c #79888D",
"K. c #7D8D92",
"L. c #7E9198",
"P. c #898D88",
"I. c #809196",
"U. c #8A9695",
"Y. c #8F9794",
"T. c #B7A58A",
"R. c #8C81A1",
"E. c #938AA6",
"W. c #AFA9BC",
"Q. c #B2A1B2",
"!. c #CEBF9B",
"~. c #CCB089",
"^. c #E6BC81",
"/. c #D3C49F",
"(. c #FBD495",
"). c #FDDC9E",
"_. c #F1CB8A",
"`. c #D6C8A3",
"'. c #FCDCA1",
"]. c #F1D7A2",
"[. c #FFE7A5",
"{. c #C1BDC5",
"}. c #BFC6D7",
"|. c #C8C9C7",
" X c #C7C2DB",
".X c #F0EDCC",
"XX c #E3DEE4",
"oX c #DDE0EC",
"OX c #E8E8EA",
"+X c #E8EDF3",
"@X c #F0EDF0",
"#X c #FCFDFD",
/* pixels */
"                                                                                                    ",
"                                                                                                    ",
"                                                                                                    ",
"                                                                                                    ",
"                                                                                                    ",
"                                                                                                    ",
"                                                                                                    ",
"                                                                                                    ",
"                                                                                                    ",
"                                                                                                    ",
"                                          j j j j j j                                               ",
"                                      j j a i j j j j j j j                                         ",
"                                      j a w r a j j j j j j                                         ",
"                                    s s h h h h j j j j j j                                         ",
"                                    i a s.d.x.w.;.j j j j j j                                       ",
"                                  j i p ^.(.(.C.e.;.f j j j j                                       ",
"                                  i r t T ~.[.V.N X p j j j j j                                     ",
"                              4 g a w t L T.[.T.P =.y.,.f j j j j                                   ",
"                            5 D C u w y S./.'.!.L..Xb.<.f j j j j                                   ",
"                            D c.0.i w p ^.).'.'.).(.8.s j j j j j j                                 ",
"                              7.c.9.a u s._.'.).(.x.1.j j j j j j j                                 ",
"                                q.a.9.s -.F 9.N.x.4.;.j -.f f j j j                                 ",
"                                  a.q.1.y D i.C.b.;.' ] C 1.1.-.j                                   ",
"                                  7.4.2.[ P./.).C.r.$.#.~ q.q.0.                                    ",
"                                7.5.2.( G./.].C.j.P.| 0 G n.n.v.l.                                  ",
"                                5.F ! G.K.U.U.U.P.K.[ P G Z.Z.J 6 Q L.K.                            ",
"                              7 V 7 Q K.L.L.K.L.K.+.W E D D D 8 Q =.L.L.                            ",
"                            W P 5 5 q G.@.O.O.O.+.W W W   4 4 4 o.U.J.%.                            ",
"                            W W q 8     _ ( { | { W Q =.    5 5 +.K.&.o.*.                          ",
"                            W W W       K.K.K.K.G.( W Y.+X      J.&.( H.K.                          ",
"                          W W W       K.I.K.K.K.K.G._ ^ S.}.      o.G.K.K.K.                        ",
"                        : : 2 W     ] l.T U R U ` |.B.J K ..OX    *.L.I.I.I.                        ",
"                        O . O 9     A p.n z v z m _.m.3.% I OX#X    K.} ^ ^                         ",
"                        O O O o     b :.n c c x M u.6.m % I Q.OX#X   .@ . .                         ",
"                          O O       + - c c c c c c ; @ @ , 1 E.+X|.2 O O O                         ",
"                                  O O + l c c c c c & O O @ , A.{.#X X2 O                           ",
"                                  O O + x c c c c c * o o O < R.oX#X#X{.%.                          ",
"                                  O o O l c c c c c * o o O < X.W.+X#X#X                            ",
"                                    @ b x c c l c c * * > > & $ F.+X#X#X                            ",
"                                      4.M c k - c c $ S q.4.> $ F.@X#X#X                            ",
"                                      c.S v k - c v $ J M.v.0.b K Y                                 ",
"                                      n.k.Z - - c v = r.Z.M.v.A , &                                 ",
"                                      Z.M.>.k k c c - t.Z.M.f.~ 1 <                                 ",
"                                      n.l.r.    c l = ] k.g.+.| T                                   ",
"                                        ) S.    x - < < 3 / G.K.K.                                  ",
"                                        H.K.    c   < < < K D.I.                                    ",
"                                        I.L.          < =   K.I.I.                                  ",
"                                      / O.G.I.              @.@.@.                                  ",
"                                      W W &.                W W                                     ",
"                                                                                                    "
};
