/* XPM */
static char *psl61641565252[] = {
/* columns rows colors chars-per-pixel */
"50 50 196 2 ",
"   c None",
".  c #0E001F",
"X  c #0E0021",
"o  c #120022",
"O  c #1A0024",
"+  c #190D29",
"@  c #170927",
"#  c #240225",
"$  c #2B022D",
"%  c #230527",
"&  c #37042B",
"*  c #36152A",
"=  c #2D0332",
"-  c #2A0A34",
";  c #330631",
":  c #350831",
">  c #2E1B3B",
",  c #3E143E",
"<  c #2D1326",
"1  c #2B2C2D",
"2  c #25272A",
"3  c #3A342E",
"4  c #32223E",
"5  c #2D353A",
"6  c #313435",
"7  c #2F2934",
"8  c #4C0E0A",
"9  c #49100F",
"0  c #5C1A0F",
"q  c #471415",
"w  c #621D11",
"e  c #5B221A",
"r  c #632111",
"t  c #6C2413",
"y  c #63261B",
"u  c #702715",
"i  c #752916",
"p  c #772E19",
"a  c #7A2F19",
"s  c #7D311A",
"d  c #48072B",
"f  c #4B0828",
"g  c #520626",
"h  c #550B28",
"j  c #570A27",
"k  c #481827",
"l  c #5A1329",
"z  c #551227",
"x  c #4E1635",
"c  c #5D1B34",
"v  c #601529",
"b  c #5B2A23",
"n  c #42203A",
"m  c #5B2032",
"M  c #463C33",
"N  c #4D2525",
"B  c #672D27",
"V  c #67353A",
"C  c #7D3F31",
"Z  c #612A33",
"A  c #4A4031",
"S  c #63553B",
"D  c #76553C",
"F  c #67432F",
"G  c #332B42",
"H  c #382944",
"J  c #363C45",
"K  c #24345D",
"L  c #502941",
"P  c #523448",
"I  c #4D2F50",
"U  c #3C4446",
"Y  c #3A4449",
"T  c #3E4A4D",
"R  c #3C4A50",
"E  c #304972",
"W  c #414B4D",
"Q  c #434849",
"!  c #434E51",
"~  c #4D5A5D",
"^  c #465257",
"/  c #545554",
"(  c #6E4040",
")  c #665F5D",
"_  c #7D5F57",
"`  c #4E5D61",
"'  c #515E62",
"]  c #546165",
"[  c #5C6A6E",
"{  c #576569",
"}  c #5E6C70",
"|  c #646D6D",
" . c #656D66",
".. c #616671",
"X. c #69767C",
"o. c #82341B",
"O. c #883C28",
"+. c #984719",
"@. c #A7511D",
"#. c #9F4E22",
"$. c #944827",
"%. c #834131",
"&. c #9C5937",
"*. c #9A5026",
"=. c #A35A28",
"-. c #A05E3C",
";. c #B45E26",
":. c #A8602E",
">. c #B4632A",
",. c #BB7232",
"<. c #BE7F3B",
"1. c #AE6A39",
"2. c #C8732B",
"3. c #C57B35",
"4. c #865C40",
"5. c #826D40",
"6. c #887A52",
"7. c #916C51",
"8. c #A66740",
"9. c #CA8439",
"0. c #E28C3A",
"q. c #F49C3F",
"w. c #9C8852",
"e. c #AA925A",
"r. c #B19574",
"t. c #D88F42",
"y. c #D29140",
"u. c #D49C47",
"i. c #C88D52",
"p. c #CC8E4C",
"a. c #E5994B",
"s. c #DDA047",
"d. c #D9AD52",
"f. c #DFB356",
"g. c #CDA454",
"h. c #E1A14E",
"j. c #F9AC53",
"k. c #EAB754",
"l. c #F1BE57",
"z. c #C0A27D",
"x. c #E8B774",
"c. c #EAAE67",
"v. c #F4C157",
"b. c #F6C459",
"n. c #FCC859",
"m. c #E9CC7F",
"M. c #F1C17E",
"N. c #6E5889",
"B. c #797E86",
"V. c #707F84",
"C. c #8A738D",
"Z. c #876C87",
"A. c #8A7FA0",
"S. c #718185",
"D. c #77868B",
"F. c #788289",
"G. c #7A8A8E",
"H. c #7E8D92",
"J. c #838C8E",
"K. c #8C908A",
"L. c #87908D",
"P. c #828F92",
"I. c #87829C",
"U. c #809195",
"Y. c #839499",
"T. c #889698",
"R. c #A4A799",
"E. c #B9AC90",
"W. c #948AA4",
"Q. c #979AA7",
"!. c #A3A5A3",
"~. c #C0A581",
"^. c #D0AD80",
"/. c #CCB78F",
"(. c #DCC89C",
"). c #FAC983",
"_. c #F1CE94",
"`. c #FFDF9D",
"'. c #FBD797",
"]. c #DDCBA0",
"[. c #E0CDA1",
"{. c #FEDFA3",
"}. c #E6D3A5",
"|. c #FFE4A2",
" X c #FFEAA8",
".X c #B2B4C6",
"XX c #C1BDC4",
"oX c #B9C4C5",
"OX c #CCC8DF",
"+X c #D3D4D1",
"@X c #F6ECC3",
"#X c #E2DFE3",
"$X c #E5E5EC",
"%X c #FEFEFE",
"&X c #F6F5F6",
"*X c #E8EDF3",
/* pixels */
"                                                                                                    ",
"                                                                                                    ",
"                                                                                                    ",
"                                                                                                    ",
"                                                                                                    ",
"                                                                                                    ",
"                                                                                                    ",
"                                                                                                    ",
"                                                                                                    ",
"                                          p s s s s s s                                             ",
"                                      s s 0 r s s s s s s s                                         ",
"                                      a 0 8 8 0 s s s s s s                                         ",
"                                    u t +.+.@.+.a s s s s s s                                       ",
"                                  o.t r a.j.j.0.#.o.s s s s s                                       ",
"                                  o.t e z.`.|.M.2.s p s s s s                                       ",
"                                    u 9 * E. Xz.< % y o.s s s s                                     ",
"                            1 2     u q K E.|.E.E !.i.;.a o.a a s                                   ",
"                            6 5.    t e K.[.|.(.R.@Xi.+.a a a o.s                                   ",
"                            A u.  *.t e x.'.{.'.`.).&.i o.a a o.s                                   ",
"                              >.s.<.p r 2.x._.'.).0.+.s a a o.a s                                   ",
"                                >.y.y.p e e :.j.0.+.s s a O.a o.s                                   ",
"                                  3.,.=.M / r.).x.$._ ) F *.#.o.i                                   ",
"                                  ;.=.( | R.}.'.c.7. .^ / 9.t.9.                                    ",
"                                >.=.D ] G./.].^.e.H.` 6 D v.v.g.e.                                  ",
"                                =.F Q H.H.H.P.U.P.F.` 5 S d.d.S ] U.H.                              ",
"                                3 1 Q J.H.H.H.H.D.~ W T U M A | G.H.H.                              ",
"                              R U 6 6 W ~ ' ~ ' ~ W T T     1 X.Y.S.]                               ",
"                              ! W U 6 1 ] [ [ [ [ W Y L.      V.S.[ [ D.                            ",
"                              R W W W ^ G.Y.U.Y.H.] R G.+X    V.[ [ H.H.                            ",
"                            Y Y T J   K.F.F.F.B.D.Y. .Y [ .X  W [ Y.H.U.                            ",
"                            @ + J H F g.n c c x I +X_.&.; I #X  S.H.H.H.                            ",
"                            X X + - Z ,.z g g g b M.h.C = L $X%X.XX.G G                             ",
"                            o o X O * B l j h h v &.O.x % , C.#XQ.4 X .                             ",
"                            o o     o $ h j h h h h ; o o $ $ I.A.H . .                             ",
"                                    o O h h h j h h % o o o $ N.OX.X> 4                             ",
"                                  o o O f h h h h j % X o o ; W.$X&X#X#X                            ",
"                                  o o o # d j j h j % X X o : I W.*X%X%X                            ",
"                                    * b b h h j j h & k B b % # C.*X%X%X                            ",
"                                      3.3.O.v h f h h $.9.,.N $ Z.%X%X%X                            ",
"                                      l.l.9.O.d : h g 8.b.k.,.x -                                   ",
"                                      l.l.l.-.d ; h f 8.b.l.k.V                                     ",
"                                      v.v.w.M & ; g g 1.n.k.6.n $                                   ",
"                                      f.w./ 4 - ; h d V 7.w.W G 4                                   ",
"                                        ` ` I - ; d ; $ > Y ` ] ]                                   ",
"                                        H.H.    ; ; ;     ^ D.H.H.                                  ",
"                                        H.H.      ;         H.H.P.                                  ",
"                                        U.H.H.              U.U.U.                                  ",
"                                      ^ } D.U.              [ [ [                                   ",
"                                      W W X.                T T                                     ",
"                                                                                                    "
};
