/* XPM */
static char *psr21641565253[] = {
/* columns rows colors chars-per-pixel */
"50 50 201 2 ",
"   c None",
".  c #0E001E",
"X  c #0E0022",
"o  c #130022",
"O  c #1A0124",
"+  c #1A0C2A",
"@  c #170927",
"#  c #1D1131",
"$  c #24022A",
"%  c #2D012E",
"&  c #2A0728",
"*  c #340625",
"=  c #370A2C",
"-  c #21102D",
";  c #2C0231",
":  c #260030",
">  c #320532",
",  c #320833",
"<  c #2D1B39",
"1  c #24262A",
"2  c #2B2B2C",
"3  c #282726",
"4  c #31223E",
"5  c #323435",
"6  c #373939",
"7  c #2B3237",
"8  c #470F0E",
"9  c #54150D",
"0  c #491617",
"q  c #621E11",
"w  c #5B2219",
"e  c #632213",
"r  c #6D2414",
"t  c #6A281A",
"y  c #772D18",
"u  c #7A2E19",
"i  c #732815",
"p  c #7D311A",
"a  c #753016",
"s  c #460927",
"d  c #46052B",
"f  c #490629",
"g  c #4D092A",
"h  c #450829",
"j  c #510627",
"k  c #550B28",
"l  c #590B28",
"z  c #540827",
"x  c #591629",
"c  c #4D1D36",
"v  c #611327",
"b  c #5C2A23",
"n  c #582130",
"m  c #423C31",
"M  c #4C2D26",
"N  c #612E23",
"B  c #723628",
"V  c #642530",
"C  c #68373A",
"Z  c #7D3832",
"A  c #4E4B3E",
"S  c #5F4F3F",
"D  c #784334",
"F  c #655638",
"G  c #71472A",
"H  c #3C1440",
"J  c #2E2040",
"K  c #312A42",
"L  c #352741",
"P  c #333B41",
"I  c #393947",
"U  c #4D2448",
"Y  c #4A3948",
"T  c #452150",
"R  c #3B4445",
"E  c #3A4349",
"W  c #3E4A4D",
"Q  c #364044",
"!  c #3C4A50",
"~  c #33496E",
"^  c #404B4E",
"/  c #4C4846",
"(  c #424F53",
")  c #465356",
"_  c #485458",
"`  c #4A5052",
"'  c #565654",
"]  c #545248",
"[  c #4D5C61",
"{  c #515E62",
"}  c #5D5665",
"|  c #56656B",
" . c #5D6B6E",
".. c #556165",
"X. c #5E6D71",
"o. c #78706F",
"O. c #6B6A76",
"+. c #6B797E",
"@. c #677279",
"#. c #736874",
"$. c #87381B",
"%. c #8A3B1B",
"&. c #80341B",
"*. c #883E21",
"=. c #863A2B",
"-. c #AB561E",
";. c #B15C1E",
":. c #8C442B",
">. c #844C26",
",. c #9A4C24",
"<. c #955A31",
"1. c #8D5A3D",
"2. c #AA5E2A",
"3. c #B15F28",
"4. c #B55F26",
"5. c #BA6727",
"6. c #A5653F",
"7. c #B06E31",
"8. c #B77234",
"9. c #AB642E",
"0. c #C57C36",
"q. c #8F5C41",
"w. c #8C7441",
"e. c #907842",
"r. c #887A52",
"t. c #966E49",
"y. c #BF7F4E",
"u. c #A96840",
"i. c #CD873B",
"p. c #DE8D3B",
"a. c #E0842F",
"s. c #F39637",
"d. c #9C8852",
"f. c #8E8876",
"g. c #AC8D70",
"h. c #B99F7F",
"j. c #D29D4E",
"k. c #C59D4D",
"l. c #DEAD5F",
"z. c #DFB356",
"x. c #E5AD4F",
"c. c #E8A658",
"v. c #EAB352",
"b. c #E8B655",
"n. c #F1BE56",
"m. c #C48F62",
"M. c #C19B6C",
"N. c #CDAF7F",
"B. c #ECAC61",
"V. c #FDBE6C",
"C. c #F0B974",
"Z. c #F4C157",
"A. c #F7C559",
"S. c #FCC859",
"D. c #F9CC7D",
"F. c #446286",
"G. c #6D7C80",
"H. c #717F83",
"J. c #7F6E9C",
"K. c #767691",
"L. c #827299",
"P. c #8474A2",
"I. c #738285",
"U. c #76868B",
"Y. c #78878C",
"T. c #79898D",
"R. c #7D8E93",
"E. c #7F9296",
"W. c #7B909B",
"Q. c #819196",
"!. c #8E969E",
"~. c #8C8F87",
"^. c #A29F8E",
"/. c #9BA097",
"(. c #B7A387",
"). c #BEB296",
"_. c #A5A899",
"`. c #9699AE",
"'. c #908CA3",
"]. c #A099B0",
"[. c #99A4A7",
"{. c #A0AAB3",
"}. c #CABE9D",
"|. c #E8BD81",
" X c #E9CA95",
".X c #EAD09E",
"XX c #FBD899",
"oX c #CACEBF",
"OX c #FFDEA0",
"+X c #E8D8B0",
"@X c #FFE3A4",
"#X c #FFE8A9",
"$X c #FBE7B5",
"%X c #ABAEC6",
"&X c #C9BEC8",
"*X c #CCCDDB",
"=X c #D4DCE9",
"-X c #E1DFE3",
";X c #FDFFFF",
":X c #F4F4F6",
">X c #E6EBF1",
/* pixels */
"                                                                                                    ",
"                                                                                                    ",
"                                                                                                    ",
"                                                                                                    ",
"                                                                                                    ",
"                                                                                                    ",
"                                                                                                    ",
"                                              p p p p p                                             ",
"                                            p p p p &.y i                                           ",
"                                        p p p p p p p 9 9 u p                                       ",
"                                        p p p p p p q 9 9 9 u                                       ",
"                                      p p p p p p u -.5.0.;.e i                                     ",
"                                      p p p p p $.5.c.V.V.c.q r &.                                  ",
"                                    p p p p p i e <.C.@X Xg.w r                                     ",
"                                    p p p p &.a < # h.#Xh.+ 8 i     m 2                             ",
"                                  p p p p u -.c.*XF.).OX}.~ 0 i     k.m                             ",
"                                  p p p p p %.y.#X}..XXX+X(.e r 8.x.0.                              ",
"                                  p p p u p y :.m.XX@XXXXXc.e e 9.i.                                ",
"                                  u p %.%.B D D *.C.D. XN.7.a &.,.                                  ",
"                                  *.,.7.5.] | o.:.p.s.g.I.' <.3.4.                                  ",
"                                  x.x.v.v.F 6 | f.p.C.XX}.I.' <.9.9.                                ",
"                                    e.A.A.F 7 ..Q.f.^._./.R.G.A >.5.                                ",
"                                  1 m w.w./ R _ @.R.R.R.E.Q.Q.^ M G                                 ",
"                                ` 6 3 1 1 P W W ) @.+.+.+.+.O.R 2 2                                 ",
"                              R.Q...5 2     ..W W ) _ _ _ ) 7 2 2 2                                 ",
"                              R.R.T.H.    ;X[.R ) I.Y.U.Y.G.6 3 2 2                                 ",
"                              { H.Q.R.  *X=X!.R ) U.E.E.E.R.  3 5 R W                               ",
"                            U.X. .G.[.:X>X{.| (  .R.E.E.Q.Q.W.^ R ( W                               ",
"                            R.W. ...[.:X&X} / f.[.+.O.#.O.O.^.' I W )                               ",
"                            R.R.Q.@.~.*XT ; 1.D.+XU f l f c j.C L W E E                             ",
"                            R.R.T.[.%XP.H ; B j.B.V z k k x 2.n L P @ @                             ",
"                            J K G.`.J.T , O * V Z l k k l l x & + + o o                             ",
"                            . . K K.J.> $ o & d j k k k k k $ o X o o o                             ",
"                            . . 4 '.`.> o . * l k k k k k z o o     o o                             ",
"                            < 4 `.=X'., o X * l k k k l k s o o o                                   ",
"                            -X-X:X;X  ; O o * l k k k l s O o o                                     ",
"                                    $ O X X * l k h g l h X X o                                     ",
"                                  % % o b N x k z > g k x b b                                       ",
"                                  , = M 8.i.=.l k > g v =.0.0.                                      ",
"                                  : x 8.v.Z.6.j g , d =.i.n.n.                                      ",
"                                  : C x.n.A.u.f > > % q.n.Z.n.                                      ",
"                                  I / r.b.S.u.f > > > Y d.Z.Z.                                      ",
"                                  W W ^ d.t.C > > > , K ' d.b.                                      ",
"                                  { { [ ! J : ; > > ; Y { _                                         ",
"                                  R.R.U._     > > ,     R.R.                                        ",
"                                  R.R.R.        >       R.R.                                        ",
"                                  Q.Q.Q.              R.R.Q.                                        ",
"                                   . . .              Q.I. .)                                       ",
"                                    W W                 +.W ^                                       ",
"                                                                                                    "
};
