/* XPM */
static char *psr31641565253[] = {
/* columns rows colors chars-per-pixel */
"50 50 196 2 ",
"   c None",
".  c #0E001E",
"X  c #0E0022",
"o  c #130123",
"O  c #1A0123",
"+  c #170927",
"@  c #1D002A",
"#  c #1D1131",
"$  c #22022A",
"%  c #2A022E",
"&  c #220829",
"*  c #330525",
"=  c #3D042E",
"-  c #361227",
";  c #2C0332",
":  c #2F0936",
">  c #330632",
",  c #3A0730",
"<  c #321639",
"1  c #361A3C",
"2  c #2C1C36",
"3  c #1D2026",
"4  c #2C2C2C",
"5  c #26272A",
"6  c #2C3133",
"7  c #35393B",
"8  c #362E37",
"9  c #4D0E0A",
"0  c #490C09",
"q  c #5A190E",
"w  c #491617",
"e  c #611A0F",
"r  c #631E12",
"t  c #5A231B",
"y  c #652113",
"u  c #662718",
"i  c #742C19",
"p  c #7A2F19",
"a  c #772B16",
"s  c #6A301E",
"d  c #7D311A",
"f  c #74331F",
"g  c #49092C",
"h  c #480729",
"j  c #520627",
"k  c #550927",
"l  c #550B28",
"z  c #580B28",
"x  c #5A1329",
"c  c #591827",
"v  c #4E1635",
"b  c #51192F",
"n  c #60162A",
"m  c #492427",
"M  c #5B2A23",
"N  c #5F2534",
"B  c #662C26",
"V  c #7B3824",
"C  c #60333B",
"Z  c #7D3F31",
"A  c #772C2C",
"S  c #4A4031",
"D  c #544B38",
"F  c #655639",
"G  c #624B3C",
"H  c #342741",
"J  c #312943",
"K  c #343A42",
"L  c #373547",
"P  c #502941",
"I  c #50304F",
"U  c #493754",
"Y  c #5A375B",
"T  c #472E4B",
"R  c #3A474B",
"E  c #3E4A4D",
"W  c #3B4446",
"Q  c #3C4950",
"!  c #334A6F",
"~  c #414C4E",
"^  c #434747",
"/  c #564C46",
"(  c #565D4F",
")  c #414F50",
"_  c #465255",
"`  c #4B5556",
"'  c #525A5C",
"]  c #6C4040",
"[  c #73634B",
"{  c #4D5C61",
"}  c #515F63",
"|  c #604779",
" . c #546266",
".. c #5D6B6F",
"X. c #5E676A",
"o. c #636B72",
"O. c #6B7A7F",
"+. c #657377",
"@. c #716C67",
"#. c #82341B",
"$. c #8A3B1D",
"%. c #8A3F20",
"&. c #833F35",
"*. c #9C4C1A",
"=. c #98451B",
"-. c #A44F1D",
";. c #A5521C",
":. c #894829",
">. c #834133",
",. c #975436",
"<. c #A85C27",
"1. c #B75E23",
"2. c #826C3F",
"3. c #99613B",
"4. c #B4652B",
"5. c #A4683B",
"6. c #B97334",
"7. c #BD7E3B",
"8. c #B86F33",
"9. c #C77B34",
"0. c #865C40",
"q. c #9C674A",
"w. c #887B52",
"e. c #906A49",
"r. c #A46540",
"t. c #8A7567",
"y. c #CE8337",
"u. c #E28A36",
"i. c #F3993B",
"p. c #9B8650",
"a. c #B4924A",
"s. c #AF8F69",
"d. c #B99F7F",
"f. c #CB8945",
"g. c #DB9E47",
"h. c #D29644",
"j. c #E49646",
"k. c #E19A53",
"l. c #DFB356",
"z. c #D6A351",
"x. c #E1A34C",
"c. c #ECBA57",
"v. c #E9B452",
"b. c #F1BE57",
"n. c #FAAC54",
"m. c #C09A6C",
"M. c #DAAF7D",
"N. c #E6B874",
"B. c #FBB563",
"V. c #F3C057",
"C. c #F7C559",
"Z. c #FBC85A",
"A. c #E9CC7F",
"S. c #456286",
"D. c #6E7D82",
"F. c #797E86",
"G. c #707F84",
"H. c #88738D",
"J. c #877C9D",
"K. c #76868B",
"L. c #78848B",
"P. c #79898E",
"I. c #778485",
"U. c #7D8D93",
"Y. c #7F9095",
"T. c #858D8F",
"R. c #819195",
"E. c #869599",
"W. c #938C95",
"Q. c #B8A88B",
"!. c #AFAD99",
"~. c #BCB296",
"^. c #A296AB",
"/. c #A8A8B0",
"(. c #C6BD9E",
"). c #E9BF81",
"_. c #ECC085",
"`. c #EECB92",
"'. c #EAD09E",
"]. c #FCD99C",
"[. c #F9D699",
"{. c #C9CDBF",
"}. c #EDD5A1",
"|. c #FEDEA1",
" X c #FFE3A3",
".X c #FFE9A6",
"XX c #F8E3B2",
"oX c #B7B4CB",
"OX c #CFCDD7",
"+X c #D0CCD2",
"@X c #D3D5CB",
"#X c #E3DFE4",
"$X c #E7E4E8",
"%X c #E4E9F2",
"&X c #FDFDFD",
"*X c #F8F9FB",
/* pixels */
"                                                                                                    ",
"                                                                                                    ",
"                                                                                                    ",
"                                                                                                    ",
"                                                                                                    ",
"                                                                                                    ",
"                                                                                                    ",
"                                                                                                    ",
"                                                                                                    ",
"                                            d d d d d p i                                           ",
"                                        d d d d d d d y q d d                                       ",
"                                        d d d p d p r 9 9 q p                                       ",
"                                      d d d d p #.4.;.*.-.*.y i                                     ",
"                                    d d d d #.a u <.j.n.j.<.q r i                                   ",
"                                  d d d d d #.B 2 # d..Xd.# 0 9 y #.                                ",
"                                d d d d p #.a q.{.S.~. X~.! w 9 y #.                                ",
"                                d d d d d p -.k.XX(.'.|.}.Q.t 0 y s 5 4                             ",
"                                d d d d d d =.f.|. X|.|.|.`.u 0 q :.2.7                             ",
"                                d d d p d d a ,.).[.|.|.[.N.t 9 f 6.g.S                             ",
"                                d d #.#.#.d V V &.).[.[.N.9.r i 7.g.4.                              ",
"                                  d :.<.<.G X.@.=.u.j.m.T./ f f.y.8.                                ",
"                                    g.x.j.F R X.t.u.B.`.~.+./ 5.9.                                  ",
"                                    a.Z.Z.F 6 } E.s.Q.~.!.U...3.4.                                  ",
"                                  3 S a.a.D W ` O.Y.U.U.U.Y.U.e.:.:.                                ",
"                            U.U.` 6 4 4 6 W E E _ I.P.K.K.K.K.W 4 4 4                               ",
"                            U.U.L.` 4 4     E E E Q _ _ _ _ 7 6 4 7 W ~                             ",
"                             .P.E.' 4         E _ +.O.O.O.+.    K R E ~                             ",
"                          G.....L.+.        T.R _ U.Y.Y.R.E.      ~ E ~ ~                           ",
"                        U.R.U.} +.        OXP.R  .P.E.E.R.R.        E K K K                         ",
"                        U.U.U.U. .      oXo.^ @.E.F.F.F.I.L.T.      K + o o                         ",
"                        U.U.R.R.      #XY ; 2._.@XI v b v P z.]     + o o o                         ",
"                        H H L P.    &X$XP % Z x.N.N j l j c 6.N ;     o o X                         ",
"                        . . o L /.&XOXH.v @ v G <.n k z k x B - @       o                           ",
"                        o o @ _ +X%XJ.; % @ @ g j k k z x g % O o                                   ",
"                          o U #X&XoX| % o o * z z z z k z j O o o                                   ",
"                            #X*X&XW.: o X X * z l z z z z g O o o                                   ",
"                            &X&X%XH.$ o X X * z l z z z h O o X o                                   ",
"                            &X&X^.U O o M B c z l g l z x M M -                                     ",
"                            &X*XY O O m 8.y.:.j g > g k A 9.9.                                      ",
"                                > @ m 6.v.C.5.j l > g j &.c.V.                                      ",
"                                > 2 [ v.V.C.q.j l , > h >.b.V.                                      ",
"                                > 1 ` w.c.Z.q.h g > ; 2 [ V.V.                                      ",
"                                  L R ~ p.e.P , l > > 1 ( p.l.                                      ",
"                                     .{ R 2 > , g , > U } {                                         ",
"                                  U.U.K._ < > > : >     U.U.                                        ",
"                                  U.U.U.  : > > >       U.U.                                        ",
"                                  R.R.R.    > >       U.U.R.                                        ",
"                                  ......              R.K..._                                       ",
"                                    R R                 O.~ ~                                       ",
"                                                                                                    "
};
