/* XPM */
static char *psr41641565253[] = {
/* columns rows colors chars-per-pixel */
"50 50 192 2 ",
"   c None",
".  c #0E001E",
"X  c #2F0A1B",
"o  c #0E0022",
"O  c #120022",
"+  c #1A0125",
"@  c #1C0529",
"#  c #1F152F",
"$  c #230223",
"%  c #260029",
"&  c #2A012D",
"*  c #250823",
"=  c #32032E",
"-  c #3B052E",
";  c #3D092E",
":  c #20172F",
">  c #391724",
",  c #2F0631",
"<  c #320632",
"1  c #330A34",
"2  c #2A1D39",
"3  c #36143A",
"4  c #22242A",
"5  c #2A2929",
"6  c #302E2B",
"7  c #3A322B",
"8  c #33312E",
"9  c #282733",
"0  c #2E3337",
"q  c #373C3D",
"w  c #4C0D09",
"e  c #4A0B07",
"r  c #54130C",
"t  c #4A1212",
"y  c #501C1A",
"u  c #631F11",
"i  c #6B2414",
"p  c #61251A",
"a  c #672012",
"s  c #722916",
"d  c #7A2E15",
"f  c #7A2E19",
"g  c #6F301D",
"h  c #7A3113",
"j  c #7D311A",
"k  c #42082D",
"l  c #4D0A2A",
"z  c #4A0526",
"x  c #540A27",
"c  c #560B28",
"v  c #560724",
"b  c #451928",
"n  c #59142A",
"m  c #581F38",
"M  c #63182A",
"N  c #542427",
"B  c #493B38",
"V  c #4A312A",
"C  c #793D25",
"Z  c #762F31",
"A  c #653237",
"S  c #662B2A",
"D  c #5F523B",
"F  c #6D402E",
"G  c #645638",
"H  c #774D35",
"J  c #76633C",
"K  c #3B1D41",
"L  c #1B2048",
"P  c #22305A",
"I  c #451D45",
"U  c #572D48",
"Y  c #532E53",
"T  c #513C4B",
"R  c #633146",
"E  c #3B464A",
"W  c #3E4A4D",
"Q  c #434A4D",
"!  c #484944",
"~  c #514244",
"^  c #464A56",
"/  c #455154",
"(  c #4E5A5E",
")  c #4A5557",
"_  c #515D5F",
"`  c #58425E",
"'  c #7A5443",
"]  c #724D49",
"[  c #59605F",
"{  c #4F5D61",
"}  c #4F5062",
"|  c #525E61",
" . c #525565",
".. c #6B5172",
"X. c #654B6D",
"o. c #536065",
"O. c #5D6B6F",
"+. c #596567",
"@. c #5F6D71",
"#. c #4C6067",
"$. c #706E6F",
"%. c #686A76",
"&. c #68777B",
"*. c #68757A",
"=. c #73767C",
"-. c #82341A",
";. c #893B1D",
":. c #863B25",
">. c #853E33",
",. c #99471E",
"<. c #A44E1C",
"1. c #964821",
"2. c #875836",
"3. c #864A35",
"4. c #A85C2A",
"5. c #B25F27",
"6. c #A05B32",
"7. c #B7682C",
"8. c #A76437",
"9. c #B47538",
"0. c #AC662F",
"q. c #C37A35",
"w. c #D07B33",
"e. c #D1782C",
"r. c #8C5B46",
"t. c #916445",
"y. c #AD6E42",
"u. c #B77741",
"i. c #A87C57",
"p. c #C6813A",
"a. c #CA8339",
"s. c #DA8637",
"d. c #EF983D",
"f. c #A28C52",
"g. c #B19756",
"h. c #BFA267",
"j. c #CF8F40",
"k. c #C5964D",
"l. c #C09E53",
"z. c #D79648",
"x. c #EA9A47",
"c. c #D6A14D",
"v. c #E4A94C",
"b. c #E5A35E",
"n. c #EDBC56",
"m. c #E8B559",
"M. c #F2BD56",
"N. c #F5A64E",
"B. c #CEBB7D",
"V. c #CCAA7E",
"C. c #F4BA72",
"Z. c #FAC658",
"A. c #6D5888",
"S. c #6C7982",
"D. c #757E86",
"F. c #86708A",
"G. c #76868A",
"H. c #78878C",
"J. c #79888D",
"K. c #7D8D92",
"L. c #7E9198",
"P. c #898D88",
"I. c #809196",
"U. c #8A9695",
"Y. c #8F9794",
"T. c #B7A58A",
"R. c #8C81A1",
"E. c #938AA6",
"W. c #AFA9BC",
"Q. c #B2A1B2",
"!. c #CEBF9B",
"~. c #CCB089",
"^. c #E6BC81",
"/. c #D3C49F",
"(. c #FBD495",
"). c #FDDC9E",
"_. c #F1CB8A",
"`. c #D6C8A3",
"'. c #FCDCA1",
"]. c #F1D7A2",
"[. c #FFE7A5",
"{. c #C1BDC5",
"}. c #BFC6D7",
"|. c #C8C9C7",
" X c #C7C2DB",
".X c #F0EDCC",
"XX c #E3DEE4",
"oX c #DDE0EC",
"OX c #E8E8EA",
"+X c #E8EDF3",
"@X c #F0EDF0",
"#X c #FCFDFD",
/* pixels */
"                                                                                                    ",
"                                                                                                    ",
"                                                                                                    ",
"                                                                                                    ",
"                                                                                                    ",
"                                                                                                    ",
"                                                                                                    ",
"                                                                                                    ",
"                                                                                                    ",
"                                                                                                    ",
"                                              j j j j j j                                           ",
"                                        j j j j j j j i u -.j                                       ",
"                                        j j j j j j i r w u j                                       ",
"                                        j j j j j f h h h h s s                                     ",
"                                      j j j j j -.;.w.x.d.s.u i                                     ",
"                                      j j j j f ;.e.C.(.(.^.p i -.                                  ",
"                                    j j j j j p X N V.[.~.T r r i                                   ",
"                                  j j j j j ,.y.=.P T.[.T.L t e i g 4                               ",
"                                  j j j j f <.b..XL.!.[./.S.y e u g D 5                             ",
"                                j j j j j j f 8.(.).'.'.).^.p e a 0.c.D                             ",
"                                j j j j j j f 1.x.(.).)._.s.u a 9.c.7.                              ",
"                                j j j f j j h ;.<.x.N.9.C h s 9.a.q.                                ",
"                                  f -.,.1.A ] ' :.b.C.i.B V 1.q.a.                                  ",
"                                    0.q.q.D #.$.r.C.).`.Y.[ 2.4.7.                                  ",
"                                  l.m.n.n.G 0 #.P.z.C.].!.J.( 2.5.5.                                ",
"                            K.K.Q 5 J Z.n.G 0 { K.P.U.U.I.L.G.! F <.                                ",
"                            I.K.=.Q 8 G G ! E / | K.L.L.L.K.K.Q 7 D 5                               ",
"                            *.J.I.[ 5 4 4   W W ^ +.O.O.O.%.G.q 6 0 K W                             ",
"                          *.o.&.K.O.5 5     =.W Q ( { | ( (     0 q W W                             ",
"                          K.H.( &.J.      OXY.W ( G.K.K.K.K.      W Q W                             ",
"                        K.K.K.G.o.      }.D./ _ G.K.I.K.K.K.K.      W W W                           ",
"                        I.I.L.L.%.    OX..K J B.|.` U R U T h.]     E 2 : :                         ",
"                        ^ ^ } K.    #XOXI & 3.n._.U z v z n p.A     9 O O o                         ",
"                        O . @  .  #XOXQ.I & N 6.u.M c c c n :.b     o O O O                         ",
"                        o o O 2 {.+XE.1 & + @ ; c v c c c x < +       O O                           ",
"                          o K |.#X XA., + O O % c c c c c x + O O                                   ",
"                          %.{.#X#XoXR.1 O O o $ c c c c c x + o O                                   ",
"                            #X#X+XW.X., O o o * c c c c c l O o O                                   ",
"                            #X#X+XF.% * > b * * c c l c c x b *                                     ",
"                            #X#X@XF.% > 0.7.S $ c c - k c M 4.                                      ",
"                                Y 3 n 8.c.M.2.@ c c - k c M c.                                      ",
"                                & & A v.Z.Z.2.& c v - k Z k.n.                                      ",
"                                , 3 ~ f.n.Z.t.- c c k - >.Z.Z.                                      ",
"                                  T { +.g.k.] - l c     r.l.n.                                      ",
"                                  K.K.G./ 3 < < < c     =.)                                         ",
"                                    I.D.K , < <   c     K.G.                                        ",
"                                  I.I.K.  = <           L.I.                                        ",
"                                  O.O.@.              I.G.O./                                       ",
"                                    E E                 S.Q W                                       ",
"                                                                                                    "
};
