/* XPM */
static char *psr51641565253[] = {
/* columns rows colors chars-per-pixel */
"50 50 192 2 ",
"   c None",
".  c #0C001D",
"X  c #2F0A1B",
"o  c #0D0022",
"O  c #120022",
"+  c #1B0124",
"@  c #1D072A",
"#  c #260029",
"$  c #2A012D",
"%  c #240523",
"&  c #32052F",
"*  c #3D082C",
"=  c #3B1823",
"-  c #2F0631",
";  c #330632",
":  c #330A34",
">  c #3A0730",
",  c #36143A",
"<  c #2B1C38",
"1  c #23252A",
"2  c #2B2C2C",
"3  c #26292A",
"4  c #34312D",
"5  c #3C3028",
"6  c #292638",
"7  c #2F3131",
"8  c #2D353A",
"9  c #363A3B",
"0  c #51110C",
"q  c #4A1312",
"w  c #4F1612",
"e  c #621F11",
"r  c #6C2414",
"t  c #61251A",
"y  c #732916",
"u  c #7A2E15",
"i  c #7B2F1A",
"p  c #712714",
"a  c #7A3113",
"s  c #7D311A",
"d  c #4B0425",
"f  c #4A0729",
"g  c #530626",
"h  c #550B28",
"j  c #580C28",
"k  c #540927",
"l  c #491729",
"z  c #5D1128",
"x  c #54152C",
"c  c #581F38",
"v  c #641A2B",
"b  c #542427",
"n  c #493B38",
"m  c #4F332A",
"M  c #7C2E28",
"N  c #6C302F",
"B  c #5F523B",
"V  c #6D402E",
"C  c #645638",
"Z  c #754627",
"A  c #76633C",
"S  c #3B1D41",
"D  c #1B2048",
"F  c #352942",
"G  c #22305A",
"H  c #451D45",
"J  c #572D48",
"K  c #532E53",
"L  c #513C4B",
"P  c #633146",
"I  c #3B464A",
"U  c #3E4A4D",
"Y  c #424B4E",
"T  c #484944",
"R  c #514244",
"E  c #434D51",
"W  c #455154",
"Q  c #4D595D",
"!  c #4A5558",
"~  c #535D5F",
"^  c #58425E",
"/  c #6E524A",
"(  c #7A5443",
")  c #664949",
"_  c #59605F",
"`  c #6B6D5D",
"'  c #4F5E62",
"]  c #505E61",
"[  c #535767",
"{  c #594E75",
"}  c #6B5172",
"|  c #654B6D",
" . c #4C6067",
".. c #5C6A6E",
"X. c #566366",
"o. c #5F6772",
"O. c #706E6F",
"+. c #6C7A7E",
"@. c #657378",
"#. c #73767C",
"$. c #82341A",
"%. c #873A1E",
"&. c #8A3C1D",
"*. c #863B27",
"=. c #99471E",
"-. c #A44E1C",
";. c #964821",
":. c #854A38",
">. c #875836",
",. c #9E5838",
"<. c #A75B29",
"1. c #B25F27",
"2. c #A05B32",
"3. c #B6692D",
"4. c #B7672B",
"5. c #A1613D",
"6. c #B97737",
"7. c #AC662F",
"8. c #C37A35",
"9. c #D07B33",
"0. c #D1782C",
"q. c #875C45",
"w. c #AB6B41",
"e. c #A56640",
"r. c #B77741",
"t. c #A87C57",
"y. c #C6813A",
"u. c #CA8339",
"i. c #DA8637",
"p. c #EF983D",
"a. c #A28C52",
"s. c #B39855",
"d. c #BFA267",
"f. c #CE8D40",
"g. c #C19A52",
"h. c #CC964A",
"j. c #EA9A47",
"k. c #D3A34D",
"l. c #E4A84C",
"z. c #EEB44F",
"x. c #E5A35E",
"c. c #EDBC56",
"v. c #E9B455",
"b. c #F2BD56",
"n. c #F5A64E",
"m. c #CEBB7D",
"M. c #CCAA7E",
"N. c #F4BA72",
"B. c #F5C157",
"V. c #F7C559",
"C. c #745F8E",
"Z. c #6C7982",
"A. c #757E86",
"S. c #806D89",
"D. c #877D8E",
"F. c #8B728B",
"G. c #887F90",
"H. c #76858A",
"J. c #78878C",
"K. c #758387",
"L. c #7D8D92",
"P. c #7E9198",
"I. c #898D88",
"U. c #809196",
"Y. c #889596",
"T. c #8F9794",
"R. c #B7A58A",
"E. c #8E83A3",
"W. c #978EA9",
"Q. c #9EAAB6",
"!. c #B2A1B2",
"~. c #CCB089",
"^. c #CEBF9B",
"/. c #E6BC81",
"(. c #D3C49F",
"). c #FBD495",
"_. c #FDDC9E",
"`. c #F1CB8A",
"'. c #D6C8A3",
"]. c #FCDCA1",
"[. c #F1D7A2",
"{. c #FFE7A5",
"}. c #B7B2C4",
"|. c #BEC7D1",
" X c #C4C9C3",
".X c #C7C8D5",
"XX c #F0EDCC",
"oX c #E0DCE1",
"OX c #EAE9EC",
"+X c #F0EDF0",
"@X c #FEFEFE",
"#X c #E8EEF5",
/* pixels */
"                                                                                                    ",
"                                                                                                    ",
"                                                                                                    ",
"                                                                                                    ",
"                                                                                                    ",
"                                                                                                    ",
"                                                                                                    ",
"                                                                                                    ",
"                                                                                                    ",
"                                                                                                    ",
"                                              s s s s s s                                           ",
"                                        s s s s s s s r e s s                                       ",
"                                        s s s s s s r 0 0 e i                                       ",
"                                        s s s s s s a a a a p y                                     ",
"                                      s s s s s $.&.9.j.p.u.t r                                     ",
"                                      s s s s i %.0.N.).).N.t r $.                                  ",
"                                    s s s s s t X b M.{.~.L 0 p $.                                  ",
"                                  s s s s i =.w.#.G R.{.R.D q p                                     ",
"                                  s s s s i -.x.XXU.^.{.(.Z.w p     B 3                             ",
"                                  s s s s $.u 5.)._.].].]./.t r %.  k.B                             ",
"                                  s s s s s i ;.j.)._._.`.i.e r 6.l.3.                              ",
"                                  s s s s i i %.<.j.n.6.M a y 6.u.8.                                ",
"                                  y $.;.;.N / ( %.x.N.t.n m ;.y.u.                                  ",
"                                    7.8.8.C  .O.q.N._.(.Y._ >.<.1.                                  ",
"                                  g.v.b.c.C 8 ' I.f.N.[.(.J.' >.<.4.                                ",
"                                2 7 A b.c.C 8 X.L.I.T.Y.U.L.H.T Z 4.                                ",
"                              L.+.Y 4 C C T I E X.J.P.P.L.U.P.U 5 m                                 ",
"                              U.Y.+.Y 1 1   I U E ..o.......~ 9 2 3                                 ",
"                              +.J.Y.Z.2     +.U E Q ] ] ] ! 2 2 7 8                                 ",
"                              ! @.L.L.    OXT.E Q J.L.L.L.L.  7 I U Y                               ",
"                            L.H.] @.P.  |.A.! X.J.L.L.L.L.U.U.! U U U                               ",
"                            L.L.K.X.K.oX} S A ~. XL J P J ^ g.) F U E E                             ",
"                            U.U.P.Y.|.OXH # :.c.[.c d g d x y.N F I 6 6                             ",
"                            o.o.H.|.OX!.H # b 2.r.v g g h z M l 6 6 o o                             ",
"                            O + [ Q.W.: $ + # * j h j j j k ; + O O O O                             ",
"                            O O @ { C.- + O o % h h j h j h + O O   O O                             ",
"                            . o D.|.G.; O o o % h h j k j k + .                                     ",
"                            D.I.oX}.| - O o + f h j j j h f + . O                                   ",
"                            @X@X#XC.# $ = = f j h j k k z v l @                                     ",
"                            @X@X+XF.# = 7.3.*.g h k k j M 3.3.                                      ",
"                                K , x 5.l.c.5.g k > f M 6.v.v.                                      ",
"                                $ $ N l.B.V.e.g k ; f ,.z.B.B.                                      ",
"                                - , R a.c.V.7.g k : f q.s.B.B.                                      ",
"                                  L ] X.s.s.q.d k ;     ` g.c.                                      ",
"                                  L.L.H.E , ; > k :     Z.!                                         ",
"                                    U.K.S ; ; ;         L.J.                                        ",
"                                  U.U.L.  ; ;         L.L.U.                                        ",
"                                  ..o...              U.H...W                                       ",
"                                    U I                 +.U U                                       ",
"                                                                                                    "
};
