/* XPM */
static char *psr61641565253[] = {
/* columns rows colors chars-per-pixel */
"50 50 196 2 ",
"   c None",
".  c #0E001F",
"X  c #0E0021",
"o  c #120022",
"O  c #1A0024",
"+  c #190D29",
"@  c #170927",
"#  c #240225",
"$  c #2B022D",
"%  c #230527",
"&  c #37042B",
"*  c #36152A",
"=  c #2D0332",
"-  c #2A0A34",
";  c #330631",
":  c #350831",
">  c #2E1B3B",
",  c #3E143E",
"<  c #2D1326",
"1  c #2B2C2D",
"2  c #25272A",
"3  c #3A342E",
"4  c #32223E",
"5  c #2D353A",
"6  c #313435",
"7  c #2F2934",
"8  c #4C0E0A",
"9  c #49100F",
"0  c #5C1A0F",
"q  c #471415",
"w  c #621D11",
"e  c #5B221A",
"r  c #632111",
"t  c #6C2413",
"y  c #63261B",
"u  c #702715",
"i  c #752916",
"p  c #772E19",
"a  c #7A2F19",
"s  c #7D311A",
"d  c #48072B",
"f  c #4B0828",
"g  c #520626",
"h  c #550B28",
"j  c #570A27",
"k  c #481827",
"l  c #5A1329",
"z  c #551227",
"x  c #4E1635",
"c  c #5D1B34",
"v  c #601529",
"b  c #5B2A23",
"n  c #42203A",
"m  c #5B2032",
"M  c #463C33",
"N  c #4D2525",
"B  c #672D27",
"V  c #67353A",
"C  c #7D3F31",
"Z  c #612A33",
"A  c #4A4031",
"S  c #63553B",
"D  c #76553C",
"F  c #67432F",
"G  c #332B42",
"H  c #382944",
"J  c #363C45",
"K  c #24345D",
"L  c #502941",
"P  c #523448",
"I  c #4D2F50",
"U  c #3C4446",
"Y  c #3A4449",
"T  c #3E4A4D",
"R  c #3C4A50",
"E  c #304972",
"W  c #414B4D",
"Q  c #434849",
"!  c #434E51",
"~  c #4D5A5D",
"^  c #465257",
"/  c #545554",
"(  c #6E4040",
")  c #665F5D",
"_  c #7D5F57",
"`  c #4E5D61",
"'  c #515E62",
"]  c #546165",
"[  c #5C6A6E",
"{  c #576569",
"}  c #5E6C70",
"|  c #646D6D",
" . c #656D66",
".. c #616671",
"X. c #69767C",
"o. c #82341B",
"O. c #883C28",
"+. c #984719",
"@. c #A7511D",
"#. c #9F4E22",
"$. c #944827",
"%. c #834131",
"&. c #9C5937",
"*. c #9A5026",
"=. c #A35A28",
"-. c #A05E3C",
";. c #B45E26",
":. c #A8602E",
">. c #B4632A",
",. c #BB7232",
"<. c #BE7F3B",
"1. c #AE6A39",
"2. c #C8732B",
"3. c #C57B35",
"4. c #865C40",
"5. c #826D40",
"6. c #887A52",
"7. c #916C51",
"8. c #A66740",
"9. c #CA8439",
"0. c #E28C3A",
"q. c #F49C3F",
"w. c #9C8852",
"e. c #AA925A",
"r. c #B19574",
"t. c #D88F42",
"y. c #D29140",
"u. c #D49C47",
"i. c #C88D52",
"p. c #CC8E4C",
"a. c #E5994B",
"s. c #DDA047",
"d. c #D9AD52",
"f. c #DFB356",
"g. c #CDA454",
"h. c #E1A14E",
"j. c #F9AC53",
"k. c #EAB754",
"l. c #F1BE57",
"z. c #C0A27D",
"x. c #E8B774",
"c. c #EAAE67",
"v. c #F4C157",
"b. c #F6C459",
"n. c #FCC859",
"m. c #E9CC7F",
"M. c #F1C17E",
"N. c #6E5889",
"B. c #797E86",
"V. c #707F84",
"C. c #8A738D",
"Z. c #876C87",
"A. c #8A7FA0",
"S. c #718185",
"D. c #77868B",
"F. c #788289",
"G. c #7A8A8E",
"H. c #7E8D92",
"J. c #838C8E",
"K. c #8C908A",
"L. c #87908D",
"P. c #828F92",
"I. c #87829C",
"U. c #809195",
"Y. c #839499",
"T. c #889698",
"R. c #A4A799",
"E. c #B9AC90",
"W. c #948AA4",
"Q. c #979AA7",
"!. c #A3A5A3",
"~. c #C0A581",
"^. c #D0AD80",
"/. c #CCB78F",
"(. c #DCC89C",
"). c #FAC983",
"_. c #F1CE94",
"`. c #FFDF9D",
"'. c #FBD797",
"]. c #DDCBA0",
"[. c #E0CDA1",
"{. c #FEDFA3",
"}. c #E6D3A5",
"|. c #FFE4A2",
" X c #FFEAA8",
".X c #B2B4C6",
"XX c #C1BDC4",
"oX c #B9C4C5",
"OX c #CCC8DF",
"+X c #D3D4D1",
"@X c #F6ECC3",
"#X c #E2DFE3",
"$X c #E5E5EC",
"%X c #FEFEFE",
"&X c #F6F5F6",
"*X c #E8EDF3",
/* pixels */
"                                                                                                    ",
"                                                                                                    ",
"                                                                                                    ",
"                                                                                                    ",
"                                                                                                    ",
"                                                                                                    ",
"                                                                                                    ",
"                                                                                                    ",
"                                                                                                    ",
"                                            s s s s s s p                                           ",
"                                        s s s s s s s r 0 s s                                       ",
"                                        s s s s s s w 8 8 0 p                                       ",
"                                      s s s s s s p +.+.+.+.t i                                     ",
"                                      s s s s s s #.0.j.j.a.r t o.                                  ",
"                                      s s s s s s 2.M.|.`.^.e t o.                                  ",
"                                    s s s s o.y + < z.|.E.* 9 i                                     ",
"                                  s s s s p @.p.!.E E.|.E.K q u     2 1                             ",
"                                  s s s s s +.i.@X!.(.{.[.K.e u     5.6                             ",
"                                  s s s s s i &.).|.{.{.`.x.y w *.  u.A                             ",
"                                  s s s s s p #.0.).'._.x.2.r p 9.u.>.                              ",
"                                  s o.s s s s s +.0.q.=.w w a p.9.,.                                ",
"                                  i o.=.=.F ) _ O.x.).r./ M #.,.3.                                  ",
"                                    9.9.y.S ^ ..7.c.'.}.R.} D =.;.                                  ",
"                                  e.g.b.v.S 5 ` U.i./.]./.G.] D =.>.                                ",
"                              H.U.] / d.d.S 5 ' D.P.P.H.H.H.H.Q F =.                                ",
"                              H.U.J. .M M U T T ~ D.H.H.H.H.H.Q 1 3                                 ",
"                              ' S.T.| 1     T T W ` ' ~ ' ~ W 6 6 Y T                               ",
"                            D.} [ S.S.      L.T ! { [ [ [ { 1 6 U ! T                               ",
"                            H.H.[ [ X.    OXU.W { H.U.U.Y.G.^ Q T T T                               ",
"                            H.H.H.[ ^   .X..Q  .Y.F.B.B.B.F.K.  Y T Y Y                             ",
"                            G.H.J.S.  $XI - &.m.+XP x c x L g.( 4 J @ @                             ",
"                            G G X.oX%X$XL = F s.M.c g j f l ,.Z - + o o                             ",
"                            . X 7 Q.OXC.x % k O.8.v h j j z B * O o o o                             ",
"                            . . I I.I.= - o O $ d g h j j z $ O     o o                             ",
"                            > 4 .XOXN.- o o X % h h h h j f O o                                     ",
"                            #X#X&X$XW.; o o o % h h h h j f O o o                                   ",
"                            %X%X*XW.I = X . X $ h h j j d % o X o                                   ",
"                            %X%X*XC.# % b B k & h j h h h b b *                                     ",
"                            %X%X%XZ.$ N ,.9.$.g h h h l O.3.9.                                      ",
"                                  = m ,.k.v.-.g h : d O.9.l.l.                                      ",
"                                    V k.l.v.8.f h : f -.k.v.v.                                      ",
"                                  $ n 6.k.n.1.g h : & P w.v.v.                                      ",
"                                  4 G W w.7.V d h ; - 7 / w.f.                                      ",
"                                  ] ] ` R > $ : d ; - I ] ~                                         ",
"                                  H.H.D.^     ; ; ;     H.H.                                        ",
"                                  H.H.H.        ;       H.H.                                        ",
"                                  U.U.U.              H.H.U.                                        ",
"                                  [ } }               U.D.[ ^                                       ",
"                                    T Y                 X.W T                                       ",
"                                                                                                    "
};
